<svg width="359" height="444" viewBox="0 0 359 444" fill="none" xmlns="http://www.w3.org/2000/svg">
<rect x="114" y="13.251" width="175" height="200" rx="24" transform="rotate(-4.34266 114 13.251)" fill="#0B0B0D"/>
<mask id="mask0_87_5756" style="mask-type:alpha" maskUnits="userSpaceOnUse" x="115" y="1" width="187" height="210">
<rect x="114" y="13.251" width="175" height="200" rx="24" transform="rotate(-4.34266 114 13.251)" fill="#0B0B0D"/>
</mask>
<g mask="url(#mask0_87_5756)">
<path d="M115.817 37.1821C114.814 23.9653 124.714 12.4373 137.931 11.4337L264.566 1.81709C277.783 0.813415 289.311 10.7141 290.315 23.9309L301.824 175.494C302.828 188.711 292.927 200.239 279.711 201.243L153.075 210.859C139.859 211.863 128.331 201.962 127.327 188.746L115.817 37.1821Z" fill="url(#paint0_linear_87_5756)"/>
<g style="mix-blend-mode:overlay" opacity="0.3">
<circle cx="267.469" cy="13.631" r="77" transform="rotate(-4.34266 267.469 13.631)" fill="url(#paint1_linear_87_5756)" fill-opacity="0.2"/>
</g>
<g style="mix-blend-mode:overlay" opacity="0.3">
<circle cx="77" cy="77" r="77" transform="matrix(-0.997129 0.0757211 0.0757211 0.997129 182.549 31.1113)" fill="url(#paint2_linear_87_5756)" fill-opacity="0.2"/>
</g>
<g style="mix-blend-mode:overlay">
<circle cx="267.038" cy="219.254" r="77" transform="rotate(-4.34266 267.038 219.254)" fill="url(#paint3_linear_87_5756)" fill-opacity="0.2"/>
</g>
</g>
<path d="M179.725 188.778L178.624 174.274L184.615 173.819C185.701 173.737 186.654 173.878 187.475 174.243C188.3 174.603 188.956 175.144 189.443 175.867C189.93 176.585 190.211 177.442 190.287 178.439C190.363 179.439 190.209 180.332 189.827 181.116C189.45 181.895 188.873 182.52 188.097 182.992C187.321 183.465 186.378 183.743 185.268 183.827L181.571 184.108L181.362 181.346L184.407 181.114C184.936 181.074 185.37 180.949 185.71 180.738C186.055 180.526 186.307 180.248 186.466 179.904C186.625 179.555 186.687 179.158 186.654 178.714C186.619 178.266 186.498 177.886 186.289 177.574C186.08 177.257 185.789 177.023 185.417 176.871C185.044 176.719 184.596 176.663 184.072 176.702L182.344 176.834L183.231 188.512L179.725 188.778ZM192.336 187.82L191.234 173.317L194.74 173.05L195.625 184.707L201.659 184.249L201.875 187.096L192.336 187.82ZM205.695 172.218L206.796 186.722L203.291 186.988L202.19 172.485L205.695 172.218ZM219.841 171.144L220.942 185.648L217.968 185.874L211.56 177.941L211.468 177.948L212.104 186.319L208.598 186.585L207.497 172.082L210.514 171.853L216.856 179.776L216.977 179.767L216.342 171.41L219.841 171.144ZM222.747 185.511L221.646 171.007L225.152 170.741L225.617 176.874L225.808 176.859L230.137 170.362L234.266 170.049L229.616 176.912L235.459 184.545L231.267 184.864L227.222 179.437L225.954 181.314L226.253 185.245L222.747 185.511ZM248.633 176.251C248.754 177.847 248.55 179.223 248.02 180.379C247.491 181.535 246.724 182.441 245.72 183.097C244.72 183.752 243.571 184.129 242.273 184.228C240.969 184.327 239.774 184.125 238.687 183.624C237.599 183.122 236.707 182.342 236.009 181.284C235.316 180.221 234.909 178.894 234.788 177.303C234.667 175.707 234.868 174.331 235.393 173.176C235.923 172.019 236.687 171.114 237.687 170.459C238.687 169.803 239.838 169.426 241.141 169.327C242.439 169.229 243.632 169.428 244.719 169.925C245.811 170.421 246.706 171.201 247.404 172.263C248.102 173.326 248.512 174.656 248.633 176.251ZM245.049 176.524C244.978 175.579 244.783 174.792 244.464 174.161C244.15 173.529 243.73 173.065 243.204 172.768C242.683 172.47 242.073 172.348 241.374 172.401C240.68 172.454 240.096 172.666 239.621 173.04C239.146 173.413 238.799 173.935 238.579 174.607C238.364 175.279 238.292 176.087 238.364 177.031C238.436 177.975 238.629 178.763 238.943 179.395C239.261 180.026 239.683 180.49 240.209 180.787C240.735 181.084 241.345 181.207 242.039 181.154C242.738 181.101 243.322 180.888 243.793 180.515C244.268 180.142 244.613 179.62 244.828 178.948C245.047 178.276 245.121 177.468 245.049 176.524Z" fill="white"/>
<g opacity="0.3">
<circle cx="203.266" cy="24.2419" r="3.71875" transform="rotate(-4.34266 203.266 24.2419)" fill="white"/>
<circle cx="188.605" cy="44.0027" r="3.71875" transform="rotate(-4.34266 188.605 44.0027)" fill="white"/>
<circle cx="204.674" cy="42.782" r="3.71875" transform="rotate(-4.34266 204.674 42.782)" fill="white"/>
<circle cx="220.742" cy="41.5622" r="3.71875" transform="rotate(-4.34266 220.742 41.5622)" fill="white"/>
<circle cx="173.945" cy="63.7634" r="3.71875" transform="rotate(-4.34266 173.945 63.7634)" fill="white"/>
<circle cx="190.013" cy="62.5437" r="3.71875" transform="rotate(-4.34266 190.013 62.5437)" fill="white"/>
<circle cx="206.081" cy="61.323" r="3.71875" transform="rotate(-4.34266 206.081 61.323)" fill="white"/>
<circle cx="222.15" cy="60.1032" r="3.71875" transform="rotate(-4.34266 222.15 60.1032)" fill="white"/>
<circle cx="238.218" cy="58.8825" r="3.71875" transform="rotate(-4.34266 238.218 58.8825)" fill="white"/>
<circle cx="166.701" cy="82.9607" r="3.71875" transform="rotate(-4.34266 166.701 82.9607)" fill="white"/>
<circle cx="182.769" cy="81.7409" r="3.71875" transform="rotate(-4.34266 182.769 81.7409)" fill="white"/>
<circle cx="198.837" cy="80.5202" r="3.71875" transform="rotate(-4.34266 198.837 80.5202)" fill="white"/>
<circle cx="214.906" cy="79.3005" r="3.71875" transform="rotate(-4.34266 214.906 79.3005)" fill="white"/>
<circle cx="230.974" cy="78.0798" r="3.71875" transform="rotate(-4.34266 230.974 78.0798)" fill="white"/>
<circle cx="247.042" cy="76.8601" r="3.71875" transform="rotate(-4.34266 247.042 76.8601)" fill="white"/>
<circle cx="160.692" cy="102.064" r="3.71875" transform="rotate(-4.34266 160.692 102.064)" fill="white"/>
<circle cx="176.761" cy="100.844" r="3.71875" transform="rotate(-4.34266 176.761 100.844)" fill="white"/>
<circle cx="192.829" cy="99.6237" r="3.71875" transform="rotate(-4.34266 192.829 99.6237)" fill="white"/>
<circle cx="208.897" cy="98.404" r="3.71875" transform="rotate(-4.34266 208.897 98.404)" fill="white"/>
<circle cx="224.966" cy="97.1833" r="3.71875" transform="rotate(-4.34266 224.966 97.1833)" fill="white"/>
<circle cx="241.034" cy="95.9636" r="3.71875" transform="rotate(-4.34266 241.034 95.9636)" fill="white"/>
<circle cx="257.102" cy="94.7429" r="3.71875" transform="rotate(-4.34266 257.102 94.7429)" fill="white"/>
<circle cx="153.448" cy="121.261" r="3.71875" transform="rotate(-4.34266 153.448 121.261)" fill="white"/>
<circle cx="169.517" cy="120.042" r="3.71875" transform="rotate(-4.34266 169.517 120.042)" fill="white"/>
<circle cx="185.585" cy="118.821" r="3.71875" transform="rotate(-4.34266 185.585 118.821)" fill="white"/>
<circle cx="201.653" cy="117.601" r="3.71875" transform="rotate(-4.34266 201.653 117.601)" fill="white"/>
<circle cx="217.721" cy="116.381" r="3.71875" transform="rotate(-4.34266 217.721 116.381)" fill="white"/>
<circle cx="233.79" cy="115.161" r="3.71875" transform="rotate(-4.34266 233.79 115.161)" fill="white"/>
<circle cx="249.858" cy="113.94" r="3.71875" transform="rotate(-4.34266 249.858 113.94)" fill="white"/>
<circle cx="265.926" cy="112.72" r="3.71875" transform="rotate(-4.34266 265.926 112.72)" fill="white"/>
<circle cx="147.44" cy="140.365" r="3.71875" transform="rotate(-4.34266 147.44 140.365)" fill="white"/>
<circle cx="163.508" cy="139.145" r="3.71875" transform="rotate(-4.34266 163.508 139.145)" fill="white"/>
<circle cx="179.577" cy="137.925" r="3.71875" transform="rotate(-4.34266 179.577 137.925)" fill="white"/>
<circle cx="195.645" cy="136.705" r="3.71875" transform="rotate(-4.34266 195.645 136.705)" fill="white"/>
<circle cx="211.713" cy="135.484" r="3.71875" transform="rotate(-4.34266 211.713 135.484)" fill="white"/>
<circle cx="227.782" cy="134.264" r="3.71875" transform="rotate(-4.34266 227.782 134.264)" fill="white"/>
<circle cx="243.85" cy="133.044" r="3.71875" transform="rotate(-4.34266 243.85 133.044)" fill="white"/>
<circle cx="259.918" cy="131.824" r="3.71875" transform="rotate(-4.34266 259.918 131.824)" fill="white"/>
<circle cx="275.987" cy="130.603" r="3.71875" transform="rotate(-4.34266 275.987 130.603)" fill="white"/>
</g>
<circle cx="215.814" cy="53.1561" r="6.5" transform="rotate(-4.34266 215.814 53.1561)" fill="white"/>
<circle cx="183.022" cy="96.7645" r="6.5" transform="rotate(-4.34266 183.022 96.7645)" fill="white"/>
<circle cx="228.094" cy="122.425" r="6.5" transform="rotate(-4.34266 228.094 122.425)" fill="white"/>
<mask id="mask1_87_5756" style="mask-type:alpha" maskUnits="userSpaceOnUse" x="141" y="131" width="147" height="39">
<rect x="141.868" y="142.512" width="144" height="27" transform="rotate(-4.34266 141.868 142.512)" fill="url(#paint4_linear_87_5756)"/>
</mask>
<g mask="url(#mask1_87_5756)">
<path d="M144.013 144.354L166.947 142.613L168.84 167.541V167.541C156.174 168.503 145.127 159.015 144.165 146.349L144.013 144.354Z" fill="url(#paint5_linear_87_5756)" fill-opacity="0.3"/>
<rect x="166.947" y="142.613" width="23" height="25" transform="rotate(-4.34266 166.947 142.613)" fill="url(#paint6_linear_87_5756)" fill-opacity="0.3"/>
<rect x="189.881" y="140.871" width="23" height="25" transform="rotate(-4.34266 189.881 140.871)" fill="url(#paint7_linear_87_5756)" fill-opacity="0.3"/>
<rect x="212.815" y="139.13" width="23" height="25" transform="rotate(-4.34266 212.815 139.13)" fill="url(#paint8_linear_87_5756)" fill-opacity="0.3"/>
<rect x="235.749" y="137.388" width="23" height="25" transform="rotate(-4.34266 235.749 137.388)" fill="url(#paint9_linear_87_5756)" fill-opacity="0.3"/>
<path d="M258.683 135.646L281.617 133.905L281.769 135.899C282.731 148.565 273.242 159.613 260.576 160.575V160.575L258.683 135.646Z" fill="url(#paint10_linear_87_5756)" fill-opacity="0.3"/>
</g>
<rect x="163.239" y="168.018" width="201.893" height="230.735" rx="27.6882" transform="rotate(14.9451 163.239 168.018)" fill="#0B0B0D"/>
<mask id="mask2_87_5756" style="mask-type:alpha" maskUnits="userSpaceOnUse" x="109" y="174" width="244" height="263">
<rect x="163.239" y="168.018" width="201.893" height="230.735" rx="27.6882" transform="rotate(14.9451 163.239 168.018)" fill="#0B0B0D"/>
</mask>
<g mask="url(#mask2_87_5756)">
<path d="M156.098 194.769C160.042 179.995 175.216 171.215 189.991 175.158L331.551 212.944C346.326 216.888 355.106 232.062 351.162 246.836L305.938 416.263C301.995 431.037 286.821 439.818 272.046 435.874L130.486 398.088C115.711 394.145 106.931 378.97 110.875 364.196L156.098 194.769Z" fill="url(#paint11_linear_87_5756)"/>
<path d="M326.826 396.165C309.49 461.112 242.787 499.708 177.841 482.372C112.895 465.036 74.2989 398.334 91.6345 333.388C108.97 268.441 175.673 229.845 240.619 247.181C305.565 264.517 344.161 331.219 326.826 396.165ZM110.394 338.395C95.8242 392.98 128.263 449.042 182.849 463.612C237.434 478.182 293.496 445.743 308.066 391.158C322.636 336.572 290.197 280.511 235.612 265.941C181.026 251.371 124.964 283.81 110.394 338.395Z" fill="white" fill-opacity="0.1"/>
<circle cx="209.23" cy="364.776" r="121.713" transform="rotate(14.9451 209.23 364.776)" fill="url(#paint12_linear_87_5756)" fill-opacity="0.3"/>
<g opacity="0.5">
<circle cx="219.231" cy="342.968" r="139.595" transform="rotate(14.9451 219.231 342.968)" fill="url(#paint13_linear_87_5756)" fill-opacity="0.05"/>
<circle cx="219.231" cy="342.968" r="139.018" transform="rotate(14.9451 219.231 342.968)" stroke="url(#paint14_linear_87_5756)" stroke-opacity="0.3" stroke-width="1.15368"/>
</g>
<path d="M163.828 262.387C161.655 257.485 163.857 251.71 168.916 249.934C194.133 241.081 221.664 240.747 247.226 249.146C272.787 257.546 294.754 274.144 309.805 296.229C312.824 300.66 311.172 306.616 306.515 309.273V309.273C301.858 311.93 295.965 310.276 292.879 305.891C280.26 287.965 262.154 274.49 241.164 267.593C220.175 260.696 197.605 260.805 176.812 267.753C171.727 269.452 166.002 267.288 163.828 262.387V262.387Z" fill="url(#paint15_linear_87_5756)"/>
<path d="M168.554 367.083L172.464 368.127L169.673 378.585C169.35 379.793 168.782 380.769 167.967 381.513C167.154 382.252 166.167 382.729 165.007 382.945C163.848 383.156 162.588 383.079 161.226 382.716C159.849 382.348 158.71 381.784 157.81 381.024C156.912 380.259 156.297 379.354 155.965 378.31C155.635 377.26 155.631 376.131 155.954 374.923L158.745 364.465L162.664 365.511L159.963 375.628C159.814 376.188 159.802 376.719 159.928 377.222C160.059 377.726 160.313 378.161 160.69 378.528C161.067 378.894 161.549 379.156 162.135 379.312C162.72 379.468 163.265 379.481 163.77 379.35C164.279 379.22 164.717 378.969 165.082 378.597C165.446 378.226 165.704 377.76 165.853 377.2L168.554 367.083ZM170.147 384.877L174.475 368.664L181.172 370.451C182.386 370.775 183.37 371.292 184.125 372.003C184.886 372.709 185.394 373.549 185.649 374.521C185.905 375.489 185.885 376.529 185.587 377.643C185.289 378.761 184.782 379.675 184.067 380.383C183.359 381.087 182.493 381.549 181.467 381.767C180.442 381.985 179.31 381.929 178.069 381.598L173.937 380.495L174.761 377.407L178.165 378.316C178.756 378.474 179.277 378.502 179.728 378.402C180.184 378.304 180.564 378.097 180.869 377.782C181.175 377.463 181.394 377.055 181.526 376.559C181.66 376.057 181.673 375.597 181.564 375.178C181.457 374.753 181.229 374.387 180.882 374.08C180.534 373.772 180.068 373.54 179.482 373.384L177.55 372.868L174.066 385.923L170.147 384.877ZM197.798 380.563C197.797 380.206 197.743 379.878 197.636 379.578C197.531 379.273 197.376 378.997 197.17 378.75C196.965 378.503 196.711 378.291 196.407 378.114C196.106 377.931 195.759 377.788 195.369 377.684C194.582 377.474 193.851 377.482 193.174 377.709C192.503 377.937 191.914 378.373 191.408 379.018C190.904 379.658 190.514 380.495 190.238 381.53C189.96 382.569 189.874 383.496 189.979 384.31C190.084 385.124 190.37 385.8 190.837 386.337C191.304 386.875 191.944 387.252 192.757 387.469C193.475 387.66 194.113 387.706 194.671 387.606C195.236 387.503 195.705 387.269 196.079 386.905C196.453 386.542 196.718 386.067 196.875 385.481L197.58 385.762L193.637 384.71L194.4 381.852L201.391 383.718L200.818 385.863C200.431 387.315 199.79 388.475 198.896 389.345C198.008 390.216 196.952 390.785 195.727 391.052C194.508 391.32 193.202 391.268 191.808 390.896C190.262 390.483 188.992 389.785 188 388.802C187.007 387.819 186.349 386.62 186.025 385.205C185.703 383.785 185.771 382.22 186.227 380.51C186.582 379.18 187.095 378.053 187.765 377.13C188.437 376.201 189.223 375.472 190.121 374.943C191.026 374.416 191.994 374.092 193.027 373.972C194.065 373.853 195.125 373.938 196.207 374.227C197.146 374.478 197.984 374.845 198.719 375.33C199.46 375.816 200.077 376.388 200.568 377.045C201.065 377.703 201.419 378.422 201.629 379.202C201.839 379.982 201.884 380.788 201.764 381.621L197.798 380.563ZM200.888 393.082L205.215 376.869L211.913 378.657C213.127 378.981 214.116 379.479 214.88 380.153C215.651 380.822 216.169 381.627 216.432 382.568C216.697 383.504 216.681 384.526 216.385 385.634C216.085 386.758 215.585 387.648 214.884 388.304C214.185 388.954 213.329 389.364 212.317 389.535C211.306 389.7 210.183 389.618 208.948 389.289L204.712 388.158L205.536 385.071L209.043 386.007C209.635 386.165 210.148 386.22 210.585 386.172C211.029 386.121 211.395 385.965 211.686 385.703C211.977 385.436 212.19 385.052 212.324 384.55C212.458 384.049 212.466 383.607 212.347 383.225C212.23 382.838 211.993 382.508 211.635 382.238C211.279 381.962 210.808 381.746 210.223 381.589L208.291 381.074L204.806 394.128L200.888 393.082ZM211.993 388.109L214.053 396.596L209.778 395.455L207.798 386.989L211.993 388.109ZM218.709 397.839L214.498 396.715L224.296 381.962L229.513 383.355L230.655 401.028L226.444 399.904L225.873 386.759L225.747 386.725L218.709 397.839ZM219.85 391.308L228.654 393.658L227.859 396.635L219.056 394.285L219.85 391.308ZM237.948 402.974L231.955 401.375L236.283 385.162L242.268 386.759C243.92 387.2 245.255 387.904 246.275 388.872C247.301 389.835 247.977 391.011 248.302 392.398C248.628 393.78 248.567 395.313 248.118 396.996C247.667 398.685 246.955 400.05 245.982 401.09C245.014 402.132 243.844 402.818 242.473 403.147C241.103 403.472 239.595 403.414 237.948 402.974ZM236.766 399.08L238.689 399.593C239.597 399.836 240.406 399.888 241.116 399.749C241.832 399.607 242.444 399.23 242.952 398.62C243.467 398.005 243.88 397.114 244.191 395.948C244.502 394.782 244.587 393.809 244.444 393.03C244.303 392.246 243.954 391.616 243.397 391.14C242.846 390.659 242.107 390.295 241.178 390.047L239.31 389.548L236.766 399.08ZM247.794 405.602L252.121 389.389L263.426 392.407L262.577 395.589L255.19 393.618L254.303 396.943L261.111 398.76L260.26 401.95L253.451 400.133L252.562 403.466L259.948 405.437L259.098 408.62L247.794 405.602Z" fill="white"/>
</g>
<path fill-rule="evenodd" clip-rule="evenodd" d="M245.332 220.307C245.73 220.077 246.201 220.015 246.645 220.133C247.088 220.251 247.466 220.541 247.696 220.937L252.141 228.62L259.823 224.175C260.02 224.051 260.24 223.969 260.469 223.932C260.699 223.895 260.933 223.905 261.159 223.961C261.384 224.017 261.596 224.118 261.782 224.258C261.968 224.397 262.123 224.573 262.24 224.774C262.356 224.975 262.431 225.198 262.459 225.428C262.488 225.659 262.47 225.893 262.406 226.117C262.342 226.34 262.234 226.548 262.088 226.729C261.941 226.91 261.76 227.059 261.555 227.168L252.376 232.48C251.979 232.709 251.507 232.772 251.064 232.653C250.621 232.535 250.243 232.246 250.013 231.849L244.702 222.67C244.472 222.273 244.41 221.801 244.528 221.358C244.646 220.915 244.936 220.537 245.332 220.307Z" fill="white"/>
<rect y="183.601" width="151" height="172.571" rx="20.7086" transform="rotate(-11.3049 0 183.601)" fill="url(#paint16_linear_87_5756)"/>
<mask id="mask3_87_5756" style="mask-type:alpha" maskUnits="userSpaceOnUse" x="3" y="157" width="176" height="193">
<rect y="183.601" width="151" height="172.571" rx="20.7086" transform="rotate(-11.3049 0 183.601)" fill="#0B0B0D"/>
</mask>
<g mask="url(#mask3_87_5756)">
<rect y="183.601" width="151" height="172.571" rx="20.7086" transform="rotate(-11.3049 0 183.601)" fill="url(#paint17_linear_87_5756)"/>
<g style="mix-blend-mode:overlay" opacity="0.3">
<path d="M85.7466 212.71C58.7072 238.139 24.5089 241.147 10.7897 239.473L9.61492 275.534L16.0367 369.461L53.1392 367.442L187.873 321.858C176.394 254.136 151.947 122.719 145.989 138.829C138.543 158.967 119.546 180.923 85.7466 212.71Z" fill="url(#paint18_linear_87_5756)"/>
<path d="M85.7466 212.71C58.7072 238.139 24.5089 241.147 10.7897 239.473L9.61492 275.534L16.0367 369.461L53.1392 367.442L187.873 321.858C176.394 254.136 151.947 122.719 145.989 138.829C138.543 158.967 119.546 180.923 85.7466 212.71Z" stroke="url(#paint19_linear_87_5756)" stroke-width="1.72571" stroke-linecap="round"/>
</g>
<path d="M15.8766 280.626C51.6195 274.651 126.473 252.197 139.943 210.18" stroke="url(#paint20_linear_87_5756)" stroke-width="3.45143" stroke-linecap="round"/>
<path d="M139.943 210.18C126.473 252.197 51.6195 274.651 15.8766 280.626L24.0138 358.745L164.046 330.752L139.943 210.18Z" fill="url(#paint21_linear_87_5756)" fill-opacity="0.5"/>
<path d="M85.3904 317.373L82.3857 317.974C82.284 317.673 82.1462 317.411 81.9724 317.188C81.7985 316.964 81.5918 316.785 81.3522 316.649C81.1127 316.514 80.8435 316.428 80.5446 316.392C80.249 316.351 79.9329 316.364 79.5964 316.432C78.9994 316.551 78.5139 316.8 78.1397 317.179C77.7695 317.557 77.5234 318.046 77.4016 318.645C77.2838 319.244 77.3033 319.936 77.4603 320.721C77.6237 321.538 77.8768 322.2 78.2197 322.706C78.5658 323.208 78.9792 323.556 79.4599 323.752C79.9438 323.943 80.4783 323.98 81.0632 323.863C81.3917 323.797 81.6817 323.695 81.9333 323.558C82.1889 323.419 82.4029 323.249 82.5752 323.048C82.7507 322.842 82.8813 322.61 82.967 322.351C83.056 322.087 83.0969 321.802 83.0897 321.495L86.098 320.913C86.1548 321.468 86.1039 322.036 85.9452 322.618C85.7905 323.199 85.5284 323.753 85.159 324.281C84.7888 324.805 84.3008 325.261 83.6951 325.649C83.0933 326.036 82.3698 326.314 81.5244 326.483C80.4107 326.705 79.3643 326.66 78.3852 326.348C77.4094 326.031 76.5729 325.452 75.8759 324.612C75.1789 323.772 74.6955 322.678 74.4256 321.327C74.1549 319.973 74.1838 318.774 74.5124 317.729C74.841 316.684 75.3972 315.829 76.1808 315.165C76.9645 314.5 77.9032 314.058 78.9969 313.839C79.742 313.69 80.4519 313.657 81.1266 313.738C81.8004 313.816 82.4173 314.005 82.9774 314.306C83.5366 314.602 84.0237 315.007 84.4387 315.52C84.8537 316.033 85.1709 316.65 85.3904 317.373ZM88.323 324.949L85.8627 312.642L90.9466 311.625C91.8681 311.441 92.6965 311.448 93.432 311.647C94.1708 311.841 94.7841 312.21 95.272 312.754C95.7591 313.294 96.0867 313.985 96.2549 314.826C96.4255 315.68 96.3842 316.442 96.1309 317.113C95.8769 317.781 95.4385 318.339 94.8159 318.789C94.1925 319.234 93.4121 319.55 92.4747 319.738L89.2597 320.381L88.7911 318.037L91.4533 317.505C91.902 317.415 92.265 317.282 92.5422 317.106C92.8226 316.925 93.017 316.698 93.1252 316.427C93.2325 316.151 93.2482 315.823 93.1721 315.443C93.096 315.062 92.955 314.763 92.7491 314.546C92.5424 314.325 92.2744 314.183 91.9451 314.119C91.615 314.052 91.2276 314.063 90.7829 314.152L89.3167 314.445L91.2976 324.354L88.323 324.949ZM94.1274 317.939L98.3166 322.951L95.0715 323.6L90.9424 318.576L94.1274 317.939ZM101.851 322.244L98.6542 322.883L100.346 309.746L104.306 308.955L110.919 320.432L107.722 321.071L102.991 312.442L102.895 312.461L101.851 322.244ZM100.456 317.486L107.139 316.15L107.59 318.41L100.908 319.746L100.456 317.486ZM116.455 310.363C116.327 309.93 116.081 309.623 115.715 309.442C115.353 309.256 114.882 309.222 114.301 309.338C113.916 309.415 113.606 309.529 113.369 309.68C113.133 309.832 112.968 310.008 112.875 310.21C112.781 310.408 112.755 310.619 112.796 310.845C112.825 311.031 112.893 311.186 113.001 311.31C113.113 311.433 113.258 311.533 113.436 311.61C113.617 311.682 113.828 311.736 114.068 311.771C114.309 311.807 114.575 311.826 114.868 311.83L115.973 311.859C116.609 311.87 117.181 311.939 117.69 312.066C118.202 312.193 118.647 312.377 119.025 312.618C119.406 312.858 119.719 313.16 119.962 313.524C120.206 313.888 120.379 314.316 120.481 314.808C120.633 315.586 120.57 316.292 120.292 316.927C120.015 317.561 119.541 318.1 118.872 318.542C118.206 318.983 117.36 319.306 116.334 319.511C115.305 319.717 114.377 319.742 113.55 319.587C112.723 319.431 112.034 319.082 111.484 318.538C110.933 317.993 110.556 317.242 110.352 316.283L113.2 315.713C113.304 316.105 113.476 316.414 113.717 316.641C113.958 316.868 114.257 317.017 114.612 317.087C114.972 317.157 115.37 317.148 115.807 317.061C116.208 316.981 116.537 316.859 116.796 316.694C117.059 316.529 117.247 316.335 117.361 316.113C117.475 315.89 117.509 315.654 117.463 315.405C117.413 315.173 117.301 314.989 117.128 314.853C116.954 314.713 116.709 314.612 116.393 314.55C116.079 314.484 115.688 314.443 115.218 314.429L113.872 314.385C112.758 314.354 111.84 314.127 111.118 313.705C110.395 313.279 109.942 312.598 109.76 311.664C109.604 310.904 109.675 310.196 109.973 309.54C110.271 308.885 110.752 308.324 111.417 307.858C112.083 307.392 112.882 307.065 113.815 306.879C114.769 306.688 115.628 306.685 116.394 306.869C117.164 307.049 117.801 307.39 118.305 307.893C118.81 308.397 119.143 309.03 119.304 309.794L116.455 310.363ZM122.359 318.145L119.898 305.838L122.873 305.243L123.86 310.183L128.71 309.213L127.723 304.273L130.691 303.68L133.151 315.987L130.183 316.581L129.194 311.635L124.345 312.604L125.333 317.55L122.359 318.145Z" fill="white"/>
<circle opacity="0.2" cx="137.912" cy="213.227" r="11.2171" transform="rotate(-11.3049 137.912 213.227)" stroke="white" stroke-width="1.72571"/>
</g>
<circle cx="137.912" cy="213.227" r="8.62857" transform="rotate(-11.3049 137.912 213.227)" fill="white"/>
<defs>
<linearGradient id="paint0_linear_87_5756" x1="142.336" y1="16.615" x2="216.393" y2="206.051" gradientUnits="userSpaceOnUse">
<stop stop-color="#FF5F5F"/>
<stop offset="1" stop-color="#FF6F00"/>
</linearGradient>
<linearGradient id="paint1_linear_87_5756" x1="212.469" y1="110.131" x2="334.469" y2="34.131" gradientUnits="userSpaceOnUse">
<stop stop-color="white"/>
<stop offset="1" stop-color="white" stop-opacity="0"/>
</linearGradient>
<linearGradient id="paint2_linear_87_5756" x1="22" y1="173.5" x2="144" y2="97.5" gradientUnits="userSpaceOnUse">
<stop stop-color="white"/>
<stop offset="1" stop-color="white" stop-opacity="0"/>
</linearGradient>
<linearGradient id="paint3_linear_87_5756" x1="212.038" y1="315.754" x2="334.038" y2="239.754" gradientUnits="userSpaceOnUse">
<stop stop-color="white"/>
<stop offset="1" stop-color="white" stop-opacity="0"/>
</linearGradient>
<linearGradient id="paint4_linear_87_5756" x1="141.868" y1="156.012" x2="285.868" y2="156.012" gradientUnits="userSpaceOnUse">
<stop stop-color="#D9D9D9"/>
<stop offset="1" stop-color="#737373"/>
</linearGradient>
<linearGradient id="paint5_linear_87_5756" x1="155.48" y1="143.484" x2="157.626" y2="184.94" gradientUnits="userSpaceOnUse">
<stop stop-color="white" stop-opacity="0"/>
<stop offset="1" stop-color="white"/>
</linearGradient>
<linearGradient id="paint6_linear_87_5756" x1="178.447" y1="142.613" x2="177.447" y2="184.113" gradientUnits="userSpaceOnUse">
<stop stop-color="white" stop-opacity="0"/>
<stop offset="1" stop-color="white"/>
</linearGradient>
<linearGradient id="paint7_linear_87_5756" x1="201.381" y1="140.871" x2="200.381" y2="182.371" gradientUnits="userSpaceOnUse">
<stop stop-color="white" stop-opacity="0"/>
<stop offset="1" stop-color="white"/>
</linearGradient>
<linearGradient id="paint8_linear_87_5756" x1="224.315" y1="139.13" x2="223.315" y2="180.63" gradientUnits="userSpaceOnUse">
<stop stop-color="white" stop-opacity="0"/>
<stop offset="1" stop-color="white"/>
</linearGradient>
<linearGradient id="paint9_linear_87_5756" x1="247.249" y1="137.388" x2="246.249" y2="178.888" gradientUnits="userSpaceOnUse">
<stop stop-color="white" stop-opacity="0"/>
<stop offset="1" stop-color="white"/>
</linearGradient>
<linearGradient id="paint10_linear_87_5756" x1="270.15" y1="134.776" x2="272.296" y2="176.232" gradientUnits="userSpaceOnUse">
<stop stop-color="white" stop-opacity="0"/>
<stop offset="1" stop-color="white"/>
</linearGradient>
<linearGradient id="paint11_linear_87_5756" x1="192.813" y1="182.479" x2="201.266" y2="416.981" gradientUnits="userSpaceOnUse">
<stop stop-color="#5FC2FF"/>
<stop offset="1" stop-color="#006AFF"/>
</linearGradient>
<linearGradient id="paint12_linear_87_5756" x1="209.807" y1="305.939" x2="209.807" y2="425.921" gradientUnits="userSpaceOnUse">
<stop stop-color="white" stop-opacity="0.7"/>
<stop offset="1" stop-color="white" stop-opacity="0"/>
</linearGradient>
<linearGradient id="paint13_linear_87_5756" x1="219.892" y1="275.486" x2="219.892" y2="413.096" gradientUnits="userSpaceOnUse">
<stop stop-color="white" stop-opacity="0.7"/>
<stop offset="1" stop-color="white" stop-opacity="0"/>
</linearGradient>
<linearGradient id="paint14_linear_87_5756" x1="219.231" y1="203.373" x2="219.807" y2="240.868" gradientUnits="userSpaceOnUse">
<stop stop-color="white"/>
<stop offset="1" stop-color="#999999" stop-opacity="0"/>
</linearGradient>
<linearGradient id="paint15_linear_87_5756" x1="243.705" y1="237.855" x2="338.559" y2="432.731" gradientUnits="userSpaceOnUse">
<stop stop-color="white"/>
<stop offset="1" stop-color="#6EF8FF"/>
</linearGradient>
<linearGradient id="paint16_linear_87_5756" x1="75.5" y1="183.601" x2="75.5" y2="356.172" gradientUnits="userSpaceOnUse">
<stop stop-color="#0B0B0D"/>
<stop offset="1" stop-color="#616173"/>
</linearGradient>
<linearGradient id="paint17_linear_87_5756" x1="24.16" y1="188.346" x2="75.5" y2="356.172" gradientUnits="userSpaceOnUse">
<stop stop-color="#A55FFF"/>
<stop offset="1" stop-color="#5100FF"/>
</linearGradient>
<linearGradient id="paint18_linear_87_5756" x1="64.4755" y1="153.993" x2="94.4421" y2="277.676" gradientUnits="userSpaceOnUse">
<stop stop-color="white"/>
<stop offset="1" stop-color="white" stop-opacity="0"/>
</linearGradient>
<linearGradient id="paint19_linear_87_5756" x1="64.4755" y1="153.993" x2="105.07" y2="357.061" gradientUnits="userSpaceOnUse">
<stop stop-color="white"/>
<stop offset="0.397405" stop-color="white" stop-opacity="0"/>
</linearGradient>
<linearGradient id="paint20_linear_87_5756" x1="11.5004" y1="258.735" x2="144.341" y2="232.179" gradientUnits="userSpaceOnUse">
<stop stop-color="#BB6EFF"/>
<stop offset="1" stop-color="white"/>
</linearGradient>
<linearGradient id="paint21_linear_87_5756" x1="71.1959" y1="223.923" x2="95.2991" y2="344.495" gradientUnits="userSpaceOnUse">
<stop stop-color="white" stop-opacity="0.5"/>
<stop offset="1" stop-color="white" stop-opacity="0"/>
</linearGradient>
</defs>
</svg>
