<svg width="203" height="232" viewBox="0 0 203 232" fill="none" xmlns="http://www.w3.org/2000/svg">
<rect y="0.476629" width="201.893" height="230.735" rx="27.6882" transform="rotate(-0.135264 0 0.476629)" fill="#0B0B0D"/>
<mask id="mask0_34_83" style="mask-type:alpha" maskUnits="userSpaceOnUse" x="0" y="0" width="203" height="232">
<rect y="0.476629" width="201.893" height="230.735" rx="27.6882" transform="rotate(-0.135264 0 0.476629)" fill="#0B0B0D"/>
</mask>
<g mask="url(#mask0_34_83)">
<path d="M0.0653663 28.1648C0.0292655 12.873 12.3964 0.447364 27.6881 0.411263L174.204 0.0653663C189.496 0.0292655 201.922 12.3964 201.958 27.6881L202.372 203.046C202.408 218.338 190.041 230.764 174.749 230.8L28.2329 231.146C12.9411 231.182 0.515453 218.815 0.479353 203.523L0.0653663 28.1648Z" fill="url(#paint0_linear_34_83)"/>
<path d="M217.311 178.207C217.47 245.427 163.106 300.048 95.8861 300.206C28.6662 300.365 -25.955 246.001 -26.1137 178.781C-26.2724 111.561 28.0915 56.9403 95.3114 56.7816C162.531 56.6229 217.152 110.987 217.311 178.207ZM-6.69709 178.735C-6.56371 235.232 39.3438 280.923 95.8402 280.79C152.337 280.656 198.028 234.749 197.895 178.252C197.761 121.756 151.854 76.0648 95.3572 76.1981C38.8608 76.3315 -6.83047 122.239 -6.69709 178.735Z" fill="white" fill-opacity="0.1"/>
<circle cx="95.5987" cy="178.494" r="121.713" transform="rotate(-0.135264 95.5987 178.494)" fill="url(#paint1_linear_34_83)" fill-opacity="0.3"/>
<g opacity="0.5">
<circle cx="99.5808" cy="154.835" r="139.595" transform="rotate(-0.135264 99.5808 154.835)" fill="url(#paint2_linear_34_83)" fill-opacity="0.05"/>
<circle cx="99.5808" cy="154.835" r="139.018" transform="rotate(-0.135264 99.5808 154.835)" stroke="url(#paint3_linear_34_83)" stroke-opacity="0.3" stroke-width="1.15368"/>
</g>
<path d="M25.1215 91.4425C21.7477 87.2753 22.3714 81.126 26.7941 78.0949C48.8396 62.9861 75.3357 55.5008 102.202 56.9605C129.068 58.4201 154.597 68.732 174.876 86.1403C178.944 89.6328 178.898 95.8134 175.092 99.5906C171.287 103.368 165.167 103.304 161.046 99.8736C144.198 85.8475 123.209 77.5471 101.148 76.3485C79.0873 75.1499 57.3231 81.1276 39.0543 93.2457C34.5861 96.2095 28.4953 95.6098 25.1215 91.4425Z" fill="url(#paint4_linear_34_83)"/>
<path d="M56.923 191.304L60.9707 191.294L60.9962 202.118C60.9992 203.369 60.704 204.459 60.1108 205.389C59.5176 206.314 58.689 207.031 57.625 207.542C56.561 208.047 55.3244 208.301 53.915 208.304C52.4893 208.308 51.2433 208.059 50.1769 207.559C49.1106 207.054 48.2813 206.34 47.6892 205.419C47.097 204.491 46.7995 203.402 46.7965 202.151L46.771 191.328L50.8269 191.318L50.8516 201.789C50.853 202.369 50.9798 202.884 51.2322 203.337C51.49 203.79 51.8486 204.144 52.308 204.4C52.7675 204.655 53.3004 204.783 53.9067 204.781C54.5131 204.78 55.0426 204.65 55.4954 204.392C55.9536 204.135 56.3106 203.779 56.5663 203.325C56.8219 202.871 56.9491 202.354 56.9477 201.775L56.923 191.304ZM63.0909 208.07L63.0513 191.289L69.9832 191.273C71.2395 191.27 72.3244 191.513 73.2378 192.002C74.1566 192.486 74.8656 193.165 75.3648 194.038C75.8639 194.905 76.1148 195.915 76.1176 197.068C76.1203 198.226 75.8687 199.24 75.3627 200.109C74.8622 200.974 74.1455 201.644 73.2125 202.122C72.2796 202.599 71.1712 202.839 69.8876 202.843L65.6105 202.853L65.6029 199.657L69.1262 199.649C69.738 199.647 70.2485 199.54 70.6577 199.326C71.0723 199.112 71.3857 198.813 71.5978 198.43C71.81 198.042 71.9154 197.591 71.9142 197.078C71.913 196.559 71.8054 196.111 71.5915 195.735C71.3775 195.353 71.0627 195.058 70.6471 194.852C70.2315 194.645 69.7205 194.543 69.1141 194.544L67.1149 194.549L67.1468 208.06L63.0909 208.07ZM88.6669 196.71C88.5732 196.366 88.436 196.063 88.2551 195.802C88.0742 195.534 87.8524 195.308 87.5898 195.123C87.3271 194.938 87.0264 194.799 86.6875 194.707C86.3486 194.61 85.977 194.562 85.5728 194.563C84.7589 194.564 84.0547 194.763 83.4602 195.158C82.8712 195.552 82.4164 196.127 82.0959 196.881C81.7754 197.631 81.6164 198.54 81.6189 199.611C81.6215 200.687 81.7793 201.604 82.0925 202.363C82.4056 203.122 82.8577 203.7 83.4485 204.097C84.0394 204.494 84.7555 204.692 85.5967 204.69C86.3396 204.688 86.9675 204.567 87.4804 204.325C87.9988 204.078 88.3912 203.73 88.6578 203.282C88.9244 202.833 89.057 202.306 89.0556 201.699L89.8096 201.788L85.7292 201.797L85.7222 198.839L92.9572 198.822L92.9625 201.043C92.966 202.545 92.6495 203.832 92.0129 204.904C91.3818 205.976 90.5097 206.801 89.3967 207.377C88.2892 207.953 87.0144 208.243 85.5723 208.246C83.9718 208.25 82.5644 207.906 81.3501 207.215C80.1358 206.525 79.1885 205.538 78.5081 204.256C77.8277 202.969 77.4854 201.44 77.4812 199.67C77.478 198.293 77.68 197.072 78.0871 196.006C78.4943 194.934 79.063 194.026 79.7932 193.282C80.5289 192.537 81.3797 191.972 82.3456 191.588C83.317 191.203 84.3627 191.009 85.4825 191.007C86.4548 191.004 87.3591 191.142 88.1956 191.418C89.0374 191.695 89.7813 192.086 90.427 192.593C91.0783 193.099 91.6068 193.702 92.0127 194.4C92.4186 195.098 92.6716 195.865 92.7719 196.701L88.6669 196.71ZM94.9079 207.995L94.8683 191.214L101.8 191.198C103.057 191.195 104.141 191.419 105.055 191.87C105.973 192.316 106.682 192.959 107.181 193.799C107.68 194.633 107.931 195.624 107.934 196.771C107.937 197.935 107.685 198.924 107.179 199.739C106.673 200.549 105.953 201.168 105.02 201.596C104.087 202.019 102.982 202.232 101.703 202.235L97.3197 202.245L97.3121 199.05L100.942 199.041C101.554 199.04 102.064 198.959 102.474 198.8C102.888 198.635 103.202 198.388 103.414 198.06C103.626 197.726 103.732 197.3 103.731 196.781C103.729 196.262 103.622 195.834 103.408 195.496C103.194 195.152 102.88 194.896 102.464 194.728C102.048 194.554 101.537 194.468 100.931 194.469L98.9319 194.474L98.9638 207.985L94.9079 207.995ZM104.337 200.303L108.534 207.962L104.109 207.973L99.9945 200.313L104.337 200.303ZM113.353 207.951L108.994 207.961L114.617 191.167L120.016 191.155L125.718 207.922L121.359 207.932L117.388 195.389L117.257 195.389L113.353 207.951ZM112.756 201.348L121.867 201.327L121.875 204.408L112.763 204.429L112.756 201.348ZM133.266 207.904L127.063 207.919L127.023 191.138L133.218 191.123C134.927 191.119 136.4 191.452 137.637 192.121C138.878 192.784 139.836 193.743 140.511 194.998C141.186 196.248 141.525 197.743 141.53 199.486C141.534 201.234 141.201 202.737 140.532 203.995C139.869 205.253 138.918 206.219 137.68 206.894C136.441 207.563 134.97 207.9 133.266 207.904ZM131.111 204.451L133.102 204.447C134.041 204.445 134.836 204.284 135.485 203.966C136.14 203.642 136.633 203.119 136.964 202.397C137.301 201.67 137.468 200.703 137.465 199.496C137.463 198.288 137.291 197.327 136.951 196.613C136.61 195.892 136.109 195.375 135.448 195.059C134.791 194.739 133.982 194.579 133.021 194.582L131.087 194.586L131.111 204.451ZM143.456 207.88L143.416 191.099L155.117 191.072L155.125 194.366L147.48 194.384L147.488 197.825L154.535 197.808L154.542 201.11L147.496 201.127L147.504 204.577L155.149 204.559L155.156 207.852L143.456 207.88Z" fill="white"/>
</g>
<path fill-rule="evenodd" clip-rule="evenodd" d="M92.8706 29.6072C93.1943 29.2824 93.6337 29.0993 94.0923 29.0982C94.5509 29.0971 94.9911 29.2781 95.3164 29.6014L101.607 35.8626L107.868 29.5718C108.026 29.4014 108.217 29.2646 108.429 29.1695C108.641 29.0744 108.87 29.023 109.103 29.0184C109.335 29.0137 109.566 29.0559 109.781 29.1424C109.997 29.229 110.193 29.3581 110.358 29.522C110.523 29.6859 110.653 29.8814 110.74 30.0966C110.828 30.3119 110.871 30.5426 110.867 30.775C110.864 31.0073 110.814 31.2366 110.72 31.4491C110.625 31.6616 110.49 31.853 110.32 32.0118L102.839 39.5284C102.515 39.8532 102.076 40.0363 101.617 40.0374C101.158 40.0384 100.718 39.8575 100.393 39.5342L92.8764 32.053C92.5515 31.7293 92.3685 31.2899 92.3674 30.8313C92.3663 30.3727 92.5473 29.9324 92.8706 29.6072Z" fill="white"/>
<defs>
<linearGradient id="paint0_linear_34_83" x1="32.3178" y1="6.74556" x2="101.491" y2="230.973" gradientUnits="userSpaceOnUse">
<stop stop-color="#5FC2FF"/>
<stop offset="1" stop-color="#006AFF"/>
</linearGradient>
<linearGradient id="paint1_linear_34_83" x1="96.1756" y1="119.657" x2="96.1756" y2="239.639" gradientUnits="userSpaceOnUse">
<stop stop-color="white" stop-opacity="0.7"/>
<stop offset="1" stop-color="white" stop-opacity="0"/>
</linearGradient>
<linearGradient id="paint2_linear_34_83" x1="100.242" y1="87.3528" x2="100.242" y2="224.963" gradientUnits="userSpaceOnUse">
<stop stop-color="white" stop-opacity="0.7"/>
<stop offset="1" stop-color="white" stop-opacity="0"/>
</linearGradient>
<linearGradient id="paint3_linear_34_83" x1="99.5808" y1="15.2399" x2="100.158" y2="52.7344" gradientUnits="userSpaceOnUse">
<stop stop-color="white"/>
<stop offset="1" stop-color="#999999" stop-opacity="0"/>
</linearGradient>
<linearGradient id="paint4_linear_34_83" x1="95.8651" y1="46.974" x2="238.153" y2="210.46" gradientUnits="userSpaceOnUse">
<stop stop-color="white"/>
<stop offset="1" stop-color="#6EF8FF"/>
</linearGradient>
</defs>
</svg>
