<svg width="165" height="230" viewBox="0 0 165 230" fill="none" xmlns="http://www.w3.org/2000/svg">
<rect y="16.4897" width="140" height="214.912" rx="29.4737" transform="rotate(-6.76422 0 16.4897)" fill="url(#paint0_linear_34_188)"/>
<mask id="mask0_34_188" style="mask-type:alpha" maskUnits="userSpaceOnUse" x="2" y="2" width="161" height="226">
<rect y="16.4897" width="140" height="214.912" rx="19.6491" transform="rotate(-6.76422 0 16.4897)" fill="url(#paint1_linear_34_188)"/>
</mask>
<g mask="url(#mask0_34_188)">
<path opacity="0.12" d="M65.4099 12.999C13.0537 22.0124 -22.0874 71.7693 -13.074 124.125C-4.06056 176.482 45.6963 211.623 98.0524 202.609C150.409 193.596 185.55 143.839 176.536 91.4829C167.523 39.1267 117.766 3.98559 65.4099 12.999ZM42.1425 71.4819L106.894 60.3345C118.785 58.2875 128.56 69.8478 124.363 81.2427L96.3165 157.371C95.8966 158.504 95.1865 159.506 94.2572 160.278C93.3279 161.05 92.2121 161.564 91.0216 161.769C89.831 161.974 88.6075 161.863 87.4735 161.446C86.3396 161.029 85.3351 160.322 84.5606 159.395L32.6868 97.0254C24.9111 87.6752 30.2445 73.5302 42.1425 71.4819ZM82.4469 76.7126L92.7565 136.598L98.5685 118.287L113.083 77.1C113.308 76.4834 113.366 75.8185 113.251 75.1724C113.137 74.5263 112.853 73.9218 112.43 73.4202C112.007 72.9186 111.459 72.5376 110.842 72.3156C110.224 72.0937 109.559 72.0387 108.913 72.1562L82.4469 76.7126ZM44.1642 83.3195C43.5177 83.4236 42.9101 83.6965 42.4029 84.1106C41.8957 84.5248 41.5068 85.0655 41.2755 85.6781C41.0442 86.2907 40.9788 86.9535 41.0857 87.5995C41.1927 88.2456 41.4683 88.8519 41.8847 89.3573L69.35 123.301L80.9533 138.63L70.6464 78.7604L44.1642 83.3195Z" fill="url(#paint2_linear_34_188)"/>
<path d="M74.579 69.536C51.8544 73.4482 36.6018 95.0446 40.514 117.769C44.4262 140.494 66.0225 155.746 88.7471 151.834C111.472 147.922 126.724 126.326 122.812 103.601C118.9 80.8765 97.3036 65.6239 74.579 69.536ZM64.4801 94.9198L92.5849 90.0814C97.7457 89.193 101.988 94.2106 100.167 99.1564L87.9936 132.199C87.8114 132.691 87.5032 133.126 87.0998 133.461C86.6965 133.796 86.2122 134.019 85.6954 134.108C85.1787 134.197 84.6476 134.149 84.1555 133.968C83.6633 133.787 83.2273 133.48 82.8912 133.077L60.3759 106.007C57.001 101.948 59.3159 95.8089 64.4801 94.9198ZM81.9737 97.1902L86.4485 123.183L88.9711 115.235L95.2711 97.3583C95.3686 97.0907 95.3938 96.8021 95.344 96.5217C95.2942 96.2412 95.1713 95.9789 94.9877 95.7612C94.804 95.5434 94.5662 95.3781 94.2981 95.2817C94.0301 95.1854 93.7414 95.1615 93.4612 95.2125L81.9737 97.1902ZM65.3575 100.058C65.0769 100.103 64.8132 100.221 64.5931 100.401C64.3729 100.581 64.2041 100.816 64.1038 101.082C64.0034 101.347 63.975 101.635 64.0214 101.916C64.0678 102.196 64.1874 102.459 64.3682 102.678L76.2892 117.411L81.3254 124.065L76.8519 98.079L65.3575 100.058Z" fill="url(#paint3_linear_34_188)"/>
<path opacity="0.5" d="M121.856 35.4323C112.976 33.7507 104.414 39.5862 102.732 48.4655C101.051 57.3447 106.886 65.9072 115.765 67.5889C124.645 69.2706 133.207 63.435 134.889 54.5558C136.57 45.6765 130.735 37.114 121.856 35.4323ZM114.665 43.3654L125.647 45.4453C127.663 45.8272 128.533 48.2513 127.185 49.8171L118.183 60.2772C118.048 60.4327 117.876 60.5502 117.682 60.6178C117.487 60.6855 117.279 60.701 117.077 60.6627C116.875 60.6245 116.687 60.5339 116.531 60.3999C116.375 60.266 116.257 60.0935 116.189 59.8996L111.638 46.8725C110.955 44.9195 112.648 42.9833 114.665 43.3654ZM120.776 46.5991L118.853 56.7552L120.869 54.1836L125.635 48.4853C125.707 48.4004 125.756 48.2979 125.776 48.1881C125.796 48.0783 125.787 47.9652 125.75 47.86C125.712 47.7549 125.648 47.6616 125.562 47.5894C125.477 47.5173 125.374 47.4689 125.265 47.4492L120.776 46.5991ZM114.283 45.372C114.173 45.3501 114.06 45.3574 113.955 45.3932C113.849 45.429 113.755 45.492 113.682 45.5758C113.609 45.6597 113.559 45.7614 113.537 45.8707C113.516 45.98 113.524 46.093 113.56 46.1984L115.915 53.2426L116.851 56.3761L118.774 46.2227L114.283 45.372Z" fill="url(#paint4_linear_34_188)"/>
<path opacity="0.5" d="M7.95674 162.336C3.79655 170.135 6.7469 179.831 14.546 183.992C22.3451 188.152 32.0414 185.201 36.2016 177.402C40.3618 169.603 37.4114 159.907 29.6123 155.747C21.8132 151.587 12.1169 154.537 7.95674 162.336ZM13.2657 171.363L18.4108 161.717C19.3556 159.946 21.8723 159.842 22.9411 161.556L30.0805 173.013C30.1865 173.183 30.2457 173.379 30.2523 173.58C30.2589 173.781 30.2125 173.98 30.1179 174.157C30.0233 174.335 29.8838 174.484 29.7133 174.59C29.5428 174.697 29.3473 174.757 29.1464 174.764L15.6566 175.213C13.6343 175.28 12.3202 173.135 13.2657 171.363ZM18.0671 166.601L26.9878 171.36L25.1752 168.727L21.2454 162.616C21.1873 162.523 21.1058 162.448 21.0092 162.397C20.9126 162.346 20.8043 162.321 20.6952 162.326C20.5861 162.33 20.4801 162.363 20.3879 162.422C20.2957 162.48 20.2206 162.562 20.1701 162.659L18.0671 166.601ZM15.0273 172.306C14.975 172.401 14.9489 172.509 14.9515 172.618C14.9541 172.727 14.9855 172.833 15.0424 172.926C15.0993 173.019 15.1797 173.095 15.2755 173.147C15.3713 173.199 15.4791 173.225 15.588 173.222L22.8514 173.078L26.0499 173.118L17.1316 168.361L15.0273 172.306Z" fill="url(#paint5_linear_34_188)"/>
<path d="M71.5411 194.574L71.2477 192.1L82.9025 190.718L83.1959 193.192L78.8513 193.707L80.2411 205.424L77.2754 205.776L75.8857 194.059L71.5411 194.574ZM97.6658 196.162C97.8494 197.71 97.7122 199.061 97.2543 200.216C96.801 201.371 96.1048 202.294 95.1657 202.986C94.2307 203.673 93.1373 204.091 91.8854 204.24C90.6243 204.389 89.4586 204.237 88.3883 203.783C87.3179 203.329 86.4273 202.594 85.7165 201.578C85.0057 200.561 84.5588 199.281 84.3758 197.738C84.1923 196.191 84.3272 194.84 84.7804 193.685C85.2337 192.531 85.9279 191.61 86.8629 190.923C87.7974 190.231 88.8952 189.81 90.1562 189.661C91.4081 189.512 92.5692 189.665 93.6396 190.119C94.714 190.568 95.6066 191.3 96.3174 192.317C97.0328 193.333 97.4823 194.615 97.6658 196.162ZM94.624 196.523C94.5051 195.52 94.2547 194.693 93.8728 194.04C93.4955 193.387 93.0155 192.915 92.4329 192.623C91.8502 192.331 91.1963 192.229 90.471 192.315C89.7458 192.401 89.134 192.654 88.6357 193.073C88.1374 193.493 87.779 194.065 87.5604 194.789C87.3464 195.512 87.2988 196.375 87.4177 197.378C87.5366 198.38 87.7847 199.208 88.162 199.861C88.5439 200.514 89.0261 200.986 89.6088 201.277C90.1915 201.569 90.8454 201.672 91.5707 201.586C92.2959 201.5 92.9077 201.247 93.406 200.827C93.9042 200.407 94.2604 199.836 94.4744 199.112C94.693 198.388 94.7429 197.525 94.624 196.523ZM110.526 187.442L112.209 201.632L109.618 201.94L102.385 193.74L102.281 193.753L103.34 202.684L100.34 203.04L98.6565 188.849L101.29 188.537L108.473 196.735L108.598 196.72L107.54 187.796L110.526 187.442Z" fill="white"/>
</g>
<defs>
<linearGradient id="paint0_linear_34_188" x1="70" y1="16.4897" x2="93.9474" y2="262.104" gradientUnits="userSpaceOnUse">
<stop stop-color="#006FFF"/>
<stop offset="1" stop-color="#00BBFF"/>
</linearGradient>
<linearGradient id="paint1_linear_34_188" x1="70" y1="16.4897" x2="93.9474" y2="262.104" gradientUnits="userSpaceOnUse">
<stop stop-color="#006FFF"/>
<stop offset="1" stop-color="#00BBFF"/>
</linearGradient>
<linearGradient id="paint2_linear_34_188" x1="65.4099" y1="12.999" x2="160.101" y2="564.359" gradientUnits="userSpaceOnUse">
<stop stop-color="white"/>
<stop offset="1" stop-color="#0099FF"/>
</linearGradient>
<linearGradient id="paint3_linear_34_188" x1="74.579" y1="69.536" x2="115.679" y2="308.847" gradientUnits="userSpaceOnUse">
<stop stop-color="white"/>
<stop offset="1" stop-color="#0099FF"/>
</linearGradient>
<linearGradient id="paint4_linear_34_188" x1="121.856" y1="35.4323" x2="104.11" y2="128.925" gradientUnits="userSpaceOnUse">
<stop stop-color="white"/>
<stop offset="1" stop-color="#0099FF"/>
</linearGradient>
<linearGradient id="paint5_linear_34_188" x1="7.95674" y1="162.336" x2="90.0654" y2="206.177" gradientUnits="userSpaceOnUse">
<stop stop-color="white"/>
<stop offset="1" stop-color="#0099FF"/>
</linearGradient>
</defs>
</svg>
