<svg width="216" height="134" viewBox="0 0 216 134" fill="none" xmlns="http://www.w3.org/2000/svg">
<rect y="25.176" width="204" height="108.9" rx="15.3962" transform="rotate(-7.08905 0 25.176)" fill="url(#paint0_linear_34_161)"/>
<mask id="mask0_34_161" style="mask-type:alpha" maskUnits="userSpaceOnUse" x="1" y="1" width="214" height="131">
<rect y="25.176" width="204" height="108.9" rx="15.3962" transform="rotate(-7.08905 0 25.176)" fill="url(#paint1_linear_34_161)"/>
</mask>
<g mask="url(#mask0_34_161)">
<circle opacity="0.2" cx="118.787" cy="151.947" r="93.0189" transform="rotate(-7.08905 118.787 151.947)" fill="url(#paint2_linear_34_161)"/>
</g>
<path d="M27.3462 40.9607L22.506 51.322C22.4467 51.4476 22.3564 51.5561 22.2438 51.6373C22.1311 51.7186 21.9997 51.7699 21.8618 51.7866C21.7239 51.8033 21.5841 51.7848 21.4553 51.7327C21.3265 51.6807 21.213 51.5968 21.1254 51.489L14.0125 42.6142C13.813 42.3658 13.687 42.0665 13.6489 41.7502C13.5979 41.2822 13.7348 40.8132 14.0296 40.4462C14.3244 40.0792 14.7529 39.8443 15.2208 39.7932L25.4993 38.515C26.4815 38.3921 27.3755 39.0667 27.4945 40.0236C27.534 40.3413 27.4838 40.6663 27.3462 40.9607ZM15.4268 42.1149L20.6734 48.3567L19.7441 40.8844L15.8018 41.3746C15.3464 41.4313 15.1801 41.7582 15.427 42.1165M22.3021 48.1557L25.8614 40.8172C26.0177 40.4096 25.7716 40.1332 25.3155 40.1899L21.3739 40.6801L22.3021 48.1557Z" fill="#242424"/>
<path d="M117.885 29.3342C117.803 29.1433 117.701 28.9782 117.579 28.8391C117.457 28.6973 117.315 28.5828 117.152 28.4956C116.992 28.4053 116.814 28.3434 116.617 28.3101C116.423 28.2764 116.212 28.2737 115.984 28.3021C115.558 28.355 115.197 28.5074 114.9 28.7591C114.606 29.0105 114.395 29.3495 114.266 29.776C114.137 30.1997 114.109 30.7019 114.181 31.2824C114.253 31.863 114.403 32.3457 114.629 32.7307C114.856 33.1157 115.145 33.3953 115.494 33.5694C115.843 33.7409 116.238 33.7993 116.677 33.7446C117.076 33.6951 117.407 33.5822 117.672 33.406C117.939 33.2268 118.131 32.9977 118.248 32.7187C118.367 32.4394 118.405 32.1221 118.361 31.7667L118.725 31.7751L116.577 32.0423L116.412 30.7157L119.899 30.282L120.03 31.3319C120.121 32.0643 120.045 32.7129 119.801 33.2777C119.557 33.8397 119.181 34.2969 118.674 34.6492C118.166 34.9988 117.563 35.2171 116.863 35.3042C116.081 35.4013 115.374 35.3144 114.739 35.0434C114.105 34.7697 113.582 34.3347 113.172 33.7384C112.764 33.139 112.506 32.3998 112.396 31.5209C112.312 30.8454 112.335 30.231 112.465 29.6777C112.597 29.1213 112.817 28.6366 113.127 28.2235C113.436 27.8103 113.815 27.4781 114.263 27.2268C114.711 26.9755 115.211 26.8156 115.761 26.7471C116.233 26.6884 116.681 26.7029 117.106 26.7907C117.529 26.8757 117.914 27.0234 118.26 27.2339C118.608 27.444 118.904 27.7088 119.148 28.0284C119.391 28.3452 119.567 28.7063 119.675 29.1115L117.885 29.3342ZM128.688 29.4865C128.801 30.3953 128.725 31.1899 128.46 31.8702C128.197 32.5502 127.791 33.0952 127.242 33.5051C126.695 33.912 126.053 34.1612 125.318 34.2526C124.578 34.3447 123.892 34.2592 123.262 33.996C122.631 33.7328 122.105 33.3037 121.684 32.7087C121.263 32.1137 120.996 31.3632 120.883 30.4571C120.77 29.5483 120.845 28.7539 121.108 28.0739C121.37 27.3939 121.775 26.8504 122.322 26.4435C122.869 26.0339 123.513 25.7831 124.253 25.691C124.989 25.5996 125.671 25.6854 126.302 25.9486C126.935 26.2087 127.462 26.6363 127.883 27.2313C128.307 27.826 128.575 28.5777 128.688 29.4865ZM126.902 29.7087C126.829 29.12 126.679 28.6345 126.452 28.2522C126.228 27.8696 125.945 27.5936 125.601 27.4242C125.258 27.2548 124.873 27.1965 124.447 27.2495C124.021 27.3025 123.663 27.4531 123.371 27.7015C123.08 27.9498 122.871 28.2871 122.745 28.7132C122.622 29.139 122.597 29.6463 122.67 30.235C122.743 30.8236 122.892 31.3093 123.116 31.6919C123.342 32.0742 123.627 32.35 123.97 32.5194C124.314 32.6888 124.698 32.7471 125.124 32.6941C125.55 32.6411 125.909 32.4905 126.2 32.2421C126.492 31.9938 126.699 31.6567 126.823 31.2309C126.949 30.8047 126.975 30.2973 126.902 29.7087ZM130.282 33.5195L129.246 25.1858L131.008 24.9667L131.864 31.8477L135.437 31.4034L135.617 32.8561L130.282 33.5195ZM139.509 32.3721L136.555 32.7395L135.518 24.4058L138.497 24.0353C139.335 23.9311 140.078 24.0082 140.724 24.2666C141.37 24.5223 141.895 24.9406 142.298 25.5213C142.703 26.1017 142.96 26.8246 143.067 27.69C143.175 28.5581 143.104 29.3246 142.853 29.9893C142.605 30.6537 142.197 31.1908 141.628 31.6003C141.062 32.0096 140.356 32.2668 139.509 32.3721ZM138.129 31.0107L139.248 30.8715C139.769 30.8068 140.196 30.66 140.528 30.4314C140.863 30.1997 141.096 29.8773 141.226 29.4644C141.359 29.0485 141.387 28.5299 141.309 27.9086C141.233 27.2928 141.079 26.8009 140.849 26.4329C140.621 26.0645 140.318 25.8102 139.94 25.6699C139.562 25.5296 139.112 25.4919 138.591 25.5566L137.468 25.6963L138.129 31.0107ZM146.049 23.0961L148.222 22.8259L151.213 28.1397L151.311 28.1276L152.91 22.2429L155.083 21.9727L156.119 30.3064L154.41 30.519L153.735 25.0947L153.666 25.1033L152.179 30.7551L151.015 30.8998L148.187 25.7641L148.117 25.7727L148.794 31.2173L147.085 31.4299L146.049 23.0961ZM157.342 30.1544L156.305 21.8207L161.921 21.1223L162.101 22.575L158.248 23.0543L158.495 25.04L162.059 24.5967L162.24 26.0494L158.675 26.4927L158.923 28.4826L162.793 28.0013L162.973 29.454L157.342 30.1544ZM163.092 20.9766L165.265 20.7064L168.257 26.0202L168.354 26.008L169.953 20.1234L172.126 19.8532L173.162 28.1869L171.453 28.3994L170.779 22.9752L170.71 22.9838L169.222 28.6356L168.059 28.7803L165.23 23.6446L165.161 23.6532L165.838 29.0978L164.129 29.3103L163.092 20.9766ZM174.385 28.0349L173.348 19.7011L176.685 19.2861C177.298 19.2099 177.821 19.2372 178.253 19.368C178.685 19.4988 179.025 19.7128 179.271 20.01C179.517 20.3045 179.666 20.6606 179.718 21.0784C179.758 21.4039 179.729 21.6982 179.629 21.9613C179.53 22.2216 179.376 22.4446 179.167 22.6303C178.961 22.8129 178.717 22.9549 178.435 23.0561L178.445 23.1374C178.764 23.1115 179.072 23.1641 179.37 23.2952C179.67 23.4259 179.925 23.6297 180.136 23.9065C180.346 24.1806 180.477 24.5225 180.528 24.9321C180.583 25.3743 180.522 25.7827 180.345 26.1572C180.171 26.5288 179.884 26.8414 179.483 27.0951C179.082 27.3488 178.569 27.5145 177.945 27.5921L174.385 28.0349ZM175.968 26.3752L177.404 26.1966C177.895 26.1355 178.242 25.9974 178.443 25.7822C178.645 25.5643 178.726 25.298 178.687 24.9833C178.658 24.7528 178.578 24.5562 178.444 24.3937C178.311 24.2312 178.135 24.1126 177.917 24.0379C177.701 23.9628 177.452 23.9428 177.17 23.9779L175.692 24.1616L175.968 26.3752ZM175.544 22.9693L176.85 22.8069C177.092 22.7768 177.301 22.7081 177.478 22.6008C177.657 22.4903 177.791 22.3497 177.88 22.1789C177.971 22.0077 178.003 21.8122 177.976 21.5925C177.939 21.2914 177.801 21.0619 177.564 20.9041C177.33 20.7459 177.017 20.6911 176.626 20.7397L175.288 20.9062L175.544 22.9693ZM181.732 27.1212L180.695 18.7875L186.311 18.0891L186.491 19.5418L182.638 20.021L182.885 22.0068L186.449 21.5635L186.63 23.0162L183.065 23.4595L183.313 25.4494L187.183 24.9681L187.363 26.4208L181.732 27.1212ZM188.519 26.2771L187.482 17.9434L190.77 17.5345C191.4 17.4562 191.951 17.502 192.424 17.6718C192.899 17.8386 193.279 18.1123 193.563 18.493C193.85 18.8705 194.027 19.3347 194.096 19.8854C194.164 20.4388 194.104 20.9297 193.915 21.3582C193.726 21.7839 193.418 22.1308 192.991 22.3987C192.567 22.6663 192.035 22.8399 191.394 22.9196L189.193 23.1933L189.017 21.7773L190.934 21.5389C191.27 21.4971 191.544 21.4162 191.755 21.2963C191.966 21.1764 192.114 21.0175 192.199 20.8195C192.288 20.6212 192.315 20.3851 192.281 20.1111C192.246 19.8344 192.162 19.608 192.027 19.4319C191.895 19.2555 191.71 19.1325 191.473 19.0628C191.238 18.9901 190.951 18.9748 190.612 19.017L189.423 19.1648L190.281 26.058L188.519 26.2771ZM192.548 21.9249L195.091 25.4599L193.145 25.7018L190.647 22.1613L192.548 21.9249Z" fill="#242424"/>
<defs>
<linearGradient id="paint0_linear_34_161" x1="71.5437" y1="14.5163" x2="171.927" y2="136.792" gradientUnits="userSpaceOnUse">
<stop stop-color="#FFD268"/>
<stop offset="0.389423" stop-color="#FFE098"/>
<stop offset="0.725962" stop-color="#FFC334"/>
</linearGradient>
<linearGradient id="paint1_linear_34_161" x1="71.5437" y1="14.5163" x2="171.927" y2="136.792" gradientUnits="userSpaceOnUse">
<stop stop-color="#FFD268"/>
<stop offset="0.389423" stop-color="#FFE098"/>
<stop offset="0.725962" stop-color="#FFC334"/>
</linearGradient>
<linearGradient id="paint2_linear_34_161" x1="118.787" y1="58.9277" x2="118.787" y2="244.965" gradientUnits="userSpaceOnUse">
<stop stop-color="white"/>
<stop offset="1" stop-color="#999999" stop-opacity="0"/>
</linearGradient>
</defs>
</svg>
