<svg width="155" height="224" viewBox="0 0 155 224" fill="none" xmlns="http://www.w3.org/2000/svg">
<g opacity="0.8">
<rect x="15.5111" width="139.406" height="214" rx="29.3486" transform="rotate(4.15653 15.5111 0)" fill="url(#paint0_linear_34_220)"/>
<mask id="mask0_34_220" style="mask-type:alpha" maskUnits="userSpaceOnUse" x="1" y="1" width="153" height="222">
<path d="M14.0929 19.5143C14.8761 8.73683 24.2479 0.634929 35.0253 1.41815L135.036 8.68619C145.813 9.46942 153.915 18.8412 153.132 29.6186L140.457 204.027C139.674 214.805 130.302 222.907 119.525 222.123L19.5142 214.855C8.73682 214.072 0.634929 204.7 1.41815 193.923L14.0929 19.5143Z" fill="url(#paint1_linear_34_220)"/>
</mask>
<g mask="url(#mask0_34_220)">
<path opacity="0.2" fill-rule="evenodd" clip-rule="evenodd" d="M60.3288 175.307L6.1152 196.122C0.478096 198.286 -5.94121 195.579 -8.2225 190.075C-9.33675 187.387 -9.29139 184.386 -8.09706 181.753L4.51163 153.962C9.06316 143.929 17.9739 136.42 28.8426 133.456L86.8023 117.651C89.5044 116.914 91.0591 114.181 90.2747 111.545C89.6394 109.411 87.6283 107.933 85.3497 107.925L23.8886 107.714C11.395 107.671 -0.499172 102.278 -8.62624 92.9727L-24.8631 74.3803C-28.8188 69.8508 -28.2811 63.0964 -23.6622 59.2943C-21.4157 57.4448 -18.4896 56.5595 -15.5431 56.8378L42.8675 62.352C46.9941 62.7415 50.9735 60.8481 53.1662 57.4518L84.3558 9.14076C87.5749 4.1545 94.367 2.69014 99.5265 5.87003C102.004 7.39685 103.766 9.81224 104.425 12.5848L117.723 68.5305C118.657 72.4635 121.778 75.5753 125.798 76.5839L183.019 90.9382C188.921 92.4187 192.518 98.2604 191.053 103.986C190.35 106.74 188.543 109.098 186.036 110.539L135.541 139.546C131.985 141.588 129.932 145.41 130.226 149.435L134.411 206.589C134.843 212.493 130.276 217.571 124.211 217.933C121.296 218.108 118.418 217.146 116.211 215.262L71.6764 177.255C68.5498 174.587 64.1658 173.834 60.3288 175.307Z" fill="url(#paint2_linear_34_220)"/>
<path fill-rule="evenodd" clip-rule="evenodd" d="M70.2655 132.394L49.6406 140.313C47.496 141.136 45.0539 140.106 44.186 138.012C43.7621 136.99 43.7794 135.848 44.2337 134.846L49.0306 124.274C50.7621 120.457 54.1521 117.6 58.287 116.472L80.3371 110.459C81.3651 110.179 81.9565 109.139 81.6581 108.137C81.4164 107.325 80.6513 106.762 79.7844 106.759L56.4023 106.679C51.6493 106.663 47.1243 104.611 44.0324 101.071L37.8553 93.9977C36.3504 92.2745 36.5549 89.7049 38.3122 88.2584C39.1668 87.5548 40.28 87.218 41.401 87.3238L63.6226 89.4216C65.1925 89.5698 66.7064 88.8495 67.5406 87.5574L79.4063 69.1781C80.631 67.2811 83.215 66.724 85.1778 67.9338C86.1203 68.5146 86.7906 69.4335 87.0413 70.4883L92.1004 91.7722C92.456 93.2684 93.6431 94.4523 95.1726 94.836L116.941 100.297C119.187 100.86 120.555 103.083 119.998 105.261C119.73 106.309 119.043 107.206 118.089 107.754L98.8791 118.789C97.5262 119.566 96.7452 121.02 96.857 122.551L98.4493 144.295C98.6138 146.541 96.8762 148.473 94.5689 148.611C93.4597 148.677 92.365 148.311 91.5254 147.595L74.5826 133.135C73.3931 132.12 71.7253 131.834 70.2655 132.394Z" fill="url(#paint3_linear_34_220)"/>
<path opacity="0.5" fill-rule="evenodd" clip-rule="evenodd" d="M123.732 72.9998L117.383 77.6106C116.723 78.09 115.791 77.9609 115.301 77.3223C115.061 77.0103 114.962 76.6171 115.026 76.2317L115.701 72.1638C115.945 70.6952 116.845 69.4038 118.161 68.6372L125.173 64.5494C125.5 64.3588 125.608 63.9477 125.413 63.6312C125.256 63.3748 124.942 63.2521 124.644 63.3307L116.615 65.4503C114.982 65.8812 113.242 65.5929 111.856 64.6622L109.087 62.8027C108.412 62.3497 108.246 61.4493 108.716 60.7917C108.945 60.4718 109.296 60.254 109.69 60.1874L117.507 58.8665C118.059 58.7732 118.512 58.387 118.68 57.8671L121.063 50.4717C121.309 49.7084 122.145 49.28 122.929 49.5148C123.306 49.6276 123.62 49.8813 123.803 50.2201L127.493 57.0578C127.753 57.5385 128.269 57.8356 128.829 57.8268L136.799 57.7013C137.621 57.6884 138.294 58.3252 138.303 59.1237C138.308 59.5078 138.154 59.8786 137.877 60.1542L132.3 65.7045C131.907 66.0952 131.773 66.6658 131.952 67.1809L134.495 74.4947C134.757 75.2501 134.339 76.0725 133.56 76.3317C133.185 76.4563 132.776 76.4313 132.422 76.2625L125.282 72.8575C124.78 72.6185 124.182 72.6735 123.732 72.9998Z" fill="url(#paint4_linear_34_220)"/>
<path opacity="0.5" fill-rule="evenodd" clip-rule="evenodd" d="M8.97852 166.471L0.144083 166.873C-0.774488 166.914 -1.57192 166.214 -1.637 165.31C-1.66877 164.868 -1.51794 164.436 -1.2188 164.113L1.93919 160.703C3.07919 159.473 4.7278 158.816 6.4408 158.91L15.5757 159.413C16.0016 159.436 16.3576 159.116 16.371 158.697C16.3818 158.358 16.1622 158.048 15.8333 157.937L6.96247 154.952C5.15923 154.345 3.69978 152.994 2.9728 151.259L1.52041 147.792C1.16657 146.947 1.56897 145.997 2.41919 145.67C2.83272 145.51 3.29808 145.523 3.71048 145.705L11.8856 149.31C12.4632 149.565 13.1292 149.482 13.6093 149.097L20.4387 143.615C21.1436 143.05 22.1954 143.165 22.7881 143.872C23.0726 144.212 23.2111 144.646 23.1731 145.078L22.4051 153.801C22.3511 154.415 22.6524 155.014 23.1848 155.353L30.763 160.178C31.5447 160.676 31.7836 161.693 31.2967 162.45C31.0626 162.814 30.6883 163.068 30.2567 163.155L21.5658 164.919C20.9537 165.044 20.4733 165.497 20.3223 166.093L18.1795 174.553C17.9581 175.427 17.054 175.941 16.1603 175.702C15.7306 175.587 15.361 175.309 15.1327 174.931L10.5246 167.298C10.2011 166.762 9.60377 166.443 8.97852 166.471Z" fill="url(#paint5_linear_34_220)"/>
<path d="M56.4735 189.645C56.4587 189.082 56.2524 188.63 55.8545 188.29C55.4565 187.95 54.8972 187.754 54.1765 187.702C53.6868 187.666 53.2683 187.705 52.921 187.819C52.574 187.929 52.3017 188.097 52.1041 188.324C51.9111 188.552 51.8035 188.818 51.7813 189.123C51.7536 189.376 51.7906 189.602 51.8924 189.8C51.9987 189.998 52.1508 190.174 52.3486 190.327C52.5468 190.477 52.7784 190.612 53.0436 190.733C53.3092 190.85 53.5942 190.954 53.8987 191.046L55.1516 191.444C55.7606 191.627 56.3154 191.853 56.816 192.122C57.3166 192.391 57.7441 192.707 58.0984 193.072C58.4528 193.437 58.7173 193.855 58.8919 194.328C59.0712 194.801 59.1416 195.333 59.1033 195.925C59.0355 196.793 58.7591 197.53 58.2739 198.135C57.7936 198.737 57.1295 199.183 56.2817 199.475C55.4388 199.762 54.4399 199.863 53.2849 199.779C52.1392 199.696 51.154 199.448 50.3295 199.035C49.5096 198.622 48.8867 198.055 48.4609 197.332C48.04 196.605 47.8552 195.73 47.9063 194.707L50.8098 194.918C50.8076 195.396 50.915 195.803 51.1321 196.14C51.3541 196.472 51.6625 196.733 52.0573 196.924C52.4571 197.111 52.9156 197.224 53.4331 197.261C53.9412 197.298 54.3878 197.256 54.7728 197.136C55.1623 197.015 55.4706 196.831 55.6977 196.583C55.9247 196.335 56.0506 196.04 56.0755 195.698C56.0986 195.379 56.0234 195.104 55.8498 194.873C55.6808 194.643 55.4216 194.438 55.0724 194.259C54.7277 194.081 54.3012 193.911 53.7928 193.748L52.2757 193.248C51.1003 192.87 50.1886 192.346 49.5406 191.677C48.8926 191.007 48.6091 190.149 48.6899 189.1C48.7477 188.241 49.031 187.506 49.5396 186.898C50.0529 186.29 50.7292 185.835 51.5684 185.534C52.4077 185.232 53.3448 185.119 54.3796 185.195C55.433 185.271 56.3392 185.518 57.0984 185.936C57.8622 186.353 58.4402 186.899 58.8324 187.573C59.2247 188.247 59.397 189.008 59.3494 189.854L56.4735 189.645ZM66.8164 189.86L66.6553 192.078L60.2452 191.612L60.4064 189.394L66.8164 189.86ZM62.047 186.95L64.999 187.165L64.2779 197.088C64.2581 197.361 64.2842 197.576 64.3563 197.735C64.4287 197.888 64.5366 198.001 64.6801 198.072C64.8282 198.143 65.0016 198.185 65.2002 198.2C65.3388 198.21 65.4783 198.209 65.6185 198.196C65.7591 198.178 65.8669 198.165 65.9418 198.156L66.2465 200.387C66.0953 200.422 65.8835 200.46 65.6112 200.501C65.3386 200.546 65.01 200.562 64.6256 200.548C63.9121 200.524 63.2953 200.384 62.7752 200.128C62.2597 199.872 61.8707 199.505 61.6083 199.026C61.3458 198.547 61.2423 197.959 61.2976 197.261L62.047 186.95ZM70.5962 201.037C69.9171 200.988 69.3205 200.826 68.8063 200.552C68.2925 200.273 67.8978 199.889 67.6222 199.4C67.3515 198.907 67.2417 198.309 67.2927 197.607C67.3357 197.015 67.4803 196.527 67.7267 196.14C67.973 195.754 68.2922 195.452 68.6842 195.235C69.0762 195.017 69.5147 194.863 69.9996 194.773C70.4891 194.683 70.999 194.632 71.5294 194.619C72.1532 194.6 72.6565 194.576 73.0393 194.548C73.4225 194.515 73.7038 194.448 73.8831 194.345C74.0624 194.242 74.1603 194.077 74.1768 193.85L74.1798 193.809C74.2117 193.37 74.0978 193.02 73.838 192.76C73.5829 192.5 73.2036 192.352 72.7 192.315C72.1687 192.276 71.7375 192.363 71.4062 192.576C71.0753 192.784 70.8462 193.06 70.7191 193.404L68.0048 192.984C68.1904 192.347 68.5036 191.808 68.9444 191.366C69.3856 190.92 69.9364 190.593 70.5971 190.386C71.2626 190.174 72.0205 190.099 72.8705 190.161C73.4618 190.204 74.0227 190.314 74.5532 190.492C75.0883 190.67 75.5554 190.92 75.9547 191.242C76.3586 191.564 76.6663 191.962 76.8779 192.437C77.0899 192.908 77.1728 193.46 77.1268 194.093L76.6051 201.272L73.8055 201.068L73.9127 199.592L73.8296 199.586C73.6345 199.907 73.3845 200.183 73.0796 200.417C72.775 200.645 72.4166 200.817 72.0042 200.931C71.5922 201.04 71.1229 201.076 70.5962 201.037ZM71.5897 199.061C72.024 199.093 72.4137 199.035 72.7587 198.889C73.1041 198.737 73.3822 198.521 73.5931 198.239C73.804 197.957 73.9231 197.629 73.9503 197.254L74.0324 196.125C73.9356 196.178 73.8045 196.224 73.6392 196.264C73.4787 196.298 73.2977 196.329 73.096 196.356C72.8947 196.379 72.6935 196.399 72.4925 196.417C72.2918 196.43 72.1098 196.443 71.9464 196.454C71.5962 196.48 71.2878 196.538 71.021 196.631C70.7542 196.723 70.5423 196.858 70.3854 197.037C70.2287 197.212 70.1403 197.437 70.1202 197.715C70.091 198.116 70.2142 198.434 70.4898 198.668C70.7703 198.897 71.137 199.028 71.5897 199.061ZM78.5051 201.41L79.2787 190.766L82.1406 190.974L82.0057 192.831L82.1166 192.839C82.3586 192.193 82.7206 191.717 83.2024 191.413C83.6846 191.105 84.2237 190.972 84.8197 191.015C84.9675 191.026 85.1262 191.047 85.2958 191.078C85.4654 191.109 85.6137 191.145 85.7407 191.187L85.5504 193.806C85.4148 193.755 85.2258 193.704 84.9833 193.654C84.7408 193.603 84.5179 193.571 84.3146 193.556C83.8803 193.525 83.4854 193.591 83.1297 193.756C82.7791 193.916 82.4923 194.155 82.2695 194.473C82.0513 194.792 81.9264 195.168 81.8948 195.603L81.4572 201.625L78.5051 201.41ZM95.5089 194.997L92.7942 194.967C92.7648 194.732 92.6805 194.517 92.5415 194.321C92.4028 194.121 92.2128 193.956 91.9714 193.827C91.7349 193.694 91.4457 193.615 91.1039 193.59C90.6465 193.557 90.2537 193.626 89.9254 193.797C89.5975 193.963 89.422 194.206 89.3988 194.525C89.3804 194.779 89.4664 195.001 89.6569 195.191C89.8474 195.382 90.186 195.548 90.6726 195.69L92.5709 196.218C93.5903 196.506 94.3369 196.904 94.8109 197.412C95.2848 197.92 95.4939 198.558 95.4382 199.325C95.3875 200.022 95.1374 200.619 94.688 201.116C94.2431 201.613 93.6543 201.984 92.9213 202.228C92.1933 202.467 91.3674 202.554 90.4434 202.487C89.0343 202.384 87.933 202.009 87.1395 201.362C86.3509 200.71 85.9219 199.871 85.8525 198.844L88.7672 198.902C88.8238 199.339 89.0124 199.682 89.3332 199.933C89.6544 200.179 90.0783 200.321 90.6049 200.36C91.1223 200.397 91.5453 200.328 91.8739 200.152C92.2075 199.972 92.3881 199.723 92.4159 199.405C92.4308 199.136 92.3335 198.909 92.1242 198.722C91.9152 198.53 91.5831 198.371 91.1278 198.245L89.3112 197.744C88.2868 197.46 87.5392 197.044 87.0683 196.494C86.602 195.945 86.3977 195.273 86.4554 194.478C86.5051 193.794 86.7327 193.219 87.1382 192.751C87.5484 192.284 88.1004 191.941 88.7944 191.722C89.493 191.504 90.2973 191.427 91.2075 191.493C92.5518 191.591 93.5891 191.952 94.3193 192.576C95.0542 193.201 95.4507 194.008 95.5089 194.997Z" fill="white"/>
</g>
</g>
<defs>
<linearGradient id="paint0_linear_34_220" x1="85.2139" y1="0" x2="109.06" y2="244.571" gradientUnits="userSpaceOnUse">
<stop stop-color="#FF7300"/>
<stop offset="1" stop-color="#FFD500"/>
</linearGradient>
<linearGradient id="paint1_linear_34_220" x1="85.0306" y1="5.05217" x2="91.0867" y2="250.709" gradientUnits="userSpaceOnUse">
<stop stop-color="#FF7300"/>
<stop offset="1" stop-color="#FFD500"/>
</linearGradient>
<linearGradient id="paint2_linear_34_220" x1="86.674" y1="67.5248" x2="-5.84286" y2="594.536" gradientUnits="userSpaceOnUse">
<stop stop-color="white"/>
<stop offset="1" stop-color="#FF7700"/>
</linearGradient>
<linearGradient id="paint3_linear_34_220" x1="80.2882" y1="91.3896" x2="45.0913" y2="291.885" gradientUnits="userSpaceOnUse">
<stop stop-color="white"/>
<stop offset="1" stop-color="#FF7700"/>
</linearGradient>
<linearGradient id="paint4_linear_34_220" x1="123.406" y1="58.0112" x2="129.742" y2="130.031" gradientUnits="userSpaceOnUse">
<stop stop-color="white"/>
<stop offset="1" stop-color="#FF7700"/>
</linearGradient>
<linearGradient id="paint5_linear_34_220" x1="17.9669" y1="152.163" x2="-20.7373" y2="223.868" gradientUnits="userSpaceOnUse">
<stop stop-color="white"/>
<stop offset="1" stop-color="#FF7700"/>
</linearGradient>
</defs>
</svg>
