<svg width="154" height="175" viewBox="0 0 154 175" fill="none" xmlns="http://www.w3.org/2000/svg">
<rect y="2.03523" width="151" height="172.571" rx="20.7086" transform="rotate(-0.772274 0 2.03523)" fill="url(#paint0_linear_34_96)"/>
<mask id="mask0_34_96" style="mask-type:alpha" maskUnits="userSpaceOnUse" x="0" y="0" width="154" height="175">
<rect y="2.03523" width="151" height="172.571" rx="20.7086" transform="rotate(-0.772274 0 2.03523)" fill="#0B0B0D"/>
</mask>
<g mask="url(#mask0_34_96)">
<rect y="2.03523" width="151" height="172.571" rx="20.7086" transform="rotate(-0.772274 0 2.03523)" fill="url(#paint1_linear_34_96)"/>
<g style="mix-blend-mode:overlay" opacity="0.3">
<path d="M78.9808 46.3278C47.7487 66.3857 13.5767 63.0922 0.394675 58.9382L-7.35211 94.1772L-18.2079 187.695L18.6385 192.493L159.435 172.306C160.529 103.626 160.515 -30.046 151.714 -15.296C140.711 3.14161 118.021 21.2554 78.9808 46.3278Z" fill="url(#paint2_linear_34_96)"/>
<path d="M78.9808 46.3278C47.7487 66.3857 13.5767 63.0922 0.394675 58.9382L-7.35211 94.1772L-18.2079 187.695L18.6385 192.493L159.435 172.306C160.529 103.626 160.515 -30.046 151.714 -15.296C140.711 3.14161 118.021 21.2554 78.9808 46.3278Z" stroke="url(#paint3_linear_34_96)" stroke-width="1.72571" stroke-linecap="round"/>
</g>
<path d="M-2.12677 100.328C34.1061 100.988 111.803 92.5946 132.726 53.7479" stroke="url(#paint4_linear_34_96)" stroke-width="3.45143" stroke-linecap="round"/>
<path d="M132.726 53.7482C111.803 92.5949 34.1061 100.988 -2.12677 100.328L-8.4064 178.619L134.383 176.694L132.726 53.7482Z" fill="url(#paint5_linear_34_96)" fill-opacity="0.5"/>
<path d="M59.4986 149.163L56.4348 149.205C56.3897 148.891 56.3021 148.608 56.172 148.356C56.042 148.105 55.8716 147.89 55.6608 147.713C55.4501 147.537 55.2011 147.403 54.9138 147.313C54.6306 147.219 54.3175 147.174 53.9743 147.178C53.3656 147.187 52.8427 147.343 52.4055 147.647C51.9724 147.951 51.6412 148.387 51.4119 148.954C51.1866 149.52 51.0794 150.204 51.0902 151.005C51.1014 151.838 51.2293 152.535 51.4738 153.096C51.7224 153.652 52.0651 154.07 52.502 154.351C52.9429 154.627 53.4616 154.761 54.058 154.753C54.393 154.748 54.6968 154.701 54.9693 154.612C55.2459 154.522 55.4873 154.394 55.6935 154.228C55.9036 154.058 56.0745 153.853 56.2061 153.614C56.3418 153.371 56.4341 153.098 56.4832 152.795L59.5473 152.772C59.5016 153.329 59.3477 153.878 59.0853 154.421C58.827 154.964 58.4681 155.461 58.0084 155.913C57.5486 156.36 56.9855 156.719 56.3191 156.99C55.6567 157.26 54.8946 157.401 54.0326 157.413C52.8969 157.428 51.8764 157.193 50.9709 156.706C50.0695 156.216 49.3529 155.494 48.8212 154.541C48.2894 153.588 48.0143 152.423 47.9957 151.047C47.9771 149.666 48.2248 148.492 48.7389 147.525C49.2529 146.558 49.9559 145.819 50.8479 145.308C51.7399 144.798 52.7436 144.535 53.8588 144.52C54.6186 144.51 55.3227 144.607 55.971 144.81C56.6193 145.01 57.1912 145.309 57.6869 145.707C58.1825 146.1 58.5875 146.587 58.9017 147.167C59.216 147.747 59.4149 148.413 59.4986 149.163ZM60.997 157.147L60.8279 144.598L66.0119 144.528C66.9515 144.515 67.7647 144.674 68.4514 145.004C69.1423 145.329 69.6778 145.804 70.058 146.428C70.4382 147.048 70.634 147.787 70.6456 148.645C70.6573 149.515 70.4774 150.257 70.1056 150.871C69.7339 151.481 69.2009 151.95 68.5066 152.278C67.8123 152.602 66.9872 152.77 66.0312 152.783L62.7529 152.827L62.7207 150.438L65.4353 150.401C65.8928 150.395 66.274 150.33 66.5788 150.208C66.8876 150.081 67.12 149.894 67.276 149.647C67.432 149.395 67.5073 149.076 67.5021 148.688C67.4969 148.3 67.4129 147.98 67.2502 147.729C67.0874 147.474 66.8499 147.285 66.5377 147.162C66.2255 147.036 65.8426 146.976 65.3892 146.982L63.894 147.002L64.0302 157.106L60.997 157.147ZM67.9849 151.317L71.1874 157.01L67.8784 157.055L64.7373 151.36L67.9849 151.317ZM74.7916 156.961L71.5316 157.005L75.5967 144.399L79.6349 144.344L84.0383 156.837L80.7783 156.881L77.7044 147.533L77.6063 147.534L74.7916 156.961ZM74.2899 152.028L81.1039 151.936L81.135 154.24L74.321 154.332L74.2899 152.028ZM91.3216 147.95C91.2747 147.501 91.0882 147.154 90.7621 146.909C90.4401 146.66 89.9829 146.54 89.3905 146.548C88.9984 146.553 88.6722 146.609 88.4122 146.714C88.1521 146.82 87.9579 146.963 87.8296 147.145C87.7013 147.322 87.6366 147.526 87.6356 147.754C87.6299 147.942 87.6689 148.107 87.7526 148.249C87.8403 148.391 87.9645 148.516 88.1254 148.624C88.2902 148.728 88.4875 148.819 88.7174 148.898C88.9473 148.977 89.2056 149.045 89.4924 149.102L90.5742 149.333C91.1969 149.459 91.7468 149.632 92.2237 149.85C92.7046 150.068 93.1086 150.33 93.4355 150.636C93.7665 150.942 94.0185 151.297 94.1914 151.699C94.3644 152.101 94.4563 152.553 94.4671 153.056C94.4737 153.848 94.2827 154.531 93.8941 155.104C93.5055 155.677 92.9415 156.12 92.2021 156.432C91.4667 156.745 90.5762 156.908 89.5304 156.922C88.4805 156.936 87.5633 156.791 86.7788 156.487C85.9943 156.183 85.3812 155.713 84.9396 155.078C84.4979 154.442 84.2643 153.634 84.2389 152.654L87.1434 152.615C87.1733 153.019 87.2861 153.355 87.4818 153.622C87.6774 153.889 87.9437 154.089 88.2805 154.224C88.6214 154.358 89.0146 154.422 89.4598 154.416C89.8683 154.411 90.2148 154.351 90.4993 154.237C90.7879 154.123 91.0084 153.966 91.161 153.768C91.3136 153.57 91.3903 153.344 91.3909 153.091C91.3836 152.854 91.3074 152.653 91.1622 152.487C91.0169 152.318 90.7943 152.174 90.4944 152.055C90.1986 151.932 89.8212 151.821 89.3622 151.721L88.0468 151.432C86.9568 151.198 86.0955 150.807 85.463 150.26C84.8304 149.708 84.5098 148.957 84.501 148.005C84.4865 147.229 84.6856 146.546 85.0985 145.956C85.5114 145.366 86.0874 144.903 86.8265 144.566C87.5656 144.229 88.4111 144.054 89.3629 144.042C90.3351 144.028 91.181 144.182 91.9003 144.504C92.6237 144.821 93.1875 145.273 93.5918 145.86C93.996 146.447 94.2075 147.131 94.2262 147.911L91.3216 147.95ZM95.703 156.679L95.5338 144.13L98.567 144.089L98.6349 149.126L103.58 149.059L103.512 144.022L106.539 143.982L106.708 156.531L103.681 156.572L103.613 151.529L98.6682 151.595L98.7362 156.639L95.703 156.679Z" fill="white"/>
<circle opacity="0.2" cx="130.173" cy="56.3712" r="11.2171" transform="rotate(-0.772274 130.173 56.3712)" stroke="white" stroke-width="1.72571"/>
</g>
<defs>
<linearGradient id="paint0_linear_34_96" x1="75.5" y1="2.03523" x2="75.5" y2="174.607" gradientUnits="userSpaceOnUse">
<stop stop-color="#0B0B0D"/>
<stop offset="1" stop-color="#616173"/>
</linearGradient>
<linearGradient id="paint1_linear_34_96" x1="24.16" y1="6.78094" x2="75.5" y2="174.607" gradientUnits="userSpaceOnUse">
<stop stop-color="#A55FFF"/>
<stop offset="1" stop-color="#5100FF"/>
</linearGradient>
<linearGradient id="paint2_linear_34_96" x1="68.8013" y1="-15.288" x2="75.6542" y2="111.789" gradientUnits="userSpaceOnUse">
<stop stop-color="white"/>
<stop offset="1" stop-color="white" stop-opacity="0"/>
</linearGradient>
<linearGradient id="paint3_linear_34_96" x1="68.8013" y1="-15.288" x2="71.5925" y2="191.779" gradientUnits="userSpaceOnUse">
<stop stop-color="white"/>
<stop offset="0.397405" stop-color="white" stop-opacity="0"/>
</linearGradient>
<linearGradient id="paint4_linear_34_96" x1="-2.42767" y1="78.006" x2="133.029" y2="76.1802" gradientUnits="userSpaceOnUse">
<stop stop-color="#BB6EFF"/>
<stop offset="1" stop-color="white"/>
</linearGradient>
<linearGradient id="paint5_linear_34_96" x1="62.6255" y1="54.6931" x2="64.2827" y2="177.639" gradientUnits="userSpaceOnUse">
<stop stop-color="white" stop-opacity="0.5"/>
<stop offset="1" stop-color="white" stop-opacity="0"/>
</linearGradient>
</defs>
</svg>
