<svg width="358" height="144" viewBox="0 0 358 144" fill="none" xmlns="http://www.w3.org/2000/svg">
<path d="M7.96506 23H1.51336V5.54545H7.95654C9.73495 5.54545 11.2662 5.89489 12.5503 6.59375C13.8401 7.28693 14.8344 8.28693 15.5332 9.59375C16.2321 10.8949 16.5815 12.4517 16.5815 14.2642C16.5815 16.0824 16.2321 17.6449 15.5332 18.9517C14.8401 20.2585 13.8486 21.2614 12.5588 21.9602C11.269 22.6534 9.73779 23 7.96506 23ZM5.73211 19.4034H7.80313C8.78041 19.4034 9.60711 19.2386 10.2832 18.9091C10.9651 18.5739 11.4793 18.0312 11.8259 17.2812C12.1781 16.5256 12.3543 15.5199 12.3543 14.2642C12.3543 13.0085 12.1781 12.0085 11.8259 11.2642C11.4736 10.5142 10.9537 9.97443 10.2662 9.64489C9.58438 9.30966 8.74347 9.14204 7.74347 9.14204H5.73211V19.4034ZM24.6839 23.2472C23.3146 23.2472 22.1328 22.9773 21.1385 22.4375C20.1498 21.892 19.3885 21.1165 18.8544 20.1108C18.326 19.0994 18.0618 17.8977 18.0618 16.5057C18.0618 15.1534 18.3288 13.9716 18.8629 12.9602C19.397 11.9432 20.1498 11.1534 21.1214 10.5909C22.093 10.0227 23.2379 9.73864 24.5561 9.73864C25.4879 9.73864 26.3402 9.88352 27.1129 10.1733C27.8856 10.4631 28.5532 10.892 29.1157 11.4602C29.6782 12.0284 30.1157 12.7301 30.4282 13.5653C30.7407 14.3949 30.897 15.3466 30.897 16.4205V17.4602H19.5192V15.0398H27.0192C27.0135 14.5966 26.9084 14.2017 26.7038 13.8551C26.4993 13.5085 26.218 13.2386 25.8601 13.0455C25.5078 12.8466 25.1015 12.7472 24.6413 12.7472C24.1754 12.7472 23.7578 12.8523 23.3885 13.0625C23.0192 13.267 22.7265 13.5483 22.5106 13.9062C22.2947 14.2585 22.1811 14.6591 22.1697 15.108V17.571C22.1697 18.1051 22.2748 18.5739 22.4851 18.9773C22.6953 19.375 22.9936 19.6847 23.38 19.9062C23.7663 20.1278 24.2265 20.2386 24.7606 20.2386C25.13 20.2386 25.4652 20.1875 25.7663 20.0852C26.0675 19.983 26.326 19.8324 26.5419 19.6335C26.7578 19.4347 26.9197 19.1903 27.0277 18.9006L30.8544 19.0114C30.6953 19.8693 30.3459 20.6165 29.8061 21.2528C29.272 21.8835 28.5703 22.375 27.701 22.7273C26.8317 23.0739 25.826 23.2472 24.6839 23.2472ZM32.5455 27.9091V9.90909H36.6705V12.1506H36.7984C36.9688 11.7528 37.2103 11.3693 37.5228 11C37.841 10.6307 38.2444 10.3295 38.733 10.0966C39.2274 9.85795 39.8183 9.73864 40.5058 9.73864C41.4149 9.73864 42.2643 9.97727 43.0541 10.4545C43.8495 10.9318 44.4916 11.6676 44.9802 12.6619C45.4688 13.6562 45.7132 14.9233 45.7132 16.4631C45.7132 17.946 45.4774 19.1875 45.0058 20.1875C44.5399 21.1875 43.9092 21.9375 43.1137 22.4375C42.324 22.9375 41.4461 23.1875 40.4802 23.1875C39.8211 23.1875 39.2501 23.0795 38.7671 22.8636C38.2842 22.6477 37.8779 22.3636 37.5484 22.0114C37.2245 21.6591 36.9745 21.2812 36.7984 20.8778H36.7132V27.9091H32.5455ZM36.6279 16.4545C36.6279 17.1591 36.7217 17.7727 36.9092 18.2955C37.1024 18.8182 37.3779 19.2244 37.7359 19.5142C38.0995 19.7983 38.5342 19.9403 39.0399 19.9403C39.5512 19.9403 39.9859 19.7983 40.3438 19.5142C40.7018 19.2244 40.9717 18.8182 41.1535 18.2955C41.341 17.7727 41.4348 17.1591 41.4348 16.4545C41.4348 15.75 41.341 15.1392 41.1535 14.6222C40.9717 14.1051 40.7018 13.7045 40.3438 13.4205C39.9916 13.1364 39.5569 12.9943 39.0399 12.9943C38.5285 12.9943 38.0938 13.1335 37.7359 13.4119C37.3779 13.6903 37.1024 14.0881 36.9092 14.6051C36.7217 15.1222 36.6279 15.7386 36.6279 16.4545ZM53.5279 23.2472C52.1529 23.2472 50.9711 22.9659 49.9825 22.4034C48.9995 21.8352 48.241 21.0455 47.7069 20.0341C47.1785 19.017 46.9143 17.8381 46.9143 16.4972C46.9143 15.1506 47.1785 13.9716 47.7069 12.9602C48.241 11.9432 48.9995 11.1534 49.9825 10.5909C50.9711 10.0227 52.1529 9.73864 53.5279 9.73864C54.9029 9.73864 56.0819 10.0227 57.0648 10.5909C58.0535 11.1534 58.812 11.9432 59.3404 12.9602C59.8745 13.9716 60.1415 15.1506 60.1415 16.4972C60.1415 17.8381 59.8745 19.017 59.3404 20.0341C58.812 21.0455 58.0535 21.8352 57.0648 22.4034C56.0819 22.9659 54.9029 23.2472 53.5279 23.2472ZM53.5535 20.1023C54.0535 20.1023 54.4768 19.9489 54.8234 19.642C55.17 19.3352 55.4342 18.9091 55.616 18.3636C55.8035 17.8182 55.8972 17.1875 55.8972 16.4716C55.8972 15.7443 55.8035 15.108 55.616 14.5625C55.4342 14.017 55.17 13.5909 54.8234 13.2841C54.4768 12.9773 54.0535 12.8239 53.5535 12.8239C53.0364 12.8239 52.5989 12.9773 52.241 13.2841C51.8887 13.5909 51.6188 14.017 51.4313 14.5625C51.2495 15.108 51.1586 15.7443 51.1586 16.4716C51.1586 17.1875 51.2495 17.8182 51.4313 18.3636C51.6188 18.9091 51.8887 19.3352 52.241 19.642C52.5989 19.9489 53.0364 20.1023 53.5535 20.1023ZM73.2255 13.9062L69.3988 14.0085C69.359 13.7358 69.251 13.4943 69.0749 13.2841C68.8988 13.0682 68.6686 12.9006 68.3846 12.7812C68.1061 12.6562 67.7823 12.5938 67.413 12.5938C66.93 12.5938 66.5181 12.6903 66.1772 12.8835C65.8419 13.0767 65.6772 13.3381 65.6829 13.6676C65.6772 13.9233 65.7794 14.1449 65.9897 14.3324C66.2056 14.5199 66.5891 14.6705 67.1402 14.7841L69.663 15.2614C70.9698 15.5114 71.9414 15.9261 72.5777 16.5057C73.2198 17.0852 73.5436 17.8523 73.5493 18.8068C73.5436 19.7045 73.2766 20.4858 72.7482 21.1506C72.2255 21.8153 71.5096 22.3324 70.6005 22.7017C69.6914 23.0653 68.6516 23.2472 67.4811 23.2472C65.6118 23.2472 64.1374 22.8636 63.0579 22.0966C61.984 21.3239 61.3704 20.2898 61.2169 18.9943L65.3334 18.892C65.4243 19.3693 65.6601 19.733 66.0408 19.983C66.4215 20.233 66.9073 20.358 67.4982 20.358C68.0323 20.358 68.4669 20.2585 68.8022 20.0597C69.1374 19.8608 69.3079 19.5966 69.3135 19.267C69.3079 18.9716 69.1772 18.7358 68.9215 18.5597C68.6658 18.3778 68.2652 18.2358 67.7198 18.1335L65.4357 17.6989C64.1232 17.4602 63.1459 17.0199 62.5039 16.3778C61.8618 15.7301 61.5436 14.9062 61.5493 13.9062C61.5436 13.0312 61.7766 12.2841 62.2482 11.6648C62.7198 11.0398 63.3902 10.5625 64.2596 10.233C65.1289 9.90341 66.1544 9.73864 67.3363 9.73864C69.109 9.73864 70.5067 10.1108 71.5294 10.8551C72.5522 11.5937 73.1175 12.6108 73.2255 13.9062ZM75.1212 23V9.90909H79.2888V23H75.1212ZM77.2092 8.38352C76.624 8.38352 76.1212 8.19034 75.7007 7.80398C75.2803 7.41193 75.07 6.94034 75.07 6.3892C75.07 5.84375 75.2803 5.37784 75.7007 4.99148C76.1212 4.59943 76.624 4.40341 77.2092 4.40341C77.8001 4.40341 78.303 4.59943 78.7178 4.99148C79.1382 5.37784 79.3484 5.84375 79.3484 6.3892C79.3484 6.94034 79.1382 7.41193 78.7178 7.80398C78.303 8.19034 77.8001 8.38352 77.2092 8.38352ZM88.8507 9.90909V12.9773H80.5922V9.90909H88.8507ZM82.3223 6.77273H86.4899V18.8835C86.4899 19.1392 86.5297 19.3466 86.6092 19.5057C86.6944 19.6591 86.8166 19.7699 86.9757 19.8381C87.1348 19.9006 87.3251 19.9318 87.5467 19.9318C87.7058 19.9318 87.8734 19.9176 88.0496 19.8892C88.2314 19.8551 88.3677 19.8267 88.4586 19.804L89.0893 22.8125C88.8905 22.8693 88.6092 22.9403 88.2456 23.0256C87.8876 23.1108 87.4586 23.1648 86.9586 23.1875C85.9814 23.233 85.1433 23.1193 84.4444 22.8466C83.7513 22.5682 83.22 22.1364 82.8507 21.5511C82.4871 20.9659 82.3109 20.2301 82.3223 19.3438V6.77273ZM95.1734 23V9.90909H99.341V23H95.1734ZM97.2614 8.38352C96.6762 8.38352 96.1734 8.19034 95.7529 7.80398C95.3325 7.41193 95.1222 6.94034 95.1222 6.3892C95.1222 5.84375 95.3325 5.37784 95.7529 4.99148C96.1734 4.59943 96.6762 4.40341 97.2614 4.40341C97.8523 4.40341 98.3552 4.59943 98.77 4.99148C99.1904 5.37784 99.4006 5.84375 99.4006 6.3892C99.4006 6.94034 99.1904 7.41193 98.77 7.80398C98.3552 8.19034 97.8523 8.38352 97.2614 8.38352ZM105.681 15.5341V23H101.514V9.90909H105.477V12.3125H105.622C105.911 11.5114 106.406 10.8835 107.105 10.429C107.803 9.96875 108.636 9.73864 109.602 9.73864C110.522 9.73864 111.32 9.94602 111.997 10.3608C112.678 10.7699 113.207 11.3437 113.582 12.0824C113.963 12.8153 114.15 13.6733 114.144 14.6562V23H109.977V15.4744C109.982 14.7472 109.798 14.179 109.423 13.7699C109.053 13.3608 108.539 13.1562 107.88 13.1562C107.443 13.1562 107.056 13.2528 106.721 13.446C106.392 13.6335 106.136 13.9034 105.954 14.2557C105.778 14.608 105.687 15.0341 105.681 15.5341ZM124.611 23.2216C123.776 23.2216 123.034 23.0824 122.387 22.804C121.745 22.5199 121.236 22.0937 120.861 21.5256C120.492 20.9517 120.307 20.233 120.307 19.3693C120.307 18.642 120.435 18.0284 120.691 17.5284C120.946 17.0284 121.299 16.6222 121.748 16.3097C122.196 15.9972 122.713 15.7614 123.299 15.6023C123.884 15.4375 124.509 15.3267 125.174 15.2699C125.918 15.2017 126.517 15.1307 126.972 15.0568C127.427 14.9773 127.756 14.8665 127.961 14.7244C128.171 14.5767 128.276 14.3693 128.276 14.1023V14.0597C128.276 13.6222 128.125 13.2841 127.824 13.0455C127.523 12.8068 127.117 12.6875 126.606 12.6875C126.054 12.6875 125.611 12.8068 125.276 13.0455C124.941 13.2841 124.728 13.6136 124.637 14.0341L120.793 13.8977C120.907 13.1023 121.199 12.392 121.671 11.767C122.148 11.1364 122.802 10.642 123.631 10.2841C124.466 9.92045 125.469 9.73864 126.64 9.73864C127.475 9.73864 128.245 9.83807 128.949 10.0369C129.654 10.2301 130.267 10.5142 130.79 10.8892C131.313 11.2585 131.716 11.7131 132 12.2528C132.29 12.7926 132.435 13.4091 132.435 14.1023V23H128.515V21.1761H128.412C128.179 21.6193 127.881 21.9943 127.517 22.3011C127.159 22.608 126.736 22.8381 126.248 22.9915C125.765 23.1449 125.219 23.2216 124.611 23.2216ZM125.898 20.4943C126.347 20.4943 126.75 20.4034 127.108 20.2216C127.472 20.0398 127.762 19.7898 127.978 19.4716C128.194 19.1477 128.302 18.7727 128.302 18.3466V17.1023C128.182 17.1648 128.037 17.2216 127.867 17.2727C127.702 17.3239 127.52 17.3722 127.321 17.4176C127.123 17.4631 126.918 17.5028 126.708 17.5369C126.498 17.571 126.296 17.6023 126.103 17.6307C125.711 17.6932 125.375 17.7898 125.097 17.9205C124.824 18.0511 124.614 18.2216 124.466 18.4318C124.324 18.6364 124.253 18.8807 124.253 19.1648C124.253 19.5966 124.407 19.9261 124.713 20.1534C125.026 20.3807 125.421 20.4943 125.898 20.4943ZM138.671 15.5341V23H134.503V9.90909H138.466V12.3125H138.611C138.901 11.5114 139.395 10.8835 140.094 10.429C140.793 9.96875 141.626 9.73864 142.591 9.73864C143.512 9.73864 144.31 9.94602 144.986 10.3608C145.668 10.7699 146.197 11.3437 146.572 12.0824C146.952 12.8153 147.14 13.6733 147.134 14.6562V23H142.966V15.4744C142.972 14.7472 142.787 14.179 142.412 13.7699C142.043 13.3608 141.529 13.1562 140.87 13.1562C140.432 13.1562 140.046 13.2528 139.711 13.446C139.381 13.6335 139.126 13.9034 138.944 14.2557C138.768 14.608 138.677 15.0341 138.671 15.5341ZM151.314 27.9091C150.814 27.9091 150.342 27.8693 149.899 27.7898C149.456 27.7159 149.075 27.6165 148.757 27.4915L149.677 24.4659C150.087 24.6023 150.456 24.6818 150.785 24.7045C151.121 24.7273 151.408 24.6733 151.646 24.5426C151.891 24.4176 152.078 24.1932 152.209 23.8693L152.371 23.4773L147.717 9.90909H152.081L154.493 19.25H154.629L157.075 9.90909H161.464L156.53 24.2528C156.291 24.9688 155.953 25.5994 155.516 26.1449C155.084 26.696 154.524 27.1278 153.837 27.4403C153.155 27.7528 152.314 27.9091 151.314 27.9091ZM167.259 23V9.90909H171.222V12.3125H171.367C171.639 11.517 172.1 10.8892 172.747 10.429C173.395 9.96875 174.168 9.73864 175.065 9.73864C175.975 9.73864 176.753 9.97159 177.401 10.4375C178.048 10.9034 178.46 11.5284 178.637 12.3125H178.773C179.017 11.5341 179.494 10.9119 180.205 10.446C180.915 9.97443 181.753 9.73864 182.719 9.73864C183.958 9.73864 184.963 10.1364 185.736 10.9318C186.509 11.7216 186.895 12.8068 186.895 14.1875V23H182.727V15.142C182.727 14.4886 182.56 13.9915 182.225 13.6506C181.889 13.304 181.455 13.1307 180.921 13.1307C180.347 13.1307 179.895 13.3182 179.565 13.6932C179.242 14.0625 179.08 14.5597 179.08 15.1847V23H175.074V15.0994C175.074 14.4915 174.909 14.0114 174.58 13.6591C174.25 13.3068 173.815 13.1307 173.276 13.1307C172.912 13.1307 172.591 13.2187 172.313 13.3949C172.034 13.5653 171.815 13.8097 171.656 14.1278C171.503 14.446 171.426 14.821 171.426 15.2528V23H167.259ZM195.117 23.2472C193.747 23.2472 192.566 22.9773 191.571 22.4375C190.583 21.892 189.821 21.1165 189.287 20.1108C188.759 19.0994 188.495 17.8977 188.495 16.5057C188.495 15.1534 188.762 13.9716 189.296 12.9602C189.83 11.9432 190.583 11.1534 191.554 10.5909C192.526 10.0227 193.671 9.73864 194.989 9.73864C195.921 9.73864 196.773 9.88352 197.546 10.1733C198.318 10.4631 198.986 10.892 199.549 11.4602C200.111 12.0284 200.549 12.7301 200.861 13.5653C201.174 14.3949 201.33 15.3466 201.33 16.4205V17.4602H189.952V15.0398H197.452C197.446 14.5966 197.341 14.2017 197.137 13.8551C196.932 13.5085 196.651 13.2386 196.293 13.0455C195.941 12.8466 195.534 12.7472 195.074 12.7472C194.608 12.7472 194.191 12.8523 193.821 13.0625C193.452 13.267 193.159 13.5483 192.943 13.9062C192.728 14.2585 192.614 14.6591 192.603 15.108V17.571C192.603 18.1051 192.708 18.5739 192.918 18.9773C193.128 19.375 193.426 19.6847 193.813 19.9062C194.199 20.1278 194.659 20.2386 195.193 20.2386C195.563 20.2386 195.898 20.1875 196.199 20.0852C196.5 19.983 196.759 19.8324 196.975 19.6335C197.191 19.4347 197.353 19.1903 197.46 18.9006L201.287 19.0114C201.128 19.8693 200.779 20.6165 200.239 21.2528C199.705 21.8835 199.003 22.375 198.134 22.7273C197.264 23.0739 196.259 23.2472 195.117 23.2472ZM210.368 9.90909V12.9773H202.109V9.90909H210.368ZM203.839 6.77273H208.007V18.8835C208.007 19.1392 208.047 19.3466 208.126 19.5057C208.211 19.6591 208.333 19.7699 208.493 19.8381C208.652 19.9006 208.842 19.9318 209.064 19.9318C209.223 19.9318 209.39 19.9176 209.566 19.8892C209.748 19.8551 209.885 19.8267 209.976 19.804L210.606 22.8125C210.407 22.8693 210.126 22.9403 209.762 23.0256C209.404 23.1108 208.976 23.1648 208.476 23.1875C207.498 23.233 206.66 23.1193 205.961 22.8466C205.268 22.5682 204.737 22.1364 204.368 21.5511C204.004 20.9659 203.828 20.2301 203.839 19.3438V6.77273ZM216.463 15.5341V23H212.295V5.54545H216.326V12.3125H216.471C216.767 11.5057 217.25 10.875 217.92 10.4205C218.596 9.96591 219.423 9.73864 220.4 9.73864C221.321 9.73864 222.122 9.94318 222.804 10.3523C223.486 10.7557 224.014 11.3267 224.389 12.0653C224.77 12.804 224.957 13.6676 224.951 14.6562V23H220.784V15.4744C220.79 14.7472 220.608 14.179 220.238 13.7699C219.869 13.3608 219.349 13.1562 218.679 13.1562C218.241 13.1562 217.855 13.2528 217.52 13.446C217.19 13.6335 216.932 13.9034 216.744 14.2557C216.562 14.608 216.469 15.0341 216.463 15.5341ZM233.184 23.2472C231.809 23.2472 230.627 22.9659 229.638 22.4034C228.655 21.8352 227.897 21.0455 227.363 20.0341C226.834 19.017 226.57 17.8381 226.57 16.4972C226.57 15.1506 226.834 13.9716 227.363 12.9602C227.897 11.9432 228.655 11.1534 229.638 10.5909C230.627 10.0227 231.809 9.73864 233.184 9.73864C234.559 9.73864 235.738 10.0227 236.721 10.5909C237.709 11.1534 238.468 11.9432 238.996 12.9602C239.53 13.9716 239.797 15.1506 239.797 16.4972C239.797 17.8381 239.53 19.017 238.996 20.0341C238.468 21.0455 237.709 21.8352 236.721 22.4034C235.738 22.9659 234.559 23.2472 233.184 23.2472ZM233.209 20.1023C233.709 20.1023 234.133 19.9489 234.479 19.642C234.826 19.3352 235.09 18.9091 235.272 18.3636C235.459 17.8182 235.553 17.1875 235.553 16.4716C235.553 15.7443 235.459 15.108 235.272 14.5625C235.09 14.017 234.826 13.5909 234.479 13.2841C234.133 12.9773 233.709 12.8239 233.209 12.8239C232.692 12.8239 232.255 12.9773 231.897 13.2841C231.545 13.5909 231.275 14.017 231.087 14.5625C230.905 15.108 230.815 15.7443 230.815 16.4716C230.815 17.1875 230.905 17.8182 231.087 18.3636C231.275 18.9091 231.545 19.3352 231.897 19.642C232.255 19.9489 232.692 20.1023 233.209 20.1023ZM246.234 23.1875C245.268 23.1875 244.39 22.9375 243.6 22.4375C242.81 21.9375 242.18 21.1875 241.708 20.1875C241.237 19.1875 241.001 17.946 241.001 16.4631C241.001 14.9233 241.245 13.6562 241.734 12.6619C242.222 11.6676 242.862 10.9318 243.651 10.4545C244.447 9.97727 245.302 9.73864 246.217 9.73864C246.904 9.73864 247.492 9.85795 247.981 10.0966C248.469 10.3295 248.873 10.6307 249.191 11C249.509 11.3693 249.751 11.7528 249.915 12.1506H250.001V5.54545H254.168V23H250.043V20.8778H249.915C249.739 21.2812 249.489 21.6591 249.165 22.0114C248.842 22.3636 248.435 22.6477 247.947 22.8636C247.464 23.0795 246.893 23.1875 246.234 23.1875ZM247.683 19.9403C248.188 19.9403 248.62 19.7983 248.978 19.5142C249.336 19.2244 249.612 18.8182 249.805 18.2955C249.998 17.7727 250.094 17.1591 250.094 16.4545C250.094 15.7386 249.998 15.1222 249.805 14.6051C249.617 14.0881 249.342 13.6903 248.978 13.4119C248.62 13.1335 248.188 12.9943 247.683 12.9943C247.165 12.9943 246.728 13.1364 246.37 13.4205C246.012 13.7045 245.739 14.1051 245.552 14.6222C245.37 15.1392 245.279 15.75 245.279 16.4545C245.279 17.1591 245.373 17.7727 245.56 18.2955C245.748 18.8182 246.018 19.2244 246.37 19.5142C246.728 19.7983 247.165 19.9403 247.683 19.9403ZM267.753 13.9062L263.926 14.0085C263.886 13.7358 263.779 13.4943 263.602 13.2841C263.426 13.0682 263.196 12.9006 262.912 12.7812C262.634 12.6562 262.31 12.5938 261.94 12.5938C261.458 12.5938 261.046 12.6903 260.705 12.8835C260.369 13.0767 260.205 13.3381 260.21 13.6676C260.205 13.9233 260.307 14.1449 260.517 14.3324C260.733 14.5199 261.117 14.6705 261.668 14.7841L264.19 15.2614C265.497 15.5114 266.469 15.9261 267.105 16.5057C267.747 17.0852 268.071 17.8523 268.077 18.8068C268.071 19.7045 267.804 20.4858 267.276 21.1506C266.753 21.8153 266.037 22.3324 265.128 22.7017C264.219 23.0653 263.179 23.2472 262.009 23.2472C260.139 23.2472 258.665 22.8636 257.585 22.0966C256.511 21.3239 255.898 20.2898 255.744 18.9943L259.861 18.892C259.952 19.3693 260.188 19.733 260.568 19.983C260.949 20.233 261.435 20.358 262.026 20.358C262.56 20.358 262.994 20.2585 263.33 20.0597C263.665 19.8608 263.835 19.5966 263.841 19.267C263.835 18.9716 263.705 18.7358 263.449 18.5597C263.193 18.3778 262.793 18.2358 262.247 18.1335L259.963 17.6989C258.651 17.4602 257.673 17.0199 257.031 16.3778C256.389 15.7301 256.071 14.9062 256.077 13.9062C256.071 13.0312 256.304 12.2841 256.776 11.6648C257.247 11.0398 257.918 10.5625 258.787 10.233C259.656 9.90341 260.682 9.73864 261.864 9.73864C263.636 9.73864 265.034 10.1108 266.057 10.8551C267.08 11.5937 267.645 12.6108 267.753 13.9062Z" fill="white"/>
<path opacity="0.5" d="M2.1038 46H0.416299L3.48874 37.2727H5.44045L8.51715 46H6.82965L4.49869 39.0625H4.4305L2.1038 46ZM2.1592 42.5781H6.76147V43.848H2.1592V42.5781ZM10.9011 37.2727V46H9.35847V37.2727H10.9011ZM13.79 37.2727V46H12.2474V37.2727H13.79ZM17.8728 46V39.4545H19.3473V40.5668H19.424C19.5603 40.1918 19.7862 39.8991 20.1015 39.6889C20.4169 39.4759 20.7933 39.3693 21.2308 39.3693C21.674 39.3693 22.0476 39.4773 22.3515 39.6932C22.6584 39.9062 22.8743 40.1974 22.9993 40.5668H23.0675C23.2123 40.2031 23.4567 39.9134 23.8004 39.6974C24.147 39.4787 24.5575 39.3693 25.0319 39.3693C25.6342 39.3693 26.1257 39.5597 26.5064 39.9403C26.8871 40.321 27.0774 40.8764 27.0774 41.6065V46H25.5305V41.8452C25.5305 41.4389 25.4226 41.142 25.2067 40.9545C24.9907 40.7642 24.7265 40.669 24.414 40.669C24.0419 40.669 23.7507 40.7855 23.5405 41.0185C23.3331 41.2486 23.2294 41.5483 23.2294 41.9176V46H21.7166V41.7812C21.7166 41.4432 21.6143 41.1733 21.4098 40.9716C21.2081 40.7699 20.9439 40.669 20.6172 40.669C20.3956 40.669 20.1939 40.7259 20.0121 40.8395C19.8302 40.9503 19.6853 41.108 19.5774 41.3125C19.4694 41.5142 19.4155 41.75 19.4155 42.0199V46H17.8728ZM31.3001 46.1278C30.6439 46.1278 30.0771 45.9915 29.5998 45.7188C29.1254 45.4432 28.7603 45.054 28.5047 44.5511C28.249 44.0455 28.1211 43.4503 28.1211 42.7656C28.1211 42.0923 28.249 41.5014 28.5047 40.9929C28.7632 40.4815 29.124 40.0838 29.587 39.7997C30.0501 39.5128 30.5941 39.3693 31.2191 39.3693C31.6225 39.3693 32.0032 39.4347 32.3612 39.5653C32.722 39.6932 33.0402 39.892 33.3157 40.1619C33.5941 40.4318 33.8129 40.7756 33.972 41.1932C34.1311 41.608 34.2106 42.1023 34.2106 42.6761V43.1491H28.8456V42.1094H32.7319C32.7291 41.8139 32.6652 41.5511 32.5402 41.321C32.4152 41.0881 32.2404 40.9048 32.016 40.7713C31.7944 40.6378 31.5359 40.571 31.2404 40.571C30.9251 40.571 30.6481 40.6477 30.4095 40.8011C30.1708 40.9517 29.9848 41.1506 29.8512 41.3977C29.7206 41.642 29.6538 41.9105 29.651 42.2031V43.1108C29.651 43.4915 29.7206 43.8182 29.8598 44.0909C29.999 44.3608 30.1936 44.5682 30.4436 44.7131C30.6936 44.8551 30.9862 44.9261 31.3214 44.9261C31.5458 44.9261 31.749 44.8949 31.9308 44.8324C32.1126 44.767 32.2703 44.6719 32.4038 44.5469C32.5373 44.4219 32.6382 44.267 32.7064 44.0824L34.1467 44.2443C34.0558 44.625 33.8825 44.9574 33.6268 45.2415C33.374 45.5227 33.0501 45.7415 32.6552 45.8977C32.2603 46.0511 31.8086 46.1278 31.3001 46.1278ZM38.5441 39.4545V40.6477H34.7813V39.4545H38.5441ZM35.7103 37.8864H37.2529V44.0312C37.2529 44.2386 37.2842 44.3977 37.3467 44.5085C37.412 44.6165 37.4973 44.6903 37.6024 44.7301C37.7075 44.7699 37.824 44.7898 37.9518 44.7898C38.0484 44.7898 38.1365 44.7827 38.216 44.7685C38.2984 44.7543 38.3609 44.7415 38.4035 44.7301L38.6634 45.9361C38.5811 45.9645 38.4632 45.9957 38.3098 46.0298C38.1592 46.0639 37.9745 46.0838 37.7558 46.0895C37.3694 46.1009 37.0214 46.0426 36.7117 45.9148C36.4021 45.7841 36.1563 45.5824 35.9745 45.3097C35.7955 45.0369 35.7075 44.696 35.7103 44.2869V37.8864ZM41.2775 42.1648V46H39.7349V37.2727H41.2434V40.5668H41.3201C41.4735 40.1974 41.7107 39.9062 42.0318 39.6932C42.3556 39.4773 42.7675 39.3693 43.2675 39.3693C43.7221 39.3693 44.1184 39.4645 44.4565 39.6548C44.7945 39.8452 45.0559 40.1236 45.2406 40.4901C45.4281 40.8565 45.5218 41.304 45.5218 41.8324V46H43.9792V42.071C43.9792 41.6307 43.8656 41.2884 43.6383 41.044C43.4139 40.7969 43.0985 40.6733 42.6923 40.6733C42.4195 40.6733 42.1752 40.733 41.9593 40.8523C41.7462 40.9687 41.5786 41.1378 41.4565 41.3594C41.3372 41.581 41.2775 41.8494 41.2775 42.1648ZM49.7094 46.1278C49.0702 46.1278 48.5162 45.9872 48.0474 45.706C47.5787 45.4247 47.2151 45.0312 46.9565 44.5256C46.7008 44.0199 46.573 43.429 46.573 42.7528C46.573 42.0767 46.7008 41.4844 46.9565 40.9759C47.2151 40.4673 47.5787 40.0724 48.0474 39.7912C48.5162 39.5099 49.0702 39.3693 49.7094 39.3693C50.3486 39.3693 50.9026 39.5099 51.3713 39.7912C51.8401 40.0724 52.2023 40.4673 52.4579 40.9759C52.7165 41.4844 52.8457 42.0767 52.8457 42.7528C52.8457 43.429 52.7165 44.0199 52.4579 44.5256C52.2023 45.0312 51.8401 45.4247 51.3713 45.706C50.9026 45.9872 50.3486 46.1278 49.7094 46.1278ZM49.7179 44.892C50.0645 44.892 50.3543 44.7969 50.5872 44.6065C50.8202 44.4134 50.9935 44.1548 51.1071 43.831C51.2236 43.5071 51.2818 43.1463 51.2818 42.7486C51.2818 42.348 51.2236 41.9858 51.1071 41.6619C50.9935 41.3352 50.8202 41.0753 50.5872 40.8821C50.3543 40.6889 50.0645 40.5923 49.7179 40.5923C49.3628 40.5923 49.0673 40.6889 48.8315 40.8821C48.5986 41.0753 48.4239 41.3352 48.3074 41.6619C48.1937 41.9858 48.1369 42.348 48.1369 42.7486C48.1369 43.1463 48.1937 43.5071 48.3074 43.831C48.4239 44.1548 48.5986 44.4134 48.8315 44.6065C49.0673 44.7969 49.3628 44.892 49.7179 44.892ZM56.344 46.1151C55.8298 46.1151 55.3696 45.983 54.9633 45.7188C54.5571 45.4545 54.2361 45.071 54.0003 44.5682C53.7645 44.0653 53.6466 43.4545 53.6466 42.7358C53.6466 42.0085 53.7659 41.3949 54.0045 40.8949C54.246 40.392 54.5713 40.0128 54.9804 39.7571C55.3895 39.4986 55.8454 39.3693 56.3483 39.3693C56.7318 39.3693 57.0471 39.4347 57.2943 39.5653C57.5415 39.6932 57.7375 39.848 57.8824 40.0298C58.0273 40.2088 58.1395 40.3778 58.219 40.5369H58.2829V37.2727H59.8298V46H58.3128V44.9688H58.219C58.1395 45.1278 58.0244 45.2969 57.8738 45.4759C57.7233 45.652 57.5244 45.8026 57.2773 45.9276C57.0301 46.0526 56.719 46.1151 56.344 46.1151ZM56.7744 44.8494C57.1011 44.8494 57.3795 44.7614 57.6096 44.5852C57.8398 44.4062 58.0145 44.1577 58.1338 43.8395C58.2531 43.5213 58.3128 43.1506 58.3128 42.7273C58.3128 42.304 58.2531 41.9361 58.1338 41.6236C58.0173 41.3111 57.844 41.0682 57.6139 40.8949C57.3866 40.7216 57.1068 40.6349 56.7744 40.6349C56.4307 40.6349 56.1437 40.7244 55.9136 40.9034C55.6835 41.0824 55.5102 41.3295 55.3937 41.6449C55.2773 41.9602 55.219 42.321 55.219 42.7273C55.219 43.1364 55.2773 43.5014 55.3937 43.8224C55.513 44.1406 55.6878 44.392 55.9179 44.5767C56.1508 44.7585 56.4363 44.8494 56.7744 44.8494ZM66.4069 41.1847L65.0007 41.3381C64.9609 41.196 64.8913 41.0625 64.7919 40.9375C64.6953 40.8125 64.5646 40.7116 64.3998 40.6349C64.235 40.5582 64.0333 40.5199 63.7947 40.5199C63.4737 40.5199 63.2038 40.5895 62.985 40.7287C62.7691 40.8679 62.6626 41.0483 62.6654 41.2699C62.6626 41.4602 62.7322 41.6151 62.8743 41.7344C63.0191 41.8537 63.2578 41.9517 63.5902 42.0284L64.7066 42.267C65.326 42.4006 65.7862 42.6122 66.0873 42.902C66.3913 43.1918 66.5447 43.571 66.5475 44.0398C66.5447 44.4517 66.424 44.8153 66.1853 45.1307C65.9495 45.4432 65.6214 45.6875 65.201 45.8636C64.7805 46.0398 64.2975 46.1278 63.7521 46.1278C62.951 46.1278 62.3061 45.9602 61.8174 45.625C61.3288 45.2869 61.0376 44.8168 60.9439 44.2145L62.4481 44.0696C62.5163 44.3651 62.6612 44.5881 62.8828 44.7386C63.1044 44.8892 63.3927 44.9645 63.7478 44.9645C64.1143 44.9645 64.4083 44.8892 64.6299 44.7386C64.8544 44.5881 64.9666 44.402 64.9666 44.1804C64.9666 43.9929 64.8941 43.8381 64.7493 43.7159C64.6072 43.5937 64.3856 43.5 64.0845 43.4347L62.968 43.2003C62.3402 43.0696 61.8757 42.8494 61.5745 42.5398C61.2734 42.2273 61.1243 41.8324 61.1271 41.3551C61.1243 40.9517 61.2336 40.6023 61.4552 40.3068C61.6796 40.0085 61.9907 39.7784 62.3885 39.6165C62.789 39.4517 63.2507 39.3693 63.7734 39.3693C64.5404 39.3693 65.1441 39.5327 65.5845 39.8594C66.0277 40.1861 66.3018 40.6278 66.4069 41.1847ZM71.8587 42.1648V46H70.3161V37.2727H71.8247V40.5668H71.9014C72.0548 40.1974 72.292 39.9062 72.613 39.6932C72.9369 39.4773 73.3488 39.3693 73.8488 39.3693C74.3033 39.3693 74.6997 39.4645 75.0377 39.6548C75.3758 39.8452 75.6372 40.1236 75.8218 40.4901C76.0093 40.8565 76.1031 41.304 76.1031 41.8324V46H74.5604V42.071C74.5604 41.6307 74.4468 41.2884 74.2195 41.044C73.9951 40.7969 73.6798 40.6733 73.2735 40.6733C73.0008 40.6733 72.7565 40.733 72.5406 40.8523C72.3275 40.9687 72.1599 41.1378 72.0377 41.3594C71.9184 41.581 71.8587 41.8494 71.8587 42.1648ZM80.3332 46.1278C79.677 46.1278 79.1102 45.9915 78.6329 45.7188C78.1585 45.4432 77.7935 45.054 77.5378 44.5511C77.2821 44.0455 77.1542 43.4503 77.1542 42.7656C77.1542 42.0923 77.2821 41.5014 77.5378 40.9929C77.7963 40.4815 78.1571 40.0838 78.6202 39.7997C79.0832 39.5128 79.6273 39.3693 80.2523 39.3693C80.6557 39.3693 81.0363 39.4347 81.3943 39.5653C81.7551 39.6932 82.0733 39.892 82.3488 40.1619C82.6273 40.4318 82.846 40.7756 83.0051 41.1932C83.1642 41.608 83.2437 42.1023 83.2437 42.6761V43.1491H77.8787V42.1094H81.765C81.7622 41.8139 81.6983 41.5511 81.5733 41.321C81.4483 41.0881 81.2736 40.9048 81.0491 40.7713C80.8275 40.6378 80.569 40.571 80.2736 40.571C79.9582 40.571 79.6812 40.6477 79.4426 40.8011C79.204 40.9517 79.0179 41.1506 78.8844 41.3977C78.7537 41.642 78.6869 41.9105 78.6841 42.2031V43.1108C78.6841 43.4915 78.7537 43.8182 78.8929 44.0909C79.0321 44.3608 79.2267 44.5682 79.4767 44.7131C79.7267 44.8551 80.0193 44.9261 80.3545 44.9261C80.579 44.9261 80.7821 44.8949 80.9639 44.8324C81.1457 44.767 81.3034 44.6719 81.4369 44.5469C81.5704 44.4219 81.6713 44.267 81.7395 44.0824L83.1798 44.2443C83.0889 44.625 82.9156 44.9574 82.6599 45.2415C82.4071 45.5227 82.0832 45.7415 81.6883 45.8977C81.2935 46.0511 80.8417 46.1278 80.3332 46.1278ZM84.3088 46V39.4545H85.8045V40.5455H85.8727C85.992 40.1676 86.1966 39.8764 86.4863 39.6719C86.779 39.4645 87.1128 39.3608 87.4878 39.3608C87.573 39.3608 87.6682 39.3651 87.7733 39.3736C87.8812 39.3793 87.9707 39.3892 88.0417 39.4034V40.8224C87.9764 40.7997 87.8727 40.7798 87.7307 40.7628C87.5915 40.7429 87.4565 40.733 87.3258 40.733C87.0446 40.733 86.7917 40.794 86.5673 40.9162C86.3457 41.0355 86.171 41.2017 86.0432 41.4148C85.9153 41.6278 85.8514 41.8736 85.8514 42.152V46H84.3088ZM91.4548 46.1278C90.7985 46.1278 90.2318 45.9915 89.7545 45.7188C89.2801 45.4432 88.915 45.054 88.6593 44.5511C88.4037 44.0455 88.2758 43.4503 88.2758 42.7656C88.2758 42.0923 88.4037 41.5014 88.6593 40.9929C88.9179 40.4815 89.2787 40.0838 89.7417 39.7997C90.2048 39.5128 90.7488 39.3693 91.3738 39.3693C91.7772 39.3693 92.1579 39.4347 92.5159 39.5653C92.8767 39.6932 93.1948 39.892 93.4704 40.1619C93.7488 40.4318 93.9676 40.7756 94.1267 41.1932C94.2858 41.608 94.3653 42.1023 94.3653 42.6761V43.1491H89.0002V42.1094H92.8866C92.8838 41.8139 92.8198 41.5511 92.6948 41.321C92.5698 41.0881 92.3951 40.9048 92.1707 40.7713C91.9491 40.6378 91.6906 40.571 91.3951 40.571C91.0798 40.571 90.8028 40.6477 90.5642 40.8011C90.3255 40.9517 90.1395 41.1506 90.0059 41.3977C89.8752 41.642 89.8085 41.9105 89.8056 42.2031V43.1108C89.8056 43.4915 89.8752 43.8182 90.0145 44.0909C90.1537 44.3608 90.3483 44.5682 90.5983 44.7131C90.8483 44.8551 91.1409 44.9261 91.4761 44.9261C91.7005 44.9261 91.9037 44.8949 92.0855 44.8324C92.2673 44.767 92.425 44.6719 92.5585 44.5469C92.692 44.4219 92.7929 44.267 92.861 44.0824L94.3014 44.2443C94.2105 44.625 94.0372 44.9574 93.7815 45.2415C93.5287 45.5227 93.2048 45.7415 92.8099 45.8977C92.415 46.0511 91.9633 46.1278 91.4548 46.1278Z" fill="white"/>
<path d="M0 116C0 102.745 10.7452 92 24 92H334C347.255 92 358 102.745 358 116V120C358 133.255 347.255 144 334 144H24C10.7452 144 0 133.255 0 120V116Z" fill="#C4FF00"/>
<path d="M171.935 111.864V123.5H169.81L164.748 116.176H164.663V123.5H162.202V111.864H164.361L169.384 119.182H169.486V111.864H171.935ZM177.58 123.67C176.682 123.67 175.909 123.489 175.262 123.125C174.618 122.758 174.121 122.239 173.773 121.568C173.424 120.894 173.25 120.097 173.25 119.176C173.25 118.278 173.424 117.491 173.773 116.812C174.121 116.134 174.612 115.606 175.245 115.227C175.881 114.848 176.627 114.659 177.483 114.659C178.059 114.659 178.595 114.752 179.091 114.938C179.591 115.119 180.027 115.394 180.398 115.761C180.773 116.129 181.065 116.591 181.273 117.148C181.481 117.701 181.585 118.348 181.585 119.091V119.756H174.216V118.256H179.307C179.307 117.907 179.231 117.598 179.08 117.33C178.928 117.061 178.718 116.85 178.449 116.699C178.184 116.544 177.875 116.466 177.523 116.466C177.156 116.466 176.83 116.551 176.546 116.722C176.265 116.888 176.046 117.114 175.887 117.398C175.727 117.678 175.646 117.991 175.642 118.335V119.761C175.642 120.193 175.722 120.566 175.881 120.881C176.044 121.195 176.273 121.438 176.568 121.608C176.864 121.778 177.214 121.864 177.62 121.864C177.888 121.864 178.135 121.826 178.358 121.75C178.582 121.674 178.773 121.561 178.932 121.409C179.091 121.258 179.212 121.072 179.296 120.852L181.534 121C181.421 121.538 181.188 122.008 180.835 122.409C180.487 122.807 180.036 123.117 179.483 123.341C178.934 123.561 178.299 123.67 177.58 123.67ZM184.711 114.773L186.314 117.824L187.956 114.773H190.439L187.91 119.136L190.507 123.5H188.035L186.314 120.483L184.621 123.5H182.121L184.711 119.136L182.211 114.773H184.711ZM196.198 114.773V116.591H190.943V114.773H196.198ZM192.136 112.682H194.556V120.818C194.556 121.042 194.59 121.216 194.658 121.341C194.727 121.462 194.821 121.547 194.943 121.597C195.068 121.646 195.212 121.67 195.374 121.67C195.488 121.67 195.602 121.661 195.715 121.642C195.829 121.619 195.916 121.602 195.977 121.591L196.357 123.392C196.236 123.43 196.066 123.473 195.846 123.523C195.626 123.576 195.359 123.608 195.045 123.619C194.462 123.642 193.95 123.564 193.511 123.386C193.075 123.208 192.736 122.932 192.494 122.557C192.251 122.182 192.132 121.708 192.136 121.136V112.682Z" fill="#242424"/>
</svg>
