<svg width="390" height="840" viewBox="0 0 390 840" fill="none" xmlns="http://www.w3.org/2000/svg">
<g clip-path="url(#clip0_3_5574)">
<rect width="390" height="840" fill="#0F0F12"/>
<g opacity="0.2" filter="url(#filter0_f_3_5574)">
<circle cx="195" cy="781" r="332" fill="#C4FF00"/>
</g>
<rect x="125" y="150.251" width="175" height="200" rx="24" transform="rotate(-4.34266 125 150.251)" fill="#0B0B0D"/>
<mask id="mask0_3_5574" style="mask-type:alpha" maskUnits="userSpaceOnUse" x="126" y="138" width="187" height="210">
<rect x="125" y="150.251" width="175" height="200" rx="24" transform="rotate(-4.34266 125 150.251)" fill="#0B0B0D"/>
</mask>
<g mask="url(#mask0_3_5574)">
<path d="M126.817 174.182C125.814 160.965 135.714 149.437 148.931 148.434L275.566 138.817C288.783 137.813 300.311 147.714 301.315 160.931L312.824 312.494C313.828 325.711 303.927 337.239 290.711 338.243L164.075 347.859C150.859 348.863 139.331 338.962 138.327 325.746L126.817 174.182Z" fill="url(#paint0_linear_3_5574)"/>
<g style="mix-blend-mode:overlay" opacity="0.3">
<circle cx="278.469" cy="150.631" r="77" transform="rotate(-4.34266 278.469 150.631)" fill="url(#paint1_linear_3_5574)" fill-opacity="0.2"/>
</g>
<g style="mix-blend-mode:overlay" opacity="0.3">
<circle cx="77" cy="77" r="77" transform="matrix(-0.997129 0.0757211 0.0757211 0.997129 193.549 168.112)" fill="url(#paint2_linear_3_5574)" fill-opacity="0.2"/>
</g>
<g style="mix-blend-mode:overlay">
<circle cx="278.038" cy="356.254" r="77" transform="rotate(-4.34266 278.038 356.254)" fill="url(#paint3_linear_3_5574)" fill-opacity="0.2"/>
</g>
</g>
<path d="M190.725 325.778L189.624 311.274L195.615 310.819C196.701 310.737 197.654 310.878 198.475 311.243C199.3 311.603 199.956 312.144 200.443 312.867C200.93 313.585 201.211 314.442 201.287 315.439C201.363 316.439 201.209 317.332 200.827 318.116C200.45 318.895 199.873 319.52 199.097 319.992C198.321 320.465 197.378 320.743 196.268 320.827L192.571 321.108L192.362 318.346L195.407 318.114C195.936 318.074 196.37 317.949 196.71 317.738C197.055 317.526 197.307 317.248 197.466 316.904C197.625 316.555 197.687 316.158 197.654 315.714C197.619 315.266 197.498 314.886 197.289 314.574C197.08 314.257 196.789 314.023 196.417 313.871C196.044 313.719 195.596 313.663 195.072 313.702L193.344 313.834L194.231 325.512L190.725 325.778ZM203.336 324.82L202.234 310.317L205.74 310.05L206.625 321.707L212.659 321.249L212.875 324.096L203.336 324.82ZM216.695 309.218L217.796 323.722L214.291 323.988L213.19 309.485L216.695 309.218ZM230.841 308.144L231.942 322.648L228.968 322.874L222.56 314.941L222.468 314.948L223.104 323.319L219.598 323.585L218.497 309.082L221.514 308.853L227.856 316.776L227.977 316.767L227.342 308.41L230.841 308.144ZM233.747 322.511L232.646 308.007L236.152 307.741L236.617 313.874L236.808 313.859L241.137 307.362L245.266 307.049L240.616 313.912L246.459 321.545L242.267 321.864L238.222 316.437L236.954 318.314L237.253 322.245L233.747 322.511ZM259.633 313.251C259.754 314.847 259.55 316.223 259.02 317.379C258.491 318.535 257.724 319.441 256.72 320.097C255.72 320.752 254.571 321.129 253.273 321.228C251.969 321.327 250.774 321.125 249.687 320.624C248.599 320.122 247.707 319.342 247.009 318.284C246.316 317.221 245.909 315.894 245.788 314.303C245.667 312.707 245.868 311.331 246.393 310.176C246.923 309.019 247.687 308.114 248.687 307.459C249.687 306.803 250.838 306.426 252.141 306.327C253.439 306.229 254.632 306.428 255.719 306.925C256.811 307.421 257.706 308.201 258.404 309.263C259.102 310.326 259.512 311.656 259.633 313.251ZM256.049 313.524C255.978 312.579 255.783 311.792 255.464 311.161C255.15 310.529 254.73 310.065 254.204 309.768C253.683 309.47 253.073 309.348 252.374 309.401C251.68 309.454 251.096 309.666 250.621 310.04C250.146 310.413 249.799 310.935 249.579 311.607C249.364 312.279 249.292 313.087 249.364 314.031C249.436 314.975 249.629 315.763 249.943 316.395C250.261 317.026 250.683 317.49 251.209 317.787C251.735 318.084 252.345 318.207 253.039 318.154C253.738 318.101 254.322 317.888 254.793 317.515C255.268 317.142 255.613 316.62 255.828 315.948C256.047 315.276 256.121 314.468 256.049 313.524Z" fill="white"/>
<g opacity="0.3">
<circle cx="214.266" cy="161.242" r="3.71875" transform="rotate(-4.34266 214.266 161.242)" fill="white"/>
<circle cx="199.605" cy="181.003" r="3.71875" transform="rotate(-4.34266 199.605 181.003)" fill="white"/>
<circle cx="215.674" cy="179.782" r="3.71875" transform="rotate(-4.34266 215.674 179.782)" fill="white"/>
<circle cx="231.742" cy="178.562" r="3.71875" transform="rotate(-4.34266 231.742 178.562)" fill="white"/>
<circle cx="184.945" cy="200.763" r="3.71875" transform="rotate(-4.34266 184.945 200.763)" fill="white"/>
<circle cx="201.013" cy="199.543" r="3.71875" transform="rotate(-4.34266 201.013 199.543)" fill="white"/>
<circle cx="217.081" cy="198.322" r="3.71875" transform="rotate(-4.34266 217.081 198.322)" fill="white"/>
<circle cx="233.15" cy="197.102" r="3.71875" transform="rotate(-4.34266 233.15 197.102)" fill="white"/>
<circle cx="249.218" cy="195.882" r="3.71875" transform="rotate(-4.34266 249.218 195.882)" fill="white"/>
<circle cx="177.701" cy="219.961" r="3.71875" transform="rotate(-4.34266 177.701 219.961)" fill="white"/>
<circle cx="193.769" cy="218.74" r="3.71875" transform="rotate(-4.34266 193.769 218.74)" fill="white"/>
<circle cx="209.837" cy="217.52" r="3.71875" transform="rotate(-4.34266 209.837 217.52)" fill="white"/>
<circle cx="225.906" cy="216.3" r="3.71875" transform="rotate(-4.34266 225.906 216.3)" fill="white"/>
<circle cx="241.974" cy="215.08" r="3.71875" transform="rotate(-4.34266 241.974 215.08)" fill="white"/>
<circle cx="258.042" cy="213.86" r="3.71875" transform="rotate(-4.34266 258.042 213.86)" fill="white"/>
<circle cx="171.692" cy="239.064" r="3.71875" transform="rotate(-4.34266 171.692 239.064)" fill="white"/>
<circle cx="187.761" cy="237.844" r="3.71875" transform="rotate(-4.34266 187.761 237.844)" fill="white"/>
<circle cx="203.829" cy="236.624" r="3.71875" transform="rotate(-4.34266 203.829 236.624)" fill="white"/>
<circle cx="219.897" cy="235.404" r="3.71875" transform="rotate(-4.34266 219.897 235.404)" fill="white"/>
<circle cx="235.966" cy="234.183" r="3.71875" transform="rotate(-4.34266 235.966 234.183)" fill="white"/>
<circle cx="252.034" cy="232.963" r="3.71875" transform="rotate(-4.34266 252.034 232.963)" fill="white"/>
<circle cx="268.102" cy="231.743" r="3.71875" transform="rotate(-4.34266 268.102 231.743)" fill="white"/>
<circle cx="164.448" cy="258.261" r="3.71875" transform="rotate(-4.34266 164.448 258.261)" fill="white"/>
<circle cx="180.517" cy="257.041" r="3.71875" transform="rotate(-4.34266 180.517 257.041)" fill="white"/>
<circle cx="196.585" cy="255.821" r="3.71875" transform="rotate(-4.34266 196.585 255.821)" fill="white"/>
<circle cx="212.653" cy="254.601" r="3.71875" transform="rotate(-4.34266 212.653 254.601)" fill="white"/>
<circle cx="228.721" cy="253.381" r="3.71875" transform="rotate(-4.34266 228.721 253.381)" fill="white"/>
<circle cx="244.79" cy="252.16" r="3.71875" transform="rotate(-4.34266 244.79 252.16)" fill="white"/>
<circle cx="260.858" cy="250.94" r="3.71875" transform="rotate(-4.34266 260.858 250.94)" fill="white"/>
<circle cx="276.926" cy="249.72" r="3.71875" transform="rotate(-4.34266 276.926 249.72)" fill="white"/>
<circle cx="158.44" cy="277.365" r="3.71875" transform="rotate(-4.34266 158.44 277.365)" fill="white"/>
<circle cx="174.508" cy="276.145" r="3.71875" transform="rotate(-4.34266 174.508 276.145)" fill="white"/>
<circle cx="190.577" cy="274.925" r="3.71875" transform="rotate(-4.34266 190.577 274.925)" fill="white"/>
<circle cx="206.645" cy="273.704" r="3.71875" transform="rotate(-4.34266 206.645 273.704)" fill="white"/>
<circle cx="222.713" cy="272.484" r="3.71875" transform="rotate(-4.34266 222.713 272.484)" fill="white"/>
<circle cx="238.782" cy="271.264" r="3.71875" transform="rotate(-4.34266 238.782 271.264)" fill="white"/>
<circle cx="254.85" cy="270.044" r="3.71875" transform="rotate(-4.34266 254.85 270.044)" fill="white"/>
<circle cx="270.918" cy="268.823" r="3.71875" transform="rotate(-4.34266 270.918 268.823)" fill="white"/>
<circle cx="286.986" cy="267.603" r="3.71875" transform="rotate(-4.34266 286.986 267.603)" fill="white"/>
</g>
<circle cx="226.814" cy="190.156" r="6.5" transform="rotate(-4.34266 226.814 190.156)" fill="white"/>
<circle cx="194.022" cy="233.764" r="6.5" transform="rotate(-4.34266 194.022 233.764)" fill="white"/>
<circle cx="239.094" cy="259.425" r="6.5" transform="rotate(-4.34266 239.094 259.425)" fill="white"/>
<mask id="mask1_3_5574" style="mask-type:alpha" maskUnits="userSpaceOnUse" x="152" y="268" width="147" height="39">
<rect x="152.868" y="279.512" width="144" height="27" transform="rotate(-4.34266 152.868 279.512)" fill="url(#paint4_linear_3_5574)"/>
</mask>
<g mask="url(#mask1_3_5574)">
<path d="M155.014 281.354L177.948 279.613L179.841 304.541C167.174 305.503 156.127 296.015 155.165 283.349L155.014 281.354Z" fill="url(#paint5_linear_3_5574)" fill-opacity="0.3"/>
<rect x="177.948" y="279.613" width="23" height="25" transform="rotate(-4.34266 177.948 279.613)" fill="url(#paint6_linear_3_5574)" fill-opacity="0.3"/>
<rect x="200.881" y="277.871" width="23" height="25" transform="rotate(-4.34266 200.881 277.871)" fill="url(#paint7_linear_3_5574)" fill-opacity="0.3"/>
<rect x="223.815" y="276.13" width="23" height="25" transform="rotate(-4.34266 223.815 276.13)" fill="url(#paint8_linear_3_5574)" fill-opacity="0.3"/>
<rect x="246.749" y="274.388" width="23" height="25" transform="rotate(-4.34266 246.749 274.388)" fill="url(#paint9_linear_3_5574)" fill-opacity="0.3"/>
<path d="M269.683 272.646L292.617 270.905L292.769 272.899C293.731 285.565 284.242 296.613 271.576 297.575L269.683 272.646Z" fill="url(#paint10_linear_3_5574)" fill-opacity="0.3"/>
</g>
<rect x="174.239" y="305.018" width="201.893" height="230.735" rx="27.6882" transform="rotate(14.9451 174.239 305.018)" fill="#0B0B0D"/>
<mask id="mask2_3_5574" style="mask-type:alpha" maskUnits="userSpaceOnUse" x="120" y="311" width="244" height="263">
<rect x="174.239" y="305.018" width="201.893" height="230.735" rx="27.6882" transform="rotate(14.9451 174.239 305.018)" fill="#0B0B0D"/>
</mask>
<g mask="url(#mask2_3_5574)">
<path d="M167.098 331.77C171.042 316.995 186.216 308.215 200.991 312.159L342.551 349.944C357.326 353.888 366.106 369.062 362.162 383.837L316.938 553.263C312.995 568.038 297.821 576.818 283.046 572.874L141.486 535.089C126.711 531.145 117.931 515.971 121.875 501.196L167.098 331.77Z" fill="url(#paint11_linear_3_5574)"/>
<path d="M337.826 533.166C320.49 598.113 253.787 636.709 188.841 619.373C123.895 602.037 85.2988 535.335 102.634 470.389C119.97 405.442 186.673 366.846 251.619 384.182C316.565 401.517 355.161 468.22 337.826 533.166ZM121.394 475.396C106.824 529.981 139.263 586.043 193.849 600.613C248.434 615.183 304.496 582.744 319.066 528.159C333.636 473.573 301.197 417.512 246.611 402.942C192.026 388.372 135.964 420.81 121.394 475.396Z" fill="white" fill-opacity="0.1"/>
<circle cx="220.23" cy="501.777" r="121.713" transform="rotate(14.9451 220.23 501.777)" fill="url(#paint12_linear_3_5574)" fill-opacity="0.3"/>
<g opacity="0.5">
<circle cx="230.231" cy="479.968" r="139.595" transform="rotate(14.9451 230.231 479.968)" fill="url(#paint13_linear_3_5574)" fill-opacity="0.05"/>
<circle cx="230.231" cy="479.968" r="139.018" transform="rotate(14.9451 230.231 479.968)" stroke="url(#paint14_linear_3_5574)" stroke-opacity="0.3" stroke-width="1.15368"/>
</g>
<path d="M174.828 399.388C172.655 394.486 174.857 388.711 179.916 386.935C205.133 378.082 232.664 377.748 258.225 386.147C283.786 394.547 305.754 411.145 320.805 433.23C323.824 437.661 322.172 443.617 317.515 446.274C312.858 448.931 306.965 447.277 303.879 442.892C291.26 424.966 273.154 411.491 252.164 404.594C231.175 397.697 208.605 397.806 187.812 404.754C182.727 406.453 177.002 404.289 174.828 399.388Z" fill="url(#paint15_linear_3_5574)"/>
<path d="M179.553 504.083L183.464 505.127L180.673 515.585C180.35 516.793 179.782 517.769 178.967 518.513C178.153 519.252 177.167 519.729 176.007 519.945C174.848 520.156 173.588 520.079 172.226 519.716C170.848 519.348 169.71 518.784 168.81 518.024C167.912 517.259 167.297 516.354 166.965 515.31C166.635 514.26 166.631 513.131 166.953 511.923L169.745 501.465L173.664 502.511L170.963 512.628C170.814 513.188 170.802 513.719 170.928 514.222C171.059 514.726 171.313 515.161 171.69 515.528C172.067 515.894 172.549 516.156 173.135 516.312C173.72 516.468 174.265 516.481 174.77 516.35C175.279 516.22 175.716 515.969 176.081 515.597C176.446 515.226 176.704 514.76 176.853 514.2L179.553 504.083ZM181.147 521.877L185.474 505.664L192.172 507.451C193.386 507.775 194.37 508.292 195.125 509.003C195.886 509.709 196.394 510.549 196.649 511.521C196.905 512.489 196.885 513.529 196.587 514.643C196.289 515.761 195.782 516.675 195.067 517.383C194.359 518.087 193.492 518.549 192.467 518.767C191.442 518.985 190.31 518.929 189.069 518.598L184.937 517.495L185.761 514.407L189.165 515.316C189.756 515.474 190.277 515.502 190.728 515.402C191.184 515.304 191.564 515.097 191.869 514.782C192.175 514.463 192.394 514.055 192.526 513.559C192.66 513.057 192.673 512.597 192.564 512.178C192.457 511.753 192.229 511.387 191.882 511.08C191.534 510.772 191.068 510.54 190.482 510.384L188.55 509.868L185.066 522.923L181.147 521.877ZM208.798 517.563C208.797 517.206 208.743 516.878 208.636 516.578C208.531 516.273 208.376 515.997 208.17 515.75C207.965 515.503 207.711 515.291 207.407 515.114C207.105 514.931 206.759 514.788 206.369 514.684C205.582 514.474 204.851 514.482 204.174 514.709C203.503 514.937 202.914 515.373 202.408 516.018C201.904 516.658 201.514 517.495 201.238 518.53C200.96 519.569 200.874 520.496 200.979 521.31C201.084 522.124 201.37 522.8 201.837 523.337C202.304 523.875 202.944 524.252 203.757 524.469C204.475 524.66 205.113 524.706 205.671 524.606C206.235 524.503 206.705 524.269 207.079 523.905C207.453 523.542 207.718 523.067 207.875 522.481L208.58 522.762L204.637 521.71L205.4 518.852L212.391 520.718L211.818 522.863C211.431 524.315 210.79 525.475 209.896 526.345C209.008 527.216 207.952 527.785 206.727 528.052C205.508 528.32 204.201 528.268 202.808 527.896C201.262 527.483 199.992 526.785 199 525.802C198.007 524.819 197.349 523.62 197.025 522.205C196.703 520.785 196.771 519.22 197.227 517.51C197.582 516.18 198.095 515.053 198.765 514.13C199.437 513.201 200.223 512.472 201.121 511.943C202.025 511.416 202.994 511.092 204.027 510.972C205.065 510.853 206.125 510.938 207.207 511.227C208.146 511.478 208.984 511.845 209.719 512.33C210.46 512.816 211.077 513.388 211.568 514.045C212.065 514.703 212.419 515.422 212.629 516.202C212.839 516.982 212.884 517.788 212.764 518.621L208.798 517.563ZM211.888 530.082L216.215 513.869L222.913 515.657C224.127 515.981 225.116 516.479 225.88 517.153C226.651 517.822 227.169 518.627 227.432 519.568C227.697 520.504 227.681 521.526 227.385 522.634C227.085 523.758 226.585 524.648 225.884 525.304C225.185 525.954 224.329 526.364 223.317 526.535C222.306 526.7 221.183 526.618 219.948 526.289L215.712 525.158L216.536 522.071L220.043 523.007C220.635 523.165 221.148 523.22 221.585 523.172C222.028 523.121 222.395 522.965 222.686 522.703C222.977 522.436 223.19 522.052 223.324 521.55C223.458 521.049 223.466 520.607 223.347 520.225C223.23 519.838 222.993 519.508 222.635 519.238C222.279 518.962 221.808 518.746 221.223 518.589L219.291 518.074L215.806 531.128L211.888 530.082ZM222.993 525.109L225.053 533.596L220.778 532.455L218.798 523.989L222.993 525.109ZM229.709 534.839L225.498 533.715L235.296 518.962L240.513 520.355L241.655 538.028L237.444 536.904L236.873 523.759L236.746 523.725L229.709 534.839ZM230.85 528.308L239.654 530.658L238.859 533.635L230.056 531.285L230.85 528.308ZM248.948 539.974L242.955 538.375L247.283 522.162L253.268 523.759C254.92 524.2 256.255 524.904 257.275 525.872C258.301 526.835 258.977 528.011 259.302 529.398C259.628 530.78 259.567 532.313 259.117 533.996C258.667 535.685 257.955 537.05 256.982 538.09C256.014 539.132 254.844 539.818 253.473 540.147C252.103 540.472 250.595 540.414 248.948 539.974ZM247.765 536.08L249.689 536.593C250.597 536.836 251.406 536.888 252.115 536.749C252.832 536.607 253.444 536.23 253.952 535.62C254.467 535.005 254.88 534.114 255.191 532.948C255.502 531.782 255.587 530.809 255.444 530.03C255.303 529.246 254.953 528.616 254.397 528.14C253.846 527.659 253.107 527.295 252.178 527.047L250.31 526.548L247.765 536.08ZM258.794 542.602L263.121 526.389L274.426 529.407L273.577 532.589L266.19 530.618L265.303 533.943L272.111 535.76L271.26 538.95L264.451 537.133L263.562 540.466L270.948 542.437L270.098 545.62L258.794 542.602Z" fill="white"/>
</g>
<path fill-rule="evenodd" clip-rule="evenodd" d="M256.332 357.308C256.729 357.078 257.201 357.016 257.644 357.134C258.087 357.252 258.465 357.542 258.695 357.938L263.141 365.621L270.823 361.176C271.02 361.052 271.239 360.97 271.469 360.933C271.698 360.896 271.933 360.906 272.159 360.962C272.384 361.018 272.596 361.119 272.782 361.259C272.968 361.398 273.123 361.574 273.24 361.775C273.356 361.976 273.431 362.199 273.459 362.429C273.488 362.66 273.47 362.894 273.406 363.118C273.342 363.341 273.234 363.549 273.087 363.73C272.941 363.911 272.76 364.06 272.555 364.169L263.376 369.481C262.979 369.71 262.507 369.772 262.064 369.654C261.621 369.536 261.243 369.247 261.013 368.85L255.702 359.671C255.472 359.274 255.41 358.802 255.528 358.359C255.646 357.916 255.936 357.538 256.332 357.308Z" fill="white"/>
<rect x="11" y="320.601" width="151" height="172.571" rx="20.7086" transform="rotate(-11.3049 11 320.601)" fill="url(#paint16_linear_3_5574)"/>
<mask id="mask3_3_5574" style="mask-type:alpha" maskUnits="userSpaceOnUse" x="14" y="294" width="176" height="193">
<rect x="11" y="320.601" width="151" height="172.571" rx="20.7086" transform="rotate(-11.3049 11 320.601)" fill="#0B0B0D"/>
</mask>
<g mask="url(#mask3_3_5574)">
<rect x="11" y="320.601" width="151" height="172.571" rx="20.7086" transform="rotate(-11.3049 11 320.601)" fill="url(#paint17_linear_3_5574)"/>
<g style="mix-blend-mode:overlay" opacity="0.3">
<path d="M96.7465 349.71C69.7072 375.139 35.5089 378.147 21.7896 376.473L20.6149 412.534L27.0366 506.461L64.1392 504.442L198.873 458.858C187.394 391.136 162.947 259.719 156.989 275.829C149.543 295.967 130.546 317.923 96.7465 349.71Z" fill="url(#paint18_linear_3_5574)"/>
<path d="M96.7465 349.71C69.7072 375.139 35.5089 378.147 21.7896 376.473L20.6149 412.534L27.0366 506.461L64.1392 504.442L198.873 458.858C187.394 391.136 162.947 259.719 156.989 275.829C149.543 295.967 130.546 317.923 96.7465 349.71Z" stroke="url(#paint19_linear_3_5574)" stroke-width="1.72571" stroke-linecap="round"/>
</g>
<path d="M26.8765 417.626C62.6194 411.651 137.473 389.197 150.943 347.18" stroke="url(#paint20_linear_3_5574)" stroke-width="3.45143" stroke-linecap="round"/>
<path d="M150.943 347.181C137.473 389.198 62.6195 411.652 26.8766 417.627L35.0138 495.746L175.046 467.752L150.943 347.181Z" fill="url(#paint21_linear_3_5574)" fill-opacity="0.5"/>
<path d="M96.3904 454.374L93.3857 454.974C93.284 454.674 93.1462 454.412 92.9724 454.188C92.7985 453.965 92.5918 453.785 92.3522 453.65C92.1127 453.514 91.8435 453.429 91.5446 453.392C91.249 453.352 90.9329 453.365 90.5964 453.432C89.9994 453.551 89.5139 453.801 89.1397 454.179C88.7695 454.558 88.5234 455.046 88.4016 455.646C88.2838 456.244 88.3033 456.936 88.4603 457.721C88.6237 458.539 88.8768 459.2 89.2197 459.707C89.5658 460.208 89.9792 460.557 90.4599 460.752C90.9438 460.943 91.4783 460.98 92.0632 460.863C92.3917 460.798 92.6817 460.696 92.9333 460.558C93.1889 460.419 93.4029 460.25 93.5752 460.048C93.7507 459.843 93.8813 459.61 93.967 459.351C94.056 459.088 94.0969 458.803 94.0897 458.496L97.098 457.913C97.1548 458.468 97.1039 459.037 96.9452 459.619C96.7905 460.199 96.5284 460.754 96.159 461.282C95.7888 461.806 95.3008 462.262 94.6951 462.649C94.0933 463.036 93.3698 463.314 92.5244 463.483C91.4107 463.706 90.3643 463.661 89.3852 463.348C88.4094 463.031 87.5729 462.452 86.8759 461.613C86.1789 460.773 85.6955 459.678 85.4256 458.328C85.1549 456.974 85.1838 455.774 85.5124 454.73C85.841 453.685 86.3972 452.83 87.1808 452.165C87.9645 451.5 88.9032 451.058 89.9969 450.84C90.742 450.691 91.4519 450.657 92.1266 450.739C92.8004 450.817 93.4173 451.006 93.9774 451.306C94.5366 451.603 95.0237 452.007 95.4387 452.52C95.8537 453.033 96.1709 453.651 96.3904 454.374ZM99.323 461.949L96.8627 449.642L101.947 448.626C102.868 448.442 103.697 448.449 104.432 448.648C105.171 448.842 105.784 449.211 106.272 449.755C106.759 450.295 107.087 450.985 107.255 451.827C107.425 452.68 107.384 453.442 107.131 454.114C106.877 454.781 106.439 455.34 105.816 455.789C105.193 456.235 104.412 456.551 103.475 456.738L100.26 457.381L99.7911 455.037L102.453 454.505C102.902 454.416 103.265 454.283 103.542 454.106C103.823 453.925 104.017 453.699 104.125 453.427C104.233 453.152 104.248 452.824 104.172 452.443C104.096 452.062 103.955 451.764 103.749 451.546C103.542 451.325 103.274 451.183 102.945 451.12C102.615 451.052 102.228 451.063 101.783 451.152L100.317 451.445L102.298 461.355L99.323 461.949ZM105.127 454.939L109.317 459.951L106.072 460.6L101.942 455.576L105.127 454.939ZM112.851 459.245L109.654 459.884L111.346 446.747L115.306 445.955L121.919 457.432L118.722 458.071L113.991 449.443L113.895 449.462L112.851 459.245ZM111.456 454.487L118.139 453.151L118.59 455.41L111.908 456.746L111.456 454.487ZM127.455 447.364C127.327 446.931 127.081 446.624 126.715 446.443C126.353 446.257 125.882 446.222 125.301 446.338C124.916 446.415 124.606 446.529 124.369 446.681C124.133 446.832 123.968 447.009 123.875 447.211C123.781 447.408 123.755 447.62 123.796 447.845C123.825 448.031 123.893 448.186 124.001 448.31C124.113 448.434 124.258 448.534 124.436 448.611C124.617 448.683 124.828 448.737 125.068 448.772C125.309 448.807 125.575 448.827 125.868 448.831L126.973 448.86C127.609 448.87 128.181 448.939 128.69 449.067C129.202 449.193 129.647 449.377 130.025 449.618C130.406 449.859 130.719 450.161 130.962 450.525C131.206 450.888 131.379 451.316 131.481 451.808C131.633 452.586 131.57 453.293 131.292 453.927C131.015 454.562 130.541 455.1 129.872 455.542C129.206 455.984 128.36 456.307 127.334 456.512C126.305 456.718 125.377 456.743 124.55 456.587C123.723 456.432 123.034 456.082 122.484 455.538C121.933 454.994 121.556 454.242 121.352 453.283L124.2 452.714C124.304 453.106 124.476 453.415 124.717 453.642C124.958 453.869 125.257 454.017 125.612 454.088C125.972 454.157 126.37 454.149 126.807 454.061C127.208 453.981 127.537 453.859 127.796 453.695C128.059 453.53 128.247 453.336 128.361 453.113C128.475 452.891 128.509 452.655 128.463 452.405C128.413 452.174 128.301 451.99 128.128 451.854C127.954 451.713 127.709 451.612 127.393 451.551C127.079 451.484 126.688 451.444 126.218 451.429L124.872 451.386C123.758 451.355 122.84 451.128 122.118 450.705C121.395 450.279 120.942 449.599 120.76 448.665C120.604 447.904 120.675 447.196 120.973 446.541C121.271 445.886 121.752 445.325 122.417 444.858C123.083 444.392 123.882 444.066 124.815 443.879C125.769 443.689 126.628 443.685 127.394 443.87C128.164 444.049 128.801 444.391 129.305 444.894C129.81 445.397 130.143 446.031 130.304 446.794L127.455 447.364ZM133.359 455.145L130.898 442.838L133.873 442.243L134.86 447.183L139.71 446.214L138.723 441.274L141.691 440.68L144.151 452.988L141.183 453.581L140.194 448.635L135.345 449.605L136.333 454.551L133.359 455.145Z" fill="white"/>
<circle opacity="0.2" cx="148.912" cy="350.226" r="11.2171" transform="rotate(-11.3049 148.912 350.226)" stroke="white" stroke-width="1.72571"/>
</g>
<circle cx="148.912" cy="350.226" r="8.62857" transform="rotate(-11.3049 148.912 350.226)" fill="white"/>
<path d="M16.7245 678V660.545H23.9347C25.2415 660.545 26.3693 660.801 27.3182 661.312C28.2728 661.818 29.0085 662.526 29.5256 663.435C30.0426 664.338 30.3012 665.389 30.3012 666.588C30.3012 667.793 30.037 668.847 29.5085 669.75C28.9858 670.648 28.2387 671.344 27.2671 671.838C26.2955 672.332 25.1421 672.58 23.8068 672.58H19.358V669.256H23.0228C23.6591 669.256 24.1904 669.145 24.6165 668.923C25.0483 668.702 25.375 668.392 25.5966 667.994C25.8182 667.591 25.929 667.122 25.929 666.588C25.929 666.048 25.8182 665.582 25.5966 665.19C25.375 664.793 25.0483 664.486 24.6165 664.27C24.1847 664.054 23.6534 663.946 23.0228 663.946H20.9432V678H16.7245ZM37.7537 678.247C36.3787 678.247 35.1969 677.966 34.2082 677.403C33.2253 676.835 32.4668 676.045 31.9327 675.034C31.4043 674.017 31.1401 672.838 31.1401 671.497C31.1401 670.151 31.4043 668.972 31.9327 667.96C32.4668 666.943 33.2253 666.153 34.2082 665.591C35.1969 665.023 36.3787 664.739 37.7537 664.739C39.1287 664.739 40.3077 665.023 41.2906 665.591C42.2793 666.153 43.0378 666.943 43.5662 667.96C44.1003 668.972 44.3673 670.151 44.3673 671.497C44.3673 672.838 44.1003 674.017 43.5662 675.034C43.0378 676.045 42.2793 676.835 41.2906 677.403C40.3077 677.966 39.1287 678.247 37.7537 678.247ZM37.7793 675.102C38.2793 675.102 38.7026 674.949 39.0491 674.642C39.3957 674.335 39.6599 673.909 39.8418 673.364C40.0293 672.818 40.123 672.187 40.123 671.472C40.123 670.744 40.0293 670.108 39.8418 669.562C39.6599 669.017 39.3957 668.591 39.0491 668.284C38.7026 667.977 38.2793 667.824 37.7793 667.824C37.2622 667.824 36.8247 667.977 36.4668 668.284C36.1145 668.591 35.8446 669.017 35.6571 669.562C35.4753 670.108 35.3844 670.744 35.3844 671.472C35.3844 672.187 35.4753 672.818 35.6571 673.364C35.8446 673.909 36.1145 674.335 36.4668 674.642C36.8247 674.949 37.2622 675.102 37.7793 675.102ZM46.0223 682.909V664.909H50.1473V667.151H50.2751C50.4456 666.753 50.687 666.369 50.9995 666C51.3177 665.631 51.7211 665.33 52.2098 665.097C52.7041 664.858 53.295 664.739 53.9825 664.739C54.8916 664.739 55.741 664.977 56.5308 665.455C57.3262 665.932 57.9683 666.668 58.4569 667.662C58.9456 668.656 59.1899 669.923 59.1899 671.463C59.1899 672.946 58.9541 674.188 58.4825 675.188C58.0166 676.188 57.3859 676.938 56.5905 677.438C55.8007 677.938 54.9228 678.188 53.9569 678.188C53.2978 678.188 52.7268 678.08 52.2439 677.864C51.7609 677.648 51.3547 677.364 51.0251 677.011C50.7012 676.659 50.4512 676.281 50.2751 675.878H50.1899V682.909H46.0223ZM50.1047 671.455C50.1047 672.159 50.1984 672.773 50.3859 673.295C50.5791 673.818 50.8547 674.224 51.2126 674.514C51.5762 674.798 52.0109 674.94 52.5166 674.94C53.028 674.94 53.4626 674.798 53.8206 674.514C54.1785 674.224 54.4484 673.818 54.6302 673.295C54.8177 672.773 54.9115 672.159 54.9115 671.455C54.9115 670.75 54.8177 670.139 54.6302 669.622C54.4484 669.105 54.1785 668.705 53.8206 668.42C53.4683 668.136 53.0336 667.994 52.5166 667.994C52.0052 667.994 51.5706 668.134 51.2126 668.412C50.8547 668.69 50.5791 669.088 50.3859 669.605C50.1984 670.122 50.1047 670.739 50.1047 671.455ZM69.3399 672.349V664.909H73.4989V678H69.5274V675.562H69.391C69.1012 676.364 68.6069 677 67.908 677.472C67.2149 677.937 66.3768 678.17 65.3938 678.17C64.5018 678.17 63.7177 677.966 63.0416 677.557C62.3654 677.148 61.8399 676.577 61.4649 675.844C61.0899 675.105 60.8995 674.241 60.8938 673.253V664.909H65.0614V672.435C65.0671 673.145 65.2546 673.705 65.6239 674.114C65.9933 674.523 66.4961 674.727 67.1325 674.727C67.5472 674.727 67.9194 674.636 68.2489 674.455C68.5842 674.267 68.8484 673.997 69.0416 673.645C69.2404 673.287 69.3399 672.855 69.3399 672.349ZM79.8393 660.545V678H75.6716V660.545H79.8393ZM85.7023 678.222C84.8671 678.222 84.1256 678.082 83.4779 677.804C82.8358 677.52 82.3273 677.094 81.9523 676.526C81.583 675.952 81.3983 675.233 81.3983 674.369C81.3983 673.642 81.5262 673.028 81.7818 672.528C82.0375 672.028 82.3898 671.622 82.8387 671.31C83.2875 670.997 83.8046 670.761 84.3898 670.602C84.975 670.437 85.6 670.327 86.2648 670.27C87.0091 670.202 87.6085 670.131 88.0631 670.057C88.5176 669.977 88.8472 669.866 89.0517 669.724C89.262 669.577 89.3671 669.369 89.3671 669.102V669.06C89.3671 668.622 89.2165 668.284 88.9154 668.045C88.6142 667.807 88.208 667.688 87.6966 667.688C87.1455 667.688 86.7023 667.807 86.3671 668.045C86.0318 668.284 85.8188 668.614 85.7279 669.034L81.8841 668.898C81.9978 668.102 82.2904 667.392 82.762 666.767C83.2392 666.136 83.8926 665.642 84.7222 665.284C85.5574 664.92 86.5603 664.739 87.7307 664.739C88.5659 664.739 89.3358 664.838 90.0404 665.037C90.7449 665.23 91.3585 665.514 91.8813 665.889C92.404 666.259 92.8074 666.713 93.0915 667.253C93.3813 667.793 93.5262 668.409 93.5262 669.102V678H89.6057V676.176H89.5034C89.2705 676.619 88.9722 676.994 88.6085 677.301C88.2506 677.608 87.8273 677.838 87.3387 677.991C86.8557 678.145 86.3103 678.222 85.7023 678.222ZM86.9892 675.494C87.4381 675.494 87.8415 675.403 88.1995 675.222C88.5631 675.04 88.8529 674.79 89.0688 674.472C89.2847 674.148 89.3926 673.773 89.3926 673.347V672.102C89.2733 672.165 89.1284 672.222 88.958 672.273C88.7932 672.324 88.6114 672.372 88.4125 672.418C88.2137 672.463 88.0091 672.503 87.7989 672.537C87.5887 672.571 87.387 672.602 87.1938 672.631C86.8017 672.693 86.4665 672.79 86.1881 672.92C85.9154 673.051 85.7051 673.222 85.5574 673.432C85.4154 673.636 85.3443 673.881 85.3443 674.165C85.3443 674.597 85.4978 674.926 85.8046 675.153C86.1171 675.381 86.512 675.494 86.9892 675.494ZM95.5945 678V664.909H99.6428V667.295H99.7791C100.018 666.432 100.407 665.79 100.947 665.369C101.487 664.943 102.114 664.73 102.83 664.73C103.023 664.73 103.222 664.744 103.427 664.773C103.631 664.795 103.822 664.832 103.998 664.884V668.506C103.799 668.437 103.538 668.384 103.214 668.344C102.896 668.304 102.612 668.284 102.362 668.284C101.867 668.284 101.421 668.395 101.023 668.616C100.631 668.832 100.322 669.136 100.094 669.528C99.8729 669.915 99.7621 670.369 99.7621 670.892V678H95.5945ZM115.995 683.182C114.75 683.182 113.685 683.009 112.799 682.662C111.912 682.315 111.216 681.841 110.71 681.239C110.205 680.636 109.901 679.955 109.799 679.193L113.745 678.972C113.818 679.239 113.955 679.472 114.154 679.67C114.358 679.869 114.622 680.023 114.946 680.131C115.276 680.239 115.662 680.293 116.105 680.293C116.804 680.293 117.381 680.122 117.835 679.781C118.296 679.446 118.526 678.858 118.526 678.017V675.716H118.381C118.216 676.119 117.966 676.48 117.631 676.798C117.296 677.116 116.878 677.366 116.378 677.548C115.884 677.73 115.316 677.821 114.674 677.821C113.719 677.821 112.844 677.599 112.049 677.156C111.259 676.707 110.625 676.014 110.148 675.077C109.676 674.134 109.441 672.92 109.441 671.438C109.441 669.909 109.685 668.651 110.174 667.662C110.662 666.668 111.301 665.932 112.091 665.455C112.887 664.977 113.742 664.739 114.656 664.739C115.344 664.739 115.932 664.858 116.421 665.097C116.915 665.33 117.321 665.631 117.639 666C117.958 666.369 118.199 666.753 118.364 667.151H118.483V664.909H122.634V678.051C122.634 679.159 122.355 680.094 121.799 680.855C121.242 681.616 120.463 682.193 119.463 682.585C118.463 682.983 117.307 683.182 115.995 683.182ZM116.122 674.787C116.628 674.787 117.06 674.653 117.418 674.386C117.776 674.119 118.051 673.736 118.245 673.236C118.438 672.736 118.534 672.136 118.534 671.438C118.534 670.727 118.438 670.116 118.245 669.605C118.057 669.088 117.781 668.69 117.418 668.412C117.06 668.134 116.628 667.994 116.122 667.994C115.605 667.994 115.168 668.136 114.81 668.42C114.452 668.705 114.179 669.105 113.992 669.622C113.81 670.134 113.719 670.739 113.719 671.438C113.719 672.136 113.813 672.736 114 673.236C114.188 673.736 114.458 674.119 114.81 674.386C115.168 674.653 115.605 674.787 116.122 674.787ZM128.501 678.222C127.666 678.222 126.924 678.082 126.277 677.804C125.635 677.52 125.126 677.094 124.751 676.526C124.382 675.952 124.197 675.233 124.197 674.369C124.197 673.642 124.325 673.028 124.581 672.528C124.836 672.028 125.189 671.622 125.637 671.31C126.086 670.997 126.603 670.761 127.189 670.602C127.774 670.437 128.399 670.327 129.064 670.27C129.808 670.202 130.407 670.131 130.862 670.057C131.316 669.977 131.646 669.866 131.85 669.724C132.061 669.577 132.166 669.369 132.166 669.102V669.06C132.166 668.622 132.015 668.284 131.714 668.045C131.413 667.807 131.007 667.688 130.495 667.688C129.944 667.688 129.501 667.807 129.166 668.045C128.831 668.284 128.618 668.614 128.527 669.034L124.683 668.898C124.797 668.102 125.089 667.392 125.561 666.767C126.038 666.136 126.691 665.642 127.521 665.284C128.356 664.92 129.359 664.739 130.529 664.739C131.365 664.739 132.135 664.838 132.839 665.037C133.544 665.23 134.157 665.514 134.68 665.889C135.203 666.259 135.606 666.713 135.89 667.253C136.18 667.793 136.325 668.409 136.325 669.102V678H132.404V676.176H132.302C132.069 676.619 131.771 676.994 131.407 677.301C131.049 677.608 130.626 677.838 130.137 677.991C129.654 678.145 129.109 678.222 128.501 678.222ZM129.788 675.494C130.237 675.494 130.64 675.403 130.998 675.222C131.362 675.04 131.652 674.79 131.868 674.472C132.083 674.148 132.191 673.773 132.191 673.347V672.102C132.072 672.165 131.927 672.222 131.757 672.273C131.592 672.324 131.41 672.372 131.211 672.418C131.012 672.463 130.808 672.503 130.598 672.537C130.387 672.571 130.186 672.602 129.993 672.631C129.6 672.693 129.265 672.79 128.987 672.92C128.714 673.051 128.504 673.222 128.356 673.432C128.214 673.636 128.143 673.881 128.143 674.165C128.143 674.597 128.297 674.926 128.603 675.153C128.916 675.381 129.311 675.494 129.788 675.494ZM138.393 678V664.909H142.356V667.312H142.501C142.774 666.517 143.234 665.889 143.882 665.429C144.53 664.969 145.302 664.739 146.2 664.739C147.109 664.739 147.888 664.972 148.535 665.438C149.183 665.903 149.595 666.528 149.771 667.312H149.907C150.152 666.534 150.629 665.912 151.339 665.446C152.049 664.974 152.888 664.739 153.853 664.739C155.092 664.739 156.098 665.136 156.87 665.932C157.643 666.722 158.03 667.807 158.03 669.188V678H153.862V670.142C153.862 669.489 153.694 668.991 153.359 668.651C153.024 668.304 152.589 668.131 152.055 668.131C151.481 668.131 151.03 668.318 150.7 668.693C150.376 669.062 150.214 669.56 150.214 670.185V678H146.209V670.099C146.209 669.491 146.044 669.011 145.714 668.659C145.385 668.307 144.95 668.131 144.41 668.131C144.047 668.131 143.726 668.219 143.447 668.395C143.169 668.565 142.95 668.81 142.791 669.128C142.638 669.446 142.561 669.821 142.561 670.253V678H138.393ZM166.251 678.247C164.882 678.247 163.7 677.977 162.706 677.438C161.717 676.892 160.956 676.116 160.422 675.111C159.893 674.099 159.629 672.898 159.629 671.506C159.629 670.153 159.896 668.972 160.43 667.96C160.964 666.943 161.717 666.153 162.689 665.591C163.66 665.023 164.805 664.739 166.123 664.739C167.055 664.739 167.908 664.884 168.68 665.173C169.453 665.463 170.121 665.892 170.683 666.46C171.246 667.028 171.683 667.73 171.996 668.565C172.308 669.395 172.464 670.347 172.464 671.42V672.46H161.087V670.04H168.587C168.581 669.597 168.476 669.202 168.271 668.855C168.067 668.509 167.785 668.239 167.427 668.045C167.075 667.847 166.669 667.747 166.209 667.747C165.743 667.747 165.325 667.852 164.956 668.062C164.587 668.267 164.294 668.548 164.078 668.906C163.862 669.259 163.748 669.659 163.737 670.108V672.571C163.737 673.105 163.842 673.574 164.052 673.977C164.263 674.375 164.561 674.685 164.947 674.906C165.334 675.128 165.794 675.239 166.328 675.239C166.697 675.239 167.033 675.187 167.334 675.085C167.635 674.983 167.893 674.832 168.109 674.634C168.325 674.435 168.487 674.19 168.595 673.901L172.422 674.011C172.263 674.869 171.913 675.616 171.373 676.253C170.839 676.884 170.138 677.375 169.268 677.727C168.399 678.074 167.393 678.247 166.251 678.247ZM185.542 668.906L181.715 669.009C181.675 668.736 181.567 668.494 181.391 668.284C181.215 668.068 180.985 667.901 180.701 667.781C180.423 667.656 180.099 667.594 179.729 667.594C179.246 667.594 178.834 667.69 178.494 667.884C178.158 668.077 177.994 668.338 177.999 668.668C177.994 668.923 178.096 669.145 178.306 669.332C178.522 669.52 178.906 669.67 179.457 669.784L181.979 670.261C183.286 670.511 184.258 670.926 184.894 671.506C185.536 672.085 185.86 672.852 185.866 673.807C185.86 674.705 185.593 675.486 185.065 676.151C184.542 676.815 183.826 677.332 182.917 677.702C182.008 678.065 180.968 678.247 179.798 678.247C177.928 678.247 176.454 677.864 175.374 677.097C174.3 676.324 173.687 675.29 173.533 673.994L177.65 673.892C177.741 674.369 177.977 674.733 178.357 674.983C178.738 675.233 179.224 675.358 179.815 675.358C180.349 675.358 180.783 675.259 181.119 675.06C181.454 674.861 181.624 674.597 181.63 674.267C181.624 673.972 181.494 673.736 181.238 673.56C180.982 673.378 180.582 673.236 180.036 673.134L177.752 672.699C176.44 672.46 175.462 672.02 174.82 671.378C174.178 670.73 173.86 669.906 173.866 668.906C173.86 668.031 174.093 667.284 174.565 666.665C175.036 666.04 175.707 665.562 176.576 665.233C177.445 664.903 178.471 664.739 179.653 664.739C181.425 664.739 182.823 665.111 183.846 665.855C184.869 666.594 185.434 667.611 185.542 668.906Z" fill="white"/>
<path opacity="0.5" d="M18.4097 701H16.7222L19.7947 692.273H21.7464L24.8231 701H23.1356L20.8046 694.062H20.7364L18.4097 701ZM18.4651 697.578H23.0674V698.848H18.4651V697.578ZM27.207 692.273V701H25.6644V692.273H27.207ZM30.0959 692.273V701H28.5533V692.273H30.0959ZM34.1788 703.455V694.455H35.6958V695.537H35.7853C35.8649 695.378 35.9771 695.209 36.122 695.03C36.2669 694.848 36.4629 694.693 36.71 694.565C36.9572 694.435 37.2725 694.369 37.6561 694.369C38.1617 694.369 38.6177 694.499 39.024 694.757C39.433 695.013 39.7569 695.392 39.9955 695.895C40.237 696.395 40.3578 697.009 40.3578 697.736C40.3578 698.455 40.2399 699.065 40.0041 699.568C39.7683 700.071 39.4472 700.455 39.041 700.719C38.6347 700.983 38.1745 701.115 37.6603 701.115C37.2853 701.115 36.9742 701.053 36.7271 700.928C36.4799 700.803 36.2811 700.652 36.1305 700.476C35.9828 700.297 35.8677 700.128 35.7853 699.969H35.7214V703.455H34.1788ZM35.6916 697.727C35.6916 698.151 35.7512 698.521 35.8705 698.839C35.9927 699.158 36.1674 699.406 36.3947 699.585C36.6248 699.761 36.9032 699.849 37.2299 699.849C37.5708 699.849 37.8563 699.759 38.0865 699.577C38.3166 699.392 38.4899 699.141 38.6063 698.822C38.7257 698.501 38.7853 698.136 38.7853 697.727C38.7853 697.321 38.7271 696.96 38.6106 696.645C38.4941 696.33 38.3208 696.082 38.0907 695.903C37.8606 695.724 37.5737 695.635 37.2299 695.635C36.9004 695.635 36.6205 695.722 36.3904 695.895C36.1603 696.068 35.9856 696.311 35.8663 696.624C35.7498 696.936 35.6916 697.304 35.6916 697.727ZM44.2939 701.128C43.6547 701.128 43.1007 700.987 42.632 700.706C42.1632 700.425 41.7996 700.031 41.5411 699.526C41.2854 699.02 41.1575 698.429 41.1575 697.753C41.1575 697.077 41.2854 696.484 41.5411 695.976C41.7996 695.467 42.1632 695.072 42.632 694.791C43.1007 694.51 43.6547 694.369 44.2939 694.369C44.9331 694.369 45.4871 694.51 45.9558 694.791C46.4246 695.072 46.7868 695.467 47.0425 695.976C47.301 696.484 47.4303 697.077 47.4303 697.753C47.4303 698.429 47.301 699.02 47.0425 699.526C46.7868 700.031 46.4246 700.425 45.9558 700.706C45.4871 700.987 44.9331 701.128 44.2939 701.128ZM44.3024 699.892C44.649 699.892 44.9388 699.797 45.1717 699.607C45.4047 699.413 45.578 699.155 45.6916 698.831C45.8081 698.507 45.8663 698.146 45.8663 697.749C45.8663 697.348 45.8081 696.986 45.6916 696.662C45.578 696.335 45.4047 696.075 45.1717 695.882C44.9388 695.689 44.649 695.592 44.3024 695.592C43.9473 695.592 43.6518 695.689 43.4161 695.882C43.1831 696.075 43.0084 696.335 42.8919 696.662C42.7783 696.986 42.7215 697.348 42.7215 697.749C42.7215 698.146 42.7783 698.507 42.8919 698.831C43.0084 699.155 43.1831 699.413 43.4161 699.607C43.6518 699.797 43.9473 699.892 44.3024 699.892ZM48.4996 703.455V694.455H50.0166V695.537H50.1061C50.1856 695.378 50.2979 695.209 50.4427 695.03C50.5876 694.848 50.7837 694.693 51.0308 694.565C51.278 694.435 51.5933 694.369 51.9768 694.369C52.4825 694.369 52.9385 694.499 53.3447 694.757C53.7538 695.013 54.0777 695.392 54.3163 695.895C54.5578 696.395 54.6785 697.009 54.6785 697.736C54.6785 698.455 54.5606 699.065 54.3248 699.568C54.0891 700.071 53.768 700.455 53.3618 700.719C52.9555 700.983 52.4953 701.115 51.9811 701.115C51.6061 701.115 51.295 701.053 51.0479 700.928C50.8007 700.803 50.6018 700.652 50.4513 700.476C50.3035 700.297 50.1885 700.128 50.1061 699.969H50.0422V703.455H48.4996ZM50.0123 697.727C50.0123 698.151 50.072 698.521 50.1913 698.839C50.3135 699.158 50.4882 699.406 50.7155 699.585C50.9456 699.761 51.224 699.849 51.5507 699.849C51.8916 699.849 52.1771 699.759 52.4072 699.577C52.6373 699.392 52.8106 699.141 52.9271 698.822C53.0464 698.501 53.1061 698.136 53.1061 697.727C53.1061 697.321 53.0479 696.96 52.9314 696.645C52.8149 696.33 52.6416 696.082 52.4115 695.903C52.1814 695.724 51.8944 695.635 51.5507 695.635C51.2212 695.635 50.9413 695.722 50.7112 695.895C50.4811 696.068 50.3064 696.311 50.1871 696.624C50.0706 696.936 50.0123 697.304 50.0123 697.727ZM59.9314 698.247V694.455H61.4741V701H59.9783V699.837H59.9101C59.7624 700.203 59.5195 700.503 59.1814 700.736C58.8462 700.969 58.4329 701.085 57.9414 701.085C57.5124 701.085 57.1331 700.99 56.8036 700.8C56.4769 700.607 56.2212 700.327 56.0366 699.96C55.8519 699.591 55.7596 699.145 55.7596 698.622V694.455H57.3022V698.384C57.3022 698.798 57.4158 699.128 57.6431 699.372C57.8704 699.616 58.1687 699.739 58.538 699.739C58.7652 699.739 58.9854 699.683 59.1985 699.572C59.4116 699.462 59.5863 699.297 59.7226 699.078C59.8618 698.857 59.9314 698.58 59.9314 698.247ZM64.363 692.273V701H62.8203V692.273H64.363ZM67.5928 701.132C67.178 701.132 66.8044 701.058 66.472 700.911C66.1425 700.76 65.8811 700.538 65.6879 700.246C65.4976 699.953 65.4024 699.592 65.4024 699.163C65.4024 698.794 65.4706 698.489 65.607 698.247C65.7433 698.006 65.9294 697.812 66.1652 697.668C66.401 697.523 66.6666 697.413 66.9621 697.339C67.2604 697.263 67.5686 697.207 67.8868 697.173C68.2703 697.134 68.5814 697.098 68.82 697.067C69.0587 697.033 69.232 696.982 69.3399 696.913C69.4507 696.842 69.5061 696.733 69.5061 696.585V696.56C69.5061 696.239 69.411 695.99 69.2206 695.814C69.0303 695.638 68.7561 695.55 68.3982 695.55C68.0203 695.55 67.7206 695.632 67.499 695.797C67.2803 695.962 67.1325 696.156 67.0558 696.381L65.6155 696.176C65.7291 695.778 65.9166 695.446 66.178 695.179C66.4394 694.909 66.759 694.707 67.1368 694.574C67.5146 694.438 67.9323 694.369 68.3896 694.369C68.705 694.369 69.0189 694.406 69.3314 694.48C69.6439 694.554 69.9294 694.676 70.1879 694.847C70.4465 695.014 70.6539 695.243 70.8101 695.533C70.9692 695.822 71.0487 696.185 71.0487 696.619V701H69.5658V700.101H69.5146C69.4209 700.283 69.2888 700.453 69.1183 700.612C68.9507 700.768 68.7391 700.895 68.4834 700.991C68.2306 701.085 67.9337 701.132 67.5928 701.132ZM67.9933 699.999C68.303 699.999 68.5715 699.937 68.7987 699.815C69.026 699.69 69.2007 699.526 69.3229 699.321C69.4479 699.116 69.5104 698.893 69.5104 698.652V697.881C69.4621 697.92 69.3797 697.957 69.2632 697.991C69.1496 698.026 69.0218 698.055 68.8797 698.081C68.7377 698.107 68.597 698.129 68.4578 698.149C68.3186 698.169 68.1979 698.186 68.0956 698.2C67.8655 698.232 67.6595 698.283 67.4777 698.354C67.2959 698.425 67.1524 698.524 67.0473 698.652C66.9422 698.777 66.8896 698.939 66.8896 699.138C66.8896 699.422 66.9933 699.636 67.2007 699.781C67.4081 699.926 67.6723 699.999 67.9933 699.999ZM72.3599 701V694.455H73.8556V695.545H73.9238C74.0431 695.168 74.2477 694.876 74.5374 694.672C74.83 694.464 75.1639 694.361 75.5389 694.361C75.6241 694.361 75.7192 694.365 75.8244 694.374C75.9323 694.379 76.0218 694.389 76.0928 694.403V695.822C76.0275 695.8 75.9238 695.78 75.7817 695.763C75.6425 695.743 75.5076 695.733 75.3769 695.733C75.0957 695.733 74.8428 695.794 74.6184 695.916C74.3968 696.036 74.2221 696.202 74.0942 696.415C73.9664 696.628 73.9025 696.874 73.9025 697.152V701H72.3599ZM82.4608 703.591C81.9069 703.591 81.431 703.516 81.0333 703.365C80.6356 703.217 80.316 703.018 80.0745 702.768C79.833 702.518 79.6654 702.241 79.5716 701.938L80.9608 701.601C81.0233 701.729 81.1142 701.855 81.2336 701.98C81.3529 702.108 81.5134 702.213 81.7151 702.295C81.9196 702.381 82.1767 702.423 82.4864 702.423C82.9239 702.423 83.2861 702.317 83.5731 702.104C83.86 701.893 84.0035 701.547 84.0035 701.064V699.824H83.9268C83.8472 699.983 83.7307 700.146 83.5773 700.314C83.4268 700.482 83.2265 700.622 82.9765 700.736C82.7293 700.849 82.4182 700.906 82.0432 700.906C81.5404 700.906 81.0844 700.788 80.6753 700.553C80.2691 700.314 79.9452 699.959 79.7037 699.487C79.4651 699.013 79.3458 698.419 79.3458 697.706C79.3458 696.987 79.4651 696.381 79.7037 695.886C79.9452 695.389 80.2705 695.013 80.6796 694.757C81.0887 694.499 81.5446 694.369 82.0475 694.369C82.431 694.369 82.7464 694.435 82.9935 694.565C83.2435 694.693 83.4424 694.848 83.5901 695.03C83.7378 695.209 83.85 695.378 83.9268 695.537H84.012V694.455H85.5333V701.107C85.5333 701.666 85.3998 702.129 85.1327 702.496C84.8657 702.862 84.5006 703.136 84.0375 703.318C83.5745 703.5 83.0489 703.591 82.4608 703.591ZM82.4736 699.696C82.8003 699.696 83.0787 699.616 83.3089 699.457C83.539 699.298 83.7137 699.07 83.833 698.771C83.9523 698.473 84.012 698.115 84.012 697.697C84.012 697.286 83.9523 696.925 83.833 696.615C83.7165 696.305 83.5432 696.065 83.3131 695.895C83.0858 695.722 82.806 695.635 82.4736 695.635C82.1299 695.635 81.8429 695.724 81.6128 695.903C81.3827 696.082 81.2094 696.328 81.0929 696.641C80.9765 696.95 80.9182 697.303 80.9182 697.697C80.9182 698.098 80.9765 698.449 81.0929 698.75C81.2123 699.048 81.387 699.281 81.6171 699.449C81.85 699.614 82.1356 699.696 82.4736 699.696ZM88.7578 701.132C88.343 701.132 87.9694 701.058 87.637 700.911C87.3075 700.76 87.0461 700.538 86.8529 700.246C86.6626 699.953 86.5674 699.592 86.5674 699.163C86.5674 698.794 86.6356 698.489 86.772 698.247C86.9083 698.006 87.0944 697.812 87.3302 697.668C87.566 697.523 87.8316 697.413 88.1271 697.339C88.4254 697.263 88.7336 697.207 89.0518 697.173C89.4353 697.134 89.7464 697.098 89.985 697.067C90.2237 697.033 90.397 696.982 90.5049 696.913C90.6157 696.842 90.6711 696.733 90.6711 696.585V696.56C90.6711 696.239 90.576 695.99 90.3856 695.814C90.1953 695.638 89.9211 695.55 89.5632 695.55C89.1853 695.55 88.8856 695.632 88.664 695.797C88.4453 695.962 88.2975 696.156 88.2208 696.381L86.7805 696.176C86.8941 695.778 87.0816 695.446 87.343 695.179C87.6044 694.909 87.924 694.707 88.3018 694.574C88.6796 694.438 89.0973 694.369 89.5546 694.369C89.87 694.369 90.1839 694.406 90.4964 694.48C90.8089 694.554 91.0944 694.676 91.3529 694.847C91.6115 695.014 91.8189 695.243 91.9751 695.533C92.1342 695.822 92.2137 696.185 92.2137 696.619V701H90.7308V700.101H90.6796C90.5859 700.283 90.4538 700.453 90.2833 700.612C90.1157 700.768 89.9041 700.895 89.6484 700.991C89.3956 701.085 89.0987 701.132 88.7578 701.132ZM89.1583 699.999C89.468 699.999 89.7365 699.937 89.9637 699.815C90.191 699.69 90.3657 699.526 90.4879 699.321C90.6129 699.116 90.6754 698.893 90.6754 698.652V697.881C90.6271 697.92 90.5447 697.957 90.4282 697.991C90.3146 698.026 90.1867 698.055 90.0447 698.081C89.9027 698.107 89.762 698.129 89.6228 698.149C89.4836 698.169 89.3629 698.186 89.2606 698.2C89.0305 698.232 88.8245 698.283 88.6427 698.354C88.4609 698.425 88.3174 698.524 88.2123 698.652C88.1072 698.777 88.0546 698.939 88.0546 699.138C88.0546 699.422 88.1583 699.636 88.3657 699.781C88.5731 699.926 88.8373 699.999 89.1583 699.999ZM93.5249 701V694.455H94.9993V695.567H95.076C95.2124 695.192 95.4382 694.899 95.7536 694.689C96.0689 694.476 96.4453 694.369 96.8828 694.369C97.326 694.369 97.6996 694.477 98.0036 694.693C98.3104 694.906 98.5263 695.197 98.6513 695.567H98.7195C98.8644 695.203 99.1087 694.913 99.4524 694.697C99.799 694.479 100.21 694.369 100.684 694.369C101.286 694.369 101.778 694.56 102.158 694.94C102.539 695.321 102.729 695.876 102.729 696.607V701H101.183V696.845C101.183 696.439 101.075 696.142 100.859 695.955C100.643 695.764 100.379 695.669 100.066 695.669C99.6939 695.669 99.4027 695.786 99.1925 696.018C98.9851 696.249 98.8814 696.548 98.8814 696.918V701H97.3686V696.781C97.3686 696.443 97.2664 696.173 97.0618 695.972C96.8601 695.77 96.5959 695.669 96.2692 695.669C96.0476 695.669 95.8459 695.726 95.6641 695.839C95.4823 695.95 95.3374 696.108 95.2294 696.312C95.1215 696.514 95.0675 696.75 95.0675 697.02V701H93.5249ZM106.952 701.128C106.296 701.128 105.729 700.991 105.252 700.719C104.777 700.443 104.412 700.054 104.157 699.551C103.901 699.045 103.773 698.45 103.773 697.766C103.773 697.092 103.901 696.501 104.157 695.993C104.415 695.482 104.776 695.084 105.239 694.8C105.702 694.513 106.246 694.369 106.871 694.369C107.275 694.369 107.655 694.435 108.013 694.565C108.374 694.693 108.692 694.892 108.968 695.162C109.246 695.432 109.465 695.776 109.624 696.193C109.783 696.608 109.863 697.102 109.863 697.676V698.149H104.498V697.109H108.384C108.381 696.814 108.317 696.551 108.192 696.321C108.067 696.088 107.892 695.905 107.668 695.771C107.446 695.638 107.188 695.571 106.892 695.571C106.577 695.571 106.3 695.648 106.062 695.801C105.823 695.952 105.637 696.151 105.503 696.398C105.373 696.642 105.306 696.911 105.303 697.203V698.111C105.303 698.491 105.373 698.818 105.512 699.091C105.651 699.361 105.846 699.568 106.096 699.713C106.346 699.855 106.638 699.926 106.973 699.926C107.198 699.926 107.401 699.895 107.583 699.832C107.765 699.767 107.922 699.672 108.056 699.547C108.189 699.422 108.29 699.267 108.358 699.082L109.799 699.244C109.708 699.625 109.535 699.957 109.279 700.241C109.026 700.523 108.702 700.741 108.307 700.898C107.912 701.051 107.461 701.128 106.952 701.128ZM116.101 696.185L114.695 696.338C114.655 696.196 114.585 696.062 114.486 695.938C114.389 695.812 114.259 695.712 114.094 695.635C113.929 695.558 113.727 695.52 113.489 695.52C113.168 695.52 112.898 695.589 112.679 695.729C112.463 695.868 112.357 696.048 112.36 696.27C112.357 696.46 112.426 696.615 112.568 696.734C112.713 696.854 112.952 696.952 113.284 697.028L114.401 697.267C115.02 697.401 115.48 697.612 115.781 697.902C116.085 698.192 116.239 698.571 116.242 699.04C116.239 699.452 116.118 699.815 115.879 700.131C115.644 700.443 115.315 700.687 114.895 700.864C114.475 701.04 113.992 701.128 113.446 701.128C112.645 701.128 112 700.96 111.511 700.625C111.023 700.287 110.732 699.817 110.638 699.214L112.142 699.07C112.21 699.365 112.355 699.588 112.577 699.739C112.798 699.889 113.087 699.964 113.442 699.964C113.808 699.964 114.102 699.889 114.324 699.739C114.548 699.588 114.661 699.402 114.661 699.18C114.661 698.993 114.588 698.838 114.443 698.716C114.301 698.594 114.08 698.5 113.779 698.435L112.662 698.2C112.034 698.07 111.57 697.849 111.269 697.54C110.967 697.227 110.818 696.832 110.821 696.355C110.818 695.952 110.928 695.602 111.149 695.307C111.374 695.009 111.685 694.778 112.083 694.616C112.483 694.452 112.945 694.369 113.467 694.369C114.235 694.369 114.838 694.533 115.279 694.859C115.722 695.186 115.996 695.628 116.101 696.185ZM121.553 697.165V701H120.01V692.273H121.519V695.567H121.595C121.749 695.197 121.986 694.906 122.307 694.693C122.631 694.477 123.043 694.369 123.543 694.369C123.997 694.369 124.394 694.464 124.732 694.655C125.07 694.845 125.331 695.124 125.516 695.49C125.703 695.857 125.797 696.304 125.797 696.832V701H124.255V697.071C124.255 696.631 124.141 696.288 123.914 696.044C123.689 695.797 123.374 695.673 122.968 695.673C122.695 695.673 122.451 695.733 122.235 695.852C122.022 695.969 121.854 696.138 121.732 696.359C121.612 696.581 121.553 696.849 121.553 697.165ZM130.027 701.128C129.371 701.128 128.804 700.991 128.327 700.719C127.853 700.443 127.488 700.054 127.232 699.551C126.976 699.045 126.848 698.45 126.848 697.766C126.848 697.092 126.976 696.501 127.232 695.993C127.49 695.482 127.851 695.084 128.314 694.8C128.777 694.513 129.321 694.369 129.946 694.369C130.35 694.369 130.73 694.435 131.088 694.565C131.449 694.693 131.767 694.892 132.043 695.162C132.321 695.432 132.54 695.776 132.699 696.193C132.858 696.608 132.938 697.102 132.938 697.676V698.149H127.573V697.109H131.459C131.456 696.814 131.392 696.551 131.267 696.321C131.142 696.088 130.968 695.905 130.743 695.771C130.522 695.638 130.263 695.571 129.968 695.571C129.652 695.571 129.375 695.648 129.137 695.801C128.898 695.952 128.712 696.151 128.578 696.398C128.448 696.642 128.381 696.911 128.378 697.203V698.111C128.378 698.491 128.448 698.818 128.587 699.091C128.726 699.361 128.921 699.568 129.171 699.713C129.421 699.855 129.713 699.926 130.049 699.926C130.273 699.926 130.476 699.895 130.658 699.832C130.84 699.767 130.997 699.672 131.131 699.547C131.265 699.422 131.365 699.267 131.434 699.082L132.874 699.244C132.783 699.625 132.61 699.957 132.354 700.241C132.101 700.523 131.777 700.741 131.382 700.898C130.988 701.051 130.536 701.128 130.027 701.128ZM134.003 701V694.455H135.499V695.545H135.567C135.686 695.168 135.891 694.876 136.18 694.672C136.473 694.464 136.807 694.361 137.182 694.361C137.267 694.361 137.362 694.365 137.467 694.374C137.575 694.379 137.665 694.389 137.736 694.403V695.822C137.67 695.8 137.567 695.78 137.425 695.763C137.286 695.743 137.151 695.733 137.02 695.733C136.739 695.733 136.486 695.794 136.261 695.916C136.04 696.036 135.865 696.202 135.737 696.415C135.609 696.628 135.545 696.874 135.545 697.152V701H134.003ZM141.149 701.128C140.493 701.128 139.926 700.991 139.449 700.719C138.974 700.443 138.609 700.054 138.353 699.551C138.098 699.045 137.97 698.45 137.97 697.766C137.97 697.092 138.098 696.501 138.353 695.993C138.612 695.482 138.973 695.084 139.436 694.8C139.899 694.513 140.443 694.369 141.068 694.369C141.471 694.369 141.852 694.435 142.21 694.565C142.571 694.693 142.889 694.892 143.164 695.162C143.443 695.432 143.662 695.776 143.821 696.193C143.98 696.608 144.059 697.102 144.059 697.676V698.149H138.694V697.109H142.581C142.578 696.814 142.514 696.551 142.389 696.321C142.264 696.088 142.089 695.905 141.865 695.771C141.643 695.638 141.385 695.571 141.089 695.571C140.774 695.571 140.497 695.648 140.258 695.801C140.02 695.952 139.834 696.151 139.7 696.398C139.569 696.642 139.503 696.911 139.5 697.203V698.111C139.5 698.491 139.569 698.818 139.709 699.091C139.848 699.361 140.042 699.568 140.292 699.713C140.542 699.855 140.835 699.926 141.17 699.926C141.395 699.926 141.598 699.895 141.78 699.832C141.961 699.767 142.119 699.672 142.253 699.547C142.386 699.422 142.487 699.267 142.555 699.082L143.995 699.244C143.905 699.625 143.731 699.957 143.476 700.241C143.223 700.523 142.899 700.741 142.504 700.898C142.109 701.051 141.657 701.128 141.149 701.128Z" fill="white"/>
<path d="M16 771C16 757.745 26.7452 747 40 747H350C363.255 747 374 757.745 374 771V775C374 788.255 363.255 799 350 799H40C26.7452 799 16 788.255 16 775V771Z" fill="#C4FF00"/>
<path d="M187.935 766.864V778.5H185.81L180.748 771.176H180.663V778.5H178.202V766.864H180.361L185.384 774.182H185.486V766.864H187.935ZM193.58 778.67C192.682 778.67 191.909 778.489 191.262 778.125C190.618 777.758 190.121 777.239 189.773 776.568C189.424 775.894 189.25 775.097 189.25 774.176C189.25 773.278 189.424 772.491 189.773 771.812C190.121 771.134 190.612 770.606 191.245 770.227C191.881 769.848 192.627 769.659 193.483 769.659C194.059 769.659 194.595 769.752 195.091 769.938C195.591 770.119 196.027 770.394 196.398 770.761C196.773 771.129 197.065 771.591 197.273 772.148C197.481 772.701 197.585 773.348 197.585 774.091V774.756H190.216V773.256H195.307C195.307 772.907 195.231 772.598 195.08 772.33C194.928 772.061 194.718 771.85 194.449 771.699C194.184 771.544 193.875 771.466 193.523 771.466C193.156 771.466 192.83 771.551 192.546 771.722C192.265 771.888 192.046 772.114 191.887 772.398C191.727 772.678 191.646 772.991 191.642 773.335V774.761C191.642 775.193 191.722 775.566 191.881 775.881C192.044 776.195 192.273 776.438 192.568 776.608C192.864 776.778 193.214 776.864 193.62 776.864C193.888 776.864 194.135 776.826 194.358 776.75C194.582 776.674 194.773 776.561 194.932 776.409C195.091 776.258 195.212 776.072 195.296 775.852L197.534 776C197.421 776.538 197.188 777.008 196.835 777.409C196.487 777.807 196.036 778.117 195.483 778.341C194.934 778.561 194.299 778.67 193.58 778.67ZM200.711 769.773L202.314 772.824L203.956 769.773H206.439L203.91 774.136L206.507 778.5H204.035L202.314 775.483L200.621 778.5H198.121L200.711 774.136L198.211 769.773H200.711ZM212.198 769.773V771.591H206.943V769.773H212.198ZM208.136 767.682H210.556V775.818C210.556 776.042 210.59 776.216 210.658 776.341C210.727 776.462 210.821 776.547 210.943 776.597C211.068 776.646 211.212 776.67 211.374 776.67C211.488 776.67 211.602 776.661 211.715 776.642C211.829 776.619 211.916 776.602 211.977 776.591L212.357 778.392C212.236 778.43 212.066 778.473 211.846 778.523C211.626 778.576 211.359 778.608 211.045 778.619C210.462 778.642 209.95 778.564 209.511 778.386C209.075 778.208 208.736 777.932 208.494 777.557C208.251 777.182 208.132 776.708 208.136 776.136V767.682Z" fill="#242424"/>
</g>
<defs>
<filter id="filter0_f_3_5574" x="-537" y="49" width="1464" height="1464" filterUnits="userSpaceOnUse" color-interpolation-filters="sRGB">
<feFlood flood-opacity="0" result="BackgroundImageFix"/>
<feBlend mode="normal" in="SourceGraphic" in2="BackgroundImageFix" result="shape"/>
<feGaussianBlur stdDeviation="200" result="effect1_foregroundBlur_3_5574"/>
</filter>
<linearGradient id="paint0_linear_3_5574" x1="153.336" y1="153.615" x2="227.393" y2="343.051" gradientUnits="userSpaceOnUse">
<stop stop-color="#FF5F5F"/>
<stop offset="1" stop-color="#FF6F00"/>
</linearGradient>
<linearGradient id="paint1_linear_3_5574" x1="223.469" y1="247.131" x2="345.469" y2="171.131" gradientUnits="userSpaceOnUse">
<stop stop-color="white"/>
<stop offset="1" stop-color="white" stop-opacity="0"/>
</linearGradient>
<linearGradient id="paint2_linear_3_5574" x1="22" y1="173.5" x2="144" y2="97.5" gradientUnits="userSpaceOnUse">
<stop stop-color="white"/>
<stop offset="1" stop-color="white" stop-opacity="0"/>
</linearGradient>
<linearGradient id="paint3_linear_3_5574" x1="223.038" y1="452.754" x2="345.038" y2="376.754" gradientUnits="userSpaceOnUse">
<stop stop-color="white"/>
<stop offset="1" stop-color="white" stop-opacity="0"/>
</linearGradient>
<linearGradient id="paint4_linear_3_5574" x1="152.868" y1="293.012" x2="296.868" y2="293.012" gradientUnits="userSpaceOnUse">
<stop stop-color="#D9D9D9"/>
<stop offset="1" stop-color="#737373"/>
</linearGradient>
<linearGradient id="paint5_linear_3_5574" x1="166.481" y1="280.484" x2="168.626" y2="321.94" gradientUnits="userSpaceOnUse">
<stop stop-color="white" stop-opacity="0"/>
<stop offset="1" stop-color="white"/>
</linearGradient>
<linearGradient id="paint6_linear_3_5574" x1="189.448" y1="279.613" x2="188.448" y2="321.113" gradientUnits="userSpaceOnUse">
<stop stop-color="white" stop-opacity="0"/>
<stop offset="1" stop-color="white"/>
</linearGradient>
<linearGradient id="paint7_linear_3_5574" x1="212.381" y1="277.871" x2="211.381" y2="319.371" gradientUnits="userSpaceOnUse">
<stop stop-color="white" stop-opacity="0"/>
<stop offset="1" stop-color="white"/>
</linearGradient>
<linearGradient id="paint8_linear_3_5574" x1="235.315" y1="276.13" x2="234.315" y2="317.63" gradientUnits="userSpaceOnUse">
<stop stop-color="white" stop-opacity="0"/>
<stop offset="1" stop-color="white"/>
</linearGradient>
<linearGradient id="paint9_linear_3_5574" x1="258.249" y1="274.388" x2="257.249" y2="315.888" gradientUnits="userSpaceOnUse">
<stop stop-color="white" stop-opacity="0"/>
<stop offset="1" stop-color="white"/>
</linearGradient>
<linearGradient id="paint10_linear_3_5574" x1="281.15" y1="271.776" x2="283.296" y2="313.232" gradientUnits="userSpaceOnUse">
<stop stop-color="white" stop-opacity="0"/>
<stop offset="1" stop-color="white"/>
</linearGradient>
<linearGradient id="paint11_linear_3_5574" x1="203.813" y1="319.479" x2="212.266" y2="553.982" gradientUnits="userSpaceOnUse">
<stop stop-color="#5FC2FF"/>
<stop offset="1" stop-color="#006AFF"/>
</linearGradient>
<linearGradient id="paint12_linear_3_5574" x1="220.807" y1="442.94" x2="220.807" y2="562.922" gradientUnits="userSpaceOnUse">
<stop stop-color="white" stop-opacity="0.7"/>
<stop offset="1" stop-color="white" stop-opacity="0"/>
</linearGradient>
<linearGradient id="paint13_linear_3_5574" x1="230.892" y1="412.487" x2="230.892" y2="550.097" gradientUnits="userSpaceOnUse">
<stop stop-color="white" stop-opacity="0.7"/>
<stop offset="1" stop-color="white" stop-opacity="0"/>
</linearGradient>
<linearGradient id="paint14_linear_3_5574" x1="230.231" y1="340.374" x2="230.807" y2="377.868" gradientUnits="userSpaceOnUse">
<stop stop-color="white"/>
<stop offset="1" stop-color="#999999" stop-opacity="0"/>
</linearGradient>
<linearGradient id="paint15_linear_3_5574" x1="254.705" y1="374.856" x2="349.559" y2="569.732" gradientUnits="userSpaceOnUse">
<stop stop-color="white"/>
<stop offset="1" stop-color="#6EF8FF"/>
</linearGradient>
<linearGradient id="paint16_linear_3_5574" x1="86.5" y1="320.601" x2="86.5" y2="493.172" gradientUnits="userSpaceOnUse">
<stop stop-color="#0B0B0D"/>
<stop offset="1" stop-color="#616173"/>
</linearGradient>
<linearGradient id="paint17_linear_3_5574" x1="35.16" y1="325.346" x2="86.5" y2="493.172" gradientUnits="userSpaceOnUse">
<stop stop-color="#A55FFF"/>
<stop offset="1" stop-color="#5100FF"/>
</linearGradient>
<linearGradient id="paint18_linear_3_5574" x1="75.4755" y1="290.993" x2="105.442" y2="414.676" gradientUnits="userSpaceOnUse">
<stop stop-color="white"/>
<stop offset="1" stop-color="white" stop-opacity="0"/>
</linearGradient>
<linearGradient id="paint19_linear_3_5574" x1="75.4755" y1="290.993" x2="116.07" y2="494.061" gradientUnits="userSpaceOnUse">
<stop stop-color="white"/>
<stop offset="0.397405" stop-color="white" stop-opacity="0"/>
</linearGradient>
<linearGradient id="paint20_linear_3_5574" x1="22.5003" y1="395.735" x2="155.341" y2="369.179" gradientUnits="userSpaceOnUse">
<stop stop-color="#BB6EFF"/>
<stop offset="1" stop-color="white"/>
</linearGradient>
<linearGradient id="paint21_linear_3_5574" x1="82.1959" y1="360.924" x2="106.299" y2="481.495" gradientUnits="userSpaceOnUse">
<stop stop-color="white" stop-opacity="0.5"/>
<stop offset="1" stop-color="white" stop-opacity="0"/>
</linearGradient>
<clipPath id="clip0_3_5574">
<rect width="390" height="840" fill="white"/>
</clipPath>
</defs>
</svg>
