<svg width="332" height="52" viewBox="0 0 332 52" fill="none" xmlns="http://www.w3.org/2000/svg">
<path d="M0 24C0 10.7452 10.7452 0 24 0H179C192.255 0 203 10.7452 203 24V28C203 41.2548 192.255 52 179 52H24C10.7452 52 0 41.2548 0 28V24Z" fill="#C4FF00"/>
<path d="M67.9069 31.5L64.5774 19.8636H67.2649L69.191 27.9489H69.2876L71.4126 19.8636H73.7137L75.8331 27.9659H75.9353L77.8615 19.8636H80.549L77.2194 31.5H74.8217L72.6058 23.892H72.5149L70.3047 31.5H67.9069ZM81.5003 31.5V22.7727H83.9207V31.5H81.5003ZM82.7162 21.6477C82.3563 21.6477 82.0476 21.5284 81.7901 21.2898C81.5363 21.0473 81.4094 20.7576 81.4094 20.4205C81.4094 20.0871 81.5363 19.8011 81.7901 19.5625C82.0476 19.3201 82.3563 19.1989 82.7162 19.1989C83.076 19.1989 83.3829 19.3201 83.6366 19.5625C83.8942 19.8011 84.023 20.0871 84.023 20.4205C84.023 20.7576 83.8942 21.0473 83.6366 21.2898C83.3829 21.5284 83.076 21.6477 82.7162 21.6477ZM90.1817 22.7727V24.5909H84.926V22.7727H90.1817ZM86.1192 20.6818H88.5397V28.8182C88.5397 29.0417 88.5737 29.2159 88.6419 29.3409C88.7101 29.4621 88.8048 29.5473 88.926 29.5966C89.051 29.6458 89.195 29.6705 89.3578 29.6705C89.4715 29.6705 89.5851 29.661 89.6987 29.642C89.8124 29.6193 89.8995 29.6023 89.9601 29.5909L90.3408 31.392C90.2196 31.4299 90.0491 31.4735 89.8294 31.5227C89.6097 31.5758 89.3427 31.608 89.0283 31.6193C88.445 31.642 87.9336 31.5644 87.4942 31.3864C87.0586 31.2083 86.7196 30.9318 86.4772 30.5568C86.2347 30.1818 86.1154 29.7083 86.1192 29.1364V20.6818ZM94.0464 26.4545V31.5H91.6259V19.8636H93.9782V24.3125H94.0805C94.2774 23.7973 94.5956 23.3939 95.035 23.1023C95.4744 22.8068 96.0255 22.6591 96.6884 22.6591C97.2945 22.6591 97.8229 22.7917 98.2736 23.0568C98.7282 23.3182 99.0805 23.6951 99.3305 24.1875C99.5842 24.6761 99.7092 25.2614 99.7055 25.9432V31.5H97.285V26.375C97.2888 25.8371 97.1524 25.4186 96.8759 25.1193C96.6032 24.8201 96.2206 24.6705 95.7282 24.6705C95.3986 24.6705 95.107 24.7405 94.8532 24.8807C94.6032 25.0208 94.4062 25.2254 94.2623 25.4943C94.1221 25.7595 94.0502 26.0795 94.0464 26.4545ZM104.506 31.642C103.843 31.642 103.243 31.4716 102.705 31.1307C102.171 30.786 101.747 30.2803 101.432 29.6136C101.122 28.9432 100.966 28.1212 100.966 27.1477C100.966 26.1477 101.127 25.3163 101.449 24.6534C101.771 23.9867 102.199 23.4886 102.733 23.1591C103.271 22.8258 103.86 22.6591 104.501 22.6591C104.989 22.6591 105.396 22.7424 105.722 22.9091C106.052 23.072 106.317 23.2765 106.518 23.5227C106.722 23.7652 106.877 24.0038 106.983 24.2386H107.057V19.8636H109.472V31.5H107.086V30.1023H106.983C106.87 30.3447 106.709 30.5852 106.501 30.8239C106.296 31.0587 106.029 31.2538 105.699 31.4091C105.374 31.5644 104.976 31.642 104.506 31.642ZM105.273 29.7159C105.663 29.7159 105.993 29.6098 106.262 29.3977C106.535 29.1818 106.743 28.8807 106.887 28.4943C107.035 28.108 107.108 27.6553 107.108 27.1364C107.108 26.6174 107.036 26.1667 106.893 25.7841C106.749 25.4015 106.54 25.1061 106.268 24.8977C105.995 24.6894 105.663 24.5852 105.273 24.5852C104.876 24.5852 104.54 24.6932 104.268 24.9091C103.995 25.125 103.788 25.4242 103.648 25.8068C103.508 26.1894 103.438 26.6326 103.438 27.1364C103.438 27.6439 103.508 28.0928 103.648 28.483C103.792 28.8693 103.999 29.1723 104.268 29.392C104.54 29.608 104.876 29.7159 105.273 29.7159ZM111.142 31.5V22.7727H113.489V24.2955H113.58C113.739 23.7538 114.006 23.3447 114.381 23.0682C114.756 22.7879 115.188 22.6477 115.676 22.6477C115.797 22.6477 115.928 22.6553 116.068 22.6705C116.208 22.6856 116.332 22.7064 116.438 22.733V24.8807C116.324 24.8466 116.167 24.8163 115.966 24.7898C115.765 24.7633 115.582 24.75 115.415 24.75C115.059 24.75 114.741 24.8277 114.46 24.983C114.184 25.1345 113.964 25.3466 113.801 25.6193C113.642 25.892 113.563 26.2064 113.563 26.5625V31.5H111.142ZM119.608 31.6648C119.051 31.6648 118.555 31.5682 118.119 31.375C117.683 31.178 117.339 30.8883 117.085 30.5057C116.835 30.1193 116.71 29.6383 116.71 29.0625C116.71 28.5777 116.799 28.1705 116.977 27.8409C117.155 27.5114 117.397 27.2462 117.704 27.0455C118.011 26.8447 118.36 26.6932 118.75 26.5909C119.144 26.4886 119.557 26.4167 119.988 26.375C120.496 26.322 120.905 26.2727 121.216 26.2273C121.526 26.178 121.752 26.1061 121.892 26.0114C122.032 25.9167 122.102 25.7765 122.102 25.5909V25.5568C122.102 25.197 121.988 24.9186 121.761 24.7216C121.538 24.5246 121.219 24.4261 120.807 24.4261C120.371 24.4261 120.024 24.5227 119.767 24.7159C119.509 24.9053 119.339 25.1439 119.255 25.4318L117.017 25.25C117.13 24.7197 117.354 24.2614 117.687 23.875C118.021 23.4848 118.45 23.1856 118.977 22.9773C119.507 22.7652 120.121 22.6591 120.818 22.6591C121.303 22.6591 121.767 22.7159 122.21 22.8295C122.657 22.9432 123.053 23.1193 123.397 23.358C123.746 23.5966 124.021 23.9034 124.221 24.2784C124.422 24.6496 124.522 25.0947 124.522 25.6136V31.5H122.227V30.2898H122.159C122.019 30.5625 121.831 30.803 121.596 31.0114C121.361 31.2159 121.079 31.3769 120.75 31.4943C120.42 31.608 120.039 31.6648 119.608 31.6648ZM120.301 29.9943C120.657 29.9943 120.971 29.9242 121.244 29.7841C121.517 29.6402 121.731 29.447 121.886 29.2045C122.041 28.9621 122.119 28.6875 122.119 28.3807V27.4545C122.043 27.5038 121.939 27.5492 121.807 27.5909C121.678 27.6288 121.532 27.6648 121.369 27.6989C121.206 27.7292 121.043 27.7576 120.88 27.7841C120.718 27.8068 120.57 27.8277 120.437 27.8466C120.153 27.8883 119.905 27.9545 119.693 28.0455C119.481 28.1364 119.316 28.2595 119.199 28.4148C119.081 28.5663 119.022 28.7557 119.022 28.983C119.022 29.3125 119.142 29.5644 119.38 29.7386C119.623 29.9091 119.93 29.9943 120.301 29.9943ZM127.802 31.5L125.427 22.7727H127.876L129.228 28.6364H129.308L130.717 22.7727H133.12L134.552 28.6023H134.626L135.955 22.7727H138.398L136.029 31.5H133.467L131.967 26.0114H131.859L130.359 31.5H127.802Z" fill="#242424"/>
<path d="M209 24C209 10.7452 219.745 0 233 0H308C321.255 0 332 10.7452 332 24V28C332 41.2548 321.255 52 308 52H233C219.745 52 209 41.2548 209 28V24Z" fill="#C4FF00" fill-opacity="0.1"/>
<path d="M236.631 31.5L233.301 19.8636H235.989L237.915 27.9489H238.011L240.136 19.8636H242.438L244.557 27.9659H244.659L246.585 19.8636H249.273L245.943 31.5H243.545L241.33 23.892H241.239L239.028 31.5H236.631ZM250.224 31.5V22.7727H252.644V31.5H250.224ZM251.44 21.6477C251.08 21.6477 250.771 21.5284 250.514 21.2898C250.26 21.0473 250.133 20.7576 250.133 20.4205C250.133 20.0871 250.26 19.8011 250.514 19.5625C250.771 19.3201 251.08 19.1989 251.44 19.1989C251.8 19.1989 252.107 19.3201 252.36 19.5625C252.618 19.8011 252.747 20.0871 252.747 20.4205C252.747 20.7576 252.618 21.0473 252.36 21.2898C252.107 21.5284 251.8 21.6477 251.44 21.6477ZM258.905 22.7727V24.5909H253.65V22.7727H258.905ZM254.843 20.6818H257.263V28.8182C257.263 29.0417 257.298 29.2159 257.366 29.3409C257.434 29.4621 257.529 29.5473 257.65 29.5966C257.775 29.6458 257.919 29.6705 258.082 29.6705C258.195 29.6705 258.309 29.661 258.423 29.642C258.536 29.6193 258.623 29.6023 258.684 29.5909L259.065 31.392C258.943 31.4299 258.773 31.4735 258.553 31.5227C258.333 31.5758 258.066 31.608 257.752 31.6193C257.169 31.642 256.657 31.5644 256.218 31.3864C255.782 31.2083 255.443 30.9318 255.201 30.5568C254.958 30.1818 254.839 29.7083 254.843 29.1364V20.6818ZM262.77 26.4545V31.5H260.35V19.8636H262.702V24.3125H262.804C263.001 23.7973 263.319 23.3939 263.759 23.1023C264.198 22.8068 264.749 22.6591 265.412 22.6591C266.018 22.6591 266.547 22.7917 266.997 23.0568C267.452 23.3182 267.804 23.6951 268.054 24.1875C268.308 24.6761 268.433 25.2614 268.429 25.9432V31.5H266.009V26.375C266.013 25.8371 265.876 25.4186 265.6 25.1193C265.327 24.8201 264.944 24.6705 264.452 24.6705C264.122 24.6705 263.831 24.7405 263.577 24.8807C263.327 25.0208 263.13 25.2254 262.986 25.4943C262.846 25.7595 262.774 26.0795 262.77 26.4545ZM273.23 31.642C272.567 31.642 271.967 31.4716 271.429 31.1307C270.895 30.786 270.47 30.2803 270.156 29.6136C269.845 28.9432 269.69 28.1212 269.69 27.1477C269.69 26.1477 269.851 25.3163 270.173 24.6534C270.495 23.9867 270.923 23.4886 271.457 23.1591C271.995 22.8258 272.584 22.6591 273.224 22.6591C273.713 22.6591 274.12 22.7424 274.446 22.9091C274.775 23.072 275.041 23.2765 275.241 23.5227C275.446 23.7652 275.601 24.0038 275.707 24.2386H275.781V19.8636H278.196V31.5H275.809V30.1023H275.707C275.594 30.3447 275.433 30.5852 275.224 30.8239C275.02 31.0587 274.753 31.2538 274.423 31.4091C274.097 31.5644 273.7 31.642 273.23 31.642ZM273.997 29.7159C274.387 29.7159 274.717 29.6098 274.986 29.3977C275.258 29.1818 275.467 28.8807 275.611 28.4943C275.758 28.108 275.832 27.6553 275.832 27.1364C275.832 26.6174 275.76 26.1667 275.616 25.7841C275.472 25.4015 275.264 25.1061 274.991 24.8977C274.719 24.6894 274.387 24.5852 273.997 24.5852C273.599 24.5852 273.264 24.6932 272.991 24.9091C272.719 25.125 272.512 25.4242 272.372 25.8068C272.232 26.1894 272.162 26.6326 272.162 27.1364C272.162 27.6439 272.232 28.0928 272.372 28.483C272.516 28.8693 272.722 29.1723 272.991 29.392C273.264 29.608 273.599 29.7159 273.997 29.7159ZM279.866 31.5V22.7727H282.213V24.2955H282.303C282.463 23.7538 282.73 23.3447 283.105 23.0682C283.48 22.7879 283.911 22.6477 284.4 22.6477C284.521 22.6477 284.652 22.6553 284.792 22.6705C284.932 22.6856 285.055 22.7064 285.161 22.733V24.8807C285.048 24.8466 284.891 24.8163 284.69 24.7898C284.489 24.7633 284.305 24.75 284.139 24.75C283.783 24.75 283.464 24.8277 283.184 24.983C282.908 25.1345 282.688 25.3466 282.525 25.6193C282.366 25.892 282.286 26.2064 282.286 26.5625V31.5H279.866ZM288.331 31.6648C287.775 31.6648 287.278 31.5682 286.843 31.375C286.407 31.178 286.062 30.8883 285.809 30.5057C285.559 30.1193 285.434 29.6383 285.434 29.0625C285.434 28.5777 285.523 28.1705 285.701 27.8409C285.879 27.5114 286.121 27.2462 286.428 27.0455C286.735 26.8447 287.083 26.6932 287.473 26.5909C287.867 26.4886 288.28 26.4167 288.712 26.375C289.22 26.322 289.629 26.2727 289.939 26.2273C290.25 26.178 290.475 26.1061 290.616 26.0114C290.756 25.9167 290.826 25.7765 290.826 25.5909V25.5568C290.826 25.197 290.712 24.9186 290.485 24.7216C290.261 24.5246 289.943 24.4261 289.53 24.4261C289.095 24.4261 288.748 24.5227 288.491 24.7159C288.233 24.9053 288.062 25.1439 287.979 25.4318L285.741 25.25C285.854 24.7197 286.078 24.2614 286.411 23.875C286.744 23.4848 287.174 23.1856 287.701 22.9773C288.231 22.7652 288.845 22.6591 289.542 22.6591C290.026 22.6591 290.491 22.7159 290.934 22.8295C291.381 22.9432 291.776 23.1193 292.121 23.358C292.47 23.5966 292.744 23.9034 292.945 24.2784C293.146 24.6496 293.246 25.0947 293.246 25.6136V31.5H290.951V30.2898H290.883C290.742 30.5625 290.555 30.803 290.32 31.0114C290.085 31.2159 289.803 31.3769 289.473 31.4943C289.144 31.608 288.763 31.6648 288.331 31.6648ZM289.025 29.9943C289.381 29.9943 289.695 29.9242 289.968 29.7841C290.241 29.6402 290.455 29.447 290.61 29.2045C290.765 28.9621 290.843 28.6875 290.843 28.3807V27.4545C290.767 27.5038 290.663 27.5492 290.53 27.5909C290.401 27.6288 290.256 27.6648 290.093 27.6989C289.93 27.7292 289.767 27.7576 289.604 27.7841C289.441 27.8068 289.294 27.8277 289.161 27.8466C288.877 27.8883 288.629 27.9545 288.417 28.0455C288.205 28.1364 288.04 28.2595 287.922 28.4148C287.805 28.5663 287.746 28.7557 287.746 28.983C287.746 29.3125 287.866 29.5644 288.104 29.7386C288.347 29.9091 288.653 29.9943 289.025 29.9943ZM296.526 31.5L294.151 22.7727H296.599L297.952 28.6364H298.031L299.44 22.7727H301.844L303.276 28.6023H303.349L304.679 22.7727H307.122L304.753 31.5H302.19L300.69 26.0114H300.582L299.082 31.5H296.526Z" fill="#C4FF00"/>
</svg>
