<svg width="165" height="76" viewBox="0 0 165 76" fill="none" xmlns="http://www.w3.org/2000/svg">
<rect width="165" height="76" rx="16" fill="#19191F"/>
<path d="M89.41 26.91L80.58 18.08C80.21 17.71 79.7 17.5 79.17 17.5H72C70.9 17.5 70 18.4 70 19.5V26.67C70 27.2 70.21 27.71 70.59 28.08L79.42 36.91C80.2 37.69 81.47 37.69 82.25 36.91L89.42 29.74C90.2 28.96 90.2 27.7 89.41 26.91ZM74.5 23.5C73.67 23.5 73 22.83 73 22C73 21.17 73.67 20.5 74.5 20.5C75.33 20.5 76 21.17 76 22C76 22.83 75.33 23.5 74.5 23.5Z" fill="white"/>
<path d="M67.7992 51.1719C67.7594 50.7997 67.5918 50.5099 67.2963 50.3026C67.0037 50.0952 66.623 49.9915 66.1543 49.9915C65.8247 49.9915 65.5421 50.0412 65.3063 50.1406C65.0705 50.2401 64.8901 50.375 64.7651 50.5455C64.6401 50.7159 64.5762 50.9105 64.5733 51.1293C64.5733 51.3111 64.6145 51.4687 64.6969 51.6023C64.7821 51.7358 64.8972 51.8494 65.0421 51.9432C65.1869 52.0341 65.3475 52.1108 65.5236 52.1733C65.6997 52.2358 65.8773 52.2884 66.0563 52.331L66.8744 52.5355C67.204 52.6122 67.5208 52.7159 67.8247 52.8466C68.1315 52.9773 68.4057 53.142 68.6472 53.3409C68.8915 53.5398 69.0847 53.7798 69.2267 54.0611C69.3688 54.3423 69.4398 54.6719 69.4398 55.0497C69.4398 55.5611 69.3091 56.0114 69.0477 56.4006C68.7864 56.7869 68.4085 57.0895 67.9142 57.3082C67.4227 57.5241 66.8276 57.6321 66.1287 57.6321C65.4497 57.6321 64.8602 57.527 64.3602 57.3168C63.8631 57.1065 63.4739 56.7997 63.1926 56.3963C62.9142 55.9929 62.7637 55.5014 62.7409 54.9219H64.2963C64.319 55.2259 64.4128 55.4787 64.5776 55.6804C64.7423 55.8821 64.9568 56.0327 65.221 56.1321C65.4881 56.2315 65.7864 56.2812 66.1159 56.2812C66.4597 56.2812 66.7608 56.2301 67.0193 56.1278C67.2807 56.0227 67.4852 55.8778 67.633 55.6932C67.7807 55.5057 67.856 55.2869 67.8588 55.0369C67.856 54.8097 67.7892 54.6222 67.6585 54.4744C67.5279 54.3239 67.3446 54.1989 67.1088 54.0994C66.8759 53.9972 66.6031 53.9062 66.2906 53.8267L65.2977 53.571C64.579 53.3864 64.0108 53.1065 63.5932 52.7315C63.1784 52.3537 62.971 51.8523 62.971 51.2273C62.971 50.7131 63.1102 50.2628 63.3887 49.8764C63.6699 49.4901 64.052 49.1903 64.535 48.9773C65.0179 48.7614 65.5648 48.6534 66.1756 48.6534C66.7949 48.6534 67.3375 48.7614 67.8034 48.9773C68.2722 49.1903 68.6401 49.4872 68.9071 49.8679C69.1742 50.2457 69.3119 50.6804 69.3205 51.1719H67.7992ZM73.4388 57.6278C72.7825 57.6278 72.2158 57.4915 71.7385 57.2188C71.2641 56.9432 70.899 56.554 70.6433 56.0511C70.3876 55.5455 70.2598 54.9503 70.2598 54.2656C70.2598 53.5923 70.3876 53.0014 70.6433 52.4929C70.9018 51.9815 71.2626 51.5838 71.7257 51.2997C72.1888 51.0128 72.7328 50.8693 73.3578 50.8693C73.7612 50.8693 74.1419 50.9347 74.4999 51.0653C74.8607 51.1932 75.1788 51.392 75.4544 51.6619C75.7328 51.9318 75.9516 52.2756 76.1107 52.6932C76.2697 53.108 76.3493 53.6023 76.3493 54.1761V54.6491H70.9842V53.6094H74.8706C74.8678 53.3139 74.8038 53.0511 74.6788 52.821C74.5538 52.5881 74.3791 52.4048 74.1547 52.2713C73.9331 52.1378 73.6746 52.071 73.3791 52.071C73.0638 52.071 72.7868 52.1477 72.5482 52.3011C72.3095 52.4517 72.1234 52.6506 71.9899 52.8977C71.8592 53.142 71.7925 53.4105 71.7896 53.7031V54.6108C71.7896 54.9915 71.8592 55.3182 71.9984 55.5909C72.1376 55.8608 72.3322 56.0682 72.5822 56.2131C72.8322 56.3551 73.1249 56.4261 73.4601 56.4261C73.6845 56.4261 73.8876 56.3949 74.0695 56.3324C74.2513 56.267 74.4089 56.1719 74.5425 56.0469C74.676 55.9219 74.7768 55.767 74.845 55.5824L76.2854 55.7443C76.1945 56.125 76.0212 56.4574 75.7655 56.7415C75.5126 57.0227 75.1888 57.2415 74.7939 57.3977C74.399 57.5511 73.9473 57.6278 73.4388 57.6278ZM78.9569 48.7727V57.5H77.4143V48.7727H78.9569ZM81.8459 48.7727V57.5H80.3032V48.7727H81.8459ZM87.8122 57.6321C87.3975 57.6321 87.0239 57.5582 86.6915 57.4105C86.3619 57.2599 86.1006 57.0384 85.9074 56.7457C85.7171 56.4531 85.6219 56.0923 85.6219 55.6634C85.6219 55.294 85.6901 54.9886 85.8264 54.7472C85.9628 54.5057 86.1489 54.3125 86.3847 54.1676C86.6205 54.0227 86.8861 53.9134 87.1815 53.8395C87.4798 53.7628 87.7881 53.7074 88.1063 53.6733C88.4898 53.6335 88.8009 53.598 89.0395 53.5668C89.2781 53.5327 89.4514 53.4815 89.5594 53.4134C89.6702 53.3423 89.7256 53.233 89.7256 53.0852V53.0597C89.7256 52.7386 89.6304 52.4901 89.4401 52.3139C89.2497 52.1378 88.9756 52.0497 88.6176 52.0497C88.2398 52.0497 87.9401 52.1321 87.7185 52.2969C87.4997 52.4616 87.352 52.6562 87.2753 52.8807L85.835 52.6761C85.9486 52.2784 86.1361 51.946 86.3975 51.679C86.6588 51.4091 86.9784 51.2074 87.3563 51.0739C87.7341 50.9375 88.1517 50.8693 88.6091 50.8693C88.9244 50.8693 89.2384 50.9062 89.5509 50.9801C89.8634 51.054 90.1489 51.1761 90.4074 51.3466C90.6659 51.5142 90.8733 51.7429 91.0296 52.0327C91.1887 52.3224 91.2682 52.6847 91.2682 53.1193V57.5H89.7852V56.6009H89.7341C89.6404 56.7827 89.5083 56.9531 89.3378 57.1122C89.1702 57.2685 88.9585 57.3949 88.7029 57.4915C88.45 57.5852 88.1531 57.6321 87.8122 57.6321ZM88.2128 56.4986C88.5225 56.4986 88.7909 56.4375 89.0182 56.3153C89.2455 56.1903 89.4202 56.0256 89.5423 55.821C89.6673 55.6165 89.7298 55.3935 89.7298 55.152V54.3807C89.6815 54.4205 89.5992 54.4574 89.4827 54.4915C89.369 54.5256 89.2412 54.5554 89.0992 54.581C88.9571 54.6065 88.8165 54.6293 88.6773 54.6491C88.5381 54.669 88.4173 54.6861 88.3151 54.7003C88.085 54.7315 87.879 54.7827 87.6972 54.8537C87.5154 54.9247 87.3719 55.0241 87.2668 55.152C87.1617 55.277 87.1091 55.4389 87.1091 55.6378C87.1091 55.9219 87.2128 56.1364 87.4202 56.2812C87.6276 56.4261 87.8918 56.4986 88.2128 56.4986ZM94.1219 48.7727V57.5H92.5793V48.7727H94.1219ZM97.0109 48.7727V57.5H95.4682V48.7727H97.0109Z" fill="white"/>
</svg>
