<svg width="291" height="37" viewBox="0 0 291 37" fill="none" xmlns="http://www.w3.org/2000/svg">
<rect width="68" height="37" rx="16" fill="#C4FF00" fill-opacity="0.2"/>
<path d="M11.1665 24V13.8182H17.7887V15.3643H13.011V18.1286H17.4456V19.6747H13.011V22.4538H17.8285V24H11.1665ZM21.1106 19.5256V24H19.3109V16.3636H21.0311V17.6612H21.1205C21.2962 17.2337 21.5763 16.8939 21.9607 16.642C22.3485 16.3902 22.8275 16.2642 23.3975 16.2642C23.9245 16.2642 24.3836 16.3769 24.7747 16.6023C25.1691 16.8277 25.474 17.1541 25.6894 17.5817C25.9082 18.0092 26.0159 18.5279 26.0126 19.1378V24H24.2129V19.4162C24.2129 18.9058 24.0803 18.5064 23.8151 18.218C23.5533 17.9297 23.1904 17.7855 22.7264 17.7855C22.4115 17.7855 22.1314 17.8551 21.8862 17.9943C21.6442 18.1302 21.4536 18.3274 21.3144 18.5859C21.1785 18.8445 21.1106 19.1577 21.1106 19.5256ZM30.8832 27.0227C30.2369 27.0227 29.6817 26.9349 29.2177 26.7592C28.7537 26.5869 28.3808 26.3549 28.0991 26.0632C27.8173 25.7715 27.6218 25.4484 27.5124 25.0938L29.1332 24.701C29.2061 24.8501 29.3121 24.9976 29.4513 25.1435C29.5905 25.2926 29.7778 25.4152 30.0131 25.5114C30.2518 25.6108 30.5517 25.6605 30.913 25.6605C31.4234 25.6605 31.846 25.5362 32.1807 25.2876C32.5155 25.0424 32.6829 24.638 32.6829 24.0746V22.6278H32.5934C32.5006 22.8134 32.3647 23.004 32.1857 23.1996C32.0101 23.3951 31.7764 23.5592 31.4847 23.6918C31.1964 23.8243 30.8334 23.8906 30.3959 23.8906C29.8093 23.8906 29.2773 23.7531 28.8001 23.478C28.3261 23.1996 27.9483 22.7853 27.6665 22.2351C27.3881 21.6816 27.2489 20.9889 27.2489 20.157C27.2489 19.3184 27.3881 18.6108 27.6665 18.0341C27.9483 17.4541 28.3278 17.0149 28.805 16.7166C29.2823 16.415 29.8143 16.2642 30.4009 16.2642C30.8484 16.2642 31.2163 16.3404 31.5046 16.4929C31.7963 16.642 32.0283 16.8227 32.2006 17.0348C32.373 17.2436 32.5039 17.4408 32.5934 17.6264H32.6928V16.3636H34.4677V24.1243C34.4677 24.7772 34.3119 25.3175 34.0003 25.745C33.6888 26.1726 33.2629 26.4924 32.7226 26.7045C32.1824 26.9167 31.5692 27.0227 30.8832 27.0227ZM30.8981 22.4787C31.2792 22.4787 31.604 22.3859 31.8725 22.2003C32.141 22.0147 32.3448 21.7479 32.484 21.3999C32.6232 21.0518 32.6928 20.6342 32.6928 20.147C32.6928 19.6664 32.6232 19.2455 32.484 18.8842C32.3481 18.523 32.1459 18.2429 31.8775 18.044C31.6123 17.8419 31.2859 17.7408 30.8981 17.7408C30.497 17.7408 30.1623 17.8452 29.8938 18.054C29.6253 18.2628 29.4232 18.5495 29.2873 18.9141C29.1514 19.2753 29.0834 19.6863 29.0834 20.147C29.0834 20.6143 29.1514 21.0237 29.2873 21.375C29.4265 21.723 29.6303 21.9948 29.8988 22.1903C30.1706 22.3826 30.5037 22.4787 30.8981 22.4787ZM37.8319 13.8182V24H36.0321V13.8182H37.8319ZM39.4025 24V16.3636H41.2022V24H39.4025ZM40.3074 15.2798C40.0223 15.2798 39.7771 15.1854 39.5716 14.9964C39.3661 14.8042 39.2633 14.5739 39.2633 14.3054C39.2633 14.0336 39.3661 13.8033 39.5716 13.6143C39.7771 13.4221 40.0223 13.326 40.3074 13.326C40.5957 13.326 40.841 13.4221 41.0432 13.6143C41.2486 13.8033 41.3514 14.0336 41.3514 14.3054C41.3514 14.5739 41.2486 14.8042 41.0432 14.9964C40.841 15.1854 40.5957 15.2798 40.3074 15.2798ZM48.8084 18.3821L47.1678 18.5611C47.1214 18.3954 47.0402 18.2396 46.9242 18.0938C46.8115 17.9479 46.659 17.8303 46.4668 17.7408C46.2746 17.6513 46.0393 17.6065 45.7608 17.6065C45.3863 17.6065 45.0715 17.6877 44.8162 17.8501C44.5643 18.0125 44.4401 18.223 44.4434 18.4815C44.4401 18.7036 44.5213 18.8842 44.687 19.0234C44.856 19.1626 45.1344 19.277 45.5222 19.3665L46.8248 19.6449C47.5473 19.8007 48.0842 20.0476 48.4356 20.3857C48.7902 20.7237 48.9692 21.1662 48.9725 21.7131C48.9692 22.1937 48.8283 22.6179 48.5499 22.9858C48.2748 23.3504 47.892 23.6354 47.4015 23.8409C46.9109 24.0464 46.3475 24.1491 45.7111 24.1491C44.7765 24.1491 44.0241 23.9536 43.454 23.5625C42.884 23.1681 42.5442 22.6196 42.4349 21.9169L44.1898 21.7479C44.2694 22.0926 44.4384 22.3527 44.6969 22.5284C44.9554 22.7041 45.2919 22.7919 45.7062 22.7919C46.1337 22.7919 46.4768 22.7041 46.7353 22.5284C46.9971 22.3527 47.128 22.1357 47.128 21.8771C47.128 21.6584 47.0435 21.4777 46.8745 21.3352C46.7088 21.1927 46.4502 21.0833 46.0989 21.0071L44.7964 20.7337C44.0639 20.5812 43.522 20.3243 43.1706 19.9631C42.8193 19.5985 42.6453 19.1378 42.6486 18.581C42.6453 18.1103 42.7729 17.7027 43.0314 17.358C43.2933 17.0099 43.6562 16.7415 44.1202 16.5526C44.5876 16.3603 45.1261 16.2642 45.736 16.2642C46.6309 16.2642 47.3352 16.4548 47.8489 16.8359C48.366 17.2171 48.6858 17.7325 48.8084 18.3821ZM51.9762 19.5256V24H50.1765V13.8182H51.9365V17.6612H52.0259C52.2049 17.2304 52.4817 16.8906 52.8562 16.642C53.234 16.3902 53.7146 16.2642 54.298 16.2642C54.8283 16.2642 55.2906 16.3752 55.685 16.5973C56.0794 16.8194 56.3844 17.1442 56.5998 17.5717C56.8186 17.9993 56.9279 18.5213 56.9279 19.1378V24H55.1282V19.4162C55.1282 18.9025 54.9956 18.5031 54.7305 18.218C54.4687 17.9297 54.1008 17.7855 53.6268 17.7855C53.3086 17.7855 53.0236 17.8551 52.7717 17.9943C52.5231 18.1302 52.3276 18.3274 52.185 18.5859C52.0458 18.8445 51.9762 19.1577 51.9762 19.5256Z" fill="#C3FF00"/>
<rect x="73" width="72" height="37" rx="16" fill="#19191F"/>
<path d="M84.2388 24V13.8182H88.057C88.8392 13.8182 89.4954 13.9541 90.0257 14.2259C90.5593 14.4976 90.962 14.8788 91.2338 15.3693C91.5089 15.8565 91.6465 16.425 91.6465 17.0746C91.6465 17.7275 91.5073 18.2943 91.2288 18.7749C90.9538 19.2521 90.5477 19.6217 90.0108 19.8835C89.4739 20.142 88.8143 20.2713 88.0321 20.2713H85.3127V18.7401H87.7835C88.2409 18.7401 88.6154 18.6771 88.9071 18.5511C89.1988 18.4219 89.4142 18.2346 89.5534 17.9893C89.6959 17.7408 89.7672 17.4358 89.7672 17.0746C89.7672 16.7133 89.6959 16.4051 89.5534 16.1499C89.4109 15.8913 89.1938 15.6958 88.9021 15.5632C88.6105 15.4273 88.2343 15.3594 87.7736 15.3594H86.0833V24H84.2388ZM89.4987 19.3864L92.0193 24H89.9611L87.4852 19.3864H89.4987ZM97.8519 20.7884V16.3636H99.6516V24H97.9066V22.6428H97.827C97.6547 23.0703 97.3713 23.42 96.9769 23.6918C96.5858 23.9635 96.1036 24.0994 95.5302 24.0994C95.0297 24.0994 94.5872 23.9884 94.2028 23.7663C93.8216 23.541 93.5233 23.2145 93.3079 22.7869C93.0924 22.3561 92.9847 21.8357 92.9847 21.2259V16.3636H94.7844V20.9474C94.7844 21.4313 94.917 21.8158 95.1822 22.1009C95.4473 22.3859 95.7953 22.5284 96.2262 22.5284C96.4913 22.5284 96.7482 22.4638 96.9968 22.3345C97.2454 22.2053 97.4492 22.013 97.6083 21.7578C97.7707 21.4993 97.8519 21.1761 97.8519 20.7884ZM107.258 18.3821L105.617 18.5611C105.571 18.3954 105.49 18.2396 105.374 18.0938C105.261 17.9479 105.108 17.8303 104.916 17.7408C104.724 17.6513 104.489 17.6065 104.21 17.6065C103.836 17.6065 103.521 17.6877 103.266 17.8501C103.014 18.0125 102.889 18.223 102.893 18.4815C102.889 18.7036 102.971 18.8842 103.136 19.0234C103.305 19.1626 103.584 19.277 103.972 19.3665L105.274 19.6449C105.997 19.8007 106.534 20.0476 106.885 20.3857C107.24 20.7237 107.419 21.1662 107.422 21.7131C107.419 22.1937 107.278 22.6179 106.999 22.9858C106.724 23.3504 106.341 23.6354 105.851 23.8409C105.36 24.0464 104.797 24.1491 104.161 24.1491C103.226 24.1491 102.473 23.9536 101.903 23.5625C101.333 23.1681 100.994 22.6196 100.884 21.9169L102.639 21.7479C102.719 22.0926 102.888 22.3527 103.146 22.5284C103.405 22.7041 103.741 22.7919 104.156 22.7919C104.583 22.7919 104.926 22.7041 105.185 22.5284C105.446 22.3527 105.577 22.1357 105.577 21.8771C105.577 21.6584 105.493 21.4777 105.324 21.3352C105.158 21.1927 104.9 21.0833 104.548 21.0071L103.246 20.7337C102.513 20.5812 101.971 20.3243 101.62 19.9631C101.269 19.5985 101.095 19.1378 101.098 18.581C101.095 18.1103 101.222 17.7027 101.481 17.358C101.743 17.0099 102.106 16.7415 102.57 16.5526C103.037 16.3603 103.576 16.2642 104.185 16.2642C105.08 16.2642 105.785 16.4548 106.298 16.8359C106.815 17.2171 107.135 17.7325 107.258 18.3821ZM114.661 18.3821L113.021 18.5611C112.974 18.3954 112.893 18.2396 112.777 18.0938C112.664 17.9479 112.512 17.8303 112.32 17.7408C112.128 17.6513 111.892 17.6065 111.614 17.6065C111.239 17.6065 110.924 17.6877 110.669 17.8501C110.417 18.0125 110.293 18.223 110.296 18.4815C110.293 18.7036 110.374 18.8842 110.54 19.0234C110.709 19.1626 110.987 19.277 111.375 19.3665L112.678 19.6449C113.4 19.8007 113.937 20.0476 114.289 20.3857C114.643 20.7237 114.822 21.1662 114.825 21.7131C114.822 22.1937 114.681 22.6179 114.403 22.9858C114.128 23.3504 113.745 23.6354 113.254 23.8409C112.764 24.0464 112.2 24.1491 111.564 24.1491C110.629 24.1491 109.877 23.9536 109.307 23.5625C108.737 23.1681 108.397 22.6196 108.288 21.9169L110.043 21.7479C110.122 22.0926 110.291 22.3527 110.55 22.5284C110.808 22.7041 111.145 22.7919 111.559 22.7919C111.987 22.7919 112.33 22.7041 112.588 22.5284C112.85 22.3527 112.981 22.1357 112.981 21.8771C112.981 21.6584 112.896 21.4777 112.727 21.3352C112.562 21.1927 112.303 21.0833 111.952 21.0071L110.649 20.7337C109.917 20.5812 109.375 20.3243 109.024 19.9631C108.672 19.5985 108.498 19.1378 108.502 18.581C108.498 18.1103 108.626 17.7027 108.884 17.358C109.146 17.0099 109.509 16.7415 109.973 16.5526C110.441 16.3603 110.979 16.2642 111.589 16.2642C112.484 16.2642 113.188 16.4548 113.702 16.8359C114.219 17.2171 114.539 17.7325 114.661 18.3821ZM116.029 24V16.3636H117.829V24H116.029ZM116.934 15.2798C116.649 15.2798 116.404 15.1854 116.199 14.9964C115.993 14.8042 115.89 14.5739 115.89 14.3054C115.89 14.0336 115.993 13.8033 116.199 13.6143C116.404 13.4221 116.649 13.326 116.934 13.326C117.223 13.326 117.468 13.4221 117.67 13.6143C117.876 13.8033 117.978 14.0336 117.978 14.3054C117.978 14.5739 117.876 14.8042 117.67 14.9964C117.468 15.1854 117.223 15.2798 116.934 15.2798ZM121.597 24.1541C121.113 24.1541 120.678 24.0679 120.29 23.8956C119.905 23.7199 119.6 23.4614 119.375 23.12C119.153 22.7786 119.042 22.3577 119.042 21.8572C119.042 21.4264 119.121 21.0701 119.281 20.7884C119.44 20.5066 119.657 20.2812 119.932 20.1122C120.207 19.9432 120.517 19.8156 120.862 19.7294C121.21 19.6399 121.569 19.5753 121.94 19.5355C122.388 19.4891 122.751 19.4477 123.029 19.4112C123.308 19.3714 123.51 19.3118 123.636 19.2322C123.765 19.1494 123.83 19.0218 123.83 18.8494V18.8196C123.83 18.4451 123.719 18.1551 123.496 17.9496C123.274 17.7441 122.955 17.6413 122.537 17.6413C122.096 17.6413 121.746 17.7375 121.488 17.9297C121.233 18.1219 121.06 18.349 120.971 18.6108L119.29 18.3722C119.423 17.9081 119.642 17.5204 119.947 17.2088C120.252 16.8939 120.625 16.6586 121.065 16.5028C121.506 16.3438 121.993 16.2642 122.527 16.2642C122.895 16.2642 123.261 16.3073 123.626 16.3935C123.99 16.4796 124.323 16.6222 124.625 16.821C124.927 17.0166 125.169 17.2834 125.351 17.6214C125.536 17.9595 125.629 18.3821 125.629 18.8892V24H123.899V22.951H123.84C123.73 23.1631 123.576 23.362 123.377 23.5476C123.182 23.7299 122.935 23.8774 122.636 23.9901C122.341 24.0994 121.995 24.1541 121.597 24.1541ZM122.065 22.8317C122.426 22.8317 122.739 22.7604 123.004 22.6179C123.269 22.4721 123.473 22.2798 123.616 22.0412C123.762 21.8026 123.835 21.5424 123.835 21.2607V20.3608C123.778 20.4072 123.682 20.4503 123.546 20.4901C123.414 20.5298 123.264 20.5646 123.099 20.5945C122.933 20.6243 122.769 20.6508 122.607 20.674C122.444 20.6972 122.303 20.7171 122.184 20.7337C121.915 20.7701 121.675 20.8298 121.463 20.9126C121.251 20.9955 121.084 21.1115 120.961 21.2607C120.838 21.4065 120.777 21.5954 120.777 21.8274C120.777 22.1589 120.898 22.4091 121.14 22.5781C121.382 22.7472 121.69 22.8317 122.065 22.8317ZM128.959 19.5256V24H127.159V16.3636H128.879V17.6612H128.969C129.144 17.2337 129.424 16.8939 129.809 16.642C130.197 16.3902 130.676 16.2642 131.246 16.2642C131.773 16.2642 132.232 16.3769 132.623 16.6023C133.017 16.8277 133.322 17.1541 133.537 17.5817C133.756 18.0092 133.864 18.5279 133.861 19.1378V24H132.061V19.4162C132.061 18.9058 131.928 18.5064 131.663 18.218C131.401 17.9297 131.038 17.7855 130.574 17.7855C130.26 17.7855 129.979 17.8551 129.734 17.9943C129.492 18.1302 129.302 18.3274 129.162 18.5859C129.027 18.8445 128.959 19.1577 128.959 19.5256Z" fill="white"/>
<rect x="150" width="62" height="37" rx="16" fill="#19191F"/>
<path d="M161.253 24V13.8182H165.071C165.853 13.8182 166.51 13.964 167.04 14.2557C167.574 14.5473 167.976 14.9484 168.248 15.4588C168.523 15.9659 168.661 16.5426 168.661 17.1889C168.661 17.8419 168.523 18.4219 168.248 18.929C167.973 19.4361 167.567 19.8355 167.03 20.1271C166.493 20.4155 165.832 20.5597 165.046 20.5597H162.516V19.0433H164.798C165.255 19.0433 165.63 18.9638 165.921 18.8047C166.213 18.6456 166.429 18.4268 166.568 18.1484C166.71 17.87 166.781 17.5502 166.781 17.1889C166.781 16.8277 166.71 16.5095 166.568 16.2344C166.429 15.9593 166.211 15.7455 165.916 15.593C165.625 15.4373 165.249 15.3594 164.788 15.3594H163.098V24H161.253ZM173.175 24.1491C172.409 24.1491 171.748 23.9901 171.191 23.6719C170.637 23.3504 170.212 22.8963 169.913 22.3097C169.615 21.7197 169.466 21.0253 169.466 20.2266C169.466 19.4411 169.615 18.7517 169.913 18.1584C170.215 17.5618 170.636 17.0978 171.176 16.7663C171.716 16.4316 172.351 16.2642 173.08 16.2642C173.551 16.2642 173.995 16.3404 174.413 16.4929C174.833 16.642 175.205 16.8741 175.526 17.1889C175.851 17.5038 176.106 17.9048 176.292 18.392C176.477 18.8759 176.57 19.4527 176.57 20.1222V20.674H170.311V19.4609H174.845C174.842 19.1162 174.767 18.8097 174.621 18.5412C174.476 18.2694 174.272 18.0556 174.01 17.8999C173.751 17.7441 173.45 17.6662 173.105 17.6662C172.737 17.6662 172.414 17.7557 172.136 17.9347C171.857 18.1103 171.64 18.3423 171.484 18.6307C171.332 18.9157 171.254 19.2289 171.251 19.5703V20.6293C171.251 21.0734 171.332 21.4545 171.494 21.7727C171.657 22.0876 171.884 22.3295 172.175 22.4986C172.467 22.6643 172.808 22.7472 173.199 22.7472C173.461 22.7472 173.698 22.7107 173.91 22.6378C174.123 22.5616 174.306 22.4505 174.462 22.3047C174.618 22.1589 174.736 21.9782 174.815 21.7628L176.496 21.9517C176.39 22.3958 176.187 22.7836 175.889 23.1151C175.594 23.4432 175.216 23.6984 174.756 23.8807C174.295 24.0597 173.768 24.1491 173.175 24.1491ZM177.813 24V16.3636H179.558V17.6364H179.637C179.777 17.1955 180.015 16.8558 180.353 16.6172C180.695 16.3752 181.084 16.2543 181.522 16.2543C181.621 16.2543 181.732 16.2592 181.855 16.2692C181.981 16.2758 182.085 16.2874 182.168 16.304V17.9595C182.092 17.933 181.971 17.9098 181.805 17.8899C181.643 17.8667 181.485 17.8551 181.333 17.8551C181.005 17.8551 180.71 17.9264 180.448 18.0689C180.189 18.2081 179.985 18.402 179.836 18.6506C179.687 18.8991 179.612 19.1858 179.612 19.5107V24H177.813ZM189.119 18.3821L187.478 18.5611C187.432 18.3954 187.351 18.2396 187.235 18.0938C187.122 17.9479 186.97 17.8303 186.777 17.7408C186.585 17.6513 186.35 17.6065 186.071 17.6065C185.697 17.6065 185.382 17.6877 185.127 17.8501C184.875 18.0125 184.751 18.223 184.754 18.4815C184.751 18.7036 184.832 18.8842 184.998 19.0234C185.167 19.1626 185.445 19.277 185.833 19.3665L187.135 19.6449C187.858 19.8007 188.395 20.0476 188.746 20.3857C189.101 20.7237 189.28 21.1662 189.283 21.7131C189.28 22.1937 189.139 22.6179 188.861 22.9858C188.585 23.3504 188.203 23.6354 187.712 23.8409C187.222 24.0464 186.658 24.1491 186.022 24.1491C185.087 24.1491 184.335 23.9536 183.765 23.5625C183.195 23.1681 182.855 22.6196 182.745 21.9169L184.5 21.7479C184.58 22.0926 184.749 22.3527 185.008 22.5284C185.266 22.7041 185.602 22.7919 186.017 22.7919C186.444 22.7919 186.787 22.7041 187.046 22.5284C187.308 22.3527 187.439 22.1357 187.439 21.8771C187.439 21.6584 187.354 21.4777 187.185 21.3352C187.019 21.1927 186.761 21.0833 186.41 21.0071L185.107 20.7337C184.375 20.5812 183.833 20.3243 183.481 19.9631C183.13 19.5985 182.956 19.1378 182.959 18.581C182.956 18.1103 183.084 17.7027 183.342 17.358C183.604 17.0099 183.967 16.7415 184.431 16.5526C184.898 16.3603 185.437 16.2642 186.047 16.2642C186.941 16.2642 187.646 16.4548 188.16 16.8359C188.677 17.2171 188.996 17.7325 189.119 18.3821ZM190.487 24V16.3636H192.287V24H190.487ZM191.392 15.2798C191.107 15.2798 190.862 15.1854 190.656 14.9964C190.451 14.8042 190.348 14.5739 190.348 14.3054C190.348 14.0336 190.451 13.8033 190.656 13.6143C190.862 13.4221 191.107 13.326 191.392 13.326C191.68 13.326 191.926 13.4221 192.128 13.6143C192.333 13.8033 192.436 14.0336 192.436 14.3054C192.436 14.5739 192.333 14.8042 192.128 14.9964C191.926 15.1854 191.68 15.2798 191.392 15.2798ZM196.691 24.1342C196.091 24.1342 195.554 23.9801 195.081 23.6719C194.607 23.3636 194.232 22.9162 193.957 22.3295C193.682 21.7429 193.544 21.0303 193.544 20.1918C193.544 19.3433 193.684 18.6274 193.962 18.044C194.244 17.4574 194.623 17.0149 195.1 16.7166C195.578 16.415 196.11 16.2642 196.696 16.2642C197.144 16.2642 197.512 16.3404 197.8 16.4929C198.088 16.642 198.317 16.8227 198.486 17.0348C198.655 17.2436 198.786 17.4408 198.879 17.6264H198.953V13.8182H200.758V24H198.988V22.7969H198.879C198.786 22.9825 198.652 23.1797 198.476 23.3885C198.3 23.594 198.068 23.7696 197.78 23.9155C197.492 24.0613 197.129 24.1342 196.691 24.1342ZM197.193 22.6577C197.575 22.6577 197.899 22.5549 198.168 22.3494C198.436 22.1406 198.64 21.8506 198.779 21.4794C198.919 21.1082 198.988 20.6757 198.988 20.1818C198.988 19.688 198.919 19.2588 198.779 18.8942C198.644 18.5296 198.441 18.2462 198.173 18.044C197.908 17.8419 197.581 17.7408 197.193 17.7408C196.792 17.7408 196.458 17.8452 196.189 18.054C195.921 18.2628 195.719 18.5511 195.583 18.919C195.447 19.2869 195.379 19.7079 195.379 20.1818C195.379 20.6591 195.447 21.085 195.583 21.4595C195.722 21.8307 195.926 22.1241 196.194 22.3395C196.466 22.5516 196.799 22.6577 197.193 22.6577Z" fill="white"/>
<rect x="217" width="74" height="37" rx="16" fill="#19191F"/>
<path d="M236.833 17.2536H234.974C234.92 16.9486 234.823 16.6785 234.68 16.4432C234.538 16.2045 234.36 16.0024 234.148 15.8366C233.936 15.6709 233.694 15.5466 233.422 15.4638C233.154 15.3776 232.864 15.3345 232.552 15.3345C231.999 15.3345 231.508 15.4737 231.081 15.7521C230.653 16.0272 230.318 16.4316 230.077 16.9652C229.835 17.4955 229.714 18.1435 229.714 18.9091C229.714 19.688 229.835 20.3442 230.077 20.8778C230.322 21.4081 230.657 21.8092 231.081 22.081C231.508 22.3494 231.997 22.4837 232.547 22.4837C232.852 22.4837 233.137 22.4439 233.403 22.3643C233.671 22.2815 233.911 22.1605 234.123 22.0014C234.339 21.8423 234.519 21.6468 234.665 21.4148C234.814 21.1828 234.917 20.9176 234.974 20.6193L236.833 20.6293C236.763 21.1132 236.612 21.5672 236.38 21.9915C236.152 22.4157 235.852 22.7902 235.481 23.1151C235.109 23.4366 234.675 23.6884 234.178 23.8707C233.681 24.0497 233.129 24.1392 232.523 24.1392C231.628 24.1392 230.829 23.9321 230.126 23.5178C229.424 23.1035 228.87 22.5052 228.466 21.723C228.061 20.9408 227.859 20.0028 227.859 18.9091C227.859 17.812 228.063 16.8741 228.471 16.0952C228.878 15.313 229.434 14.7147 230.136 14.3004C230.839 13.8861 231.634 13.679 232.523 13.679C233.089 13.679 233.616 13.7585 234.103 13.9176C234.591 14.0767 235.025 14.3104 235.406 14.6186C235.787 14.9235 236.1 15.2981 236.346 15.7422C236.594 16.183 236.757 16.6868 236.833 17.2536ZM239.962 19.5256V24H238.162V13.8182H239.922V17.6612H240.012C240.191 17.2304 240.468 16.8906 240.842 16.642C241.22 16.3902 241.701 16.2642 242.284 16.2642C242.814 16.2642 243.277 16.3752 243.671 16.5973C244.065 16.8194 244.37 17.1442 244.586 17.5717C244.804 17.9993 244.914 18.5213 244.914 19.1378V24H243.114V19.4162C243.114 18.9025 242.982 18.5031 242.716 18.218C242.455 17.9297 242.087 17.7855 241.613 17.7855C241.295 17.7855 241.01 17.8551 240.758 17.9943C240.509 18.1302 240.313 18.3274 240.171 18.5859C240.032 18.8445 239.962 19.1577 239.962 19.5256ZM246.468 24V16.3636H248.268V24H246.468ZM247.373 15.2798C247.088 15.2798 246.843 15.1854 246.637 14.9964C246.432 14.8042 246.329 14.5739 246.329 14.3054C246.329 14.0336 246.432 13.8033 246.637 13.6143C246.843 13.4221 247.088 13.326 247.373 13.326C247.662 13.326 247.907 13.4221 248.109 13.6143C248.315 13.8033 248.417 14.0336 248.417 14.3054C248.417 14.5739 248.315 14.8042 248.109 14.9964C247.907 15.1854 247.662 15.2798 247.373 15.2798ZM251.638 19.5256V24H249.839V16.3636H251.559V17.6612H251.648C251.824 17.2337 252.104 16.8939 252.489 16.642C252.876 16.3902 253.355 16.2642 253.925 16.2642C254.452 16.2642 254.911 16.3769 255.303 16.6023C255.697 16.8277 256.002 17.1541 256.217 17.5817C256.436 18.0092 256.544 18.5279 256.54 19.1378V24H254.741V19.4162C254.741 18.9058 254.608 18.5064 254.343 18.218C254.081 17.9297 253.718 17.7855 253.254 17.7855C252.939 17.7855 252.659 17.8551 252.414 17.9943C252.172 18.1302 251.982 18.3274 251.842 18.5859C251.706 18.8445 251.638 19.1577 251.638 19.5256ZM261.471 24.1491C260.705 24.1491 260.044 23.9901 259.487 23.6719C258.934 23.3504 258.508 22.8963 258.209 22.3097C257.911 21.7197 257.762 21.0253 257.762 20.2266C257.762 19.4411 257.911 18.7517 258.209 18.1584C258.511 17.5618 258.932 17.0978 259.472 16.7663C260.012 16.4316 260.647 16.2642 261.376 16.2642C261.847 16.2642 262.291 16.3404 262.709 16.4929C263.13 16.642 263.501 16.8741 263.822 17.1889C264.147 17.5038 264.402 17.9048 264.588 18.392C264.774 18.8759 264.866 19.4527 264.866 20.1222V20.674H258.607V19.4609H263.141C263.138 19.1162 263.063 18.8097 262.917 18.5412C262.772 18.2694 262.568 18.0556 262.306 17.8999C262.047 17.7441 261.746 17.6662 261.401 17.6662C261.033 17.6662 260.71 17.7557 260.432 17.9347C260.153 18.1103 259.936 18.3423 259.78 18.6307C259.628 18.9157 259.55 19.2289 259.547 19.5703V20.6293C259.547 21.0734 259.628 21.4545 259.79 21.7727C259.953 22.0876 260.18 22.3295 260.471 22.4986C260.763 22.6643 261.104 22.7472 261.496 22.7472C261.757 22.7472 261.994 22.7107 262.207 22.6378C262.419 22.5616 262.603 22.4505 262.758 22.3047C262.914 22.1589 263.032 21.9782 263.111 21.7628L264.792 21.9517C264.686 22.3958 264.483 22.7836 264.185 23.1151C263.89 23.4432 263.512 23.6984 263.052 23.8807C262.591 24.0597 262.064 24.1491 261.471 24.1491ZM272.144 18.3821L270.504 18.5611C270.457 18.3954 270.376 18.2396 270.26 18.0938C270.147 17.9479 269.995 17.8303 269.803 17.7408C269.611 17.6513 269.375 17.6065 269.097 17.6065C268.722 17.6065 268.407 17.6877 268.152 17.8501C267.9 18.0125 267.776 18.223 267.779 18.4815C267.776 18.7036 267.857 18.8842 268.023 19.0234C268.192 19.1626 268.47 19.277 268.858 19.3665L270.161 19.6449C270.883 19.8007 271.42 20.0476 271.771 20.3857C272.126 20.7237 272.305 21.1662 272.308 21.7131C272.305 22.1937 272.164 22.6179 271.886 22.9858C271.611 23.3504 271.228 23.6354 270.737 23.8409C270.247 24.0464 269.683 24.1491 269.047 24.1491C268.112 24.1491 267.36 23.9536 266.79 23.5625C266.22 23.1681 265.88 22.6196 265.771 21.9169L267.526 21.7479C267.605 22.0926 267.774 22.3527 268.033 22.5284C268.291 22.7041 268.628 22.7919 269.042 22.7919C269.47 22.7919 269.813 22.7041 270.071 22.5284C270.333 22.3527 270.464 22.1357 270.464 21.8771C270.464 21.6584 270.379 21.4777 270.21 21.3352C270.045 21.1927 269.786 21.0833 269.435 21.0071L268.132 20.7337C267.4 20.5812 266.858 20.3243 266.507 19.9631C266.155 19.5985 265.981 19.1378 265.985 18.581C265.981 18.1103 266.109 17.7027 266.367 17.358C266.629 17.0099 266.992 16.7415 267.456 16.5526C267.923 16.3603 268.462 16.2642 269.072 16.2642C269.967 16.2642 270.671 16.4548 271.185 16.8359C271.702 17.2171 272.022 17.7325 272.144 18.3821ZM276.893 24.1491C276.128 24.1491 275.466 23.9901 274.909 23.6719C274.356 23.3504 273.93 22.8963 273.632 22.3097C273.333 21.7197 273.184 21.0253 273.184 20.2266C273.184 19.4411 273.333 18.7517 273.632 18.1584C273.933 17.5618 274.354 17.0978 274.895 16.7663C275.435 16.4316 276.07 16.2642 276.799 16.2642C277.269 16.2642 277.713 16.3404 278.131 16.4929C278.552 16.642 278.923 16.8741 279.245 17.1889C279.57 17.5038 279.825 17.9048 280.01 18.392C280.196 18.8759 280.289 19.4527 280.289 20.1222V20.674H274.029V19.4609H278.564C278.56 19.1162 278.486 18.8097 278.34 18.5412C278.194 18.2694 277.99 18.0556 277.728 17.8999C277.47 17.7441 277.168 17.6662 276.824 17.6662C276.456 17.6662 276.132 17.7557 275.854 17.9347C275.576 18.1103 275.359 18.3423 275.203 18.6307C275.05 18.9157 274.972 19.2289 274.969 19.5703V20.6293C274.969 21.0734 275.05 21.4545 275.213 21.7727C275.375 22.0876 275.602 22.3295 275.894 22.4986C276.186 22.6643 276.527 22.7472 276.918 22.7472C277.18 22.7472 277.417 22.7107 277.629 22.6378C277.841 22.5616 278.025 22.4505 278.181 22.3047C278.337 22.1589 278.454 21.9782 278.534 21.7628L280.214 21.9517C280.108 22.3958 279.906 22.7836 279.608 23.1151C279.313 23.4432 278.935 23.6984 278.474 23.8807C278.013 24.0597 277.486 24.1491 276.893 24.1491Z" fill="white"/>
</svg>
