<svg width="170" height="42" viewBox="0 0 170 42" fill="none" xmlns="http://www.w3.org/2000/svg">
<path d="M0 21C0 9.40202 9.40202 0 21 0H149C160.598 0 170 9.40202 170 21C170 32.598 160.598 42 149 42H21C9.40202 42 0 32.598 0 21Z" fill="#C4FF00"/>
<path d="M44.1681 19.8828H41.9905C41.9508 19.6011 41.8696 19.3509 41.7469 19.1321C41.6243 18.91 41.4669 18.7211 41.2746 18.5653C41.0824 18.4096 40.8603 18.2902 40.6084 18.2074C40.3599 18.1245 40.0897 18.0831 39.7981 18.0831C39.2711 18.0831 38.812 18.214 38.4209 18.4759C38.0298 18.7344 37.7266 19.1122 37.5111 19.6094C37.2957 20.1032 37.188 20.7031 37.188 21.4091C37.188 22.1349 37.2957 22.7448 37.5111 23.2386C37.7299 23.7325 38.0348 24.1054 38.4259 24.3572C38.817 24.6091 39.2694 24.7351 39.7832 24.7351C40.0715 24.7351 40.3383 24.697 40.5836 24.6207C40.8322 24.5445 41.0526 24.4335 41.2448 24.2876C41.437 24.1385 41.5961 23.9579 41.7221 23.7457C41.8513 23.5336 41.9408 23.2917 41.9905 23.0199L44.1681 23.0298C44.1118 23.4972 43.9709 23.9479 43.7455 24.3821C43.5235 24.813 43.2235 25.1991 42.8457 25.5405C42.4711 25.8786 42.0237 26.147 41.5033 26.3459C40.9863 26.5414 40.4013 26.6392 39.7484 26.6392C38.8402 26.6392 38.0282 26.4337 37.3123 26.0227C36.5997 25.6117 36.0362 25.0168 35.6219 24.2379C35.211 23.459 35.0055 22.5161 35.0055 21.4091C35.0055 20.2988 35.2143 19.3542 35.6319 18.5753C36.0495 17.7964 36.6163 17.2031 37.3322 16.7955C38.0481 16.3845 38.8535 16.179 39.7484 16.179C40.3383 16.179 40.8852 16.2618 41.389 16.4276C41.8961 16.5933 42.3452 16.8352 42.7363 17.1534C43.1274 17.4683 43.4456 17.8544 43.6908 18.3118C43.9394 18.7692 44.0985 19.2929 44.1681 19.8828ZM48.8423 26.6491C48.07 26.6491 47.4022 26.4851 46.8387 26.157C46.2786 25.8255 45.8461 25.3648 45.5412 24.7749C45.2362 24.1816 45.0838 23.4938 45.0838 22.7116C45.0838 21.9228 45.2362 21.2334 45.5412 20.6435C45.8461 20.0502 46.2786 19.5895 46.8387 19.2614C47.4022 18.9299 48.07 18.7642 48.8423 18.7642C49.6145 18.7642 50.2807 18.9299 50.8409 19.2614C51.4043 19.5895 51.8385 20.0502 52.1434 20.6435C52.4484 21.2334 52.6008 21.9228 52.6008 22.7116C52.6008 23.4938 52.4484 24.1816 52.1434 24.7749C51.8385 25.3648 51.4043 25.8255 50.8409 26.157C50.2807 26.4851 49.6145 26.6491 48.8423 26.6491ZM48.8522 25.0085C49.2036 25.0085 49.4969 24.9091 49.7322 24.7102C49.9675 24.508 50.1448 24.233 50.2642 23.8849C50.3868 23.5369 50.4481 23.1409 50.4481 22.6967C50.4481 22.2526 50.3868 21.8565 50.2642 21.5085C50.1448 21.1605 49.9675 20.8854 49.7322 20.6832C49.4969 20.4811 49.2036 20.38 48.8522 20.38C48.4976 20.38 48.1993 20.4811 47.9573 20.6832C47.7187 20.8854 47.5381 21.1605 47.4154 21.5085C47.2961 21.8565 47.2365 22.2526 47.2365 22.6967C47.2365 23.1409 47.2961 23.5369 47.4154 23.8849C47.5381 24.233 47.7187 24.508 47.9573 24.7102C48.1993 24.9091 48.4976 25.0085 48.8522 25.0085ZM55.8158 22.0852V26.5H53.6979V18.8636H55.7164V20.2109H55.8059C55.9749 19.7668 56.2583 19.4155 56.656 19.157C57.0538 18.8951 57.536 18.7642 58.1028 18.7642C58.6331 18.7642 59.0954 18.8802 59.4898 19.1122C59.8843 19.3442 60.1908 19.6757 60.4096 20.1065C60.6283 20.5341 60.7377 21.0445 60.7377 21.6378V26.5H58.6198V22.0156C58.6231 21.5483 58.5038 21.1837 58.2619 20.9219C58.0199 20.6567 57.6868 20.5241 57.2626 20.5241C56.9775 20.5241 56.7256 20.5855 56.5069 20.7081C56.2915 20.8307 56.1224 21.0097 55.9998 21.245C55.8805 21.477 55.8192 21.7571 55.8158 22.0852ZM64.2448 22.0852V26.5H62.1269V18.8636H64.1454V20.2109H64.2349C64.4039 19.7668 64.6873 19.4155 65.085 19.157C65.4828 18.8951 65.965 18.7642 66.5318 18.7642C67.0621 18.7642 67.5244 18.8802 67.9188 19.1122C68.3132 19.3442 68.6198 19.6757 68.8386 20.1065C69.0573 20.5341 69.1667 21.0445 69.1667 21.6378V26.5H67.0488V22.0156C67.0521 21.5483 66.9328 21.1837 66.6908 20.9219C66.4489 20.6567 66.1158 20.5241 65.6916 20.5241C65.4065 20.5241 65.1546 20.5855 64.9359 20.7081C64.7204 20.8307 64.5514 21.0097 64.4288 21.245C64.3095 21.477 64.2481 21.7571 64.2448 22.0852ZM74.036 26.6491C73.2505 26.6491 72.5744 26.4901 72.0076 26.1719C71.4442 25.8504 71.01 25.3963 70.7051 24.8097C70.4001 24.2197 70.2477 23.522 70.2477 22.7166C70.2477 21.9311 70.4001 21.2417 70.7051 20.6484C71.01 20.0552 71.4392 19.5928 71.9927 19.2614C72.5495 18.9299 73.2025 18.7642 73.9515 18.7642C74.4553 18.7642 74.9243 18.8454 75.3585 19.0078C75.796 19.1669 76.1771 19.4072 76.5019 19.7287C76.8301 20.0502 77.0853 20.4545 77.2676 20.9418C77.4499 21.4257 77.541 21.9924 77.541 22.642V23.2237H71.0928V21.9112H75.5474C75.5474 21.6063 75.4811 21.3362 75.3485 21.1009C75.216 20.8655 75.032 20.6816 74.7967 20.549C74.5647 20.4131 74.2946 20.3452 73.9863 20.3452C73.6648 20.3452 73.3798 20.4197 73.1312 20.5689C72.8859 20.7147 72.6937 20.9119 72.5545 21.1605C72.4153 21.4058 72.344 21.6792 72.3407 21.9808V23.2287C72.3407 23.6065 72.4103 23.933 72.5495 24.2081C72.692 24.4832 72.8926 24.6953 73.1511 24.8445C73.4096 24.9936 73.7162 25.0682 74.0708 25.0682C74.3062 25.0682 74.5216 25.035 74.7171 24.9688C74.9127 24.9025 75.0801 24.803 75.2193 24.6705C75.3585 24.5379 75.4645 24.3755 75.5374 24.1832L77.4963 24.3125C77.3968 24.7831 77.193 25.1941 76.8847 25.5455C76.5798 25.8935 76.1854 26.1652 75.7015 26.3608C75.2209 26.553 74.6658 26.6491 74.036 26.6491ZM82.0934 26.6491C81.3112 26.6491 80.6384 26.4834 80.0749 26.152C79.5148 25.8172 79.0839 25.3532 78.7823 24.7599C78.484 24.1667 78.3349 23.4839 78.3349 22.7116C78.3349 21.9295 78.4857 21.2434 78.7873 20.6534C79.0922 20.0601 79.5247 19.5978 80.0849 19.2663C80.645 18.9316 81.3112 18.7642 82.0834 18.7642C82.7496 18.7642 83.333 18.8852 83.8334 19.1271C84.3339 19.3691 84.73 19.7088 85.0216 20.1463C85.3133 20.5838 85.4741 21.0975 85.5039 21.6875H83.5053C83.449 21.3063 83.2998 20.9998 83.0579 20.7678C82.8192 20.5324 82.506 20.4148 82.1182 20.4148C81.7901 20.4148 81.5034 20.5043 81.2582 20.6832C81.0162 20.8589 80.8273 21.1158 80.6914 21.4538C80.5555 21.7919 80.4876 22.2012 80.4876 22.6818C80.4876 23.169 80.5538 23.5833 80.6864 23.9247C80.8223 24.2661 81.0129 24.5263 81.2582 24.7053C81.5034 24.8842 81.7901 24.9737 82.1182 24.9737C82.3602 24.9737 82.5773 24.924 82.7695 24.8246C82.9651 24.7251 83.1258 24.581 83.2518 24.392C83.381 24.1998 83.4655 23.9695 83.5053 23.701H85.5039C85.4707 24.2843 85.3117 24.7981 85.0266 25.2422C84.7449 25.683 84.3555 26.0277 83.8583 26.2763C83.3611 26.5249 82.7728 26.6491 82.0934 26.6491ZM90.6417 18.8636V20.4545H86.043V18.8636H90.6417ZM87.087 17.0341H89.2049V24.1534C89.2049 24.349 89.2347 24.5014 89.2944 24.6108C89.354 24.7169 89.4369 24.7914 89.543 24.8345C89.6523 24.8776 89.7783 24.8991 89.9208 24.8991C90.0202 24.8991 90.1197 24.8909 90.2191 24.8743C90.3185 24.8544 90.3948 24.8395 90.4478 24.8295L90.7809 26.4055C90.6748 26.4387 90.5257 26.4768 90.3334 26.5199C90.1412 26.5663 89.9075 26.5945 89.6325 26.6044C89.122 26.6243 88.6746 26.5563 88.2901 26.4006C87.909 26.2448 87.6123 26.0028 87.4002 25.6747C87.1881 25.3466 87.0837 24.9323 87.087 24.4318V17.0341ZM97.0332 26.5L94.1199 16.3182H96.4714L98.1568 23.3928H98.2413L100.101 16.3182H102.114L103.969 23.4077H104.058L105.743 16.3182H108.095L105.182 26.5H103.084L101.145 19.843H101.065L99.1312 26.5H97.0332ZM110.285 26.6442C109.797 26.6442 109.363 26.5597 108.982 26.3906C108.601 26.2183 108.299 25.9647 108.077 25.63C107.859 25.2919 107.749 24.871 107.749 24.3672C107.749 23.9429 107.827 23.5866 107.983 23.2983C108.139 23.0099 108.351 22.7779 108.619 22.6023C108.888 22.4266 109.193 22.294 109.534 22.2045C109.879 22.1151 110.24 22.0521 110.618 22.0156C111.062 21.9692 111.42 21.9261 111.692 21.8864C111.963 21.8433 112.161 21.7803 112.283 21.6974C112.406 21.6146 112.467 21.492 112.467 21.3295V21.2997C112.467 20.9848 112.368 20.7412 112.169 20.5689C111.973 20.3965 111.695 20.3104 111.334 20.3104C110.952 20.3104 110.649 20.3949 110.424 20.5639C110.198 20.7296 110.049 20.9384 109.976 21.1903L108.018 21.0312C108.117 20.5672 108.313 20.1662 108.604 19.8281C108.896 19.4867 109.272 19.2249 109.733 19.0426C110.197 18.857 110.734 18.7642 111.344 18.7642C111.768 18.7642 112.174 18.8139 112.562 18.9134C112.953 19.0128 113.299 19.1669 113.601 19.3757C113.906 19.5845 114.146 19.853 114.322 20.1811C114.497 20.5059 114.585 20.8954 114.585 21.3494V26.5H112.577V25.4411H112.517C112.394 25.6797 112.23 25.8902 112.025 26.0724C111.819 26.2514 111.572 26.3923 111.284 26.495C110.996 26.5945 110.662 26.6442 110.285 26.6442ZM110.891 25.1825C111.203 25.1825 111.478 25.1212 111.716 24.9986C111.955 24.8726 112.142 24.7036 112.278 24.4915C112.414 24.2794 112.482 24.0391 112.482 23.7706V22.9602C112.416 23.0033 112.325 23.0431 112.209 23.0795C112.096 23.1127 111.968 23.1442 111.826 23.174C111.683 23.2005 111.541 23.2254 111.398 23.2486C111.256 23.2685 111.127 23.2867 111.01 23.3033C110.762 23.3397 110.545 23.3977 110.359 23.4773C110.174 23.5568 110.029 23.6645 109.927 23.8004C109.824 23.933 109.773 24.0987 109.773 24.2976C109.773 24.5859 109.877 24.8063 110.086 24.9588C110.298 25.108 110.566 25.1825 110.891 25.1825ZM118.066 16.3182V26.5H115.948V16.3182H118.066ZM121.601 16.3182V26.5H119.483V16.3182H121.601ZM126.497 26.6491C125.712 26.6491 125.036 26.4901 124.469 26.1719C123.905 25.8504 123.471 25.3963 123.166 24.8097C122.861 24.2197 122.709 23.522 122.709 22.7166C122.709 21.9311 122.861 21.2417 123.166 20.6484C123.471 20.0552 123.9 19.5928 124.454 19.2614C125.011 18.9299 125.664 18.7642 126.413 18.7642C126.916 18.7642 127.385 18.8454 127.82 19.0078C128.257 19.1669 128.638 19.4072 128.963 19.7287C129.291 20.0502 129.546 20.4545 129.729 20.9418C129.911 21.4257 130.002 21.9924 130.002 22.642V23.2237H123.554V21.9112H128.009C128.009 21.6063 127.942 21.3362 127.81 21.1009C127.677 20.8655 127.493 20.6816 127.258 20.549C127.026 20.4131 126.756 20.3452 126.447 20.3452C126.126 20.3452 125.841 20.4197 125.592 20.5689C125.347 20.7147 125.155 20.9119 125.016 21.1605C124.876 21.4058 124.805 21.6792 124.802 21.9808V23.2287C124.802 23.6065 124.871 23.933 125.011 24.2081C125.153 24.4832 125.354 24.6953 125.612 24.8445C125.871 24.9936 126.177 25.0682 126.532 25.0682C126.767 25.0682 126.983 25.035 127.178 24.9688C127.374 24.9025 127.541 24.803 127.68 24.6705C127.82 24.5379 127.926 24.3755 127.999 24.1832L129.957 24.3125C129.858 24.7831 129.654 25.1941 129.346 25.5455C129.041 25.8935 128.647 26.1652 128.163 26.3608C127.682 26.553 127.127 26.6491 126.497 26.6491ZM135.166 18.8636V20.4545H130.567V18.8636H135.166ZM131.611 17.0341H133.729V24.1534C133.729 24.349 133.759 24.5014 133.819 24.6108C133.878 24.7169 133.961 24.7914 134.067 24.8345C134.177 24.8776 134.303 24.8991 134.445 24.8991C134.545 24.8991 134.644 24.8909 134.743 24.8743C134.843 24.8544 134.919 24.8395 134.972 24.8295L135.305 26.4055C135.199 26.4387 135.05 26.4768 134.858 26.5199C134.666 26.5663 134.432 26.5945 134.157 26.6044C133.646 26.6243 133.199 26.5563 132.814 26.4006C132.433 26.2448 132.137 26.0028 131.925 25.6747C131.712 25.3466 131.608 24.9323 131.611 24.4318V17.0341Z" fill="#242424"/>
</svg>
