<svg width="358" height="52" viewBox="0 0 358 52" fill="none" xmlns="http://www.w3.org/2000/svg">
<path d="M0 24C0 10.7452 10.7452 0 24 0H334C347.255 0 358 10.7452 358 24V28C358 41.2548 347.255 52 334 52H24C10.7452 52 0 41.2548 0 28V24Z" fill="#C4FF00"/>
<path d="M145.407 31.5L142.077 19.8636H144.765L146.691 27.9489H146.788L148.913 19.8636H151.214L153.333 27.9659H153.435L155.361 19.8636H158.049L154.719 31.5H152.322L150.106 23.892H150.015L147.805 31.5H145.407ZM159 31.5V22.7727H161.421V31.5H159ZM160.216 21.6477C159.856 21.6477 159.548 21.5284 159.29 21.2898C159.036 21.0473 158.909 20.7576 158.909 20.4205C158.909 20.0871 159.036 19.8011 159.29 19.5625C159.548 19.3201 159.856 19.1989 160.216 19.1989C160.576 19.1989 160.883 19.3201 161.137 19.5625C161.394 19.8011 161.523 20.0871 161.523 20.4205C161.523 20.7576 161.394 21.0473 161.137 21.2898C160.883 21.5284 160.576 21.6477 160.216 21.6477ZM167.682 22.7727V24.5909H162.426V22.7727H167.682ZM163.619 20.6818H166.04V28.8182C166.04 29.0417 166.074 29.2159 166.142 29.3409C166.21 29.4621 166.305 29.5473 166.426 29.5966C166.551 29.6458 166.695 29.6705 166.858 29.6705C166.971 29.6705 167.085 29.661 167.199 29.642C167.312 29.6193 167.4 29.6023 167.46 29.5909L167.841 31.392C167.72 31.4299 167.549 31.4735 167.329 31.5227C167.11 31.5758 166.843 31.608 166.528 31.6193C165.945 31.642 165.434 31.5644 164.994 31.3864C164.559 31.2083 164.22 30.9318 163.977 30.5568C163.735 30.1818 163.615 29.7083 163.619 29.1364V20.6818ZM171.546 26.4545V31.5H169.126V19.8636H171.478V24.3125H171.58C171.777 23.7973 172.096 23.3939 172.535 23.1023C172.974 22.8068 173.526 22.6591 174.188 22.6591C174.794 22.6591 175.323 22.7917 175.774 23.0568C176.228 23.3182 176.58 23.6951 176.83 24.1875C177.084 24.6761 177.209 25.2614 177.205 25.9432V31.5H174.785V26.375C174.789 25.8371 174.652 25.4186 174.376 25.1193C174.103 24.8201 173.721 24.6705 173.228 24.6705C172.899 24.6705 172.607 24.7405 172.353 24.8807C172.103 25.0208 171.906 25.2254 171.762 25.4943C171.622 25.7595 171.55 26.0795 171.546 26.4545ZM182.006 31.642C181.343 31.642 180.743 31.4716 180.205 31.1307C179.671 30.786 179.247 30.2803 178.932 29.6136C178.622 28.9432 178.466 28.1212 178.466 27.1477C178.466 26.1477 178.627 25.3163 178.949 24.6534C179.271 23.9867 179.699 23.4886 180.233 23.1591C180.771 22.8258 181.36 22.6591 182.001 22.6591C182.489 22.6591 182.896 22.7424 183.222 22.9091C183.552 23.072 183.817 23.2765 184.018 23.5227C184.222 23.7652 184.377 24.0038 184.483 24.2386H184.557V19.8636H186.972V31.5H184.586V30.1023H184.483C184.37 30.3447 184.209 30.5852 184.001 30.8239C183.796 31.0587 183.529 31.2538 183.199 31.4091C182.874 31.5644 182.476 31.642 182.006 31.642ZM182.773 29.7159C183.163 29.7159 183.493 29.6098 183.762 29.3977C184.035 29.1818 184.243 28.8807 184.387 28.4943C184.535 28.108 184.608 27.6553 184.608 27.1364C184.608 26.6174 184.536 26.1667 184.393 25.7841C184.249 25.4015 184.04 25.1061 183.768 24.8977C183.495 24.6894 183.163 24.5852 182.773 24.5852C182.376 24.5852 182.04 24.6932 181.768 24.9091C181.495 25.125 181.288 25.4242 181.148 25.8068C181.008 26.1894 180.938 26.6326 180.938 27.1364C180.938 27.6439 181.008 28.0928 181.148 28.483C181.292 28.8693 181.499 29.1723 181.768 29.392C182.04 29.608 182.376 29.7159 182.773 29.7159ZM188.642 31.5V22.7727H190.989V24.2955H191.08C191.239 23.7538 191.506 23.3447 191.881 23.0682C192.256 22.7879 192.688 22.6477 193.176 22.6477C193.297 22.6477 193.428 22.6553 193.568 22.6705C193.708 22.6856 193.832 22.7064 193.938 22.733V24.8807C193.824 24.8466 193.667 24.8163 193.466 24.7898C193.265 24.7633 193.082 24.75 192.915 24.75C192.559 24.75 192.241 24.8277 191.96 24.983C191.684 25.1345 191.464 25.3466 191.301 25.6193C191.142 25.892 191.063 26.2064 191.063 26.5625V31.5H188.642ZM197.108 31.6648C196.551 31.6648 196.055 31.5682 195.619 31.375C195.183 31.178 194.839 30.8883 194.585 30.5057C194.335 30.1193 194.21 29.6383 194.21 29.0625C194.21 28.5777 194.299 28.1705 194.477 27.8409C194.655 27.5114 194.897 27.2462 195.204 27.0455C195.511 26.8447 195.86 26.6932 196.25 26.5909C196.644 26.4886 197.057 26.4167 197.488 26.375C197.996 26.322 198.405 26.2727 198.716 26.2273C199.026 26.178 199.252 26.1061 199.392 26.0114C199.532 25.9167 199.602 25.7765 199.602 25.5909V25.5568C199.602 25.197 199.488 24.9186 199.261 24.7216C199.038 24.5246 198.719 24.4261 198.307 24.4261C197.871 24.4261 197.524 24.5227 197.267 24.7159C197.009 24.9053 196.839 25.1439 196.755 25.4318L194.517 25.25C194.63 24.7197 194.854 24.2614 195.187 23.875C195.521 23.4848 195.95 23.1856 196.477 22.9773C197.007 22.7652 197.621 22.6591 198.318 22.6591C198.803 22.6591 199.267 22.7159 199.71 22.8295C200.157 22.9432 200.553 23.1193 200.897 23.358C201.246 23.5966 201.521 23.9034 201.721 24.2784C201.922 24.6496 202.022 25.0947 202.022 25.6136V31.5H199.727V30.2898H199.659C199.519 30.5625 199.331 30.803 199.096 31.0114C198.861 31.2159 198.579 31.3769 198.25 31.4943C197.92 31.608 197.539 31.6648 197.108 31.6648ZM197.801 29.9943C198.157 29.9943 198.471 29.9242 198.744 29.7841C199.017 29.6402 199.231 29.447 199.386 29.2045C199.541 28.9621 199.619 28.6875 199.619 28.3807V27.4545C199.543 27.5038 199.439 27.5492 199.307 27.5909C199.178 27.6288 199.032 27.6648 198.869 27.6989C198.706 27.7292 198.543 27.7576 198.38 27.7841C198.218 27.8068 198.07 27.8277 197.937 27.8466C197.653 27.8883 197.405 27.9545 197.193 28.0455C196.981 28.1364 196.816 28.2595 196.699 28.4148C196.581 28.5663 196.522 28.7557 196.522 28.983C196.522 29.3125 196.642 29.5644 196.88 29.7386C197.123 29.9091 197.43 29.9943 197.801 29.9943ZM205.302 31.5L202.927 22.7727H205.376L206.728 28.6364H206.808L208.217 22.7727H210.62L212.052 28.6023H212.126L213.455 22.7727H215.898L213.529 31.5H210.967L209.467 26.0114H209.359L207.859 31.5H205.302Z" fill="#242424"/>
</svg>
