<svg width="390" height="263" viewBox="0 0 390 263" fill="none" xmlns="http://www.w3.org/2000/svg">
<g clip-path="url(#clip0_87_3913)">
<path d="M0 24C0 10.7451 10.7452 0 24 0H366C379.255 0 390 10.7452 390 24V565H0V24Z" fill="#15151A"/>
<path d="M132.736 49.326H130.346C130.277 48.9339 130.152 48.5866 129.968 48.2841C129.785 47.9773 129.557 47.7173 129.284 47.5043C129.012 47.2912 128.701 47.1314 128.351 47.0249C128.006 46.9141 127.633 46.8587 127.233 46.8587C126.521 46.8587 125.89 47.0376 125.341 47.3956C124.791 47.7493 124.36 48.2692 124.049 48.9553C123.738 49.6371 123.583 50.4702 123.583 51.4545C123.583 52.456 123.738 53.2997 124.049 53.9858C124.365 54.6676 124.795 55.1832 125.341 55.5327C125.89 55.8778 126.519 56.0504 127.226 56.0504C127.618 56.0504 127.985 55.9993 128.326 55.897C128.671 55.7905 128.98 55.6349 129.253 55.4304C129.529 55.2259 129.762 54.9744 129.949 54.6761C130.141 54.3778 130.273 54.0369 130.346 53.6534L132.736 53.6662C132.647 54.2884 132.453 54.8722 132.154 55.4176C131.86 55.9631 131.475 56.4446 130.998 56.8622C130.52 57.2756 129.962 57.5994 129.323 57.8338C128.684 58.0639 127.974 58.179 127.194 58.179C126.044 58.179 125.017 57.9126 124.113 57.38C123.21 56.8473 122.498 56.0781 121.978 55.0724C121.458 54.0668 121.199 52.8608 121.199 51.4545C121.199 50.044 121.461 48.8381 121.985 47.8366C122.509 46.831 123.223 46.0618 124.126 45.5291C125.029 44.9964 126.052 44.7301 127.194 44.7301C127.923 44.7301 128.601 44.8324 129.227 45.0369C129.853 45.2415 130.412 45.5419 130.902 45.9382C131.392 46.3303 131.794 46.8118 132.11 47.3828C132.429 47.9496 132.638 48.5973 132.736 49.326ZM136.76 52.2472V58H134.446V44.9091H136.708V49.8501H136.823C137.054 49.2962 137.409 48.8594 137.891 48.5398C138.377 48.2159 138.995 48.054 139.745 48.054C140.426 48.054 141.021 48.1967 141.528 48.4822C142.035 48.7678 142.427 49.1854 142.704 49.7351C142.985 50.2848 143.126 50.956 143.126 51.7486V58H140.812V52.1065C140.812 51.446 140.642 50.9325 140.301 50.5661C139.964 50.1953 139.491 50.0099 138.882 50.0099C138.473 50.0099 138.106 50.0994 137.782 50.2784C137.463 50.4531 137.211 50.7067 137.028 51.0391C136.849 51.3714 136.76 51.7741 136.76 52.2472ZM147.95 58.1982C147.328 58.1982 146.767 58.0874 146.269 57.8658C145.775 57.6399 145.382 57.3075 145.093 56.8686C144.807 56.4297 144.664 55.8885 144.664 55.245C144.664 54.6911 144.767 54.233 144.971 53.8707C145.176 53.5085 145.455 53.2188 145.809 53.0014C146.162 52.7841 146.561 52.62 147.004 52.5092C147.451 52.3942 147.914 52.3111 148.391 52.2599C148.966 52.2003 149.433 52.147 149.791 52.1001C150.149 52.049 150.409 51.9723 150.571 51.87C150.737 51.7635 150.82 51.5994 150.82 51.3778V51.3395C150.82 50.858 150.677 50.4851 150.392 50.2209C150.106 49.9567 149.695 49.8246 149.158 49.8246C148.591 49.8246 148.142 49.9482 147.809 50.1953C147.481 50.4425 147.26 50.7344 147.145 51.071L144.984 50.7642C145.154 50.1676 145.436 49.669 145.828 49.2685C146.22 48.8636 146.699 48.5611 147.266 48.3608C147.833 48.1562 148.459 48.054 149.145 48.054C149.618 48.054 150.089 48.1094 150.558 48.2202C151.027 48.331 151.455 48.5142 151.843 48.7699C152.23 49.0213 152.542 49.3643 152.776 49.799C153.015 50.2337 153.134 50.777 153.134 51.429V58H150.909V56.6513H150.833C150.692 56.924 150.494 57.1797 150.238 57.4183C149.987 57.6527 149.669 57.8423 149.286 57.9872C148.907 58.1278 148.461 58.1982 147.95 58.1982ZM148.551 56.4979C149.015 56.4979 149.418 56.4062 149.759 56.223C150.1 56.0355 150.362 55.7884 150.545 55.4815C150.733 55.1747 150.826 54.8402 150.826 54.478V53.321C150.754 53.3807 150.63 53.4361 150.456 53.4872C150.285 53.5384 150.093 53.5831 149.88 53.6214C149.667 53.6598 149.456 53.6939 149.248 53.7237C149.039 53.7536 148.858 53.7791 148.704 53.8004C148.359 53.8473 148.05 53.924 147.777 54.0305C147.505 54.1371 147.289 54.2862 147.132 54.478C146.974 54.6655 146.895 54.9084 146.895 55.2067C146.895 55.6328 147.051 55.9545 147.362 56.1719C147.673 56.3892 148.069 56.4979 148.551 56.4979ZM157.415 52.2472V58H155.101V48.1818H157.312V49.8501H157.427C157.653 49.3004 158.013 48.8636 158.508 48.5398C159.006 48.2159 159.622 48.054 160.355 48.054C161.032 48.054 161.623 48.1989 162.125 48.4886C162.633 48.7784 163.025 49.1982 163.302 49.7479C163.583 50.2976 163.721 50.9645 163.717 51.7486V58H161.403V52.1065C161.403 51.4503 161.233 50.9368 160.892 50.5661C160.555 50.1953 160.089 50.0099 159.492 50.0099C159.087 50.0099 158.727 50.0994 158.412 50.2784C158.101 50.4531 157.856 50.7067 157.677 51.0391C157.502 51.3714 157.415 51.7741 157.415 52.2472ZM169.979 61.8864C169.148 61.8864 168.434 61.7734 167.838 61.5476C167.241 61.326 166.762 61.0277 166.4 60.6527C166.037 60.2777 165.786 59.8622 165.645 59.4062L167.729 58.9013C167.823 59.093 167.959 59.2827 168.138 59.4702C168.317 59.6619 168.558 59.8196 168.861 59.9432C169.167 60.071 169.553 60.1349 170.018 60.1349C170.674 60.1349 171.217 59.9751 171.648 59.6555C172.078 59.3402 172.293 58.8203 172.293 58.0959V56.2358H172.178C172.059 56.4744 171.884 56.7195 171.654 56.9709C171.428 57.2223 171.128 57.4332 170.753 57.6037C170.382 57.7741 169.915 57.8594 169.353 57.8594C168.599 57.8594 167.915 57.6825 167.301 57.3288C166.692 56.9709 166.206 56.4382 165.844 55.7308C165.486 55.0192 165.307 54.1286 165.307 53.0589C165.307 51.9808 165.486 51.071 165.844 50.3295C166.206 49.5838 166.694 49.0192 167.307 48.6357C167.921 48.2479 168.605 48.054 169.359 48.054C169.934 48.054 170.408 48.152 170.778 48.348C171.153 48.5398 171.452 48.772 171.673 49.0447C171.895 49.3132 172.063 49.5668 172.178 49.8054H172.306V48.1818H174.588V58.1598C174.588 58.9993 174.388 59.6939 173.987 60.2436C173.586 60.7933 173.039 61.2045 172.344 61.4773C171.65 61.75 170.861 61.8864 169.979 61.8864ZM169.998 56.044C170.488 56.044 170.906 55.9247 171.251 55.6861C171.596 55.4474 171.858 55.1044 172.037 54.657C172.216 54.2095 172.306 53.6726 172.306 53.0462C172.306 52.4283 172.216 51.8871 172.037 51.4226C171.863 50.9581 171.603 50.598 171.258 50.3423C170.917 50.0824 170.497 49.9524 169.998 49.9524C169.483 49.9524 169.052 50.0866 168.707 50.3551C168.362 50.6236 168.102 50.9922 167.927 51.4609C167.753 51.9254 167.665 52.4538 167.665 53.0462C167.665 53.647 167.753 54.1733 167.927 54.625C168.106 55.0724 168.368 55.4219 168.714 55.6733C169.063 55.9205 169.491 56.044 169.998 56.044ZM180.946 58.1918C179.962 58.1918 179.111 57.9872 178.396 57.5781C177.684 57.1648 177.136 56.581 176.753 55.8267C176.369 55.0682 176.177 54.1754 176.177 53.1484C176.177 52.1385 176.369 51.2521 176.753 50.4893C177.141 49.7223 177.682 49.1257 178.376 48.6996C179.071 48.2692 179.887 48.054 180.824 48.054C181.43 48.054 182.001 48.152 182.538 48.348C183.079 48.5398 183.556 48.8381 183.969 49.2429C184.387 49.6477 184.715 50.1634 184.954 50.7898C185.192 51.4119 185.312 52.1534 185.312 53.0142V53.7237H177.264V52.1641H183.094C183.089 51.7209 182.994 51.3267 182.806 50.9815C182.619 50.6321 182.356 50.3572 182.02 50.157C181.687 49.9567 181.3 49.8565 180.856 49.8565C180.383 49.8565 179.968 49.9716 179.61 50.2017C179.252 50.4276 178.973 50.7259 178.773 51.0966C178.577 51.4631 178.476 51.8658 178.472 52.3047V53.6662C178.472 54.2372 178.577 54.7273 178.785 55.1364C178.994 55.5412 179.286 55.8523 179.661 56.0696C180.036 56.2827 180.475 56.3892 180.978 56.3892C181.315 56.3892 181.619 56.3423 181.892 56.2486C182.165 56.1506 182.401 56.0078 182.601 55.8203C182.802 55.6328 182.953 55.4006 183.055 55.1236L185.216 55.3665C185.079 55.9375 184.82 56.4361 184.436 56.8622C184.057 57.2841 183.571 57.6122 182.979 57.8466C182.386 58.0767 181.709 58.1918 180.946 58.1918ZM193.328 44.9091V58H191.014V44.9091H193.328ZM198.173 58.1982C197.551 58.1982 196.99 58.0874 196.492 57.8658C195.997 57.6399 195.605 57.3075 195.316 56.8686C195.03 56.4297 194.887 55.8885 194.887 55.245C194.887 54.6911 194.99 54.233 195.194 53.8707C195.399 53.5085 195.678 53.2188 196.031 53.0014C196.385 52.7841 196.784 52.62 197.227 52.5092C197.674 52.3942 198.137 52.3111 198.614 52.2599C199.189 52.2003 199.656 52.147 200.014 52.1001C200.372 52.049 200.632 51.9723 200.793 51.87C200.96 51.7635 201.043 51.5994 201.043 51.3778V51.3395C201.043 50.858 200.9 50.4851 200.615 50.2209C200.329 49.9567 199.918 49.8246 199.381 49.8246C198.814 49.8246 198.365 49.9482 198.032 50.1953C197.704 50.4425 197.482 50.7344 197.367 51.071L195.207 50.7642C195.377 50.1676 195.659 49.669 196.051 49.2685C196.443 48.8636 196.922 48.5611 197.489 48.3608C198.056 48.1562 198.682 48.054 199.368 48.054C199.841 48.054 200.312 48.1094 200.781 48.2202C201.249 48.331 201.678 48.5142 202.066 48.7699C202.453 49.0213 202.764 49.3643 202.999 49.799C203.237 50.2337 203.357 50.777 203.357 51.429V58H201.132V56.6513H201.056C200.915 56.924 200.717 57.1797 200.461 57.4183C200.21 57.6527 199.892 57.8423 199.509 57.9872C199.129 58.1278 198.684 58.1982 198.173 58.1982ZM198.774 56.4979C199.238 56.4979 199.641 56.4062 199.982 56.223C200.323 56.0355 200.585 55.7884 200.768 55.4815C200.955 55.1747 201.049 54.8402 201.049 54.478V53.321C200.977 53.3807 200.853 53.4361 200.678 53.4872C200.508 53.5384 200.316 53.5831 200.103 53.6214C199.89 53.6598 199.679 53.6939 199.47 53.7237C199.262 53.7536 199.08 53.7791 198.927 53.8004C198.582 53.8473 198.273 53.924 198 54.0305C197.727 54.1371 197.512 54.2862 197.355 54.478C197.197 54.6655 197.118 54.9084 197.118 55.2067C197.118 55.6328 197.274 55.9545 197.585 56.1719C197.896 56.3892 198.292 56.4979 198.774 56.4979ZM207.637 52.2472V58H205.323V48.1818H207.535V49.8501H207.65C207.876 49.3004 208.236 48.8636 208.73 48.5398C209.229 48.2159 209.845 48.054 210.578 48.054C211.255 48.054 211.845 48.1989 212.348 48.4886C212.855 48.7784 213.247 49.1982 213.524 49.7479C213.806 50.2976 213.944 50.9645 213.94 51.7486V58H211.626V52.1065C211.626 51.4503 211.456 50.9368 211.115 50.5661C210.778 50.1953 210.311 50.0099 209.715 50.0099C209.31 50.0099 208.95 50.0994 208.634 50.2784C208.323 50.4531 208.078 50.7067 207.899 51.0391C207.725 51.3714 207.637 51.7741 207.637 52.2472ZM220.202 61.8864C219.371 61.8864 218.657 61.7734 218.061 61.5476C217.464 61.326 216.985 61.0277 216.623 60.6527C216.26 60.2777 216.009 59.8622 215.868 59.4062L217.952 58.9013C218.046 59.093 218.182 59.2827 218.361 59.4702C218.54 59.6619 218.781 59.8196 219.083 59.9432C219.39 60.071 219.776 60.1349 220.24 60.1349C220.897 60.1349 221.44 59.9751 221.87 59.6555C222.301 59.3402 222.516 58.8203 222.516 58.0959V56.2358H222.401C222.282 56.4744 222.107 56.7195 221.877 56.9709C221.651 57.2223 221.35 57.4332 220.975 57.6037C220.605 57.7741 220.138 57.8594 219.576 57.8594C218.821 57.8594 218.137 57.6825 217.524 57.3288C216.914 56.9709 216.429 56.4382 216.066 55.7308C215.708 55.0192 215.529 54.1286 215.529 53.0589C215.529 51.9808 215.708 51.071 216.066 50.3295C216.429 49.5838 216.917 49.0192 217.53 48.6357C218.144 48.2479 218.828 48.054 219.582 48.054C220.157 48.054 220.63 48.152 221.001 48.348C221.376 48.5398 221.674 48.772 221.896 49.0447C222.118 49.3132 222.286 49.5668 222.401 49.8054H222.529V48.1818H224.811V58.1598C224.811 58.9993 224.61 59.6939 224.21 60.2436C223.809 60.7933 223.262 61.2045 222.567 61.4773C221.873 61.75 221.084 61.8864 220.202 61.8864ZM220.221 56.044C220.711 56.044 221.129 55.9247 221.474 55.6861C221.819 55.4474 222.081 55.1044 222.26 54.657C222.439 54.2095 222.529 53.6726 222.529 53.0462C222.529 52.4283 222.439 51.8871 222.26 51.4226C222.086 50.9581 221.826 50.598 221.48 50.3423C221.14 50.0824 220.72 49.9524 220.221 49.9524C219.706 49.9524 219.275 50.0866 218.93 50.3551C218.585 50.6236 218.325 50.9922 218.15 51.4609C217.975 51.9254 217.888 52.4538 217.888 53.0462C217.888 53.647 217.975 54.1733 218.15 54.625C218.329 55.0724 218.591 55.4219 218.936 55.6733C219.286 55.9205 219.714 56.044 220.221 56.044ZM233.08 53.8707V48.1818H235.394V58H233.15V56.255H233.048C232.826 56.8047 232.462 57.2543 231.955 57.6037C231.452 57.9531 230.832 58.1278 230.095 58.1278C229.451 58.1278 228.883 57.9851 228.388 57.6996C227.898 57.4098 227.515 56.9901 227.238 56.4403C226.961 55.8864 226.822 55.2173 226.822 54.4332V48.1818H229.136V54.0753C229.136 54.6974 229.307 55.1918 229.647 55.5582C229.988 55.9247 230.436 56.108 230.99 56.108C231.331 56.108 231.661 56.0249 231.981 55.8587C232.3 55.6925 232.562 55.4453 232.767 55.1172C232.976 54.7848 233.08 54.3693 233.08 53.8707ZM240.239 58.1982C239.616 58.1982 239.056 58.0874 238.558 57.8658C238.063 57.6399 237.671 57.3075 237.381 56.8686C237.096 56.4297 236.953 55.8885 236.953 55.245C236.953 54.6911 237.055 54.233 237.26 53.8707C237.464 53.5085 237.744 53.2188 238.097 53.0014C238.451 52.7841 238.849 52.62 239.293 52.5092C239.74 52.3942 240.202 52.3111 240.68 52.2599C241.255 52.2003 241.722 52.147 242.08 52.1001C242.437 52.049 242.697 51.9723 242.859 51.87C243.026 51.7635 243.109 51.5994 243.109 51.3778V51.3395C243.109 50.858 242.966 50.4851 242.68 50.2209C242.395 49.9567 241.984 49.8246 241.447 49.8246C240.88 49.8246 240.43 49.9482 240.098 50.1953C239.77 50.4425 239.548 50.7344 239.433 51.071L237.273 50.7642C237.443 50.1676 237.724 49.669 238.116 49.2685C238.509 48.8636 238.988 48.5611 239.555 48.3608C240.121 48.1562 240.748 48.054 241.434 48.054C241.907 48.054 242.378 48.1094 242.847 48.2202C243.315 48.331 243.744 48.5142 244.131 48.7699C244.519 49.0213 244.83 49.3643 245.065 49.799C245.303 50.2337 245.423 50.777 245.423 51.429V58H243.198V56.6513H243.121C242.981 56.924 242.783 57.1797 242.527 57.4183C242.276 57.6527 241.958 57.8423 241.575 57.9872C241.195 58.1278 240.75 58.1982 240.239 58.1982ZM240.839 56.4979C241.304 56.4979 241.707 56.4062 242.048 56.223C242.388 56.0355 242.651 55.7884 242.834 55.4815C243.021 55.1747 243.115 54.8402 243.115 54.478V53.321C243.043 53.3807 242.919 53.4361 242.744 53.4872C242.574 53.5384 242.382 53.5831 242.169 53.6214C241.956 53.6598 241.745 53.6939 241.536 53.7237C241.327 53.7536 241.146 53.7791 240.993 53.8004C240.648 53.8473 240.339 53.924 240.066 54.0305C239.793 54.1371 239.578 54.2862 239.42 54.478C239.263 54.6655 239.184 54.9084 239.184 55.2067C239.184 55.6328 239.339 55.9545 239.651 56.1719C239.962 56.3892 240.358 56.4979 240.839 56.4979ZM251.659 61.8864C250.828 61.8864 250.114 61.7734 249.518 61.5476C248.921 61.326 248.442 61.0277 248.08 60.6527C247.717 60.2777 247.466 59.8622 247.325 59.4062L249.409 58.9013C249.503 59.093 249.639 59.2827 249.818 59.4702C249.997 59.6619 250.238 59.8196 250.541 59.9432C250.847 60.071 251.233 60.1349 251.698 60.1349C252.354 60.1349 252.897 59.9751 253.327 59.6555C253.758 59.3402 253.973 58.8203 253.973 58.0959V56.2358H253.858C253.739 56.4744 253.564 56.7195 253.334 56.9709C253.108 57.2223 252.808 57.4332 252.433 57.6037C252.062 57.7741 251.595 57.8594 251.033 57.8594C250.278 57.8594 249.595 57.6825 248.981 57.3288C248.372 56.9709 247.886 56.4382 247.524 55.7308C247.166 55.0192 246.987 54.1286 246.987 53.0589C246.987 51.9808 247.166 51.071 247.524 50.3295C247.886 49.5838 248.374 49.0192 248.987 48.6357C249.601 48.2479 250.285 48.054 251.039 48.054C251.614 48.054 252.087 48.152 252.458 48.348C252.833 48.5398 253.131 48.772 253.353 49.0447C253.575 49.3132 253.743 49.5668 253.858 49.8054H253.986V48.1818H256.268V58.1598C256.268 58.9993 256.068 59.6939 255.667 60.2436C255.266 60.7933 254.719 61.2045 254.024 61.4773C253.33 61.75 252.541 61.8864 251.659 61.8864ZM251.678 56.044C252.168 56.044 252.586 55.9247 252.931 55.6861C253.276 55.4474 253.538 55.1044 253.717 54.657C253.896 54.2095 253.986 53.6726 253.986 53.0462C253.986 52.4283 253.896 51.8871 253.717 51.4226C253.543 50.9581 253.283 50.598 252.938 50.3423C252.597 50.0824 252.177 49.9524 251.678 49.9524C251.163 49.9524 250.732 50.0866 250.387 50.3551C250.042 50.6236 249.782 50.9922 249.607 51.4609C249.433 51.9254 249.345 52.4538 249.345 53.0462C249.345 53.647 249.433 54.1733 249.607 54.625C249.786 55.0724 250.048 55.4219 250.394 55.6733C250.743 55.9205 251.171 56.044 251.678 56.044ZM262.626 58.1918C261.641 58.1918 260.791 57.9872 260.075 57.5781C259.364 57.1648 258.816 56.581 258.433 55.8267C258.049 55.0682 257.857 54.1754 257.857 53.1484C257.857 52.1385 258.049 51.2521 258.433 50.4893C258.82 49.7223 259.362 49.1257 260.056 48.6996C260.751 48.2692 261.567 48.054 262.504 48.054C263.11 48.054 263.681 48.152 264.217 48.348C264.759 48.5398 265.236 48.8381 265.649 49.2429C266.067 49.6477 266.395 50.1634 266.634 50.7898C266.872 51.4119 266.992 52.1534 266.992 53.0142V53.7237H258.944V52.1641H264.774C264.769 51.7209 264.673 51.3267 264.486 50.9815C264.298 50.6321 264.036 50.3572 263.7 50.157C263.367 49.9567 262.98 49.8565 262.536 49.8565C262.063 49.8565 261.648 49.9716 261.29 50.2017C260.932 50.4276 260.653 50.7259 260.453 51.0966C260.257 51.4631 260.156 51.8658 260.152 52.3047V53.6662C260.152 54.2372 260.257 54.7273 260.465 55.1364C260.674 55.5412 260.966 55.8523 261.341 56.0696C261.716 56.2827 262.155 56.3892 262.658 56.3892C262.994 56.3892 263.299 56.3423 263.572 56.2486C263.845 56.1506 264.081 56.0078 264.281 55.8203C264.482 55.6328 264.633 55.4006 264.735 55.1236L266.896 55.3665C266.759 55.9375 266.499 56.4361 266.116 56.8622C265.737 57.2841 265.251 57.6122 264.659 57.8466C264.066 58.0767 263.389 58.1918 262.626 58.1918Z" fill="white"/>
<rect x="50" y="93" width="68" height="37" rx="16" fill="#C4FF00" fill-opacity="0.2"/>
<path d="M61.1665 117V106.818H67.7887V108.364H63.011V111.129H67.4456V112.675H63.011V115.454H67.8285V117H61.1665ZM71.1106 112.526V117H69.3109V109.364H71.0311V110.661H71.1205C71.2962 110.234 71.5763 109.894 71.9607 109.642C72.3485 109.39 72.8275 109.264 73.3975 109.264C73.9245 109.264 74.3836 109.377 74.7747 109.602C75.1691 109.828 75.474 110.154 75.6894 110.582C75.9082 111.009 76.0159 111.528 76.0126 112.138V117H74.2129V112.416C74.2129 111.906 74.0803 111.506 73.8151 111.218C73.5533 110.93 73.1904 110.786 72.7264 110.786C72.4115 110.786 72.1314 110.855 71.8862 110.994C71.6442 111.13 71.4536 111.327 71.3144 111.586C71.1785 111.844 71.1106 112.158 71.1106 112.526ZM80.8832 120.023C80.2369 120.023 79.6817 119.935 79.2177 119.759C78.7537 119.587 78.3808 119.355 78.0991 119.063C77.8173 118.772 77.6218 118.448 77.5124 118.094L79.1332 117.701C79.2061 117.85 79.3121 117.998 79.4513 118.143C79.5905 118.293 79.7778 118.415 80.0131 118.511C80.2518 118.611 80.5517 118.661 80.913 118.661C81.4234 118.661 81.846 118.536 82.1807 118.288C82.5155 118.042 82.6829 117.638 82.6829 117.075V115.628H82.5934C82.5006 115.813 82.3647 116.004 82.1857 116.2C82.0101 116.395 81.7764 116.559 81.4847 116.692C81.1964 116.824 80.8334 116.891 80.3959 116.891C79.8093 116.891 79.2773 116.753 78.8001 116.478C78.3261 116.2 77.9483 115.785 77.6665 115.235C77.3881 114.682 77.2489 113.989 77.2489 113.157C77.2489 112.318 77.3881 111.611 77.6665 111.034C77.9483 110.454 78.3278 110.015 78.805 109.717C79.2823 109.415 79.8143 109.264 80.4009 109.264C80.8484 109.264 81.2163 109.34 81.5046 109.493C81.7963 109.642 82.0283 109.823 82.2006 110.035C82.373 110.244 82.5039 110.441 82.5934 110.626H82.6928V109.364H84.4677V117.124C84.4677 117.777 84.3119 118.317 84.0003 118.745C83.6888 119.173 83.2629 119.492 82.7226 119.705C82.1824 119.917 81.5692 120.023 80.8832 120.023ZM80.8981 115.479C81.2792 115.479 81.604 115.386 81.8725 115.2C82.141 115.015 82.3448 114.748 82.484 114.4C82.6232 114.052 82.6928 113.634 82.6928 113.147C82.6928 112.666 82.6232 112.246 82.484 111.884C82.3481 111.523 82.1459 111.243 81.8775 111.044C81.6123 110.842 81.2859 110.741 80.8981 110.741C80.497 110.741 80.1623 110.845 79.8938 111.054C79.6253 111.263 79.4232 111.549 79.2873 111.914C79.1514 112.275 79.0834 112.686 79.0834 113.147C79.0834 113.614 79.1514 114.024 79.2873 114.375C79.4265 114.723 79.6303 114.995 79.8988 115.19C80.1706 115.383 80.5037 115.479 80.8981 115.479ZM87.8319 106.818V117H86.0321V106.818H87.8319ZM89.4025 117V109.364H91.2022V117H89.4025ZM90.3074 108.28C90.0223 108.28 89.7771 108.185 89.5716 107.996C89.3661 107.804 89.2633 107.574 89.2633 107.305C89.2633 107.034 89.3661 106.803 89.5716 106.614C89.7771 106.422 90.0223 106.326 90.3074 106.326C90.5957 106.326 90.841 106.422 91.0432 106.614C91.2486 106.803 91.3514 107.034 91.3514 107.305C91.3514 107.574 91.2486 107.804 91.0432 107.996C90.841 108.185 90.5957 108.28 90.3074 108.28ZM98.8084 111.382L97.1678 111.561C97.1214 111.395 97.0402 111.24 96.9242 111.094C96.8115 110.948 96.659 110.83 96.4668 110.741C96.2746 110.651 96.0393 110.607 95.7608 110.607C95.3863 110.607 95.0715 110.688 94.8162 110.85C94.5643 111.013 94.4401 111.223 94.4434 111.482C94.4401 111.704 94.5213 111.884 94.687 112.023C94.856 112.163 95.1344 112.277 95.5222 112.366L96.8248 112.645C97.5473 112.801 98.0842 113.048 98.4356 113.386C98.7902 113.724 98.9692 114.166 98.9725 114.713C98.9692 115.194 98.8283 115.618 98.5499 115.986C98.2748 116.35 97.892 116.635 97.4015 116.841C96.9109 117.046 96.3475 117.149 95.7111 117.149C94.7765 117.149 94.0241 116.954 93.454 116.562C92.884 116.168 92.5442 115.62 92.4349 114.917L94.1898 114.748C94.2694 115.093 94.4384 115.353 94.6969 115.528C94.9554 115.704 95.2919 115.792 95.7062 115.792C96.1337 115.792 96.4768 115.704 96.7353 115.528C96.9971 115.353 97.128 115.136 97.128 114.877C97.128 114.658 97.0435 114.478 96.8745 114.335C96.7088 114.193 96.4502 114.083 96.0989 114.007L94.7964 113.734C94.0639 113.581 93.522 113.324 93.1706 112.963C92.8193 112.598 92.6453 112.138 92.6486 111.581C92.6453 111.11 92.7729 110.703 93.0314 110.358C93.2933 110.01 93.6562 109.741 94.1202 109.553C94.5876 109.36 95.1261 109.264 95.736 109.264C96.6309 109.264 97.3352 109.455 97.8489 109.836C98.366 110.217 98.6858 110.732 98.8084 111.382ZM101.976 112.526V117H100.177V106.818H101.936V110.661H102.026C102.205 110.23 102.482 109.891 102.856 109.642C103.234 109.39 103.715 109.264 104.298 109.264C104.828 109.264 105.291 109.375 105.685 109.597C106.079 109.819 106.384 110.144 106.6 110.572C106.819 110.999 106.928 111.521 106.928 112.138V117H105.128V112.416C105.128 111.902 104.996 111.503 104.73 111.218C104.469 110.93 104.101 110.786 103.627 110.786C103.309 110.786 103.024 110.855 102.772 110.994C102.523 111.13 102.328 111.327 102.185 111.586C102.046 111.844 101.976 112.158 101.976 112.526Z" fill="#C3FF00"/>
<rect x="123" y="93" width="72" height="37" rx="16" fill="#19191F"/>
<path d="M134.239 117V106.818H138.057C138.839 106.818 139.495 106.954 140.026 107.226C140.559 107.498 140.962 107.879 141.234 108.369C141.509 108.857 141.646 109.425 141.646 110.075C141.646 110.728 141.507 111.294 141.229 111.775C140.954 112.252 140.548 112.622 140.011 112.884C139.474 113.142 138.814 113.271 138.032 113.271H135.313V111.74H137.784C138.241 111.74 138.615 111.677 138.907 111.551C139.199 111.422 139.414 111.235 139.553 110.989C139.696 110.741 139.767 110.436 139.767 110.075C139.767 109.713 139.696 109.405 139.553 109.15C139.411 108.891 139.194 108.696 138.902 108.563C138.61 108.427 138.234 108.359 137.774 108.359H136.083V117H134.239ZM139.499 112.386L142.019 117H139.961L137.485 112.386H139.499ZM147.852 113.788V109.364H149.652V117H147.907V115.643H147.827C147.655 116.07 147.371 116.42 146.977 116.692C146.586 116.964 146.104 117.099 145.53 117.099C145.03 117.099 144.587 116.988 144.203 116.766C143.822 116.541 143.523 116.214 143.308 115.787C143.092 115.356 142.985 114.836 142.985 114.226V109.364H144.784V113.947C144.784 114.431 144.917 114.816 145.182 115.101C145.447 115.386 145.795 115.528 146.226 115.528C146.491 115.528 146.748 115.464 146.997 115.335C147.245 115.205 147.449 115.013 147.608 114.758C147.771 114.499 147.852 114.176 147.852 113.788ZM157.258 111.382L155.617 111.561C155.571 111.395 155.49 111.24 155.374 111.094C155.261 110.948 155.108 110.83 154.916 110.741C154.724 110.651 154.489 110.607 154.21 110.607C153.836 110.607 153.521 110.688 153.266 110.85C153.014 111.013 152.889 111.223 152.893 111.482C152.889 111.704 152.971 111.884 153.136 112.023C153.305 112.163 153.584 112.277 153.972 112.366L155.274 112.645C155.997 112.801 156.534 113.048 156.885 113.386C157.24 113.724 157.419 114.166 157.422 114.713C157.419 115.194 157.278 115.618 156.999 115.986C156.724 116.35 156.341 116.635 155.851 116.841C155.36 117.046 154.797 117.149 154.161 117.149C153.226 117.149 152.473 116.954 151.903 116.562C151.333 116.168 150.994 115.62 150.884 114.917L152.639 114.748C152.719 115.093 152.888 115.353 153.146 115.528C153.405 115.704 153.741 115.792 154.156 115.792C154.583 115.792 154.926 115.704 155.185 115.528C155.446 115.353 155.577 115.136 155.577 114.877C155.577 114.658 155.493 114.478 155.324 114.335C155.158 114.193 154.9 114.083 154.548 114.007L153.246 113.734C152.513 113.581 151.971 113.324 151.62 112.963C151.269 112.598 151.095 112.138 151.098 111.581C151.095 111.11 151.222 110.703 151.481 110.358C151.743 110.01 152.106 109.741 152.57 109.553C153.037 109.36 153.576 109.264 154.185 109.264C155.08 109.264 155.785 109.455 156.298 109.836C156.815 110.217 157.135 110.732 157.258 111.382ZM164.661 111.382L163.021 111.561C162.974 111.395 162.893 111.24 162.777 111.094C162.664 110.948 162.512 110.83 162.32 110.741C162.128 110.651 161.892 110.607 161.614 110.607C161.239 110.607 160.924 110.688 160.669 110.85C160.417 111.013 160.293 111.223 160.296 111.482C160.293 111.704 160.374 111.884 160.54 112.023C160.709 112.163 160.987 112.277 161.375 112.366L162.678 112.645C163.4 112.801 163.937 113.048 164.289 113.386C164.643 113.724 164.822 114.166 164.825 114.713C164.822 115.194 164.681 115.618 164.403 115.986C164.128 116.35 163.745 116.635 163.254 116.841C162.764 117.046 162.2 117.149 161.564 117.149C160.629 117.149 159.877 116.954 159.307 116.562C158.737 116.168 158.397 115.62 158.288 114.917L160.043 114.748C160.122 115.093 160.291 115.353 160.55 115.528C160.808 115.704 161.145 115.792 161.559 115.792C161.987 115.792 162.33 115.704 162.588 115.528C162.85 115.353 162.981 115.136 162.981 114.877C162.981 114.658 162.896 114.478 162.727 114.335C162.562 114.193 162.303 114.083 161.952 114.007L160.649 113.734C159.917 113.581 159.375 113.324 159.024 112.963C158.672 112.598 158.498 112.138 158.502 111.581C158.498 111.11 158.626 110.703 158.884 110.358C159.146 110.01 159.509 109.741 159.973 109.553C160.441 109.36 160.979 109.264 161.589 109.264C162.484 109.264 163.188 109.455 163.702 109.836C164.219 110.217 164.539 110.732 164.661 111.382ZM166.029 117V109.364H167.829V117H166.029ZM166.934 108.28C166.649 108.28 166.404 108.185 166.199 107.996C165.993 107.804 165.89 107.574 165.89 107.305C165.89 107.034 165.993 106.803 166.199 106.614C166.404 106.422 166.649 106.326 166.934 106.326C167.223 106.326 167.468 106.422 167.67 106.614C167.876 106.803 167.978 107.034 167.978 107.305C167.978 107.574 167.876 107.804 167.67 107.996C167.468 108.185 167.223 108.28 166.934 108.28ZM171.597 117.154C171.113 117.154 170.678 117.068 170.29 116.896C169.905 116.72 169.6 116.461 169.375 116.12C169.153 115.779 169.042 115.358 169.042 114.857C169.042 114.426 169.121 114.07 169.281 113.788C169.44 113.507 169.657 113.281 169.932 113.112C170.207 112.943 170.517 112.816 170.862 112.729C171.21 112.64 171.569 112.575 171.94 112.536C172.388 112.489 172.751 112.448 173.029 112.411C173.308 112.371 173.51 112.312 173.636 112.232C173.765 112.149 173.83 112.022 173.83 111.849V111.82C173.83 111.445 173.719 111.155 173.496 110.95C173.274 110.744 172.955 110.641 172.537 110.641C172.096 110.641 171.746 110.737 171.488 110.93C171.233 111.122 171.06 111.349 170.971 111.611L169.29 111.372C169.423 110.908 169.642 110.52 169.947 110.209C170.252 109.894 170.625 109.659 171.065 109.503C171.506 109.344 171.993 109.264 172.527 109.264C172.895 109.264 173.261 109.307 173.626 109.393C173.99 109.48 174.323 109.622 174.625 109.821C174.927 110.017 175.169 110.283 175.351 110.621C175.536 110.96 175.629 111.382 175.629 111.889V117H173.899V115.951H173.84C173.73 116.163 173.576 116.362 173.377 116.548C173.182 116.73 172.935 116.877 172.636 116.99C172.341 117.099 171.995 117.154 171.597 117.154ZM172.065 115.832C172.426 115.832 172.739 115.76 173.004 115.618C173.269 115.472 173.473 115.28 173.616 115.041C173.762 114.803 173.835 114.542 173.835 114.261V113.361C173.778 113.407 173.682 113.45 173.546 113.49C173.414 113.53 173.264 113.565 173.099 113.594C172.933 113.624 172.769 113.651 172.607 113.674C172.444 113.697 172.303 113.717 172.184 113.734C171.915 113.77 171.675 113.83 171.463 113.913C171.251 113.996 171.084 114.112 170.961 114.261C170.838 114.406 170.777 114.595 170.777 114.827C170.777 115.159 170.898 115.409 171.14 115.578C171.382 115.747 171.69 115.832 172.065 115.832ZM178.959 112.526V117H177.159V109.364H178.879V110.661H178.969C179.144 110.234 179.424 109.894 179.809 109.642C180.197 109.39 180.676 109.264 181.246 109.264C181.773 109.264 182.232 109.377 182.623 109.602C183.017 109.828 183.322 110.154 183.537 110.582C183.756 111.009 183.864 111.528 183.861 112.138V117H182.061V112.416C182.061 111.906 181.928 111.506 181.663 111.218C181.401 110.93 181.038 110.786 180.574 110.786C180.26 110.786 179.979 110.855 179.734 110.994C179.492 111.13 179.302 111.327 179.162 111.586C179.027 111.844 178.959 112.158 178.959 112.526Z" fill="white"/>
<rect x="200" y="93" width="62" height="37" rx="16" fill="#19191F"/>
<path d="M211.253 117V106.818H215.071C215.853 106.818 216.51 106.964 217.04 107.256C217.574 107.547 217.976 107.948 218.248 108.459C218.523 108.966 218.661 109.543 218.661 110.189C218.661 110.842 218.523 111.422 218.248 111.929C217.973 112.436 217.567 112.835 217.03 113.127C216.493 113.415 215.832 113.56 215.046 113.56H212.516V112.043H214.798C215.255 112.043 215.63 111.964 215.921 111.805C216.213 111.646 216.429 111.427 216.568 111.148C216.71 110.87 216.781 110.55 216.781 110.189C216.781 109.828 216.71 109.509 216.568 109.234C216.429 108.959 216.211 108.746 215.916 108.593C215.625 108.437 215.249 108.359 214.788 108.359H213.098V117H211.253ZM223.175 117.149C222.409 117.149 221.748 116.99 221.191 116.672C220.637 116.35 220.212 115.896 219.913 115.31C219.615 114.72 219.466 114.025 219.466 113.227C219.466 112.441 219.615 111.752 219.913 111.158C220.215 110.562 220.636 110.098 221.176 109.766C221.716 109.432 222.351 109.264 223.08 109.264C223.551 109.264 223.995 109.34 224.413 109.493C224.833 109.642 225.205 109.874 225.526 110.189C225.851 110.504 226.106 110.905 226.292 111.392C226.477 111.876 226.57 112.453 226.57 113.122V113.674H220.311V112.461H224.845C224.842 112.116 224.767 111.81 224.621 111.541C224.476 111.269 224.272 111.056 224.01 110.9C223.751 110.744 223.45 110.666 223.105 110.666C222.737 110.666 222.414 110.756 222.136 110.935C221.857 111.11 221.64 111.342 221.484 111.631C221.332 111.916 221.254 112.229 221.251 112.57V113.629C221.251 114.073 221.332 114.455 221.494 114.773C221.657 115.088 221.884 115.33 222.175 115.499C222.467 115.664 222.808 115.747 223.199 115.747C223.461 115.747 223.698 115.711 223.91 115.638C224.123 115.562 224.306 115.451 224.462 115.305C224.618 115.159 224.736 114.978 224.815 114.763L226.496 114.952C226.39 115.396 226.187 115.784 225.889 116.115C225.594 116.443 225.216 116.698 224.756 116.881C224.295 117.06 223.768 117.149 223.175 117.149ZM227.813 117V109.364H229.558V110.636H229.637C229.777 110.196 230.015 109.856 230.353 109.617C230.695 109.375 231.084 109.254 231.522 109.254C231.621 109.254 231.732 109.259 231.855 109.269C231.981 109.276 232.085 109.287 232.168 109.304V110.96C232.092 110.933 231.971 110.91 231.805 110.89C231.643 110.867 231.485 110.855 231.333 110.855C231.005 110.855 230.71 110.926 230.448 111.069C230.189 111.208 229.985 111.402 229.836 111.651C229.687 111.899 229.612 112.186 229.612 112.511V117H227.813ZM239.119 111.382L237.478 111.561C237.432 111.395 237.351 111.24 237.235 111.094C237.122 110.948 236.97 110.83 236.777 110.741C236.585 110.651 236.35 110.607 236.071 110.607C235.697 110.607 235.382 110.688 235.127 110.85C234.875 111.013 234.751 111.223 234.754 111.482C234.751 111.704 234.832 111.884 234.998 112.023C235.167 112.163 235.445 112.277 235.833 112.366L237.135 112.645C237.858 112.801 238.395 113.048 238.746 113.386C239.101 113.724 239.28 114.166 239.283 114.713C239.28 115.194 239.139 115.618 238.861 115.986C238.585 116.35 238.203 116.635 237.712 116.841C237.222 117.046 236.658 117.149 236.022 117.149C235.087 117.149 234.335 116.954 233.765 116.562C233.195 116.168 232.855 115.62 232.745 114.917L234.5 114.748C234.58 115.093 234.749 115.353 235.008 115.528C235.266 115.704 235.602 115.792 236.017 115.792C236.444 115.792 236.787 115.704 237.046 115.528C237.308 115.353 237.439 115.136 237.439 114.877C237.439 114.658 237.354 114.478 237.185 114.335C237.019 114.193 236.761 114.083 236.41 114.007L235.107 113.734C234.375 113.581 233.833 113.324 233.481 112.963C233.13 112.598 232.956 112.138 232.959 111.581C232.956 111.11 233.084 110.703 233.342 110.358C233.604 110.01 233.967 109.741 234.431 109.553C234.898 109.36 235.437 109.264 236.047 109.264C236.941 109.264 237.646 109.455 238.16 109.836C238.677 110.217 238.996 110.732 239.119 111.382ZM240.487 117V109.364H242.287V117H240.487ZM241.392 108.28C241.107 108.28 240.862 108.185 240.656 107.996C240.451 107.804 240.348 107.574 240.348 107.305C240.348 107.034 240.451 106.803 240.656 106.614C240.862 106.422 241.107 106.326 241.392 106.326C241.68 106.326 241.926 106.422 242.128 106.614C242.333 106.803 242.436 107.034 242.436 107.305C242.436 107.574 242.333 107.804 242.128 107.996C241.926 108.185 241.68 108.28 241.392 108.28ZM246.691 117.134C246.091 117.134 245.554 116.98 245.081 116.672C244.607 116.364 244.232 115.916 243.957 115.33C243.682 114.743 243.544 114.03 243.544 113.192C243.544 112.343 243.684 111.627 243.962 111.044C244.244 110.457 244.623 110.015 245.1 109.717C245.578 109.415 246.11 109.264 246.696 109.264C247.144 109.264 247.512 109.34 247.8 109.493C248.088 109.642 248.317 109.823 248.486 110.035C248.655 110.244 248.786 110.441 248.879 110.626H248.953V106.818H250.758V117H248.988V115.797H248.879C248.786 115.982 248.652 116.18 248.476 116.388C248.3 116.594 248.068 116.77 247.78 116.915C247.492 117.061 247.129 117.134 246.691 117.134ZM247.193 115.658C247.575 115.658 247.899 115.555 248.168 115.349C248.436 115.141 248.64 114.851 248.779 114.479C248.919 114.108 248.988 113.676 248.988 113.182C248.988 112.688 248.919 112.259 248.779 111.894C248.644 111.53 248.441 111.246 248.173 111.044C247.908 110.842 247.581 110.741 247.193 110.741C246.792 110.741 246.458 110.845 246.189 111.054C245.921 111.263 245.719 111.551 245.583 111.919C245.447 112.287 245.379 112.708 245.379 113.182C245.379 113.659 245.447 114.085 245.583 114.46C245.722 114.831 245.926 115.124 246.194 115.339C246.466 115.552 246.799 115.658 247.193 115.658Z" fill="white"/>
<rect x="267" y="93" width="74" height="37" rx="16" fill="#19191F"/>
<path d="M286.833 110.254H284.974C284.92 109.949 284.823 109.679 284.68 109.443C284.538 109.205 284.36 109.002 284.148 108.837C283.936 108.671 283.694 108.547 283.422 108.464C283.154 108.378 282.864 108.335 282.552 108.335C281.999 108.335 281.508 108.474 281.081 108.752C280.653 109.027 280.318 109.432 280.077 109.965C279.835 110.496 279.714 111.143 279.714 111.909C279.714 112.688 279.835 113.344 280.077 113.878C280.322 114.408 280.657 114.809 281.081 115.081C281.508 115.349 281.997 115.484 282.547 115.484C282.852 115.484 283.137 115.444 283.403 115.364C283.671 115.281 283.911 115.161 284.123 115.001C284.339 114.842 284.519 114.647 284.665 114.415C284.814 114.183 284.917 113.918 284.974 113.619L286.833 113.629C286.763 114.113 286.612 114.567 286.38 114.991C286.152 115.416 285.852 115.79 285.481 116.115C285.109 116.437 284.675 116.688 284.178 116.871C283.681 117.05 283.129 117.139 282.523 117.139C281.628 117.139 280.829 116.932 280.126 116.518C279.424 116.103 278.87 115.505 278.466 114.723C278.061 113.941 277.859 113.003 277.859 111.909C277.859 110.812 278.063 109.874 278.471 109.095C278.878 108.313 279.434 107.715 280.136 107.3C280.839 106.886 281.634 106.679 282.523 106.679C283.089 106.679 283.616 106.759 284.103 106.918C284.591 107.077 285.025 107.31 285.406 107.619C285.787 107.924 286.1 108.298 286.346 108.742C286.594 109.183 286.757 109.687 286.833 110.254ZM289.962 112.526V117H288.162V106.818H289.922V110.661H290.012C290.191 110.23 290.468 109.891 290.842 109.642C291.22 109.39 291.701 109.264 292.284 109.264C292.814 109.264 293.277 109.375 293.671 109.597C294.065 109.819 294.37 110.144 294.586 110.572C294.804 110.999 294.914 111.521 294.914 112.138V117H293.114V112.416C293.114 111.902 292.982 111.503 292.716 111.218C292.455 110.93 292.087 110.786 291.613 110.786C291.295 110.786 291.01 110.855 290.758 110.994C290.509 111.13 290.313 111.327 290.171 111.586C290.032 111.844 289.962 112.158 289.962 112.526ZM296.468 117V109.364H298.268V117H296.468ZM297.373 108.28C297.088 108.28 296.843 108.185 296.637 107.996C296.432 107.804 296.329 107.574 296.329 107.305C296.329 107.034 296.432 106.803 296.637 106.614C296.843 106.422 297.088 106.326 297.373 106.326C297.662 106.326 297.907 106.422 298.109 106.614C298.315 106.803 298.417 107.034 298.417 107.305C298.417 107.574 298.315 107.804 298.109 107.996C297.907 108.185 297.662 108.28 297.373 108.28ZM301.638 112.526V117H299.839V109.364H301.559V110.661H301.648C301.824 110.234 302.104 109.894 302.489 109.642C302.876 109.39 303.355 109.264 303.925 109.264C304.452 109.264 304.911 109.377 305.303 109.602C305.697 109.828 306.002 110.154 306.217 110.582C306.436 111.009 306.544 111.528 306.54 112.138V117H304.741V112.416C304.741 111.906 304.608 111.506 304.343 111.218C304.081 110.93 303.718 110.786 303.254 110.786C302.939 110.786 302.659 110.855 302.414 110.994C302.172 111.13 301.982 111.327 301.842 111.586C301.706 111.844 301.638 112.158 301.638 112.526ZM311.471 117.149C310.705 117.149 310.044 116.99 309.487 116.672C308.934 116.35 308.508 115.896 308.209 115.31C307.911 114.72 307.762 114.025 307.762 113.227C307.762 112.441 307.911 111.752 308.209 111.158C308.511 110.562 308.932 110.098 309.472 109.766C310.012 109.432 310.647 109.264 311.376 109.264C311.847 109.264 312.291 109.34 312.709 109.493C313.13 109.642 313.501 109.874 313.822 110.189C314.147 110.504 314.402 110.905 314.588 111.392C314.774 111.876 314.866 112.453 314.866 113.122V113.674H308.607V112.461H313.141C313.138 112.116 313.063 111.81 312.917 111.541C312.772 111.269 312.568 111.056 312.306 110.9C312.047 110.744 311.746 110.666 311.401 110.666C311.033 110.666 310.71 110.756 310.432 110.935C310.153 111.11 309.936 111.342 309.78 111.631C309.628 111.916 309.55 112.229 309.547 112.57V113.629C309.547 114.073 309.628 114.455 309.79 114.773C309.953 115.088 310.18 115.33 310.471 115.499C310.763 115.664 311.104 115.747 311.496 115.747C311.757 115.747 311.994 115.711 312.207 115.638C312.419 115.562 312.603 115.451 312.758 115.305C312.914 115.159 313.032 114.978 313.111 114.763L314.792 114.952C314.686 115.396 314.483 115.784 314.185 116.115C313.89 116.443 313.512 116.698 313.052 116.881C312.591 117.06 312.064 117.149 311.471 117.149ZM322.144 111.382L320.504 111.561C320.457 111.395 320.376 111.24 320.26 111.094C320.147 110.948 319.995 110.83 319.803 110.741C319.611 110.651 319.375 110.607 319.097 110.607C318.722 110.607 318.407 110.688 318.152 110.85C317.9 111.013 317.776 111.223 317.779 111.482C317.776 111.704 317.857 111.884 318.023 112.023C318.192 112.163 318.47 112.277 318.858 112.366L320.161 112.645C320.883 112.801 321.42 113.048 321.771 113.386C322.126 113.724 322.305 114.166 322.308 114.713C322.305 115.194 322.164 115.618 321.886 115.986C321.611 116.35 321.228 116.635 320.737 116.841C320.247 117.046 319.683 117.149 319.047 117.149C318.112 117.149 317.36 116.954 316.79 116.562C316.22 116.168 315.88 115.62 315.771 114.917L317.526 114.748C317.605 115.093 317.774 115.353 318.033 115.528C318.291 115.704 318.628 115.792 319.042 115.792C319.47 115.792 319.813 115.704 320.071 115.528C320.333 115.353 320.464 115.136 320.464 114.877C320.464 114.658 320.379 114.478 320.21 114.335C320.045 114.193 319.786 114.083 319.435 114.007L318.132 113.734C317.4 113.581 316.858 113.324 316.507 112.963C316.155 112.598 315.981 112.138 315.985 111.581C315.981 111.11 316.109 110.703 316.367 110.358C316.629 110.01 316.992 109.741 317.456 109.553C317.923 109.36 318.462 109.264 319.072 109.264C319.967 109.264 320.671 109.455 321.185 109.836C321.702 110.217 322.022 110.732 322.144 111.382ZM326.893 117.149C326.128 117.149 325.466 116.99 324.909 116.672C324.356 116.35 323.93 115.896 323.632 115.31C323.333 114.72 323.184 114.025 323.184 113.227C323.184 112.441 323.333 111.752 323.632 111.158C323.933 110.562 324.354 110.098 324.895 109.766C325.435 109.432 326.07 109.264 326.799 109.264C327.269 109.264 327.713 109.34 328.131 109.493C328.552 109.642 328.923 109.874 329.245 110.189C329.57 110.504 329.825 110.905 330.01 111.392C330.196 111.876 330.289 112.453 330.289 113.122V113.674H324.029V112.461H328.564C328.56 112.116 328.486 111.81 328.34 111.541C328.194 111.269 327.99 111.056 327.728 110.9C327.47 110.744 327.168 110.666 326.824 110.666C326.456 110.666 326.132 110.756 325.854 110.935C325.576 111.11 325.359 111.342 325.203 111.631C325.05 111.916 324.972 112.229 324.969 112.57V113.629C324.969 114.073 325.05 114.455 325.213 114.773C325.375 115.088 325.602 115.33 325.894 115.499C326.186 115.664 326.527 115.747 326.918 115.747C327.18 115.747 327.417 115.711 327.629 115.638C327.841 115.562 328.025 115.451 328.181 115.305C328.337 115.159 328.454 114.978 328.534 114.763L330.214 114.952C330.108 115.396 329.906 115.784 329.608 116.115C329.313 116.443 328.935 116.698 328.474 116.881C328.013 117.06 327.486 117.149 326.893 117.149Z" fill="white"/>
<path d="M16 211C16 197.745 26.7452 187 40 187H350C363.255 187 374 197.745 374 211V215C374 228.255 363.255 239 350 239H40C26.7452 239 16 228.255 16 215V211Z" fill="#C4FF00"/>
<path d="M184.543 210.938H182.055C182.009 210.616 181.917 210.33 181.776 210.08C181.636 209.826 181.456 209.61 181.237 209.432C181.017 209.254 180.763 209.117 180.475 209.023C180.191 208.928 179.882 208.881 179.549 208.881C178.947 208.881 178.422 209.03 177.975 209.33C177.528 209.625 177.182 210.057 176.935 210.625C176.689 211.189 176.566 211.875 176.566 212.682C176.566 213.511 176.689 214.208 176.935 214.773C177.185 215.337 177.534 215.763 177.981 216.051C178.428 216.339 178.945 216.483 179.532 216.483C179.862 216.483 180.167 216.439 180.447 216.352C180.731 216.265 180.983 216.138 181.202 215.972C181.422 215.801 181.604 215.595 181.748 215.352C181.896 215.11 181.998 214.833 182.055 214.523L184.543 214.534C184.479 215.068 184.318 215.583 184.06 216.08C183.807 216.572 183.464 217.013 183.032 217.403C182.604 217.79 182.093 218.097 181.498 218.324C180.907 218.547 180.238 218.659 179.492 218.659C178.454 218.659 177.526 218.424 176.708 217.955C175.894 217.485 175.25 216.805 174.776 215.915C174.307 215.025 174.072 213.947 174.072 212.682C174.072 211.413 174.31 210.333 174.788 209.443C175.265 208.553 175.913 207.875 176.731 207.409C177.549 206.939 178.47 206.705 179.492 206.705C180.167 206.705 180.792 206.799 181.367 206.989C181.947 207.178 182.46 207.455 182.907 207.818C183.354 208.178 183.718 208.619 183.998 209.142C184.282 209.665 184.464 210.263 184.543 210.938ZM188.363 206.864V218.5H185.942V206.864H188.363ZM193.925 218.67C193.042 218.67 192.279 218.483 191.635 218.108C190.995 217.729 190.5 217.203 190.152 216.528C189.804 215.85 189.629 215.064 189.629 214.17C189.629 213.269 189.804 212.481 190.152 211.807C190.5 211.129 190.995 210.602 191.635 210.227C192.279 209.848 193.042 209.659 193.925 209.659C194.807 209.659 195.569 209.848 196.209 210.227C196.853 210.602 197.349 211.129 197.697 211.807C198.046 212.481 198.22 213.269 198.22 214.17C198.22 215.064 198.046 215.85 197.697 216.528C197.349 217.203 196.853 217.729 196.209 218.108C195.569 218.483 194.807 218.67 193.925 218.67ZM193.936 216.795C194.338 216.795 194.673 216.682 194.942 216.455C195.211 216.223 195.413 215.909 195.55 215.511C195.69 215.114 195.76 214.661 195.76 214.153C195.76 213.646 195.69 213.193 195.55 212.795C195.413 212.398 195.211 212.083 194.942 211.852C194.673 211.621 194.338 211.506 193.936 211.506C193.531 211.506 193.19 211.621 192.913 211.852C192.641 212.083 192.434 212.398 192.294 212.795C192.158 213.193 192.089 213.646 192.089 214.153C192.089 214.661 192.158 215.114 192.294 215.511C192.434 215.909 192.641 216.223 192.913 216.455C193.19 216.682 193.531 216.795 193.936 216.795ZM206.735 212.261L204.519 212.398C204.482 212.208 204.4 212.038 204.275 211.886C204.15 211.731 203.985 211.608 203.781 211.517C203.58 211.422 203.34 211.375 203.059 211.375C202.684 211.375 202.368 211.455 202.11 211.614C201.853 211.769 201.724 211.977 201.724 212.239C201.724 212.447 201.807 212.623 201.974 212.767C202.141 212.911 202.427 213.027 202.832 213.114L204.412 213.432C205.26 213.606 205.893 213.886 206.309 214.273C206.726 214.659 206.934 215.167 206.934 215.795C206.934 216.367 206.766 216.869 206.429 217.301C206.095 217.733 205.637 218.07 205.054 218.312C204.474 218.551 203.805 218.67 203.048 218.67C201.893 218.67 200.972 218.43 200.287 217.949C199.605 217.464 199.205 216.805 199.088 215.972L201.468 215.847C201.54 216.199 201.715 216.468 201.991 216.653C202.268 216.835 202.622 216.926 203.054 216.926C203.478 216.926 203.819 216.845 204.076 216.682C204.338 216.515 204.47 216.301 204.474 216.04C204.47 215.82 204.377 215.64 204.196 215.5C204.014 215.356 203.734 215.246 203.355 215.17L201.843 214.869C200.991 214.699 200.357 214.403 199.94 213.983C199.527 213.562 199.321 213.027 199.321 212.375C199.321 211.814 199.472 211.331 199.775 210.926C200.082 210.521 200.512 210.208 201.065 209.989C201.622 209.769 202.273 209.659 203.019 209.659C204.122 209.659 204.989 209.892 205.622 210.358C206.258 210.824 206.629 211.458 206.735 212.261ZM212.116 218.67C211.218 218.67 210.445 218.489 209.798 218.125C209.154 217.758 208.657 217.239 208.309 216.568C207.96 215.894 207.786 215.097 207.786 214.176C207.786 213.278 207.96 212.491 208.309 211.812C208.657 211.134 209.148 210.606 209.78 210.227C210.417 209.848 211.163 209.659 212.019 209.659C212.595 209.659 213.131 209.752 213.627 209.938C214.127 210.119 214.563 210.394 214.934 210.761C215.309 211.129 215.601 211.591 215.809 212.148C216.017 212.701 216.121 213.348 216.121 214.091V214.756H208.752V213.256H213.843C213.843 212.907 213.767 212.598 213.616 212.33C213.464 212.061 213.254 211.85 212.985 211.699C212.72 211.544 212.411 211.466 212.059 211.466C211.691 211.466 211.366 211.551 211.082 211.722C210.801 211.888 210.582 212.114 210.423 212.398C210.263 212.678 210.182 212.991 210.178 213.335V214.761C210.178 215.193 210.258 215.566 210.417 215.881C210.58 216.195 210.809 216.438 211.104 216.608C211.4 216.778 211.75 216.864 212.155 216.864C212.424 216.864 212.671 216.826 212.894 216.75C213.118 216.674 213.309 216.561 213.468 216.409C213.627 216.258 213.748 216.072 213.832 215.852L216.07 216C215.957 216.538 215.724 217.008 215.371 217.409C215.023 217.807 214.572 218.117 214.019 218.341C213.47 218.561 212.835 218.67 212.116 218.67Z" fill="#242424"/>
<rect x="157" y="15" width="76" height="3" rx="1.5" fill="#1A1A20"/>
</g>
<defs>
<clipPath id="clip0_87_3913">
<rect width="390" height="263" fill="white"/>
</clipPath>
</defs>
</svg>
