<svg width="165" height="76" viewBox="0 0 165 76" fill="none" xmlns="http://www.w3.org/2000/svg">
<rect width="165" height="76" rx="16" fill="#19191F"/>
<path d="M71 20.5H73V18.5C71.9 18.5 71 19.4 71 20.5ZM71 28.5H73V26.5H71V28.5ZM75 36.5H77V34.5H75V36.5ZM71 24.5H73V22.5H71V24.5ZM81 18.5H79V20.5H81V18.5ZM87 18.5V20.5H89C89 19.4 88.1 18.5 87 18.5ZM73 36.5V34.5H71C71 35.6 71.9 36.5 73 36.5ZM71 32.5H73V30.5H71V32.5ZM77 18.5H75V20.5H77V18.5ZM79 36.5H81V34.5H79V36.5ZM87 28.5H89V26.5H87V28.5ZM87 36.5C88.1 36.5 89 35.6 89 34.5H87V36.5ZM87 24.5H89V22.5H87V24.5ZM87 32.5H89V30.5H87V32.5ZM83 36.5H85V34.5H83V36.5ZM83 20.5H85V18.5H83V20.5ZM75 32.5H85V22.5H75V32.5ZM77 24.5H83V30.5H77V24.5Z" fill="white"/>
<path d="M54.0174 51.1719C53.9777 50.7997 53.8101 50.5099 53.5146 50.3026C53.222 50.0952 52.8413 49.9915 52.3726 49.9915C52.043 49.9915 51.7603 50.0412 51.5245 50.1406C51.2887 50.2401 51.1084 50.375 50.9834 50.5455C50.8584 50.7159 50.7944 50.9105 50.7916 51.1293C50.7916 51.3111 50.8328 51.4687 50.9152 51.6023C51.0004 51.7358 51.1155 51.8494 51.2603 51.9432C51.4052 52.0341 51.5657 52.1108 51.7419 52.1733C51.918 52.2358 52.0956 52.2884 52.2745 52.331L53.0927 52.5355C53.4223 52.6122 53.739 52.7159 54.043 52.8466C54.3498 52.9773 54.624 53.142 54.8655 53.3409C55.1098 53.5398 55.303 53.7798 55.445 54.0611C55.587 54.3423 55.6581 54.6719 55.6581 55.0497C55.6581 55.5611 55.5274 56.0114 55.266 56.4006C55.0047 56.7869 54.6268 57.0895 54.1325 57.3082C53.641 57.5241 53.0459 57.6321 52.347 57.6321C51.668 57.6321 51.0785 57.527 50.5785 57.3168C50.0814 57.1065 49.6922 56.7997 49.4109 56.3963C49.1325 55.9929 48.9819 55.5014 48.9592 54.9219H50.5146C50.5373 55.2259 50.6311 55.4787 50.7959 55.6804C50.9606 55.8821 51.1751 56.0327 51.4393 56.1321C51.7064 56.2315 52.0047 56.2812 52.3342 56.2812C52.678 56.2812 52.9791 56.2301 53.2376 56.1278C53.499 56.0227 53.7035 55.8778 53.8512 55.6932C53.999 55.5057 54.0743 55.2869 54.0771 55.0369C54.0743 54.8097 54.0075 54.6222 53.8768 54.4744C53.7461 54.3239 53.5629 54.1989 53.3271 54.0994C53.0941 53.9972 52.8214 53.9062 52.5089 53.8267L51.516 53.571C50.7973 53.3864 50.2291 53.1065 49.8115 52.7315C49.3967 52.3537 49.1893 51.8523 49.1893 51.2273C49.1893 50.7131 49.3285 50.2628 49.6069 49.8764C49.8882 49.4901 50.2703 49.1903 50.7532 48.9773C51.2362 48.7614 51.7831 48.6534 52.3939 48.6534C53.0132 48.6534 53.5558 48.7614 54.0217 48.9773C54.4905 49.1903 54.8584 49.4872 55.1254 49.8679C55.3924 50.2457 55.5302 50.6804 55.5387 51.1719H54.0174ZM59.6571 57.6278C59.0008 57.6278 58.434 57.4915 57.9568 57.2188C57.4823 56.9432 57.1173 56.554 56.8616 56.0511C56.6059 55.5455 56.4781 54.9503 56.4781 54.2656C56.4781 53.5923 56.6059 53.0014 56.8616 52.4929C57.1201 51.9815 57.4809 51.5838 57.944 51.2997C58.4071 51.0128 58.9511 50.8693 59.5761 50.8693C59.9795 50.8693 60.3602 50.9347 60.7181 51.0653C61.0789 51.1932 61.3971 51.392 61.6727 51.6619C61.9511 51.9318 62.1698 52.2756 62.3289 52.6932C62.488 53.108 62.5676 53.6023 62.5676 54.1761V54.6491H57.2025V53.6094H61.0889C61.086 53.3139 61.0221 53.0511 60.8971 52.821C60.7721 52.5881 60.5974 52.4048 60.373 52.2713C60.1514 52.1378 59.8929 52.071 59.5974 52.071C59.2821 52.071 59.0051 52.1477 58.7664 52.3011C58.5278 52.4517 58.3417 52.6506 58.2082 52.8977C58.0775 53.142 58.0108 53.4105 58.0079 53.7031V54.6108C58.0079 54.9915 58.0775 55.3182 58.2167 55.5909C58.3559 55.8608 58.5505 56.0682 58.8005 56.2131C59.0505 56.3551 59.3431 56.4261 59.6784 56.4261C59.9028 56.4261 60.1059 56.3949 60.2877 56.3324C60.4696 56.267 60.6272 56.1719 60.7608 56.0469C60.8943 55.9219 60.9951 55.767 61.0633 55.5824L62.5037 55.7443C62.4127 56.125 62.2394 56.4574 61.9838 56.7415C61.7309 57.0227 61.4071 57.2415 61.0122 57.3977C60.6173 57.5511 60.1656 57.6278 59.6571 57.6278ZM65.1752 48.7727V57.5H63.6326V48.7727H65.1752ZM69.4192 57.6278C68.763 57.6278 68.1962 57.4915 67.719 57.2188C67.2445 56.9432 66.8795 56.554 66.6238 56.0511C66.3681 55.5455 66.2403 54.9503 66.2403 54.2656C66.2403 53.5923 66.3681 53.0014 66.6238 52.4929C66.8823 51.9815 67.2431 51.5838 67.7062 51.2997C68.1692 51.0128 68.7133 50.8693 69.3383 50.8693C69.7417 50.8693 70.1224 50.9347 70.4803 51.0653C70.8411 51.1932 71.1593 51.392 71.4349 51.6619C71.7133 51.9318 71.932 52.2756 72.0911 52.6932C72.2502 53.108 72.3298 53.6023 72.3298 54.1761V54.6491H66.9647V53.6094H70.8511C70.8482 53.3139 70.7843 53.0511 70.6593 52.821C70.5343 52.5881 70.3596 52.4048 70.1352 52.2713C69.9136 52.1378 69.655 52.071 69.3596 52.071C69.0442 52.071 68.7673 52.1477 68.5286 52.3011C68.29 52.4517 68.1039 52.6506 67.9704 52.8977C67.8397 53.142 67.7729 53.4105 67.7701 53.7031V54.6108C67.7701 54.9915 67.8397 55.3182 67.9789 55.5909C68.1181 55.8608 68.3127 56.0682 68.5627 56.2131C68.8127 56.3551 69.1053 56.4261 69.4406 56.4261C69.665 56.4261 69.8681 56.3949 70.0499 56.3324C70.2317 56.267 70.3894 56.1719 70.5229 56.0469C70.6565 55.9219 70.7573 55.767 70.8255 55.5824L72.2658 55.7443C72.1749 56.125 72.0016 56.4574 71.746 56.7415C71.4931 57.0227 71.1692 57.2415 70.7744 57.3977C70.3795 57.5511 69.9278 57.6278 69.4192 57.6278ZM76.2499 57.6278C75.5965 57.6278 75.0354 57.4844 74.5667 57.1974C74.1008 56.9105 73.7414 56.5142 73.4886 56.0085C73.2386 55.5 73.1136 54.9148 73.1136 54.2528C73.1136 53.5881 73.2414 53.0014 73.4971 52.4929C73.7528 51.9815 74.1136 51.5838 74.5795 51.2997C75.0482 51.0128 75.6022 50.8693 76.2414 50.8693C76.7726 50.8693 77.2428 50.9673 77.6519 51.1634C78.0638 51.3565 78.392 51.6307 78.6363 51.9858C78.8806 52.3381 79.0198 52.75 79.0539 53.2216H77.5795C77.5198 52.9062 77.3778 52.6435 77.1533 52.4332C76.9317 52.2202 76.6349 52.1136 76.2627 52.1136C75.9474 52.1136 75.6704 52.1989 75.4317 52.3693C75.1931 52.5369 75.007 52.7784 74.8735 53.0938C74.7428 53.4091 74.6775 53.7869 74.6775 54.2273C74.6775 54.6733 74.7428 55.0568 74.8735 55.3778C75.0042 55.696 75.1874 55.9418 75.4232 56.1151C75.6618 56.2855 75.9417 56.3707 76.2627 56.3707C76.49 56.3707 76.6931 56.3281 76.8721 56.2429C77.0539 56.1548 77.2059 56.0284 77.328 55.8636C77.4502 55.6989 77.534 55.4986 77.5795 55.2628H79.0539C79.017 55.7259 78.8806 56.1364 78.6448 56.4943C78.409 56.8494 78.088 57.1278 77.6817 57.3295C77.2755 57.5284 76.7982 57.6278 76.2499 57.6278ZM83.349 50.9545V52.1477H79.5863V50.9545H83.349ZM80.5152 49.3864H82.0579V55.5312C82.0579 55.7386 82.0891 55.8977 82.1516 56.0085C82.2169 56.1165 82.3022 56.1903 82.4073 56.2301C82.5124 56.2699 82.6289 56.2898 82.7567 56.2898C82.8533 56.2898 82.9414 56.2827 83.0209 56.2685C83.1033 56.2543 83.1658 56.2415 83.2084 56.2301L83.4684 57.4361C83.386 57.4645 83.2681 57.4957 83.1147 57.5298C82.9641 57.5639 82.7794 57.5838 82.5607 57.5895C82.1743 57.6009 81.8263 57.5426 81.5167 57.4148C81.207 57.2841 80.9613 57.0824 80.7794 56.8097C80.6005 56.5369 80.5124 56.196 80.5152 55.7869V49.3864ZM89.9823 60.0909C89.4284 60.0909 88.9525 60.0156 88.5548 59.8651C88.157 59.7173 87.8374 59.5185 87.596 59.2685C87.3545 59.0185 87.1869 58.7415 87.0931 58.4375L88.4823 58.1009C88.5448 58.2287 88.6357 58.3551 88.7551 58.4801C88.8744 58.608 89.0349 58.7131 89.2366 58.7955C89.4411 58.8807 89.6982 58.9233 90.0079 58.9233C90.4454 58.9233 90.8076 58.8168 91.0945 58.6037C91.3815 58.3935 91.5249 58.0469 91.5249 57.5639V56.3239H91.4482C91.3687 56.483 91.2522 56.6463 91.0988 56.8139C90.9482 56.9815 90.748 57.1222 90.498 57.2358C90.2508 57.3494 89.9397 57.4062 89.5647 57.4062C89.0619 57.4062 88.6059 57.2884 88.1968 57.0526C87.7906 56.8139 87.4667 56.4588 87.2252 55.9872C86.9866 55.5128 86.8673 54.919 86.8673 54.206C86.8673 53.4872 86.9866 52.8807 87.2252 52.3864C87.4667 51.8892 87.792 51.5128 88.2011 51.2571C88.6102 50.9986 89.0661 50.8693 89.569 50.8693C89.9525 50.8693 90.2678 50.9347 90.515 51.0653C90.765 51.1932 90.9639 51.348 91.1116 51.5298C91.2593 51.7088 91.3715 51.8778 91.4482 52.0369H91.5335V50.9545H93.0548V57.6065C93.0548 58.1662 92.9212 58.6293 92.6542 58.9957C92.3872 59.3622 92.0221 59.6364 91.559 59.8182C91.096 60 90.5704 60.0909 89.9823 60.0909ZM89.9951 56.196C90.3218 56.196 90.6002 56.1165 90.8303 55.9574C91.0605 55.7983 91.2352 55.5696 91.3545 55.2713C91.4738 54.973 91.5335 54.6151 91.5335 54.1974C91.5335 53.7855 91.4738 53.4247 91.3545 53.1151C91.238 52.8054 91.0647 52.5653 90.8346 52.3949C90.6073 52.2216 90.3275 52.1349 89.9951 52.1349C89.6514 52.1349 89.3644 52.2244 89.1343 52.4034C88.9042 52.5824 88.7309 52.8281 88.6144 53.1406C88.498 53.4503 88.4397 53.8026 88.4397 54.1974C88.4397 54.598 88.498 54.9489 88.6144 55.25C88.7337 55.5483 88.9085 55.7812 89.1386 55.9489C89.3715 56.1136 89.657 56.196 89.9951 56.196ZM94.3957 57.5V50.9545H95.9384V57.5H94.3957ZM95.1713 50.0256C94.927 50.0256 94.7168 49.9446 94.5406 49.7827C94.3645 49.6179 94.2764 49.4205 94.2764 49.1903C94.2764 48.9574 94.3645 48.7599 94.5406 48.598C94.7168 48.4332 94.927 48.3509 95.1713 48.3509C95.4185 48.3509 95.6287 48.4332 95.802 48.598C95.9781 48.7599 96.0662 48.9574 96.0662 49.1903C96.0662 49.4205 95.9781 49.6179 95.802 49.7827C95.6287 49.9446 95.4185 50.0256 95.1713 50.0256ZM100.6 50.9545V52.1477H96.7307V50.9545H100.6ZM97.698 57.5V50.3366C97.698 49.8963 97.7889 49.5298 97.9707 49.2372C98.1554 48.9446 98.4025 48.7259 98.7122 48.581C99.0219 48.4361 99.3656 48.3636 99.7435 48.3636C100.01 48.3636 100.248 48.3849 100.455 48.4276C100.662 48.4702 100.816 48.5085 100.915 48.5426L100.609 49.7358C100.543 49.7159 100.461 49.696 100.361 49.6761C100.262 49.6534 100.151 49.642 100.029 49.642C99.742 49.642 99.5389 49.7116 99.4196 49.8509C99.3031 49.9872 99.2449 50.1832 99.2449 50.4389V57.5H97.698ZM104.837 50.9545V52.1477H101.074V50.9545H104.837ZM102.003 49.3864H103.545V55.5312C103.545 55.7386 103.577 55.8977 103.639 56.0085C103.704 56.1165 103.79 56.1903 103.895 56.2301C104 56.2699 104.116 56.2898 104.244 56.2898C104.341 56.2898 104.429 56.2827 104.508 56.2685C104.591 56.2543 104.653 56.2415 104.696 56.2301L104.956 57.4361C104.873 57.4645 104.756 57.4957 104.602 57.5298C104.452 57.5639 104.267 57.5838 104.048 57.5895C103.662 57.6009 103.314 57.5426 103.004 57.4148C102.695 57.2841 102.449 57.0824 102.267 56.8097C102.088 56.5369 102 56.196 102.003 55.7869V49.3864ZM110.966 52.6847L109.56 52.8381C109.52 52.696 109.451 52.5625 109.351 52.4375C109.255 52.3125 109.124 52.2116 108.959 52.1349C108.794 52.0582 108.593 52.0199 108.354 52.0199C108.033 52.0199 107.763 52.0895 107.544 52.2287C107.328 52.3679 107.222 52.5483 107.225 52.7699C107.222 52.9602 107.292 53.1151 107.434 53.2344C107.578 53.3537 107.817 53.4517 108.149 53.5284L109.266 53.767C109.885 53.9006 110.345 54.1122 110.647 54.402C110.951 54.6918 111.104 55.071 111.107 55.5398C111.104 55.9517 110.983 56.3153 110.745 56.6307C110.509 56.9432 110.181 57.1875 109.76 57.3636C109.34 57.5398 108.857 57.6278 108.311 57.6278C107.51 57.6278 106.865 57.4602 106.377 57.125C105.888 56.7869 105.597 56.3168 105.503 55.7145L107.007 55.5696C107.076 55.8651 107.22 56.0881 107.442 56.2386C107.664 56.3892 107.952 56.4645 108.307 56.4645C108.674 56.4645 108.968 56.3892 109.189 56.2386C109.414 56.0881 109.526 55.902 109.526 55.6804C109.526 55.4929 109.453 55.3381 109.309 55.2159C109.167 55.0937 108.945 55 108.644 54.9347L107.527 54.7003C106.899 54.5696 106.435 54.3494 106.134 54.0398C105.833 53.7273 105.684 53.3324 105.686 52.8551C105.684 52.4517 105.793 52.1023 106.015 51.8068C106.239 51.5085 106.55 51.2784 106.948 51.1165C107.348 50.9517 107.81 50.8693 108.333 50.8693C109.1 50.8693 109.703 51.0327 110.144 51.3594C110.587 51.6861 110.861 52.1278 110.966 52.6847Z" fill="white"/>
</svg>
