<svg width="84" height="35" viewBox="0 0 84 35" fill="none" xmlns="http://www.w3.org/2000/svg">
<rect width="84" height="35" rx="12" fill="#C4FF00" fill-opacity="0.1"/>
<path d="M17.3363 22L14.8732 13.2727H16.5735L18.1459 19.6861H18.2269L19.9059 13.2727H21.4527L23.136 19.6903H23.2127L24.7851 13.2727H26.4854L24.0224 22H22.4627L20.7155 15.8764H20.6474L18.8959 22H17.3363ZM27.2735 22V15.4545H28.8161V22H27.2735ZM28.049 14.5256C27.8047 14.5256 27.5945 14.4446 27.4184 14.2827C27.2422 14.1179 27.1542 13.9205 27.1542 13.6903C27.1542 13.4574 27.2422 13.2599 27.4184 13.098C27.5945 12.9332 27.8047 12.8509 28.049 12.8509C28.2962 12.8509 28.5064 12.9332 28.6797 13.098C28.8559 13.2599 28.9439 13.4574 28.9439 13.6903C28.9439 13.9205 28.8559 14.1179 28.6797 14.2827C28.5064 14.4446 28.2962 14.5256 28.049 14.5256ZM33.4308 15.4545V16.6477H29.6681V15.4545H33.4308ZM30.597 13.8864H32.1397V20.0312C32.1397 20.2386 32.1709 20.3977 32.2334 20.5085C32.2987 20.6165 32.384 20.6903 32.4891 20.7301C32.5942 20.7699 32.7107 20.7898 32.8385 20.7898C32.9351 20.7898 33.0232 20.7827 33.1027 20.7685C33.1851 20.7543 33.2476 20.7415 33.2902 20.7301L33.5502 21.9361C33.4678 21.9645 33.3499 21.9957 33.1965 22.0298C33.0459 22.0639 32.8612 22.0838 32.6425 22.0895C32.2561 22.1009 31.9081 22.0426 31.5985 21.9148C31.2888 21.7841 31.0431 21.5824 30.8612 21.3097C30.6823 21.0369 30.5942 20.696 30.597 20.2869V13.8864ZM36.1642 18.1648V22H34.6216V13.2727H36.1301V16.5668H36.2068C36.3602 16.1974 36.5975 15.9062 36.9185 15.6932C37.2423 15.4773 37.6543 15.3693 38.1543 15.3693C38.6088 15.3693 39.0051 15.4645 39.3432 15.6548C39.6813 15.8452 39.9426 16.1236 40.1273 16.4901C40.3148 16.8565 40.4085 17.304 40.4085 17.8324V22H38.8659V18.071C38.8659 17.6307 38.7523 17.2884 38.525 17.044C38.3006 16.7969 37.9852 16.6733 37.579 16.6733C37.3063 16.6733 37.0619 16.733 36.846 16.8523C36.633 16.9687 36.4653 17.1378 36.3432 17.3594C36.2239 17.581 36.1642 17.8494 36.1642 18.1648ZM44.17 22.1151C43.6557 22.1151 43.1955 21.983 42.7893 21.7188C42.383 21.4545 42.062 21.071 41.8262 20.5682C41.5904 20.0653 41.4725 19.4545 41.4725 18.7358C41.4725 18.0085 41.5918 17.3949 41.8305 16.8949C42.0719 16.392 42.3972 16.0128 42.8063 15.7571C43.2154 15.4986 43.6714 15.3693 44.1742 15.3693C44.5577 15.3693 44.8731 15.4347 45.1202 15.5653C45.3674 15.6932 45.5634 15.848 45.7083 16.0298C45.8532 16.2088 45.9654 16.3778 46.045 16.5369H46.1089V13.2727H47.6557V22H46.1387V20.9688H46.045C45.9654 21.1278 45.8503 21.2969 45.6998 21.4759C45.5492 21.652 45.3503 21.8026 45.1032 21.9276C44.856 22.0526 44.545 22.1151 44.17 22.1151ZM44.6003 20.8494C44.9271 20.8494 45.2055 20.7614 45.4356 20.5852C45.6657 20.4062 45.8404 20.1577 45.9597 19.8395C46.079 19.5213 46.1387 19.1506 46.1387 18.7273C46.1387 18.304 46.079 17.9361 45.9597 17.6236C45.8432 17.3111 45.67 17.0682 45.4398 16.8949C45.2126 16.7216 44.9327 16.6349 44.6003 16.6349C44.2566 16.6349 43.9697 16.7244 43.7396 16.9034C43.5094 17.0824 43.3361 17.3295 43.2197 17.6449C43.1032 17.9602 43.045 18.321 43.045 18.7273C43.045 19.1364 43.1032 19.5014 43.2197 19.8224C43.339 20.1406 43.5137 20.392 43.7438 20.5767C43.9768 20.7585 44.2623 20.8494 44.6003 20.8494ZM49.0596 22V15.4545H50.5553V16.5455H50.6235C50.7428 16.1676 50.9474 15.8764 51.2371 15.6719C51.5297 15.4645 51.8635 15.3608 52.2385 15.3608C52.3238 15.3608 52.4189 15.3651 52.5241 15.3736C52.632 15.3793 52.7215 15.3892 52.7925 15.4034V16.8224C52.7272 16.7997 52.6235 16.7798 52.4814 16.7628C52.3422 16.7429 52.2073 16.733 52.0766 16.733C51.7954 16.733 51.5425 16.794 51.3181 16.9162C51.0965 17.0355 50.9218 17.2017 50.7939 17.4148C50.6661 17.6278 50.6022 17.8736 50.6022 18.152V22H49.0596ZM55.3437 22.1321C54.9289 22.1321 54.5554 22.0582 54.223 21.9105C53.8934 21.7599 53.6321 21.5384 53.4389 21.2457C53.2485 20.9531 53.1534 20.5923 53.1534 20.1634C53.1534 19.794 53.2216 19.4886 53.3579 19.2472C53.4943 19.0057 53.6804 18.8125 53.9162 18.6676C54.152 18.5227 54.4176 18.4134 54.713 18.3395C55.0113 18.2628 55.3196 18.2074 55.6378 18.1733C56.0213 18.1335 56.3324 18.098 56.571 18.0668C56.8096 18.0327 56.9829 17.9815 57.0909 17.9134C57.2017 17.8423 57.2571 17.733 57.2571 17.5852V17.5597C57.2571 17.2386 57.1619 16.9901 56.9716 16.8139C56.7812 16.6378 56.5071 16.5497 56.1491 16.5497C55.7713 16.5497 55.4716 16.6321 55.25 16.7969C55.0312 16.9616 54.8835 17.1562 54.8068 17.3807L53.3664 17.1761C53.4801 16.7784 53.6676 16.446 53.9289 16.179C54.1903 15.9091 54.5099 15.7074 54.8878 15.5739C55.2656 15.4375 55.6832 15.3693 56.1406 15.3693C56.4559 15.3693 56.7699 15.4062 57.0824 15.4801C57.3949 15.554 57.6804 15.6761 57.9389 15.8466C58.1974 16.0142 58.4048 16.2429 58.561 16.5327C58.7201 16.8224 58.7997 17.1847 58.7997 17.6193V22H57.3167V21.1009H57.2656C57.1718 21.2827 57.0397 21.4531 56.8693 21.6122C56.7017 21.7685 56.49 21.8949 56.2343 21.9915C55.9815 22.0852 55.6846 22.1321 55.3437 22.1321ZM55.7443 20.9986C56.0539 20.9986 56.3224 20.9375 56.5497 20.8153C56.777 20.6903 56.9517 20.5256 57.0738 20.321C57.1988 20.1165 57.2613 19.8935 57.2613 19.652V18.8807C57.213 18.9205 57.1306 18.9574 57.0142 18.9915C56.9005 19.0256 56.7727 19.0554 56.6306 19.081C56.4886 19.1065 56.348 19.1293 56.2088 19.1491C56.0696 19.169 55.9488 19.1861 55.8466 19.2003C55.6164 19.2315 55.4105 19.2827 55.2287 19.3537C55.0468 19.4247 54.9034 19.5241 54.7983 19.652C54.6931 19.777 54.6406 19.9389 54.6406 20.1378C54.6406 20.4219 54.7443 20.6364 54.9517 20.7812C55.1591 20.9261 55.4233 20.9986 55.7443 20.9986ZM61.4617 22L59.6122 15.4545H61.1847L62.3352 20.0568H62.3949L63.571 15.4545H65.1264L66.3026 20.0312H66.3665L67.5 15.4545H69.0767L67.223 22H65.6165L64.3892 17.5767H64.2997L63.0725 22H61.4617Z" fill="#C4FF00"/>
</svg>
