<svg width="358" height="52" viewBox="0 0 358 52" fill="none" xmlns="http://www.w3.org/2000/svg">
<path d="M0 24C0 10.7452 10.7452 0 24 0H334C347.255 0 358 10.7452 358 24V28C358 41.2548 347.255 52 334 52H24C10.7452 52 0 41.2548 0 28V24Z" fill="#C4FF00"/>
<path d="M168.543 23.9375H166.055C166.009 23.6155 165.917 23.3295 165.776 23.0795C165.636 22.8258 165.456 22.6098 165.237 22.4318C165.017 22.2538 164.763 22.1174 164.475 22.0227C164.191 21.928 163.882 21.8807 163.549 21.8807C162.947 21.8807 162.422 22.0303 161.975 22.3295C161.528 22.625 161.182 23.0568 160.935 23.625C160.689 24.1894 160.566 24.875 160.566 25.6818C160.566 26.5114 160.689 27.2083 160.935 27.7727C161.185 28.3371 161.534 28.7633 161.981 29.0511C162.428 29.339 162.945 29.483 163.532 29.483C163.862 29.483 164.167 29.4394 164.447 29.3523C164.731 29.2652 164.983 29.1383 165.202 28.9716C165.422 28.8011 165.604 28.5947 165.748 28.3523C165.896 28.1098 165.998 27.8333 166.055 27.5227L168.543 27.5341C168.479 28.0682 168.318 28.5833 168.06 29.0795C167.807 29.572 167.464 30.0133 167.032 30.4034C166.604 30.7898 166.093 31.0966 165.498 31.3239C164.907 31.5473 164.238 31.6591 163.492 31.6591C162.454 31.6591 161.526 31.4242 160.708 30.9545C159.894 30.4848 159.25 29.8049 158.776 28.9148C158.307 28.0246 158.072 26.947 158.072 25.6818C158.072 24.4129 158.31 23.3333 158.788 22.4432C159.265 21.553 159.913 20.875 160.731 20.4091C161.549 19.9394 162.47 19.7045 163.492 19.7045C164.167 19.7045 164.792 19.7992 165.367 19.9886C165.947 20.178 166.46 20.4545 166.907 20.8182C167.354 21.178 167.718 21.6193 167.998 22.142C168.282 22.6648 168.464 23.2633 168.543 23.9375ZM172.363 19.8636V31.5H169.942V19.8636H172.363ZM177.925 31.6705C177.042 31.6705 176.279 31.483 175.635 31.108C174.995 30.7292 174.5 30.2027 174.152 29.5284C173.804 28.8504 173.629 28.0644 173.629 27.1705C173.629 26.2689 173.804 25.4811 174.152 24.8068C174.5 24.1288 174.995 23.6023 175.635 23.2273C176.279 22.8485 177.042 22.6591 177.925 22.6591C178.807 22.6591 179.569 22.8485 180.209 23.2273C180.853 23.6023 181.349 24.1288 181.697 24.8068C182.046 25.4811 182.22 26.2689 182.22 27.1705C182.22 28.0644 182.046 28.8504 181.697 29.5284C181.349 30.2027 180.853 30.7292 180.209 31.108C179.569 31.483 178.807 31.6705 177.925 31.6705ZM177.936 29.7955C178.338 29.7955 178.673 29.6818 178.942 29.4545C179.211 29.2235 179.413 28.9091 179.55 28.5114C179.69 28.1136 179.76 27.661 179.76 27.1534C179.76 26.6458 179.69 26.1932 179.55 25.7955C179.413 25.3977 179.211 25.0833 178.942 24.8523C178.673 24.6212 178.338 24.5057 177.936 24.5057C177.531 24.5057 177.19 24.6212 176.913 24.8523C176.641 25.0833 176.434 25.3977 176.294 25.7955C176.158 26.1932 176.089 26.6458 176.089 27.1534C176.089 27.661 176.158 28.1136 176.294 28.5114C176.434 28.9091 176.641 29.2235 176.913 29.4545C177.19 29.6818 177.531 29.7955 177.936 29.7955ZM190.735 25.2614L188.519 25.3977C188.482 25.2083 188.4 25.0379 188.275 24.8864C188.15 24.7311 187.985 24.608 187.781 24.517C187.58 24.4223 187.34 24.375 187.059 24.375C186.684 24.375 186.368 24.4545 186.11 24.6136C185.853 24.7689 185.724 24.9773 185.724 25.2386C185.724 25.447 185.807 25.6231 185.974 25.767C186.141 25.911 186.427 26.0265 186.832 26.1136L188.412 26.4318C189.26 26.6061 189.893 26.8864 190.309 27.2727C190.726 27.6591 190.934 28.1667 190.934 28.7955C190.934 29.3674 190.766 29.8693 190.429 30.3011C190.095 30.733 189.637 31.0701 189.054 31.3125C188.474 31.5511 187.805 31.6705 187.048 31.6705C185.893 31.6705 184.972 31.4299 184.287 30.9489C183.605 30.464 183.205 29.8049 183.088 28.9716L185.468 28.8466C185.54 29.1989 185.715 29.4678 185.991 29.6534C186.268 29.8352 186.622 29.9261 187.054 29.9261C187.478 29.9261 187.819 29.8447 188.076 29.6818C188.338 29.5152 188.47 29.3011 188.474 29.0398C188.47 28.8201 188.377 28.6402 188.196 28.5C188.014 28.3561 187.734 28.2462 187.355 28.1705L185.843 27.8693C184.991 27.6989 184.357 27.4034 183.94 26.983C183.527 26.5625 183.321 26.0265 183.321 25.375C183.321 24.8144 183.472 24.3314 183.775 23.9261C184.082 23.5208 184.512 23.2083 185.065 22.9886C185.622 22.7689 186.273 22.6591 187.019 22.6591C188.122 22.6591 188.989 22.892 189.622 23.358C190.258 23.8239 190.629 24.4583 190.735 25.2614ZM196.116 31.6705C195.218 31.6705 194.445 31.4886 193.798 31.125C193.154 30.7576 192.657 30.2386 192.309 29.5682C191.96 28.8939 191.786 28.0966 191.786 27.1761C191.786 26.2784 191.96 25.4905 192.309 24.8125C192.657 24.1345 193.148 23.6061 193.78 23.2273C194.417 22.8485 195.163 22.6591 196.019 22.6591C196.595 22.6591 197.131 22.7519 197.627 22.9375C198.127 23.1193 198.563 23.3939 198.934 23.7614C199.309 24.1288 199.601 24.5909 199.809 25.1477C200.017 25.7008 200.121 26.3485 200.121 27.0909V27.7557H192.752V26.2557H197.843C197.843 25.9072 197.767 25.5985 197.616 25.3295C197.464 25.0606 197.254 24.8504 196.985 24.6989C196.72 24.5436 196.411 24.4659 196.059 24.4659C195.691 24.4659 195.366 24.5511 195.082 24.7216C194.801 24.8883 194.582 25.1136 194.423 25.3977C194.263 25.678 194.182 25.9905 194.178 26.3352V27.7614C194.178 28.1932 194.258 28.5663 194.417 28.8807C194.58 29.1951 194.809 29.4375 195.104 29.608C195.4 29.7784 195.75 29.8636 196.155 29.8636C196.424 29.8636 196.671 29.8258 196.894 29.75C197.118 29.6742 197.309 29.5606 197.468 29.4091C197.627 29.2576 197.748 29.072 197.832 28.8523L200.07 29C199.957 29.5379 199.724 30.0076 199.371 30.4091C199.023 30.8068 198.572 31.1174 198.019 31.3409C197.47 31.5606 196.835 31.6705 196.116 31.6705Z" fill="#242424"/>
</svg>
