<svg width="358" height="48" viewBox="0 0 358 48" fill="none" xmlns="http://www.w3.org/2000/svg">
<path d="M0 12C0 5.37258 5.37258 0 12 0H346C352.627 0 358 5.37258 358 12V36C358 42.6274 352.627 48 346 48H12C5.37259 48 0 42.6274 0 36V12Z" fill="#C4FF00" fill-opacity="0.1"/>
<path d="M115 15.6667C110.405 15.6667 106.667 19.4051 106.667 24.0001V27.4526C106.667 28.3059 107.414 29.0001 108.333 29.0001H109.167C109.388 29.0001 109.6 28.9123 109.756 28.756C109.912 28.5997 110 28.3878 110 28.1667V23.8809C110 23.6599 109.912 23.4479 109.756 23.2917C109.6 23.1354 109.388 23.0476 109.167 23.0476H108.41C108.873 19.8226 111.648 17.3334 115 17.3334C118.352 17.3334 121.127 19.8226 121.59 23.0476H120.833C120.612 23.0476 120.4 23.1354 120.244 23.2917C120.088 23.4479 120 23.6599 120 23.8809V29.0001C120 29.9192 119.253 30.6667 118.333 30.6667H116.667V29.8334H113.333V32.3334H118.333C120.172 32.3334 121.667 30.8384 121.667 29.0001C122.586 29.0001 123.333 28.3059 123.333 27.4526V24.0001C123.333 19.4051 119.595 15.6667 115 15.6667Z" fill="#C4FF00"/>
<path d="M135.786 20.8643V19.3182H143.91V20.8643H140.763V29.5H138.933V20.8643H135.786ZM147.389 29.6491C146.624 29.6491 145.963 29.4901 145.406 29.1719C144.852 28.8504 144.426 28.3963 144.128 27.8097C143.83 27.2197 143.681 26.5253 143.681 25.7266C143.681 24.9411 143.83 24.2517 144.128 23.6584C144.43 23.0618 144.851 22.5978 145.391 22.2663C145.931 21.9316 146.566 21.7642 147.295 21.7642C147.766 21.7642 148.21 21.8404 148.627 21.9929C149.048 22.142 149.419 22.3741 149.741 22.6889C150.066 23.0038 150.321 23.4048 150.507 23.892C150.692 24.3759 150.785 24.9527 150.785 25.6222V26.174H144.526V24.9609H149.06C149.057 24.6162 148.982 24.3097 148.836 24.0412C148.69 23.7694 148.486 23.5556 148.225 23.3999C147.966 23.2441 147.665 23.1662 147.32 23.1662C146.952 23.1662 146.629 23.2557 146.35 23.4347C146.072 23.6103 145.855 23.8423 145.699 24.1307C145.547 24.4157 145.469 24.7289 145.465 25.0703V26.1293C145.465 26.5734 145.547 26.9545 145.709 27.2727C145.871 27.5876 146.098 27.8295 146.39 27.9986C146.682 28.1643 147.023 28.2472 147.414 28.2472C147.676 28.2472 147.913 28.2107 148.125 28.1378C148.337 28.0616 148.521 27.9505 148.677 27.8047C148.833 27.6589 148.951 27.4782 149.03 27.2628L150.71 27.4517C150.604 27.8958 150.402 28.2836 150.104 28.6151C149.809 28.9432 149.431 29.1984 148.97 29.3807C148.51 29.5597 147.983 29.6491 147.389 29.6491ZM155.359 29.6491C154.596 29.6491 153.942 29.4818 153.395 29.147C152.851 28.8123 152.432 28.3499 152.137 27.7599C151.845 27.1667 151.699 26.4839 151.699 25.7116C151.699 24.9361 151.849 24.2517 152.147 23.6584C152.445 23.0618 152.866 22.5978 153.41 22.2663C153.957 21.9316 154.603 21.7642 155.349 21.7642C155.968 21.7642 156.517 21.8786 156.994 22.1072C157.475 22.3326 157.858 22.6525 158.143 23.0668C158.428 23.4777 158.59 23.9583 158.63 24.5085H156.91C156.84 24.1406 156.674 23.834 156.413 23.5888C156.154 23.3402 155.808 23.2159 155.373 23.2159C155.006 23.2159 154.682 23.3153 154.404 23.5142C154.126 23.7098 153.908 23.9915 153.753 24.3594C153.6 24.7273 153.524 25.1681 153.524 25.6818C153.524 26.2022 153.6 26.6496 153.753 27.0241C153.905 27.3954 154.119 27.6821 154.394 27.8842C154.672 28.0831 154.999 28.1825 155.373 28.1825C155.639 28.1825 155.876 28.1328 156.084 28.0334C156.297 27.9306 156.474 27.7831 156.616 27.5909C156.759 27.3987 156.857 27.165 156.91 26.8899H158.63C158.587 27.4302 158.428 27.9091 158.153 28.3267C157.877 28.741 157.503 29.0658 157.029 29.3011C156.555 29.5331 155.998 29.6491 155.359 29.6491ZM161.627 25.0256V29.5H159.828V19.3182H161.588V23.1612H161.677C161.856 22.7304 162.133 22.3906 162.507 22.142C162.885 21.8902 163.366 21.7642 163.949 21.7642C164.479 21.7642 164.942 21.8752 165.336 22.0973C165.731 22.3194 166.036 22.6442 166.251 23.0717C166.47 23.4993 166.579 24.0213 166.579 24.6378V29.5H164.779V24.9162C164.779 24.4025 164.647 24.0031 164.382 23.718C164.12 23.4297 163.752 23.2855 163.278 23.2855C162.96 23.2855 162.675 23.3551 162.423 23.4943C162.174 23.6302 161.979 23.8274 161.836 24.0859C161.697 24.3445 161.627 24.6577 161.627 25.0256ZM169.933 25.0256V29.5H168.134V21.8636H169.854V23.1612H169.943C170.119 22.7337 170.399 22.3939 170.783 22.142C171.171 21.8902 171.65 21.7642 172.22 21.7642C172.747 21.7642 173.206 21.8769 173.597 22.1023C173.992 22.3277 174.297 22.6541 174.512 23.0817C174.731 23.5092 174.839 24.0279 174.835 24.6378V29.5H173.036V24.9162C173.036 24.4058 172.903 24.0064 172.638 23.718C172.376 23.4297 172.013 23.2855 171.549 23.2855C171.234 23.2855 170.954 23.3551 170.709 23.4943C170.467 23.6302 170.276 23.8274 170.137 24.0859C170.001 24.3445 169.933 24.6577 169.933 25.0256ZM176.385 29.5V21.8636H178.185V29.5H176.385ZM177.29 20.7798C177.005 20.7798 176.759 20.6854 176.554 20.4964C176.348 20.3042 176.246 20.0739 176.246 19.8054C176.246 19.5336 176.348 19.3033 176.554 19.1143C176.759 18.9221 177.005 18.826 177.29 18.826C177.578 18.826 177.823 18.9221 178.025 19.1143C178.231 19.3033 178.334 19.5336 178.334 19.8054C178.334 20.0739 178.231 20.3042 178.025 20.4964C177.823 20.6854 177.578 20.7798 177.29 20.7798ZM183.086 29.6491C182.324 29.6491 181.669 29.4818 181.122 29.147C180.579 28.8123 180.16 28.3499 179.865 27.7599C179.573 27.1667 179.427 26.4839 179.427 25.7116C179.427 24.9361 179.576 24.2517 179.875 23.6584C180.173 23.0618 180.594 22.5978 181.137 22.2663C181.684 21.9316 182.331 21.7642 183.076 21.7642C183.696 21.7642 184.245 21.8786 184.722 22.1072C185.202 22.3326 185.585 22.6525 185.87 23.0668C186.155 23.4777 186.318 23.9583 186.357 24.5085H184.637C184.568 24.1406 184.402 23.834 184.14 23.5888C183.882 23.3402 183.535 23.2159 183.101 23.2159C182.733 23.2159 182.41 23.3153 182.132 23.5142C181.853 23.7098 181.636 23.9915 181.48 24.3594C181.328 24.7273 181.252 25.1681 181.252 25.6818C181.252 26.2022 181.328 26.6496 181.48 27.0241C181.633 27.3954 181.847 27.6821 182.122 27.8842C182.4 28.0831 182.727 28.1825 183.101 28.1825C183.366 28.1825 183.603 28.1328 183.812 28.0334C184.024 27.9306 184.201 27.7831 184.344 27.5909C184.487 27.3987 184.584 27.165 184.637 26.8899H186.357C186.314 27.4302 186.155 27.9091 185.88 28.3267C185.605 28.741 185.231 29.0658 184.757 29.3011C184.283 29.5331 183.726 29.6491 183.086 29.6491ZM189.753 29.6541C189.269 29.6541 188.833 29.5679 188.445 29.3956C188.061 29.2199 187.756 28.9614 187.53 28.62C187.308 28.2786 187.197 27.8577 187.197 27.3572C187.197 26.9264 187.277 26.5701 187.436 26.2884C187.595 26.0066 187.812 25.7812 188.087 25.6122C188.362 25.4432 188.672 25.3156 189.017 25.2294C189.365 25.1399 189.725 25.0753 190.096 25.0355C190.543 24.9891 190.906 24.9477 191.185 24.9112C191.463 24.8714 191.665 24.8118 191.791 24.7322C191.92 24.6494 191.985 24.5218 191.985 24.3494V24.3196C191.985 23.9451 191.874 23.6551 191.652 23.4496C191.43 23.2441 191.11 23.1413 190.692 23.1413C190.252 23.1413 189.902 23.2375 189.643 23.4297C189.388 23.6219 189.216 23.849 189.126 24.1108L187.446 23.8722C187.579 23.4081 187.797 23.0204 188.102 22.7088C188.407 22.3939 188.78 22.1586 189.221 22.0028C189.662 21.8438 190.149 21.7642 190.682 21.7642C191.05 21.7642 191.417 21.8073 191.781 21.8935C192.146 21.9796 192.479 22.1222 192.78 22.321C193.082 22.5166 193.324 22.7834 193.506 23.1214C193.692 23.4595 193.785 23.8821 193.785 24.3892V29.5H192.055V28.451H191.995C191.886 28.6631 191.731 28.862 191.533 29.0476C191.337 29.2299 191.09 29.3774 190.792 29.4901C190.497 29.5994 190.15 29.6541 189.753 29.6541ZM190.22 28.3317C190.581 28.3317 190.895 28.2604 191.16 28.1179C191.425 27.9721 191.629 27.7798 191.771 27.5412C191.917 27.3026 191.99 27.0424 191.99 26.7607V25.8608C191.934 25.9072 191.838 25.9503 191.702 25.9901C191.569 26.0298 191.42 26.0646 191.254 26.0945C191.088 26.1243 190.924 26.1508 190.762 26.174C190.6 26.1972 190.459 26.2171 190.339 26.2337C190.071 26.2701 189.831 26.3298 189.619 26.4126C189.406 26.4955 189.239 26.6115 189.116 26.7607C188.994 26.9065 188.932 27.0954 188.932 27.3274C188.932 27.6589 189.053 27.9091 189.295 28.0781C189.537 28.2472 189.846 28.3317 190.22 28.3317ZM197.114 19.3182V29.5H195.314V19.3182H197.114ZM207.913 23.8821L206.272 24.0611C206.226 23.8954 206.145 23.7396 206.029 23.5938C205.916 23.4479 205.764 23.3303 205.571 23.2408C205.379 23.1513 205.144 23.1065 204.865 23.1065C204.491 23.1065 204.176 23.1877 203.921 23.3501C203.669 23.5125 203.545 23.723 203.548 23.9815C203.545 24.2036 203.626 24.3842 203.791 24.5234C203.961 24.6626 204.239 24.777 204.627 24.8665L205.929 25.1449C206.652 25.3007 207.189 25.5476 207.54 25.8857C207.895 26.2237 208.074 26.6662 208.077 27.2131C208.074 27.6937 207.933 28.1179 207.654 28.4858C207.379 28.8504 206.996 29.1354 206.506 29.3409C206.015 29.5464 205.452 29.6491 204.816 29.6491C203.881 29.6491 203.129 29.4536 202.559 29.0625C201.988 28.6681 201.649 28.1196 201.539 27.4169L203.294 27.2479C203.374 27.5926 203.543 27.8527 203.801 28.0284C204.06 28.2041 204.396 28.2919 204.811 28.2919C205.238 28.2919 205.581 28.2041 205.84 28.0284C206.102 27.8527 206.233 27.6357 206.233 27.3771C206.233 27.1584 206.148 26.9777 205.979 26.8352C205.813 26.6927 205.555 26.5833 205.203 26.5071L203.901 26.2337C203.168 26.0812 202.626 25.8243 202.275 25.4631C201.924 25.0985 201.75 24.6378 201.753 24.081C201.75 23.6103 201.877 23.2027 202.136 22.858C202.398 22.5099 202.761 22.2415 203.225 22.0526C203.692 21.8603 204.231 21.7642 204.84 21.7642C205.735 21.7642 206.44 21.9548 206.953 22.3359C207.47 22.7171 207.79 23.2325 207.913 23.8821ZM214.148 26.2884V21.8636H215.948V29.5H214.203V28.1428H214.123C213.951 28.5703 213.668 28.92 213.273 29.1918C212.882 29.4635 212.4 29.5994 211.826 29.5994C211.326 29.5994 210.884 29.4884 210.499 29.2663C210.118 29.041 209.82 28.7145 209.604 28.2869C209.389 27.8561 209.281 27.3357 209.281 26.7259V21.8636H211.081V26.4474C211.081 26.9313 211.213 27.3158 211.478 27.6009C211.744 27.8859 212.092 28.0284 212.522 28.0284C212.788 28.0284 213.045 27.9638 213.293 27.8345C213.542 27.7053 213.745 27.513 213.905 27.2578C214.067 26.9993 214.148 26.6761 214.148 26.2884ZM217.519 32.3636V21.8636H219.288V23.1264H219.393C219.486 22.9408 219.617 22.7436 219.786 22.5348C219.955 22.3227 220.183 22.142 220.472 21.9929C220.76 21.8404 221.128 21.7642 221.575 21.7642C222.165 21.7642 222.697 21.915 223.171 22.2166C223.649 22.5149 224.026 22.9574 224.305 23.544C224.587 24.1274 224.727 24.8433 224.727 25.6918C224.727 26.5303 224.59 27.2429 224.315 27.8295C224.04 28.4162 223.665 28.8636 223.191 29.1719C222.717 29.4801 222.18 29.6342 221.58 29.6342C221.143 29.6342 220.78 29.5613 220.492 29.4155C220.203 29.2696 219.971 29.094 219.796 28.8885C219.623 28.6797 219.489 28.4825 219.393 28.2969H219.318V32.3636H217.519ZM219.284 25.6818C219.284 26.1757 219.353 26.6082 219.492 26.9794C219.635 27.3506 219.839 27.6406 220.104 27.8494C220.372 28.0549 220.697 28.1577 221.078 28.1577C221.476 28.1577 221.809 28.0516 222.078 27.8395C222.346 27.6241 222.548 27.3307 222.684 26.9595C222.823 26.585 222.893 26.1591 222.893 25.6818C222.893 25.2079 222.825 24.7869 222.689 24.419C222.553 24.0511 222.351 23.7628 222.083 23.554C221.814 23.3452 221.479 23.2408 221.078 23.2408C220.694 23.2408 220.367 23.3419 220.099 23.544C219.83 23.7462 219.627 24.0296 219.487 24.3942C219.351 24.7588 219.284 25.188 219.284 25.6818ZM225.989 32.3636V21.8636H227.758V23.1264H227.863C227.956 22.9408 228.087 22.7436 228.256 22.5348C228.425 22.3227 228.653 22.142 228.942 21.9929C229.23 21.8404 229.598 21.7642 230.045 21.7642C230.635 21.7642 231.167 21.915 231.641 22.2166C232.119 22.5149 232.496 22.9574 232.775 23.544C233.057 24.1274 233.197 24.8433 233.197 25.6918C233.197 26.5303 233.06 27.2429 232.785 27.8295C232.51 28.4162 232.135 28.8636 231.661 29.1719C231.187 29.4801 230.65 29.6342 230.05 29.6342C229.613 29.6342 229.25 29.5613 228.962 29.4155C228.673 29.2696 228.441 29.094 228.266 28.8885C228.093 28.6797 227.959 28.4825 227.863 28.2969H227.788V32.3636H225.989ZM227.754 25.6818C227.754 26.1757 227.823 26.6082 227.962 26.9794C228.105 27.3506 228.309 27.6406 228.574 27.8494C228.842 28.0549 229.167 28.1577 229.548 28.1577C229.946 28.1577 230.279 28.0516 230.548 27.8395C230.816 27.6241 231.018 27.3307 231.154 26.9595C231.293 26.585 231.363 26.1591 231.363 25.6818C231.363 25.2079 231.295 24.7869 231.159 24.419C231.023 24.0511 230.821 23.7628 230.553 23.554C230.284 23.3452 229.949 23.2408 229.548 23.2408C229.164 23.2408 228.837 23.3419 228.569 23.544C228.3 23.7462 228.097 24.0296 227.957 24.3942C227.821 24.7588 227.754 25.188 227.754 25.6818ZM237.79 29.6491C237.044 29.6491 236.398 29.4851 235.851 29.157C235.304 28.8288 234.88 28.3698 234.578 27.7798C234.28 27.1899 234.13 26.5005 234.13 25.7116C234.13 24.9228 234.28 24.2318 234.578 23.6385C234.88 23.0452 235.304 22.5845 235.851 22.2564C236.398 21.9283 237.044 21.7642 237.79 21.7642C238.535 21.7642 239.182 21.9283 239.728 22.2564C240.275 22.5845 240.698 23.0452 240.996 23.6385C241.298 24.2318 241.449 24.9228 241.449 25.7116C241.449 26.5005 241.298 27.1899 240.996 27.7798C240.698 28.3698 240.275 28.8288 239.728 29.157C239.182 29.4851 238.535 29.6491 237.79 29.6491ZM237.799 28.2074C238.204 28.2074 238.542 28.0964 238.814 27.8743C239.085 27.6489 239.288 27.3473 239.42 26.9695C239.556 26.5916 239.624 26.1707 239.624 25.7067C239.624 25.2393 239.556 24.8168 239.42 24.4389C239.288 24.0578 239.085 23.7545 238.814 23.5291C238.542 23.3037 238.204 23.1911 237.799 23.1911C237.385 23.1911 237.041 23.3037 236.765 23.5291C236.494 23.7545 236.29 24.0578 236.154 24.4389C236.021 24.8168 235.955 25.2393 235.955 25.7067C235.955 26.1707 236.021 26.5916 236.154 26.9695C236.29 27.3473 236.494 27.6489 236.765 27.8743C237.041 28.0964 237.385 28.2074 237.799 28.2074ZM242.696 29.5V21.8636H244.441V23.1364H244.521C244.66 22.6955 244.899 22.3558 245.237 22.1172C245.578 21.8752 245.967 21.7543 246.405 21.7543C246.504 21.7543 246.615 21.7592 246.738 21.7692C246.864 21.7758 246.968 21.7874 247.051 21.804V23.4595C246.975 23.433 246.854 23.4098 246.688 23.3899C246.526 23.3667 246.369 23.3551 246.216 23.3551C245.888 23.3551 245.593 23.4264 245.331 23.5689C245.073 23.7081 244.869 23.902 244.72 24.1506C244.57 24.3991 244.496 24.6858 244.496 25.0107V29.5H242.696ZM252.19 21.8636V23.2557H247.8V21.8636H252.19ZM248.884 20.0341H250.684V27.2031C250.684 27.4451 250.72 27.6307 250.793 27.7599C250.87 27.8859 250.969 27.9721 251.092 28.0185C251.214 28.0649 251.35 28.0881 251.499 28.0881C251.612 28.0881 251.715 28.0798 251.807 28.0632C251.904 28.0466 251.977 28.0317 252.026 28.0185L252.33 29.4254C252.233 29.4586 252.096 29.495 251.917 29.5348C251.741 29.5746 251.526 29.5978 251.271 29.6044C250.82 29.6177 250.414 29.5497 250.053 29.4006C249.691 29.2481 249.405 29.0128 249.192 28.6946C248.984 28.3764 248.881 27.9787 248.884 27.5014V20.0341Z" fill="#C4FF00"/>
</svg>
