<svg width="29" height="29" viewBox="0 0 29 29" fill="none" xmlns="http://www.w3.org/2000/svg">
<rect width="29" height="29" rx="10.5455" fill="#C4FF00"/>
<path d="M21.71 10.2101C21.617 10.1164 21.5064 10.042 21.3846 9.99121C21.2627 9.94044 21.132 9.91431 21 9.91431C20.868 9.91431 20.7373 9.94044 20.6154 9.99121C20.4936 10.042 20.383 10.1164 20.29 10.2101L12.84 17.6701L9.71001 14.5301C9.61349 14.4369 9.49955 14.3636 9.37469 14.3143C9.24984 14.2651 9.11651 14.241 8.98233 14.2433C8.84815 14.2457 8.71574 14.2744 8.59266 14.3279C8.46959 14.3814 8.35825 14.4586 8.26501 14.5551C8.17177 14.6516 8.09846 14.7656 8.04925 14.8904C8.00005 15.0153 7.97592 15.1486 7.97824 15.2828C7.98056 15.417 8.00929 15.5494 8.06278 15.6725C8.11628 15.7955 8.19349 15.9069 8.29001 16.0001L12.13 19.8401C12.223 19.9338 12.3336 20.0082 12.4554 20.059C12.5773 20.1098 12.708 20.1359 12.84 20.1359C12.972 20.1359 13.1027 20.1098 13.2246 20.059C13.3464 20.0082 13.457 19.9338 13.55 19.8401L21.71 11.6801C21.8115 11.5865 21.8925 11.4728 21.9479 11.3463C22.0033 11.2198 22.0319 11.0832 22.0319 10.9451C22.0319 10.807 22.0033 10.6704 21.9479 10.5439C21.8925 10.4174 21.8115 10.3037 21.71 10.2101Z" fill="#242424"/>
</svg>
