<svg width="390" height="565" viewBox="0 0 390 565" fill="none" xmlns="http://www.w3.org/2000/svg">
<path d="M0 24C0 10.7451 10.7452 0 24 0H366C379.255 0 390 10.7452 390 24V565H0V24Z" fill="#15151A"/>
<rect width="29" height="29" rx="10.5455" transform="matrix(1 0 0 -1 66.5 104)" fill="#C4FF00"/>
<path d="M83.4936 90.1263V85.831C83.4936 85.6271 83.5747 85.4315 83.7189 85.2873C83.8631 85.1431 84.0586 85.0621 84.2626 85.0621C84.4665 85.0621 84.6621 85.1431 84.8063 85.2873C84.9505 85.4315 85.0315 85.6271 85.0315 85.831V91.9825C85.0318 92.0836 85.0121 92.1837 84.9736 92.2771C84.9351 92.3706 84.8784 92.4555 84.807 92.5269C84.7355 92.5984 84.6506 92.655 84.5572 92.6935C84.4638 92.7321 84.3636 92.7518 84.2626 92.7515H78.1111C77.9071 92.7515 77.7115 92.6704 77.5673 92.5262C77.4231 92.382 77.3421 92.1865 77.3421 91.9825C77.3421 91.7786 77.4231 91.583 77.5673 91.4388C77.7115 91.2946 77.9071 91.2136 78.1111 91.2136H82.4056L77.1937 86.0017C77.1223 85.9303 77.0656 85.8456 77.0269 85.7523C76.9882 85.659 76.9683 85.559 76.9683 85.458C76.9682 85.357 76.9881 85.2569 77.0267 85.1636C77.0653 85.0703 77.1219 84.9855 77.1933 84.914C77.2647 84.8426 77.3495 84.7859 77.4428 84.7472C77.5361 84.7086 77.6361 84.6886 77.7371 84.6886C77.8381 84.6886 77.9381 84.7084 78.0314 84.747C78.1248 84.7857 78.2096 84.8423 78.281 84.9137L83.4936 90.1263Z" fill="#242424"/>
<path d="M109.193 98V80.5455H116.079C117.398 80.5455 118.523 80.7812 119.454 81.2528C120.392 81.7187 121.105 82.3807 121.594 83.2386C122.088 84.0909 122.335 85.0937 122.335 86.2472C122.335 87.4062 122.085 88.4034 121.585 89.2386C121.085 90.0682 120.361 90.7045 119.412 91.1477C118.469 91.5909 117.327 91.8125 115.986 91.8125H111.375V88.8466H115.389C116.094 88.8466 116.679 88.75 117.145 88.5568C117.611 88.3636 117.957 88.0739 118.184 87.6875C118.417 87.3011 118.534 86.821 118.534 86.2472C118.534 85.6676 118.417 85.179 118.184 84.7812C117.957 84.3835 117.608 84.0824 117.136 83.8778C116.67 83.6676 116.082 83.5625 115.372 83.5625H112.883V98H109.193ZM118.619 90.0568L122.957 98H118.883L114.639 90.0568H118.619ZM130.15 98.2557C128.803 98.2557 127.644 97.983 126.672 97.4375C125.707 96.8864 124.962 96.108 124.44 95.1023C123.917 94.0909 123.655 92.8949 123.655 91.5142C123.655 90.1676 123.917 88.9858 124.44 87.9688C124.962 86.9517 125.698 86.1591 126.647 85.5909C127.601 85.0227 128.721 84.7386 130.005 84.7386C130.869 84.7386 131.672 84.8778 132.417 85.1562C133.167 85.429 133.82 85.8409 134.377 86.392C134.94 86.9432 135.377 87.6364 135.69 88.4716C136.002 89.3011 136.158 90.2727 136.158 91.3864V92.3835H125.104V90.1335H132.741C132.741 89.6108 132.627 89.1477 132.4 88.7443C132.172 88.3409 131.857 88.0256 131.454 87.7983C131.056 87.5653 130.593 87.4489 130.065 87.4489C129.513 87.4489 129.025 87.5767 128.599 87.8324C128.178 88.0824 127.849 88.4205 127.61 88.8466C127.371 89.267 127.249 89.7358 127.244 90.2528V92.392C127.244 93.0398 127.363 93.5994 127.601 94.071C127.846 94.5426 128.19 94.9062 128.633 95.1619C129.076 95.4176 129.601 95.5455 130.209 95.5455C130.613 95.5455 130.982 95.4886 131.317 95.375C131.653 95.2614 131.94 95.0909 132.178 94.8636C132.417 94.6364 132.599 94.358 132.724 94.0284L136.082 94.25C135.911 95.0568 135.562 95.7614 135.033 96.3636C134.511 96.9602 133.834 97.4261 133.005 97.7614C132.181 98.0909 131.229 98.2557 130.15 98.2557ZM145.087 84.9091V87.6364H137.008V84.9091H145.087ZM138.857 98V83.9631C138.857 83.0142 139.042 82.2273 139.411 81.6023C139.786 80.9773 140.298 80.5085 140.945 80.196C141.593 79.8835 142.329 79.7273 143.153 79.7273C143.71 79.7273 144.218 79.7699 144.678 79.8551C145.144 79.9403 145.491 80.017 145.718 80.0852L145.07 82.8125C144.928 82.767 144.752 82.7244 144.542 82.6847C144.337 82.6449 144.127 82.625 143.911 82.625C143.377 82.625 143.005 82.75 142.795 83C142.585 83.2443 142.479 83.5881 142.479 84.0312V98H138.857ZM152.323 98.2557C150.976 98.2557 149.817 97.983 148.845 97.4375C147.879 96.8864 147.135 96.108 146.612 95.1023C146.09 94.0909 145.828 92.8949 145.828 91.5142C145.828 90.1676 146.09 88.9858 146.612 87.9688C147.135 86.9517 147.871 86.1591 148.82 85.5909C149.774 85.0227 150.894 84.7386 152.178 84.7386C153.041 84.7386 153.845 84.8778 154.59 85.1562C155.34 85.429 155.993 85.8409 156.55 86.392C157.112 86.9432 157.55 87.6364 157.862 88.4716C158.175 89.3011 158.331 90.2727 158.331 91.3864V92.3835H147.277V90.1335H154.913C154.913 89.6108 154.8 89.1477 154.573 88.7443C154.345 88.3409 154.03 88.0256 153.627 87.7983C153.229 87.5653 152.766 87.4489 152.237 87.4489C151.686 87.4489 151.198 87.5767 150.771 87.8324C150.351 88.0824 150.021 88.4205 149.783 88.8466C149.544 89.267 149.422 89.7358 149.416 90.2528V92.392C149.416 93.0398 149.536 93.5994 149.774 94.071C150.019 94.5426 150.362 94.9062 150.806 95.1619C151.249 95.4176 151.774 95.5455 152.382 95.5455C152.786 95.5455 153.155 95.4886 153.49 95.375C153.825 95.2614 154.112 95.0909 154.351 94.8636C154.59 94.6364 154.771 94.358 154.896 94.0284L158.254 94.25C158.084 95.0568 157.735 95.7614 157.206 96.3636C156.683 96.9602 156.007 97.4261 155.178 97.7614C154.354 98.0909 153.402 98.2557 152.323 98.2557ZM160.22 98V84.9091H163.74V87.1932H163.877C164.115 86.3807 164.516 85.767 165.078 85.3523C165.641 84.9318 166.289 84.7216 167.022 84.7216C167.203 84.7216 167.399 84.733 167.61 84.7557C167.82 84.7784 168.005 84.8097 168.164 84.8494V88.071C167.993 88.0199 167.757 87.9744 167.456 87.9347C167.155 87.8949 166.88 87.875 166.63 87.875C166.095 87.875 165.618 87.9915 165.198 88.2244C164.783 88.4517 164.453 88.7699 164.209 89.179C163.97 89.5881 163.851 90.0597 163.851 90.5938V98H160.22ZM169.561 98V84.9091H173.081V87.1932H173.217C173.456 86.3807 173.856 85.767 174.419 85.3523C174.981 84.9318 175.629 84.7216 176.362 84.7216C176.544 84.7216 176.74 84.733 176.95 84.7557C177.16 84.7784 177.345 84.8097 177.504 84.8494V88.071C177.333 88.0199 177.098 87.9744 176.797 87.9347C176.495 87.8949 176.22 87.875 175.97 87.875C175.436 87.875 174.958 87.9915 174.538 88.2244C174.123 88.4517 173.794 88.7699 173.549 89.179C173.311 89.5881 173.191 90.0597 173.191 90.5938V98H169.561ZM182.259 98.2472C181.424 98.2472 180.679 98.1023 180.026 97.8125C179.373 97.517 178.856 97.0824 178.475 96.5085C178.1 95.929 177.912 95.2074 177.912 94.3438C177.912 93.6165 178.046 93.0057 178.313 92.5114C178.58 92.017 178.944 91.6193 179.404 91.3182C179.864 91.017 180.387 90.7898 180.972 90.6364C181.563 90.483 182.182 90.375 182.83 90.3125C183.591 90.233 184.205 90.1591 184.671 90.0909C185.137 90.017 185.475 89.9091 185.685 89.767C185.895 89.625 186 89.4148 186 89.1364V89.0852C186 88.5455 185.83 88.1278 185.489 87.8324C185.154 87.5369 184.677 87.3892 184.057 87.3892C183.404 87.3892 182.884 87.5341 182.498 87.8239C182.111 88.108 181.856 88.4659 181.731 88.8977L178.373 88.625C178.543 87.8295 178.878 87.142 179.378 86.5625C179.878 85.9773 180.523 85.5284 181.313 85.2159C182.108 84.8977 183.029 84.7386 184.074 84.7386C184.802 84.7386 185.498 84.8239 186.162 84.9943C186.833 85.1648 187.427 85.429 187.944 85.7869C188.466 86.1449 188.878 86.6051 189.179 87.1676C189.481 87.7244 189.631 88.392 189.631 89.1705V98H186.188V96.1847H186.086C185.875 96.5938 185.594 96.9545 185.242 97.267C184.89 97.5739 184.466 97.8153 183.972 97.9915C183.478 98.1619 182.907 98.2472 182.259 98.2472ZM183.299 95.7415C183.833 95.7415 184.304 95.6364 184.714 95.4261C185.123 95.2102 185.444 94.9205 185.677 94.5568C185.91 94.1932 186.026 93.7812 186.026 93.321V91.9318C185.912 92.0057 185.756 92.0739 185.557 92.1364C185.364 92.1932 185.145 92.2472 184.901 92.2983C184.657 92.3437 184.412 92.3864 184.168 92.4261C183.924 92.4602 183.702 92.4915 183.503 92.5199C183.077 92.5824 182.705 92.6818 182.387 92.8182C182.069 92.9545 181.822 93.1392 181.645 93.3722C181.469 93.5994 181.381 93.8835 181.381 94.2244C181.381 94.7188 181.56 95.0966 181.918 95.358C182.282 95.6136 182.742 95.7415 183.299 95.7415ZM195.599 80.5455V98H191.968V80.5455H195.599ZM207.099 98L202.105 80.5455H206.136L209.025 92.6733H209.17L212.357 80.5455H215.809L218.988 92.6989H219.141L222.031 80.5455H226.062L221.068 98H217.471L214.147 86.5881H214.011L210.695 98H207.099ZM227.489 98V84.9091H231.12V98H227.489ZM229.313 83.2216C228.773 83.2216 228.31 83.0426 227.924 82.6847C227.543 82.321 227.352 81.8864 227.352 81.3807C227.352 80.8807 227.543 80.4517 227.924 80.0938C228.31 79.7301 228.773 79.5483 229.313 79.5483C229.852 79.5483 230.313 79.7301 230.693 80.0938C231.08 80.4517 231.273 80.8807 231.273 81.3807C231.273 81.8864 231.08 82.321 230.693 82.6847C230.313 83.0426 229.852 83.2216 229.313 83.2216ZM240.511 84.9091V87.6364H232.627V84.9091H240.511ZM234.417 81.7727H238.048V93.9773C238.048 94.3125 238.099 94.5739 238.201 94.7614C238.304 94.9432 238.446 95.071 238.627 95.1449C238.815 95.2187 239.031 95.2557 239.275 95.2557C239.446 95.2557 239.616 95.2415 239.787 95.2131C239.957 95.179 240.088 95.1534 240.179 95.1364L240.75 97.8381C240.568 97.8949 240.312 97.9602 239.983 98.0341C239.653 98.1136 239.252 98.1619 238.781 98.179C237.906 98.2131 237.139 98.0966 236.48 97.8295C235.826 97.5625 235.318 97.1477 234.954 96.5852C234.591 96.0227 234.412 95.3125 234.417 94.4545V81.7727ZM246.308 90.4318V98H242.677V80.5455H246.206V87.2188H246.359C246.655 86.446 247.132 85.8409 247.791 85.4034C248.45 84.9602 249.277 84.7386 250.271 84.7386C251.18 84.7386 251.973 84.9375 252.649 85.3352C253.331 85.7273 253.859 86.2926 254.234 87.0312C254.615 87.7642 254.802 88.642 254.797 89.6648V98H251.166V90.3125C251.172 89.5057 250.967 88.8778 250.552 88.429C250.143 87.9801 249.569 87.7557 248.831 87.7557C248.336 87.7557 247.899 87.8608 247.518 88.071C247.143 88.2812 246.848 88.5881 246.632 88.9915C246.422 89.3892 246.314 89.8693 246.308 90.4318ZM261.998 98.2131C261.003 98.2131 260.103 97.9574 259.296 97.446C258.495 96.929 257.859 96.1705 257.387 95.1705C256.921 94.1648 256.688 92.9318 256.688 91.4716C256.688 89.9716 256.93 88.7244 257.412 87.7301C257.895 86.7301 258.537 85.983 259.339 85.4886C260.145 84.9886 261.029 84.7386 261.989 84.7386C262.722 84.7386 263.333 84.8636 263.822 85.1136C264.316 85.358 264.714 85.6648 265.015 86.0341C265.322 86.3977 265.555 86.7557 265.714 87.108H265.824V80.5455H269.447V98H265.867V95.9034H265.714C265.543 96.267 265.302 96.6278 264.989 96.9858C264.682 97.3381 264.282 97.6307 263.787 97.8636C263.299 98.0966 262.702 98.2131 261.998 98.2131ZM263.148 95.3239C263.734 95.3239 264.228 95.1648 264.631 94.8466C265.04 94.5227 265.353 94.071 265.569 93.4915C265.79 92.9119 265.901 92.233 265.901 91.4545C265.901 90.6761 265.793 90 265.577 89.4261C265.361 88.8523 265.049 88.4091 264.64 88.0966C264.231 87.7841 263.734 87.6278 263.148 87.6278C262.552 87.6278 262.049 87.7898 261.64 88.1136C261.231 88.4375 260.921 88.8864 260.711 89.4602C260.501 90.0341 260.395 90.6989 260.395 91.4545C260.395 92.2159 260.501 92.8892 260.711 93.4744C260.927 94.054 261.236 94.5085 261.64 94.8381C262.049 95.1619 262.552 95.3239 263.148 95.3239ZM271.952 98V84.9091H275.472V87.1932H275.608C275.847 86.3807 276.247 85.767 276.81 85.3523C277.372 84.9318 278.02 84.7216 278.753 84.7216C278.935 84.7216 279.131 84.733 279.341 84.7557C279.551 84.7784 279.736 84.8097 279.895 84.8494V88.071C279.724 88.0199 279.489 87.9744 279.187 87.9347C278.886 87.8949 278.611 87.875 278.361 87.875C277.827 87.875 277.349 87.9915 276.929 88.2244C276.514 88.4517 276.185 88.7699 275.94 89.179C275.702 89.5881 275.582 90.0597 275.582 90.5938V98H271.952ZM284.65 98.2472C283.815 98.2472 283.07 98.1023 282.417 97.8125C281.764 97.517 281.247 97.0824 280.866 96.5085C280.491 95.929 280.303 95.2074 280.303 94.3438C280.303 93.6165 280.437 93.0057 280.704 92.5114C280.971 92.017 281.335 91.6193 281.795 91.3182C282.255 91.017 282.778 90.7898 283.363 90.6364C283.954 90.483 284.573 90.375 285.221 90.3125C285.982 90.233 286.596 90.1591 287.062 90.0909C287.528 90.017 287.866 89.9091 288.076 89.767C288.286 89.625 288.391 89.4148 288.391 89.1364V89.0852C288.391 88.5455 288.221 88.1278 287.88 87.8324C287.545 87.5369 287.068 87.3892 286.448 87.3892C285.795 87.3892 285.275 87.5341 284.889 87.8239C284.502 88.108 284.247 88.4659 284.122 88.8977L280.764 88.625C280.934 87.8295 281.269 87.142 281.769 86.5625C282.269 85.9773 282.914 85.5284 283.704 85.2159C284.499 84.8977 285.42 84.7386 286.465 84.7386C287.193 84.7386 287.889 84.8239 288.553 84.9943C289.224 85.1648 289.818 85.429 290.335 85.7869C290.857 86.1449 291.269 86.6051 291.57 87.1676C291.872 87.7244 292.022 88.392 292.022 89.1705V98H288.579V96.1847H288.477C288.266 96.5938 287.985 96.9545 287.633 97.267C287.281 97.5739 286.857 97.8153 286.363 97.9915C285.869 98.1619 285.298 98.2472 284.65 98.2472ZM285.69 95.7415C286.224 95.7415 286.695 95.6364 287.104 95.4261C287.514 95.2102 287.835 94.9205 288.068 94.5568C288.301 94.1932 288.417 93.7812 288.417 93.321V91.9318C288.303 92.0057 288.147 92.0739 287.948 92.1364C287.755 92.1932 287.536 92.2472 287.292 92.2983C287.048 92.3437 286.803 92.3864 286.559 92.4261C286.315 92.4602 286.093 92.4915 285.894 92.5199C285.468 92.5824 285.096 92.6818 284.778 92.8182C284.46 92.9545 284.212 93.1392 284.036 93.3722C283.86 93.5994 283.772 93.8835 283.772 94.2244C283.772 94.7188 283.951 95.0966 284.309 95.358C284.673 95.6136 285.133 95.7415 285.69 95.7415ZM296.941 98L293.379 84.9091H297.052L299.08 93.7045H299.2L301.313 84.9091H304.919L307.066 93.6534H307.177L309.171 84.9091H312.836L309.282 98H305.438L303.188 89.767H303.026L300.776 98H296.941Z" fill="white"/>
<path opacity="0.5" d="M122.178 128V117.818H128.8V119.364H124.022V122.129H128.457V123.675H124.022V126.454H128.84V128H122.178ZM132.122 123.526V128H130.322V120.364H132.042V121.661H132.132C132.307 121.234 132.587 120.894 132.972 120.642C133.36 120.39 133.839 120.264 134.409 120.264C134.936 120.264 135.395 120.377 135.786 120.602C136.18 120.828 136.485 121.154 136.701 121.582C136.919 122.009 137.027 122.528 137.024 123.138V128H135.224V123.416C135.224 122.906 135.091 122.506 134.826 122.218C134.564 121.93 134.202 121.786 133.738 121.786C133.423 121.786 133.143 121.855 132.897 121.994C132.655 122.13 132.465 122.327 132.326 122.586C132.19 122.844 132.122 123.158 132.122 123.526ZM142.386 120.364V121.756H137.997V120.364H142.386ZM139.08 118.534H140.88V125.703C140.88 125.945 140.917 126.131 140.989 126.26C141.066 126.386 141.165 126.472 141.288 126.518C141.41 126.565 141.546 126.588 141.695 126.588C141.808 126.588 141.911 126.58 142.004 126.563C142.1 126.547 142.173 126.532 142.222 126.518L142.526 127.925C142.43 127.959 142.292 127.995 142.113 128.035C141.937 128.075 141.722 128.098 141.467 128.104C141.016 128.118 140.61 128.05 140.249 127.901C139.887 127.748 139.601 127.513 139.389 127.195C139.18 126.876 139.077 126.479 139.08 126.001V118.534ZM146.91 128.149C146.145 128.149 145.483 127.99 144.927 127.672C144.373 127.35 143.947 126.896 143.649 126.31C143.351 125.72 143.201 125.025 143.201 124.227C143.201 123.441 143.351 122.752 143.649 122.158C143.951 121.562 144.371 121.098 144.912 120.766C145.452 120.432 146.087 120.264 146.816 120.264C147.286 120.264 147.731 120.34 148.148 120.493C148.569 120.642 148.94 120.874 149.262 121.189C149.587 121.504 149.842 121.905 150.027 122.392C150.213 122.876 150.306 123.453 150.306 124.122V124.674H144.047V123.461H148.581C148.577 123.116 148.503 122.81 148.357 122.541C148.211 122.269 148.007 122.056 147.746 121.9C147.487 121.744 147.185 121.666 146.841 121.666C146.473 121.666 146.15 121.756 145.871 121.935C145.593 122.11 145.376 122.342 145.22 122.631C145.067 122.916 144.99 123.229 144.986 123.57V124.629C144.986 125.073 145.067 125.455 145.23 125.773C145.392 126.088 145.619 126.33 145.911 126.499C146.203 126.664 146.544 126.747 146.935 126.747C147.197 126.747 147.434 126.711 147.646 126.638C147.858 126.562 148.042 126.451 148.198 126.305C148.354 126.159 148.471 125.978 148.551 125.763L150.231 125.952C150.125 126.396 149.923 126.784 149.625 127.115C149.33 127.443 148.952 127.698 148.491 127.881C148.031 128.06 147.504 128.149 146.91 128.149ZM151.548 128V120.364H153.293V121.636H153.373C153.512 121.196 153.751 120.856 154.089 120.617C154.43 120.375 154.82 120.254 155.257 120.254C155.357 120.254 155.468 120.259 155.59 120.269C155.716 120.276 155.821 120.287 155.904 120.304V121.96C155.827 121.933 155.706 121.91 155.541 121.89C155.378 121.867 155.221 121.855 155.068 121.855C154.74 121.855 154.445 121.926 154.183 122.069C153.925 122.208 153.721 122.402 153.572 122.651C153.423 122.899 153.348 123.186 153.348 123.511V128H151.548ZM161.588 128L159.43 120.364H161.265L162.607 125.733H162.677L164.049 120.364H165.863L167.236 125.703H167.31L168.633 120.364H170.472L168.309 128H166.435L165.003 122.839H164.899L163.467 128H161.588ZM171.449 128V120.364H173.248V128H171.449ZM172.353 119.28C172.068 119.28 171.823 119.185 171.618 118.996C171.412 118.804 171.309 118.574 171.309 118.305C171.309 118.034 171.412 117.803 171.618 117.614C171.823 117.422 172.068 117.326 172.353 117.326C172.642 117.326 172.887 117.422 173.089 117.614C173.295 117.803 173.398 118.034 173.398 118.305C173.398 118.574 173.295 118.804 173.089 118.996C172.887 119.185 172.642 119.28 172.353 119.28ZM178.632 120.364V121.756H174.242V120.364H178.632ZM175.326 118.534H177.126V125.703C177.126 125.945 177.162 126.131 177.235 126.26C177.311 126.386 177.411 126.472 177.534 126.518C177.656 126.565 177.792 126.588 177.941 126.588C178.054 126.588 178.157 126.58 178.249 126.563C178.346 126.547 178.418 126.532 178.468 126.518L178.771 127.925C178.675 127.959 178.538 127.995 178.359 128.035C178.183 128.075 177.968 128.098 177.713 128.104C177.262 128.118 176.856 128.05 176.494 127.901C176.133 127.748 175.847 127.513 175.634 127.195C175.426 126.876 175.323 126.479 175.326 126.001V118.534ZM181.821 123.526V128H180.021V117.818H181.781V121.661H181.871C182.05 121.23 182.327 120.891 182.701 120.642C183.079 120.39 183.56 120.264 184.143 120.264C184.673 120.264 185.136 120.375 185.53 120.597C185.924 120.819 186.229 121.144 186.445 121.572C186.664 121.999 186.773 122.521 186.773 123.138V128H184.973V123.416C184.973 122.902 184.841 122.503 184.575 122.218C184.314 121.93 183.946 121.786 183.472 121.786C183.154 121.786 182.869 121.855 182.617 121.994C182.368 122.13 182.173 122.327 182.03 122.586C181.891 122.844 181.821 123.158 181.821 123.526ZM191.161 128.134C190.561 128.134 190.024 127.98 189.55 127.672C189.076 127.364 188.702 126.916 188.427 126.33C188.152 125.743 188.014 125.03 188.014 124.192C188.014 123.343 188.153 122.627 188.432 122.044C188.714 121.457 189.093 121.015 189.57 120.717C190.048 120.415 190.58 120.264 191.166 120.264C191.614 120.264 191.982 120.34 192.27 120.493C192.558 120.642 192.787 120.823 192.956 121.035C193.125 121.244 193.256 121.441 193.349 121.626H193.423V117.818H195.228V128H193.458V126.797H193.349C193.256 126.982 193.122 127.18 192.946 127.388C192.77 127.594 192.538 127.77 192.25 127.915C191.962 128.061 191.599 128.134 191.161 128.134ZM191.663 126.658C192.045 126.658 192.369 126.555 192.638 126.349C192.906 126.141 193.11 125.851 193.249 125.479C193.388 125.108 193.458 124.676 193.458 124.182C193.458 123.688 193.388 123.259 193.249 122.894C193.113 122.53 192.911 122.246 192.643 122.044C192.378 121.842 192.051 121.741 191.663 121.741C191.262 121.741 190.928 121.845 190.659 122.054C190.391 122.263 190.188 122.551 190.053 122.919C189.917 123.287 189.849 123.708 189.849 124.182C189.849 124.659 189.917 125.085 190.053 125.46C190.192 125.831 190.396 126.124 190.664 126.339C190.936 126.552 191.269 126.658 191.663 126.658ZM196.866 128V120.364H198.611V121.636H198.69C198.83 121.196 199.068 120.856 199.406 120.617C199.748 120.375 200.137 120.254 200.575 120.254C200.674 120.254 200.785 120.259 200.908 120.269C201.034 120.276 201.138 120.287 201.221 120.304V121.96C201.145 121.933 201.024 121.91 200.858 121.89C200.696 121.867 200.538 121.855 200.386 121.855C200.058 121.855 199.763 121.926 199.501 122.069C199.242 122.208 199.038 122.402 198.889 122.651C198.74 122.899 198.665 123.186 198.665 123.511V128H196.866ZM204.197 128.154C203.713 128.154 203.278 128.068 202.89 127.896C202.505 127.72 202.2 127.461 201.975 127.12C201.753 126.779 201.642 126.358 201.642 125.857C201.642 125.426 201.721 125.07 201.881 124.788C202.04 124.507 202.257 124.281 202.532 124.112C202.807 123.943 203.117 123.816 203.461 123.729C203.809 123.64 204.169 123.575 204.54 123.536C204.988 123.489 205.351 123.448 205.629 123.411C205.908 123.371 206.11 123.312 206.236 123.232C206.365 123.149 206.43 123.022 206.43 122.849V122.82C206.43 122.445 206.318 122.155 206.096 121.95C205.874 121.744 205.555 121.641 205.137 121.641C204.696 121.641 204.346 121.737 204.088 121.93C203.833 122.122 203.66 122.349 203.571 122.611L201.89 122.372C202.023 121.908 202.242 121.52 202.547 121.209C202.852 120.894 203.225 120.659 203.665 120.503C204.106 120.344 204.593 120.264 205.127 120.264C205.495 120.264 205.861 120.307 206.226 120.393C206.59 120.48 206.923 120.622 207.225 120.821C207.527 121.017 207.769 121.283 207.951 121.621C208.136 121.96 208.229 122.382 208.229 122.889V128H206.499V126.951H206.439C206.33 127.163 206.176 127.362 205.977 127.548C205.782 127.73 205.535 127.877 205.236 127.99C204.941 128.099 204.595 128.154 204.197 128.154ZM204.665 126.832C205.026 126.832 205.339 126.76 205.604 126.618C205.869 126.472 206.073 126.28 206.216 126.041C206.362 125.803 206.434 125.542 206.434 125.261V124.361C206.378 124.407 206.282 124.45 206.146 124.49C206.014 124.53 205.864 124.565 205.699 124.594C205.533 124.624 205.369 124.651 205.207 124.674C205.044 124.697 204.903 124.717 204.784 124.734C204.515 124.77 204.275 124.83 204.063 124.913C203.851 124.996 203.684 125.112 203.561 125.261C203.438 125.406 203.377 125.595 203.377 125.827C203.377 126.159 203.498 126.409 203.74 126.578C203.982 126.747 204.29 126.832 204.665 126.832ZM211.335 128L209.177 120.364H211.012L212.354 125.733H212.424L213.796 120.364H215.61L216.983 125.703H217.057L218.38 120.364H220.219L218.056 128H216.182L214.75 122.839H214.646L213.214 128H211.335ZM223.393 128.154C222.909 128.154 222.473 128.068 222.086 127.896C221.701 127.72 221.396 127.461 221.171 127.12C220.949 126.779 220.838 126.358 220.838 125.857C220.838 125.426 220.917 125.07 221.076 124.788C221.235 124.507 221.453 124.281 221.728 124.112C222.003 123.943 222.313 123.816 222.657 123.729C223.005 123.64 223.365 123.575 223.736 123.536C224.184 123.489 224.547 123.448 224.825 123.411C225.103 123.371 225.306 123.312 225.431 123.232C225.561 123.149 225.625 123.022 225.625 122.849V122.82C225.625 122.445 225.514 122.155 225.292 121.95C225.07 121.744 224.75 121.641 224.333 121.641C223.892 121.641 223.542 121.737 223.284 121.93C223.029 122.122 222.856 122.349 222.767 122.611L221.086 122.372C221.219 121.908 221.438 121.52 221.743 121.209C222.047 120.894 222.42 120.659 222.861 120.503C223.302 120.344 223.789 120.264 224.323 120.264C224.691 120.264 225.057 120.307 225.422 120.393C225.786 120.48 226.119 120.622 226.421 120.821C226.722 121.017 226.964 121.283 227.147 121.621C227.332 121.96 227.425 122.382 227.425 122.889V128H225.695V126.951H225.635C225.526 127.163 225.372 127.362 225.173 127.548C224.977 127.73 224.73 127.877 224.432 127.99C224.137 128.099 223.791 128.154 223.393 128.154ZM223.86 126.832C224.222 126.832 224.535 126.76 224.8 126.618C225.065 126.472 225.269 126.28 225.412 126.041C225.557 125.803 225.63 125.542 225.63 125.261V124.361C225.574 124.407 225.478 124.45 225.342 124.49C225.209 124.53 225.06 124.565 224.895 124.594C224.729 124.624 224.565 124.651 224.402 124.674C224.24 124.697 224.099 124.717 223.98 124.734C223.711 124.77 223.471 124.83 223.259 124.913C223.047 124.996 222.879 125.112 222.757 125.261C222.634 125.406 222.573 125.595 222.573 125.827C222.573 126.159 222.694 126.409 222.936 126.578C223.178 126.747 223.486 126.832 223.86 126.832ZM230.754 117.818V128H228.955V117.818H230.754ZM242.339 120.364L239.619 128H237.631L234.911 120.364H236.83L238.585 126.036H238.665L240.425 120.364H242.339ZM245.283 128.154C244.799 128.154 244.363 128.068 243.975 127.896C243.591 127.72 243.286 127.461 243.061 127.12C242.839 126.779 242.728 126.358 242.728 125.857C242.728 125.426 242.807 125.07 242.966 124.788C243.125 124.507 243.342 124.281 243.617 124.112C243.893 123.943 244.202 123.816 244.547 123.729C244.895 123.64 245.255 123.575 245.626 123.536C246.073 123.489 246.436 123.448 246.715 123.411C246.993 123.371 247.195 123.312 247.321 123.232C247.451 123.149 247.515 123.022 247.515 122.849V122.82C247.515 122.445 247.404 122.155 247.182 121.95C246.96 121.744 246.64 121.641 246.223 121.641C245.782 121.641 245.432 121.737 245.174 121.93C244.918 122.122 244.746 122.349 244.656 122.611L242.976 122.372C243.109 121.908 243.327 121.52 243.632 121.209C243.937 120.894 244.31 120.659 244.751 120.503C245.192 120.344 245.679 120.264 246.213 120.264C246.58 120.264 246.947 120.307 247.311 120.393C247.676 120.48 248.009 120.622 248.311 120.821C248.612 121.017 248.854 121.283 249.036 121.621C249.222 121.96 249.315 122.382 249.315 122.889V128H247.585V126.951H247.525C247.416 127.163 247.262 127.362 247.063 127.548C246.867 127.73 246.62 127.877 246.322 127.99C246.027 128.099 245.681 128.154 245.283 128.154ZM245.75 126.832C246.112 126.832 246.425 126.76 246.69 126.618C246.955 126.472 247.159 126.28 247.301 126.041C247.447 125.803 247.52 125.542 247.52 125.261V124.361C247.464 124.407 247.368 124.45 247.232 124.49C247.099 124.53 246.95 124.565 246.784 124.594C246.619 124.624 246.455 124.651 246.292 124.674C246.13 124.697 245.989 124.717 245.87 124.734C245.601 124.77 245.361 124.83 245.149 124.913C244.937 124.996 244.769 125.112 244.647 125.261C244.524 125.406 244.463 125.595 244.463 125.827C244.463 126.159 244.584 126.409 244.826 126.578C245.067 126.747 245.376 126.832 245.75 126.832ZM252.644 117.818V128H250.845V117.818H252.644ZM259.082 124.788V120.364H260.882V128H259.137V126.643H259.057C258.885 127.07 258.602 127.42 258.207 127.692C257.816 127.964 257.334 128.099 256.76 128.099C256.26 128.099 255.817 127.988 255.433 127.766C255.052 127.541 254.753 127.214 254.538 126.787C254.323 126.356 254.215 125.836 254.215 125.226V120.364H256.015V124.947C256.015 125.431 256.147 125.816 256.412 126.101C256.678 126.386 257.026 126.528 257.456 126.528C257.722 126.528 257.978 126.464 258.227 126.335C258.476 126.205 258.679 126.013 258.838 125.758C259.001 125.499 259.082 125.176 259.082 124.788ZM265.833 128.149C265.068 128.149 264.406 127.99 263.85 127.672C263.296 127.35 262.87 126.896 262.572 126.31C262.274 125.72 262.124 125.025 262.124 124.227C262.124 123.441 262.274 122.752 262.572 122.158C262.873 121.562 263.294 121.098 263.835 120.766C264.375 120.432 265.01 120.264 265.739 120.264C266.209 120.264 266.653 120.34 267.071 120.493C267.492 120.642 267.863 120.874 268.185 121.189C268.51 121.504 268.765 121.905 268.95 122.392C269.136 122.876 269.229 123.453 269.229 124.122V124.674H262.97V123.461H267.504C267.5 123.116 267.426 122.81 267.28 122.541C267.134 122.269 266.93 122.056 266.668 121.9C266.41 121.744 266.108 121.666 265.764 121.666C265.396 121.666 265.073 121.756 264.794 121.935C264.516 122.11 264.299 122.342 264.143 122.631C263.99 122.916 263.912 123.229 263.909 123.57V124.629C263.909 125.073 263.99 125.455 264.153 125.773C264.315 126.088 264.542 126.33 264.834 126.499C265.126 126.664 265.467 126.747 265.858 126.747C266.12 126.747 266.357 126.711 266.569 126.638C266.781 126.562 266.965 126.451 267.121 126.305C267.277 126.159 267.394 125.978 267.474 125.763L269.154 125.952C269.048 126.396 268.846 126.784 268.548 127.115C268.253 127.443 267.875 127.698 267.414 127.881C266.953 128.06 266.426 128.149 265.833 128.149Z" fill="white"/>
<path d="M16 503C16 489.745 26.7452 479 40 479H350C363.255 479 374 489.745 374 503V507C374 520.255 363.255 531 350 531H40C26.7452 531 16 520.255 16 507V503Z" fill="#C4FF00"/>
<path d="M161.407 510.5L158.077 498.864H160.765L162.691 506.949H162.788L164.913 498.864H167.214L169.333 506.966H169.435L171.361 498.864H174.049L170.719 510.5H168.322L166.106 502.892H166.015L163.805 510.5H161.407ZM175 510.5V501.773H177.421V510.5H175ZM176.216 500.648C175.856 500.648 175.548 500.528 175.29 500.29C175.036 500.047 174.909 499.758 174.909 499.42C174.909 499.087 175.036 498.801 175.29 498.562C175.548 498.32 175.856 498.199 176.216 498.199C176.576 498.199 176.883 498.32 177.137 498.562C177.394 498.801 177.523 499.087 177.523 499.42C177.523 499.758 177.394 500.047 177.137 500.29C176.883 500.528 176.576 500.648 176.216 500.648ZM183.682 501.773V503.591H178.426V501.773H183.682ZM179.619 499.682H182.04V507.818C182.04 508.042 182.074 508.216 182.142 508.341C182.21 508.462 182.305 508.547 182.426 508.597C182.551 508.646 182.695 508.67 182.858 508.67C182.971 508.67 183.085 508.661 183.199 508.642C183.312 508.619 183.4 508.602 183.46 508.591L183.841 510.392C183.72 510.43 183.549 510.473 183.329 510.523C183.11 510.576 182.843 510.608 182.528 510.619C181.945 510.642 181.434 510.564 180.994 510.386C180.559 510.208 180.22 509.932 179.977 509.557C179.735 509.182 179.615 508.708 179.619 508.136V499.682ZM187.546 505.455V510.5H185.126V498.864H187.478V503.312H187.58C187.777 502.797 188.096 502.394 188.535 502.102C188.974 501.807 189.526 501.659 190.188 501.659C190.794 501.659 191.323 501.792 191.774 502.057C192.228 502.318 192.58 502.695 192.83 503.188C193.084 503.676 193.209 504.261 193.205 504.943V510.5H190.785V505.375C190.789 504.837 190.652 504.419 190.376 504.119C190.103 503.82 189.721 503.67 189.228 503.67C188.899 503.67 188.607 503.741 188.353 503.881C188.103 504.021 187.906 504.225 187.762 504.494C187.622 504.759 187.55 505.08 187.546 505.455ZM198.006 510.642C197.343 510.642 196.743 510.472 196.205 510.131C195.671 509.786 195.247 509.28 194.932 508.614C194.622 507.943 194.466 507.121 194.466 506.148C194.466 505.148 194.627 504.316 194.949 503.653C195.271 502.987 195.699 502.489 196.233 502.159C196.771 501.826 197.36 501.659 198.001 501.659C198.489 501.659 198.896 501.742 199.222 501.909C199.552 502.072 199.817 502.277 200.018 502.523C200.222 502.765 200.377 503.004 200.483 503.239H200.557V498.864H202.972V510.5H200.586V509.102H200.483C200.37 509.345 200.209 509.585 200.001 509.824C199.796 510.059 199.529 510.254 199.199 510.409C198.874 510.564 198.476 510.642 198.006 510.642ZM198.773 508.716C199.163 508.716 199.493 508.61 199.762 508.398C200.035 508.182 200.243 507.881 200.387 507.494C200.535 507.108 200.608 506.655 200.608 506.136C200.608 505.617 200.536 505.167 200.393 504.784C200.249 504.402 200.04 504.106 199.768 503.898C199.495 503.689 199.163 503.585 198.773 503.585C198.376 503.585 198.04 503.693 197.768 503.909C197.495 504.125 197.288 504.424 197.148 504.807C197.008 505.189 196.938 505.633 196.938 506.136C196.938 506.644 197.008 507.093 197.148 507.483C197.292 507.869 197.499 508.172 197.768 508.392C198.04 508.608 198.376 508.716 198.773 508.716ZM204.642 510.5V501.773H206.989V503.295H207.08C207.239 502.754 207.506 502.345 207.881 502.068C208.256 501.788 208.688 501.648 209.176 501.648C209.297 501.648 209.428 501.655 209.568 501.67C209.708 501.686 209.832 501.706 209.938 501.733V503.881C209.824 503.847 209.667 503.816 209.466 503.79C209.265 503.763 209.082 503.75 208.915 503.75C208.559 503.75 208.241 503.828 207.96 503.983C207.684 504.134 207.464 504.347 207.301 504.619C207.142 504.892 207.063 505.206 207.063 505.562V510.5H204.642ZM213.108 510.665C212.551 510.665 212.055 510.568 211.619 510.375C211.183 510.178 210.839 509.888 210.585 509.506C210.335 509.119 210.21 508.638 210.21 508.062C210.21 507.578 210.299 507.17 210.477 506.841C210.655 506.511 210.897 506.246 211.204 506.045C211.511 505.845 211.86 505.693 212.25 505.591C212.644 505.489 213.057 505.417 213.488 505.375C213.996 505.322 214.405 505.273 214.716 505.227C215.026 505.178 215.252 505.106 215.392 505.011C215.532 504.917 215.602 504.777 215.602 504.591V504.557C215.602 504.197 215.488 503.919 215.261 503.722C215.038 503.525 214.719 503.426 214.307 503.426C213.871 503.426 213.524 503.523 213.267 503.716C213.009 503.905 212.839 504.144 212.755 504.432L210.517 504.25C210.63 503.72 210.854 503.261 211.187 502.875C211.521 502.485 211.95 502.186 212.477 501.977C213.007 501.765 213.621 501.659 214.318 501.659C214.803 501.659 215.267 501.716 215.71 501.83C216.157 501.943 216.553 502.119 216.897 502.358C217.246 502.597 217.521 502.903 217.721 503.278C217.922 503.65 218.022 504.095 218.022 504.614V510.5H215.727V509.29H215.659C215.519 509.562 215.331 509.803 215.096 510.011C214.861 510.216 214.579 510.377 214.25 510.494C213.92 510.608 213.539 510.665 213.108 510.665ZM213.801 508.994C214.157 508.994 214.471 508.924 214.744 508.784C215.017 508.64 215.231 508.447 215.386 508.205C215.541 507.962 215.619 507.687 215.619 507.381V506.455C215.543 506.504 215.439 506.549 215.307 506.591C215.178 506.629 215.032 506.665 214.869 506.699C214.706 506.729 214.543 506.758 214.38 506.784C214.218 506.807 214.07 506.828 213.937 506.847C213.653 506.888 213.405 506.955 213.193 507.045C212.981 507.136 212.816 507.259 212.699 507.415C212.581 507.566 212.522 507.756 212.522 507.983C212.522 508.312 212.642 508.564 212.88 508.739C213.123 508.909 213.43 508.994 213.801 508.994ZM221.302 510.5L218.927 501.773H221.376L222.728 507.636H222.808L224.217 501.773H226.62L228.052 507.602H228.126L229.455 501.773H231.898L229.529 510.5H226.967L225.467 505.011H225.359L223.859 510.5H221.302Z" fill="#242424"/>
<rect x="157" y="15" width="76" height="3" rx="1.5" fill="#1A1A20"/>
</svg>
