<svg width="29" height="29" viewBox="0 0 29 29" fill="none" xmlns="http://www.w3.org/2000/svg">
<rect width="29" height="29" rx="10.5455" transform="matrix(1 0 0 -1 0 29)" fill="#C4FF00"/>
<path d="M16.9936 15.1263V10.831C16.9936 10.6271 17.0747 10.4315 17.2189 10.2873C17.3631 10.1431 17.5586 10.0621 17.7626 10.0621C17.9665 10.0621 18.1621 10.1431 18.3063 10.2873C18.4505 10.4315 18.5315 10.6271 18.5315 10.831V16.9825C18.5318 17.0836 18.5121 17.1837 18.4736 17.2771C18.4351 17.3706 18.3784 17.4555 18.307 17.5269C18.2355 17.5984 18.1506 17.655 18.0572 17.6935C17.9638 17.7321 17.8636 17.7518 17.7626 17.7515H11.6111C11.4071 17.7515 11.2115 17.6704 11.0673 17.5262C10.9231 17.382 10.8421 17.1865 10.8421 16.9825C10.8421 16.7786 10.9231 16.583 11.0673 16.4388C11.2115 16.2946 11.4071 16.2136 11.6111 16.2136H15.9056L10.6937 11.0017C10.6223 10.9303 10.5656 10.8456 10.5269 10.7523C10.4882 10.659 10.4683 10.559 10.4683 10.458C10.4682 10.357 10.4881 10.2569 10.5267 10.1636C10.5653 10.0703 10.6219 9.98549 10.6933 9.91405C10.7647 9.84261 10.8495 9.78592 10.9428 9.74724C11.0361 9.70856 11.1361 9.68863 11.2371 9.68859C11.3381 9.68856 11.4381 9.70841 11.5314 9.74703C11.6248 9.78565 11.7096 9.84227 11.781 9.91366L16.9936 15.1263Z" fill="#242424"/>
</svg>
