<svg width="390" height="429" viewBox="0 0 390 429" fill="none" xmlns="http://www.w3.org/2000/svg">
<path d="M0 24C0 10.7452 10.7452 0 24 0H366C379.255 0 390 10.7452 390 24V429H0V24Z" fill="#15151A"/>
<rect x="52.5" y="79" width="29" height="29" rx="10.5455" fill="#C4FF00"/>
<path d="M74.21 89.2101C74.117 89.1164 74.0064 89.042 73.8846 88.9912C73.7627 88.9404 73.632 88.9143 73.5 88.9143C73.368 88.9143 73.2373 88.9404 73.1154 88.9912C72.9936 89.042 72.883 89.1164 72.79 89.2101L65.34 96.6701L62.21 93.5301C62.1135 93.4369 61.9995 93.3636 61.8747 93.3143C61.7498 93.2651 61.6165 93.241 61.4823 93.2433C61.3482 93.2457 61.2157 93.2744 61.0927 93.3279C60.9696 93.3814 60.8582 93.4586 60.765 93.5551C60.6718 93.6516 60.5985 93.7656 60.5493 93.8904C60.5001 94.0153 60.4759 94.1486 60.4782 94.2828C60.4806 94.417 60.5093 94.5494 60.5628 94.6725C60.6163 94.7955 60.6935 94.9069 60.79 95.0001L64.63 98.8401C64.723 98.9338 64.8336 99.0082 64.9554 99.059C65.0773 99.1098 65.208 99.1359 65.34 99.1359C65.472 99.1359 65.6027 99.1098 65.7246 99.059C65.8464 99.0082 65.957 98.9338 66.05 98.8401L74.21 90.6801C74.3115 90.5865 74.3925 90.4728 74.4479 90.3463C74.5033 90.2198 74.5319 90.0832 74.5319 89.9451C74.5319 89.807 74.5033 89.6704 74.4479 89.5439C74.3925 89.4174 74.3115 89.3037 74.21 89.2101Z" fill="#242424"/>
<path d="M104.98 89.5653C104.912 88.8778 104.619 88.3437 104.102 87.9631C103.585 87.5824 102.883 87.392 101.997 87.392C101.395 87.392 100.886 87.4773 100.471 87.6477C100.057 87.8125 99.7384 88.0426 99.5168 88.3381C99.3009 88.6335 99.1929 88.9688 99.1929 89.3438C99.1816 89.6562 99.2469 89.929 99.389 90.1619C99.5367 90.3949 99.7384 90.5966 99.9941 90.767C100.25 90.9318 100.545 91.0767 100.88 91.2017C101.216 91.321 101.574 91.4233 101.954 91.5085L103.522 91.8835C104.284 92.054 104.983 92.2812 105.619 92.5653C106.255 92.8494 106.807 93.1989 107.272 93.6136C107.738 94.0284 108.099 94.517 108.355 95.0795C108.616 95.642 108.75 96.2869 108.755 97.0142C108.75 98.0824 108.477 99.0085 107.937 99.7926C107.403 100.571 106.63 101.176 105.619 101.608C104.613 102.034 103.4 102.247 101.98 102.247C100.571 102.247 99.3435 102.031 98.298 101.599C97.2583 101.168 96.4458 100.528 95.8605 99.6818C95.281 98.8295 94.977 97.7756 94.9486 96.5199H98.5196C98.5594 97.1051 98.727 97.5937 99.0225 97.9858C99.3236 98.3722 99.7242 98.6648 100.224 98.8636C100.73 99.0568 101.301 99.1534 101.937 99.1534C102.562 99.1534 103.105 99.0625 103.565 98.8807C104.031 98.6989 104.392 98.446 104.647 98.1222C104.903 97.7983 105.031 97.4261 105.031 97.0057C105.031 96.6136 104.915 96.2841 104.682 96.017C104.454 95.75 104.119 95.5227 103.676 95.3352C103.238 95.1477 102.701 94.9773 102.065 94.8239L100.165 94.3466C98.6929 93.9886 97.531 93.429 96.6787 92.6676C95.8265 91.9062 95.4032 90.8807 95.4088 89.5909C95.4032 88.5341 95.6844 87.6108 96.2526 86.821C96.8265 86.0312 97.6134 85.4148 98.6134 84.9716C99.6134 84.5284 100.75 84.3068 102.022 84.3068C103.318 84.3068 104.449 84.5284 105.415 84.9716C106.386 85.4148 107.142 86.0312 107.682 86.821C108.221 87.6108 108.5 88.5256 108.517 89.5653H104.98ZM119.084 96.4261V88.9091H122.715V102H119.229V99.6222H119.093C118.797 100.389 118.306 101.006 117.618 101.472C116.937 101.937 116.104 102.17 115.121 102.17C114.246 102.17 113.476 101.972 112.812 101.574C112.147 101.176 111.627 100.611 111.252 99.8778C110.883 99.1449 110.695 98.267 110.689 97.2443V88.9091H114.32V96.5966C114.326 97.3693 114.533 97.9801 114.942 98.429C115.351 98.8778 115.9 99.1023 116.587 99.1023C117.025 99.1023 117.434 99.0028 117.814 98.804C118.195 98.5994 118.502 98.2983 118.735 97.9006C118.974 97.5028 119.09 97.0114 119.084 96.4261ZM131.054 102.256C129.713 102.256 128.56 101.972 127.594 101.403C126.633 100.83 125.895 100.034 125.378 99.017C124.866 98 124.611 96.8295 124.611 95.5057C124.611 94.1648 124.869 92.9886 125.386 91.9773C125.909 90.9602 126.651 90.1676 127.611 89.5994C128.571 89.0256 129.713 88.7386 131.037 88.7386C132.179 88.7386 133.179 88.946 134.037 89.3608C134.895 89.7756 135.574 90.358 136.074 91.108C136.574 91.858 136.849 92.7386 136.901 93.75H133.474C133.378 93.0966 133.122 92.571 132.707 92.1733C132.298 91.7699 131.761 91.5682 131.097 91.5682C130.534 91.5682 130.043 91.7216 129.622 92.0284C129.207 92.3295 128.883 92.7699 128.651 93.3494C128.418 93.929 128.301 94.6307 128.301 95.4545C128.301 96.2898 128.415 97 128.642 97.5852C128.875 98.1705 129.202 98.6165 129.622 98.9233C130.043 99.2301 130.534 99.3835 131.097 99.3835C131.511 99.3835 131.883 99.2983 132.213 99.1278C132.548 98.9574 132.824 98.7102 133.04 98.3864C133.261 98.0568 133.406 97.6619 133.474 97.2017H136.901C136.844 98.2017 136.571 99.0824 136.082 99.8438C135.599 100.599 134.932 101.19 134.08 101.616C133.227 102.043 132.219 102.256 131.054 102.256ZM144.66 102.256C143.319 102.256 142.166 101.972 141.2 101.403C140.239 100.83 139.501 100.034 138.984 99.017C138.472 98 138.217 96.8295 138.217 95.5057C138.217 94.1648 138.475 92.9886 138.992 91.9773C139.515 90.9602 140.256 90.1676 141.217 89.5994C142.177 89.0256 143.319 88.7386 144.643 88.7386C145.785 88.7386 146.785 88.946 147.643 89.3608C148.501 89.7756 149.18 90.358 149.68 91.108C150.18 91.858 150.455 92.7386 150.506 93.75H147.08C146.984 93.0966 146.728 92.571 146.313 92.1733C145.904 91.7699 145.367 91.5682 144.703 91.5682C144.14 91.5682 143.649 91.7216 143.228 92.0284C142.813 92.3295 142.489 92.7699 142.256 93.3494C142.024 93.929 141.907 94.6307 141.907 95.4545C141.907 96.2898 142.021 97 142.248 97.5852C142.481 98.1705 142.808 98.6165 143.228 98.9233C143.649 99.2301 144.14 99.3835 144.703 99.3835C145.117 99.3835 145.489 99.2983 145.819 99.1278C146.154 98.9574 146.43 98.7102 146.646 98.3864C146.867 98.0568 147.012 97.6619 147.08 97.2017H150.506C150.45 98.2017 150.177 99.0824 149.688 99.8438C149.205 100.599 148.538 101.19 147.685 101.616C146.833 102.043 145.825 102.256 144.66 102.256ZM158.317 102.256C156.97 102.256 155.811 101.983 154.84 101.438C153.874 100.886 153.129 100.108 152.607 99.1023C152.084 98.0909 151.823 96.8949 151.823 95.5142C151.823 94.1676 152.084 92.9858 152.607 91.9688C153.129 90.9517 153.865 90.1591 154.814 89.5909C155.769 89.0227 156.888 88.7386 158.172 88.7386C159.036 88.7386 159.84 88.8778 160.584 89.1562C161.334 89.429 161.987 89.8409 162.544 90.392C163.107 90.9432 163.544 91.6364 163.857 92.4716C164.169 93.3011 164.325 94.2727 164.325 95.3864V96.3835H153.272V94.1335H160.908C160.908 93.6108 160.794 93.1477 160.567 92.7443C160.34 92.3409 160.024 92.0256 159.621 91.7983C159.223 91.5653 158.76 91.4489 158.232 91.4489C157.681 91.4489 157.192 91.5767 156.766 91.8324C156.345 92.0824 156.016 92.4205 155.777 92.8466C155.539 93.267 155.416 93.7358 155.411 94.2528V96.392C155.411 97.0398 155.53 97.5994 155.769 98.071C156.013 98.5426 156.357 98.9062 156.8 99.1619C157.243 99.4176 157.769 99.5455 158.377 99.5455C158.78 99.5455 159.149 99.4886 159.485 99.375C159.82 99.2614 160.107 99.0909 160.345 98.8636C160.584 98.6364 160.766 98.358 160.891 98.0284L164.249 98.25C164.078 99.0568 163.729 99.7614 163.2 100.364C162.678 100.96 162.002 101.426 161.172 101.761C160.348 102.091 159.397 102.256 158.317 102.256ZM177.107 92.642L173.783 92.8466C173.726 92.5625 173.604 92.3068 173.417 92.0795C173.229 91.8466 172.982 91.6619 172.675 91.5256C172.374 91.3835 172.013 91.3125 171.593 91.3125C171.03 91.3125 170.556 91.4318 170.169 91.6705C169.783 91.9034 169.59 92.2159 169.59 92.608C169.59 92.9205 169.715 93.1847 169.965 93.4006C170.215 93.6165 170.644 93.7898 171.252 93.9205L173.621 94.3977C174.894 94.6591 175.843 95.0795 176.468 95.6591C177.093 96.2386 177.405 97 177.405 97.9432C177.405 98.8011 177.152 99.554 176.647 100.202C176.147 100.849 175.459 101.355 174.584 101.719C173.715 102.077 172.712 102.256 171.576 102.256C169.843 102.256 168.462 101.895 167.434 101.173C166.411 100.446 165.811 99.4574 165.635 98.2074L169.206 98.0199C169.314 98.5483 169.576 98.9517 169.99 99.2301C170.405 99.5028 170.936 99.6392 171.584 99.6392C172.22 99.6392 172.732 99.517 173.118 99.2727C173.51 99.0227 173.709 98.7017 173.715 98.3097C173.709 97.9801 173.57 97.7102 173.297 97.5C173.024 97.2841 172.604 97.1193 172.036 97.0057L169.769 96.554C168.49 96.2983 167.539 95.8551 166.914 95.2244C166.294 94.5937 165.985 93.7898 165.985 92.8125C165.985 91.9716 166.212 91.2472 166.667 90.6392C167.127 90.0312 167.772 89.5625 168.601 89.233C169.436 88.9034 170.414 88.7386 171.533 88.7386C173.186 88.7386 174.488 89.0881 175.436 89.7869C176.391 90.4858 176.948 91.4375 177.107 92.642ZM190.103 92.642L186.78 92.8466C186.723 92.5625 186.601 92.3068 186.413 92.0795C186.226 91.8466 185.978 91.6619 185.672 91.5256C185.37 91.3835 185.01 91.3125 184.589 91.3125C184.027 91.3125 183.552 91.4318 183.166 91.6705C182.78 91.9034 182.586 92.2159 182.586 92.608C182.586 92.9205 182.711 93.1847 182.961 93.4006C183.211 93.6165 183.64 93.7898 184.248 93.9205L186.618 94.3977C187.89 94.6591 188.839 95.0795 189.464 95.6591C190.089 96.2386 190.402 97 190.402 97.9432C190.402 98.8011 190.149 99.554 189.643 100.202C189.143 100.849 188.456 101.355 187.581 101.719C186.711 102.077 185.709 102.256 184.572 102.256C182.839 102.256 181.459 101.895 180.43 101.173C179.407 100.446 178.808 99.4574 178.632 98.2074L182.203 98.0199C182.311 98.5483 182.572 98.9517 182.987 99.2301C183.402 99.5028 183.933 99.6392 184.581 99.6392C185.217 99.6392 185.728 99.517 186.115 99.2727C186.507 99.0227 186.706 98.7017 186.711 98.3097C186.706 97.9801 186.566 97.7102 186.294 97.5C186.021 97.2841 185.601 97.1193 185.032 97.0057L182.765 96.554C181.487 96.2983 180.535 95.8551 179.91 95.2244C179.291 94.5937 178.981 93.7898 178.981 92.8125C178.981 91.9716 179.209 91.2472 179.663 90.6392C180.123 90.0312 180.768 89.5625 181.598 89.233C182.433 88.9034 183.41 88.7386 184.53 88.7386C186.183 88.7386 187.484 89.0881 188.433 89.7869C189.388 90.4858 189.944 91.4375 190.103 92.642ZM201.28 102L196.285 84.5455H200.317L203.206 96.6733H203.351L206.538 84.5455H209.99L213.169 96.6989H213.322L216.212 84.5455H220.243L215.249 102H211.652L208.328 90.5881H208.192L204.876 102H201.28ZM221.67 102V88.9091H225.3V102H221.67ZM223.494 87.2216C222.954 87.2216 222.491 87.0426 222.104 86.6847C221.724 86.321 221.533 85.8864 221.533 85.3807C221.533 84.8807 221.724 84.4517 222.104 84.0938C222.491 83.7301 222.954 83.5483 223.494 83.5483C224.033 83.5483 224.494 83.7301 224.874 84.0938C225.261 84.4517 225.454 84.8807 225.454 85.3807C225.454 85.8864 225.261 86.321 224.874 86.6847C224.494 87.0426 224.033 87.2216 223.494 87.2216ZM234.692 88.9091V91.6364H226.808V88.9091H234.692ZM228.598 85.7727H232.229V97.9773C232.229 98.3125 232.28 98.5739 232.382 98.7614C232.485 98.9432 232.627 99.071 232.808 99.1449C232.996 99.2187 233.212 99.2557 233.456 99.2557C233.627 99.2557 233.797 99.2415 233.967 99.2131C234.138 99.179 234.269 99.1534 234.36 99.1364L234.931 101.838C234.749 101.895 234.493 101.96 234.164 102.034C233.834 102.114 233.433 102.162 232.962 102.179C232.087 102.213 231.32 102.097 230.661 101.83C230.007 101.562 229.499 101.148 229.135 100.585C228.771 100.023 228.592 99.3125 228.598 98.4545V85.7727ZM240.489 94.4318V102H236.858V84.5455H240.387V91.2188H240.54C240.836 90.446 241.313 89.8409 241.972 89.4034C242.631 88.9602 243.458 88.7386 244.452 88.7386C245.361 88.7386 246.154 88.9375 246.83 89.3352C247.512 89.7273 248.04 90.2926 248.415 91.0312C248.796 91.7642 248.983 92.642 248.978 93.6648V102H245.347V94.3125C245.353 93.5057 245.148 92.8778 244.733 92.429C244.324 91.9801 243.75 91.7557 243.012 91.7557C242.517 91.7557 242.08 91.8608 241.699 92.071C241.324 92.2812 241.029 92.5881 240.813 92.9915C240.603 93.3892 240.495 93.8693 240.489 94.4318ZM256.179 102.213C255.184 102.213 254.284 101.957 253.477 101.446C252.676 100.929 252.039 100.17 251.568 99.1705C251.102 98.1648 250.869 96.9318 250.869 95.4716C250.869 93.9716 251.11 92.7244 251.593 91.7301C252.076 90.7301 252.718 89.983 253.52 89.4886C254.326 88.9886 255.21 88.7386 256.17 88.7386C256.903 88.7386 257.514 88.8636 258.003 89.1136C258.497 89.358 258.895 89.6648 259.196 90.0341C259.503 90.3977 259.735 90.7557 259.895 91.108H260.005V84.5455H263.628V102H260.048V99.9034H259.895C259.724 100.267 259.483 100.628 259.17 100.986C258.863 101.338 258.463 101.631 257.968 101.864C257.48 102.097 256.883 102.213 256.179 102.213ZM257.329 99.3239C257.914 99.3239 258.409 99.1648 258.812 98.8466C259.221 98.5227 259.534 98.071 259.75 97.4915C259.971 96.9119 260.082 96.233 260.082 95.4545C260.082 94.6761 259.974 94 259.758 93.4261C259.542 92.8523 259.23 92.4091 258.821 92.0966C258.412 91.7841 257.914 91.6278 257.329 91.6278C256.733 91.6278 256.23 91.7898 255.821 92.1136C255.412 92.4375 255.102 92.8864 254.892 93.4602C254.682 94.0341 254.576 94.6989 254.576 95.4545C254.576 96.2159 254.682 96.8892 254.892 97.4744C255.108 98.054 255.417 98.5085 255.821 98.8381C256.23 99.1619 256.733 99.3239 257.329 99.3239ZM266.133 102V88.9091H269.652V91.1932H269.789C270.027 90.3807 270.428 89.767 270.991 89.3523C271.553 88.9318 272.201 88.7216 272.934 88.7216C273.116 88.7216 273.312 88.733 273.522 88.7557C273.732 88.7784 273.917 88.8097 274.076 88.8494V92.071C273.905 92.0199 273.67 91.9744 273.368 91.9347C273.067 91.8949 272.792 91.875 272.542 91.875C272.008 91.875 271.53 91.9915 271.11 92.2244C270.695 92.4517 270.366 92.7699 270.121 93.179C269.883 93.5881 269.763 94.0597 269.763 94.5938V102H266.133ZM278.831 102.247C277.996 102.247 277.251 102.102 276.598 101.812C275.945 101.517 275.427 101.082 275.047 100.509C274.672 99.929 274.484 99.2074 274.484 98.3438C274.484 97.6165 274.618 97.0057 274.885 96.5114C275.152 96.017 275.516 95.6193 275.976 95.3182C276.436 95.017 276.959 94.7898 277.544 94.6364C278.135 94.483 278.754 94.375 279.402 94.3125C280.163 94.233 280.777 94.1591 281.243 94.0909C281.709 94.017 282.047 93.9091 282.257 93.767C282.467 93.625 282.572 93.4148 282.572 93.1364V93.0852C282.572 92.5455 282.402 92.1278 282.061 91.8324C281.726 91.5369 281.248 91.3892 280.629 91.3892C279.976 91.3892 279.456 91.5341 279.07 91.8239C278.683 92.108 278.427 92.4659 278.302 92.8977L274.945 92.625C275.115 91.8295 275.45 91.142 275.95 90.5625C276.45 89.9773 277.095 89.5284 277.885 89.2159C278.68 88.8977 279.601 88.7386 280.646 88.7386C281.373 88.7386 282.07 88.8239 282.734 88.9943C283.405 89.1648 283.998 89.429 284.516 89.7869C285.038 90.1449 285.45 90.6051 285.751 91.1676C286.052 91.7244 286.203 92.392 286.203 93.1705V102H282.76V100.185H282.658C282.447 100.594 282.166 100.955 281.814 101.267C281.462 101.574 281.038 101.815 280.544 101.991C280.05 102.162 279.479 102.247 278.831 102.247ZM279.871 99.7415C280.405 99.7415 280.876 99.6364 281.285 99.4261C281.695 99.2102 282.016 98.9205 282.248 98.5568C282.481 98.1932 282.598 97.7812 282.598 97.321V95.9318C282.484 96.0057 282.328 96.0739 282.129 96.1364C281.936 96.1932 281.717 96.2472 281.473 96.2983C281.229 96.3437 280.984 96.3864 280.74 96.4261C280.496 96.4602 280.274 96.4915 280.075 96.5199C279.649 96.5824 279.277 96.6818 278.959 96.8182C278.641 96.9545 278.393 97.1392 278.217 97.3722C278.041 97.5994 277.953 97.8835 277.953 98.2244C277.953 98.7188 278.132 99.0966 278.49 99.358C278.854 99.6136 279.314 99.7415 279.871 99.7415ZM291.122 102L287.56 88.9091H291.233L293.261 97.7045H293.381L295.494 88.9091H299.099L301.247 97.6534H301.358L303.352 88.9091H307.017L303.463 102H299.619L297.369 93.767H297.207L294.957 102H291.122ZM312.207 102.247C311.372 102.247 310.627 102.102 309.974 101.812C309.32 101.517 308.803 101.082 308.423 100.509C308.048 99.929 307.86 99.2074 307.86 98.3438C307.86 97.6165 307.994 97.0057 308.261 96.5114C308.528 96.017 308.891 95.6193 309.352 95.3182C309.812 95.017 310.335 94.7898 310.92 94.6364C311.511 94.483 312.13 94.375 312.778 94.3125C313.539 94.233 314.153 94.1591 314.619 94.0909C315.085 94.017 315.423 93.9091 315.633 93.767C315.843 93.625 315.948 93.4148 315.948 93.1364V93.0852C315.948 92.5455 315.778 92.1278 315.437 91.8324C315.102 91.5369 314.624 91.3892 314.005 91.3892C313.352 91.3892 312.832 91.5341 312.445 91.8239C312.059 92.108 311.803 92.4659 311.678 92.8977L308.32 92.625C308.491 91.8295 308.826 91.142 309.326 90.5625C309.826 89.9773 310.471 89.5284 311.261 89.2159C312.056 88.8977 312.977 88.7386 314.022 88.7386C314.749 88.7386 315.445 88.8239 316.11 88.9943C316.781 89.1648 317.374 89.429 317.891 89.7869C318.414 90.1449 318.826 90.6051 319.127 91.1676C319.428 91.7244 319.579 92.392 319.579 93.1705V102H316.136V100.185H316.034C315.823 100.594 315.542 100.955 315.19 101.267C314.838 101.574 314.414 101.815 313.92 101.991C313.426 102.162 312.855 102.247 312.207 102.247ZM313.247 99.7415C313.781 99.7415 314.252 99.6364 314.661 99.4261C315.07 99.2102 315.391 98.9205 315.624 98.5568C315.857 98.1932 315.974 97.7812 315.974 97.321V95.9318C315.86 96.0057 315.704 96.0739 315.505 96.1364C315.312 96.1932 315.093 96.2472 314.849 96.2983C314.605 96.3437 314.36 96.3864 314.116 96.4261C313.872 96.4602 313.65 96.4915 313.451 96.5199C313.025 96.5824 312.653 96.6818 312.335 96.8182C312.016 96.9545 311.769 97.1392 311.593 97.3722C311.417 97.5994 311.329 97.8835 311.329 98.2244C311.329 98.7188 311.508 99.0966 311.866 99.358C312.23 99.6136 312.69 99.7415 313.247 99.7415ZM325.546 84.5455V102H321.916V84.5455H325.546Z" fill="white"/>
<path d="M16 367C16 353.745 26.7452 343 40 343H350C363.255 343 374 353.745 374 367V371C374 384.255 363.255 395 350 395H40C26.7452 395 16 384.255 16 371V367Z" fill="#C4FF00"/>
<path d="M184.543 366.938H182.055C182.009 366.616 181.917 366.33 181.776 366.08C181.636 365.826 181.456 365.61 181.237 365.432C181.017 365.254 180.763 365.117 180.475 365.023C180.191 364.928 179.882 364.881 179.549 364.881C178.947 364.881 178.422 365.03 177.975 365.33C177.528 365.625 177.182 366.057 176.935 366.625C176.689 367.189 176.566 367.875 176.566 368.682C176.566 369.511 176.689 370.208 176.935 370.773C177.185 371.337 177.534 371.763 177.981 372.051C178.428 372.339 178.945 372.483 179.532 372.483C179.862 372.483 180.167 372.439 180.447 372.352C180.731 372.265 180.983 372.138 181.202 371.972C181.422 371.801 181.604 371.595 181.748 371.352C181.896 371.11 181.998 370.833 182.055 370.523L184.543 370.534C184.479 371.068 184.318 371.583 184.06 372.08C183.807 372.572 183.464 373.013 183.032 373.403C182.604 373.79 182.093 374.097 181.498 374.324C180.907 374.547 180.238 374.659 179.492 374.659C178.454 374.659 177.526 374.424 176.708 373.955C175.894 373.485 175.25 372.805 174.776 371.915C174.307 371.025 174.072 369.947 174.072 368.682C174.072 367.413 174.31 366.333 174.788 365.443C175.265 364.553 175.913 363.875 176.731 363.409C177.549 362.939 178.47 362.705 179.492 362.705C180.167 362.705 180.792 362.799 181.367 362.989C181.947 363.178 182.46 363.455 182.907 363.818C183.354 364.178 183.718 364.619 183.998 365.142C184.282 365.665 184.464 366.263 184.543 366.938ZM188.363 362.864V374.5H185.942V362.864H188.363ZM193.925 374.67C193.042 374.67 192.279 374.483 191.635 374.108C190.995 373.729 190.5 373.203 190.152 372.528C189.804 371.85 189.629 371.064 189.629 370.17C189.629 369.269 189.804 368.481 190.152 367.807C190.5 367.129 190.995 366.602 191.635 366.227C192.279 365.848 193.042 365.659 193.925 365.659C194.807 365.659 195.569 365.848 196.209 366.227C196.853 366.602 197.349 367.129 197.697 367.807C198.046 368.481 198.22 369.269 198.22 370.17C198.22 371.064 198.046 371.85 197.697 372.528C197.349 373.203 196.853 373.729 196.209 374.108C195.569 374.483 194.807 374.67 193.925 374.67ZM193.936 372.795C194.338 372.795 194.673 372.682 194.942 372.455C195.211 372.223 195.413 371.909 195.55 371.511C195.69 371.114 195.76 370.661 195.76 370.153C195.76 369.646 195.69 369.193 195.55 368.795C195.413 368.398 195.211 368.083 194.942 367.852C194.673 367.621 194.338 367.506 193.936 367.506C193.531 367.506 193.19 367.621 192.913 367.852C192.641 368.083 192.434 368.398 192.294 368.795C192.158 369.193 192.089 369.646 192.089 370.153C192.089 370.661 192.158 371.114 192.294 371.511C192.434 371.909 192.641 372.223 192.913 372.455C193.19 372.682 193.531 372.795 193.936 372.795ZM206.735 368.261L204.519 368.398C204.482 368.208 204.4 368.038 204.275 367.886C204.15 367.731 203.985 367.608 203.781 367.517C203.58 367.422 203.34 367.375 203.059 367.375C202.684 367.375 202.368 367.455 202.11 367.614C201.853 367.769 201.724 367.977 201.724 368.239C201.724 368.447 201.807 368.623 201.974 368.767C202.141 368.911 202.427 369.027 202.832 369.114L204.412 369.432C205.26 369.606 205.893 369.886 206.309 370.273C206.726 370.659 206.934 371.167 206.934 371.795C206.934 372.367 206.766 372.869 206.429 373.301C206.095 373.733 205.637 374.07 205.054 374.312C204.474 374.551 203.805 374.67 203.048 374.67C201.893 374.67 200.972 374.43 200.287 373.949C199.605 373.464 199.205 372.805 199.088 371.972L201.468 371.847C201.54 372.199 201.715 372.468 201.991 372.653C202.268 372.835 202.622 372.926 203.054 372.926C203.478 372.926 203.819 372.845 204.076 372.682C204.338 372.515 204.47 372.301 204.474 372.04C204.47 371.82 204.377 371.64 204.196 371.5C204.014 371.356 203.734 371.246 203.355 371.17L201.843 370.869C200.991 370.699 200.357 370.403 199.94 369.983C199.527 369.562 199.321 369.027 199.321 368.375C199.321 367.814 199.472 367.331 199.775 366.926C200.082 366.521 200.512 366.208 201.065 365.989C201.622 365.769 202.273 365.659 203.019 365.659C204.122 365.659 204.989 365.892 205.622 366.358C206.258 366.824 206.629 367.458 206.735 368.261ZM212.116 374.67C211.218 374.67 210.445 374.489 209.798 374.125C209.154 373.758 208.657 373.239 208.309 372.568C207.96 371.894 207.786 371.097 207.786 370.176C207.786 369.278 207.96 368.491 208.309 367.812C208.657 367.134 209.148 366.606 209.78 366.227C210.417 365.848 211.163 365.659 212.019 365.659C212.595 365.659 213.131 365.752 213.627 365.938C214.127 366.119 214.563 366.394 214.934 366.761C215.309 367.129 215.601 367.591 215.809 368.148C216.017 368.701 216.121 369.348 216.121 370.091V370.756H208.752V369.256H213.843C213.843 368.907 213.767 368.598 213.616 368.33C213.464 368.061 213.254 367.85 212.985 367.699C212.72 367.544 212.411 367.466 212.059 367.466C211.691 367.466 211.366 367.551 211.082 367.722C210.801 367.888 210.582 368.114 210.423 368.398C210.263 368.678 210.182 368.991 210.178 369.335V370.761C210.178 371.193 210.258 371.566 210.417 371.881C210.58 372.195 210.809 372.438 211.104 372.608C211.4 372.778 211.75 372.864 212.155 372.864C212.424 372.864 212.671 372.826 212.894 372.75C213.118 372.674 213.309 372.561 213.468 372.409C213.627 372.258 213.748 372.072 213.832 371.852L216.07 372C215.957 372.538 215.724 373.008 215.371 373.409C215.023 373.807 214.572 374.117 214.019 374.341C213.47 374.561 212.835 374.67 212.116 374.67Z" fill="#242424"/>
<rect x="157" y="15" width="76" height="3" rx="1.5" fill="#1A1A20"/>
</svg>
