<svg width="358" height="37" viewBox="0 0 358 37" fill="none" xmlns="http://www.w3.org/2000/svg">
<rect width="358" height="37" rx="12" fill="#15151A"/>
<path d="M43.3422 24V13.8182H47.1604C47.9426 13.8182 48.5988 13.9541 49.1291 14.2259C49.6627 14.4976 50.0654 14.8788 50.3372 15.3693C50.6123 15.8565 50.7499 16.425 50.7499 17.0746C50.7499 17.7275 50.6107 18.2943 50.3322 18.7749C50.0572 19.2521 49.6511 19.6217 49.1142 19.8835C48.5773 20.142 47.9177 20.2713 47.1355 20.2713H44.4161V18.7401H46.8869C47.3443 18.7401 47.7188 18.6771 48.0105 18.5511C48.3022 18.4219 48.5176 18.2346 48.6568 17.9893C48.7993 17.7408 48.8706 17.4358 48.8706 17.0746C48.8706 16.7133 48.7993 16.4051 48.6568 16.1499C48.5143 15.8913 48.2972 15.6958 48.0055 15.5632C47.7139 15.4273 47.3377 15.3594 46.877 15.3594H45.1867V24H43.3422ZM48.6021 19.3864L51.1227 24H49.0645L46.5886 19.3864H48.6021ZM55.3594 24.1491C54.5938 24.1491 53.9326 23.9901 53.3758 23.6719C52.8223 23.3504 52.3964 22.8963 52.0981 22.3097C51.7998 21.7197 51.6506 21.0253 51.6506 20.2266C51.6506 19.4411 51.7998 18.7517 52.0981 18.1584C52.3997 17.5618 52.8206 17.0978 53.3608 16.7663C53.9011 16.4316 54.5358 16.2642 55.265 16.2642C55.7356 16.2642 56.1797 16.3404 56.5973 16.4929C57.0183 16.642 57.3895 16.8741 57.711 17.1889C58.0358 17.5038 58.291 17.9048 58.4766 18.392C58.6622 18.8759 58.755 19.4527 58.755 20.1222V20.674H52.4958V19.4609H57.0299C57.0266 19.1162 56.952 18.8097 56.8062 18.5412C56.6603 18.2694 56.4565 18.0556 56.1946 17.8999C55.9361 17.7441 55.6345 17.6662 55.2898 17.6662C54.9219 17.6662 54.5988 17.7557 54.3204 17.9347C54.0419 18.1103 53.8249 18.3423 53.6691 18.6307C53.5166 18.9157 53.4387 19.2289 53.4354 19.5703V20.6293C53.4354 21.0734 53.5166 21.4545 53.679 21.7727C53.8414 22.0876 54.0685 22.3295 54.3601 22.4986C54.6518 22.6643 54.9932 22.7472 55.3843 22.7472C55.6461 22.7472 55.8831 22.7107 56.0952 22.6378C56.3073 22.5616 56.4913 22.4505 56.6471 22.3047C56.8028 22.1589 56.9205 21.9782 57 21.7628L58.6804 21.9517C58.5744 22.3958 58.3722 22.7836 58.0739 23.1151C57.7789 23.4432 57.4011 23.6984 56.9404 23.8807C56.4797 24.0597 55.9527 24.1491 55.3594 24.1491ZM63.8655 16.3636V17.7557H59.3513V16.3636H63.8655ZM60.4798 24V15.6428C60.4798 15.129 60.5859 14.7015 60.798 14.3601C61.0134 14.0187 61.3018 13.7635 61.6631 13.5945C62.0243 13.4254 62.4254 13.3409 62.8662 13.3409C63.1777 13.3409 63.4545 13.3658 63.6964 13.4155C63.9384 13.4652 64.1174 13.5099 64.2334 13.5497L63.8754 14.9418C63.7992 14.9186 63.7031 14.8954 63.5871 14.8722C63.4711 14.8456 63.3418 14.8324 63.1993 14.8324C62.8645 14.8324 62.6275 14.9136 62.4883 15.076C62.3524 15.2351 62.2845 15.4638 62.2845 15.7621V24H60.4798ZM68.0885 24.1491C67.3229 24.1491 66.6616 23.9901 66.1048 23.6719C65.5513 23.3504 65.1254 22.8963 64.8271 22.3097C64.5288 21.7197 64.3797 21.0253 64.3797 20.2266C64.3797 19.4411 64.5288 18.7517 64.8271 18.1584C65.1287 17.5618 65.5497 17.0978 66.0899 16.7663C66.6301 16.4316 67.2649 16.2642 67.994 16.2642C68.4647 16.2642 68.9088 16.3404 69.3264 16.4929C69.7473 16.642 70.1185 16.8741 70.44 17.1889C70.7649 17.5038 71.0201 17.9048 71.2057 18.392C71.3913 18.8759 71.4841 19.4527 71.4841 20.1222V20.674H65.2248V19.4609H69.7589C69.7556 19.1162 69.681 18.8097 69.5352 18.5412C69.3894 18.2694 69.1855 18.0556 68.9237 17.8999C68.6652 17.7441 68.3636 17.6662 68.0189 17.6662C67.651 17.6662 67.3278 17.7557 67.0494 17.9347C66.771 18.1103 66.5539 18.3423 66.3981 18.6307C66.2457 18.9157 66.1678 19.2289 66.1645 19.5703V20.6293C66.1645 21.0734 66.2457 21.4545 66.4081 21.7727C66.5705 22.0876 66.7975 22.3295 67.0892 22.4986C67.3809 22.6643 67.7222 22.7472 68.1133 22.7472C68.3752 22.7472 68.6122 22.7107 68.8243 22.6378C69.0364 22.5616 69.2203 22.4505 69.3761 22.3047C69.5319 22.1589 69.6496 21.9782 69.7291 21.7628L71.4095 21.9517C71.3034 22.3958 71.1013 22.7836 70.803 23.1151C70.508 23.4432 70.1301 23.6984 69.6694 23.8807C69.2087 24.0597 68.6818 24.1491 68.0885 24.1491ZM72.7266 24V16.3636H74.4717V17.6364H74.5512C74.6904 17.1955 74.929 16.8558 75.2671 16.6172C75.6085 16.3752 75.9979 16.2543 76.4354 16.2543C76.5349 16.2543 76.6459 16.2592 76.7685 16.2692C76.8945 16.2758 76.9989 16.2874 77.0817 16.304V17.9595C77.0055 17.933 76.8845 17.9098 76.7188 17.8899C76.5564 17.8667 76.399 17.8551 76.2465 17.8551C75.9184 17.8551 75.6234 17.9264 75.3616 18.0689C75.103 18.2081 74.8992 18.402 74.7501 18.6506C74.6009 18.8991 74.5263 19.1858 74.5263 19.5107V24H72.7266ZM77.9974 24V16.3636H79.7424V17.6364H79.822C79.9612 17.1955 80.1998 16.8558 80.5379 16.6172C80.8793 16.3752 81.2687 16.2543 81.7062 16.2543C81.8056 16.2543 81.9167 16.2592 82.0393 16.2692C82.1653 16.2758 82.2697 16.2874 82.3525 16.304V17.9595C82.2763 17.933 82.1553 17.9098 81.9896 17.8899C81.8272 17.8667 81.6698 17.8551 81.5173 17.8551C81.1892 17.8551 80.8942 17.9264 80.6324 18.0689C80.3738 18.2081 80.17 18.402 80.0208 18.6506C79.8717 18.8991 79.7971 19.1858 79.7971 19.5107V24H77.9974ZM85.3289 24.1541C84.845 24.1541 84.4092 24.0679 84.0214 23.8956C83.6369 23.7199 83.332 23.4614 83.1066 23.12C82.8846 22.7786 82.7735 22.3577 82.7735 21.8572C82.7735 21.4264 82.8531 21.0701 83.0122 20.7884C83.1712 20.5066 83.3883 20.2812 83.6634 20.1122C83.9385 19.9432 84.2484 19.8156 84.5931 19.7294C84.9411 19.6399 85.3007 19.5753 85.672 19.5355C86.1194 19.4891 86.4823 19.4477 86.7607 19.4112C87.0391 19.3714 87.2413 19.3118 87.3673 19.2322C87.4965 19.1494 87.5612 19.0218 87.5612 18.8494V18.8196C87.5612 18.4451 87.4501 18.1551 87.2281 17.9496C87.006 17.7441 86.6862 17.6413 86.2685 17.6413C85.8277 17.6413 85.4781 17.7375 85.2195 17.9297C84.9643 18.1219 84.792 18.349 84.7025 18.6108L83.0221 18.3722C83.1547 17.9081 83.3734 17.5204 83.6783 17.2088C83.9833 16.8939 84.3561 16.6586 84.797 16.5028C85.2378 16.3438 85.725 16.2642 86.2586 16.2642C86.6265 16.2642 86.9927 16.3073 87.3573 16.3935C87.7219 16.4796 88.055 16.6222 88.3566 16.821C88.6582 17.0166 88.9002 17.2834 89.0825 17.6214C89.2681 17.9595 89.3609 18.3821 89.3609 18.8892V24H87.6308V22.951H87.5711C87.4617 23.1631 87.3076 23.362 87.1087 23.5476C86.9132 23.7299 86.6663 23.8774 86.368 23.9901C86.073 24.0994 85.7266 24.1541 85.3289 24.1541ZM85.7962 22.8317C86.1575 22.8317 86.4707 22.7604 86.7359 22.6179C87.001 22.4721 87.2049 22.2798 87.3474 22.0412C87.4932 21.8026 87.5661 21.5424 87.5661 21.2607V20.3608C87.5098 20.4072 87.4137 20.4503 87.2778 20.4901C87.1452 20.5298 86.9961 20.5646 86.8303 20.5945C86.6646 20.6243 86.5006 20.6508 86.3381 20.674C86.1757 20.6972 86.0349 20.7171 85.9156 20.7337C85.6471 20.7701 85.4068 20.8298 85.1947 20.9126C84.9826 20.9955 84.8152 21.1115 84.6926 21.2607C84.5699 21.4065 84.5086 21.5954 84.5086 21.8274C84.5086 22.1589 84.6296 22.4091 84.8715 22.5781C85.1135 22.7472 85.4217 22.8317 85.7962 22.8317ZM92.6903 13.8182V24H90.8905V13.8182H92.6903ZM103.489 18.3821L101.848 18.5611C101.802 18.3954 101.721 18.2396 101.605 18.0938C101.492 17.9479 101.34 17.8303 101.147 17.7408C100.955 17.6513 100.72 17.6065 100.442 17.6065C100.067 17.6065 99.7521 17.6877 99.4969 17.8501C99.245 18.0125 99.1207 18.223 99.124 18.4815C99.1207 18.7036 99.2019 18.8842 99.3676 19.0234C99.5367 19.1626 99.8151 19.277 100.203 19.3665L101.505 19.6449C102.228 19.8007 102.765 20.0476 103.116 20.3857C103.471 20.7237 103.65 21.1662 103.653 21.7131C103.65 22.1937 103.509 22.6179 103.231 22.9858C102.955 23.3504 102.573 23.6354 102.082 23.8409C101.592 24.0464 101.028 24.1491 100.392 24.1491C99.4571 24.1491 98.7048 23.9536 98.1347 23.5625C97.5646 23.1681 97.2249 22.6196 97.1155 21.9169L98.8705 21.7479C98.95 22.0926 99.1191 22.3527 99.3776 22.5284C99.6361 22.7041 99.9725 22.7919 100.387 22.7919C100.814 22.7919 101.157 22.7041 101.416 22.5284C101.678 22.3527 101.809 22.1357 101.809 21.8771C101.809 21.6584 101.724 21.4777 101.555 21.3352C101.389 21.1927 101.131 21.0833 100.78 21.0071L99.477 20.7337C98.7445 20.5812 98.2026 20.3243 97.8513 19.9631C97.5 19.5985 97.326 19.1378 97.3293 18.581C97.326 18.1103 97.4536 17.7027 97.7121 17.358C97.9739 17.0099 98.3369 16.7415 98.8009 16.5526C99.2682 16.3603 99.8068 16.2642 100.417 16.2642C101.312 16.2642 102.016 16.4548 102.53 16.8359C103.047 17.2171 103.366 17.7325 103.489 18.3821ZM105.976 26.8636C105.731 26.8636 105.503 26.8438 105.295 26.804C105.089 26.7675 104.925 26.7244 104.802 26.6747L105.22 25.2727C105.482 25.349 105.716 25.3854 105.921 25.3821C106.127 25.3788 106.307 25.3142 106.463 25.1882C106.622 25.0656 106.756 24.8601 106.866 24.5717L107.02 24.1591L104.251 16.3636H106.16L107.92 22.1307H107.999L109.764 16.3636H111.678L108.621 24.9247C108.478 25.3291 108.289 25.6754 108.054 25.9638C107.819 26.2554 107.53 26.4775 107.189 26.63C106.851 26.7857 106.446 26.8636 105.976 26.8636ZM118.679 18.3821L117.038 18.5611C116.992 18.3954 116.911 18.2396 116.795 18.0938C116.682 17.9479 116.53 17.8303 116.337 17.7408C116.145 17.6513 115.91 17.6065 115.632 17.6065C115.257 17.6065 114.942 17.6877 114.687 17.8501C114.435 18.0125 114.311 18.223 114.314 18.4815C114.311 18.7036 114.392 18.8842 114.558 19.0234C114.727 19.1626 115.005 19.277 115.393 19.3665L116.695 19.6449C117.418 19.8007 117.955 20.0476 118.306 20.3857C118.661 20.7237 118.84 21.1662 118.843 21.7131C118.84 22.1937 118.699 22.6179 118.421 22.9858C118.145 23.3504 117.763 23.6354 117.272 23.8409C116.782 24.0464 116.218 24.1491 115.582 24.1491C114.647 24.1491 113.895 23.9536 113.325 23.5625C112.755 23.1681 112.415 22.6196 112.306 21.9169L114.06 21.7479C114.14 22.0926 114.309 22.3527 114.568 22.5284C114.826 22.7041 115.163 22.7919 115.577 22.7919C116.004 22.7919 116.347 22.7041 116.606 22.5284C116.868 22.3527 116.999 22.1357 116.999 21.8771C116.999 21.6584 116.914 21.4777 116.745 21.3352C116.579 21.1927 116.321 21.0833 115.97 21.0071L114.667 20.7337C113.935 20.5812 113.393 20.3243 113.041 19.9631C112.69 19.5985 112.516 19.1378 112.519 18.581C112.516 18.1103 112.644 17.7027 112.902 17.358C113.164 17.0099 113.527 16.7415 113.991 16.5526C114.458 16.3603 114.997 16.2642 115.607 16.2642C116.502 16.2642 117.206 16.4548 117.72 16.8359C118.237 17.2171 118.556 17.7325 118.679 18.3821ZM123.86 16.3636V17.7557H119.47V16.3636H123.86ZM120.554 14.5341H122.354V21.7031C122.354 21.9451 122.39 22.1307 122.463 22.2599C122.54 22.3859 122.639 22.4721 122.762 22.5185C122.884 22.5649 123.02 22.5881 123.169 22.5881C123.282 22.5881 123.385 22.5798 123.478 22.5632C123.574 22.5466 123.647 22.5317 123.696 22.5185L124 23.9254C123.903 23.9586 123.766 23.995 123.587 24.0348C123.411 24.0746 123.196 24.0978 122.941 24.1044C122.49 24.1177 122.084 24.0497 121.723 23.9006C121.361 23.7481 121.075 23.5128 120.863 23.1946C120.654 22.8764 120.551 22.4787 120.554 22.0014V14.5341ZM128.384 24.1491C127.619 24.1491 126.957 23.9901 126.401 23.6719C125.847 23.3504 125.421 22.8963 125.123 22.3097C124.825 21.7197 124.675 21.0253 124.675 20.2266C124.675 19.4411 124.825 18.7517 125.123 18.1584C125.424 17.5618 125.845 17.0978 126.386 16.7663C126.926 16.4316 127.561 16.2642 128.29 16.2642C128.76 16.2642 129.204 16.3404 129.622 16.4929C130.043 16.642 130.414 16.8741 130.736 17.1889C131.061 17.5038 131.316 17.9048 131.501 18.392C131.687 18.8759 131.78 19.4527 131.78 20.1222V20.674H125.521V19.4609H130.055C130.051 19.1162 129.977 18.8097 129.831 18.5412C129.685 18.2694 129.481 18.0556 129.219 17.8999C128.961 17.7441 128.659 17.6662 128.315 17.6662C127.947 17.6662 127.624 17.7557 127.345 17.9347C127.067 18.1103 126.85 18.3423 126.694 18.6307C126.541 18.9157 126.463 19.2289 126.46 19.5703V20.6293C126.46 21.0734 126.541 21.4545 126.704 21.7727C126.866 22.0876 127.093 22.3295 127.385 22.4986C127.677 22.6643 128.018 22.7472 128.409 22.7472C128.671 22.7472 128.908 22.7107 129.12 22.6378C129.332 22.5616 129.516 22.4505 129.672 22.3047C129.828 22.1589 129.945 21.9782 130.025 21.7628L131.705 21.9517C131.599 22.3958 131.397 22.7836 131.099 23.1151C130.804 23.4432 130.426 23.6984 129.965 23.8807C129.504 24.0597 128.977 24.1491 128.384 24.1491ZM133.022 24V16.3636H134.743V17.6612H134.832C134.991 17.2237 135.255 16.8823 135.622 16.6371C135.99 16.3885 136.43 16.2642 136.94 16.2642C137.457 16.2642 137.893 16.3902 138.247 16.642C138.605 16.8906 138.857 17.2304 139.003 17.6612H139.083C139.252 17.237 139.537 16.8989 139.938 16.647C140.342 16.3918 140.821 16.2642 141.375 16.2642C142.077 16.2642 142.651 16.4863 143.095 16.9304C143.539 17.3745 143.761 18.0225 143.761 18.8743V24H141.956V19.1527C141.956 18.6787 141.83 18.3324 141.578 18.1136C141.327 17.8916 141.018 17.7805 140.654 17.7805C140.22 17.7805 139.88 17.9164 139.635 18.1882C139.393 18.4567 139.272 18.8063 139.272 19.2372V24H137.507V19.0781C137.507 18.6837 137.387 18.3688 137.149 18.1335C136.913 17.8982 136.605 17.7805 136.224 17.7805C135.966 17.7805 135.73 17.8468 135.518 17.9794C135.306 18.1087 135.137 18.2926 135.011 18.5312C134.885 18.7666 134.822 19.0417 134.822 19.3565V24H133.022Z" fill="white"/>
<path d="M187 12C187 5.37258 192.373 0 199 0H346C352.627 0 358 5.37258 358 12V25C358 31.6274 352.627 37 346 37H199C192.373 37 187 31.6274 187 25V12Z" fill="#C4FF00" fill-opacity="0.1"/>
<path d="M231.722 24V13.8182H233.566V22.4538H238.05V24H231.722ZM242.672 24.1491C241.907 24.1491 241.246 23.9901 240.689 23.6719C240.135 23.3504 239.709 22.8963 239.411 22.3097C239.113 21.7197 238.964 21.0253 238.964 20.2266C238.964 19.4411 239.113 18.7517 239.411 18.1584C239.713 17.5618 240.134 17.0978 240.674 16.7663C241.214 16.4316 241.849 16.2642 242.578 16.2642C243.049 16.2642 243.493 16.3404 243.91 16.4929C244.331 16.642 244.703 16.8741 245.024 17.1889C245.349 17.5038 245.604 17.9048 245.79 18.392C245.975 18.8759 246.068 19.4527 246.068 20.1222V20.674H239.809V19.4609H244.343C244.34 19.1162 244.265 18.8097 244.119 18.5412C243.973 18.2694 243.77 18.0556 243.508 17.8999C243.249 17.7441 242.948 17.6662 242.603 17.6662C242.235 17.6662 241.912 17.7557 241.633 17.9347C241.355 18.1103 241.138 18.3423 240.982 18.6307C240.83 18.9157 240.752 19.2289 240.748 19.5703V20.6293C240.748 21.0734 240.83 21.4545 240.992 21.7727C241.154 22.0876 241.382 22.3295 241.673 22.4986C241.965 22.6643 242.306 22.7472 242.697 22.7472C242.959 22.7472 243.196 22.7107 243.408 22.6378C243.62 22.5616 243.804 22.4505 243.96 22.3047C244.116 22.1589 244.234 21.9782 244.313 21.7628L245.993 21.9517C245.887 22.3958 245.685 22.7836 245.387 23.1151C245.092 23.4432 244.714 23.6984 244.253 23.8807C243.793 24.0597 243.266 24.1491 242.672 24.1491ZM249.508 24.1541C249.024 24.1541 248.588 24.0679 248.201 23.8956C247.816 23.7199 247.511 23.4614 247.286 23.12C247.064 22.7786 246.953 22.3577 246.953 21.8572C246.953 21.4264 247.032 21.0701 247.191 20.7884C247.35 20.5066 247.567 20.2812 247.843 20.1122C248.118 19.9432 248.428 19.8156 248.772 19.7294C249.12 19.6399 249.48 19.5753 249.851 19.5355C250.299 19.4891 250.661 19.4477 250.94 19.4112C251.218 19.3714 251.42 19.3118 251.546 19.2322C251.676 19.1494 251.74 19.0218 251.74 18.8494V18.8196C251.74 18.4451 251.629 18.1551 251.407 17.9496C251.185 17.7441 250.865 17.6413 250.448 17.6413C250.007 17.6413 249.657 17.7375 249.399 17.9297C249.143 18.1219 248.971 18.349 248.882 18.6108L247.201 18.3722C247.334 17.9081 247.553 17.5204 247.857 17.2088C248.162 16.8939 248.535 16.6586 248.976 16.5028C249.417 16.3438 249.904 16.2642 250.438 16.2642C250.806 16.2642 251.172 16.3073 251.536 16.3935C251.901 16.4796 252.234 16.6222 252.536 16.821C252.837 17.0166 253.079 17.2834 253.262 17.6214C253.447 17.9595 253.54 18.3821 253.54 18.8892V24H251.81V22.951H251.75C251.641 23.1631 251.487 23.362 251.288 23.5476C251.092 23.7299 250.845 23.8774 250.547 23.9901C250.252 24.0994 249.906 24.1541 249.508 24.1541ZM249.975 22.8317C250.337 22.8317 250.65 22.7604 250.915 22.6179C251.18 22.4721 251.384 22.2798 251.527 22.0412C251.672 21.8026 251.745 21.5424 251.745 21.2607V20.3608C251.689 20.4072 251.593 20.4503 251.457 20.4901C251.324 20.5298 251.175 20.5646 251.009 20.5945C250.844 20.6243 250.68 20.6508 250.517 20.674C250.355 20.6972 250.214 20.7171 250.095 20.7337C249.826 20.7701 249.586 20.8298 249.374 20.9126C249.162 20.9955 248.994 21.1115 248.872 21.2607C248.749 21.4065 248.688 21.5954 248.688 21.8274C248.688 22.1589 248.809 22.4091 249.051 22.5781C249.293 22.7472 249.601 22.8317 249.975 22.8317ZM257.903 24.1342C257.304 24.1342 256.767 23.9801 256.293 23.6719C255.819 23.3636 255.444 22.9162 255.169 22.3295C254.894 21.7429 254.756 21.0303 254.756 20.1918C254.756 19.3433 254.896 18.6274 255.174 18.044C255.456 17.4574 255.835 17.0149 256.313 16.7166C256.79 16.415 257.322 16.2642 257.908 16.2642C258.356 16.2642 258.724 16.3404 259.012 16.4929C259.301 16.642 259.529 16.8227 259.698 17.0348C259.867 17.2436 259.998 17.4408 260.091 17.6264H260.166V13.8182H261.97V24H260.2V22.7969H260.091C259.998 22.9825 259.864 23.1797 259.688 23.3885C259.513 23.594 259.281 23.7696 258.992 23.9155C258.704 24.0613 258.341 24.1342 257.903 24.1342ZM258.406 22.6577C258.787 22.6577 259.112 22.5549 259.38 22.3494C259.649 22.1406 259.852 21.8506 259.992 21.4794C260.131 21.1082 260.2 20.6757 260.2 20.1818C260.2 19.688 260.131 19.2588 259.992 18.8942C259.856 18.5296 259.653 18.2462 259.385 18.044C259.12 17.8419 258.793 17.7408 258.406 17.7408C258.005 17.7408 257.67 17.8452 257.401 18.054C257.133 18.2628 256.931 18.5511 256.795 18.919C256.659 19.2869 256.591 19.7079 256.591 20.1818C256.591 20.6591 256.659 21.085 256.795 21.4595C256.934 21.8307 257.138 22.1241 257.406 22.3395C257.678 22.5516 258.011 22.6577 258.406 22.6577ZM266.989 24.1491C266.223 24.1491 265.562 23.9901 265.005 23.6719C264.452 23.3504 264.026 22.8963 263.727 22.3097C263.429 21.7197 263.28 21.0253 263.28 20.2266C263.28 19.4411 263.429 18.7517 263.727 18.1584C264.029 17.5618 264.45 17.0978 264.99 16.7663C265.53 16.4316 266.165 16.2642 266.894 16.2642C267.365 16.2642 267.809 16.3404 268.227 16.4929C268.648 16.642 269.019 16.8741 269.34 17.1889C269.665 17.5038 269.92 17.9048 270.106 18.392C270.292 18.8759 270.384 19.4527 270.384 20.1222V20.674H264.125V19.4609H268.659C268.656 19.1162 268.581 18.8097 268.435 18.5412C268.29 18.2694 268.086 18.0556 267.824 17.8999C267.565 17.7441 267.264 17.6662 266.919 17.6662C266.551 17.6662 266.228 17.7557 265.95 17.9347C265.671 18.1103 265.454 18.3423 265.298 18.6307C265.146 18.9157 265.068 19.2289 265.065 19.5703V20.6293C265.065 21.0734 265.146 21.4545 265.308 21.7727C265.471 22.0876 265.698 22.3295 265.989 22.4986C266.281 22.6643 266.622 22.7472 267.014 22.7472C267.275 22.7472 267.512 22.7107 267.725 22.6378C267.937 22.5616 268.121 22.4505 268.276 22.3047C268.432 22.1589 268.55 21.9782 268.629 21.7628L270.31 21.9517C270.204 22.3958 270.002 22.7836 269.703 23.1151C269.408 23.4432 269.03 23.6984 268.57 23.8807C268.109 24.0597 267.582 24.1491 266.989 24.1491ZM271.627 24V16.3636H273.372V17.6364H273.451C273.591 17.1955 273.829 16.8558 274.167 16.6172C274.509 16.3752 274.898 16.2543 275.336 16.2543C275.435 16.2543 275.546 16.2592 275.669 16.2692C275.795 16.2758 275.899 16.2874 275.982 16.304V17.9595C275.906 17.933 275.785 17.9098 275.619 17.8899C275.457 17.8667 275.299 17.8551 275.147 17.8551C274.819 17.8551 274.524 17.9264 274.262 18.0689C274.003 18.2081 273.799 18.402 273.65 18.6506C273.501 18.8991 273.427 19.1858 273.427 19.5107V24H271.627ZM276.977 24V13.8182H278.777V17.6264H278.851C278.944 17.4408 279.075 17.2436 279.244 17.0348C279.413 16.8227 279.642 16.642 279.93 16.4929C280.219 16.3404 280.587 16.2642 281.034 16.2642C281.624 16.2642 282.156 16.415 282.63 16.7166C283.107 17.0149 283.485 17.4574 283.763 18.044C284.045 18.6274 284.186 19.3433 284.186 20.1918C284.186 21.0303 284.048 21.7429 283.773 22.3295C283.498 22.9162 283.124 23.3636 282.65 23.6719C282.176 23.9801 281.639 24.1342 281.039 24.1342C280.601 24.1342 280.239 24.0613 279.95 23.9155C279.662 23.7696 279.43 23.594 279.254 23.3885C279.082 23.1797 278.948 22.9825 278.851 22.7969H278.747V24H276.977ZM278.742 20.1818C278.742 20.6757 278.812 21.1082 278.951 21.4794C279.093 21.8506 279.297 22.1406 279.562 22.3494C279.831 22.5549 280.156 22.6577 280.537 22.6577C280.935 22.6577 281.268 22.5516 281.536 22.3395C281.805 22.1241 282.007 21.8307 282.143 21.4595C282.282 21.085 282.351 20.6591 282.351 20.1818C282.351 19.7079 282.284 19.2869 282.148 18.919C282.012 18.5511 281.81 18.2628 281.541 18.054C281.273 17.8452 280.938 17.7408 280.537 17.7408C280.152 17.7408 279.826 17.8419 279.557 18.044C279.289 18.2462 279.085 18.5296 278.946 18.8942C278.81 19.2588 278.742 19.688 278.742 20.1818ZM288.767 24.1491C288.021 24.1491 287.375 23.9851 286.828 23.657C286.281 23.3288 285.857 22.8698 285.555 22.2798C285.257 21.6899 285.108 21.0005 285.108 20.2116C285.108 19.4228 285.257 18.7318 285.555 18.1385C285.857 17.5452 286.281 17.0845 286.828 16.7564C287.375 16.4283 288.021 16.2642 288.767 16.2642C289.513 16.2642 290.159 16.4283 290.706 16.7564C291.253 17.0845 291.675 17.5452 291.974 18.1385C292.275 18.7318 292.426 19.4228 292.426 20.2116C292.426 21.0005 292.275 21.6899 291.974 22.2798C291.675 22.8698 291.253 23.3288 290.706 23.657C290.159 23.9851 289.513 24.1491 288.767 24.1491ZM288.777 22.7074C289.181 22.7074 289.519 22.5964 289.791 22.3743C290.063 22.1489 290.265 21.8473 290.398 21.4695C290.534 21.0916 290.601 20.6707 290.601 20.2067C290.601 19.7393 290.534 19.3168 290.398 18.9389C290.265 18.5578 290.063 18.2545 289.791 18.0291C289.519 17.8037 289.181 17.6911 288.777 17.6911C288.363 17.6911 288.018 17.8037 287.743 18.0291C287.471 18.2545 287.267 18.5578 287.131 18.9389C286.999 19.3168 286.932 19.7393 286.932 20.2067C286.932 20.6707 286.999 21.0916 287.131 21.4695C287.267 21.8473 287.471 22.1489 287.743 22.3743C288.018 22.5964 288.363 22.7074 288.777 22.7074ZM295.871 24.1541C295.387 24.1541 294.951 24.0679 294.564 23.8956C294.179 23.7199 293.874 23.4614 293.649 23.12C293.427 22.7786 293.316 22.3577 293.316 21.8572C293.316 21.4264 293.395 21.0701 293.554 20.7884C293.713 20.5066 293.93 20.2812 294.206 20.1122C294.481 19.9432 294.791 19.8156 295.135 19.7294C295.483 19.6399 295.843 19.5753 296.214 19.5355C296.662 19.4891 297.024 19.4477 297.303 19.4112C297.581 19.3714 297.783 19.3118 297.909 19.2322C298.039 19.1494 298.103 19.0218 298.103 18.8494V18.8196C298.103 18.4451 297.992 18.1551 297.77 17.9496C297.548 17.7441 297.228 17.6413 296.811 17.6413C296.37 17.6413 296.02 17.7375 295.762 17.9297C295.506 18.1219 295.334 18.349 295.245 18.6108L293.564 18.3722C293.697 17.9081 293.916 17.5204 294.22 17.2088C294.525 16.8939 294.898 16.6586 295.339 16.5028C295.78 16.3438 296.267 16.2642 296.801 16.2642C297.169 16.2642 297.535 16.3073 297.899 16.3935C298.264 16.4796 298.597 16.6222 298.899 16.821C299.2 17.0166 299.442 17.2834 299.625 17.6214C299.81 17.9595 299.903 18.3821 299.903 18.8892V24H298.173V22.951H298.113C298.004 23.1631 297.85 23.362 297.651 23.5476C297.455 23.7299 297.208 23.8774 296.91 23.9901C296.615 24.0994 296.269 24.1541 295.871 24.1541ZM296.338 22.8317C296.7 22.8317 297.013 22.7604 297.278 22.6179C297.543 22.4721 297.747 22.2798 297.889 22.0412C298.035 21.8026 298.108 21.5424 298.108 21.2607V20.3608C298.052 20.4072 297.956 20.4503 297.82 20.4901C297.687 20.5298 297.538 20.5646 297.372 20.5945C297.207 20.6243 297.043 20.6508 296.88 20.674C296.718 20.6972 296.577 20.7171 296.458 20.7337C296.189 20.7701 295.949 20.8298 295.737 20.9126C295.525 20.9955 295.357 21.1115 295.235 21.2607C295.112 21.4065 295.051 21.5954 295.051 21.8274C295.051 22.1589 295.172 22.4091 295.414 22.5781C295.656 22.7472 295.964 22.8317 296.338 22.8317ZM301.433 24V16.3636H303.178V17.6364H303.257C303.396 17.1955 303.635 16.8558 303.973 16.6172C304.315 16.3752 304.704 16.2543 305.141 16.2543C305.241 16.2543 305.352 16.2592 305.475 16.2692C305.601 16.2758 305.705 16.2874 305.788 16.304V17.9595C305.712 17.933 305.591 17.9098 305.425 17.8899C305.262 17.8667 305.105 17.8551 304.953 17.8551C304.624 17.8551 304.329 17.9264 304.068 18.0689C303.809 18.2081 303.605 18.402 303.456 18.6506C303.307 18.8991 303.232 19.1858 303.232 19.5107V24H301.433ZM309.223 24.1342C308.623 24.1342 308.086 23.9801 307.612 23.6719C307.138 23.3636 306.763 22.9162 306.488 22.3295C306.213 21.7429 306.076 21.0303 306.076 20.1918C306.076 19.3433 306.215 18.6274 306.493 18.044C306.775 17.4574 307.155 17.0149 307.632 16.7166C308.109 16.415 308.641 16.2642 309.228 16.2642C309.675 16.2642 310.043 16.3404 310.331 16.4929C310.62 16.642 310.848 16.8227 311.018 17.0348C311.187 17.2436 311.317 17.4408 311.41 17.6264H311.485V13.8182H313.29V24H311.52V22.7969H311.41C311.317 22.9825 311.183 23.1797 311.008 23.3885C310.832 23.594 310.6 23.7696 310.312 23.9155C310.023 24.0613 309.66 24.1342 309.223 24.1342ZM309.725 22.6577C310.106 22.6577 310.431 22.5549 310.699 22.3494C310.968 22.1406 311.172 21.8506 311.311 21.4794C311.45 21.1082 311.52 20.6757 311.52 20.1818C311.52 19.688 311.45 19.2588 311.311 18.8942C311.175 18.5296 310.973 18.2462 310.704 18.044C310.439 17.8419 310.113 17.7408 309.725 17.7408C309.324 17.7408 308.989 17.8452 308.721 18.054C308.452 18.2628 308.25 18.5511 308.114 18.919C307.978 19.2869 307.91 19.7079 307.91 20.1818C307.91 20.6591 307.978 21.085 308.114 21.4595C308.253 21.8307 308.457 22.1241 308.726 22.3395C308.997 22.5516 309.33 22.6577 309.725 22.6577Z" fill="#C4FF00"/>
</svg>
