<svg width="390" height="350" viewBox="0 0 390 350" fill="none" xmlns="http://www.w3.org/2000/svg">
<path d="M0 24C0 10.7452 10.7452 0 24 0H366C379.255 0 390 10.7452 390 24V350H0V24Z" fill="#15151A"/>
<path d="M96.9816 107H90.7941V89.5455H97.0327C98.7884 89.5455 100.3 89.8949 101.567 90.5938C102.834 91.2869 103.808 92.2841 104.49 93.5852C105.178 94.8864 105.521 96.4432 105.521 98.2557C105.521 100.074 105.178 101.636 104.49 102.943C103.808 104.25 102.828 105.253 101.55 105.952C100.277 106.651 98.7543 107 96.9816 107ZM94.4844 103.838H96.8282C97.9191 103.838 98.8367 103.645 99.581 103.259C100.331 102.866 100.894 102.261 101.269 101.443C101.649 100.619 101.84 99.5568 101.84 98.2557C101.84 96.9659 101.649 95.9119 101.269 95.0938C100.894 94.2756 100.334 93.6733 99.5895 93.2869C98.8452 92.9006 97.9276 92.7074 96.8367 92.7074H94.4844V103.838ZM113.622 107.256C112.298 107.256 111.153 106.974 110.187 106.412C109.227 105.844 108.485 105.054 107.963 104.043C107.44 103.026 107.178 101.847 107.178 100.506C107.178 99.1534 107.44 97.9716 107.963 96.9602C108.485 95.9432 109.227 95.1534 110.187 94.5909C111.153 94.0227 112.298 93.7386 113.622 93.7386C114.945 93.7386 116.088 94.0227 117.048 94.5909C118.014 95.1534 118.758 95.9432 119.281 96.9602C119.803 97.9716 120.065 99.1534 120.065 100.506C120.065 101.847 119.803 103.026 119.281 104.043C118.758 105.054 118.014 105.844 117.048 106.412C116.088 106.974 114.945 107.256 113.622 107.256ZM113.639 104.443C114.241 104.443 114.744 104.273 115.147 103.932C115.551 103.585 115.855 103.114 116.059 102.517C116.269 101.92 116.374 101.241 116.374 100.48C116.374 99.7188 116.269 99.0398 116.059 98.4432C115.855 97.8466 115.551 97.375 115.147 97.0284C114.744 96.6818 114.241 96.5085 113.639 96.5085C113.031 96.5085 112.519 96.6818 112.105 97.0284C111.695 97.375 111.386 97.8466 111.176 98.4432C110.971 99.0398 110.869 99.7188 110.869 100.48C110.869 101.241 110.971 101.92 111.176 102.517C111.386 103.114 111.695 103.585 112.105 103.932C112.519 104.273 113.031 104.443 113.639 104.443ZM129.262 111.909C128.802 111.909 128.37 111.872 127.966 111.798C127.569 111.73 127.239 111.642 126.978 111.534L127.796 108.824C128.222 108.955 128.605 109.026 128.946 109.037C129.293 109.048 129.591 108.969 129.841 108.798C130.097 108.628 130.304 108.338 130.463 107.929L130.677 107.375L125.98 93.9091H129.799L132.509 103.523H132.645L135.381 93.9091H139.225L134.137 108.415C133.892 109.119 133.56 109.733 133.14 110.256C132.725 110.784 132.199 111.19 131.563 111.474C130.927 111.764 130.159 111.909 129.262 111.909ZM146.096 107.256C144.772 107.256 143.627 106.974 142.661 106.412C141.701 105.844 140.959 105.054 140.437 104.043C139.914 103.026 139.652 101.847 139.652 100.506C139.652 99.1534 139.914 97.9716 140.437 96.9602C140.959 95.9432 141.701 95.1534 142.661 94.5909C143.627 94.0227 144.772 93.7386 146.096 93.7386C147.42 93.7386 148.562 94.0227 149.522 94.5909C150.488 95.1534 151.232 95.9432 151.755 96.9602C152.277 97.9716 152.539 99.1534 152.539 100.506C152.539 101.847 152.277 103.026 151.755 104.043C151.232 105.054 150.488 105.844 149.522 106.412C148.562 106.974 147.42 107.256 146.096 107.256ZM146.113 104.443C146.715 104.443 147.218 104.273 147.621 103.932C148.025 103.585 148.329 103.114 148.533 102.517C148.743 101.92 148.849 101.241 148.849 100.48C148.849 99.7188 148.743 99.0398 148.533 98.4432C148.329 97.8466 148.025 97.375 147.621 97.0284C147.218 96.6818 146.715 96.5085 146.113 96.5085C145.505 96.5085 144.993 96.6818 144.579 97.0284C144.17 97.375 143.86 97.8466 143.65 98.4432C143.445 99.0398 143.343 99.7188 143.343 100.48C143.343 101.241 143.445 101.92 143.65 102.517C143.86 103.114 144.17 103.585 144.579 103.932C144.993 104.273 145.505 104.443 146.113 104.443ZM162.815 101.426V93.9091H166.445V107H162.959V104.622H162.823C162.528 105.389 162.036 106.006 161.349 106.472C160.667 106.937 159.834 107.17 158.851 107.17C157.976 107.17 157.207 106.972 156.542 106.574C155.877 106.176 155.357 105.611 154.982 104.878C154.613 104.145 154.425 103.267 154.42 102.244V93.9091H158.05V101.597C158.056 102.369 158.263 102.98 158.672 103.429C159.082 103.878 159.63 104.102 160.317 104.102C160.755 104.102 161.164 104.003 161.545 103.804C161.925 103.599 162.232 103.298 162.465 102.901C162.704 102.503 162.82 102.011 162.815 101.426ZM176.526 107L172.964 93.9091H176.637L178.666 102.705H178.785L180.899 93.9091H184.504L186.651 102.653H186.762L188.757 93.9091H192.421L188.867 107H185.024L182.774 98.767H182.612L180.362 107H176.526ZM197.611 107.247C196.776 107.247 196.031 107.102 195.378 106.812C194.725 106.517 194.208 106.082 193.827 105.509C193.452 104.929 193.264 104.207 193.264 103.344C193.264 102.616 193.398 102.006 193.665 101.511C193.932 101.017 194.296 100.619 194.756 100.318C195.216 100.017 195.739 99.7898 196.324 99.6364C196.915 99.483 197.534 99.375 198.182 99.3125C198.943 99.233 199.557 99.1591 200.023 99.0909C200.489 99.017 200.827 98.9091 201.037 98.767C201.247 98.625 201.353 98.4148 201.353 98.1364V98.0852C201.353 97.5455 201.182 97.1278 200.841 96.8324C200.506 96.5369 200.029 96.3892 199.409 96.3892C198.756 96.3892 198.236 96.5341 197.85 96.8239C197.463 97.108 197.208 97.4659 197.083 97.8977L193.725 97.625C193.895 96.8295 194.23 96.142 194.73 95.5625C195.23 94.9773 195.875 94.5284 196.665 94.2159C197.46 93.8977 198.381 93.7386 199.426 93.7386C200.154 93.7386 200.85 93.8239 201.514 93.9943C202.185 94.1648 202.779 94.429 203.296 94.7869C203.818 95.1449 204.23 95.6051 204.531 96.1676C204.833 96.7244 204.983 97.392 204.983 98.1705V107H201.54V105.185H201.438C201.228 105.594 200.946 105.955 200.594 106.267C200.242 106.574 199.818 106.815 199.324 106.991C198.83 107.162 198.259 107.247 197.611 107.247ZM198.651 104.741C199.185 104.741 199.656 104.636 200.066 104.426C200.475 104.21 200.796 103.92 201.029 103.557C201.262 103.193 201.378 102.781 201.378 102.321V100.932C201.264 101.006 201.108 101.074 200.909 101.136C200.716 101.193 200.497 101.247 200.253 101.298C200.009 101.344 199.764 101.386 199.52 101.426C199.276 101.46 199.054 101.491 198.855 101.52C198.429 101.582 198.057 101.682 197.739 101.818C197.421 101.955 197.174 102.139 196.997 102.372C196.821 102.599 196.733 102.884 196.733 103.224C196.733 103.719 196.912 104.097 197.27 104.358C197.634 104.614 198.094 104.741 198.651 104.741ZM210.951 99.4318V107H207.32V93.9091H210.78V96.2188H210.934C211.223 95.4574 211.709 94.8551 212.391 94.4119C213.073 93.9631 213.9 93.7386 214.871 93.7386C215.78 93.7386 216.573 93.9375 217.249 94.3352C217.925 94.733 218.451 95.3011 218.826 96.0398C219.201 96.7727 219.388 97.6477 219.388 98.6648V107H215.757V99.3125C215.763 98.5114 215.559 97.8864 215.144 97.4375C214.729 96.983 214.158 96.7557 213.431 96.7557C212.942 96.7557 212.51 96.8608 212.135 97.071C211.766 97.2812 211.476 97.5881 211.266 97.9915C211.061 98.3892 210.956 98.8693 210.951 99.4318ZM228.733 93.9091V96.6364H220.849V93.9091H228.733ZM222.639 90.7727H226.27V102.977C226.27 103.312 226.321 103.574 226.423 103.761C226.525 103.943 226.667 104.071 226.849 104.145C227.037 104.219 227.253 104.256 227.497 104.256C227.667 104.256 227.838 104.241 228.008 104.213C228.179 104.179 228.309 104.153 228.4 104.136L228.971 106.838C228.79 106.895 228.534 106.96 228.204 107.034C227.875 107.114 227.474 107.162 227.003 107.179C226.128 107.213 225.361 107.097 224.701 106.83C224.048 106.562 223.54 106.148 223.176 105.585C222.812 105.023 222.633 104.312 222.639 103.455V90.7727ZM242.656 93.9091V96.6364H234.772V93.9091H242.656ZM236.562 90.7727H240.192V102.977C240.192 103.312 240.244 103.574 240.346 103.761C240.448 103.943 240.59 104.071 240.772 104.145C240.96 104.219 241.175 104.256 241.42 104.256C241.59 104.256 241.761 104.241 241.931 104.213C242.102 104.179 242.232 104.153 242.323 104.136L242.894 106.838C242.712 106.895 242.457 106.96 242.127 107.034C241.798 107.114 241.397 107.162 240.925 107.179C240.05 107.213 239.283 107.097 238.624 106.83C237.971 106.562 237.462 106.148 237.099 105.585C236.735 105.023 236.556 104.312 236.562 103.455V90.7727ZM250.315 107.256C248.991 107.256 247.846 106.974 246.88 106.412C245.92 105.844 245.178 105.054 244.656 104.043C244.133 103.026 243.872 101.847 243.872 100.506C243.872 99.1534 244.133 97.9716 244.656 96.9602C245.178 95.9432 245.92 95.1534 246.88 94.5909C247.846 94.0227 248.991 93.7386 250.315 93.7386C251.639 93.7386 252.781 94.0227 253.741 94.5909C254.707 95.1534 255.451 95.9432 255.974 96.9602C256.497 97.9716 256.758 99.1534 256.758 100.506C256.758 101.847 256.497 103.026 255.974 104.043C255.451 105.054 254.707 105.844 253.741 106.412C252.781 106.974 251.639 107.256 250.315 107.256ZM250.332 104.443C250.934 104.443 251.437 104.273 251.84 103.932C252.244 103.585 252.548 103.114 252.752 102.517C252.962 101.92 253.068 101.241 253.068 100.48C253.068 99.7188 252.962 99.0398 252.752 98.4432C252.548 97.8466 252.244 97.375 251.84 97.0284C251.437 96.6818 250.934 96.5085 250.332 96.5085C249.724 96.5085 249.212 96.6818 248.798 97.0284C248.389 97.375 248.079 97.8466 247.869 98.4432C247.664 99.0398 247.562 99.7188 247.562 100.48C247.562 101.241 247.664 101.92 247.869 102.517C248.079 103.114 248.389 103.585 248.798 103.932C249.212 104.273 249.724 104.443 250.332 104.443ZM274.605 97.642L271.282 97.8466C271.225 97.5625 271.103 97.3068 270.915 97.0795C270.728 96.8466 270.48 96.6619 270.174 96.5256C269.872 96.3835 269.512 96.3125 269.091 96.3125C268.529 96.3125 268.054 96.4318 267.668 96.6705C267.282 96.9034 267.088 97.2159 267.088 97.608C267.088 97.9205 267.213 98.1847 267.463 98.4006C267.713 98.6165 268.142 98.7898 268.75 98.9205L271.12 99.3977C272.392 99.6591 273.341 100.08 273.966 100.659C274.591 101.239 274.904 102 274.904 102.943C274.904 103.801 274.651 104.554 274.145 105.202C273.645 105.849 272.958 106.355 272.083 106.719C271.213 107.077 270.211 107.256 269.074 107.256C267.341 107.256 265.961 106.895 264.932 106.173C263.909 105.446 263.31 104.457 263.134 103.207L266.705 103.02C266.813 103.548 267.074 103.952 267.489 104.23C267.904 104.503 268.435 104.639 269.083 104.639C269.719 104.639 270.23 104.517 270.617 104.273C271.009 104.023 271.208 103.702 271.213 103.31C271.208 102.98 271.069 102.71 270.796 102.5C270.523 102.284 270.103 102.119 269.534 102.006L267.267 101.554C265.989 101.298 265.037 100.855 264.412 100.224C263.793 99.5937 263.483 98.7898 263.483 97.8125C263.483 96.9716 263.711 96.2472 264.165 95.6392C264.625 95.0312 265.27 94.5625 266.1 94.233C266.935 93.9034 267.912 93.7386 269.032 93.7386C270.685 93.7386 271.986 94.0881 272.935 94.7869C273.89 95.4858 274.446 96.4375 274.605 97.642ZM282.676 107.256C281.329 107.256 280.17 106.983 279.199 106.438C278.233 105.886 277.488 105.108 276.966 104.102C276.443 103.091 276.182 101.895 276.182 100.514C276.182 99.1676 276.443 97.9858 276.966 96.9688C277.488 95.9517 278.224 95.1591 279.173 94.5909C280.128 94.0227 281.247 93.7386 282.531 93.7386C283.395 93.7386 284.199 93.8778 284.943 94.1562C285.693 94.429 286.346 94.8409 286.903 95.392C287.466 95.9432 287.903 96.6364 288.216 97.4716C288.528 98.3011 288.684 99.2727 288.684 100.386V101.384H277.63V99.1335H285.267C285.267 98.6108 285.153 98.1477 284.926 97.7443C284.699 97.3409 284.383 97.0256 283.98 96.7983C283.582 96.5653 283.119 96.4489 282.591 96.4489C282.04 96.4489 281.551 96.5767 281.125 96.8324C280.704 97.0824 280.375 97.4205 280.136 97.8466C279.897 98.267 279.775 98.7358 279.77 99.2528V101.392C279.77 102.04 279.889 102.599 280.128 103.071C280.372 103.543 280.716 103.906 281.159 104.162C281.602 104.418 282.128 104.545 282.736 104.545C283.139 104.545 283.508 104.489 283.843 104.375C284.179 104.261 284.466 104.091 284.704 103.864C284.943 103.636 285.125 103.358 285.25 103.028L288.608 103.25C288.437 104.057 288.088 104.761 287.559 105.364C287.037 105.96 286.361 106.426 285.531 106.761C284.707 107.091 283.755 107.256 282.676 107.256ZM294.204 89.5455V107H290.574V89.5455H294.204ZM300.263 89.5455V107H296.633V89.5455H300.263ZM153.002 136.247C152.167 136.247 151.422 136.102 150.769 135.812C150.116 135.517 149.599 135.082 149.218 134.509C148.843 133.929 148.655 133.207 148.655 132.344C148.655 131.616 148.789 131.006 149.056 130.511C149.323 130.017 149.687 129.619 150.147 129.318C150.607 129.017 151.13 128.79 151.715 128.636C152.306 128.483 152.925 128.375 153.573 128.312C154.334 128.233 154.948 128.159 155.414 128.091C155.88 128.017 156.218 127.909 156.428 127.767C156.638 127.625 156.743 127.415 156.743 127.136V127.085C156.743 126.545 156.573 126.128 156.232 125.832C155.897 125.537 155.42 125.389 154.8 125.389C154.147 125.389 153.627 125.534 153.241 125.824C152.854 126.108 152.599 126.466 152.474 126.898L149.116 126.625C149.286 125.83 149.621 125.142 150.121 124.562C150.621 123.977 151.266 123.528 152.056 123.216C152.851 122.898 153.772 122.739 154.817 122.739C155.545 122.739 156.241 122.824 156.905 122.994C157.576 123.165 158.17 123.429 158.687 123.787C159.209 124.145 159.621 124.605 159.922 125.168C160.224 125.724 160.374 126.392 160.374 127.17V136H156.931V134.185H156.829C156.618 134.594 156.337 134.955 155.985 135.267C155.633 135.574 155.209 135.815 154.715 135.991C154.221 136.162 153.65 136.247 153.002 136.247ZM154.042 133.741C154.576 133.741 155.047 133.636 155.457 133.426C155.866 133.21 156.187 132.92 156.42 132.557C156.653 132.193 156.769 131.781 156.769 131.321V129.932C156.655 130.006 156.499 130.074 156.3 130.136C156.107 130.193 155.888 130.247 155.644 130.298C155.4 130.344 155.155 130.386 154.911 130.426C154.667 130.46 154.445 130.491 154.246 130.52C153.82 130.582 153.448 130.682 153.13 130.818C152.812 130.955 152.564 131.139 152.388 131.372C152.212 131.599 152.124 131.884 152.124 132.224C152.124 132.719 152.303 133.097 152.661 133.358C153.025 133.614 153.485 133.741 154.042 133.741ZM166.342 118.545V136H162.711V118.545H166.342ZM172.401 118.545V136H168.77V118.545H172.401ZM185.801 141.182C184.625 141.182 183.617 141.02 182.776 140.696C181.941 140.378 181.276 139.943 180.782 139.392C180.287 138.841 179.966 138.222 179.818 137.534L183.176 137.082C183.279 137.344 183.441 137.588 183.662 137.815C183.884 138.043 184.176 138.224 184.54 138.361C184.909 138.503 185.358 138.574 185.887 138.574C186.676 138.574 187.327 138.381 187.838 137.994C188.355 137.614 188.614 136.974 188.614 136.077V133.682H188.461C188.301 134.045 188.063 134.389 187.745 134.713C187.426 135.037 187.017 135.301 186.517 135.506C186.017 135.71 185.421 135.812 184.728 135.812C183.745 135.812 182.85 135.585 182.043 135.131C181.242 134.67 180.603 133.969 180.125 133.026C179.654 132.077 179.418 130.878 179.418 129.429C179.418 127.946 179.659 126.707 180.142 125.713C180.625 124.719 181.267 123.974 182.068 123.48C182.875 122.986 183.759 122.739 184.719 122.739C185.452 122.739 186.066 122.864 186.56 123.114C187.054 123.358 187.452 123.665 187.753 124.034C188.06 124.398 188.296 124.756 188.461 125.108H188.597V122.909H192.202V136.128C192.202 137.241 191.929 138.173 191.384 138.923C190.838 139.673 190.083 140.236 189.117 140.611C188.157 140.991 187.051 141.182 185.801 141.182ZM185.878 133.085C186.463 133.085 186.958 132.94 187.361 132.651C187.77 132.355 188.083 131.935 188.299 131.389C188.52 130.838 188.631 130.179 188.631 129.412C188.631 128.645 188.523 127.98 188.307 127.418C188.091 126.849 187.779 126.409 187.37 126.097C186.961 125.784 186.463 125.628 185.878 125.628C185.282 125.628 184.779 125.79 184.37 126.114C183.961 126.432 183.651 126.875 183.441 127.443C183.23 128.011 183.125 128.668 183.125 129.412C183.125 130.168 183.23 130.821 183.441 131.372C183.657 131.918 183.966 132.341 184.37 132.642C184.779 132.937 185.282 133.085 185.878 133.085ZM194.611 136V122.909H198.242V136H194.611ZM196.435 121.222C195.895 121.222 195.432 121.043 195.046 120.685C194.665 120.321 194.475 119.886 194.475 119.381C194.475 118.881 194.665 118.452 195.046 118.094C195.432 117.73 195.895 117.548 196.435 117.548C196.975 117.548 197.435 117.73 197.816 118.094C198.202 118.452 198.395 118.881 198.395 119.381C198.395 119.886 198.202 120.321 197.816 120.685C197.435 121.043 196.975 121.222 196.435 121.222ZM207.71 122.909V125.636H199.63V122.909H207.71ZM201.48 136V121.963C201.48 121.014 201.665 120.227 202.034 119.602C202.409 118.977 202.92 118.509 203.568 118.196C204.216 117.884 204.952 117.727 205.775 117.727C206.332 117.727 206.841 117.77 207.301 117.855C207.767 117.94 208.113 118.017 208.341 118.085L207.693 120.812C207.551 120.767 207.375 120.724 207.165 120.685C206.96 120.645 206.75 120.625 206.534 120.625C206 120.625 205.628 120.75 205.417 121C205.207 121.244 205.102 121.588 205.102 122.031V136H201.48ZM216.411 122.909V125.636H208.528V122.909H216.411ZM210.317 119.773H213.948V131.977C213.948 132.312 213.999 132.574 214.101 132.761C214.204 132.943 214.346 133.071 214.528 133.145C214.715 133.219 214.931 133.256 215.175 133.256C215.346 133.256 215.516 133.241 215.687 133.213C215.857 133.179 215.988 133.153 216.079 133.136L216.65 135.838C216.468 135.895 216.212 135.96 215.883 136.034C215.553 136.114 215.153 136.162 214.681 136.179C213.806 136.213 213.039 136.097 212.38 135.83C211.726 135.562 211.218 135.148 210.854 134.585C210.491 134.023 210.312 133.312 210.317 132.455V119.773ZM229.024 126.642L225.7 126.847C225.644 126.562 225.521 126.307 225.334 126.08C225.146 125.847 224.899 125.662 224.592 125.526C224.291 125.384 223.93 125.312 223.51 125.312C222.947 125.312 222.473 125.432 222.087 125.67C221.7 125.903 221.507 126.216 221.507 126.608C221.507 126.92 221.632 127.185 221.882 127.401C222.132 127.616 222.561 127.79 223.169 127.92L225.538 128.398C226.811 128.659 227.76 129.08 228.385 129.659C229.01 130.239 229.322 131 229.322 131.943C229.322 132.801 229.07 133.554 228.564 134.202C228.064 134.849 227.376 135.355 226.501 135.719C225.632 136.077 224.629 136.256 223.493 136.256C221.76 136.256 220.379 135.895 219.351 135.173C218.328 134.446 217.729 133.457 217.553 132.207L221.124 132.02C221.232 132.548 221.493 132.952 221.908 133.23C222.322 133.503 222.854 133.639 223.501 133.639C224.138 133.639 224.649 133.517 225.036 133.273C225.428 133.023 225.626 132.702 225.632 132.31C225.626 131.98 225.487 131.71 225.215 131.5C224.942 131.284 224.521 131.119 223.953 131.006L221.686 130.554C220.408 130.298 219.456 129.855 218.831 129.224C218.212 128.594 217.902 127.79 217.902 126.812C217.902 125.972 218.129 125.247 218.584 124.639C219.044 124.031 219.689 123.562 220.519 123.233C221.354 122.903 222.331 122.739 223.45 122.739C225.104 122.739 226.405 123.088 227.354 123.787C228.308 124.486 228.865 125.437 229.024 126.642ZM234.248 130.767V130.477C234.254 129.483 234.342 128.69 234.512 128.099C234.688 127.509 234.944 127.031 235.279 126.668C235.614 126.304 236.018 125.974 236.489 125.679C236.842 125.452 237.157 125.216 237.436 124.972C237.714 124.727 237.936 124.457 238.1 124.162C238.265 123.861 238.347 123.526 238.347 123.156C238.347 122.764 238.254 122.42 238.066 122.125C237.879 121.83 237.626 121.602 237.308 121.443C236.995 121.284 236.649 121.205 236.268 121.205C235.899 121.205 235.549 121.287 235.22 121.452C234.89 121.611 234.62 121.849 234.41 122.168C234.2 122.48 234.086 122.869 234.069 123.335H230.592C230.62 122.199 230.893 121.261 231.41 120.523C231.927 119.778 232.612 119.224 233.464 118.861C234.316 118.491 235.257 118.307 236.285 118.307C237.416 118.307 238.416 118.494 239.285 118.869C240.154 119.239 240.836 119.776 241.33 120.48C241.825 121.185 242.072 122.034 242.072 123.028C242.072 123.693 241.961 124.284 241.739 124.801C241.524 125.312 241.22 125.767 240.828 126.165C240.436 126.557 239.972 126.912 239.438 127.23C238.989 127.497 238.62 127.776 238.33 128.065C238.046 128.355 237.833 128.69 237.691 129.071C237.555 129.452 237.484 129.92 237.478 130.477V130.767H234.248ZM235.936 136.222C235.367 136.222 234.882 136.023 234.478 135.625C234.08 135.222 233.884 134.739 233.89 134.176C233.884 133.619 234.08 133.142 234.478 132.744C234.882 132.347 235.367 132.148 235.936 132.148C236.475 132.148 236.95 132.347 237.359 132.744C237.768 133.142 237.975 133.619 237.981 134.176C237.975 134.551 237.876 134.895 237.683 135.207C237.495 135.514 237.248 135.761 236.941 135.949C236.634 136.131 236.299 136.222 235.936 136.222Z" fill="white"/>
<path d="M16 288C16 274.745 26.7452 264 40 264H220C233.255 264 244 274.745 244 288V292C244 305.255 233.255 316 220 316H40C26.7452 316 16 305.255 16 292V288Z" fill="#C4FF00"/>
<path d="M75.0523 287.21C75.0068 286.752 74.8118 286.396 74.4671 286.142C74.1224 285.888 73.6546 285.761 73.0637 285.761C72.6622 285.761 72.3231 285.818 72.0466 285.932C71.7701 286.042 71.558 286.195 71.4103 286.392C71.2663 286.589 71.1943 286.812 71.1943 287.062C71.1868 287.271 71.2303 287.453 71.325 287.608C71.4235 287.763 71.558 287.898 71.7284 288.011C71.8989 288.121 72.0959 288.218 72.3193 288.301C72.5428 288.381 72.7815 288.449 73.0353 288.506L74.0807 288.756C74.5883 288.869 75.0542 289.021 75.4784 289.21C75.9027 289.4 76.2701 289.633 76.5807 289.909C76.8913 290.186 77.1318 290.511 77.3023 290.886C77.4765 291.261 77.5656 291.691 77.5693 292.176C77.5656 292.888 77.3837 293.506 77.0239 294.028C76.6678 294.547 76.1527 294.951 75.4784 295.239C74.808 295.523 73.9993 295.665 73.0523 295.665C72.1129 295.665 71.2947 295.521 70.5978 295.233C69.9046 294.945 69.3629 294.519 68.9728 293.955C68.5864 293.386 68.3837 292.684 68.3648 291.847H70.7455C70.772 292.237 70.8837 292.562 71.0807 292.824C71.2815 293.081 71.5485 293.277 71.8818 293.409C72.219 293.538 72.5997 293.602 73.0239 293.602C73.4406 293.602 73.8023 293.542 74.1091 293.42C74.4197 293.299 74.6603 293.131 74.8307 292.915C75.0012 292.699 75.0864 292.451 75.0864 292.17C75.0864 291.909 75.0087 291.689 74.8534 291.511C74.7019 291.333 74.4784 291.182 74.183 291.057C73.8913 290.932 73.5334 290.818 73.1091 290.716L71.8421 290.398C70.861 290.159 70.0864 289.786 69.5182 289.278C68.95 288.771 68.6678 288.087 68.6716 287.227C68.6678 286.523 68.8553 285.907 69.2341 285.381C69.6167 284.854 70.1413 284.443 70.808 284.148C71.4747 283.852 72.2322 283.705 73.0807 283.705C73.9443 283.705 74.6981 283.852 75.3421 284.148C75.9898 284.443 76.4936 284.854 76.8534 285.381C77.2133 285.907 77.3989 286.517 77.4103 287.21H75.0523ZM82.836 295.67C81.9383 295.67 81.1655 295.489 80.5178 295.125C79.8739 294.758 79.3777 294.239 79.0292 293.568C78.6807 292.894 78.5065 292.097 78.5065 291.176C78.5065 290.278 78.6807 289.491 79.0292 288.812C79.3777 288.134 79.8682 287.606 80.5008 287.227C81.1371 286.848 81.8833 286.659 82.7394 286.659C83.3152 286.659 83.8511 286.752 84.3474 286.938C84.8474 287.119 85.283 287.394 85.6542 287.761C86.0292 288.129 86.3208 288.591 86.5292 289.148C86.7375 289.701 86.8417 290.348 86.8417 291.091V291.756H79.4724V290.256H84.5633C84.5633 289.907 84.4875 289.598 84.336 289.33C84.1845 289.061 83.9743 288.85 83.7053 288.699C83.4402 288.544 83.1315 288.466 82.7792 288.466C82.4118 288.466 82.086 288.551 81.8019 288.722C81.5216 288.888 81.3019 289.114 81.1428 289.398C80.9837 289.678 80.9023 289.991 80.8985 290.335V291.761C80.8985 292.193 80.978 292.566 81.1371 292.881C81.3 293.195 81.5292 293.438 81.8246 293.608C82.1201 293.778 82.4705 293.864 82.8758 293.864C83.1447 293.864 83.3909 293.826 83.6144 293.75C83.8379 293.674 84.0292 293.561 84.1883 293.409C84.3474 293.258 84.4686 293.072 84.5519 292.852L86.7905 293C86.6769 293.538 86.444 294.008 86.0917 294.409C85.7432 294.807 85.2924 295.117 84.7394 295.341C84.1902 295.561 83.5557 295.67 82.836 295.67ZM90.5217 283.864V295.5H88.1012V283.864H90.5217ZM94.5611 283.864V295.5H92.1406V283.864H94.5611ZM104.256 286.773V288.591H98.8699V286.773H104.256ZM100.103 295.5V286.142C100.103 285.509 100.226 284.985 100.472 284.568C100.722 284.152 101.063 283.839 101.495 283.631C101.927 283.422 102.417 283.318 102.967 283.318C103.338 283.318 103.677 283.347 103.984 283.403C104.294 283.46 104.525 283.511 104.677 283.557L104.245 285.375C104.15 285.345 104.033 285.316 103.893 285.29C103.756 285.263 103.616 285.25 103.472 285.25C103.116 285.25 102.868 285.333 102.728 285.5C102.588 285.663 102.518 285.892 102.518 286.188V295.5H100.103ZM109.046 295.67C108.163 295.67 107.4 295.483 106.756 295.108C106.116 294.729 105.621 294.203 105.273 293.528C104.924 292.85 104.75 292.064 104.75 291.17C104.75 290.269 104.924 289.481 105.273 288.807C105.621 288.129 106.116 287.602 106.756 287.227C107.4 286.848 108.163 286.659 109.046 286.659C109.928 286.659 110.69 286.848 111.33 287.227C111.974 287.602 112.47 288.129 112.818 288.807C113.167 289.481 113.341 290.269 113.341 291.17C113.341 292.064 113.167 292.85 112.818 293.528C112.47 294.203 111.974 294.729 111.33 295.108C110.69 295.483 109.928 295.67 109.046 295.67ZM109.057 293.795C109.459 293.795 109.794 293.682 110.063 293.455C110.332 293.223 110.534 292.909 110.671 292.511C110.811 292.114 110.881 291.661 110.881 291.153C110.881 290.646 110.811 290.193 110.671 289.795C110.534 289.398 110.332 289.083 110.063 288.852C109.794 288.621 109.459 288.506 109.057 288.506C108.652 288.506 108.311 288.621 108.034 288.852C107.762 289.083 107.555 289.398 107.415 289.795C107.279 290.193 107.21 290.646 107.21 291.153C107.21 291.661 107.279 292.114 107.415 292.511C107.555 292.909 107.762 293.223 108.034 293.455C108.311 293.682 108.652 293.795 109.057 293.795ZM114.595 295.5V286.773H116.942V288.295H117.032C117.192 287.754 117.459 287.345 117.834 287.068C118.209 286.788 118.64 286.648 119.129 286.648C119.25 286.648 119.381 286.655 119.521 286.67C119.661 286.686 119.784 286.706 119.89 286.733V288.881C119.777 288.847 119.62 288.816 119.419 288.79C119.218 288.763 119.034 288.75 118.868 288.75C118.512 288.75 118.193 288.828 117.913 288.983C117.637 289.134 117.417 289.347 117.254 289.619C117.095 289.892 117.015 290.206 117.015 290.562V295.5H114.595ZM128.483 295.659C127.635 295.659 126.879 295.513 126.216 295.222C125.557 294.926 125.036 294.521 124.654 294.006C124.275 293.487 124.08 292.888 124.069 292.21H126.546C126.561 292.494 126.654 292.744 126.824 292.96C126.999 293.172 127.23 293.337 127.517 293.455C127.805 293.572 128.129 293.631 128.489 293.631C128.864 293.631 129.196 293.564 129.483 293.432C129.771 293.299 129.997 293.116 130.16 292.881C130.322 292.646 130.404 292.375 130.404 292.068C130.404 291.758 130.317 291.483 130.142 291.244C129.972 291.002 129.726 290.812 129.404 290.676C129.086 290.54 128.707 290.472 128.267 290.472H127.182V288.665H128.267C128.639 288.665 128.966 288.6 129.25 288.472C129.538 288.343 129.762 288.165 129.921 287.938C130.08 287.706 130.16 287.438 130.16 287.131C130.16 286.839 130.089 286.583 129.949 286.364C129.813 286.14 129.62 285.966 129.37 285.841C129.124 285.716 128.836 285.653 128.506 285.653C128.173 285.653 127.868 285.714 127.591 285.835C127.315 285.953 127.093 286.121 126.927 286.341C126.76 286.561 126.671 286.818 126.66 287.114H124.302C124.313 286.443 124.504 285.852 124.875 285.341C125.247 284.83 125.747 284.43 126.375 284.142C127.008 283.85 127.722 283.705 128.517 283.705C129.321 283.705 130.023 283.85 130.625 284.142C131.228 284.434 131.696 284.828 132.029 285.324C132.366 285.816 132.533 286.369 132.529 286.983C132.533 287.634 132.33 288.178 131.921 288.614C131.516 289.049 130.987 289.326 130.336 289.443V289.534C131.192 289.644 131.843 289.941 132.29 290.426C132.741 290.907 132.964 291.509 132.961 292.233C132.964 292.896 132.773 293.485 132.387 294C132.004 294.515 131.476 294.92 130.802 295.216C130.127 295.511 129.355 295.659 128.483 295.659ZM138.71 295.659C137.862 295.659 137.106 295.513 136.443 295.222C135.784 294.926 135.263 294.521 134.881 294.006C134.502 293.487 134.307 292.888 134.295 292.21H136.773C136.788 292.494 136.881 292.744 137.051 292.96C137.225 293.172 137.456 293.337 137.744 293.455C138.032 293.572 138.356 293.631 138.716 293.631C139.091 293.631 139.422 293.564 139.71 293.432C139.998 293.299 140.224 293.116 140.386 292.881C140.549 292.646 140.631 292.375 140.631 292.068C140.631 291.758 140.544 291.483 140.369 291.244C140.199 291.002 139.953 290.812 139.631 290.676C139.313 290.54 138.934 290.472 138.494 290.472H137.409V288.665H138.494C138.866 288.665 139.193 288.6 139.477 288.472C139.765 288.343 139.989 288.165 140.148 287.938C140.307 287.706 140.386 287.438 140.386 287.131C140.386 286.839 140.316 286.583 140.176 286.364C140.04 286.14 139.847 285.966 139.597 285.841C139.35 285.716 139.063 285.653 138.733 285.653C138.4 285.653 138.095 285.714 137.818 285.835C137.542 285.953 137.32 286.121 137.153 286.341C136.987 286.561 136.898 286.818 136.886 287.114H134.528C134.54 286.443 134.731 285.852 135.102 285.341C135.474 284.83 135.974 284.43 136.602 284.142C137.235 283.85 137.949 283.705 138.744 283.705C139.547 283.705 140.25 283.85 140.852 284.142C141.455 284.434 141.922 284.828 142.256 285.324C142.593 285.816 142.76 286.369 142.756 286.983C142.76 287.634 142.557 288.178 142.148 288.614C141.742 289.049 141.214 289.326 140.563 289.443V289.534C141.419 289.644 142.07 289.941 142.517 290.426C142.968 290.907 143.191 291.509 143.188 292.233C143.191 292.896 143 293.485 142.614 294C142.231 294.515 141.703 294.92 141.028 295.216C140.354 295.511 139.581 295.659 138.71 295.659ZM145.745 295.648C145.37 295.648 145.048 295.515 144.779 295.25C144.514 294.981 144.382 294.659 144.382 294.284C144.382 293.913 144.514 293.595 144.779 293.33C145.048 293.064 145.37 292.932 145.745 292.932C146.109 292.932 146.427 293.064 146.7 293.33C146.973 293.595 147.109 293.913 147.109 294.284C147.109 294.534 147.045 294.763 146.916 294.972C146.791 295.176 146.626 295.341 146.422 295.466C146.217 295.587 145.992 295.648 145.745 295.648ZM152.91 295.659C152.107 295.659 151.391 295.511 150.762 295.216C150.137 294.92 149.641 294.513 149.273 293.994C148.906 293.475 148.715 292.881 148.7 292.21H151.086C151.112 292.661 151.302 293.027 151.654 293.307C152.006 293.587 152.425 293.727 152.91 293.727C153.296 293.727 153.637 293.642 153.932 293.472C154.232 293.297 154.465 293.057 154.631 292.75C154.802 292.439 154.887 292.083 154.887 291.682C154.887 291.273 154.8 290.913 154.626 290.602C154.455 290.292 154.218 290.049 153.915 289.875C153.612 289.701 153.266 289.612 152.876 289.608C152.535 289.608 152.203 289.678 151.881 289.818C151.563 289.958 151.315 290.15 151.137 290.392L148.95 290L149.501 283.864H156.614V285.875H151.529L151.228 288.79H151.296C151.501 288.502 151.809 288.263 152.222 288.074C152.635 287.884 153.097 287.79 153.609 287.79C154.309 287.79 154.934 287.955 155.484 288.284C156.033 288.614 156.467 289.066 156.785 289.642C157.103 290.214 157.26 290.873 157.256 291.619C157.26 292.403 157.078 293.1 156.711 293.71C156.347 294.316 155.838 294.794 155.182 295.142C154.531 295.487 153.773 295.659 152.91 295.659ZM162.862 283.705C163.461 283.705 164.037 283.805 164.59 284.006C165.147 284.206 165.643 284.527 166.078 284.966C166.518 285.405 166.864 285.989 167.118 286.716C167.376 287.439 167.506 288.328 167.51 289.381C167.51 290.369 167.398 291.252 167.175 292.028C166.955 292.801 166.639 293.458 166.226 294C165.813 294.542 165.315 294.955 164.732 295.239C164.148 295.519 163.497 295.659 162.777 295.659C162.001 295.659 161.315 295.509 160.72 295.21C160.126 294.907 159.647 294.496 159.283 293.977C158.923 293.455 158.705 292.867 158.63 292.216H161.056C161.15 292.64 161.349 292.97 161.652 293.205C161.955 293.436 162.33 293.551 162.777 293.551C163.535 293.551 164.111 293.222 164.505 292.562C164.898 291.9 165.097 290.992 165.101 289.841H165.022C164.847 290.182 164.612 290.475 164.317 290.722C164.022 290.964 163.683 291.152 163.3 291.284C162.921 291.417 162.518 291.483 162.09 291.483C161.404 291.483 160.792 291.322 160.255 291C159.717 290.678 159.292 290.235 158.982 289.67C158.671 289.106 158.516 288.462 158.516 287.739C158.512 286.958 158.692 286.263 159.056 285.653C159.419 285.044 159.927 284.566 160.578 284.222C161.234 283.873 161.995 283.701 162.862 283.705ZM162.88 285.636C162.497 285.636 162.156 285.727 161.857 285.909C161.561 286.091 161.326 286.335 161.152 286.642C160.982 286.949 160.898 287.292 160.902 287.67C160.902 288.053 160.986 288.398 161.152 288.705C161.323 289.008 161.554 289.25 161.845 289.432C162.141 289.61 162.478 289.699 162.857 289.699C163.141 289.699 163.404 289.646 163.647 289.54C163.889 289.434 164.099 289.288 164.277 289.102C164.459 288.913 164.601 288.695 164.703 288.449C164.806 288.203 164.857 287.941 164.857 287.665C164.853 287.297 164.766 286.96 164.595 286.653C164.425 286.347 164.19 286.1 163.891 285.915C163.592 285.729 163.255 285.636 162.88 285.636Z" fill="#242424"/>
<g clip-path="url(#clip0_87_3703)">
<rect x="178.5" y="285" width="10" height="11" fill="white"/>
<path d="M183.5 281C178.53 281 174.5 285.03 174.5 290C174.5 294.97 178.53 299 183.5 299C188.47 299 192.5 294.97 192.5 290C192.5 285.03 188.47 281 183.5 281ZM180.426 286.023H186.573C187.702 286.023 188.42 287.244 187.852 288.228L184.058 294.802C184.001 294.899 183.92 294.98 183.822 295.037C183.724 295.093 183.613 295.123 183.5 295.123C183.387 295.123 183.276 295.093 183.178 295.037C183.08 294.98 182.999 294.899 182.942 294.802L179.149 288.228C178.581 287.242 179.297 286.023 180.426 286.023ZM184.06 287.145V292.83L184.886 291.234L186.878 287.667C186.909 287.613 186.924 287.553 186.924 287.492C186.924 287.43 186.907 287.37 186.876 287.317C186.845 287.264 186.801 287.22 186.747 287.19C186.694 287.16 186.633 287.144 186.572 287.145H184.06ZM180.425 287.146C180.364 287.146 180.303 287.161 180.25 287.191C180.197 287.221 180.152 287.265 180.121 287.318C180.09 287.371 180.074 287.431 180.073 287.492C180.073 287.553 180.089 287.614 180.119 287.667L182.112 291.232L182.939 292.83V287.146H180.425Z" fill="#0077FF"/>
</g>
<path d="M250 288C250 274.745 260.745 264 274 264H349C362.255 264 373 274.745 373 288V292C373 305.255 362.255 316 349 316H274C260.745 316 250 305.255 250 292V288Z" fill="#C4FF00" fill-opacity="0.1"/>
<path d="M296.278 287.938H293.79C293.744 287.616 293.652 287.33 293.511 287.08C293.371 286.826 293.191 286.61 292.972 286.432C292.752 286.254 292.498 286.117 292.21 286.023C291.926 285.928 291.617 285.881 291.284 285.881C290.682 285.881 290.157 286.03 289.71 286.33C289.263 286.625 288.917 287.057 288.67 287.625C288.424 288.189 288.301 288.875 288.301 289.682C288.301 290.511 288.424 291.208 288.67 291.773C288.92 292.337 289.269 292.763 289.716 293.051C290.163 293.339 290.68 293.483 291.267 293.483C291.597 293.483 291.902 293.439 292.182 293.352C292.466 293.265 292.718 293.138 292.938 292.972C293.157 292.801 293.339 292.595 293.483 292.352C293.631 292.11 293.733 291.833 293.79 291.523L296.278 291.534C296.214 292.068 296.053 292.583 295.795 293.08C295.542 293.572 295.199 294.013 294.767 294.403C294.339 294.79 293.828 295.097 293.233 295.324C292.642 295.547 291.973 295.659 291.227 295.659C290.189 295.659 289.261 295.424 288.443 294.955C287.629 294.485 286.985 293.805 286.511 292.915C286.042 292.025 285.807 290.947 285.807 289.682C285.807 288.413 286.045 287.333 286.523 286.443C287 285.553 287.648 284.875 288.466 284.409C289.284 283.939 290.205 283.705 291.227 283.705C291.902 283.705 292.527 283.799 293.102 283.989C293.682 284.178 294.195 284.455 294.642 284.818C295.089 285.178 295.453 285.619 295.733 286.142C296.017 286.665 296.199 287.263 296.278 287.938ZM300.166 295.665C299.609 295.665 299.113 295.568 298.677 295.375C298.242 295.178 297.897 294.888 297.643 294.506C297.393 294.119 297.268 293.638 297.268 293.062C297.268 292.578 297.357 292.17 297.535 291.841C297.713 291.511 297.956 291.246 298.262 291.045C298.569 290.845 298.918 290.693 299.308 290.591C299.702 290.489 300.115 290.417 300.546 290.375C301.054 290.322 301.463 290.273 301.774 290.227C302.084 290.178 302.31 290.106 302.45 290.011C302.59 289.917 302.66 289.777 302.66 289.591V289.557C302.66 289.197 302.546 288.919 302.319 288.722C302.096 288.525 301.778 288.426 301.365 288.426C300.929 288.426 300.582 288.523 300.325 288.716C300.067 288.905 299.897 289.144 299.814 289.432L297.575 289.25C297.689 288.72 297.912 288.261 298.245 287.875C298.579 287.485 299.009 287.186 299.535 286.977C300.065 286.765 300.679 286.659 301.376 286.659C301.861 286.659 302.325 286.716 302.768 286.83C303.215 286.943 303.611 287.119 303.956 287.358C304.304 287.597 304.579 287.903 304.779 288.278C304.98 288.65 305.081 289.095 305.081 289.614V295.5H302.785V294.29H302.717C302.577 294.562 302.389 294.803 302.154 295.011C301.92 295.216 301.637 295.377 301.308 295.494C300.978 295.608 300.598 295.665 300.166 295.665ZM300.859 293.994C301.215 293.994 301.529 293.924 301.802 293.784C302.075 293.64 302.289 293.447 302.444 293.205C302.6 292.962 302.677 292.687 302.677 292.381V291.455C302.601 291.504 302.497 291.549 302.365 291.591C302.236 291.629 302.09 291.665 301.927 291.699C301.764 291.729 301.601 291.758 301.439 291.784C301.276 291.807 301.128 291.828 300.995 291.847C300.711 291.888 300.463 291.955 300.251 292.045C300.039 292.136 299.874 292.259 299.757 292.415C299.639 292.566 299.581 292.756 299.581 292.983C299.581 293.312 299.7 293.564 299.939 293.739C300.181 293.909 300.488 293.994 300.859 293.994ZM309.059 290.455V295.5H306.638V286.773H308.945V288.312H309.048C309.241 287.805 309.565 287.403 310.019 287.108C310.474 286.809 311.025 286.659 311.673 286.659C312.279 286.659 312.807 286.792 313.258 287.057C313.708 287.322 314.059 287.701 314.309 288.193C314.559 288.682 314.684 289.265 314.684 289.943V295.5H312.263V290.375C312.267 289.841 312.131 289.424 311.854 289.125C311.578 288.822 311.197 288.67 310.712 288.67C310.387 288.67 310.099 288.741 309.849 288.881C309.602 289.021 309.409 289.225 309.269 289.494C309.133 289.759 309.063 290.08 309.059 290.455ZM320.215 295.67C319.321 295.67 318.552 295.481 317.908 295.102C317.268 294.72 316.775 294.189 316.431 293.511C316.09 292.833 315.919 292.053 315.919 291.17C315.919 290.277 316.092 289.492 316.436 288.818C316.785 288.14 317.279 287.612 317.919 287.233C318.559 286.85 319.321 286.659 320.203 286.659C320.965 286.659 321.631 286.797 322.203 287.074C322.775 287.35 323.228 287.739 323.561 288.239C323.895 288.739 324.078 289.326 324.112 290H321.828C321.764 289.564 321.594 289.214 321.317 288.949C321.044 288.68 320.686 288.545 320.243 288.545C319.868 288.545 319.54 288.648 319.26 288.852C318.984 289.053 318.768 289.347 318.612 289.733C318.457 290.119 318.379 290.587 318.379 291.136C318.379 291.693 318.455 292.167 318.607 292.557C318.762 292.947 318.98 293.244 319.26 293.449C319.54 293.653 319.868 293.756 320.243 293.756C320.52 293.756 320.768 293.699 320.987 293.585C321.211 293.472 321.395 293.307 321.539 293.091C321.686 292.871 321.783 292.608 321.828 292.301H324.112C324.075 292.968 323.893 293.555 323.567 294.062C323.245 294.566 322.8 294.96 322.232 295.244C321.664 295.528 320.991 295.67 320.215 295.67ZM329.319 295.67C328.422 295.67 327.649 295.489 327.001 295.125C326.357 294.758 325.861 294.239 325.513 293.568C325.164 292.894 324.99 292.097 324.99 291.176C324.99 290.278 325.164 289.491 325.513 288.812C325.861 288.134 326.352 287.606 326.984 287.227C327.621 286.848 328.367 286.659 329.223 286.659C329.799 286.659 330.335 286.752 330.831 286.938C331.331 287.119 331.766 287.394 332.138 287.761C332.513 288.129 332.804 288.591 333.013 289.148C333.221 289.701 333.325 290.348 333.325 291.091V291.756H325.956V290.256H331.047C331.047 289.907 330.971 289.598 330.819 289.33C330.668 289.061 330.458 288.85 330.189 288.699C329.924 288.544 329.615 288.466 329.263 288.466C328.895 288.466 328.569 288.551 328.285 288.722C328.005 288.888 327.785 289.114 327.626 289.398C327.467 289.678 327.386 289.991 327.382 290.335V291.761C327.382 292.193 327.461 292.566 327.621 292.881C327.783 293.195 328.013 293.438 328.308 293.608C328.604 293.778 328.954 293.864 329.359 293.864C329.628 293.864 329.874 293.826 330.098 293.75C330.321 293.674 330.513 293.561 330.672 293.409C330.831 293.258 330.952 293.072 331.035 292.852L333.274 293C333.16 293.538 332.927 294.008 332.575 294.409C332.227 294.807 331.776 295.117 331.223 295.341C330.674 295.561 330.039 295.67 329.319 295.67ZM337.005 283.864V295.5H334.585V283.864H337.005Z" fill="#C4FF00"/>
<rect x="157" y="24" width="76" height="3" rx="1.5" fill="#1A1A20"/>
<defs>
<clipPath id="clip0_87_3703">
<rect width="18" height="18" fill="white" transform="translate(174.5 281)"/>
</clipPath>
</defs>
</svg>
