<svg width="390" height="355" viewBox="0 0 390 355" fill="none" xmlns="http://www.w3.org/2000/svg">
<path d="M0 24C0 10.7452 10.7452 0 24 0H366C379.255 0 390 10.7452 390 24V355H0V24Z" fill="#15151A"/>
<path opacity="0.5" d="M103.757 189.455V190.648H99.9939V189.455H103.757ZM100.923 187.886H102.466V194.031C102.466 194.239 102.497 194.398 102.559 194.509C102.625 194.616 102.71 194.69 102.815 194.73C102.92 194.77 103.037 194.79 103.164 194.79C103.261 194.79 103.349 194.783 103.429 194.768C103.511 194.754 103.573 194.741 103.616 194.73L103.876 195.936C103.794 195.964 103.676 195.996 103.522 196.03C103.372 196.064 103.187 196.084 102.968 196.089C102.582 196.101 102.234 196.043 101.924 195.915C101.615 195.784 101.369 195.582 101.187 195.31C101.008 195.037 100.92 194.696 100.923 194.287V187.886ZM107.634 196.128C106.978 196.128 106.411 195.991 105.934 195.719C105.46 195.443 105.094 195.054 104.839 194.551C104.583 194.045 104.455 193.45 104.455 192.766C104.455 192.092 104.583 191.501 104.839 190.993C105.097 190.482 105.458 190.084 105.921 189.8C106.384 189.513 106.928 189.369 107.553 189.369C107.957 189.369 108.337 189.435 108.695 189.565C109.056 189.693 109.374 189.892 109.65 190.162C109.928 190.432 110.147 190.776 110.306 191.193C110.465 191.608 110.545 192.102 110.545 192.676V193.149H105.18V192.109H109.066C109.063 191.814 108.999 191.551 108.874 191.321C108.749 191.088 108.575 190.905 108.35 190.771C108.129 190.638 107.87 190.571 107.575 190.571C107.259 190.571 106.982 190.648 106.744 190.801C106.505 190.952 106.319 191.151 106.185 191.398C106.055 191.642 105.988 191.911 105.985 192.203V193.111C105.985 193.491 106.055 193.818 106.194 194.091C106.333 194.361 106.528 194.568 106.778 194.713C107.028 194.855 107.32 194.926 107.656 194.926C107.88 194.926 108.083 194.895 108.265 194.832C108.447 194.767 108.604 194.672 108.738 194.547C108.871 194.422 108.972 194.267 109.04 194.082L110.481 194.244C110.39 194.625 110.217 194.957 109.961 195.241C109.708 195.523 109.384 195.741 108.989 195.898C108.594 196.051 108.143 196.128 107.634 196.128ZM112.731 189.455L114.052 191.871L115.394 189.455H117.026L115.053 192.727L117.06 196H115.437L114.052 193.643L112.679 196H111.043L113.037 192.727L111.094 189.455H112.731ZM121.248 189.455V190.648H117.485V189.455H121.248ZM118.414 187.886H119.956V194.031C119.956 194.239 119.988 194.398 120.05 194.509C120.116 194.616 120.201 194.69 120.306 194.73C120.411 194.77 120.527 194.79 120.655 194.79C120.752 194.79 120.84 194.783 120.92 194.768C121.002 194.754 121.064 194.741 121.107 194.73L121.367 195.936C121.285 195.964 121.167 195.996 121.013 196.03C120.863 196.064 120.678 196.084 120.459 196.089C120.073 196.101 119.725 196.043 119.415 195.915C119.106 195.784 118.86 195.582 118.678 195.31C118.499 195.037 118.411 194.696 118.414 194.287V187.886ZM128.303 189.455V190.648H124.54V189.455H128.303ZM125.469 187.886H127.012V194.031C127.012 194.239 127.043 194.398 127.105 194.509C127.171 194.616 127.256 194.69 127.361 194.73C127.466 194.77 127.583 194.79 127.71 194.79C127.807 194.79 127.895 194.783 127.975 194.768C128.057 194.754 128.12 194.741 128.162 194.73L128.422 195.936C128.34 195.964 128.222 195.996 128.068 196.03C127.918 196.064 127.733 196.084 127.514 196.089C127.128 196.101 126.78 196.043 126.47 195.915C126.161 195.784 125.915 195.582 125.733 195.31C125.554 195.037 125.466 194.696 125.469 194.287V187.886ZM132.18 196.128C131.524 196.128 130.957 195.991 130.48 195.719C130.006 195.443 129.641 195.054 129.385 194.551C129.129 194.045 129.001 193.45 129.001 192.766C129.001 192.092 129.129 191.501 129.385 190.993C129.643 190.482 130.004 190.084 130.467 189.8C130.93 189.513 131.474 189.369 132.099 189.369C132.503 189.369 132.883 189.435 133.241 189.565C133.602 189.693 133.92 189.892 134.196 190.162C134.474 190.432 134.693 190.776 134.852 191.193C135.011 191.608 135.091 192.102 135.091 192.676V193.149H129.726V192.109H133.612C133.609 191.814 133.545 191.551 133.42 191.321C133.295 191.088 133.121 190.905 132.896 190.771C132.675 190.638 132.416 190.571 132.121 190.571C131.805 190.571 131.528 190.648 131.29 190.801C131.051 190.952 130.865 191.151 130.731 191.398C130.601 191.642 130.534 191.911 130.531 192.203V193.111C130.531 193.491 130.601 193.818 130.74 194.091C130.879 194.361 131.074 194.568 131.324 194.713C131.574 194.855 131.866 194.926 132.202 194.926C132.426 194.926 132.629 194.895 132.811 194.832C132.993 194.767 133.151 194.672 133.284 194.547C133.418 194.422 133.518 194.267 133.587 194.082L135.027 194.244C134.936 194.625 134.763 194.957 134.507 195.241C134.254 195.523 133.93 195.741 133.535 195.898C133.141 196.051 132.689 196.128 132.18 196.128ZM137.277 189.455L138.598 191.871L139.94 189.455H141.572L139.599 192.727L141.606 196H139.983L138.598 193.643L137.225 196H135.589L137.583 192.727L135.64 189.455H137.277ZM145.794 189.455V190.648H142.031V189.455H145.794ZM142.96 187.886H144.503V194.031C144.503 194.239 144.534 194.398 144.596 194.509C144.662 194.616 144.747 194.69 144.852 194.73C144.957 194.77 145.074 194.79 145.201 194.79C145.298 194.79 145.386 194.783 145.466 194.768C145.548 194.754 145.61 194.741 145.653 194.73L145.913 195.936C145.831 195.964 145.713 195.996 145.559 196.03C145.409 196.064 145.224 196.084 145.005 196.089C144.619 196.101 144.271 196.043 143.961 195.915C143.652 195.784 143.406 195.582 143.224 195.31C143.045 195.037 142.957 194.696 142.96 194.287V187.886ZM152.849 189.455V190.648H149.086V189.455H152.849ZM150.015 187.886H151.558V194.031C151.558 194.239 151.589 194.398 151.651 194.509C151.717 194.616 151.802 194.69 151.907 194.73C152.012 194.77 152.129 194.79 152.257 194.79C152.353 194.79 152.441 194.783 152.521 194.768C152.603 194.754 152.666 194.741 152.708 194.73L152.968 195.936C152.886 195.964 152.768 195.996 152.615 196.03C152.464 196.064 152.279 196.084 152.061 196.089C151.674 196.101 151.326 196.043 151.017 195.915C150.707 195.784 150.461 195.582 150.279 195.31C150.1 195.037 150.012 194.696 150.015 194.287V187.886ZM156.726 196.128C156.07 196.128 155.503 195.991 155.026 195.719C154.552 195.443 154.187 195.054 153.931 194.551C153.675 194.045 153.547 193.45 153.547 192.766C153.547 192.092 153.675 191.501 153.931 190.993C154.19 190.482 154.55 190.084 155.013 189.8C155.476 189.513 156.02 189.369 156.645 189.369C157.049 189.369 157.43 189.435 157.788 189.565C158.148 189.693 158.466 189.892 158.742 190.162C159.02 190.432 159.239 190.776 159.398 191.193C159.557 191.608 159.637 192.102 159.637 192.676V193.149H154.272V192.109H158.158C158.155 191.814 158.091 191.551 157.966 191.321C157.841 191.088 157.667 190.905 157.442 190.771C157.221 190.638 156.962 190.571 156.667 190.571C156.351 190.571 156.074 190.648 155.836 190.801C155.597 190.952 155.411 191.151 155.278 191.398C155.147 191.642 155.08 191.911 155.077 192.203V193.111C155.077 193.491 155.147 193.818 155.286 194.091C155.425 194.361 155.62 194.568 155.87 194.713C156.12 194.855 156.413 194.926 156.748 194.926C156.972 194.926 157.175 194.895 157.357 194.832C157.539 194.767 157.697 194.672 157.83 194.547C157.964 194.422 158.065 194.267 158.133 194.082L159.573 194.244C159.482 194.625 159.309 194.957 159.053 195.241C158.8 195.523 158.476 195.741 158.082 195.898C157.687 196.051 157.235 196.128 156.726 196.128ZM161.823 189.455L163.144 191.871L164.486 189.455H166.118L164.145 192.727L166.152 196H164.529L163.144 193.643L161.772 196H160.135L162.13 192.727L160.186 189.455H161.823ZM170.34 189.455V190.648H166.577V189.455H170.34ZM167.506 187.886H169.049V194.031C169.049 194.239 169.08 194.398 169.142 194.509C169.208 194.616 169.293 194.69 169.398 194.73C169.503 194.77 169.62 194.79 169.747 194.79C169.844 194.79 169.932 194.783 170.012 194.768C170.094 194.754 170.157 194.741 170.199 194.73L170.459 195.936C170.377 195.964 170.259 195.996 170.105 196.03C169.955 196.064 169.77 196.084 169.551 196.089C169.165 196.101 168.817 196.043 168.507 195.915C168.198 195.784 167.952 195.582 167.77 195.31C167.591 195.037 167.503 194.696 167.506 194.287V187.886ZM177.395 189.455V190.648H173.632V189.455H177.395ZM174.561 187.886H176.104V194.031C176.104 194.239 176.135 194.398 176.198 194.509C176.263 194.616 176.348 194.69 176.453 194.73C176.558 194.77 176.675 194.79 176.803 194.79C176.899 194.79 176.987 194.783 177.067 194.768C177.149 194.754 177.212 194.741 177.254 194.73L177.514 195.936C177.432 195.964 177.314 195.996 177.161 196.03C177.01 196.064 176.825 196.084 176.607 196.089C176.22 196.101 175.872 196.043 175.563 195.915C175.253 195.784 175.007 195.582 174.825 195.31C174.646 195.037 174.558 194.696 174.561 194.287V187.886ZM181.273 196.128C180.616 196.128 180.05 195.991 179.572 195.719C179.098 195.443 178.733 195.054 178.477 194.551C178.221 194.045 178.094 193.45 178.094 192.766C178.094 192.092 178.221 191.501 178.477 190.993C178.736 190.482 179.096 190.084 179.559 189.8C180.023 189.513 180.567 189.369 181.192 189.369C181.595 189.369 181.976 189.435 182.334 189.565C182.694 189.693 183.013 189.892 183.288 190.162C183.567 190.432 183.785 190.776 183.944 191.193C184.103 191.608 184.183 192.102 184.183 192.676V193.149H178.818V192.109H182.704C182.702 191.814 182.638 191.551 182.513 191.321C182.388 191.088 182.213 190.905 181.988 190.771C181.767 190.638 181.508 190.571 181.213 190.571C180.898 190.571 180.621 190.648 180.382 190.801C180.143 190.952 179.957 191.151 179.824 191.398C179.693 191.642 179.626 191.911 179.623 192.203V193.111C179.623 193.491 179.693 193.818 179.832 194.091C179.971 194.361 180.166 194.568 180.416 194.713C180.666 194.855 180.959 194.926 181.294 194.926C181.518 194.926 181.721 194.895 181.903 194.832C182.085 194.767 182.243 194.672 182.376 194.547C182.51 194.422 182.611 194.267 182.679 194.082L184.119 194.244C184.028 194.625 183.855 194.957 183.599 195.241C183.346 195.523 183.023 195.741 182.628 195.898C182.233 196.051 181.781 196.128 181.273 196.128ZM186.369 189.455L187.69 191.871L189.032 189.455H190.664L188.691 192.727L190.698 196H189.075L187.69 193.643L186.318 196H184.681L186.676 192.727L184.732 189.455H186.369ZM194.886 189.455V190.648H191.123V189.455H194.886ZM192.052 187.886H193.595V194.031C193.595 194.239 193.626 194.398 193.688 194.509C193.754 194.616 193.839 194.69 193.944 194.73C194.049 194.77 194.166 194.79 194.294 194.79C194.39 194.79 194.478 194.783 194.558 194.768C194.64 194.754 194.703 194.741 194.745 194.73L195.005 195.936C194.923 195.964 194.805 195.996 194.652 196.03C194.501 196.064 194.316 196.084 194.098 196.089C193.711 196.101 193.363 196.043 193.054 195.915C192.744 195.784 192.498 195.582 192.316 195.31C192.137 195.037 192.049 194.696 192.052 194.287V187.886ZM201.941 189.455V190.648H198.178V189.455H201.941ZM199.107 187.886H200.65V194.031C200.65 194.239 200.681 194.398 200.744 194.509C200.809 194.616 200.894 194.69 200.999 194.73C201.104 194.77 201.221 194.79 201.349 194.79C201.445 194.79 201.533 194.783 201.613 194.768C201.695 194.754 201.758 194.741 201.8 194.73L202.06 195.936C201.978 195.964 201.86 195.996 201.707 196.03C201.556 196.064 201.371 196.084 201.153 196.089C200.766 196.101 200.418 196.043 200.109 195.915C199.799 195.784 199.553 195.582 199.371 195.31C199.192 195.037 199.104 194.696 199.107 194.287V187.886ZM205.819 196.128C205.162 196.128 204.596 195.991 204.118 195.719C203.644 195.443 203.279 195.054 203.023 194.551C202.767 194.045 202.64 193.45 202.64 192.766C202.64 192.092 202.767 191.501 203.023 190.993C203.282 190.482 203.642 190.084 204.106 189.8C204.569 189.513 205.113 189.369 205.738 189.369C206.141 189.369 206.522 189.435 206.88 189.565C207.24 189.693 207.559 189.892 207.834 190.162C208.113 190.432 208.331 190.776 208.49 191.193C208.65 191.608 208.729 192.102 208.729 192.676V193.149H203.364V192.109H207.25C207.248 191.814 207.184 191.551 207.059 191.321C206.934 191.088 206.759 190.905 206.535 190.771C206.313 190.638 206.054 190.571 205.759 190.571C205.444 190.571 205.167 190.648 204.928 190.801C204.689 190.952 204.503 191.151 204.37 191.398C204.239 191.642 204.172 191.911 204.169 192.203V193.111C204.169 193.491 204.239 193.818 204.378 194.091C204.517 194.361 204.712 194.568 204.962 194.713C205.212 194.855 205.505 194.926 205.84 194.926C206.064 194.926 206.267 194.895 206.449 194.832C206.631 194.767 206.789 194.672 206.922 194.547C207.056 194.422 207.157 194.267 207.225 194.082L208.665 194.244C208.574 194.625 208.401 194.957 208.145 195.241C207.892 195.523 207.569 195.741 207.174 195.898C206.779 196.051 206.327 196.128 205.819 196.128ZM210.915 189.455L212.236 191.871L213.578 189.455H215.21L213.237 192.727L215.244 196H213.621L212.236 193.643L210.864 196H209.227L211.222 192.727L209.279 189.455H210.915ZM219.432 189.455V190.648H215.669V189.455H219.432ZM216.598 187.886H218.141V194.031C218.141 194.239 218.172 194.398 218.235 194.509C218.3 194.616 218.385 194.69 218.49 194.73C218.595 194.77 218.712 194.79 218.84 194.79C218.936 194.79 219.024 194.783 219.104 194.768C219.186 194.754 219.249 194.741 219.291 194.73L219.551 195.936C219.469 195.964 219.351 195.996 219.198 196.03C219.047 196.064 218.862 196.084 218.644 196.089C218.257 196.101 217.909 196.043 217.6 195.915C217.29 195.784 217.044 195.582 216.862 195.31C216.683 195.037 216.595 194.696 216.598 194.287V187.886ZM226.487 189.455V190.648H222.724V189.455H226.487ZM223.653 187.886H225.196V194.031C225.196 194.239 225.227 194.398 225.29 194.509C225.355 194.616 225.44 194.69 225.545 194.73C225.651 194.77 225.767 194.79 225.895 194.79C225.991 194.79 226.08 194.783 226.159 194.768C226.241 194.754 226.304 194.741 226.347 194.73L226.606 195.936C226.524 195.964 226.406 195.996 226.253 196.03C226.102 196.064 225.918 196.084 225.699 196.089C225.312 196.101 224.964 196.043 224.655 195.915C224.345 195.784 224.099 195.582 223.918 195.31C223.739 195.037 223.651 194.696 223.653 194.287V187.886ZM230.365 196.128C229.708 196.128 229.142 195.991 228.664 195.719C228.19 195.443 227.825 195.054 227.569 194.551C227.314 194.045 227.186 193.45 227.186 192.766C227.186 192.092 227.314 191.501 227.569 190.993C227.828 190.482 228.189 190.084 228.652 189.8C229.115 189.513 229.659 189.369 230.284 189.369C230.687 189.369 231.068 189.435 231.426 189.565C231.787 189.693 232.105 189.892 232.38 190.162C232.659 190.432 232.878 190.776 233.037 191.193C233.196 191.608 233.275 192.102 233.275 192.676V193.149H227.91V192.109H231.797C231.794 191.814 231.73 191.551 231.605 191.321C231.48 191.088 231.305 190.905 231.081 190.771C230.859 190.638 230.601 190.571 230.305 190.571C229.99 190.571 229.713 190.648 229.474 190.801C229.235 190.952 229.049 191.151 228.916 191.398C228.785 191.642 228.718 191.911 228.716 192.203V193.111C228.716 193.491 228.785 193.818 228.924 194.091C229.064 194.361 229.258 194.568 229.508 194.713C229.758 194.855 230.051 194.926 230.386 194.926C230.61 194.926 230.814 194.895 230.995 194.832C231.177 194.767 231.335 194.672 231.468 194.547C231.602 194.422 231.703 194.267 231.771 194.082L233.211 194.244C233.12 194.625 232.947 194.957 232.691 195.241C232.439 195.523 232.115 195.741 231.72 195.898C231.325 196.051 230.873 196.128 230.365 196.128ZM235.461 189.455L236.782 191.871L238.124 189.455H239.756L237.783 192.727L239.791 196H238.167L236.782 193.643L235.41 196H233.774L235.768 192.727L233.825 189.455H235.461ZM243.978 189.455V190.648H240.215V189.455H243.978ZM241.144 187.886H242.687V194.031C242.687 194.239 242.718 194.398 242.781 194.509C242.846 194.616 242.931 194.69 243.036 194.73C243.141 194.77 243.258 194.79 243.386 194.79C243.482 194.79 243.57 194.783 243.65 194.768C243.732 194.754 243.795 194.741 243.837 194.73L244.097 195.936C244.015 195.964 243.897 195.996 243.744 196.03C243.593 196.064 243.409 196.084 243.19 196.089C242.803 196.101 242.455 196.043 242.146 195.915C241.836 195.784 241.59 195.582 241.408 195.31C241.23 195.037 241.141 194.696 241.144 194.287V187.886ZM251.033 189.455V190.648H247.27V189.455H251.033ZM248.199 187.886H249.742V194.031C249.742 194.239 249.773 194.398 249.836 194.509C249.901 194.616 249.986 194.69 250.092 194.73C250.197 194.77 250.313 194.79 250.441 194.79C250.538 194.79 250.626 194.783 250.705 194.768C250.788 194.754 250.85 194.741 250.893 194.73L251.153 195.936C251.07 195.964 250.952 195.996 250.799 196.03C250.648 196.064 250.464 196.084 250.245 196.089C249.859 196.101 249.511 196.043 249.201 195.915C248.891 195.784 248.645 195.582 248.464 195.31C248.285 195.037 248.197 194.696 248.199 194.287V187.886ZM254.911 196.128C254.255 196.128 253.688 195.991 253.211 195.719C252.736 195.443 252.371 195.054 252.115 194.551C251.86 194.045 251.732 193.45 251.732 192.766C251.732 192.092 251.86 191.501 252.115 190.993C252.374 190.482 252.735 190.084 253.198 189.8C253.661 189.513 254.205 189.369 254.83 189.369C255.233 189.369 255.614 189.435 255.972 189.565C256.333 189.693 256.651 189.892 256.926 190.162C257.205 190.432 257.424 190.776 257.583 191.193C257.742 191.608 257.821 192.102 257.821 192.676V193.149H252.456V192.109H256.343C256.34 191.814 256.276 191.551 256.151 191.321C256.026 191.088 255.851 190.905 255.627 190.771C255.405 190.638 255.147 190.571 254.851 190.571C254.536 190.571 254.259 190.648 254.02 190.801C253.782 190.952 253.595 191.151 253.462 191.398C253.331 191.642 253.264 191.911 253.262 192.203V193.111C253.262 193.491 253.331 193.818 253.47 194.091C253.61 194.361 253.804 194.568 254.054 194.713C254.304 194.855 254.597 194.926 254.932 194.926C255.157 194.926 255.36 194.895 255.541 194.832C255.723 194.767 255.881 194.672 256.014 194.547C256.148 194.422 256.249 194.267 256.317 194.082L257.757 194.244C257.666 194.625 257.493 194.957 257.238 195.241C256.985 195.523 256.661 195.741 256.266 195.898C255.871 196.051 255.419 196.128 254.911 196.128ZM260.007 189.455L261.328 191.871L262.67 189.455H264.303L262.33 192.727L264.337 196H262.713L261.328 193.643L259.956 196H258.32L260.314 192.727L258.371 189.455H260.007ZM268.524 189.455V190.648H264.761V189.455H268.524ZM265.69 187.886H267.233V194.031C267.233 194.239 267.264 194.398 267.327 194.509C267.392 194.616 267.477 194.69 267.582 194.73C267.688 194.77 267.804 194.79 267.932 194.79C268.028 194.79 268.117 194.783 268.196 194.768C268.278 194.754 268.341 194.741 268.384 194.73L268.644 195.936C268.561 195.964 268.443 195.996 268.29 196.03C268.139 196.064 267.955 196.084 267.736 196.089C267.349 196.101 267.001 196.043 266.692 195.915C266.382 195.784 266.136 195.582 265.955 195.31C265.776 195.037 265.688 194.696 265.69 194.287V187.886ZM275.579 189.455V190.648H271.817V189.455H275.579ZM272.746 187.886H274.288V194.031C274.288 194.239 274.319 194.398 274.382 194.509C274.447 194.616 274.532 194.69 274.638 194.73C274.743 194.77 274.859 194.79 274.987 194.79C275.084 194.79 275.172 194.783 275.251 194.768C275.334 194.754 275.396 194.741 275.439 194.73L275.699 195.936C275.616 195.964 275.498 195.996 275.345 196.03C275.194 196.064 275.01 196.084 274.791 196.089C274.405 196.101 274.057 196.043 273.747 195.915C273.437 195.784 273.192 195.582 273.01 195.31C272.831 195.037 272.743 194.696 272.746 194.287V187.886ZM279.457 196.128C278.801 196.128 278.234 195.991 277.757 195.719C277.282 195.443 276.917 195.054 276.661 194.551C276.406 194.045 276.278 193.45 276.278 192.766C276.278 192.092 276.406 191.501 276.661 190.993C276.92 190.482 277.281 190.084 277.744 189.8C278.207 189.513 278.751 189.369 279.376 189.369C279.779 189.369 280.16 189.435 280.518 189.565C280.879 189.693 281.197 189.892 281.473 190.162C281.751 190.432 281.97 190.776 282.129 191.193C282.288 191.608 282.367 192.102 282.367 192.676V193.149H277.002V192.109H280.889C280.886 191.814 280.822 191.551 280.697 191.321C280.572 191.088 280.397 190.905 280.173 190.771C279.951 190.638 279.693 190.571 279.397 190.571C279.082 190.571 278.805 190.648 278.566 190.801C278.328 190.952 278.142 191.151 278.008 191.398C277.877 191.642 277.811 191.911 277.808 192.203V193.111C277.808 193.491 277.877 193.818 278.017 194.091C278.156 194.361 278.35 194.568 278.6 194.713C278.85 194.855 279.143 194.926 279.478 194.926C279.703 194.926 279.906 194.895 280.088 194.832C280.269 194.767 280.427 194.672 280.561 194.547C280.694 194.422 280.795 194.267 280.863 194.082L282.304 194.244C282.213 194.625 282.039 194.957 281.784 195.241C281.531 195.523 281.207 195.741 280.812 195.898C280.417 196.051 279.965 196.128 279.457 196.128ZM284.553 189.455L285.874 191.871L287.217 189.455H288.849L286.876 192.727L288.883 196H287.259L285.874 193.643L284.502 196H282.866L284.86 192.727L282.917 189.455H284.553ZM293.07 189.455V190.648H289.308V189.455H293.07ZM290.236 187.886H291.779V194.031C291.779 194.239 291.81 194.398 291.873 194.509C291.938 194.616 292.023 194.69 292.129 194.73C292.234 194.77 292.35 194.79 292.478 194.79C292.575 194.79 292.663 194.783 292.742 194.768C292.825 194.754 292.887 194.741 292.93 194.73L293.19 195.936C293.107 195.964 292.989 195.996 292.836 196.03C292.685 196.064 292.501 196.084 292.282 196.089C291.896 196.101 291.548 196.043 291.238 195.915C290.928 195.784 290.683 195.582 290.501 195.31C290.322 195.037 290.234 194.696 290.236 194.287V187.886ZM105.125 204.455V205.648H101.362V204.455H105.125ZM102.291 202.886H103.834V209.031C103.834 209.239 103.865 209.398 103.928 209.509C103.993 209.616 104.078 209.69 104.183 209.73C104.288 209.77 104.405 209.79 104.533 209.79C104.629 209.79 104.717 209.783 104.797 209.768C104.879 209.754 104.942 209.741 104.984 209.73L105.244 210.936C105.162 210.964 105.044 210.996 104.891 211.03C104.74 211.064 104.555 211.084 104.337 211.089C103.95 211.101 103.602 211.043 103.293 210.915C102.983 210.784 102.737 210.582 102.555 210.31C102.376 210.037 102.288 209.696 102.291 209.287V202.886ZM109.003 211.128C108.346 211.128 107.78 210.991 107.302 210.719C106.828 210.443 106.463 210.054 106.207 209.551C105.951 209.045 105.824 208.45 105.824 207.766C105.824 207.092 105.951 206.501 106.207 205.993C106.466 205.482 106.826 205.084 107.289 204.8C107.753 204.513 108.297 204.369 108.922 204.369C109.325 204.369 109.706 204.435 110.064 204.565C110.424 204.693 110.743 204.892 111.018 205.162C111.297 205.432 111.515 205.776 111.674 206.193C111.833 206.608 111.913 207.102 111.913 207.676V208.149H106.548V207.109H110.434C110.432 206.814 110.368 206.551 110.243 206.321C110.118 206.088 109.943 205.905 109.718 205.771C109.497 205.638 109.238 205.571 108.943 205.571C108.628 205.571 108.351 205.648 108.112 205.801C107.873 205.952 107.687 206.151 107.554 206.398C107.423 206.642 107.356 206.911 107.353 207.203V208.111C107.353 208.491 107.423 208.818 107.562 209.091C107.701 209.361 107.896 209.568 108.146 209.713C108.396 209.855 108.689 209.926 109.024 209.926C109.248 209.926 109.451 209.895 109.633 209.832C109.815 209.767 109.973 209.672 110.106 209.547C110.24 209.422 110.341 209.267 110.409 209.082L111.849 209.244C111.758 209.625 111.585 209.957 111.329 210.241C111.076 210.523 110.753 210.741 110.358 210.898C109.963 211.051 109.511 211.128 109.003 211.128ZM114.099 204.455L115.42 206.871L116.762 204.455H118.394L116.421 207.727L118.428 211H116.805L115.42 208.643L114.048 211H112.411L114.406 207.727L112.462 204.455H114.099ZM122.616 204.455V205.648H118.853V204.455H122.616ZM119.782 202.886H121.325V209.031C121.325 209.239 121.356 209.398 121.418 209.509C121.484 209.616 121.569 209.69 121.674 209.73C121.779 209.77 121.896 209.79 122.024 209.79C122.12 209.79 122.208 209.783 122.288 209.768C122.37 209.754 122.433 209.741 122.475 209.73L122.735 210.936C122.653 210.964 122.535 210.996 122.382 211.03C122.231 211.064 122.046 211.084 121.828 211.089C121.441 211.101 121.093 211.043 120.784 210.915C120.474 210.784 120.228 210.582 120.046 210.31C119.867 210.037 119.779 209.696 119.782 209.287V202.886ZM129.671 204.455V205.648H125.908V204.455H129.671ZM126.837 202.886H128.38V209.031C128.38 209.239 128.411 209.398 128.474 209.509C128.539 209.616 128.624 209.69 128.729 209.73C128.834 209.77 128.951 209.79 129.079 209.79C129.175 209.79 129.263 209.783 129.343 209.768C129.425 209.754 129.488 209.741 129.53 209.73L129.79 210.936C129.708 210.964 129.59 210.996 129.437 211.03C129.286 211.064 129.101 211.084 128.883 211.089C128.496 211.101 128.148 211.043 127.839 210.915C127.529 210.784 127.283 210.582 127.101 210.31C126.922 210.037 126.834 209.696 126.837 209.287V202.886ZM133.549 211.128C132.892 211.128 132.326 210.991 131.848 210.719C131.374 210.443 131.009 210.054 130.753 209.551C130.497 209.045 130.37 208.45 130.37 207.766C130.37 207.092 130.497 206.501 130.753 205.993C131.012 205.482 131.372 205.084 131.836 204.8C132.299 204.513 132.843 204.369 133.468 204.369C133.871 204.369 134.252 204.435 134.61 204.565C134.97 204.693 135.289 204.892 135.564 205.162C135.843 205.432 136.061 205.776 136.22 206.193C136.38 206.608 136.459 207.102 136.459 207.676V208.149H131.094V207.109H134.98C134.978 206.814 134.914 206.551 134.789 206.321C134.664 206.088 134.489 205.905 134.265 205.771C134.043 205.638 133.784 205.571 133.489 205.571C133.174 205.571 132.897 205.648 132.658 205.801C132.419 205.952 132.233 206.151 132.1 206.398C131.969 206.642 131.902 206.911 131.899 207.203V208.111C131.899 208.491 131.969 208.818 132.108 209.091C132.247 209.361 132.442 209.568 132.692 209.713C132.942 209.855 133.235 209.926 133.57 209.926C133.794 209.926 133.997 209.895 134.179 209.832C134.361 209.767 134.519 209.672 134.652 209.547C134.786 209.422 134.887 209.267 134.955 209.082L136.395 209.244C136.304 209.625 136.131 209.957 135.875 210.241C135.622 210.523 135.299 210.741 134.904 210.898C134.509 211.051 134.057 211.128 133.549 211.128ZM138.645 204.455L139.966 206.871L141.308 204.455H142.94L140.967 207.727L142.974 211H141.351L139.966 208.643L138.594 211H136.957L138.952 207.727L137.009 204.455H138.645ZM147.162 204.455V205.648H143.399V204.455H147.162ZM144.328 202.886H145.871V209.031C145.871 209.239 145.902 209.398 145.965 209.509C146.03 209.616 146.115 209.69 146.22 209.73C146.325 209.77 146.442 209.79 146.57 209.79C146.666 209.79 146.754 209.783 146.834 209.768C146.916 209.754 146.979 209.741 147.021 209.73L147.281 210.936C147.199 210.964 147.081 210.996 146.928 211.03C146.777 211.064 146.592 211.084 146.374 211.089C145.987 211.101 145.639 211.043 145.33 210.915C145.02 210.784 144.774 210.582 144.592 210.31C144.413 210.037 144.325 209.696 144.328 209.287V202.886ZM154.217 204.455V205.648H150.454V204.455H154.217ZM151.383 202.886H152.926V209.031C152.926 209.239 152.957 209.398 153.02 209.509C153.085 209.616 153.17 209.69 153.275 209.73C153.381 209.77 153.497 209.79 153.625 209.79C153.721 209.79 153.809 209.783 153.889 209.768C153.971 209.754 154.034 209.741 154.077 209.73L154.336 210.936C154.254 210.964 154.136 210.996 153.983 211.03C153.832 211.064 153.648 211.084 153.429 211.089C153.042 211.101 152.694 211.043 152.385 210.915C152.075 210.784 151.829 210.582 151.648 210.31C151.469 210.037 151.381 209.696 151.383 209.287V202.886ZM158.095 211.128C157.438 211.128 156.872 210.991 156.394 210.719C155.92 210.443 155.555 210.054 155.299 209.551C155.044 209.045 154.916 208.45 154.916 207.766C154.916 207.092 155.044 206.501 155.299 205.993C155.558 205.482 155.919 205.084 156.382 204.8C156.845 204.513 157.389 204.369 158.014 204.369C158.417 204.369 158.798 204.435 159.156 204.565C159.517 204.693 159.835 204.892 160.11 205.162C160.389 205.432 160.607 205.776 160.767 206.193C160.926 206.608 161.005 207.102 161.005 207.676V208.149H155.64V207.109H159.527C159.524 206.814 159.46 206.551 159.335 206.321C159.21 206.088 159.035 205.905 158.811 205.771C158.589 205.638 158.331 205.571 158.035 205.571C157.72 205.571 157.443 205.648 157.204 205.801C156.965 205.952 156.779 206.151 156.646 206.398C156.515 206.642 156.448 206.911 156.446 207.203V208.111C156.446 208.491 156.515 208.818 156.654 209.091C156.794 209.361 156.988 209.568 157.238 209.713C157.488 209.855 157.781 209.926 158.116 209.926C158.34 209.926 158.544 209.895 158.725 209.832C158.907 209.767 159.065 209.672 159.198 209.547C159.332 209.422 159.433 209.267 159.501 209.082L160.941 209.244C160.85 209.625 160.677 209.957 160.421 210.241C160.169 210.523 159.845 210.741 159.45 210.898C159.055 211.051 158.603 211.128 158.095 211.128ZM163.191 204.455L164.512 206.871L165.854 204.455H167.486L165.513 207.727L167.521 211H165.897L164.512 208.643L163.14 211H161.504L163.498 207.727L161.555 204.455H163.191ZM171.708 204.455V205.648H167.945V204.455H171.708ZM168.874 202.886H170.417V209.031C170.417 209.239 170.448 209.398 170.511 209.509C170.576 209.616 170.661 209.69 170.766 209.73C170.871 209.77 170.988 209.79 171.116 209.79C171.212 209.79 171.3 209.783 171.38 209.768C171.462 209.754 171.525 209.741 171.567 209.73L171.827 210.936C171.745 210.964 171.627 210.996 171.474 211.03C171.323 211.064 171.139 211.084 170.92 211.089C170.533 211.101 170.185 211.043 169.876 210.915C169.566 210.784 169.32 210.582 169.139 210.31C168.96 210.037 168.871 209.696 168.874 209.287V202.886ZM178.763 204.455V205.648H175V204.455H178.763ZM175.929 202.886H177.472V209.031C177.472 209.239 177.503 209.398 177.566 209.509C177.631 209.616 177.716 209.69 177.822 209.73C177.927 209.77 178.043 209.79 178.171 209.79C178.268 209.79 178.356 209.783 178.435 209.768C178.518 209.754 178.58 209.741 178.623 209.73L178.883 210.936C178.8 210.964 178.682 210.996 178.529 211.03C178.378 211.064 178.194 211.084 177.975 211.089C177.589 211.101 177.241 211.043 176.931 210.915C176.621 210.784 176.375 210.582 176.194 210.31C176.015 210.037 175.927 209.696 175.929 209.287V202.886ZM182.641 211.128C181.985 211.128 181.418 210.991 180.941 210.719C180.466 210.443 180.101 210.054 179.845 209.551C179.59 209.045 179.462 208.45 179.462 207.766C179.462 207.092 179.59 206.501 179.845 205.993C180.104 205.482 180.465 205.084 180.928 204.8C181.391 204.513 181.935 204.369 182.56 204.369C182.963 204.369 183.344 204.435 183.702 204.565C184.063 204.693 184.381 204.892 184.656 205.162C184.935 205.432 185.154 205.776 185.313 206.193C185.472 206.608 185.551 207.102 185.551 207.676V208.149H180.186V207.109H184.073C184.07 206.814 184.006 206.551 183.881 206.321C183.756 206.088 183.581 205.905 183.357 205.771C183.135 205.638 182.877 205.571 182.581 205.571C182.266 205.571 181.989 205.648 181.75 205.801C181.512 205.952 181.325 206.151 181.192 206.398C181.061 206.642 180.995 206.911 180.992 207.203V208.111C180.992 208.491 181.061 208.818 181.2 209.091C181.34 209.361 181.534 209.568 181.784 209.713C182.034 209.855 182.327 209.926 182.662 209.926C182.887 209.926 183.09 209.895 183.271 209.832C183.453 209.767 183.611 209.672 183.745 209.547C183.878 209.422 183.979 209.267 184.047 209.082L185.487 209.244C185.396 209.625 185.223 209.957 184.968 210.241C184.715 210.523 184.391 210.741 183.996 210.898C183.601 211.051 183.149 211.128 182.641 211.128ZM187.737 204.455L189.058 206.871L190.4 204.455H192.033L190.06 207.727L192.067 211H190.443L189.058 208.643L187.686 211H186.05L188.044 207.727L186.101 204.455H187.737ZM196.254 204.455V205.648H192.491V204.455H196.254ZM193.42 202.886H194.963V209.031C194.963 209.239 194.994 209.398 195.057 209.509C195.122 209.616 195.207 209.69 195.312 209.73C195.418 209.77 195.534 209.79 195.662 209.79C195.758 209.79 195.847 209.783 195.926 209.768C196.008 209.754 196.071 209.741 196.114 209.73L196.374 210.936C196.291 210.964 196.173 210.996 196.02 211.03C195.869 211.064 195.685 211.084 195.466 211.089C195.079 211.101 194.731 211.043 194.422 210.915C194.112 210.784 193.866 210.582 193.685 210.31C193.506 210.037 193.418 209.696 193.42 209.287V202.886ZM203.309 204.455V205.648H199.547V204.455H203.309ZM200.476 202.886H202.018V209.031C202.018 209.239 202.049 209.398 202.112 209.509C202.177 209.616 202.262 209.69 202.368 209.73C202.473 209.77 202.589 209.79 202.717 209.79C202.814 209.79 202.902 209.783 202.981 209.768C203.064 209.754 203.126 209.741 203.169 209.73L203.429 210.936C203.346 210.964 203.228 210.996 203.075 211.03C202.924 211.064 202.74 211.084 202.521 211.089C202.135 211.101 201.787 211.043 201.477 210.915C201.167 210.784 200.922 210.582 200.74 210.31C200.561 210.037 200.473 209.696 200.476 209.287V202.886ZM207.187 211.128C206.531 211.128 205.964 210.991 205.487 210.719C205.012 210.443 204.647 210.054 204.391 209.551C204.136 209.045 204.008 208.45 204.008 207.766C204.008 207.092 204.136 206.501 204.391 205.993C204.65 205.482 205.011 205.084 205.474 204.8C205.937 204.513 206.481 204.369 207.106 204.369C207.509 204.369 207.89 204.435 208.248 204.565C208.609 204.693 208.927 204.892 209.203 205.162C209.481 205.432 209.7 205.776 209.859 206.193C210.018 206.608 210.097 207.102 210.097 207.676V208.149H204.732V207.109H208.619C208.616 206.814 208.552 206.551 208.427 206.321C208.302 206.088 208.127 205.905 207.903 205.771C207.681 205.638 207.423 205.571 207.127 205.571C206.812 205.571 206.535 205.648 206.296 205.801C206.058 205.952 205.872 206.151 205.738 206.398C205.607 206.642 205.541 206.911 205.538 207.203V208.111C205.538 208.491 205.607 208.818 205.747 209.091C205.886 209.361 206.08 209.568 206.33 209.713C206.58 209.855 206.873 209.926 207.208 209.926C207.433 209.926 207.636 209.895 207.818 209.832C207.999 209.767 208.157 209.672 208.291 209.547C208.424 209.422 208.525 209.267 208.593 209.082L210.033 209.244C209.943 209.625 209.769 209.957 209.514 210.241C209.261 210.523 208.937 210.741 208.542 210.898C208.147 211.051 207.695 211.128 207.187 211.128ZM212.283 204.455L213.604 206.871L214.947 204.455H216.579L214.606 207.727L216.613 211H214.989L213.604 208.643L212.232 211H210.596L212.59 207.727L210.647 204.455H212.283ZM220.8 204.455V205.648H217.038V204.455H220.8ZM217.966 202.886H219.509V209.031C219.509 209.239 219.54 209.398 219.603 209.509C219.668 209.616 219.753 209.69 219.859 209.73C219.964 209.77 220.08 209.79 220.208 209.79C220.305 209.79 220.393 209.783 220.472 209.768C220.555 209.754 220.617 209.741 220.66 209.73L220.92 210.936C220.837 210.964 220.719 210.996 220.566 211.03C220.415 211.064 220.231 211.084 220.012 211.089C219.626 211.101 219.278 211.043 218.968 210.915C218.658 210.784 218.413 210.582 218.231 210.31C218.052 210.037 217.964 209.696 217.966 209.287V202.886ZM227.855 204.455V205.648H224.093V204.455H227.855ZM225.022 202.886H226.564V209.031C226.564 209.239 226.596 209.398 226.658 209.509C226.723 209.616 226.809 209.69 226.914 209.73C227.019 209.77 227.135 209.79 227.263 209.79C227.36 209.79 227.448 209.783 227.527 209.768C227.61 209.754 227.672 209.741 227.715 209.73L227.975 210.936C227.892 210.964 227.774 210.996 227.621 211.03C227.471 211.064 227.286 211.084 227.067 211.089C226.681 211.101 226.333 211.043 226.023 210.915C225.713 210.784 225.468 210.582 225.286 210.31C225.107 210.037 225.019 209.696 225.022 209.287V202.886ZM231.733 211.128C231.077 211.128 230.51 210.991 230.033 210.719C229.558 210.443 229.193 210.054 228.938 209.551C228.682 209.045 228.554 208.45 228.554 207.766C228.554 207.092 228.682 206.501 228.938 205.993C229.196 205.482 229.557 205.084 230.02 204.8C230.483 204.513 231.027 204.369 231.652 204.369C232.055 204.369 232.436 204.435 232.794 204.565C233.155 204.693 233.473 204.892 233.749 205.162C234.027 205.432 234.246 205.776 234.405 206.193C234.564 206.608 234.644 207.102 234.644 207.676V208.149H229.278V207.109H233.165C233.162 206.814 233.098 206.551 232.973 206.321C232.848 206.088 232.673 205.905 232.449 205.771C232.227 205.638 231.969 205.571 231.673 205.571C231.358 205.571 231.081 205.648 230.842 205.801C230.604 205.952 230.418 206.151 230.284 206.398C230.153 206.642 230.087 206.911 230.084 207.203V208.111C230.084 208.491 230.153 208.818 230.293 209.091C230.432 209.361 230.626 209.568 230.876 209.713C231.126 209.855 231.419 209.926 231.754 209.926C231.979 209.926 232.182 209.895 232.364 209.832C232.546 209.767 232.703 209.672 232.837 209.547C232.97 209.422 233.071 209.267 233.139 209.082L234.58 209.244C234.489 209.625 234.315 209.957 234.06 210.241C233.807 210.523 233.483 210.741 233.088 210.898C232.693 211.051 232.242 211.128 231.733 211.128ZM236.829 204.455L238.15 206.871L239.493 204.455H241.125L239.152 207.727L241.159 211H239.535L238.15 208.643L236.778 211H235.142L237.136 207.727L235.193 204.455H236.829ZM245.346 204.455V205.648H241.584V204.455H245.346ZM242.513 202.886H244.055V209.031C244.055 209.239 244.086 209.398 244.149 209.509C244.214 209.616 244.3 209.69 244.405 209.73C244.51 209.77 244.626 209.79 244.754 209.79C244.851 209.79 244.939 209.783 245.018 209.768C245.101 209.754 245.163 209.741 245.206 209.73L245.466 210.936C245.383 210.964 245.265 210.996 245.112 211.03C244.961 211.064 244.777 211.084 244.558 211.089C244.172 211.101 243.824 211.043 243.514 210.915C243.204 210.784 242.959 210.582 242.777 210.31C242.598 210.037 242.51 209.696 242.513 209.287V202.886ZM252.402 204.455V205.648H248.639V204.455H252.402ZM249.568 202.886H251.11V209.031C251.11 209.239 251.142 209.398 251.204 209.509C251.269 209.616 251.355 209.69 251.46 209.73C251.565 209.77 251.681 209.79 251.809 209.79C251.906 209.79 251.994 209.783 252.073 209.768C252.156 209.754 252.218 209.741 252.261 209.73L252.521 210.936C252.438 210.964 252.321 210.996 252.167 211.03C252.017 211.064 251.832 211.084 251.613 211.089C251.227 211.101 250.879 211.043 250.569 210.915C250.26 210.784 250.014 210.582 249.832 210.31C249.653 210.037 249.565 209.696 249.568 209.287V202.886ZM256.279 211.128C255.623 211.128 255.056 210.991 254.579 210.719C254.104 210.443 253.739 210.054 253.484 209.551C253.228 209.045 253.1 208.45 253.1 207.766C253.1 207.092 253.228 206.501 253.484 205.993C253.742 205.482 254.103 205.084 254.566 204.8C255.029 204.513 255.573 204.369 256.198 204.369C256.602 204.369 256.982 204.435 257.34 204.565C257.701 204.693 258.019 204.892 258.295 205.162C258.573 205.432 258.792 205.776 258.951 206.193C259.11 206.608 259.19 207.102 259.19 207.676V208.149H253.825V207.109H257.711C257.708 206.814 257.644 206.551 257.519 206.321C257.394 206.088 257.219 205.905 256.995 205.771C256.773 205.638 256.515 205.571 256.219 205.571C255.904 205.571 255.627 205.648 255.388 205.801C255.15 205.952 254.964 206.151 254.83 206.398C254.7 206.642 254.633 206.911 254.63 207.203V208.111C254.63 208.491 254.7 208.818 254.839 209.091C254.978 209.361 255.173 209.568 255.423 209.713C255.673 209.855 255.965 209.926 256.3 209.926C256.525 209.926 256.728 209.895 256.91 209.832C257.092 209.767 257.249 209.672 257.383 209.547C257.516 209.422 257.617 209.267 257.685 209.082L259.126 209.244C259.035 209.625 258.861 209.957 258.606 210.241C258.353 210.523 258.029 210.741 257.634 210.898C257.239 211.051 256.788 211.128 256.279 211.128ZM261.375 204.455L262.696 206.871L264.039 204.455H265.671L263.698 207.727L265.705 211H264.081L262.696 208.643L261.324 211H259.688L261.682 207.727L259.739 204.455H261.375ZM269.892 204.455V205.648H266.13V204.455H269.892ZM267.059 202.886H268.601V209.031C268.601 209.239 268.633 209.398 268.695 209.509C268.76 209.616 268.846 209.69 268.951 209.73C269.056 209.77 269.172 209.79 269.3 209.79C269.397 209.79 269.485 209.783 269.564 209.768C269.647 209.754 269.709 209.741 269.752 209.73L270.012 210.936C269.929 210.964 269.812 210.996 269.658 211.03C269.508 211.064 269.323 211.084 269.104 211.089C268.718 211.101 268.37 211.043 268.06 210.915C267.75 210.784 267.505 210.582 267.323 210.31C267.144 210.037 267.056 209.696 267.059 209.287V202.886ZM276.948 204.455V205.648H273.185V204.455H276.948ZM274.114 202.886H275.656V209.031C275.656 209.239 275.688 209.398 275.75 209.509C275.816 209.616 275.901 209.69 276.006 209.73C276.111 209.77 276.227 209.79 276.355 209.79C276.452 209.79 276.54 209.783 276.62 209.768C276.702 209.754 276.764 209.741 276.807 209.73L277.067 210.936C276.985 210.964 276.867 210.996 276.713 211.03C276.563 211.064 276.378 211.084 276.159 211.089C275.773 211.101 275.425 211.043 275.115 210.915C274.806 210.784 274.56 210.582 274.378 210.31C274.199 210.037 274.111 209.696 274.114 209.287V202.886ZM280.825 211.128C280.169 211.128 279.602 210.991 279.125 210.719C278.65 210.443 278.285 210.054 278.03 209.551C277.774 209.045 277.646 208.45 277.646 207.766C277.646 207.092 277.774 206.501 278.03 205.993C278.288 205.482 278.649 205.084 279.112 204.8C279.575 204.513 280.119 204.369 280.744 204.369C281.148 204.369 281.528 204.435 281.886 204.565C282.247 204.693 282.565 204.892 282.841 205.162C283.119 205.432 283.338 205.776 283.497 206.193C283.656 206.608 283.736 207.102 283.736 207.676V208.149H278.371V207.109H282.257C282.254 206.814 282.19 206.551 282.065 206.321C281.94 206.088 281.766 205.905 281.541 205.771C281.32 205.638 281.061 205.571 280.766 205.571C280.45 205.571 280.173 205.648 279.935 205.801C279.696 205.952 279.51 206.151 279.376 206.398C279.246 206.642 279.179 206.911 279.176 207.203V208.111C279.176 208.491 279.246 208.818 279.385 209.091C279.524 209.361 279.719 209.568 279.969 209.713C280.219 209.855 280.511 209.926 280.846 209.926C281.071 209.926 281.274 209.895 281.456 209.832C281.638 209.767 281.795 209.672 281.929 209.547C282.062 209.422 282.163 209.267 282.231 209.082L283.672 209.244C283.581 209.625 283.408 209.957 283.152 210.241C282.899 210.523 282.575 210.741 282.18 210.898C281.785 211.051 281.334 211.128 280.825 211.128ZM285.921 204.455L287.242 206.871L288.585 204.455H290.217L288.244 207.727L290.251 211H288.627L287.242 208.643L285.87 211H284.234L286.228 207.727L284.285 204.455H285.921ZM294.439 204.455V205.648H290.676V204.455H294.439ZM291.605 202.886H293.147V209.031C293.147 209.239 293.179 209.398 293.241 209.509C293.306 209.616 293.392 209.69 293.497 209.73C293.602 209.77 293.718 209.79 293.846 209.79C293.943 209.79 294.031 209.783 294.11 209.768C294.193 209.754 294.255 209.741 294.298 209.73L294.558 210.936C294.476 210.964 294.358 210.996 294.204 211.03C294.054 211.064 293.869 211.084 293.65 211.089C293.264 211.101 292.916 211.043 292.606 210.915C292.297 210.784 292.051 210.582 291.869 210.31C291.69 210.037 291.602 209.696 291.605 209.287V202.886Z" fill="white"/>
<rect x="147" y="101" width="104" height="59.7037" rx="29.8519" fill="#C4FF00" fill-opacity="0.1"/>
<path d="M183.42 122.044V138.852H179.924V122.044H183.42ZM197.511 126.246L193.104 138.852H189.164L184.757 126.246H188.45L191.068 135.265H191.2L193.81 126.246H197.511ZM202.334 122.044V138.852H198.838V122.044H202.334ZM216.839 122.044V138.852H213.285V125.417H213.187L209.338 127.83V124.678L213.499 122.044H216.839Z" fill="#C4FF00"/>
<path d="M99.4864 68V50.5455H103.177V64.9574H110.66V68H99.4864ZM118.521 68.2557C117.175 68.2557 116.016 67.983 115.044 67.4375C114.078 66.8864 113.334 66.108 112.811 65.1023C112.288 64.0909 112.027 62.8949 112.027 61.5142C112.027 60.1676 112.288 58.9858 112.811 57.9688C113.334 56.9517 114.07 56.1591 115.018 55.5909C115.973 55.0227 117.092 54.7386 118.376 54.7386C119.24 54.7386 120.044 54.8778 120.788 55.1562C121.538 55.429 122.192 55.8409 122.749 56.392C123.311 56.9432 123.749 57.6364 124.061 58.4716C124.374 59.3011 124.53 60.2727 124.53 61.3864V62.3835H113.476V60.1335H121.112C121.112 59.6108 120.999 59.1477 120.771 58.7443C120.544 58.3409 120.229 58.0256 119.825 57.7983C119.428 57.5653 118.965 57.4489 118.436 57.4489C117.885 57.4489 117.396 57.5767 116.97 57.8324C116.55 58.0824 116.22 58.4205 115.982 58.8466C115.743 59.267 115.621 59.7358 115.615 60.2528V62.392C115.615 63.0398 115.734 63.5994 115.973 64.071C116.217 64.5426 116.561 64.9062 117.004 65.1619C117.447 65.4176 117.973 65.5455 118.581 65.5455C118.984 65.5455 119.354 65.4886 119.689 65.375C120.024 65.2614 120.311 65.0909 120.55 64.8636C120.788 64.6364 120.97 64.358 121.095 64.0284L124.453 64.25C124.283 65.0568 123.933 65.7614 123.405 66.3636C122.882 66.9602 122.206 67.4261 121.376 67.7614C120.553 68.0909 119.601 68.2557 118.521 68.2557ZM138.272 54.9091L133.695 68H129.605L125.028 54.9091H128.863L131.582 64.2756H131.718L134.428 54.9091H138.272ZM145.194 68.2557C143.848 68.2557 142.688 67.983 141.717 67.4375C140.751 66.8864 140.007 66.108 139.484 65.1023C138.961 64.0909 138.7 62.8949 138.7 61.5142C138.7 60.1676 138.961 58.9858 139.484 57.9688C140.007 56.9517 140.742 56.1591 141.691 55.5909C142.646 55.0227 143.765 54.7386 145.049 54.7386C145.913 54.7386 146.717 54.8778 147.461 55.1562C148.211 55.429 148.865 55.8409 149.421 56.392C149.984 56.9432 150.421 57.6364 150.734 58.4716C151.046 59.3011 151.203 60.2727 151.203 61.3864V62.3835H140.149V60.1335H147.785C147.785 59.6108 147.671 59.1477 147.444 58.7443C147.217 58.3409 146.902 58.0256 146.498 57.7983C146.1 57.5653 145.637 57.4489 145.109 57.4489C144.558 57.4489 144.069 57.5767 143.643 57.8324C143.223 58.0824 142.893 58.4205 142.654 58.8466C142.416 59.267 142.294 59.7358 142.288 60.2528V62.392C142.288 63.0398 142.407 63.5994 142.646 64.071C142.89 64.5426 143.234 64.9062 143.677 65.1619C144.12 65.4176 144.646 65.5455 145.254 65.5455C145.657 65.5455 146.027 65.4886 146.362 65.375C146.697 65.2614 146.984 65.0909 147.223 64.8636C147.461 64.6364 147.643 64.358 147.768 64.0284L151.126 64.25C150.956 65.0568 150.606 65.7614 150.078 66.3636C149.555 66.9602 148.879 67.4261 148.049 67.7614C147.225 68.0909 146.274 68.2557 145.194 68.2557ZM156.723 50.5455V68H153.092V50.5455H156.723ZM159.151 68V54.9091H162.782V68H159.151ZM160.975 53.2216C160.435 53.2216 159.972 53.0426 159.586 52.6847C159.205 52.321 159.015 51.8864 159.015 51.3807C159.015 50.8807 159.205 50.4517 159.586 50.0938C159.972 49.7301 160.435 49.5483 160.975 49.5483C161.515 49.5483 161.975 49.7301 162.356 50.0938C162.742 50.4517 162.935 50.8807 162.935 51.3807C162.935 51.8864 162.742 52.321 162.356 52.6847C161.975 53.0426 161.515 53.2216 160.975 53.2216ZM168.841 60.4318V68H165.21V54.9091H168.67V57.2188H168.824C169.114 56.4574 169.599 55.8551 170.281 55.4119C170.963 54.9631 171.79 54.7386 172.761 54.7386C173.67 54.7386 174.463 54.9375 175.139 55.3352C175.815 55.733 176.341 56.3011 176.716 57.0398C177.091 57.7727 177.278 58.6477 177.278 59.6648V68H173.648V60.3125C173.653 59.5114 173.449 58.8864 173.034 58.4375C172.619 57.983 172.048 57.7557 171.321 57.7557C170.832 57.7557 170.4 57.8608 170.025 58.071C169.656 58.2812 169.366 58.5881 169.156 58.9915C168.952 59.3892 168.846 59.8693 168.841 60.4318ZM185.558 73.1818C184.381 73.1818 183.373 73.0199 182.532 72.696C181.697 72.3778 181.032 71.9432 180.538 71.392C180.043 70.8409 179.722 70.2216 179.575 69.5341L182.933 69.0824C183.035 69.3438 183.197 69.5881 183.418 69.8153C183.64 70.0426 183.933 70.2244 184.296 70.3608C184.665 70.5028 185.114 70.5739 185.643 70.5739C186.433 70.5739 187.083 70.3807 187.594 69.9943C188.112 69.6136 188.37 68.9744 188.37 68.0767V65.6818H188.217C188.058 66.0455 187.819 66.3892 187.501 66.7131C187.183 67.0369 186.773 67.3011 186.273 67.5057C185.773 67.7102 185.177 67.8125 184.484 67.8125C183.501 67.8125 182.606 67.5852 181.799 67.1307C180.998 66.6705 180.359 65.9687 179.881 65.0256C179.41 64.0767 179.174 62.8778 179.174 61.429C179.174 59.946 179.415 58.7074 179.898 57.7131C180.381 56.7187 181.023 55.9744 181.825 55.4801C182.631 54.9858 183.515 54.7386 184.475 54.7386C185.208 54.7386 185.822 54.8636 186.316 55.1136C186.81 55.358 187.208 55.6648 187.509 56.0341C187.816 56.3977 188.052 56.7557 188.217 57.108H188.353V54.9091H191.958V68.1278C191.958 69.2415 191.685 70.1733 191.14 70.9233C190.594 71.6733 189.839 72.2358 188.873 72.6108C187.913 72.9915 186.808 73.1818 185.558 73.1818ZM185.634 65.0852C186.219 65.0852 186.714 64.9403 187.117 64.6506C187.526 64.3551 187.839 63.9347 188.055 63.3892C188.276 62.8381 188.387 62.179 188.387 61.4119C188.387 60.6449 188.279 59.9801 188.063 59.4176C187.847 58.8494 187.535 58.4091 187.126 58.0966C186.717 57.7841 186.219 57.6278 185.634 57.6278C185.038 57.6278 184.535 57.7898 184.126 58.1136C183.717 58.4318 183.407 58.875 183.197 59.4432C182.987 60.0114 182.881 60.6676 182.881 61.4119C182.881 62.1676 182.987 62.821 183.197 63.3722C183.413 63.9176 183.722 64.3409 184.126 64.642C184.535 64.9375 185.038 65.0852 185.634 65.0852ZM210.334 58.642L207.01 58.8466C206.953 58.5625 206.831 58.3068 206.644 58.0795C206.456 57.8466 206.209 57.6619 205.902 57.5256C205.601 57.3835 205.24 57.3125 204.82 57.3125C204.257 57.3125 203.783 57.4318 203.397 57.6705C203.01 57.9034 202.817 58.2159 202.817 58.608C202.817 58.9205 202.942 59.1847 203.192 59.4006C203.442 59.6165 203.871 59.7898 204.479 59.9205L206.848 60.3977C208.121 60.6591 209.07 61.0795 209.695 61.6591C210.32 62.2386 210.632 63 210.632 63.9432C210.632 64.8011 210.379 65.554 209.874 66.2017C209.374 66.8494 208.686 67.3551 207.811 67.7188C206.942 68.0767 205.939 68.2557 204.803 68.2557C203.07 68.2557 201.689 67.8949 200.661 67.1733C199.638 66.446 199.039 65.4574 198.862 64.2074L202.433 64.0199C202.541 64.5483 202.803 64.9517 203.218 65.2301C203.632 65.5028 204.164 65.6392 204.811 65.6392C205.448 65.6392 205.959 65.517 206.345 65.2727C206.737 65.0227 206.936 64.7017 206.942 64.3097C206.936 63.9801 206.797 63.7102 206.524 63.5C206.252 63.2841 205.831 63.1193 205.263 63.0057L202.996 62.554C201.718 62.2983 200.766 61.8551 200.141 61.2244C199.522 60.5937 199.212 59.7898 199.212 58.8125C199.212 57.9716 199.439 57.2472 199.894 56.6392C200.354 56.0312 200.999 55.5625 201.828 55.233C202.664 54.9034 203.641 54.7386 204.76 54.7386C206.414 54.7386 207.715 55.0881 208.664 55.7869C209.618 56.4858 210.175 57.4375 210.334 58.642ZM214.68 72.9091C214.22 72.9091 213.788 72.8722 213.385 72.7983C212.987 72.7301 212.657 72.642 212.396 72.5341L213.214 69.8239C213.64 69.9545 214.024 70.0256 214.365 70.0369C214.711 70.0483 215.01 69.9688 215.26 69.7983C215.515 69.6278 215.723 69.3381 215.882 68.929L216.095 68.375L211.399 54.9091H215.217L217.927 64.5227H218.064L220.799 54.9091H224.643L219.555 69.4148C219.311 70.1193 218.978 70.733 218.558 71.2557C218.143 71.7841 217.618 72.1903 216.981 72.4744C216.345 72.7642 215.578 72.9091 214.68 72.9091ZM236.913 58.642L233.589 58.8466C233.532 58.5625 233.41 58.3068 233.223 58.0795C233.035 57.8466 232.788 57.6619 232.481 57.5256C232.18 57.3835 231.819 57.3125 231.399 57.3125C230.836 57.3125 230.362 57.4318 229.976 57.6705C229.589 57.9034 229.396 58.2159 229.396 58.608C229.396 58.9205 229.521 59.1847 229.771 59.4006C230.021 59.6165 230.45 59.7898 231.058 59.9205L233.427 60.3977C234.7 60.6591 235.649 61.0795 236.274 61.6591C236.899 62.2386 237.211 63 237.211 63.9432C237.211 64.8011 236.959 65.554 236.453 66.2017C235.953 66.8494 235.265 67.3551 234.39 67.7188C233.521 68.0767 232.518 68.2557 231.382 68.2557C229.649 68.2557 228.268 67.8949 227.24 67.1733C226.217 66.446 225.618 65.4574 225.442 64.2074L229.013 64.0199C229.12 64.5483 229.382 64.9517 229.797 65.2301C230.211 65.5028 230.743 65.6392 231.39 65.6392C232.027 65.6392 232.538 65.517 232.924 65.2727C233.317 65.0227 233.515 64.7017 233.521 64.3097C233.515 63.9801 233.376 63.7102 233.103 63.5C232.831 63.2841 232.41 63.1193 231.842 63.0057L229.575 62.554C228.297 62.2983 227.345 61.8551 226.72 61.2244C226.101 60.5937 225.791 59.7898 225.791 58.8125C225.791 57.9716 226.018 57.2472 226.473 56.6392C226.933 56.0312 227.578 55.5625 228.407 55.233C229.243 54.9034 230.22 54.7386 231.339 54.7386C232.993 54.7386 234.294 55.0881 235.243 55.7869C236.197 56.4858 236.754 57.4375 236.913 58.642ZM245.981 54.9091V57.6364H238.097V54.9091H245.981ZM239.887 51.7727H243.518V63.9773C243.518 64.3125 243.569 64.5739 243.671 64.7614C243.773 64.9432 243.915 65.071 244.097 65.1449C244.285 65.2187 244.501 65.2557 244.745 65.2557C244.915 65.2557 245.086 65.2415 245.256 65.2131C245.427 65.179 245.557 65.1534 245.648 65.1364L246.219 67.8381C246.038 67.8949 245.782 67.9602 245.452 68.0341C245.123 68.1136 244.722 68.1619 244.251 68.179C243.376 68.2131 242.609 68.0966 241.949 67.8295C241.296 67.5625 240.788 67.1477 240.424 66.5852C240.06 66.0227 239.881 65.3125 239.887 64.4545V51.7727ZM253.691 68.2557C252.344 68.2557 251.185 67.983 250.214 67.4375C249.248 66.8864 248.504 66.108 247.981 65.1023C247.458 64.0909 247.197 62.8949 247.197 61.5142C247.197 60.1676 247.458 58.9858 247.981 57.9688C248.504 56.9517 249.239 56.1591 250.188 55.5909C251.143 55.0227 252.262 54.7386 253.546 54.7386C254.41 54.7386 255.214 54.8778 255.958 55.1562C256.708 55.429 257.361 55.8409 257.918 56.392C258.481 56.9432 258.918 57.6364 259.231 58.4716C259.543 59.3011 259.7 60.2727 259.7 61.3864V62.3835H248.646V60.1335H256.282C256.282 59.6108 256.168 59.1477 255.941 58.7443C255.714 58.3409 255.398 58.0256 254.995 57.7983C254.597 57.5653 254.134 57.4489 253.606 57.4489C253.055 57.4489 252.566 57.5767 252.14 57.8324C251.719 58.0824 251.39 58.4205 251.151 58.8466C250.913 59.267 250.79 59.7358 250.785 60.2528V62.392C250.785 63.0398 250.904 63.5994 251.143 64.071C251.387 64.5426 251.731 64.9062 252.174 65.1619C252.617 65.4176 253.143 65.5455 253.751 65.5455C254.154 65.5455 254.523 65.4886 254.859 65.375C255.194 65.2614 255.481 65.0909 255.719 64.8636C255.958 64.6364 256.14 64.358 256.265 64.0284L259.623 64.25C259.452 65.0568 259.103 65.7614 258.575 66.3636C258.052 66.9602 257.376 67.4261 256.546 67.7614C255.722 68.0909 254.771 68.2557 253.691 68.2557ZM261.589 68V54.9091H265.049V57.2188H265.202C265.475 56.4517 265.93 55.8466 266.566 55.4034C267.202 54.9602 267.964 54.7386 268.85 54.7386C269.748 54.7386 270.512 54.9631 271.143 55.4119C271.774 55.8551 272.194 56.4574 272.404 57.2188H272.541C272.808 56.4688 273.291 55.8693 273.989 55.4205C274.694 54.9659 275.526 54.7386 276.487 54.7386C277.708 54.7386 278.7 55.1278 279.461 55.9062C280.228 56.679 280.612 57.7756 280.612 59.196V68H276.989V59.9119C276.989 59.1847 276.796 58.6392 276.41 58.2756C276.024 57.9119 275.541 57.7301 274.961 57.7301C274.302 57.7301 273.788 57.9403 273.418 58.3608C273.049 58.7756 272.864 59.3239 272.864 60.0057V68H269.345V59.8352C269.345 59.1932 269.16 58.6818 268.791 58.3011C268.427 57.9205 267.947 57.7301 267.35 57.7301C266.947 57.7301 266.583 57.8324 266.259 58.0369C265.941 58.2358 265.688 58.517 265.501 58.8807C265.313 59.2386 265.22 59.6591 265.22 60.142V68H261.589Z" fill="white"/>
<path d="M16 302.506C16 289.252 26.7452 278.506 40 278.506H350C363.255 278.506 374 289.252 374 302.506V306.506C374 319.761 363.255 330.506 350 330.506H40C26.7452 330.506 16 319.761 16 306.506V302.506Z" fill="#C4FF00"/>
<path d="M184.543 302.444H182.055C182.009 302.122 181.917 301.836 181.776 301.586C181.636 301.332 181.456 301.116 181.237 300.938C181.017 300.76 180.763 300.624 180.475 300.529C180.191 300.434 179.882 300.387 179.549 300.387C178.947 300.387 178.422 300.537 177.975 300.836C177.528 301.131 177.182 301.563 176.935 302.131C176.689 302.696 176.566 303.381 176.566 304.188C176.566 305.018 176.689 305.715 176.935 306.279C177.185 306.843 177.534 307.27 177.981 307.557C178.428 307.845 178.945 307.989 179.532 307.989C179.862 307.989 180.167 307.946 180.447 307.859C180.731 307.771 180.983 307.645 181.202 307.478C181.422 307.307 181.604 307.101 181.748 306.859C181.896 306.616 181.998 306.34 182.055 306.029L184.543 306.04C184.479 306.575 184.318 307.09 184.06 307.586C183.807 308.078 183.464 308.52 183.032 308.91C182.604 309.296 182.093 309.603 181.498 309.83C180.907 310.054 180.238 310.165 179.492 310.165C178.454 310.165 177.526 309.931 176.708 309.461C175.894 308.991 175.25 308.311 174.776 307.421C174.307 306.531 174.072 305.453 174.072 304.188C174.072 302.919 174.31 301.84 174.788 300.95C175.265 300.059 175.913 299.381 176.731 298.915C177.549 298.446 178.47 298.211 179.492 298.211C180.167 298.211 180.792 298.306 181.367 298.495C181.947 298.684 182.46 298.961 182.907 299.325C183.354 299.684 183.718 300.126 183.998 300.648C184.282 301.171 184.464 301.77 184.543 302.444ZM188.363 298.37V310.006H185.942V298.37H188.363ZM193.925 310.177C193.042 310.177 192.279 309.989 191.635 309.614C190.995 309.236 190.5 308.709 190.152 308.035C189.804 307.357 189.629 306.571 189.629 305.677C189.629 304.775 189.804 303.987 190.152 303.313C190.5 302.635 190.995 302.109 191.635 301.734C192.279 301.355 193.042 301.165 193.925 301.165C194.807 301.165 195.569 301.355 196.209 301.734C196.853 302.109 197.349 302.635 197.697 303.313C198.046 303.987 198.22 304.775 198.22 305.677C198.22 306.571 198.046 307.357 197.697 308.035C197.349 308.709 196.853 309.236 196.209 309.614C195.569 309.989 194.807 310.177 193.925 310.177ZM193.936 308.302C194.338 308.302 194.673 308.188 194.942 307.961C195.211 307.73 195.413 307.415 195.55 307.018C195.69 306.62 195.76 306.167 195.76 305.66C195.76 305.152 195.69 304.7 195.55 304.302C195.413 303.904 195.211 303.59 194.942 303.359C194.673 303.128 194.338 303.012 193.936 303.012C193.531 303.012 193.19 303.128 192.913 303.359C192.641 303.59 192.434 303.904 192.294 304.302C192.158 304.7 192.089 305.152 192.089 305.66C192.089 306.167 192.158 306.62 192.294 307.018C192.434 307.415 192.641 307.73 192.913 307.961C193.19 308.188 193.531 308.302 193.936 308.302ZM206.735 303.768L204.519 303.904C204.482 303.715 204.4 303.544 204.275 303.393C204.15 303.237 203.985 303.114 203.781 303.023C203.58 302.929 203.34 302.881 203.059 302.881C202.684 302.881 202.368 302.961 202.11 303.12C201.853 303.275 201.724 303.484 201.724 303.745C201.724 303.953 201.807 304.129 201.974 304.273C202.141 304.417 202.427 304.533 202.832 304.62L204.412 304.938C205.26 305.112 205.893 305.393 206.309 305.779C206.726 306.165 206.934 306.673 206.934 307.302C206.934 307.874 206.766 308.376 206.429 308.807C206.095 309.239 205.637 309.576 205.054 309.819C204.474 310.057 203.805 310.177 203.048 310.177C201.893 310.177 200.972 309.936 200.287 309.455C199.605 308.97 199.205 308.311 199.088 307.478L201.468 307.353C201.54 307.705 201.715 307.974 201.991 308.16C202.268 308.342 202.622 308.432 203.054 308.432C203.478 308.432 203.819 308.351 204.076 308.188C204.338 308.021 204.47 307.807 204.474 307.546C204.47 307.326 204.377 307.146 204.196 307.006C204.014 306.862 203.734 306.753 203.355 306.677L201.843 306.376C200.991 306.205 200.357 305.91 199.94 305.489C199.527 305.069 199.321 304.533 199.321 303.881C199.321 303.321 199.472 302.838 199.775 302.432C200.082 302.027 200.512 301.715 201.065 301.495C201.622 301.275 202.273 301.165 203.019 301.165C204.122 301.165 204.989 301.398 205.622 301.864C206.258 302.33 206.629 302.965 206.735 303.768ZM212.116 310.177C211.218 310.177 210.445 309.995 209.798 309.631C209.154 309.264 208.657 308.745 208.309 308.075C207.96 307.4 207.786 306.603 207.786 305.682C207.786 304.785 207.96 303.997 208.309 303.319C208.657 302.641 209.148 302.112 209.78 301.734C210.417 301.355 211.163 301.165 212.019 301.165C212.595 301.165 213.131 301.258 213.627 301.444C214.127 301.626 214.563 301.9 214.934 302.268C215.309 302.635 215.601 303.097 215.809 303.654C216.017 304.207 216.121 304.855 216.121 305.597V306.262H208.752V304.762H213.843C213.843 304.414 213.767 304.105 213.616 303.836C213.464 303.567 213.254 303.357 212.985 303.205C212.72 303.05 212.411 302.972 212.059 302.972C211.691 302.972 211.366 303.057 211.082 303.228C210.801 303.395 210.582 303.62 210.423 303.904C210.263 304.184 210.182 304.497 210.178 304.842V306.268C210.178 306.7 210.258 307.073 210.417 307.387C210.58 307.701 210.809 307.944 211.104 308.114C211.4 308.285 211.75 308.37 212.155 308.37C212.424 308.37 212.671 308.332 212.894 308.256C213.118 308.181 213.309 308.067 213.468 307.915C213.627 307.764 213.748 307.578 213.832 307.359L216.07 307.506C215.957 308.044 215.724 308.514 215.371 308.915C215.023 309.313 214.572 309.624 214.019 309.847C213.47 310.067 212.835 310.177 212.116 310.177Z" fill="#242424"/>
<rect x="157" y="21.7256" width="76" height="2.14513" rx="1.07257" fill="#1A1A20"/>
</svg>
