<svg width="148" height="19" viewBox="0 0 148 19" fill="none" xmlns="http://www.w3.org/2000/svg">
<g opacity="0.5">
<path d="M1.58438 3.32812L0 6.5H6.5V2.5H2.92812C2.35937 2.5 1.84063 2.82187 1.58438 3.32812ZM7.5 6.5H14L12.4156 3.32812C12.1594 2.82187 11.6406 2.5 11.0719 2.5H7.5V6.5ZM14 7.5H0V14.5C0 15.6031 0.896875 16.5 2 16.5H12C13.1031 16.5 14 15.6031 14 14.5V7.5Z" fill="white"/>
</g>
<path d="M18.6517 3.36364H21.4074L24.0608 8.375H24.1745L26.8279 3.36364H29.5836L25.3392 10.8864V15H22.8961V10.8864L18.6517 3.36364ZM32.6769 15.1705C31.7943 15.1705 31.0311 14.983 30.3871 14.608C29.747 14.2292 29.2527 13.7027 28.9042 13.0284C28.5557 12.3504 28.3815 11.5644 28.3815 10.6705C28.3815 9.76894 28.5557 8.98106 28.9042 8.30682C29.2527 7.62879 29.747 7.10227 30.3871 6.72727C31.0311 6.34848 31.7943 6.15909 32.6769 6.15909C33.5595 6.15909 34.3208 6.34848 34.961 6.72727C35.6049 7.10227 36.1011 7.62879 36.4496 8.30682C36.7981 8.98106 36.9724 9.76894 36.9724 10.6705C36.9724 11.5644 36.7981 12.3504 36.4496 13.0284C36.1011 13.7027 35.6049 14.2292 34.961 14.608C34.3208 14.983 33.5595 15.1705 32.6769 15.1705ZM32.6883 13.2955C33.0898 13.2955 33.425 13.1818 33.694 12.9545C33.9629 12.7235 34.1655 12.4091 34.3019 12.0114C34.4421 11.6136 34.5121 11.161 34.5121 10.6534C34.5121 10.1458 34.4421 9.69318 34.3019 9.29545C34.1655 8.89773 33.9629 8.58333 33.694 8.35227C33.425 8.12121 33.0898 8.00568 32.6883 8.00568C32.283 8.00568 31.9421 8.12121 31.6655 8.35227C31.3928 8.58333 31.1864 8.89773 31.0462 9.29545C30.9099 9.69318 30.8417 10.1458 30.8417 10.6534C30.8417 11.161 30.9099 11.6136 31.0462 12.0114C31.1864 12.4091 31.3928 12.7235 31.6655 12.9545C31.9421 13.1818 32.283 13.2955 32.6883 13.2955ZM43.8228 11.2841V6.27273H46.2433V15H43.9194V13.4148H43.8285C43.6315 13.9261 43.3039 14.3371 42.8455 14.6477C42.391 14.9583 41.8361 15.1136 41.1808 15.1136C40.5974 15.1136 40.0842 14.9811 39.641 14.7159C39.1978 14.4508 38.8512 14.0739 38.6012 13.5852C38.355 13.0966 38.23 12.5114 38.2262 11.8295V6.27273H40.6467V11.3977C40.6505 11.9129 40.7887 12.3201 41.0615 12.6193C41.3342 12.9186 41.6997 13.0682 42.158 13.0682C42.4497 13.0682 42.7224 13.0019 42.9762 12.8693C43.23 12.733 43.4346 12.5322 43.5899 12.267C43.749 12.0019 43.8266 11.6742 43.8228 11.2841ZM47.8593 15V6.27273H50.2059V7.79545H50.2968C50.4559 7.25379 50.723 6.8447 51.098 6.56818C51.473 6.28788 51.9048 6.14773 52.3934 6.14773C52.5147 6.14773 52.6453 6.1553 52.7855 6.17045C52.9256 6.18561 53.0487 6.20644 53.1548 6.23295V8.38068C53.0412 8.34659 52.884 8.31629 52.6832 8.28977C52.4825 8.26326 52.2987 8.25 52.1321 8.25C51.776 8.25 51.4578 8.32765 51.1775 8.48295C50.901 8.63447 50.6813 8.84659 50.5184 9.11932C50.3593 9.39205 50.2798 9.70644 50.2798 10.0625V15H47.8593ZM57.4693 15V6.27273H59.8898V15H57.4693ZM58.6853 5.14773C58.3254 5.14773 58.0167 5.02841 57.7591 4.78977C57.5053 4.54735 57.3784 4.25758 57.3784 3.92045C57.3784 3.58712 57.5053 3.30114 57.7591 3.0625C58.0167 2.82008 58.3254 2.69886 58.6853 2.69886C59.0451 2.69886 59.3519 2.82008 59.6057 3.0625C59.8633 3.30114 59.9921 3.58712 59.9921 3.92045C59.9921 4.25758 59.8633 4.54735 59.6057 4.78977C59.3519 5.02841 59.0451 5.14773 58.6853 5.14773ZM63.9292 9.95455V15H61.5087V6.27273H63.8155V7.8125H63.9178C64.111 7.30492 64.4349 6.90341 64.8894 6.60795C65.344 6.30871 65.8951 6.15909 66.5428 6.15909C67.1489 6.15909 67.6773 6.29167 68.128 6.55682C68.5788 6.82197 68.9292 7.20076 69.1792 7.69318C69.4292 8.18182 69.5542 8.76515 69.5542 9.44318V15H67.1337V9.875C67.1375 9.34091 67.0011 8.92424 66.7246 8.625C66.4481 8.32197 66.0674 8.17045 65.5826 8.17045C65.2568 8.17045 64.969 8.24053 64.719 8.38068C64.4727 8.52083 64.2796 8.72538 64.1394 8.99432C64.003 9.25947 63.933 9.57955 63.9292 9.95455ZM78.9657 6.27273L75.9146 15H73.1873L70.1362 6.27273H72.693L74.5055 12.517H74.5964L76.4032 6.27273H78.9657ZM83.5804 15.1705C82.6826 15.1705 81.9099 14.9886 81.2622 14.625C80.6182 14.2576 80.122 13.7386 79.7736 13.0682C79.4251 12.3939 79.2508 11.5966 79.2508 10.6761C79.2508 9.77841 79.4251 8.99053 79.7736 8.3125C80.122 7.63447 80.6126 7.10606 81.2451 6.72727C81.8815 6.34848 82.6277 6.15909 83.4838 6.15909C84.0595 6.15909 84.5955 6.25189 85.0917 6.4375C85.5917 6.61932 86.0273 6.89394 86.3986 7.26136C86.7736 7.62879 87.0652 8.09091 87.2736 8.64773C87.4819 9.20076 87.5861 9.84848 87.5861 10.5909V11.2557H80.2167V9.75568H85.3076C85.3076 9.4072 85.2319 9.09848 85.0804 8.82955C84.9289 8.56061 84.7186 8.35038 84.4497 8.19886C84.1845 8.04356 83.8758 7.96591 83.5236 7.96591C83.1561 7.96591 82.8304 8.05114 82.5463 8.22159C82.266 8.38826 82.0463 8.61364 81.8872 8.89773C81.7281 9.17803 81.6467 9.49053 81.6429 9.83523V11.2614C81.6429 11.6932 81.7224 12.0663 81.8815 12.3807C82.0444 12.6951 82.2736 12.9375 82.569 13.108C82.8645 13.2784 83.2148 13.3636 83.6201 13.3636C83.8891 13.3636 84.1353 13.3258 84.3588 13.25C84.5823 13.1742 84.7736 13.0606 84.9326 12.9091C85.0917 12.7576 85.2129 12.572 85.2963 12.3523L87.5349 12.5C87.4213 13.0379 87.1883 13.5076 86.8361 13.9091C86.4876 14.3068 86.0368 14.6174 85.4838 14.8409C84.9345 15.0606 84.3001 15.1705 83.5804 15.1705ZM91.2661 9.95455V15H88.8456V6.27273H91.1524V7.8125H91.2547C91.4479 7.30492 91.7717 6.90341 92.2263 6.60795C92.6808 6.30871 93.232 6.15909 93.8797 6.15909C94.4858 6.15909 95.0142 6.29167 95.4649 6.55682C95.9157 6.82197 96.2661 7.20076 96.5161 7.69318C96.7661 8.18182 96.8911 8.76515 96.8911 9.44318V15H94.4706V9.875C94.4744 9.34091 94.338 8.92424 94.0615 8.625C93.785 8.32197 93.4043 8.17045 92.9195 8.17045C92.5937 8.17045 92.3058 8.24053 92.0558 8.38068C91.8096 8.52083 91.6164 8.72538 91.4763 8.99432C91.3399 9.25947 91.2698 9.57955 91.2661 9.95455ZM103.121 6.27273V8.09091H97.8651V6.27273H103.121ZM99.0583 4.18182H101.479V12.3182C101.479 12.5417 101.513 12.7159 101.581 12.8409C101.649 12.9621 101.744 13.0473 101.865 13.0966C101.99 13.1458 102.134 13.1705 102.297 13.1705C102.411 13.1705 102.524 13.161 102.638 13.142C102.751 13.1193 102.839 13.1023 102.899 13.0909L103.28 14.892C103.159 14.9299 102.988 14.9735 102.768 15.0227C102.549 15.0758 102.282 15.108 101.967 15.1193C101.384 15.142 100.873 15.0644 100.433 14.8864C99.9977 14.7083 99.6587 14.4318 99.4162 14.0568C99.1738 13.6818 99.0545 13.2083 99.0583 12.6364V4.18182ZM108.227 15.1705C107.344 15.1705 106.581 14.983 105.937 14.608C105.297 14.2292 104.803 13.7027 104.454 13.0284C104.106 12.3504 103.931 11.5644 103.931 10.6705C103.931 9.76894 104.106 8.98106 104.454 8.30682C104.803 7.62879 105.297 7.10227 105.937 6.72727C106.581 6.34848 107.344 6.15909 108.227 6.15909C109.109 6.15909 109.871 6.34848 110.511 6.72727C111.155 7.10227 111.651 7.62879 112 8.30682C112.348 8.98106 112.522 9.76894 112.522 10.6705C112.522 11.5644 112.348 12.3504 112 13.0284C111.651 13.7027 111.155 14.2292 110.511 14.608C109.871 14.983 109.109 15.1705 108.227 15.1705ZM108.238 13.2955C108.64 13.2955 108.975 13.1818 109.244 12.9545C109.513 12.7235 109.716 12.4091 109.852 12.0114C109.992 11.6136 110.062 11.161 110.062 10.6534C110.062 10.1458 109.992 9.69318 109.852 9.29545C109.716 8.89773 109.513 8.58333 109.244 8.35227C108.975 8.12121 108.64 8.00568 108.238 8.00568C107.833 8.00568 107.492 8.12121 107.216 8.35227C106.943 8.58333 106.736 8.89773 106.596 9.29545C106.46 9.69318 106.392 10.1458 106.392 10.6534C106.392 11.161 106.46 11.6136 106.596 12.0114C106.736 12.4091 106.943 12.7235 107.216 12.9545C107.492 13.1818 107.833 13.2955 108.238 13.2955ZM113.776 15V6.27273H116.123V7.79545H116.214C116.373 7.25379 116.64 6.8447 117.015 6.56818C117.39 6.28788 117.822 6.14773 118.31 6.14773C118.432 6.14773 118.562 6.1553 118.702 6.17045C118.843 6.18561 118.966 6.20644 119.072 6.23295V8.38068C118.958 8.34659 118.801 8.31629 118.6 8.28977C118.399 8.26326 118.216 8.25 118.049 8.25C117.693 8.25 117.375 8.32765 117.094 8.48295C116.818 8.63447 116.598 8.84659 116.435 9.11932C116.276 9.39205 116.197 9.70644 116.197 10.0625V15H113.776ZM121.763 18.2727C121.456 18.2727 121.168 18.2481 120.899 18.1989C120.634 18.1534 120.415 18.0947 120.24 18.0227L120.786 16.2159C121.07 16.303 121.326 16.3504 121.553 16.358C121.784 16.3655 121.983 16.3125 122.149 16.1989C122.32 16.0852 122.458 15.892 122.564 15.6193L122.706 15.25L119.576 6.27273H122.121L123.928 12.6818H124.019L125.843 6.27273H128.405L125.013 15.9432C124.85 16.4129 124.629 16.822 124.348 17.1705C124.072 17.5227 123.721 17.7936 123.297 17.983C122.873 18.1761 122.362 18.2727 121.763 18.2727Z" fill="white"/>
<path opacity="0.5" d="M133.267 16V14.858L136.296 11.8878C136.586 11.5952 136.828 11.3352 137.021 11.108C137.214 10.8807 137.359 10.6605 137.456 10.4474C137.552 10.2344 137.6 10.0071 137.6 9.76562C137.6 9.49006 137.538 9.25426 137.413 9.05824C137.288 8.85938 137.116 8.70597 136.897 8.59801C136.679 8.49006 136.43 8.43608 136.152 8.43608C135.865 8.43608 135.613 8.49574 135.397 8.61506C135.181 8.73153 135.014 8.89773 134.895 9.11364C134.778 9.32955 134.72 9.58665 134.72 9.88494H133.216C133.216 9.33097 133.342 8.84943 133.595 8.44034C133.848 8.03125 134.196 7.71449 134.639 7.49006C135.085 7.26562 135.596 7.15341 136.173 7.15341C136.758 7.15341 137.272 7.26278 137.716 7.48153C138.159 7.70028 138.502 8 138.747 8.38068C138.994 8.76136 139.118 9.19602 139.118 9.68466C139.118 10.0114 139.055 10.3324 138.93 10.6477C138.805 10.9631 138.585 11.3125 138.27 11.696C137.957 12.0795 137.518 12.544 136.953 13.0895L135.448 14.6193V14.679H139.25V16H133.267ZM140.135 14.3807V13.1236L143.838 7.27273H144.886V9.0625H144.247L141.754 13.0128V13.081H146.923V14.3807H140.135ZM144.298 16V13.9972L144.315 13.4347V7.27273H145.806V16H144.298Z" fill="white"/>
</svg>
