<svg width="36" height="36" viewBox="0 0 36 36" fill="none" xmlns="http://www.w3.org/2000/svg">
<rect width="36" height="36" rx="12" fill="#15151A"/>
<path d="M18.1875 29.437C16.6244 29.437 15.147 29.1366 13.7555 28.5357C12.3639 27.9349 11.1489 27.1152 10.1103 26.0767C9.07181 25.0381 8.25213 23.8231 7.65128 22.4315C7.05043 21.04 6.75 19.5626 6.75 17.9995C6.75 16.4173 7.05043 14.9354 7.65128 13.5538C8.25213 12.1721 9.07181 10.9616 10.1103 9.92235C11.1489 8.88306 12.3639 8.06337 13.7555 7.46329C15.147 6.8632 16.6244 6.56277 18.1875 6.56201C19.7697 6.56201 21.252 6.86244 22.6344 7.46329C24.0168 8.06414 25.2269 8.88382 26.2647 9.92235C27.3024 10.9609 28.1221 12.1713 28.7237 13.5538C29.3253 14.9362 29.6258 16.4181 29.625 17.9995C29.625 19.5626 29.3246 21.04 28.7237 22.4315C28.1229 23.8231 27.3032 25.0385 26.2647 26.0778C25.2261 27.1171 24.0157 27.9368 22.6333 28.5369C21.2508 29.137 19.7689 29.437 18.1875 29.437ZM18.1875 27.0923C18.6831 26.4061 19.112 25.6912 19.4742 24.9478C19.8364 24.2044 20.1319 23.4133 20.3606 22.5745H16.0144C16.2431 23.4133 16.5386 24.2044 16.9008 24.9478C17.263 25.6912 17.6919 26.4061 18.1875 27.0923ZM15.2138 26.6348C14.8706 26.0058 14.5706 25.3527 14.3136 24.6756C14.0567 23.9985 13.842 23.2981 13.6697 22.5745H10.2956C10.8484 23.5276 11.5396 24.3569 12.3692 25.0622C13.1988 25.7675 14.147 26.2917 15.2138 26.6348ZM21.1613 26.6348C22.2288 26.2917 23.1773 25.7675 24.0069 25.0622C24.8365 24.3569 25.5273 23.5276 26.0794 22.5745H22.7053C22.5338 23.2989 22.3195 23.9996 22.0625 24.6767C21.8056 25.3538 21.5051 26.0065 21.1613 26.6348ZM9.32344 20.287H13.2122C13.155 19.9058 13.1123 19.5295 13.0841 19.1581C13.0559 18.7868 13.0414 18.4006 13.0406 17.9995C13.0399 17.5984 13.0544 17.2126 13.0841 16.842C13.1138 16.4715 13.1565 16.0948 13.2122 15.712H9.32344C9.22813 16.0933 9.15683 16.4699 9.10956 16.842C9.06228 17.2141 9.03826 17.6 9.0375 17.9995C9.03674 18.3991 9.06076 18.7853 9.10956 19.1581C9.15836 19.531 9.22965 19.9073 9.32344 20.287ZM15.4997 20.287H20.8753C20.9325 19.9058 20.9756 19.5295 21.0046 19.1581C21.0335 18.7868 21.0476 18.4006 21.0469 17.9995C21.0461 17.5984 21.0316 17.2126 21.0034 16.842C20.9752 16.4715 20.9325 16.0948 20.8753 15.712H15.4997C15.4425 16.0933 15.3998 16.4699 15.3716 16.842C15.3434 17.2141 15.3289 17.6 15.3281 17.9995C15.3274 18.3991 15.3419 18.7853 15.3716 19.1581C15.4013 19.531 15.444 19.9073 15.4997 20.287ZM23.1628 20.287H27.0516C27.1469 19.9058 27.2186 19.5295 27.2666 19.1581C27.3146 18.7868 27.3383 18.4006 27.3375 17.9995C27.3367 17.5984 27.3131 17.2126 27.2666 16.842C27.2201 16.4715 27.1484 16.0948 27.0516 15.712H23.1628C23.22 16.0933 23.2631 16.4699 23.2921 16.842C23.321 17.2141 23.3351 17.6 23.3344 17.9995C23.3336 18.3991 23.3191 18.7853 23.2909 19.1581C23.2627 19.531 23.22 19.9073 23.1628 20.287ZM22.7053 13.4245H26.0794C25.5266 12.4714 24.8357 11.6422 24.0069 10.9369C23.1781 10.2315 22.2295 9.70732 21.1613 9.3642C21.5044 9.99326 21.8048 10.6463 22.0625 11.3234C22.3203 12.0005 22.5345 12.7009 22.7053 13.4245ZM16.0144 13.4245H20.3606C20.1319 12.5858 19.8364 11.7947 19.4742 11.0512C19.112 10.3078 18.6831 9.59295 18.1875 8.9067C17.6919 9.59295 17.263 10.3078 16.9008 11.0512C16.5386 11.7947 16.2431 12.5858 16.0144 13.4245ZM10.2956 13.4245H13.6697C13.8413 12.7001 14.0559 11.9994 14.3136 11.3223C14.5713 10.6452 14.8714 9.9925 15.2138 9.3642C14.1463 9.70732 13.1977 10.2315 12.3681 10.9369C11.5385 11.6422 10.8477 12.4714 10.2956 13.4245Z" fill="white"/>
</svg>
