<svg width="36" height="36" viewBox="0 0 36 36" fill="none" xmlns="http://www.w3.org/2000/svg">
<rect width="36" height="36" rx="12" fill="#15151A"/>
<path d="M25.71 10.6545C25.71 10.6545 27.6525 9.89701 27.49 11.7365C27.4365 12.494 26.951 15.1455 26.573 18.013L25.278 26.508C25.278 26.508 25.17 27.7525 24.1985 27.969C23.2275 28.185 21.7705 27.2115 21.5005 26.995C21.2845 26.8325 17.4535 24.3975 16.1045 23.2075C15.7265 22.8825 15.2945 22.2335 16.1585 21.476L21.8245 16.065C22.472 15.415 23.1195 13.9 20.4215 15.74L12.8665 20.88C12.8665 20.88 12.003 21.4215 10.3845 20.9345L6.87653 19.852C6.87653 19.852 5.58152 19.0405 7.79402 18.229C13.1905 15.686 19.828 13.089 25.7095 10.654" fill="white"/>
</svg>
