<svg width="42" height="42" viewBox="0 0 42 42" fill="none" xmlns="http://www.w3.org/2000/svg">
<g clip-path="url(#clip0_87_4079)">
<rect x="9.33331" y="9.33325" width="23.3333" height="25.6667" fill="white"/>
<path d="M21 0C9.40275 0 0 9.40275 0 21C0 32.5972 9.40275 42 21 42C32.5972 42 42 32.5972 42 21C42 9.40275 32.5972 0 21 0ZM13.8285 11.7198H28.1715C30.8052 11.7198 32.48 14.5688 31.1552 16.8648L22.302 32.2035C22.1697 32.4316 21.9798 32.621 21.7513 32.7527C21.5228 32.8843 21.2637 32.9536 21 32.9536C20.7363 32.9536 20.4772 32.8843 20.2487 32.7527C20.0202 32.621 19.8303 32.4316 19.698 32.2035L10.8482 16.8648C9.52175 14.5653 11.193 11.7198 13.8285 11.7198ZM22.3055 14.3377V27.6027L24.234 23.8788L28.882 15.5557C28.9532 15.4314 28.9903 15.2905 28.9895 15.1473C28.9888 15.004 28.9502 14.8635 28.8778 14.7399C28.8054 14.6164 28.7016 14.5141 28.5769 14.4435C28.4523 14.3728 28.3112 14.3364 28.168 14.3377H22.3055ZM13.825 14.3412C13.6821 14.3397 13.5413 14.3759 13.4168 14.4462C13.2923 14.5165 13.1886 14.6185 13.1162 14.7417C13.0438 14.8649 13.0051 15.0051 13.0042 15.148C13.0033 15.291 13.0401 15.4316 13.111 15.5557L17.7625 23.8752L19.691 27.6027V14.3412H13.825Z" fill="#0077FF"/>
</g>
<defs>
<clipPath id="clip0_87_4079">
<rect width="42" height="42" fill="white"/>
</clipPath>
</defs>
</svg>
