<svg width="358" height="52" viewBox="0 0 358 52" fill="none" xmlns="http://www.w3.org/2000/svg">
<path d="M0 24C0 10.7452 10.7452 0 24 0H334C347.255 0 358 10.7452 358 24V28C358 41.2548 347.255 52 334 52H24C10.7452 52 0 41.2548 0 28V24Z" fill="#15151A"/>
<path d="M164.167 31.5V19.8636H171.872V21.892H166.627V24.6648H171.36V26.6932H166.627V31.5H164.167ZM175.581 19.8636V31.5H173.161V19.8636H175.581ZM177.2 31.5V22.7727H179.621V31.5H177.2ZM178.416 21.6477C178.056 21.6477 177.748 21.5284 177.49 21.2898C177.236 21.0473 177.109 20.7576 177.109 20.4205C177.109 20.0871 177.236 19.8011 177.49 19.5625C177.748 19.3201 178.056 19.1989 178.416 19.1989C178.776 19.1989 179.083 19.3201 179.337 19.5625C179.594 19.8011 179.723 20.0871 179.723 20.4205C179.723 20.7576 179.594 21.0473 179.337 21.2898C179.083 21.5284 178.776 21.6477 178.416 21.6477ZM181.24 34.7727V22.7727H183.626V24.2386H183.734C183.84 24.0038 183.993 23.7652 184.194 23.5227C184.399 23.2765 184.664 23.072 184.99 22.9091C185.319 22.7424 185.728 22.6591 186.217 22.6591C186.853 22.6591 187.44 22.8258 187.978 23.1591C188.516 23.4886 188.946 23.9867 189.268 24.6534C189.59 25.3163 189.751 26.1477 189.751 27.1477C189.751 28.1212 189.594 28.9432 189.279 29.6136C188.969 30.2803 188.545 30.786 188.007 31.1307C187.473 31.4716 186.874 31.642 186.211 31.642C185.742 31.642 185.342 31.5644 185.012 31.4091C184.687 31.2538 184.42 31.0587 184.211 30.8239C184.003 30.5852 183.844 30.3447 183.734 30.1023H183.66V34.7727H181.24ZM183.609 27.1364C183.609 27.6553 183.681 28.108 183.825 28.4943C183.969 28.8807 184.177 29.1818 184.45 29.3977C184.723 29.6098 185.054 29.7159 185.444 29.7159C185.838 29.7159 186.171 29.608 186.444 29.392C186.717 29.1723 186.923 28.8693 187.064 28.483C187.207 28.0928 187.279 27.6439 187.279 27.1364C187.279 26.6326 187.209 26.1894 187.069 25.8068C186.929 25.4242 186.723 25.125 186.45 24.9091C186.177 24.6932 185.842 24.5852 185.444 24.5852C185.05 24.5852 184.717 24.6894 184.444 24.8977C184.175 25.1061 183.969 25.4015 183.825 25.7841C183.681 26.1667 183.609 26.6174 183.609 27.1364ZM192.459 31.6477C192.084 31.6477 191.762 31.5152 191.494 31.25C191.228 30.9811 191.096 30.6591 191.096 30.2841C191.096 29.9129 191.228 29.5947 191.494 29.3295C191.762 29.0644 192.084 28.9318 192.459 28.9318C192.823 28.9318 193.141 29.0644 193.414 29.3295C193.687 29.5947 193.823 29.9129 193.823 30.2841C193.823 30.5341 193.759 30.7633 193.63 30.9716C193.505 31.1761 193.34 31.3409 193.136 31.4659C192.931 31.5871 192.706 31.6477 192.459 31.6477Z" fill="#3C3C3C"/>
</svg>
