<svg width="93" height="39" viewBox="0 0 93 39" fill="none" xmlns="http://www.w3.org/2000/svg">
<path d="M0 19.5C0 8.73045 8.73045 0 19.5 0H73.5C84.2696 0 93 8.73045 93 19.5C93 30.2696 84.2696 39 73.5 39H19.5C8.73045 39 0 30.2696 0 19.5Z" fill="#C4FF00" fill-opacity="0.2"/>
<path d="M38.9296 15.2727H40.4978V21.4091C40.4949 21.9716 40.3756 22.456 40.1398 22.8622C39.904 23.2656 39.5745 23.5767 39.1512 23.7955C38.7307 24.0114 38.2407 24.1193 37.681 24.1193C37.1697 24.1193 36.7094 24.0284 36.3003 23.8466C35.8941 23.6619 35.5716 23.3892 35.333 23.0284C35.0944 22.6676 34.9751 22.2187 34.9751 21.6818H36.5475C36.5503 21.9176 36.6015 22.1207 36.7009 22.2912C36.8032 22.4616 36.9438 22.5923 37.1228 22.6832C37.3018 22.7741 37.5077 22.8196 37.7407 22.8196C37.9935 22.8196 38.208 22.767 38.3841 22.6619C38.5603 22.554 38.6938 22.3949 38.7847 22.1847C38.8785 21.9744 38.9268 21.7159 38.9296 21.4091V15.2727ZM44.7599 24.1278C44.1207 24.1278 43.5667 23.9872 43.098 23.706C42.6292 23.4247 42.2656 23.0312 42.0071 22.5256C41.7514 22.0199 41.6236 21.429 41.6236 20.7528C41.6236 20.0767 41.7514 19.4844 42.0071 18.9759C42.2656 18.4673 42.6292 18.0724 43.098 17.7912C43.5667 17.5099 44.1207 17.3693 44.7599 17.3693C45.3991 17.3693 45.9531 17.5099 46.4218 17.7912C46.8906 18.0724 47.2528 18.4673 47.5085 18.9759C47.767 19.4844 47.8963 20.0767 47.8963 20.7528C47.8963 21.429 47.767 22.0199 47.5085 22.5256C47.2528 23.0312 46.8906 23.4247 46.4218 23.706C45.9531 23.9872 45.3991 24.1278 44.7599 24.1278ZM44.7684 22.892C45.115 22.892 45.4048 22.7969 45.6378 22.6065C45.8707 22.4134 46.044 22.1548 46.1576 21.831C46.2741 21.5071 46.3324 21.1463 46.3324 20.7486C46.3324 20.348 46.2741 19.9858 46.1576 19.6619C46.044 19.3352 45.8707 19.0753 45.6378 18.8821C45.4048 18.6889 45.115 18.5923 44.7684 18.5923C44.4133 18.5923 44.1179 18.6889 43.8821 18.8821C43.6491 19.0753 43.4744 19.3352 43.3579 19.6619C43.2443 19.9858 43.1875 20.348 43.1875 20.7486C43.1875 21.1463 43.2443 21.5071 43.3579 21.831C43.4744 22.1548 43.6491 22.4134 43.8821 22.6065C44.1179 22.7969 44.4133 22.892 44.7684 22.892ZM48.9656 24V17.4545H50.5082V24H48.9656ZM49.7412 16.5256C49.4968 16.5256 49.2866 16.4446 49.1105 16.2827C48.9343 16.1179 48.8463 15.9205 48.8463 15.6903C48.8463 15.4574 48.9343 15.2599 49.1105 15.098C49.2866 14.9332 49.4968 14.8509 49.7412 14.8509C49.9883 14.8509 50.1985 14.9332 50.3718 15.098C50.548 15.2599 50.636 15.4574 50.636 15.6903C50.636 15.9205 50.548 16.1179 50.3718 16.2827C50.1985 16.4446 49.9883 16.5256 49.7412 16.5256ZM53.3971 20.1648V24H51.8545V17.4545H53.3289V18.5668H53.4056C53.5562 18.2003 53.7962 17.9091 54.1258 17.6932C54.4582 17.4773 54.8687 17.3693 55.3573 17.3693C55.809 17.3693 56.2025 17.4659 56.5377 17.6591C56.8758 17.8523 57.1372 18.1321 57.3218 18.4986C57.5093 18.8651 57.6016 19.3097 57.5988 19.8324V24H56.0562V20.071C56.0562 19.6335 55.9426 19.2912 55.7153 19.044C55.4909 18.7969 55.1798 18.6733 54.782 18.6733C54.5122 18.6733 54.2721 18.733 54.0619 18.8523C53.8545 18.9687 53.6911 19.1378 53.5718 19.3594C53.4553 19.581 53.3971 19.8494 53.3971 20.1648Z" fill="#C4FF00"/>
</svg>
