<svg width="358" height="52" viewBox="0 0 358 52" fill="none" xmlns="http://www.w3.org/2000/svg">
<path d="M0 24C0 10.7452 10.7452 0 24 0H334C347.255 0 358 10.7452 358 24V28C358 41.2548 347.255 52 334 52H24C10.7452 52 0 41.2548 0 28V24Z" fill="#C4FF00"/>
<path d="M167.152 31.5V19.8636H171.811C172.667 19.8636 173.381 19.9905 173.953 20.2443C174.525 20.4981 174.955 20.8504 175.243 21.3011C175.53 21.7481 175.674 22.2633 175.674 22.8466C175.674 23.3011 175.583 23.7008 175.402 24.0455C175.22 24.3864 174.97 24.6667 174.652 24.8864C174.337 25.1023 173.977 25.2557 173.572 25.3466V25.4602C174.015 25.4792 174.43 25.6042 174.816 25.8352C175.207 26.0663 175.523 26.3902 175.765 26.8068C176.008 27.2197 176.129 27.7121 176.129 28.2841C176.129 28.9015 175.976 29.4527 175.669 29.9375C175.366 30.4186 174.917 30.7992 174.322 31.0795C173.727 31.3598 172.994 31.5 172.123 31.5H167.152ZM169.612 29.4886H171.618C172.303 29.4886 172.803 29.358 173.118 29.0966C173.432 28.8314 173.589 28.4792 173.589 28.0398C173.589 27.7178 173.512 27.4337 173.356 27.1875C173.201 26.9413 172.979 26.7481 172.691 26.608C172.407 26.4678 172.068 26.3977 171.674 26.3977H169.612V29.4886ZM169.612 24.733H171.436C171.773 24.733 172.072 24.6742 172.333 24.5568C172.599 24.4356 172.807 24.2652 172.958 24.0455C173.114 23.8258 173.191 23.5625 173.191 23.2557C173.191 22.8352 173.042 22.4962 172.743 22.2386C172.447 21.9811 172.027 21.8523 171.481 21.8523H169.612V24.733ZM181.342 31.6705C180.444 31.6705 179.671 31.4886 179.023 31.125C178.379 30.7576 177.883 30.2386 177.535 29.5682C177.186 28.8939 177.012 28.0966 177.012 27.1761C177.012 26.2784 177.186 25.4905 177.535 24.8125C177.883 24.1345 178.374 23.6061 179.006 23.2273C179.643 22.8485 180.389 22.6591 181.245 22.6591C181.821 22.6591 182.357 22.7519 182.853 22.9375C183.353 23.1193 183.789 23.3939 184.16 23.7614C184.535 24.1288 184.826 24.5909 185.035 25.1477C185.243 25.7008 185.347 26.3485 185.347 27.0909V27.7557H177.978V26.2557H183.069C183.069 25.9072 182.993 25.5985 182.842 25.3295C182.69 25.0606 182.48 24.8504 182.211 24.6989C181.946 24.5436 181.637 24.4659 181.285 24.4659C180.917 24.4659 180.592 24.5511 180.308 24.7216C180.027 24.8883 179.808 25.1136 179.648 25.3977C179.489 25.678 179.408 25.9905 179.404 26.3352V27.7614C179.404 28.1932 179.484 28.5663 179.643 28.8807C179.806 29.1951 180.035 29.4375 180.33 29.608C180.626 29.7784 180.976 29.8636 181.381 29.8636C181.65 29.8636 181.897 29.8258 182.12 29.75C182.344 29.6742 182.535 29.5606 182.694 29.4091C182.853 29.2576 182.974 29.072 183.058 28.8523L185.296 29C185.183 29.5379 184.95 30.0076 184.597 30.4091C184.249 30.8068 183.798 31.1174 183.245 31.3409C182.696 31.5606 182.061 31.6705 181.342 31.6705ZM191.249 22.7727V24.5909H185.993V22.7727H191.249ZM187.186 20.6818H189.607V28.8182C189.607 29.0417 189.641 29.2159 189.709 29.3409C189.777 29.4621 189.872 29.5473 189.993 29.5966C190.118 29.6458 190.262 29.6705 190.425 29.6705C190.539 29.6705 190.652 29.661 190.766 29.642C190.88 29.6193 190.967 29.6023 191.027 29.5909L191.408 31.392C191.287 31.4299 191.116 31.4735 190.897 31.5227C190.677 31.5758 190.41 31.608 190.095 31.6193C189.512 31.642 189.001 31.5644 188.561 31.3864C188.126 31.2083 187.787 30.9318 187.544 30.5568C187.302 30.1818 187.183 29.7083 187.186 29.1364V20.6818Z" fill="#242424"/>
</svg>
