<svg width="358" height="52" viewBox="0 0 358 52" fill="none" xmlns="http://www.w3.org/2000/svg">
<path d="M0 24C0 10.7452 10.7452 0 24 0H334C347.255 0 358 10.7452 358 24V28C358 41.2548 347.255 52 334 52H24C10.7452 52 0 41.2548 0 28V24Z" fill="#FF5F5F" fill-opacity="0.2"/>
<path d="M161.773 31.5V19.8636H164.233V29.4716H169.221V31.5H161.773ZM174.428 31.6705C173.546 31.6705 172.783 31.483 172.139 31.108C171.499 30.7292 171.004 30.2027 170.656 29.5284C170.307 28.8504 170.133 28.0644 170.133 27.1705C170.133 26.2689 170.307 25.4811 170.656 24.8068C171.004 24.1288 171.499 23.6023 172.139 23.2273C172.783 22.8485 173.546 22.6591 174.428 22.6591C175.311 22.6591 176.072 22.8485 176.713 23.2273C177.356 23.6023 177.853 24.1288 178.201 24.8068C178.55 25.4811 178.724 26.2689 178.724 27.1705C178.724 28.0644 178.55 28.8504 178.201 29.5284C177.853 30.2027 177.356 30.7292 176.713 31.108C176.072 31.483 175.311 31.6705 174.428 31.6705ZM174.44 29.7955C174.841 29.7955 175.177 29.6818 175.446 29.4545C175.714 29.2235 175.917 28.9091 176.053 28.5114C176.194 28.1136 176.264 27.661 176.264 27.1534C176.264 26.6458 176.194 26.1932 176.053 25.7955C175.917 25.3977 175.714 25.0833 175.446 24.8523C175.177 24.6212 174.841 24.5057 174.44 24.5057C174.035 24.5057 173.694 24.6212 173.417 24.8523C173.144 25.0833 172.938 25.3977 172.798 25.7955C172.661 26.1932 172.593 26.6458 172.593 27.1534C172.593 27.661 172.661 28.1136 172.798 28.5114C172.938 28.9091 173.144 29.2235 173.417 29.4545C173.694 29.6818 174.035 29.7955 174.44 29.7955ZM187.239 25.2614L185.023 25.3977C184.985 25.2083 184.904 25.0379 184.779 24.8864C184.654 24.7311 184.489 24.608 184.285 24.517C184.084 24.4223 183.843 24.375 183.563 24.375C183.188 24.375 182.872 24.4545 182.614 24.6136C182.357 24.7689 182.228 24.9773 182.228 25.2386C182.228 25.447 182.311 25.6231 182.478 25.767C182.644 25.911 182.93 26.0265 183.336 26.1136L184.915 26.4318C185.764 26.6061 186.396 26.8864 186.813 27.2727C187.23 27.6591 187.438 28.1667 187.438 28.7955C187.438 29.3674 187.269 29.8693 186.932 30.3011C186.599 30.733 186.141 31.0701 185.557 31.3125C184.978 31.5511 184.309 31.6705 183.552 31.6705C182.396 31.6705 181.476 31.4299 180.79 30.9489C180.108 30.464 179.709 29.8049 179.591 28.9716L181.972 28.8466C182.044 29.1989 182.218 29.4678 182.495 29.6534C182.771 29.8352 183.126 29.9261 183.557 29.9261C183.982 29.9261 184.322 29.8447 184.58 29.6818C184.841 29.5152 184.974 29.3011 184.978 29.0398C184.974 28.8201 184.881 28.6402 184.699 28.5C184.518 28.3561 184.237 28.2462 183.858 28.1705L182.347 27.8693C181.495 27.6989 180.86 27.4034 180.444 26.983C180.031 26.5625 179.824 26.0265 179.824 25.375C179.824 24.8144 179.976 24.3314 180.279 23.9261C180.586 23.5208 181.016 23.2083 181.569 22.9886C182.126 22.7689 182.777 22.6591 183.523 22.6591C184.626 22.6591 185.493 22.892 186.126 23.358C186.762 23.8239 187.133 24.4583 187.239 25.2614ZM192.619 31.6705C191.722 31.6705 190.949 31.4886 190.301 31.125C189.657 30.7576 189.161 30.2386 188.813 29.5682C188.464 28.8939 188.29 28.0966 188.29 27.1761C188.29 26.2784 188.464 25.4905 188.813 24.8125C189.161 24.1345 189.652 23.6061 190.284 23.2273C190.921 22.8485 191.667 22.6591 192.523 22.6591C193.099 22.6591 193.635 22.7519 194.131 22.9375C194.631 23.1193 195.066 23.3939 195.438 23.7614C195.813 24.1288 196.104 24.5909 196.313 25.1477C196.521 25.7008 196.625 26.3485 196.625 27.0909V27.7557H189.256V26.2557H194.347C194.347 25.9072 194.271 25.5985 194.119 25.3295C193.968 25.0606 193.758 24.8504 193.489 24.6989C193.224 24.5436 192.915 24.4659 192.563 24.4659C192.195 24.4659 191.869 24.5511 191.585 24.7216C191.305 24.8883 191.085 25.1136 190.926 25.3977C190.767 25.678 190.686 25.9905 190.682 26.3352V27.7614C190.682 28.1932 190.761 28.5663 190.921 28.8807C191.083 29.1951 191.313 29.4375 191.608 29.608C191.904 29.7784 192.254 29.8636 192.659 29.8636C192.928 29.8636 193.174 29.8258 193.398 29.75C193.621 29.6742 193.813 29.5606 193.972 29.4091C194.131 29.2576 194.252 29.072 194.335 28.8523L196.574 29C196.46 29.5379 196.227 30.0076 195.875 30.4091C195.527 30.8068 195.076 31.1174 194.523 31.3409C193.974 31.5606 193.339 31.6705 192.619 31.6705Z" fill="#FF5F5F"/>
</svg>
