<svg width="358" height="37" viewBox="0 0 358 37" fill="none" xmlns="http://www.w3.org/2000/svg">
<rect width="358" height="37" rx="12" fill="#15151A"/>
<rect width="71" height="37" rx="12" fill="white" fill-opacity="0.05"/>
<path d="M24.9813 16.3636L26.6666 19.3366L28.3669 16.3636H29.9926L27.6112 20.1818L30.0125 24H28.3868L26.6666 21.1463L24.9514 24H23.3207L25.6972 20.1818L23.3506 16.3636H24.9813ZM35.0819 13.8182V24H33.5407V15.3594H33.4811L31.045 16.9503V15.4787L33.5855 13.8182H35.0819ZM37.9676 24.0945C37.6958 24.0945 37.4622 23.9983 37.2666 23.8061C37.0711 23.6106 36.9733 23.3752 36.9733 23.1001C36.9733 22.8284 37.0711 22.5964 37.2666 22.4041C37.4622 22.2086 37.6958 22.1108 37.9676 22.1108C38.2394 22.1108 38.473 22.2086 38.6686 22.4041C38.8641 22.5964 38.9619 22.8284 38.9619 23.1001C38.9619 23.2824 38.9155 23.4498 38.8227 23.6023C38.7332 23.7514 38.6139 23.8707 38.4648 23.9602C38.3156 24.0497 38.1499 24.0945 37.9676 24.0945ZM43.8499 24.1392C43.2268 24.1392 42.6666 24.0199 42.1695 23.7812C41.6756 23.5393 41.2812 23.2079 40.9862 22.7869C40.6913 22.366 40.5338 21.8854 40.5139 21.3452H42.0054C42.0419 21.7827 42.2358 22.1423 42.5871 22.424C42.9384 22.7057 43.3594 22.8466 43.8499 22.8466C44.241 22.8466 44.5873 22.7571 44.8889 22.5781C45.1939 22.3958 45.4325 22.1456 45.6049 21.8274C45.7805 21.5092 45.8684 21.1463 45.8684 20.7386C45.8684 20.3243 45.7789 19.9548 45.5999 19.63C45.4209 19.3052 45.174 19.05 44.8591 18.8643C44.5476 18.6787 44.1896 18.5843 43.7853 18.581C43.477 18.581 43.1671 18.634 42.8556 18.7401C42.544 18.8461 42.2921 18.9853 42.0999 19.1577L40.6929 18.9489L41.2647 13.8182H46.8627V15.1357H42.5424L42.2192 17.9844H42.2789C42.4777 17.7921 42.7412 17.6314 43.0693 17.5021C43.4008 17.3729 43.7554 17.3082 44.1333 17.3082C44.7531 17.3082 45.3049 17.4557 45.7888 17.7507C46.276 18.0457 46.6588 18.4484 46.9372 18.9588C47.219 19.4659 47.3582 20.0492 47.3549 20.7088C47.3582 21.3684 47.209 21.9567 46.9074 22.4737C46.6091 22.9908 46.1948 23.3984 45.6645 23.6967C45.1375 23.9917 44.5327 24.1392 43.8499 24.1392Z" fill="white"/>
<rect x="71" width="71" height="37" rx="12" fill="#15151A"/>
<path d="M100.664 16.3636L102.35 19.3366L104.05 16.3636H105.676L103.294 20.1818L105.695 24H104.07L102.35 21.1463L100.634 24H99.0036L101.38 20.1818L99.0335 16.3636H100.664ZM106.902 24V22.8864L110.347 19.3168C110.715 18.929 111.018 18.5893 111.257 18.2976C111.499 18.0026 111.68 17.7225 111.799 17.4574C111.918 17.1922 111.978 16.9105 111.978 16.6122C111.978 16.2741 111.898 15.9825 111.739 15.7372C111.58 15.4886 111.363 15.2981 111.088 15.1655C110.813 15.0296 110.503 14.9616 110.158 14.9616C109.794 14.9616 109.476 15.0362 109.204 15.1854C108.932 15.3345 108.723 15.545 108.577 15.8168C108.431 16.0885 108.359 16.4067 108.359 16.7713H106.892C106.892 16.1515 107.034 15.6096 107.32 15.1456C107.605 14.6816 107.996 14.322 108.493 14.0668C108.99 13.8082 109.555 13.679 110.188 13.679C110.828 13.679 111.391 13.8066 111.878 14.0618C112.369 14.3137 112.752 14.6584 113.027 15.0959C113.302 15.5301 113.44 16.0206 113.44 16.5675C113.44 16.9453 113.368 17.3149 113.226 17.6761C113.087 18.0374 112.843 18.4401 112.495 18.8842C112.147 19.325 111.663 19.8603 111.043 20.4901L109.02 22.608V22.6825H113.604V24H106.902Z" fill="white"/>
<rect x="142" width="71" height="37" rx="12" fill="#15151A"/>
<path d="M171.445 16.3636L173.131 19.3366L174.831 16.3636H176.457L174.075 20.1818L176.477 24H174.851L173.131 21.1463L171.416 24H169.785L172.161 20.1818L169.815 16.3636H171.445ZM181.228 24.1392C180.545 24.1392 179.935 24.0215 179.398 23.7862C178.865 23.5509 178.442 23.2244 178.131 22.8068C177.822 22.3859 177.657 21.8987 177.633 21.3452H179.195C179.214 21.6468 179.315 21.9086 179.498 22.1307C179.683 22.3494 179.925 22.5185 180.224 22.6378C180.522 22.7571 180.853 22.8168 181.218 22.8168C181.619 22.8168 181.974 22.7472 182.282 22.608C182.593 22.4687 182.837 22.2749 183.013 22.0263C183.188 21.7744 183.276 21.4844 183.276 21.1562C183.276 20.8149 183.188 20.5149 183.013 20.2564C182.84 19.9946 182.587 19.7891 182.252 19.6399C181.921 19.4908 181.52 19.4162 181.049 19.4162H180.189V18.1634H181.049C181.427 18.1634 181.758 18.0954 182.043 17.9595C182.332 17.8236 182.557 17.6347 182.719 17.3928C182.882 17.1475 182.963 16.8608 182.963 16.5327C182.963 16.2178 182.892 15.9444 182.749 15.7124C182.61 15.477 182.411 15.2931 182.153 15.1605C181.897 15.0279 181.596 14.9616 181.248 14.9616C180.916 14.9616 180.606 15.023 180.318 15.1456C180.033 15.2649 179.801 15.4373 179.622 15.6626C179.443 15.8847 179.347 16.1515 179.334 16.4631H177.847C177.864 15.9129 178.026 15.429 178.334 15.0114C178.646 14.5937 179.057 14.2673 179.567 14.032C180.078 13.7966 180.645 13.679 181.268 13.679C181.921 13.679 182.484 13.8066 182.958 14.0618C183.435 14.3137 183.803 14.6501 184.062 15.071C184.324 15.492 184.453 15.9527 184.449 16.4531C184.453 17.0232 184.294 17.5071 183.972 17.9048C183.654 18.3026 183.23 18.5694 182.699 18.7053V18.7848C183.376 18.8875 183.899 19.156 184.271 19.5902C184.645 20.0244 184.831 20.563 184.827 21.206C184.831 21.7661 184.675 22.2682 184.36 22.7124C184.048 23.1565 183.623 23.5062 183.082 23.7614C182.542 24.0133 181.924 24.1392 181.228 24.1392Z" fill="white"/>
<rect x="213" width="71" height="37" rx="12" fill="#15151A"/>
<path d="M242.616 16.3636L244.302 19.3366L246.002 16.3636H247.628L245.246 20.1818L247.648 24H246.022L244.302 21.1463L242.586 24H240.956L243.332 20.1818L240.986 16.3636H242.616ZM252.215 24.1392C251.592 24.1392 251.032 24.0199 250.534 23.7812C250.041 23.5393 249.646 23.2079 249.351 22.7869C249.056 22.366 248.899 21.8854 248.879 21.3452H250.37C250.407 21.7827 250.601 22.1423 250.952 22.424C251.303 22.7057 251.724 22.8466 252.215 22.8466C252.606 22.8466 252.952 22.7571 253.254 22.5781C253.559 22.3958 253.797 22.1456 253.97 21.8274C254.145 21.5092 254.233 21.1463 254.233 20.7386C254.233 20.3243 254.144 19.9548 253.965 19.63C253.786 19.3052 253.539 19.05 253.224 18.8643C252.913 18.6787 252.555 18.5843 252.15 18.581C251.842 18.581 251.532 18.634 251.221 18.7401C250.909 18.8461 250.657 18.9853 250.465 19.1577L249.058 18.9489L249.63 13.8182H255.228V15.1357H250.907L250.584 17.9844H250.644C250.843 17.7921 251.106 17.6314 251.434 17.5021C251.766 17.3729 252.12 17.3082 252.498 17.3082C253.118 17.3082 253.67 17.4557 254.154 17.7507C254.641 18.0457 255.024 18.4484 255.302 18.9588C255.584 19.4659 255.723 20.0492 255.72 20.7088C255.723 21.3684 255.574 21.9567 255.272 22.4737C254.974 22.9908 254.56 23.3984 254.029 23.6967C253.502 23.9917 252.898 24.1392 252.215 24.1392Z" fill="white"/>
<rect x="284" width="71" height="37" rx="12" fill="#15151A"/>
<path d="M310.27 16.3636L311.955 19.3366L313.656 16.3636H315.281L312.9 20.1818L315.301 24H313.676L311.955 21.1463L310.24 24H308.609L310.986 20.1818L308.639 16.3636H310.27ZM320.371 13.8182V24H318.829V15.3594H318.77L316.334 16.9503V15.4787L318.874 13.8182H320.371ZM326.39 24.169C325.604 24.1657 324.933 23.9586 324.376 23.5476C323.819 23.1366 323.393 22.5384 323.098 21.7528C322.803 20.9673 322.656 20.0211 322.656 18.9141C322.656 17.8104 322.803 16.8674 323.098 16.0852C323.397 15.303 323.824 14.7064 324.381 14.2955C324.941 13.8845 325.611 13.679 326.39 13.679C327.169 13.679 327.836 13.8861 328.393 14.3004C328.95 14.7114 329.376 15.308 329.671 16.0902C329.969 16.8691 330.118 17.8104 330.118 18.9141C330.118 20.0244 329.971 20.9723 329.676 21.7578C329.381 22.54 328.955 23.1383 328.398 23.5526C327.841 23.9635 327.172 24.169 326.39 24.169ZM326.39 22.8416C327.079 22.8416 327.618 22.5052 328.005 21.8324C328.397 21.1596 328.592 20.1868 328.592 18.9141C328.592 18.0689 328.503 17.3546 328.324 16.7713C328.148 16.1847 327.894 15.7405 327.563 15.4389C327.235 15.134 326.844 14.9815 326.39 14.9815C325.704 14.9815 325.165 15.3196 324.774 15.9957C324.383 16.6719 324.186 17.6446 324.182 18.9141C324.182 19.7625 324.27 20.4801 324.446 21.0668C324.625 21.6501 324.878 22.0926 325.206 22.3942C325.535 22.6925 325.929 22.8416 326.39 22.8416Z" fill="white"/>
</svg>
