<svg width="358" height="52" viewBox="0 0 358 52" fill="none" xmlns="http://www.w3.org/2000/svg">
<path d="M0 24C0 10.7452 10.7452 0 24 0H334C347.255 0 358 10.7452 358 24V28C358 41.2548 347.255 52 334 52H24C10.7452 52 0 41.2548 0 28V24Z" fill="#C4FF00"/>
<path d="M165.072 31.5L161.742 19.8636H164.43L166.356 27.9489H166.452L168.577 19.8636H170.878L172.998 27.9659H173.1L175.026 19.8636H177.714L174.384 31.5H171.986L169.77 23.892H169.68L167.469 31.5H165.072ZM178.665 31.5V22.7727H181.085V31.5H178.665ZM179.881 21.6477C179.521 21.6477 179.212 21.5284 178.955 21.2898C178.701 21.0473 178.574 20.7576 178.574 20.4205C178.574 20.0871 178.701 19.8011 178.955 19.5625C179.212 19.3201 179.521 19.1989 179.881 19.1989C180.241 19.1989 180.548 19.3201 180.801 19.5625C181.059 19.8011 181.188 20.0871 181.188 20.4205C181.188 20.7576 181.059 21.0473 180.801 21.2898C180.548 21.5284 180.241 21.6477 179.881 21.6477ZM185.125 26.4545V31.5H182.704V22.7727H185.011V24.3125H185.113C185.307 23.8049 185.63 23.4034 186.085 23.108C186.54 22.8087 187.091 22.6591 187.738 22.6591C188.344 22.6591 188.873 22.7917 189.324 23.0568C189.774 23.322 190.125 23.7008 190.375 24.1932C190.625 24.6818 190.75 25.2652 190.75 25.9432V31.5H188.329V26.375C188.333 25.8409 188.197 25.4242 187.92 25.125C187.644 24.822 187.263 24.6705 186.778 24.6705C186.452 24.6705 186.165 24.7405 185.915 24.8807C185.668 25.0208 185.475 25.2254 185.335 25.4943C185.199 25.7595 185.129 26.0795 185.125 26.4545ZM195.23 19.8636L195.008 28.0114H192.928L192.701 19.8636H195.23ZM193.968 31.6477C193.593 31.6477 193.271 31.5152 193.002 31.25C192.733 30.9811 192.601 30.6591 192.605 30.2841C192.601 29.9129 192.733 29.5947 193.002 29.3295C193.271 29.0644 193.593 28.9318 193.968 28.9318C194.328 28.9318 194.644 29.0644 194.917 29.3295C195.19 29.5947 195.328 29.9129 195.332 30.2841C195.328 30.5341 195.262 30.7633 195.133 30.9716C195.008 31.1761 194.843 31.3409 194.639 31.4659C194.434 31.5871 194.211 31.6477 193.968 31.6477Z" fill="#242424"/>
</svg>
