<svg width="132" height="49" viewBox="0 0 132 49" fill="none" xmlns="http://www.w3.org/2000/svg">
<path d="M1.12334 14V3.81818H5.14038C5.91264 3.81818 6.57055 3.96567 7.11411 4.26065C7.65767 4.55232 8.07197 4.95833 8.357 5.47869C8.64536 5.99574 8.78953 6.59233 8.78953 7.26847C8.78953 7.9446 8.6437 8.54119 8.35203 9.05824C8.06037 9.57528 7.63778 9.97798 7.08428 10.2663C6.53409 10.5547 5.86789 10.6989 5.0857 10.6989H2.52533V8.97372H4.73769C5.15198 8.97372 5.49337 8.90246 5.76183 8.75994C6.03361 8.61411 6.23579 8.41359 6.36837 8.15838C6.50426 7.89986 6.5722 7.60322 6.5722 7.26847C6.5722 6.9304 6.50426 6.63542 6.36837 6.38352C6.23579 6.12831 6.03361 5.93111 5.76183 5.7919C5.49005 5.64938 5.14536 5.57812 4.72774 5.57812H3.27604V14H1.12334ZM11.9859 3.81818V14H9.86802V3.81818H11.9859ZM18.2995 10.7486V6.36364H20.4174V14H18.384V12.6129H18.3045C18.1321 13.0604 17.8454 13.42 17.4444 13.6918C17.0466 13.9635 16.5611 14.0994 15.9877 14.0994C15.4773 14.0994 15.0282 13.9834 14.6404 13.7514C14.2526 13.5194 13.9493 13.1896 13.7306 12.7621C13.5152 12.3345 13.4058 11.8224 13.4025 11.2259V6.36364H15.5204V10.848C15.5237 11.2988 15.6447 11.6551 15.8833 11.9169C16.1219 12.1787 16.4418 12.3097 16.8428 12.3097C17.098 12.3097 17.3367 12.2517 17.5587 12.1357C17.7808 12.0163 17.9598 11.8407 18.0957 11.6087C18.2349 11.3767 18.3028 11.09 18.2995 10.7486ZM28.1852 8.54119L26.2462 8.66051C26.2131 8.49479 26.1418 8.34564 26.0325 8.21307C25.9231 8.07718 25.7789 7.96946 25.5999 7.88991C25.4243 7.80705 25.2138 7.76562 24.9685 7.76562C24.6404 7.76562 24.3637 7.83523 24.1383 7.97443C23.9129 8.11032 23.8002 8.29261 23.8002 8.52131C23.8002 8.7036 23.8731 8.85772 24.019 8.98366C24.1648 9.10961 24.415 9.2107 24.7697 9.28693L26.1518 9.56534C26.8942 9.7178 27.4477 9.96307 27.8123 10.3011C28.1769 10.6392 28.3592 11.0833 28.3592 11.6335C28.3592 12.134 28.2117 12.5732 27.9167 12.951C27.625 13.3288 27.224 13.6238 26.7136 13.8359C26.2065 14.0447 25.6215 14.1491 24.9586 14.1491C23.9477 14.1491 23.1423 13.9387 22.5424 13.5178C21.9458 13.0935 21.5961 12.5168 21.4934 11.7876L23.5765 11.6783C23.6395 11.9865 23.7919 12.2218 24.0339 12.3842C24.2758 12.5433 24.5857 12.6229 24.9636 12.6229C25.3348 12.6229 25.6331 12.5516 25.8584 12.4091C26.0871 12.2633 26.2031 12.076 26.2065 11.8473C26.2031 11.6551 26.1219 11.4976 25.9628 11.375C25.8038 11.2491 25.5585 11.1529 25.2271 11.0866L23.9046 10.8232C23.1589 10.674 22.6037 10.4155 22.2391 10.0476C21.8779 9.67969 21.6972 9.2107 21.6972 8.64062C21.6972 8.15009 21.8298 7.72751 22.095 7.37287C22.3634 7.01823 22.7396 6.74479 23.2235 6.55256C23.7107 6.36032 24.2808 6.2642 24.9337 6.2642C25.8982 6.2642 26.6572 6.46804 27.2107 6.87571C27.7675 7.28338 28.0923 7.83854 28.1852 8.54119ZM31.5307 9.58523V14H29.4128V3.81818H31.471V7.71094H31.5605C31.7329 7.26018 32.0113 6.9072 32.3957 6.65199C32.7802 6.39347 33.2625 6.2642 33.8425 6.2642C34.3728 6.2642 34.8351 6.38021 35.2295 6.61222C35.6273 6.84091 35.9355 7.17069 36.1543 7.60156C36.3763 8.02912 36.4857 8.54119 36.4824 9.13778V14H34.3645V9.51562C34.3678 9.04498 34.2485 8.67874 34.0065 8.4169C33.7679 8.15507 33.4331 8.02415 33.0023 8.02415C32.7139 8.02415 32.4587 8.08546 32.2366 8.2081C32.0179 8.33073 31.8455 8.50971 31.7196 8.74503C31.597 8.97704 31.534 9.2571 31.5307 9.58523ZM40.8691 14V3.81818H44.8862C45.6584 3.81818 46.3163 3.96567 46.8599 4.26065C47.4034 4.55232 47.8177 4.95833 48.1028 5.47869C48.3911 5.99574 48.5353 6.59233 48.5353 7.26847C48.5353 7.9446 48.3895 8.54119 48.0978 9.05824C47.8061 9.57528 47.3836 9.97798 46.8301 10.2663C46.2799 10.5547 45.6137 10.6989 44.8315 10.6989H42.2711V8.97372H44.4835C44.8978 8.97372 45.2391 8.90246 45.5076 8.75994C45.7794 8.61411 45.9816 8.41359 46.1141 8.15838C46.25 7.89986 46.318 7.60322 46.318 7.26847C46.318 6.9304 46.25 6.63542 46.1141 6.38352C45.9816 6.12831 45.7794 5.93111 45.5076 5.7919C45.2358 5.64938 44.8911 5.57812 44.4735 5.57812H43.0218V14H40.8691ZM52.9709 14.1491C52.1854 14.1491 51.5092 13.9901 50.9425 13.6719C50.379 13.3504 49.9448 12.8963 49.6399 12.3097C49.335 11.7197 49.1825 11.022 49.1825 10.2166C49.1825 9.43111 49.335 8.74171 49.6399 8.14844C49.9448 7.55516 50.374 7.0928 50.9275 6.76136C51.4844 6.42992 52.1373 6.2642 52.8864 6.2642C53.3901 6.2642 53.8591 6.34541 54.2933 6.50781C54.7308 6.6669 55.112 6.9072 55.4368 7.22869C55.7649 7.55019 56.0201 7.95455 56.2024 8.44176C56.3847 8.92566 56.4758 9.49242 56.4758 10.142V10.7237H50.0277V9.41122H54.4822C54.4822 9.1063 54.4159 8.83617 54.2834 8.60085C54.1508 8.36553 53.9668 8.18158 53.7315 8.04901C53.4995 7.91312 53.2294 7.84517 52.9212 7.84517C52.5997 7.84517 52.3146 7.91974 52.066 8.06889C51.8208 8.21473 51.6285 8.41193 51.4893 8.66051C51.3501 8.90578 51.2789 9.17921 51.2756 9.48082V10.7287C51.2756 11.1065 51.3452 11.433 51.4844 11.7081C51.6269 11.9832 51.8274 12.1953 52.0859 12.3445C52.3444 12.4936 52.651 12.5682 53.0057 12.5682C53.241 12.5682 53.4564 12.535 53.652 12.4688C53.8475 12.4025 54.0149 12.303 54.1541 12.1705C54.2933 12.0379 54.3994 11.8755 54.4723 11.6832L56.4311 11.8125C56.3317 12.2831 56.1278 12.6941 55.8196 13.0455C55.5147 13.3935 55.1203 13.6652 54.6364 13.8608C54.1558 14.053 53.6006 14.1491 52.9709 14.1491ZM57.5779 16.8636V6.36364H59.666V7.64631H59.7605C59.8533 7.44081 59.9875 7.23201 60.1632 7.01989C60.3421 6.80445 60.5742 6.62547 60.8592 6.48295C61.1475 6.33712 61.5055 6.2642 61.9331 6.2642C62.4899 6.2642 63.0036 6.41004 63.4742 6.7017C63.9449 6.99006 64.3211 7.4259 64.6028 8.00923C64.8845 8.58925 65.0254 9.31676 65.0254 10.1918C65.0254 11.0436 64.8878 11.7628 64.6127 12.3494C64.341 12.9328 63.9697 13.3752 63.4991 13.6768C63.0318 13.9751 62.5081 14.1243 61.9281 14.1243C61.5171 14.1243 61.1674 14.0563 60.8791 13.9205C60.594 13.7846 60.3604 13.6139 60.1781 13.4084C59.9958 13.1996 59.8566 12.9891 59.7605 12.777H59.6958V16.8636H57.5779ZM59.6511 10.1818C59.6511 10.6359 59.7141 11.032 59.84 11.37C59.966 11.7081 60.1483 11.9716 60.3869 12.1605C60.6255 12.3461 60.9155 12.4389 61.2569 12.4389C61.6016 12.4389 61.8933 12.3445 62.1319 12.1555C62.3706 11.9633 62.5512 11.6982 62.6738 11.3601C62.7998 11.0187 62.8627 10.6259 62.8627 10.1818C62.8627 9.741 62.8014 9.35322 62.6788 9.01847C62.5562 8.68371 62.3755 8.42187 62.1369 8.23295C61.8983 8.04403 61.6049 7.94957 61.2569 7.94957C60.9122 7.94957 60.6206 8.04072 60.3819 8.22301C60.1466 8.4053 59.966 8.66383 59.84 8.99858C59.7141 9.33333 59.6511 9.72775 59.6511 10.1818ZM69.6374 14.1491C68.8519 14.1491 68.1758 13.9901 67.609 13.6719C67.0456 13.3504 66.6114 12.8963 66.3065 12.3097C66.0015 11.7197 65.8491 11.022 65.8491 10.2166C65.8491 9.43111 66.0015 8.74171 66.3065 8.14844C66.6114 7.55516 67.0406 7.0928 67.5941 6.76136C68.1509 6.42992 68.8039 6.2642 69.5529 6.2642C70.0567 6.2642 70.5257 6.34541 70.9599 6.50781C71.3974 6.6669 71.7785 6.9072 72.1033 7.22869C72.4315 7.55019 72.6867 7.95455 72.869 8.44176C73.0513 8.92566 73.1424 9.49242 73.1424 10.142V10.7237H66.6943V9.41122H71.1488C71.1488 9.1063 71.0825 8.83617 70.9499 8.60085C70.8174 8.36553 70.6334 8.18158 70.3981 8.04901C70.1661 7.91312 69.896 7.84517 69.5877 7.84517C69.2662 7.84517 68.9812 7.91974 68.7326 8.06889C68.4873 8.21473 68.2951 8.41193 68.1559 8.66051C68.0167 8.90578 67.9454 9.17921 67.9421 9.48082V10.7287C67.9421 11.1065 68.0117 11.433 68.1509 11.7081C68.2934 11.9832 68.494 12.1953 68.7525 12.3445C69.011 12.4936 69.3176 12.5682 69.6722 12.5682C69.9076 12.5682 70.123 12.535 70.3185 12.4688C70.5141 12.4025 70.6815 12.303 70.8207 12.1705C70.9599 12.0379 71.0659 11.8755 71.1389 11.6832L73.0977 11.8125C72.9982 12.2831 72.7944 12.6941 72.4862 13.0455C72.1812 13.3935 71.7868 13.6652 71.3029 13.8608C70.8223 14.053 70.2672 14.1491 69.6374 14.1491Z" fill="white"/>
<path d="M77.5357 9.63636C77.5357 8.57102 77.6763 7.59233 77.9576 6.70028C78.2417 5.8054 78.6635 4.97869 79.2232 4.22017H80.6763C80.4604 4.50142 80.2587 4.84659 80.0712 5.25568C79.8837 5.66193 79.7204 6.10795 79.5812 6.59375C79.4448 7.0767 79.3368 7.57812 79.2573 8.09801C79.1806 8.6179 79.1422 9.13068 79.1422 9.63636C79.1422 10.3097 79.209 10.9915 79.3425 11.6818C79.4789 12.3722 79.6621 13.0128 79.8922 13.6037C80.1252 14.1918 80.3866 14.6733 80.6763 15.0483H79.2232C78.6635 14.2898 78.2417 13.4645 77.9576 12.5724C77.6763 11.6776 77.5357 10.6989 77.5357 9.63636ZM81.703 14V5.27273H84.9757C85.6462 5.27273 86.2087 5.3892 86.6632 5.62216C87.1206 5.85511 87.4658 6.18182 87.6988 6.60227C87.9346 7.01989 88.0525 7.5071 88.0525 8.06392C88.0525 8.62358 87.9331 9.10937 87.6945 9.52131C87.4587 9.9304 87.1107 10.2472 86.6505 10.4716C86.1902 10.6932 85.6249 10.804 84.9544 10.804H82.6235V9.49148H84.7414C85.1334 9.49148 85.4544 9.4375 85.7044 9.32955C85.9544 9.21875 86.1391 9.05824 86.2584 8.84801C86.3806 8.63494 86.4417 8.37358 86.4417 8.06392C86.4417 7.75426 86.3806 7.49006 86.2584 7.27131C86.1363 7.04972 85.9502 6.8821 85.7002 6.76847C85.4502 6.65199 85.1277 6.59375 84.7328 6.59375H83.284V14H81.703ZM86.2115 10.0455L88.3721 14H86.6078L84.4857 10.0455H86.2115ZM91.0831 14.1321C90.6683 14.1321 90.2947 14.0582 89.9623 13.9105C89.6328 13.7599 89.3714 13.5384 89.1782 13.2457C88.9879 12.9531 88.8927 12.5923 88.8927 12.1634C88.8927 11.794 88.9609 11.4886 89.0973 11.2472C89.2336 11.0057 89.4197 10.8125 89.6555 10.6676C89.8913 10.5227 90.1569 10.4134 90.4524 10.3395C90.7507 10.2628 91.0589 10.2074 91.3771 10.1733C91.7606 10.1335 92.0717 10.098 92.3103 10.0668C92.549 10.0327 92.7223 9.98153 92.8302 9.91335C92.941 9.84233 92.9964 9.73295 92.9964 9.58523V9.55966C92.9964 9.23864 92.9012 8.99006 92.7109 8.81392C92.5206 8.63778 92.2464 8.54972 91.8884 8.54972C91.5106 8.54972 91.2109 8.6321 90.9893 8.79688C90.7706 8.96165 90.6228 9.15625 90.5461 9.38068L89.1058 9.17614C89.2194 8.77841 89.4069 8.44602 89.6683 8.17898C89.9296 7.90909 90.2492 7.70739 90.6271 7.57386C91.0049 7.4375 91.4225 7.36932 91.8799 7.36932C92.1953 7.36932 92.5092 7.40625 92.8217 7.48011C93.1342 7.55398 93.4197 7.67614 93.6782 7.84659C93.9367 8.0142 94.1441 8.2429 94.3004 8.53267C94.4595 8.82244 94.539 9.18466 94.539 9.61932V14H93.0561V13.1009H93.0049C92.9112 13.2827 92.7791 13.4531 92.6086 13.6122C92.441 13.7685 92.2294 13.8949 91.9737 13.9915C91.7208 14.0852 91.424 14.1321 91.0831 14.1321ZM91.4836 12.9986C91.7933 12.9986 92.0617 12.9375 92.289 12.8153C92.5163 12.6903 92.691 12.5256 92.8132 12.321C92.9382 12.1165 93.0007 11.8935 93.0007 11.652V10.8807C92.9524 10.9205 92.87 10.9574 92.7535 10.9915C92.6399 11.0256 92.512 11.0554 92.37 11.081C92.2279 11.1065 92.0873 11.1293 91.9481 11.1491C91.8089 11.169 91.6882 11.1861 91.5859 11.2003C91.3558 11.2315 91.1498 11.2827 90.968 11.3537C90.7862 11.4247 90.6427 11.5241 90.5376 11.652C90.4325 11.777 90.3799 11.9389 90.3799 12.1378C90.3799 12.4219 90.4836 12.6364 90.691 12.7812C90.8984 12.9261 91.1626 12.9986 91.4836 12.9986ZM97.3928 10.1648V14H95.8501V7.45455H97.3246V8.56676H97.4013C97.5519 8.20028 97.7919 7.90909 98.1215 7.69318C98.4538 7.47727 98.8644 7.36932 99.353 7.36932C99.8047 7.36932 100.198 7.46591 100.533 7.65909C100.871 7.85227 101.133 8.1321 101.317 8.49858C101.505 8.86506 101.597 9.30966 101.594 9.83239V14H100.052V10.071C100.052 9.63352 99.9382 9.29119 99.7109 9.04403C99.4865 8.79687 99.1754 8.6733 98.7777 8.6733C98.5078 8.6733 98.2678 8.73295 98.0575 8.85227C97.8501 8.96875 97.6868 9.13778 97.5675 9.35938C97.451 9.58097 97.3928 9.84943 97.3928 10.1648ZM105.352 14.1151C104.837 14.1151 104.377 13.983 103.971 13.7188C103.565 13.4545 103.244 13.071 103.008 12.5682C102.772 12.0653 102.654 11.4545 102.654 10.7358C102.654 10.0085 102.774 9.39489 103.012 8.89489C103.254 8.39205 103.579 8.01278 103.988 7.7571C104.397 7.49858 104.853 7.36932 105.356 7.36932C105.739 7.36932 106.055 7.43466 106.302 7.56534C106.549 7.69318 106.745 7.84801 106.89 8.02983C107.035 8.20881 107.147 8.37784 107.227 8.53693H107.291V5.27273H108.837V14H107.32V12.9688H107.227C107.147 13.1278 107.032 13.2969 106.881 13.4759C106.731 13.652 106.532 13.8026 106.285 13.9276C106.038 14.0526 105.727 14.1151 105.352 14.1151ZM105.782 12.8494C106.109 12.8494 106.387 12.7614 106.617 12.5852C106.847 12.4062 107.022 12.1577 107.141 11.8395C107.261 11.5213 107.32 11.1506 107.32 10.7273C107.32 10.304 107.261 9.93608 107.141 9.62358C107.025 9.31108 106.852 9.06818 106.622 8.89489C106.394 8.72159 106.114 8.63494 105.782 8.63494C105.438 8.63494 105.151 8.72443 104.921 8.90341C104.691 9.08239 104.518 9.32955 104.401 9.64489C104.285 9.96023 104.227 10.321 104.227 10.7273C104.227 11.1364 104.285 11.5014 104.401 11.8224C104.521 12.1406 104.695 12.392 104.925 12.5767C105.158 12.7585 105.444 12.8494 105.782 12.8494ZM113.096 14.1278C112.457 14.1278 111.903 13.9872 111.434 13.706C110.966 13.4247 110.602 13.0312 110.344 12.5256C110.088 12.0199 109.96 11.429 109.96 10.7528C109.96 10.0767 110.088 9.48437 110.344 8.97585C110.602 8.46733 110.966 8.07244 111.434 7.79119C111.903 7.50994 112.457 7.36932 113.096 7.36932C113.736 7.36932 114.29 7.50994 114.758 7.79119C115.227 8.07244 115.589 8.46733 115.845 8.97585C116.103 9.48437 116.233 10.0767 116.233 10.7528C116.233 11.429 116.103 12.0199 115.845 12.5256C115.589 13.0312 115.227 13.4247 114.758 13.706C114.29 13.9872 113.736 14.1278 113.096 14.1278ZM113.105 12.892C113.451 12.892 113.741 12.7969 113.974 12.6065C114.207 12.4134 114.38 12.1548 114.494 11.831C114.611 11.5071 114.669 11.1463 114.669 10.7486C114.669 10.348 114.611 9.9858 114.494 9.66193C114.38 9.33523 114.207 9.07528 113.974 8.8821C113.741 8.68892 113.451 8.59233 113.105 8.59233C112.75 8.59233 112.454 8.68892 112.219 8.8821C111.986 9.07528 111.811 9.33523 111.694 9.66193C111.581 9.9858 111.524 10.348 111.524 10.7486C111.524 11.1463 111.581 11.5071 111.694 11.831C111.811 12.1548 111.986 12.4134 112.219 12.6065C112.454 12.7969 112.75 12.892 113.105 12.892ZM117.302 14V7.45455H118.776V8.56676H118.853C118.99 8.19176 119.215 7.89915 119.531 7.68892C119.846 7.47585 120.222 7.36932 120.66 7.36932C121.103 7.36932 121.477 7.47727 121.781 7.69318C122.088 7.90625 122.303 8.19744 122.428 8.56676H122.497C122.642 8.20312 122.886 7.91335 123.23 7.69744C123.576 7.47869 123.987 7.36932 124.461 7.36932C125.063 7.36932 125.555 7.55966 125.936 7.94034C126.316 8.32102 126.507 8.87642 126.507 9.60653V14H124.96V9.84517C124.96 9.43892 124.852 9.14205 124.636 8.95455C124.42 8.7642 124.156 8.66903 123.843 8.66903C123.471 8.66903 123.18 8.78551 122.97 9.01847C122.762 9.24858 122.659 9.5483 122.659 9.91761V14H121.146V9.78125C121.146 9.44318 121.044 9.1733 120.839 8.97159C120.637 8.76989 120.373 8.66903 120.046 8.66903C119.825 8.66903 119.623 8.72585 119.441 8.83949C119.259 8.95028 119.115 9.10795 119.007 9.3125C118.899 9.5142 118.845 9.75 118.845 10.0199V14H117.302ZM130.584 10.4418C130.584 11.5043 130.442 12.483 130.158 13.3778C129.877 14.2699 129.457 15.0952 128.897 15.8537H127.444C127.663 15.5724 127.864 15.2287 128.049 14.8224C128.236 14.4162 128.398 13.9702 128.535 13.4844C128.674 12.9986 128.782 12.4957 128.859 11.9759C128.938 11.456 128.978 10.9446 128.978 10.4418C128.978 9.76847 128.91 9.08665 128.773 8.39631C128.64 7.70597 128.457 7.06534 128.224 6.47443C127.993 5.88352 127.734 5.40057 127.444 5.02557H128.897C129.457 5.78409 129.877 6.6108 130.158 7.50568C130.442 8.39773 130.584 9.37642 130.584 10.4418Z" fill="white" fill-opacity="0.5"/>
<rect x="5.5" y="21" width="71" height="28" rx="14" fill="white" fill-opacity="0.05"/>
<path d="M18.6349 39.6193C18.0212 39.6193 17.4758 39.5142 16.9985 39.304C16.5241 39.0937 16.1491 38.8011 15.8735 38.4261C15.5979 38.0511 15.4516 37.6179 15.4346 37.1264H17.0368C17.0511 37.3622 17.1292 37.5682 17.2712 37.7443C17.4133 37.9176 17.6022 38.0526 17.838 38.1491C18.0738 38.2457 18.338 38.294 18.6306 38.294C18.9431 38.294 19.2201 38.2401 19.4616 38.1321C19.703 38.0213 19.892 37.8679 20.0283 37.6719C20.1647 37.4759 20.2314 37.25 20.2286 36.9943C20.2314 36.7301 20.1633 36.4972 20.0241 36.2955C19.8849 36.0937 19.6832 35.9361 19.4189 35.8224C19.1576 35.7088 18.8422 35.652 18.4729 35.652H17.7016V34.4332H18.4729C18.7769 34.4332 19.0425 34.3807 19.2698 34.2756C19.4999 34.1705 19.6803 34.0227 19.811 33.8324C19.9417 33.6392 20.0056 33.4162 20.0028 33.1634C20.0056 32.9162 19.9502 32.7017 19.8366 32.5199C19.7258 32.3352 19.5681 32.1918 19.3636 32.0895C19.1618 31.9872 18.9246 31.9361 18.6519 31.9361C18.3849 31.9361 18.1377 31.9844 17.9104 32.081C17.6832 32.1776 17.4999 32.3153 17.3607 32.4943C17.2215 32.6705 17.1476 32.8807 17.1391 33.125H15.6178C15.6292 32.6364 15.7698 32.2074 16.0397 31.8381C16.3124 31.4659 16.6761 31.1761 17.1306 30.9688C17.5851 30.7585 18.0951 30.6534 18.6604 30.6534C19.2428 30.6534 19.7485 30.7628 20.1775 30.9815C20.6093 31.1974 20.9431 31.4886 21.1789 31.8551C21.4147 32.2216 21.5326 32.6264 21.5326 33.0696C21.5354 33.5611 21.3905 33.973 21.0979 34.3054C20.8082 34.6378 20.4275 34.8551 19.9559 34.9574V35.0256C20.5695 35.1108 21.0397 35.3381 21.3664 35.7074C21.6959 36.0739 21.8593 36.5298 21.8564 37.0753C21.8564 37.5639 21.7172 38.0014 21.4388 38.3878C21.1633 38.7713 20.7826 39.0724 20.2968 39.2912C19.8138 39.5099 19.2599 39.6193 18.6349 39.6193ZM26.2113 39.6193C25.5976 39.6193 25.0522 39.5142 24.5749 39.304C24.1005 39.0937 23.7255 38.8011 23.4499 38.4261C23.1743 38.0511 23.028 37.6179 23.011 37.1264H24.6133C24.6275 37.3622 24.7056 37.5682 24.8476 37.7443C24.9897 37.9176 25.1786 38.0526 25.4144 38.1491C25.6502 38.2457 25.9144 38.294 26.207 38.294C26.5195 38.294 26.7965 38.2401 27.038 38.1321C27.2794 38.0213 27.4684 37.8679 27.6047 37.6719C27.7411 37.4759 27.8079 37.25 27.805 36.9943C27.8079 36.7301 27.7397 36.4972 27.6005 36.2955C27.4613 36.0937 27.2596 35.9361 26.9954 35.8224C26.734 35.7088 26.4187 35.652 26.0493 35.652H25.278V34.4332H26.0493C26.3533 34.4332 26.6189 34.3807 26.8462 34.2756C27.0763 34.1705 27.2567 34.0227 27.3874 33.8324C27.5181 33.6392 27.582 33.4162 27.5792 33.1634C27.582 32.9162 27.5266 32.7017 27.413 32.5199C27.3022 32.3352 27.1445 32.1918 26.94 32.0895C26.7383 31.9872 26.501 31.9361 26.2283 31.9361C25.9613 31.9361 25.7141 31.9844 25.4868 32.081C25.2596 32.1776 25.0763 32.3153 24.9371 32.4943C24.7979 32.6705 24.724 32.8807 24.7155 33.125H23.1942C23.2056 32.6364 23.3462 32.2074 23.6161 31.8381C23.8888 31.4659 24.2525 31.1761 24.707 30.9688C25.1615 30.7585 25.6715 30.6534 26.2368 30.6534C26.8192 30.6534 27.3249 30.7628 27.7539 30.9815C28.1857 31.1974 28.5195 31.4886 28.7553 31.8551C28.9911 32.2216 29.109 32.6264 29.109 33.0696C29.1118 33.5611 28.9669 33.973 28.6743 34.3054C28.3846 34.6378 28.0039 34.8551 27.5323 34.9574V35.0256C28.1459 35.1108 28.6161 35.3381 28.9428 35.7074C29.2723 36.0739 29.4357 36.5298 29.4329 37.0753C29.4329 37.5639 29.2937 38.0014 29.0152 38.3878C28.7397 38.7713 28.359 39.0724 27.8732 39.2912C27.3902 39.5099 26.8363 39.6193 26.2113 39.6193ZM33.7877 39.6193C33.174 39.6193 32.6286 39.5142 32.1513 39.304C31.6769 39.0937 31.3019 38.8011 31.0263 38.4261C30.7507 38.0511 30.6044 37.6179 30.5874 37.1264H32.1897C32.2039 37.3622 32.282 37.5682 32.424 37.7443C32.5661 37.9176 32.755 38.0526 32.9908 38.1491C33.2266 38.2457 33.4908 38.294 33.7834 38.294C34.0959 38.294 34.3729 38.2401 34.6144 38.1321C34.8559 38.0213 35.0448 37.8679 35.1811 37.6719C35.3175 37.4759 35.3843 37.25 35.3814 36.9943C35.3843 36.7301 35.3161 36.4972 35.1769 36.2955C35.0377 36.0937 34.836 35.9361 34.5718 35.8224C34.3104 35.7088 33.9951 35.652 33.6257 35.652H32.8544V34.4332H33.6257C33.9297 34.4332 34.1953 34.3807 34.4226 34.2756C34.6527 34.1705 34.8331 34.0227 34.9638 33.8324C35.0945 33.6392 35.1584 33.4162 35.1556 33.1634C35.1584 32.9162 35.103 32.7017 34.9894 32.5199C34.8786 32.3352 34.7209 32.1918 34.5164 32.0895C34.3147 31.9872 34.0774 31.9361 33.8047 31.9361C33.5377 31.9361 33.2905 31.9844 33.0632 32.081C32.836 32.1776 32.6527 32.3153 32.5135 32.4943C32.3743 32.6705 32.3005 32.8807 32.2919 33.125H30.7706C30.782 32.6364 30.9226 32.2074 31.1925 31.8381C31.4652 31.4659 31.8289 31.1761 32.2834 30.9688C32.738 30.7585 33.2479 30.6534 33.8132 30.6534C34.3956 30.6534 34.9013 30.7628 35.3303 30.9815C35.7621 31.1974 36.0959 31.4886 36.3317 31.8551C36.5675 32.2216 36.6854 32.6264 36.6854 33.0696C36.6882 33.5611 36.5434 33.973 36.2507 34.3054C35.961 34.6378 35.5803 34.8551 35.1087 34.9574V35.0256C35.7223 35.1108 36.1925 35.3381 36.5192 35.7074C36.8488 36.0739 37.0121 36.5298 37.0093 37.0753C37.0093 37.5639 36.8701 38.0014 36.5916 38.3878C36.3161 38.7713 35.9354 39.0724 35.4496 39.2912C34.9666 39.5099 34.4127 39.6193 33.7877 39.6193ZM41.3641 39.6193C40.7504 39.6193 40.205 39.5142 39.7277 39.304C39.2533 39.0937 38.8783 38.8011 38.6027 38.4261C38.3271 38.0511 38.1808 37.6179 38.1638 37.1264H39.7661C39.7803 37.3622 39.8584 37.5682 40.0004 37.7443C40.1425 37.9176 40.3314 38.0526 40.5672 38.1491C40.803 38.2457 41.0672 38.294 41.3598 38.294C41.6723 38.294 41.9493 38.2401 42.1908 38.1321C42.4323 38.0213 42.6212 37.8679 42.7575 37.6719C42.8939 37.4759 42.9607 37.25 42.9578 36.9943C42.9607 36.7301 42.8925 36.4972 42.7533 36.2955C42.6141 36.0937 42.4124 35.9361 42.1482 35.8224C41.8868 35.7088 41.5715 35.652 41.2021 35.652H40.4308V34.4332H41.2021C41.5061 34.4332 41.7717 34.3807 41.999 34.2756C42.2291 34.1705 42.4095 34.0227 42.5402 33.8324C42.6709 33.6392 42.7348 33.4162 42.732 33.1634C42.7348 32.9162 42.6794 32.7017 42.5658 32.5199C42.455 32.3352 42.2973 32.1918 42.0928 32.0895C41.8911 31.9872 41.6538 31.9361 41.3811 31.9361C41.1141 31.9361 40.8669 31.9844 40.6396 32.081C40.4124 32.1776 40.2291 32.3153 40.0899 32.4943C39.9507 32.6705 39.8769 32.8807 39.8683 33.125H38.347C38.3584 32.6364 38.499 32.2074 38.7689 31.8381C39.0416 31.4659 39.4053 31.1761 39.8598 30.9688C40.3144 30.7585 40.8243 30.6534 41.3896 30.6534C41.972 30.6534 42.4777 30.7628 42.9067 30.9815C43.3385 31.1974 43.6723 31.4886 43.9081 31.8551C44.1439 32.2216 44.2618 32.6264 44.2618 33.0696C44.2646 33.5611 44.1198 33.973 43.8271 34.3054C43.5374 34.6378 43.1567 34.8551 42.6851 34.9574V35.0256C43.2987 35.1108 43.7689 35.3381 44.0956 35.7074C44.4252 36.0739 44.5885 36.5298 44.5857 37.0753C44.5857 37.5639 44.4465 38.0014 44.1681 38.3878C43.8925 38.7713 43.5118 39.0724 43.026 39.2912C42.5431 39.5099 41.9891 39.6193 41.3641 39.6193Z" fill="white"/>
<g clip-path="url(#clip0_87_749)">
<rect x="53.5" y="30" width="10" height="11" fill="white"/>
<path d="M58.5 26C53.5298 26 49.5 30.0298 49.5 35C49.5 39.9702 53.5298 44 58.5 44C63.4702 44 67.5 39.9702 67.5 35C67.5 30.0298 63.4702 26 58.5 26ZM55.4265 31.0228H61.5735C62.7022 31.0228 63.42 32.2438 62.8522 33.2278L59.058 39.8015C59.0013 39.8993 58.9199 39.9804 58.822 40.0369C58.7241 40.0933 58.613 40.123 58.5 40.123C58.387 40.123 58.2759 40.0933 58.178 40.0369C58.0801 39.9804 57.9987 39.8993 57.942 39.8015L54.1492 33.2278C53.5807 32.2423 54.297 31.0228 55.4265 31.0228ZM59.0595 32.1447V37.8297L59.886 36.2338L61.878 32.6667C61.9085 32.6135 61.9244 32.5531 61.9241 32.4917C61.9238 32.4303 61.9072 32.3701 61.8762 32.3171C61.8452 32.2642 61.8007 32.2203 61.7473 32.1901C61.6938 32.1598 61.6334 32.1442 61.572 32.1447H59.0595ZM55.425 32.1462C55.3637 32.1456 55.3034 32.1611 55.2501 32.1912C55.1967 32.2214 55.1523 32.2651 55.1212 32.3179C55.0902 32.3707 55.0736 32.4307 55.0732 32.492C55.0728 32.5533 55.0886 32.6135 55.119 32.6667L57.1125 36.2322L57.939 37.8297V32.1462H55.425Z" fill="#0077FF"/>
</g>
<rect x="78.5" y="21" width="48" height="28" rx="14" fill="white" fill-opacity="0.02"/>
<path opacity="0.5" d="M93.8801 39.6193C93.2665 39.6193 92.721 39.5142 92.2437 39.304C91.7693 39.0937 91.3943 38.8011 91.1187 38.4261C90.8432 38.0511 90.6969 37.6179 90.6798 37.1264H92.2821C92.2963 37.3622 92.3744 37.5682 92.5165 37.7443C92.6585 37.9176 92.8474 38.0526 93.0832 38.1491C93.319 38.2457 93.5832 38.294 93.8758 38.294C94.1883 38.294 94.4653 38.2401 94.7068 38.1321C94.9483 38.0213 95.1372 37.8679 95.2736 37.6719C95.4099 37.4759 95.4767 37.25 95.4738 36.9943C95.4767 36.7301 95.4085 36.4972 95.2693 36.2955C95.1301 36.0937 94.9284 35.9361 94.6642 35.8224C94.4028 35.7088 94.0875 35.652 93.7182 35.652H92.9469V34.4332H93.7182C94.0221 34.4332 94.2878 34.3807 94.515 34.2756C94.7451 34.1705 94.9255 34.0227 95.0562 33.8324C95.1869 33.6392 95.2508 33.4162 95.248 33.1634C95.2508 32.9162 95.1954 32.7017 95.0818 32.5199C94.971 32.3352 94.8133 32.1918 94.6088 32.0895C94.4071 31.9872 94.1699 31.9361 93.8971 31.9361C93.6301 31.9361 93.3829 31.9844 93.1557 32.081C92.9284 32.1776 92.7451 32.3153 92.6059 32.4943C92.4667 32.6705 92.3929 32.8807 92.3844 33.125H90.863C90.8744 32.6364 91.015 32.2074 91.2849 31.8381C91.5576 31.4659 91.9213 31.1761 92.3758 30.9688C92.8304 30.7585 93.3403 30.6534 93.9057 30.6534C94.488 30.6534 94.9937 30.7628 95.4227 30.9815C95.8545 31.1974 96.1883 31.4886 96.4241 31.8551C96.6599 32.2216 96.7778 32.6264 96.7778 33.0696C96.7807 33.5611 96.6358 33.973 96.3432 34.3054C96.0534 34.6378 95.6727 34.8551 95.2011 34.9574V35.0256C95.8148 35.1108 96.2849 35.3381 96.6116 35.7074C96.9412 36.0739 97.1045 36.5298 97.1017 37.0753C97.1017 37.5639 96.9625 38.0014 96.6841 38.3878C96.4085 38.7713 96.0278 39.0724 95.542 39.2912C95.0591 39.5099 94.5051 39.6193 93.8801 39.6193ZM101.358 39.6193C100.79 39.6193 100.282 39.5128 99.8329 39.2997C99.3841 39.0838 99.0275 38.7884 98.7633 38.4134C98.502 38.0384 98.3627 37.6094 98.3457 37.1264H99.8798C99.9082 37.4844 100.063 37.777 100.344 38.0043C100.626 38.2287 100.964 38.3409 101.358 38.3409C101.668 38.3409 101.944 38.2699 102.185 38.1278C102.427 37.9858 102.617 37.7884 102.756 37.5355C102.895 37.2827 102.964 36.9943 102.961 36.6705C102.964 36.3409 102.894 36.0483 102.752 35.7926C102.61 35.5369 102.415 35.3366 102.168 35.1918C101.921 35.044 101.637 34.9702 101.316 34.9702C101.055 34.9673 100.797 35.0156 100.545 35.1151C100.292 35.2145 100.091 35.3452 99.9437 35.5071L98.5162 35.2727L98.9721 30.7727H104.035V32.0938H100.28L100.029 34.4077H100.08C100.242 34.2173 100.471 34.0597 100.766 33.9347C101.062 33.8068 101.385 33.7429 101.738 33.7429C102.266 33.7429 102.738 33.8679 103.153 34.1179C103.567 34.3651 103.894 34.706 104.133 35.1406C104.371 35.5753 104.491 36.0724 104.491 36.6321C104.491 37.2088 104.357 37.723 104.09 38.1747C103.826 38.6236 103.458 38.9773 102.986 39.2358C102.518 39.4915 101.975 39.6193 101.358 39.6193ZM110.344 37.8636V37.4034C110.344 37.0653 110.415 36.7543 110.557 36.4702C110.702 36.1861 110.913 35.9574 111.188 35.7841C111.464 35.6108 111.797 35.5241 112.19 35.5241C112.593 35.5241 112.931 35.6108 113.204 35.7841C113.476 35.9545 113.682 36.1818 113.822 36.4659C113.964 36.75 114.035 37.0625 114.035 37.4034V37.8636C114.035 38.2017 113.964 38.5128 113.822 38.7969C113.68 39.081 113.471 39.3097 113.195 39.483C112.922 39.6563 112.587 39.7429 112.19 39.7429C111.792 39.7429 111.455 39.6563 111.18 39.483C110.904 39.3097 110.695 39.081 110.553 38.7969C110.414 38.5128 110.344 38.2017 110.344 37.8636ZM111.457 37.4034V37.8636C111.457 38.0881 111.511 38.294 111.618 38.4815C111.726 38.669 111.917 38.7628 112.19 38.7628C112.465 38.7628 112.654 38.6705 112.756 38.4858C112.861 38.2983 112.914 38.0909 112.914 37.8636V37.4034C112.914 37.1761 112.864 36.9688 112.765 36.7812C112.665 36.5909 112.474 36.4957 112.19 36.4957C111.922 36.4957 111.734 36.5909 111.623 36.7812C111.512 36.9688 111.457 37.1761 111.457 37.4034ZM105.908 32.8693V32.4091C105.908 32.0682 105.981 31.7557 106.126 31.4716C106.27 31.1875 106.481 30.9602 106.756 30.7898C107.032 30.6165 107.366 30.5298 107.758 30.5298C108.158 30.5298 108.495 30.6165 108.768 30.7898C109.043 30.9602 109.251 31.1875 109.39 31.4716C109.529 31.7557 109.599 32.0682 109.599 32.4091V32.8693C109.599 33.2102 109.528 33.5227 109.386 33.8068C109.246 34.0881 109.039 34.3139 108.763 34.4844C108.488 34.6548 108.153 34.7401 107.758 34.7401C107.357 34.7401 107.019 34.6548 106.743 34.4844C106.471 34.3139 106.263 34.0866 106.121 33.8026C105.979 33.5185 105.908 33.2074 105.908 32.8693ZM107.029 32.4091V32.8693C107.029 33.0966 107.082 33.304 107.187 33.4915C107.295 33.6761 107.485 33.7685 107.758 33.7685C108.03 33.7685 108.218 33.6761 108.32 33.4915C108.425 33.304 108.478 33.0966 108.478 32.8693V32.4091C108.478 32.1818 108.428 31.9744 108.329 31.7869C108.229 31.5966 108.039 31.5014 107.758 31.5014C107.488 31.5014 107.299 31.5966 107.191 31.7869C107.083 31.9773 107.029 32.1847 107.029 32.4091ZM106.394 39.5L112.394 30.7727H113.459L107.459 39.5H106.394Z" fill="white"/>
<defs>
<clipPath id="clip0_87_749">
<rect width="18" height="18" fill="white" transform="translate(49.5 26)"/>
</clipPath>
</defs>
</svg>
