<svg width="358" height="32" viewBox="0 0 358 32" fill="none" xmlns="http://www.w3.org/2000/svg">
<path d="M3.80099 23H0.505538L5.52685 8.45455H9.48991L14.5041 23H11.2087L7.5652 11.7784H7.45156L3.80099 23ZM3.59503 17.2827H11.3791V19.6832H3.59503V17.2827ZM20.2192 23.2131C19.1018 23.2131 18.1406 22.9763 17.3357 22.5028C16.5355 22.0246 15.9199 21.3617 15.4891 20.5142C15.0629 19.6667 14.8499 18.6913 14.8499 17.5881C14.8499 16.4706 15.0653 15.4905 15.4962 14.6477C15.9318 13.8002 16.5497 13.1397 17.3499 12.6662C18.15 12.188 19.1018 11.9489 20.205 11.9489C21.1567 11.9489 21.99 12.1217 22.705 12.4673C23.4199 12.813 23.9857 13.2983 24.4024 13.9233C24.8191 14.5483 25.0487 15.2822 25.0913 16.125H22.2362C22.1557 15.5805 21.9427 15.1425 21.597 14.8111C21.2561 14.4749 20.8087 14.3068 20.2547 14.3068C19.7859 14.3068 19.3764 14.4347 19.026 14.6903C18.6803 14.9413 18.4105 15.3082 18.2163 15.7912C18.0222 16.2741 17.9251 16.8589 17.9251 17.5455C17.9251 18.2415 18.0198 18.8333 18.2092 19.321C18.4034 19.8087 18.6756 20.1804 19.026 20.4361C19.3764 20.6918 19.7859 20.8196 20.2547 20.8196C20.6003 20.8196 20.9105 20.7486 21.1851 20.6065C21.4644 20.4645 21.6941 20.2585 21.874 19.9886C22.0587 19.714 22.1794 19.3849 22.2362 19.0014H25.0913C25.044 19.8348 24.8167 20.5687 24.4095 21.2031C24.0071 21.8329 23.4507 22.3253 22.7405 22.6804C22.0303 23.0355 21.1898 23.2131 20.2192 23.2131ZM32.431 12.0909V14.3636H25.8614V12.0909H32.431ZM27.3529 9.47727H30.3785V19.6477C30.3785 19.9271 30.4211 20.1449 30.5063 20.3011C30.5915 20.4527 30.7099 20.5592 30.8614 20.6207C31.0177 20.6823 31.1976 20.7131 31.4012 20.7131C31.5433 20.7131 31.6853 20.7012 31.8273 20.6776C31.9694 20.6491 32.0783 20.6278 32.154 20.6136L32.6299 22.8651C32.4784 22.9124 32.2653 22.9669 31.9907 23.0284C31.7161 23.0947 31.3823 23.1349 30.9893 23.1491C30.2601 23.1776 29.6209 23.0805 29.0717 22.858C28.5272 22.6354 28.1034 22.2898 27.8004 21.821C27.4973 21.3523 27.3482 20.7604 27.3529 20.0455V9.47727ZM34.0019 23V12.0909H37.0275V23H34.0019ZM35.5218 10.6847C35.072 10.6847 34.6861 10.5355 34.3641 10.2372C34.0469 9.93419 33.8883 9.57197 33.8883 9.15057C33.8883 8.7339 34.0469 8.37642 34.3641 8.07812C34.6861 7.77509 35.072 7.62358 35.5218 7.62358C35.9716 7.62358 36.3551 7.77509 36.6724 8.07812C36.9943 8.37642 37.1553 8.7339 37.1553 9.15057C37.1553 9.57197 36.9943 9.93419 36.6724 10.2372C36.3551 10.5355 35.9716 10.6847 35.5218 10.6847ZM49.2216 12.0909L45.4077 23H41.9986L38.1847 12.0909H41.3807L43.6463 19.8963H43.7599L46.0185 12.0909H49.2216ZM54.9899 23.2131C53.8678 23.2131 52.9018 22.9858 52.0922 22.5312C51.2873 22.072 50.667 21.4233 50.2314 20.5852C49.7958 19.7424 49.578 18.7457 49.578 17.5952C49.578 16.473 49.7958 15.4882 50.2314 14.6406C50.667 13.7931 51.2802 13.1326 52.0709 12.6591C52.8663 12.1856 53.7991 11.9489 54.8692 11.9489C55.5889 11.9489 56.2589 12.0649 56.8791 12.2969C57.5041 12.5241 58.0486 12.8674 58.5126 13.3267C58.9814 13.786 59.346 14.3636 59.6064 15.0597C59.8668 15.7509 59.997 16.5606 59.997 17.4886V18.3196H50.7854V16.4446H57.149C57.149 16.009 57.0543 15.6231 56.8649 15.2869C56.6755 14.9508 56.4127 14.688 56.0766 14.4986C55.7451 14.3045 55.3592 14.2074 54.9189 14.2074C54.4596 14.2074 54.0524 14.3139 53.6973 14.527C53.3469 14.7353 53.0723 15.017 52.8734 15.3722C52.6746 15.7225 52.5728 16.1132 52.568 16.544V18.3267C52.568 18.8665 52.6675 19.3329 52.8663 19.7259C53.0699 20.1188 53.3564 20.4219 53.7257 20.6349C54.095 20.848 54.533 20.9545 55.0396 20.9545C55.3758 20.9545 55.6836 20.9072 55.9629 20.8125C56.2423 20.7178 56.4814 20.5758 56.6803 20.3864C56.8791 20.197 57.0306 19.965 57.1348 19.6903L59.9331 19.875C59.7911 20.5473 59.4999 21.1345 59.0595 21.6364C58.6239 22.1335 58.0605 22.5218 57.3692 22.8011C56.6826 23.0758 55.8895 23.2131 54.9899 23.2131ZM68.8259 8.45455V23H65.8004V8.45455H68.8259ZM75.7786 23.2131C74.6753 23.2131 73.7213 22.9787 72.9163 22.5099C72.1161 22.0365 71.4982 21.3783 71.0626 20.5355C70.627 19.688 70.4092 18.7055 70.4092 17.5881C70.4092 16.4612 70.627 15.4763 71.0626 14.6335C71.4982 13.786 72.1161 13.1278 72.9163 12.6591C73.7213 12.1856 74.6753 11.9489 75.7786 11.9489C76.8818 11.9489 77.8335 12.1856 78.6337 12.6591C79.4386 13.1278 80.0589 13.786 80.4945 14.6335C80.9301 15.4763 81.1479 16.4612 81.1479 17.5881C81.1479 18.7055 80.9301 19.688 80.4945 20.5355C80.0589 21.3783 79.4386 22.0365 78.6337 22.5099C77.8335 22.9787 76.8818 23.2131 75.7786 23.2131ZM75.7928 20.8693C76.2947 20.8693 76.7137 20.7273 77.0499 20.4432C77.386 20.1544 77.6393 19.7614 77.8098 19.2642C77.985 18.767 78.0726 18.2012 78.0726 17.5668C78.0726 16.9323 77.985 16.3665 77.8098 15.8693C77.6393 15.3722 77.386 14.9792 77.0499 14.6903C76.7137 14.4015 76.2947 14.2571 75.7928 14.2571C75.2861 14.2571 74.86 14.4015 74.5143 14.6903C74.1734 14.9792 73.9154 15.3722 73.7402 15.8693C73.5697 16.3665 73.4845 16.9323 73.4845 17.5668C73.4845 18.2012 73.5697 18.767 73.7402 19.2642C73.9154 19.7614 74.1734 20.1544 74.5143 20.4432C74.86 20.7273 75.2861 20.8693 75.7928 20.8693ZM82.772 23V8.45455H85.7976V13.9233H85.8899C86.0225 13.6297 86.2143 13.3314 86.4652 13.0284C86.7209 12.7206 87.0523 12.465 87.4595 12.2614C87.8714 12.053 88.3828 11.9489 88.9936 11.9489C89.7891 11.9489 90.523 12.1572 91.1953 12.5739C91.8677 12.9858 92.4051 13.6084 92.8075 14.4418C93.21 15.2704 93.4112 16.3097 93.4112 17.5597C93.4112 18.7765 93.2147 19.804 92.8217 20.642C92.4335 21.4754 91.9032 22.1075 91.2308 22.5384C90.5632 22.9645 89.8151 23.1776 88.9865 23.1776C88.3994 23.1776 87.8999 23.0805 87.4879 22.8864C87.0807 22.6922 86.7469 22.4484 86.4865 22.1548C86.2261 21.8565 86.0272 21.5559 85.8899 21.2528H85.755V23H82.772ZM85.7337 17.5455C85.7337 18.1941 85.8236 18.7599 86.0036 19.2429C86.1835 19.7259 86.4439 20.1023 86.7848 20.3722C87.1257 20.6373 87.54 20.7699 88.0277 20.7699C88.5201 20.7699 88.9368 20.6349 89.2777 20.3651C89.6186 20.0904 89.8767 19.7116 90.0518 19.2287C90.2318 18.741 90.3217 18.1799 90.3217 17.5455C90.3217 16.9157 90.2341 16.3617 90.0589 15.8835C89.8838 15.4053 89.6257 15.0312 89.2848 14.7614C88.9439 14.4915 88.5249 14.3565 88.0277 14.3565C87.5353 14.3565 87.1186 14.4867 86.7777 14.7472C86.4415 15.0076 86.1835 15.3769 86.0036 15.8551C85.8236 16.3333 85.7337 16.8968 85.7337 17.5455ZM95.0869 23V8.45455H98.1124V13.9233H98.2048C98.3373 13.6297 98.5291 13.3314 98.78 13.0284C99.0357 12.7206 99.3672 12.465 99.7744 12.2614C100.186 12.053 100.698 11.9489 101.308 11.9489C102.104 11.9489 102.838 12.1572 103.51 12.5739C104.183 12.9858 104.72 13.6084 105.122 14.4418C105.525 15.2704 105.726 16.3097 105.726 17.5597C105.726 18.7765 105.53 19.804 105.137 20.642C104.748 21.4754 104.218 22.1075 103.546 22.5384C102.878 22.9645 102.13 23.1776 101.301 23.1776C100.714 23.1776 100.215 23.0805 99.8028 22.8864C99.3956 22.6922 99.0618 22.4484 98.8013 22.1548C98.5409 21.8565 98.3421 21.5559 98.2048 21.2528H98.0698V23H95.0869ZM98.0485 17.5455C98.0485 18.1941 98.1385 18.7599 98.3184 19.2429C98.4983 19.7259 98.7587 20.1023 99.0996 20.3722C99.4406 20.6373 99.8549 20.7699 100.343 20.7699C100.835 20.7699 101.252 20.6349 101.593 20.3651C101.933 20.0904 102.191 19.7116 102.367 19.2287C102.547 18.741 102.637 18.1799 102.637 17.5455C102.637 16.9157 102.549 16.3617 102.374 15.8835C102.199 15.4053 101.941 15.0312 101.6 14.7614C101.259 14.4915 100.84 14.3565 100.343 14.3565C99.8501 14.3565 99.4335 14.4867 99.0925 14.7472C98.7564 15.0076 98.4983 15.3769 98.3184 15.8551C98.1385 16.3333 98.0485 16.8968 98.0485 17.5455ZM107.345 23V12.0909H110.37V23H107.345ZM108.865 10.6847C108.415 10.6847 108.029 10.5355 107.707 10.2372C107.39 9.93419 107.231 9.57197 107.231 9.15057C107.231 8.7339 107.39 8.37642 107.707 8.07812C108.029 7.77509 108.415 7.62358 108.865 7.62358C109.315 7.62358 109.698 7.77509 110.015 8.07812C110.337 8.37642 110.498 8.7339 110.498 9.15057C110.498 9.57197 110.337 9.93419 110.015 10.2372C109.698 10.5355 109.315 10.6847 108.865 10.6847ZM117.366 23.2131C116.244 23.2131 115.278 22.9858 114.468 22.5312C113.663 22.072 113.043 21.4233 112.607 20.5852C112.172 19.7424 111.954 18.7457 111.954 17.5952C111.954 16.473 112.172 15.4882 112.607 14.6406C113.043 13.7931 113.656 13.1326 114.447 12.6591C115.242 12.1856 116.175 11.9489 117.245 11.9489C117.965 11.9489 118.635 12.0649 119.255 12.2969C119.88 12.5241 120.424 12.8674 120.888 13.3267C121.357 13.786 121.722 14.3636 121.982 15.0597C122.243 15.7509 122.373 16.5606 122.373 17.4886V18.3196H113.161V16.4446H119.525C119.525 16.009 119.43 15.6231 119.241 15.2869C119.051 14.9508 118.789 14.688 118.452 14.4986C118.121 14.3045 117.735 14.2074 117.295 14.2074C116.835 14.2074 116.428 14.3139 116.073 14.527C115.723 14.7353 115.448 15.017 115.249 15.3722C115.05 15.7225 114.949 16.1132 114.944 16.544V18.3267C114.944 18.8665 115.043 19.3329 115.242 19.7259C115.446 20.1188 115.732 20.4219 116.101 20.6349C116.471 20.848 116.909 20.9545 117.415 20.9545C117.752 20.9545 118.059 20.9072 118.339 20.8125C118.618 20.7178 118.857 20.5758 119.056 20.3864C119.255 20.197 119.406 19.965 119.511 19.6903L122.309 19.875C122.167 20.5473 121.876 21.1345 121.435 21.6364C121 22.1335 120.436 22.5218 119.745 22.8011C119.058 23.0758 118.265 23.2131 117.366 23.2131ZM133.024 15.2017L130.254 15.3722C130.207 15.1354 130.105 14.9223 129.949 14.733C129.792 14.5388 129.586 14.3849 129.331 14.2713C129.08 14.1529 128.779 14.0938 128.429 14.0938C127.96 14.0938 127.565 14.1932 127.243 14.392C126.921 14.5862 126.76 14.8466 126.76 15.1733C126.76 15.4337 126.864 15.6539 127.072 15.8338C127.281 16.0137 127.638 16.1581 128.145 16.267L130.119 16.6648C131.18 16.8826 131.97 17.233 132.491 17.7159C133.012 18.1989 133.273 18.8333 133.273 19.6193C133.273 20.3343 133.062 20.9616 132.64 21.5014C132.224 22.0412 131.651 22.4626 130.922 22.7656C130.197 23.0639 129.362 23.2131 128.415 23.2131C126.97 23.2131 125.82 22.9124 124.963 22.3111C124.111 21.705 123.611 20.8812 123.464 19.8395L126.44 19.6832C126.53 20.1236 126.748 20.4598 127.094 20.6918C127.439 20.919 127.882 21.0327 128.422 21.0327C128.952 21.0327 129.378 20.9309 129.7 20.7273C130.027 20.5189 130.192 20.2514 130.197 19.9247C130.192 19.6501 130.076 19.4252 129.849 19.25C129.622 19.0701 129.272 18.9328 128.798 18.8381L126.909 18.4616C125.844 18.2486 125.05 17.8793 124.53 17.3537C124.014 16.8281 123.755 16.1581 123.755 15.3438C123.755 14.643 123.945 14.0393 124.324 13.5327C124.707 13.026 125.245 12.6354 125.936 12.3608C126.632 12.0862 127.446 11.9489 128.379 11.9489C129.757 11.9489 130.841 12.2401 131.632 12.8224C132.427 13.4048 132.891 14.1979 133.024 15.2017Z" fill="white"/>
<path opacity="0.5" d="M144.891 20.6193C144.306 20.6193 143.783 20.5185 143.323 20.3168C142.866 20.1151 142.503 19.8352 142.236 19.4773C141.972 19.1165 141.83 18.6989 141.81 18.2244H143.148C143.165 18.483 143.252 18.7074 143.408 18.8977C143.567 19.0852 143.775 19.2301 144.03 19.3324C144.286 19.4347 144.57 19.4858 144.883 19.4858C145.227 19.4858 145.53 19.4261 145.795 19.3068C146.062 19.1875 146.271 19.0213 146.421 18.8082C146.572 18.5923 146.647 18.3438 146.647 18.0625C146.647 17.7699 146.572 17.5128 146.421 17.2912C146.273 17.0668 146.056 16.8906 145.769 16.7628C145.485 16.6349 145.141 16.571 144.738 16.571H144.001V15.4972H144.738C145.062 15.4972 145.346 15.4389 145.59 15.3224C145.837 15.206 146.03 15.044 146.17 14.8366C146.309 14.6264 146.378 14.3807 146.378 14.0994C146.378 13.8295 146.317 13.5952 146.195 13.3963C146.076 13.1946 145.905 13.0369 145.684 12.9233C145.465 12.8097 145.207 12.7528 144.908 12.7528C144.624 12.7528 144.359 12.8054 144.111 12.9105C143.867 13.0128 143.668 13.1605 143.515 13.3537C143.361 13.544 143.279 13.7727 143.268 14.0398H141.994C142.008 13.5682 142.147 13.1534 142.411 12.7955C142.678 12.4375 143.03 12.1577 143.468 11.956C143.905 11.7543 144.391 11.6534 144.925 11.6534C145.485 11.6534 145.968 11.7628 146.374 11.9815C146.783 12.1974 147.099 12.4858 147.32 12.8466C147.545 13.2074 147.655 13.6023 147.653 14.0312C147.655 14.5199 147.519 14.9347 147.244 15.2756C146.971 15.6165 146.607 15.8452 146.153 15.9616V16.0298C146.732 16.1179 147.181 16.348 147.499 16.7202C147.82 17.0923 147.979 17.554 147.977 18.1051C147.979 18.5852 147.846 19.0156 147.576 19.3963C147.309 19.777 146.944 20.0767 146.481 20.2955C146.018 20.5114 145.488 20.6193 144.891 20.6193ZM149.347 20.5V19.5455L152.3 16.4858C152.616 16.1534 152.876 15.8622 153.08 15.6122C153.288 15.3594 153.442 15.1193 153.545 14.892C153.647 14.6648 153.698 14.4233 153.698 14.1676C153.698 13.8778 153.63 13.6278 153.494 13.4176C153.357 13.2045 153.171 13.0412 152.935 12.9276C152.7 12.8111 152.434 12.7528 152.138 12.7528C151.826 12.7528 151.553 12.8168 151.32 12.9446C151.087 13.0724 150.908 13.2528 150.783 13.4858C150.658 13.7187 150.596 13.9915 150.596 14.304H149.339C149.339 13.7727 149.461 13.3082 149.705 12.9105C149.95 12.5128 150.285 12.2045 150.711 11.9858C151.137 11.7642 151.621 11.6534 152.164 11.6534C152.712 11.6534 153.195 11.7628 153.613 11.9815C154.033 12.1974 154.362 12.4929 154.597 12.8679C154.833 13.2401 154.951 13.6605 154.951 14.1293C154.951 14.4531 154.89 14.7699 154.768 15.0795C154.648 15.3892 154.44 15.7344 154.141 16.1151C153.843 16.4929 153.428 16.9517 152.897 17.4915L151.163 19.3068V19.3707H155.092V20.5H149.347ZM156.467 20.5V19.5455L159.42 16.4858C159.735 16.1534 159.995 15.8622 160.2 15.6122C160.407 15.3594 160.562 15.1193 160.664 14.892C160.766 14.6648 160.818 14.4233 160.818 14.1676C160.818 13.8778 160.749 13.6278 160.613 13.4176C160.477 13.2045 160.291 13.0412 160.055 12.9276C159.819 12.8111 159.553 12.7528 159.258 12.7528C158.945 12.7528 158.673 12.8168 158.44 12.9446C158.207 13.0724 158.028 13.2528 157.903 13.4858C157.778 13.7187 157.715 13.9915 157.715 14.304H156.458C156.458 13.7727 156.58 13.3082 156.825 12.9105C157.069 12.5128 157.404 12.2045 157.83 11.9858C158.256 11.7642 158.741 11.6534 159.283 11.6534C159.832 11.6534 160.315 11.7628 160.732 11.9815C161.153 12.1974 161.481 12.4929 161.717 12.8679C161.952 13.2401 162.07 13.6605 162.07 14.1293C162.07 14.4531 162.009 14.7699 161.887 15.0795C161.768 15.3892 161.559 15.7344 161.261 16.1151C160.962 16.4929 160.548 16.9517 160.016 17.4915L158.282 19.3068V19.3707H162.211V20.5H156.467Z" fill="white"/>
<path d="M227 16C227 7.16344 234.163 0 243 0H342C350.837 0 358 7.16344 358 16C358 24.8366 350.837 32 342 32H243C234.163 32 227 24.8366 227 16Z" fill="#C4FF00"/>
<path d="M249.25 16.9001C248.998 16.9001 248.756 16.8053 248.578 16.6365C248.4 16.4677 248.3 16.2388 248.3 16.0001C248.3 15.7614 248.4 15.5325 248.578 15.3637C248.756 15.1949 248.998 15.1001 249.25 15.1001H258.75C259.002 15.1001 259.244 15.1949 259.422 15.3637C259.6 15.5325 259.7 15.7614 259.7 16.0001C259.7 16.2388 259.6 16.4677 259.422 16.6365C259.244 16.8053 259.002 16.9001 258.75 16.9001H249.25Z" fill="#242442"/>
<path d="M253.05 11.5001C253.05 11.2614 253.15 11.0325 253.328 10.8637C253.506 10.6949 253.748 10.6001 254 10.6001C254.252 10.6001 254.494 10.6949 254.672 10.8637C254.85 11.0325 254.95 11.2614 254.95 11.5001V20.5001C254.95 20.7388 254.85 20.9677 254.672 21.1365C254.494 21.3053 254.252 21.4001 254 21.4001C253.748 21.4001 253.506 21.3053 253.328 21.1365C253.15 20.9677 253.05 20.7388 253.05 20.5001V11.5001Z" fill="#242442"/>
<path d="M276.273 14.8281H274.406C274.372 14.5866 274.303 14.3722 274.198 14.1847C274.093 13.9943 273.958 13.8324 273.793 13.6989C273.628 13.5653 273.438 13.4631 273.222 13.392C273.009 13.321 272.777 13.2855 272.527 13.2855C272.076 13.2855 271.682 13.3977 271.347 13.6222C271.012 13.8437 270.752 14.1676 270.567 14.5938C270.382 15.017 270.29 15.5312 270.29 16.1364C270.29 16.7585 270.382 17.2812 270.567 17.7045C270.754 18.1278 271.016 18.4474 271.351 18.6634C271.686 18.8793 272.074 18.9872 272.514 18.9872C272.762 18.9872 272.99 18.9545 273.201 18.8892C273.414 18.8239 273.602 18.7287 273.767 18.6037C273.932 18.4759 274.068 18.321 274.176 18.1392C274.287 17.9574 274.364 17.75 274.406 17.517L276.273 17.5256C276.225 17.9261 276.104 18.3125 275.911 18.6847C275.72 19.054 275.463 19.3849 275.139 19.6776C274.818 19.9673 274.435 20.1974 273.989 20.3679C273.546 20.5355 273.044 20.6193 272.485 20.6193C271.706 20.6193 271.01 20.4432 270.397 20.0909C269.786 19.7386 269.303 19.2287 268.948 18.5611C268.595 17.8935 268.419 17.0852 268.419 16.1364C268.419 15.1847 268.598 14.375 268.956 13.7074C269.314 13.0398 269.8 12.5312 270.414 12.1818C271.027 11.8295 271.718 11.6534 272.485 11.6534C272.99 11.6534 273.459 11.7244 273.891 11.8665C274.326 12.0085 274.71 12.2159 275.046 12.4886C275.381 12.7585 275.654 13.0895 275.864 13.4815C276.077 13.8736 276.213 14.3224 276.273 14.8281ZM277.322 20.5V13.9545H279.082V15.0966H279.15C279.269 14.6903 279.47 14.3835 279.751 14.1761C280.032 13.9659 280.356 13.8608 280.723 13.8608C280.813 13.8608 280.911 13.8665 281.017 13.8778C281.122 13.8892 281.214 13.9048 281.294 13.9247V15.5355C281.208 15.5099 281.09 15.4872 280.94 15.4673C280.789 15.4474 280.652 15.4375 280.527 15.4375C280.26 15.4375 280.021 15.4957 279.811 15.6122C279.603 15.7259 279.438 15.8849 279.316 16.0895C279.197 16.294 279.137 16.5298 279.137 16.7969V20.5H277.322ZM284.67 20.6278C283.997 20.6278 283.418 20.4915 282.932 20.2188C282.449 19.9432 282.077 19.554 281.815 19.0511C281.554 18.5455 281.423 17.9474 281.423 17.2571C281.423 16.5838 281.554 15.9929 281.815 15.4844C282.077 14.9759 282.445 14.5795 282.919 14.2955C283.396 14.0114 283.956 13.8693 284.598 13.8693C285.03 13.8693 285.432 13.9389 285.804 14.0781C286.179 14.2145 286.506 14.4205 286.784 14.696C287.065 14.9716 287.284 15.3182 287.44 15.7358C287.597 16.1506 287.675 16.6364 287.675 17.1932V17.6918H282.148V16.5668H285.966C285.966 16.3054 285.909 16.0739 285.795 15.8722C285.682 15.6705 285.524 15.5128 285.322 15.3991C285.124 15.2827 284.892 15.2244 284.628 15.2244C284.352 15.2244 284.108 15.2884 283.895 15.4162C283.685 15.5412 283.52 15.7102 283.401 15.9233C283.281 16.1335 283.22 16.3679 283.217 16.6264V17.696C283.217 18.0199 283.277 18.2997 283.396 18.5355C283.518 18.7713 283.69 18.9531 283.912 19.081C284.134 19.2088 284.396 19.2727 284.7 19.2727C284.902 19.2727 285.087 19.2443 285.254 19.1875C285.422 19.1307 285.565 19.0455 285.685 18.9318C285.804 18.8182 285.895 18.679 285.957 18.5142L287.636 18.625C287.551 19.0284 287.376 19.3807 287.112 19.6818C286.851 19.9801 286.513 20.2131 286.098 20.3807C285.686 20.5455 285.21 20.6278 284.67 20.6278ZM290.486 20.6236C290.068 20.6236 289.696 20.5511 289.369 20.4062C289.043 20.2585 288.784 20.0412 288.594 19.7543C288.406 19.4645 288.313 19.1037 288.313 18.6719C288.313 18.3082 288.379 18.0028 288.513 17.7557C288.646 17.5085 288.828 17.3097 289.058 17.1591C289.288 17.0085 289.55 16.8949 289.842 16.8182C290.138 16.7415 290.447 16.6875 290.771 16.6562C291.152 16.6165 291.459 16.5795 291.692 16.5455C291.925 16.5085 292.094 16.4545 292.199 16.3835C292.304 16.3125 292.357 16.2074 292.357 16.0682V16.0426C292.357 15.7727 292.271 15.5639 292.101 15.4162C291.933 15.2685 291.695 15.1946 291.385 15.1946C291.058 15.1946 290.798 15.267 290.605 15.4119C290.412 15.554 290.284 15.733 290.222 15.9489L288.543 15.8125C288.628 15.4148 288.795 15.071 289.045 14.7812C289.295 14.4886 289.618 14.2642 290.013 14.108C290.411 13.9489 290.871 13.8693 291.394 13.8693C291.757 13.8693 292.105 13.9119 292.438 13.9972C292.773 14.0824 293.07 14.2145 293.328 14.3935C293.59 14.5724 293.795 14.8026 293.946 15.0838C294.097 15.3622 294.172 15.696 294.172 16.0852V20.5H292.45V19.5923H292.399C292.294 19.7969 292.153 19.9773 291.977 20.1335C291.801 20.2869 291.59 20.4077 291.342 20.4957C291.095 20.581 290.81 20.6236 290.486 20.6236ZM291.006 19.3707C291.273 19.3707 291.509 19.3182 291.713 19.2131C291.918 19.1051 292.078 18.9602 292.195 18.7784C292.311 18.5966 292.369 18.3906 292.369 18.1605V17.4659C292.313 17.5028 292.234 17.5369 292.135 17.5682C292.038 17.5966 291.929 17.6236 291.807 17.6491C291.685 17.6719 291.563 17.6932 291.44 17.7131C291.318 17.7301 291.207 17.7457 291.108 17.7599C290.895 17.7912 290.709 17.8409 290.55 17.9091C290.391 17.9773 290.267 18.0696 290.179 18.1861C290.091 18.2997 290.047 18.4418 290.047 18.6122C290.047 18.8594 290.136 19.0483 290.315 19.179C290.497 19.3068 290.727 19.3707 291.006 19.3707ZM298.822 13.9545V15.3182H294.88V13.9545H298.822ZM295.775 12.3864H297.59V18.4886C297.59 18.6562 297.616 18.7869 297.667 18.8807C297.718 18.9716 297.789 19.0355 297.88 19.0724C297.974 19.1094 298.082 19.1278 298.204 19.1278C298.289 19.1278 298.374 19.1207 298.46 19.1065C298.545 19.0895 298.61 19.0767 298.656 19.0682L298.941 20.419C298.85 20.4474 298.722 20.4801 298.558 20.517C298.393 20.5568 298.193 20.581 297.957 20.5895C297.519 20.6065 297.136 20.5483 296.806 20.4148C296.479 20.2812 296.225 20.0739 296.043 19.7926C295.862 19.5114 295.772 19.1562 295.775 18.7273V12.3864ZM302.677 20.6278C302.004 20.6278 301.424 20.4915 300.938 20.2188C300.455 19.9432 300.083 19.554 299.822 19.0511C299.561 18.5455 299.43 17.9474 299.43 17.2571C299.43 16.5838 299.561 15.9929 299.822 15.4844C300.083 14.9759 300.451 14.5795 300.926 14.2955C301.403 14.0114 301.963 13.8693 302.605 13.8693C303.036 13.8693 303.438 13.9389 303.811 14.0781C304.186 14.2145 304.512 14.4205 304.791 14.696C305.072 14.9716 305.291 15.3182 305.447 15.7358C305.603 16.1506 305.681 16.6364 305.681 17.1932V17.6918H300.154V16.5668H303.972C303.972 16.3054 303.916 16.0739 303.802 15.8722C303.688 15.6705 303.531 15.5128 303.329 15.3991C303.13 15.2827 302.899 15.2244 302.634 15.2244C302.359 15.2244 302.114 15.2884 301.901 15.4162C301.691 15.5412 301.526 15.7102 301.407 15.9233C301.288 16.1335 301.227 16.3679 301.224 16.6264V17.696C301.224 18.0199 301.284 18.2997 301.403 18.5355C301.525 18.7713 301.697 18.9531 301.918 19.081C302.14 19.2088 302.403 19.2727 302.707 19.2727C302.909 19.2727 303.093 19.2443 303.261 19.1875C303.428 19.1307 303.572 19.0455 303.691 18.9318C303.811 18.8182 303.901 18.679 303.964 18.5142L305.643 18.625C305.558 19.0284 305.383 19.3807 305.119 19.6818C304.857 19.9801 304.519 20.2131 304.105 20.3807C303.693 20.5455 303.217 20.6278 302.677 20.6278ZM310.979 11.7727V20.5H309.163V11.7727H310.979ZM315.15 20.6278C314.488 20.6278 313.916 20.4872 313.433 20.206C312.953 19.9219 312.582 19.527 312.321 19.0213C312.059 18.5128 311.929 17.9233 311.929 17.2528C311.929 16.5767 312.059 15.9858 312.321 15.4801C312.582 14.9716 312.953 14.5767 313.433 14.2955C313.916 14.0114 314.488 13.8693 315.15 13.8693C315.812 13.8693 316.383 14.0114 316.863 14.2955C317.346 14.5767 317.718 14.9716 317.98 15.4801C318.241 15.9858 318.372 16.5767 318.372 17.2528C318.372 17.9233 318.241 18.5128 317.98 19.0213C317.718 19.527 317.346 19.9219 316.863 20.206C316.383 20.4872 315.812 20.6278 315.15 20.6278ZM315.159 19.2216C315.46 19.2216 315.711 19.1364 315.913 18.9659C316.115 18.7926 316.267 18.5568 316.369 18.2585C316.474 17.9602 316.527 17.6207 316.527 17.2401C316.527 16.8594 316.474 16.5199 316.369 16.2216C316.267 15.9233 316.115 15.6875 315.913 15.5142C315.711 15.3409 315.46 15.2543 315.159 15.2543C314.855 15.2543 314.599 15.3409 314.392 15.5142C314.187 15.6875 314.032 15.9233 313.927 16.2216C313.825 16.5199 313.774 16.8594 313.774 17.2401C313.774 17.6207 313.825 17.9602 313.927 18.2585C314.032 18.5568 314.187 18.7926 314.392 18.9659C314.599 19.1364 314.855 19.2216 315.159 19.2216ZM319.346 20.5V11.7727H321.162V15.054H321.217C321.297 14.8778 321.412 14.6989 321.562 14.517C321.716 14.3324 321.914 14.179 322.159 14.0568C322.406 13.9318 322.713 13.8693 323.079 13.8693C323.556 13.8693 323.997 13.9943 324.4 14.2443C324.804 14.4915 325.126 14.8651 325.368 15.3651C325.609 15.8622 325.73 16.4858 325.73 17.2358C325.73 17.9659 325.612 18.5824 325.376 19.0852C325.143 19.5852 324.825 19.9645 324.422 20.223C324.021 20.4787 323.572 20.6065 323.075 20.6065C322.723 20.6065 322.423 20.5483 322.176 20.4318C321.931 20.3153 321.731 20.169 321.575 19.9929C321.419 19.8139 321.299 19.6335 321.217 19.4517H321.136V20.5H319.346ZM321.123 17.2273C321.123 17.6165 321.177 17.956 321.285 18.2457C321.393 18.5355 321.549 18.7614 321.754 18.9233C321.958 19.0824 322.207 19.1619 322.5 19.1619C322.795 19.1619 323.045 19.081 323.25 18.919C323.454 18.7543 323.609 18.527 323.714 18.2372C323.822 17.9446 323.876 17.608 323.876 17.2273C323.876 16.8494 323.824 16.517 323.718 16.2301C323.613 15.9432 323.458 15.7187 323.254 15.5568C323.049 15.3949 322.798 15.3139 322.5 15.3139C322.204 15.3139 321.954 15.392 321.75 15.5483C321.548 15.7045 321.393 15.9261 321.285 16.2131C321.177 16.5 321.123 16.8381 321.123 17.2273ZM326.735 20.5V11.7727H328.551V15.054H328.606C328.685 14.8778 328.801 14.6989 328.951 14.517C329.104 14.3324 329.303 14.179 329.548 14.0568C329.795 13.9318 330.102 13.8693 330.468 13.8693C330.945 13.8693 331.386 13.9943 331.789 14.2443C332.193 14.4915 332.515 14.8651 332.756 15.3651C332.998 15.8622 333.119 16.4858 333.119 17.2358C333.119 17.9659 333.001 18.5824 332.765 19.0852C332.532 19.5852 332.214 19.9645 331.81 20.223C331.41 20.4787 330.961 20.6065 330.464 20.6065C330.112 20.6065 329.812 20.5483 329.565 20.4318C329.32 20.3153 329.12 20.169 328.964 19.9929C328.808 19.8139 328.688 19.6335 328.606 19.4517H328.525V20.5H326.735ZM328.512 17.2273C328.512 17.6165 328.566 17.956 328.674 18.2457C328.782 18.5355 328.938 18.7614 329.143 18.9233C329.347 19.0824 329.596 19.1619 329.889 19.1619C330.184 19.1619 330.434 19.081 330.639 18.919C330.843 18.7543 330.998 18.527 331.103 18.2372C331.211 17.9446 331.265 17.608 331.265 17.2273C331.265 16.8494 331.212 16.517 331.107 16.2301C331.002 15.9432 330.847 15.7187 330.643 15.5568C330.438 15.3949 330.187 15.3139 329.889 15.3139C329.593 15.3139 329.343 15.392 329.139 15.5483C328.937 15.7045 328.782 15.9261 328.674 16.2131C328.566 16.5 328.512 16.8381 328.512 17.2273ZM335 22.9545C334.77 22.9545 334.554 22.9361 334.352 22.8991C334.153 22.8651 333.988 22.821 333.858 22.767L334.267 21.4119C334.48 21.4773 334.672 21.5128 334.842 21.5185C335.015 21.5241 335.165 21.4844 335.29 21.3991C335.417 21.3139 335.521 21.169 335.601 20.9645L335.707 20.6875L333.359 13.9545H335.268L336.623 18.7614H336.692L338.059 13.9545H339.981L337.437 21.2074C337.315 21.5597 337.149 21.8665 336.939 22.1278C336.731 22.392 336.469 22.5952 336.15 22.7372C335.832 22.8821 335.449 22.9545 335 22.9545Z" fill="#242424"/>
</svg>
