<svg width="358" height="52" viewBox="0 0 358 52" fill="none" xmlns="http://www.w3.org/2000/svg">
<path d="M0 24C0 10.7452 10.7452 0 24 0H334C347.255 0 358 10.7452 358 24V28C358 41.2548 347.255 52 334 52H24C10.7452 52 0 41.2548 0 28V24Z" fill="#15151A"/>
<path d="M136.046 23.9375H133.557C133.512 23.6155 133.419 23.3295 133.279 23.0795C133.139 22.8258 132.959 22.6098 132.739 22.4318C132.519 22.2538 132.266 22.1174 131.978 22.0227C131.694 21.928 131.385 21.8807 131.052 21.8807C130.449 21.8807 129.925 22.0303 129.478 22.3295C129.031 22.625 128.684 23.0568 128.438 23.625C128.192 24.1894 128.069 24.875 128.069 25.6818C128.069 26.5114 128.192 27.2083 128.438 27.7727C128.688 28.3371 129.036 28.7633 129.483 29.0511C129.93 29.339 130.447 29.483 131.035 29.483C131.364 29.483 131.669 29.4394 131.949 29.3523C132.233 29.2652 132.485 29.1383 132.705 28.9716C132.925 28.8011 133.107 28.5947 133.25 28.3523C133.398 28.1098 133.5 27.8333 133.557 27.5227L136.046 27.5341C135.982 28.0682 135.821 28.5833 135.563 29.0795C135.309 29.572 134.966 30.0133 134.535 30.4034C134.107 30.7898 133.595 31.0966 133 31.3239C132.41 31.5473 131.741 31.6591 130.995 31.6591C129.957 31.6591 129.029 31.4242 128.211 30.9545C127.396 30.4848 126.752 29.8049 126.279 28.9148C125.809 28.0246 125.574 26.947 125.574 25.6818C125.574 24.4129 125.813 23.3333 126.29 22.4432C126.768 21.553 127.415 20.875 128.233 20.4091C129.052 19.9394 129.972 19.7045 130.995 19.7045C131.669 19.7045 132.294 19.7992 132.87 19.9886C133.449 20.178 133.963 20.4545 134.41 20.8182C134.857 21.178 135.22 21.6193 135.5 22.142C135.785 22.6648 135.966 23.2633 136.046 23.9375ZM139.865 26.4545V31.5H137.445V19.8636H139.797V24.3125H139.899C140.096 23.7973 140.414 23.3939 140.854 23.1023C141.293 22.8068 141.844 22.6591 142.507 22.6591C143.113 22.6591 143.642 22.7917 144.092 23.0568C144.547 23.3182 144.899 23.6951 145.149 24.1875C145.403 24.6761 145.528 25.2614 145.524 25.9432V31.5H143.104V26.375C143.108 25.8371 142.971 25.4186 142.695 25.1193C142.422 24.8201 142.039 24.6705 141.547 24.6705C141.217 24.6705 140.926 24.7405 140.672 24.8807C140.422 25.0208 140.225 25.2254 140.081 25.4943C139.941 25.7595 139.869 26.0795 139.865 26.4545ZM151.052 31.6705C150.17 31.6705 149.406 31.483 148.762 31.108C148.122 30.7292 147.628 30.2027 147.279 29.5284C146.931 28.8504 146.757 28.0644 146.757 27.1705C146.757 26.2689 146.931 25.4811 147.279 24.8068C147.628 24.1288 148.122 23.6023 148.762 23.2273C149.406 22.8485 150.17 22.6591 151.052 22.6591C151.935 22.6591 152.696 22.8485 153.336 23.2273C153.98 23.6023 154.476 24.1288 154.825 24.8068C155.173 25.4811 155.348 26.2689 155.348 27.1705C155.348 28.0644 155.173 28.8504 154.825 29.5284C154.476 30.2027 153.98 30.7292 153.336 31.108C152.696 31.483 151.935 31.6705 151.052 31.6705ZM151.064 29.7955C151.465 29.7955 151.8 29.6818 152.069 29.4545C152.338 29.2235 152.541 28.9091 152.677 28.5114C152.817 28.1136 152.887 27.661 152.887 27.1534C152.887 26.6458 152.817 26.1932 152.677 25.7955C152.541 25.3977 152.338 25.0833 152.069 24.8523C151.8 24.6212 151.465 24.5057 151.064 24.5057C150.658 24.5057 150.317 24.6212 150.041 24.8523C149.768 25.0833 149.562 25.3977 149.422 25.7955C149.285 26.1932 149.217 26.6458 149.217 27.1534C149.217 27.661 149.285 28.1136 149.422 28.5114C149.562 28.9091 149.768 29.2235 150.041 29.4545C150.317 29.6818 150.658 29.7955 151.064 29.7955ZM160.545 31.6705C159.662 31.6705 158.899 31.483 158.255 31.108C157.615 30.7292 157.12 30.2027 156.772 29.5284C156.424 28.8504 156.249 28.0644 156.249 27.1705C156.249 26.2689 156.424 25.4811 156.772 24.8068C157.12 24.1288 157.615 23.6023 158.255 23.2273C158.899 22.8485 159.662 22.6591 160.545 22.6591C161.427 22.6591 162.189 22.8485 162.829 23.2273C163.473 23.6023 163.969 24.1288 164.317 24.8068C164.666 25.4811 164.84 26.2689 164.84 27.1705C164.84 28.0644 164.666 28.8504 164.317 29.5284C163.969 30.2027 163.473 30.7292 162.829 31.108C162.189 31.483 161.427 31.6705 160.545 31.6705ZM160.556 29.7955C160.958 29.7955 161.293 29.6818 161.562 29.4545C161.831 29.2235 162.033 28.9091 162.17 28.5114C162.31 28.1136 162.38 27.661 162.38 27.1534C162.38 26.6458 162.31 26.1932 162.17 25.7955C162.033 25.3977 161.831 25.0833 161.562 24.8523C161.293 24.6212 160.958 24.5057 160.556 24.5057C160.151 24.5057 159.81 24.6212 159.533 24.8523C159.261 25.0833 159.054 25.3977 158.914 25.7955C158.778 26.1932 158.709 26.6458 158.709 27.1534C158.709 27.661 158.778 28.1136 158.914 28.5114C159.054 28.9091 159.261 29.2235 159.533 29.4545C159.81 29.6818 160.151 29.7955 160.556 29.7955ZM173.355 25.2614L171.139 25.3977C171.102 25.2083 171.02 25.0379 170.895 24.8864C170.77 24.7311 170.605 24.608 170.401 24.517C170.2 24.4223 169.96 24.375 169.679 24.375C169.304 24.375 168.988 24.4545 168.73 24.6136C168.473 24.7689 168.344 24.9773 168.344 25.2386C168.344 25.447 168.427 25.6231 168.594 25.767C168.761 25.911 169.047 26.0265 169.452 26.1136L171.032 26.4318C171.88 26.6061 172.513 26.8864 172.929 27.2727C173.346 27.6591 173.554 28.1667 173.554 28.7955C173.554 29.3674 173.386 29.8693 173.049 30.3011C172.715 30.733 172.257 31.0701 171.674 31.3125C171.094 31.5511 170.425 31.6705 169.668 31.6705C168.513 31.6705 167.592 31.4299 166.907 30.9489C166.225 30.464 165.825 29.8049 165.708 28.9716L168.088 28.8466C168.16 29.1989 168.335 29.4678 168.611 29.6534C168.888 29.8352 169.242 29.9261 169.674 29.9261C170.098 29.9261 170.439 29.8447 170.696 29.6818C170.958 29.5152 171.09 29.3011 171.094 29.0398C171.09 28.8201 170.997 28.6402 170.816 28.5C170.634 28.3561 170.354 28.2462 169.975 28.1705L168.463 27.8693C167.611 27.6989 166.977 27.4034 166.56 26.983C166.147 26.5625 165.941 26.0265 165.941 25.375C165.941 24.8144 166.092 24.3314 166.395 23.9261C166.702 23.5208 167.132 23.2083 167.685 22.9886C168.242 22.7689 168.893 22.6591 169.639 22.6591C170.742 22.6591 171.609 22.892 172.242 23.358C172.878 23.8239 173.249 24.4583 173.355 25.2614ZM178.736 31.6705C177.838 31.6705 177.065 31.4886 176.418 31.125C175.774 30.7576 175.277 30.2386 174.929 29.5682C174.58 28.8939 174.406 28.0966 174.406 27.1761C174.406 26.2784 174.58 25.4905 174.929 24.8125C175.277 24.1345 175.768 23.6061 176.4 23.2273C177.037 22.8485 177.783 22.6591 178.639 22.6591C179.215 22.6591 179.751 22.7519 180.247 22.9375C180.747 23.1193 181.183 23.3939 181.554 23.7614C181.929 24.1288 182.221 24.5909 182.429 25.1477C182.637 25.7008 182.741 26.3485 182.741 27.0909V27.7557H175.372V26.2557H180.463C180.463 25.9072 180.387 25.5985 180.236 25.3295C180.084 25.0606 179.874 24.8504 179.605 24.6989C179.34 24.5436 179.031 24.4659 178.679 24.4659C178.311 24.4659 177.986 24.5511 177.702 24.7216C177.421 24.8883 177.202 25.1136 177.043 25.3977C176.883 25.678 176.802 25.9905 176.798 26.3352V27.7614C176.798 28.1932 176.878 28.5663 177.037 28.8807C177.2 29.1951 177.429 29.4375 177.724 29.608C178.02 29.7784 178.37 29.8636 178.775 29.8636C179.044 29.8636 179.291 29.8258 179.514 29.75C179.738 29.6742 179.929 29.5606 180.088 29.4091C180.247 29.2576 180.368 29.072 180.452 28.8523L182.69 29C182.577 29.5379 182.344 30.0076 181.991 30.4091C181.643 30.8068 181.192 31.1174 180.639 31.3409C180.09 31.5606 179.455 31.6705 178.736 31.6705ZM189.873 31.6648C189.316 31.6648 188.82 31.5682 188.384 31.375C187.948 31.178 187.604 30.8883 187.35 30.5057C187.1 30.1193 186.975 29.6383 186.975 29.0625C186.975 28.5777 187.064 28.1705 187.242 27.8409C187.42 27.5114 187.662 27.2462 187.969 27.0455C188.276 26.8447 188.625 26.6932 189.015 26.5909C189.409 26.4886 189.822 26.4167 190.253 26.375C190.761 26.322 191.17 26.2727 191.481 26.2273C191.791 26.178 192.017 26.1061 192.157 26.0114C192.297 25.9167 192.367 25.7765 192.367 25.5909V25.5568C192.367 25.197 192.253 24.9186 192.026 24.7216C191.803 24.5246 191.484 24.4261 191.072 24.4261C190.636 24.4261 190.289 24.5227 190.032 24.7159C189.774 24.9053 189.604 25.1439 189.52 25.4318L187.282 25.25C187.395 24.7197 187.619 24.2614 187.952 23.875C188.286 23.4848 188.715 23.1856 189.242 22.9773C189.772 22.7652 190.386 22.6591 191.083 22.6591C191.568 22.6591 192.032 22.7159 192.475 22.8295C192.922 22.9432 193.318 23.1193 193.662 23.358C194.011 23.5966 194.286 23.9034 194.486 24.2784C194.687 24.6496 194.787 25.0947 194.787 25.6136V31.5H192.492V30.2898H192.424C192.284 30.5625 192.096 30.803 191.861 31.0114C191.626 31.2159 191.344 31.3769 191.015 31.4943C190.685 31.608 190.304 31.6648 189.873 31.6648ZM190.566 29.9943C190.922 29.9943 191.236 29.9242 191.509 29.7841C191.782 29.6402 191.996 29.447 192.151 29.2045C192.306 28.9621 192.384 28.6875 192.384 28.3807V27.4545C192.308 27.5038 192.204 27.5492 192.072 27.5909C191.943 27.6288 191.797 27.6648 191.634 27.6989C191.471 27.7292 191.308 27.7576 191.145 27.7841C190.983 27.8068 190.835 27.8277 190.702 27.8466C190.418 27.8883 190.17 27.9545 189.958 28.0455C189.746 28.1364 189.581 28.2595 189.464 28.4148C189.346 28.5663 189.287 28.7557 189.287 28.983C189.287 29.3125 189.407 29.5644 189.645 29.7386C189.888 29.9091 190.195 29.9943 190.566 29.9943ZM203.66 34.9545C202.876 34.9545 202.204 34.8466 201.643 34.6307C201.086 34.4186 200.643 34.1288 200.314 33.7614C199.984 33.3939 199.77 32.9811 199.672 32.5227L201.91 32.2216C201.978 32.3958 202.086 32.5587 202.234 32.7102C202.382 32.8617 202.577 32.983 202.819 33.0739C203.066 33.1686 203.365 33.2159 203.717 33.2159C204.244 33.2159 204.677 33.0871 205.018 32.8295C205.363 32.5758 205.535 32.1496 205.535 31.5511V29.9545H205.433C205.327 30.197 205.168 30.4261 204.956 30.642C204.744 30.858 204.471 31.0341 204.138 31.1705C203.804 31.3068 203.406 31.375 202.944 31.375C202.289 31.375 201.692 31.2235 201.155 30.9205C200.62 30.6136 200.194 30.1458 199.876 29.517C199.562 28.8845 199.405 28.0852 199.405 27.1193C199.405 26.1307 199.566 25.3049 199.888 24.642C200.209 23.9792 200.638 23.483 201.172 23.1534C201.709 22.8239 202.298 22.6591 202.939 22.6591C203.427 22.6591 203.836 22.7424 204.166 22.9091C204.495 23.072 204.761 23.2765 204.961 23.5227C205.166 23.7652 205.323 24.0038 205.433 24.2386H205.524V22.7727H207.927V31.5852C207.927 32.3277 207.745 32.9489 207.382 33.4489C207.018 33.9489 206.514 34.3239 205.87 34.5739C205.23 34.8277 204.494 34.9545 203.66 34.9545ZM203.711 29.5568C204.102 29.5568 204.431 29.4602 204.7 29.267C204.973 29.0701 205.181 28.7898 205.325 28.4261C205.473 28.0587 205.547 27.6193 205.547 27.108C205.547 26.5966 205.475 26.1534 205.331 25.7784C205.187 25.3996 204.978 25.1061 204.706 24.8977C204.433 24.6894 204.102 24.5852 203.711 24.5852C203.314 24.5852 202.978 24.6932 202.706 24.9091C202.433 25.1212 202.227 25.4167 202.086 25.7955C201.946 26.1742 201.876 26.6117 201.876 27.108C201.876 27.6117 201.946 28.0473 202.086 28.4148C202.23 28.7784 202.437 29.0606 202.706 29.2614C202.978 29.4583 203.314 29.5568 203.711 29.5568ZM209.533 31.5V22.7727H211.954V31.5H209.533ZM210.749 21.6477C210.389 21.6477 210.081 21.5284 209.823 21.2898C209.569 21.0473 209.443 20.7576 209.443 20.4205C209.443 20.0871 209.569 19.8011 209.823 19.5625C210.081 19.3201 210.389 19.1989 210.749 19.1989C211.109 19.1989 211.416 19.3201 211.67 19.5625C211.927 19.8011 212.056 20.0871 212.056 20.4205C212.056 20.7576 211.927 21.0473 211.67 21.2898C211.416 21.5284 211.109 21.6477 210.749 21.6477ZM218.266 22.7727V24.5909H212.88V22.7727H218.266ZM214.113 31.5V22.142C214.113 21.5095 214.236 20.9848 214.482 20.5682C214.732 20.1515 215.073 19.839 215.505 19.6307C215.936 19.4223 216.427 19.3182 216.976 19.3182C217.347 19.3182 217.686 19.3466 217.993 19.4034C218.304 19.4602 218.535 19.5114 218.686 19.5568L218.255 21.375C218.16 21.3447 218.042 21.3163 217.902 21.2898C217.766 21.2633 217.626 21.25 217.482 21.25C217.126 21.25 216.878 21.3333 216.738 21.5C216.597 21.6629 216.527 21.892 216.527 22.1875V31.5H214.113ZM224.067 22.7727V24.5909H218.811V22.7727H224.067ZM220.004 20.6818H222.425V28.8182C222.425 29.0417 222.459 29.2159 222.527 29.3409C222.595 29.4621 222.69 29.5473 222.811 29.5966C222.936 29.6458 223.08 29.6705 223.243 29.6705C223.356 29.6705 223.47 29.661 223.584 29.642C223.697 29.6193 223.785 29.6023 223.845 29.5909L224.226 31.392C224.105 31.4299 223.934 31.4735 223.714 31.5227C223.495 31.5758 223.228 31.608 222.913 31.6193C222.33 31.642 221.819 31.5644 221.379 31.3864C220.944 31.2083 220.605 30.9318 220.362 30.5568C220.12 30.1818 220 29.7083 220.004 29.1364V20.6818ZM232.475 25.2614L230.259 25.3977C230.222 25.2083 230.14 25.0379 230.015 24.8864C229.89 24.7311 229.725 24.608 229.521 24.517C229.32 24.4223 229.08 24.375 228.799 24.375C228.424 24.375 228.108 24.4545 227.85 24.6136C227.593 24.7689 227.464 24.9773 227.464 25.2386C227.464 25.447 227.547 25.6231 227.714 25.767C227.881 25.911 228.167 26.0265 228.572 26.1136L230.152 26.4318C231 26.6061 231.633 26.8864 232.049 27.2727C232.466 27.6591 232.674 28.1667 232.674 28.7955C232.674 29.3674 232.506 29.8693 232.169 30.3011C231.835 30.733 231.377 31.0701 230.794 31.3125C230.214 31.5511 229.545 31.6705 228.788 31.6705C227.633 31.6705 226.712 31.4299 226.027 30.9489C225.345 30.464 224.945 29.8049 224.828 28.9716L227.208 28.8466C227.28 29.1989 227.455 29.4678 227.731 29.6534C228.008 29.8352 228.362 29.9261 228.794 29.9261C229.218 29.9261 229.559 29.8447 229.816 29.6818C230.078 29.5152 230.21 29.3011 230.214 29.0398C230.21 28.8201 230.117 28.6402 229.936 28.5C229.754 28.3561 229.474 28.2462 229.095 28.1705L227.583 27.8693C226.731 27.6989 226.097 27.4034 225.68 26.983C225.267 26.5625 225.061 26.0265 225.061 25.375C225.061 24.8144 225.212 24.3314 225.515 23.9261C225.822 23.5208 226.252 23.2083 226.805 22.9886C227.362 22.7689 228.013 22.6591 228.759 22.6591C229.862 22.6591 230.729 22.892 231.362 23.358C231.998 23.8239 232.369 24.4583 232.475 25.2614Z" fill="#3C3C3C"/>
</svg>
