<svg width="357" height="52" viewBox="0 0 357 52" fill="none" xmlns="http://www.w3.org/2000/svg">
<path d="M0 24C0 10.7452 10.7452 0 24 0H204C217.255 0 228 10.7452 228 24V28C228 41.2548 217.255 52 204 52H24C10.7452 52 0 41.2548 0 28V24Z" fill="#C4FF00"/>
<path d="M59.0523 23.2102C59.0068 22.7519 58.8118 22.3958 58.4671 22.142C58.1224 21.8883 57.6546 21.7614 57.0637 21.7614C56.6622 21.7614 56.3231 21.8182 56.0466 21.9318C55.7701 22.0417 55.558 22.1951 55.4103 22.392C55.2663 22.589 55.1943 22.8125 55.1943 23.0625C55.1868 23.2708 55.2303 23.4527 55.325 23.608C55.4235 23.7633 55.558 23.8977 55.7284 24.0114C55.8989 24.1212 56.0959 24.2178 56.3193 24.3011C56.5428 24.3807 56.7815 24.4489 57.0353 24.5057L58.0807 24.7557C58.5883 24.8693 59.0542 25.0208 59.4784 25.2102C59.9027 25.3996 60.2701 25.6326 60.5807 25.9091C60.8913 26.1856 61.1318 26.5114 61.3023 26.8864C61.4765 27.2614 61.5656 27.6913 61.5693 28.1761C61.5656 28.8883 61.3837 29.5057 61.0239 30.0284C60.6678 30.5473 60.1527 30.9508 59.4784 31.2386C58.808 31.5227 57.9993 31.6648 57.0523 31.6648C56.1129 31.6648 55.2947 31.5208 54.5978 31.233C53.9046 30.9451 53.3629 30.5189 52.9728 29.9545C52.5864 29.3864 52.3837 28.6837 52.3648 27.8466H54.7455C54.772 28.2367 54.8837 28.5625 55.0807 28.8239C55.2815 29.0814 55.5485 29.2765 55.8818 29.4091C56.219 29.5379 56.5997 29.6023 57.0239 29.6023C57.4406 29.6023 57.8023 29.5417 58.1091 29.4205C58.4197 29.2992 58.6603 29.1307 58.8307 28.9148C59.0012 28.6989 59.0864 28.4508 59.0864 28.1705C59.0864 27.9091 59.0087 27.6894 58.8534 27.5114C58.7019 27.3333 58.4784 27.1818 58.183 27.0568C57.8913 26.9318 57.5334 26.8182 57.1091 26.7159L55.8421 26.3977C54.861 26.1591 54.0864 25.786 53.5182 25.2784C52.95 24.7708 52.6678 24.0871 52.6716 23.2273C52.6678 22.5227 52.8553 21.9072 53.2341 21.3807C53.6167 20.8542 54.1413 20.4432 54.808 20.1477C55.4747 19.8523 56.2322 19.7045 57.0807 19.7045C57.9443 19.7045 58.6981 19.8523 59.3421 20.1477C59.9898 20.4432 60.4936 20.8542 60.8534 21.3807C61.2133 21.9072 61.3989 22.517 61.4103 23.2102H59.0523ZM66.836 31.6705C65.9383 31.6705 65.1655 31.4886 64.5178 31.125C63.8739 30.7576 63.3777 30.2386 63.0292 29.5682C62.6807 28.8939 62.5065 28.0966 62.5065 27.1761C62.5065 26.2784 62.6807 25.4905 63.0292 24.8125C63.3777 24.1345 63.8682 23.6061 64.5008 23.2273C65.1371 22.8485 65.8833 22.6591 66.7394 22.6591C67.3152 22.6591 67.8511 22.7519 68.3474 22.9375C68.8474 23.1193 69.283 23.3939 69.6542 23.7614C70.0292 24.1288 70.3208 24.5909 70.5292 25.1477C70.7375 25.7008 70.8417 26.3485 70.8417 27.0909V27.7557H63.4724V26.2557H68.5633C68.5633 25.9072 68.4875 25.5985 68.336 25.3295C68.1845 25.0606 67.9743 24.8504 67.7053 24.6989C67.4402 24.5436 67.1315 24.4659 66.7792 24.4659C66.4118 24.4659 66.086 24.5511 65.8019 24.7216C65.5216 24.8883 65.3019 25.1136 65.1428 25.3977C64.9837 25.678 64.9023 25.9905 64.8985 26.3352V27.7614C64.8985 28.1932 64.978 28.5663 65.1371 28.8807C65.3 29.1951 65.5292 29.4375 65.8246 29.608C66.1201 29.7784 66.4705 29.8636 66.8758 29.8636C67.1447 29.8636 67.3909 29.8258 67.6144 29.75C67.8379 29.6742 68.0292 29.5606 68.1883 29.4091C68.3474 29.2576 68.4686 29.072 68.5519 28.8523L70.7905 29C70.6769 29.5379 70.444 30.0076 70.0917 30.4091C69.7432 30.8068 69.2924 31.1174 68.7394 31.3409C68.1902 31.5606 67.5557 31.6705 66.836 31.6705ZM74.5217 19.8636V31.5H72.1012V19.8636H74.5217ZM78.5611 19.8636V31.5H76.1406V19.8636H78.5611ZM88.2563 22.7727V24.5909H82.8699V22.7727H88.2563ZM84.1029 31.5V22.142C84.1029 21.5095 84.226 20.9848 84.4722 20.5682C84.7222 20.1515 85.0631 19.839 85.4949 19.6307C85.9267 19.4223 86.4173 19.3182 86.9665 19.3182C87.3377 19.3182 87.6767 19.3466 87.9836 19.4034C88.2942 19.4602 88.5252 19.5114 88.6767 19.5568L88.2449 21.375C88.1502 21.3447 88.0328 21.3163 87.8926 21.2898C87.7563 21.2633 87.6161 21.25 87.4722 21.25C87.1161 21.25 86.868 21.3333 86.7279 21.5C86.5877 21.6629 86.5176 21.892 86.5176 22.1875V31.5H84.1029ZM93.0457 31.6705C92.1631 31.6705 91.3998 31.483 90.7559 31.108C90.1157 30.7292 89.6214 30.2027 89.2729 29.5284C88.9244 28.8504 88.7502 28.0644 88.7502 27.1705C88.7502 26.2689 88.9244 25.4811 89.2729 24.8068C89.6214 24.1288 90.1157 23.6023 90.7559 23.2273C91.3998 22.8485 92.1631 22.6591 93.0457 22.6591C93.9282 22.6591 94.6896 22.8485 95.3297 23.2273C95.9737 23.6023 96.4699 24.1288 96.8184 24.8068C97.1669 25.4811 97.3411 26.2689 97.3411 27.1705C97.3411 28.0644 97.1669 28.8504 96.8184 29.5284C96.4699 30.2027 95.9737 30.7292 95.3297 31.108C94.6896 31.483 93.9282 31.6705 93.0457 31.6705ZM93.057 29.7955C93.4585 29.7955 93.7938 29.6818 94.0627 29.4545C94.3316 29.2235 94.5343 28.9091 94.6707 28.5114C94.8108 28.1136 94.8809 27.661 94.8809 27.1534C94.8809 26.6458 94.8108 26.1932 94.6707 25.7955C94.5343 25.3977 94.3316 25.0833 94.0627 24.8523C93.7938 24.6212 93.4585 24.5057 93.057 24.5057C92.6517 24.5057 92.3108 24.6212 92.0343 24.8523C91.7616 25.0833 91.5551 25.3977 91.415 25.7955C91.2786 26.1932 91.2104 26.6458 91.2104 27.1534C91.2104 27.661 91.2786 28.1136 91.415 28.5114C91.5551 28.9091 91.7616 29.2235 92.0343 29.4545C92.3108 29.6818 92.6517 29.7955 93.057 29.7955ZM98.595 31.5V22.7727H100.942V24.2955H101.032C101.192 23.7538 101.459 23.3447 101.834 23.0682C102.209 22.7879 102.64 22.6477 103.129 22.6477C103.25 22.6477 103.381 22.6553 103.521 22.6705C103.661 22.6856 103.784 22.7064 103.89 22.733V24.8807C103.777 24.8466 103.62 24.8163 103.419 24.7898C103.218 24.7633 103.034 24.75 102.868 24.75C102.512 24.75 102.193 24.8277 101.913 24.983C101.637 25.1345 101.417 25.3466 101.254 25.6193C101.095 25.892 101.015 26.2064 101.015 26.5625V31.5H98.595ZM112.483 31.6591C111.635 31.6591 110.879 31.5133 110.216 31.2216C109.557 30.9261 109.036 30.5208 108.654 30.0057C108.275 29.4867 108.08 28.8883 108.069 28.2102H110.546C110.561 28.4943 110.654 28.7443 110.824 28.9602C110.999 29.1723 111.23 29.3371 111.517 29.4545C111.805 29.572 112.129 29.6307 112.489 29.6307C112.864 29.6307 113.196 29.5644 113.483 29.4318C113.771 29.2992 113.997 29.1155 114.16 28.8807C114.322 28.6458 114.404 28.375 114.404 28.0682C114.404 27.7576 114.317 27.483 114.142 27.2443C113.972 27.0019 113.726 26.8125 113.404 26.6761C113.086 26.5398 112.707 26.4716 112.267 26.4716H111.182V24.6648H112.267C112.639 24.6648 112.966 24.6004 113.25 24.4716C113.538 24.3428 113.762 24.1648 113.921 23.9375C114.08 23.7064 114.16 23.4375 114.16 23.1307C114.16 22.839 114.089 22.5833 113.949 22.3636C113.813 22.1402 113.62 21.9659 113.37 21.8409C113.124 21.7159 112.836 21.6534 112.506 21.6534C112.173 21.6534 111.868 21.714 111.591 21.8352C111.315 21.9527 111.093 22.1212 110.927 22.3409C110.76 22.5606 110.671 22.8182 110.66 23.1136H108.302C108.313 22.4432 108.504 21.8523 108.875 21.3409C109.247 20.8295 109.747 20.4299 110.375 20.142C111.008 19.8504 111.722 19.7045 112.517 19.7045C113.321 19.7045 114.023 19.8504 114.625 20.142C115.228 20.4337 115.696 20.8277 116.029 21.3239C116.366 21.8163 116.533 22.3693 116.529 22.983C116.533 23.6345 116.33 24.178 115.921 24.6136C115.516 25.0492 114.987 25.3258 114.336 25.4432V25.5341C115.192 25.6439 115.843 25.9413 116.29 26.4261C116.741 26.9072 116.964 27.5095 116.961 28.233C116.964 28.8958 116.773 29.4848 116.387 30C116.004 30.5152 115.476 30.9205 114.802 31.2159C114.127 31.5114 113.355 31.6591 112.483 31.6591ZM122.71 31.6591C121.862 31.6591 121.106 31.5133 120.443 31.2216C119.784 30.9261 119.263 30.5208 118.881 30.0057C118.502 29.4867 118.307 28.8883 118.295 28.2102H120.773C120.788 28.4943 120.881 28.7443 121.051 28.9602C121.225 29.1723 121.456 29.3371 121.744 29.4545C122.032 29.572 122.356 29.6307 122.716 29.6307C123.091 29.6307 123.422 29.5644 123.71 29.4318C123.998 29.2992 124.224 29.1155 124.386 28.8807C124.549 28.6458 124.631 28.375 124.631 28.0682C124.631 27.7576 124.544 27.483 124.369 27.2443C124.199 27.0019 123.953 26.8125 123.631 26.6761C123.313 26.5398 122.934 26.4716 122.494 26.4716H121.409V24.6648H122.494C122.866 24.6648 123.193 24.6004 123.477 24.4716C123.765 24.3428 123.989 24.1648 124.148 23.9375C124.307 23.7064 124.386 23.4375 124.386 23.1307C124.386 22.839 124.316 22.5833 124.176 22.3636C124.04 22.1402 123.847 21.9659 123.597 21.8409C123.35 21.7159 123.063 21.6534 122.733 21.6534C122.4 21.6534 122.095 21.714 121.818 21.8352C121.542 21.9527 121.32 22.1212 121.153 22.3409C120.987 22.5606 120.898 22.8182 120.886 23.1136H118.528C118.54 22.4432 118.731 21.8523 119.102 21.3409C119.474 20.8295 119.974 20.4299 120.602 20.142C121.235 19.8504 121.949 19.7045 122.744 19.7045C123.547 19.7045 124.25 19.8504 124.852 20.142C125.455 20.4337 125.922 20.8277 126.256 21.3239C126.593 21.8163 126.76 22.3693 126.756 22.983C126.76 23.6345 126.557 24.178 126.148 24.6136C125.742 25.0492 125.214 25.3258 124.563 25.4432V25.5341C125.419 25.6439 126.07 25.9413 126.517 26.4261C126.968 26.9072 127.191 27.5095 127.188 28.233C127.191 28.8958 127 29.4848 126.614 30C126.231 30.5152 125.703 30.9205 125.028 31.2159C124.354 31.5114 123.581 31.6591 122.71 31.6591ZM129.745 31.6477C129.37 31.6477 129.048 31.5152 128.779 31.25C128.514 30.9811 128.382 30.6591 128.382 30.2841C128.382 29.9129 128.514 29.5947 128.779 29.3295C129.048 29.0644 129.37 28.9318 129.745 28.9318C130.109 28.9318 130.427 29.0644 130.7 29.3295C130.973 29.5947 131.109 29.9129 131.109 30.2841C131.109 30.5341 131.045 30.7633 130.916 30.9716C130.791 31.1761 130.626 31.3409 130.422 31.4659C130.217 31.5871 129.992 31.6477 129.745 31.6477ZM136.91 31.6591C136.107 31.6591 135.391 31.5114 134.762 31.2159C134.137 30.9205 133.641 30.5133 133.273 29.9943C132.906 29.4754 132.715 28.8807 132.7 28.2102H135.086C135.112 28.661 135.302 29.0265 135.654 29.3068C136.006 29.5871 136.425 29.7273 136.91 29.7273C137.296 29.7273 137.637 29.642 137.932 29.4716C138.232 29.2973 138.465 29.0568 138.631 28.75C138.802 28.4394 138.887 28.0833 138.887 27.6818C138.887 27.2727 138.8 26.9129 138.626 26.6023C138.455 26.2917 138.218 26.0492 137.915 25.875C137.612 25.7008 137.266 25.6117 136.876 25.608C136.535 25.608 136.203 25.678 135.881 25.8182C135.563 25.9583 135.315 26.1496 135.137 26.392L132.95 26L133.501 19.8636H140.614V21.875H135.529L135.228 24.7898H135.296C135.501 24.5019 135.809 24.2633 136.222 24.0739C136.635 23.8845 137.097 23.7898 137.609 23.7898C138.309 23.7898 138.934 23.9545 139.484 24.2841C140.033 24.6136 140.467 25.0663 140.785 25.642C141.103 26.214 141.26 26.8731 141.256 27.6193C141.26 28.4034 141.078 29.1004 140.711 29.7102C140.347 30.3163 139.838 30.7936 139.182 31.142C138.531 31.4867 137.773 31.6591 136.91 31.6591ZM146.862 19.7045C147.461 19.7045 148.037 19.8049 148.59 20.0057C149.147 20.2064 149.643 20.5265 150.078 20.9659C150.518 21.4053 150.864 21.9886 151.118 22.7159C151.376 23.4394 151.506 24.3277 151.51 25.3807C151.51 26.3693 151.398 27.2519 151.175 28.0284C150.955 28.8011 150.639 29.4583 150.226 30C149.813 30.5417 149.315 30.9545 148.732 31.2386C148.148 31.5189 147.497 31.6591 146.777 31.6591C146.001 31.6591 145.315 31.5095 144.72 31.2102C144.126 30.9072 143.647 30.4962 143.283 29.9773C142.923 29.4545 142.705 28.8674 142.63 28.2159H145.056C145.15 28.6402 145.349 28.9697 145.652 29.2045C145.955 29.4356 146.33 29.5511 146.777 29.5511C147.535 29.5511 148.111 29.2216 148.505 28.5625C148.898 27.8996 149.097 26.9924 149.101 25.8409H149.022C148.847 26.1818 148.612 26.4754 148.317 26.7216C148.022 26.964 147.683 27.1515 147.3 27.2841C146.921 27.4167 146.518 27.483 146.09 27.483C145.404 27.483 144.792 27.322 144.255 27C143.717 26.678 143.292 26.2348 142.982 25.6705C142.671 25.1061 142.516 24.4621 142.516 23.7386C142.512 22.9583 142.692 22.2633 143.056 21.6534C143.419 21.0436 143.927 20.5663 144.578 20.2216C145.234 19.8731 145.995 19.7008 146.862 19.7045ZM146.88 21.6364C146.497 21.6364 146.156 21.7273 145.857 21.9091C145.561 22.0909 145.326 22.3352 145.152 22.642C144.982 22.9489 144.898 23.2917 144.902 23.6705C144.902 24.053 144.986 24.3977 145.152 24.7045C145.323 25.0076 145.554 25.25 145.845 25.4318C146.141 25.6098 146.478 25.6989 146.857 25.6989C147.141 25.6989 147.404 25.6458 147.647 25.5398C147.889 25.4337 148.099 25.2879 148.277 25.1023C148.459 24.9129 148.601 24.6951 148.703 24.4489C148.806 24.2027 148.857 23.9413 148.857 23.6648C148.853 23.2973 148.766 22.9602 148.595 22.6534C148.425 22.3466 148.19 22.1004 147.891 21.9148C147.592 21.7292 147.255 21.6364 146.88 21.6364Z" fill="#242424"/>
<g clip-path="url(#clip0_87_718)">
<rect x="162.5" y="21" width="10" height="11" fill="white"/>
<path d="M167.5 17C162.53 17 158.5 21.0298 158.5 26C158.5 30.9702 162.53 35 167.5 35C172.47 35 176.5 30.9702 176.5 26C176.5 21.0298 172.47 17 167.5 17ZM164.426 22.0228H170.573C171.702 22.0228 172.42 23.2438 171.852 24.2278L168.058 30.8015C168.001 30.8993 167.92 30.9804 167.822 31.0369C167.724 31.0933 167.613 31.123 167.5 31.123C167.387 31.123 167.276 31.0933 167.178 31.0369C167.08 30.9804 166.999 30.8993 166.942 30.8015L163.149 24.2278C162.581 23.2423 163.297 22.0228 164.426 22.0228ZM168.06 23.1447V28.8297L168.886 27.2338L170.878 23.6667C170.909 23.6135 170.924 23.5531 170.924 23.4917C170.924 23.4303 170.907 23.3701 170.876 23.3171C170.845 23.2642 170.801 23.2203 170.747 23.1901C170.694 23.1598 170.633 23.1442 170.572 23.1447H168.06ZM164.425 23.1462C164.364 23.1456 164.303 23.1611 164.25 23.1912C164.197 23.2214 164.152 23.2651 164.121 23.3179C164.09 23.3707 164.074 23.4307 164.073 23.492C164.073 23.5533 164.089 23.6135 164.119 23.6667L166.112 27.2322L166.939 28.8297V23.1462H164.425Z" fill="#0077FF"/>
</g>
<path d="M234 24C234 10.7452 244.745 0 258 0H333C346.255 0 357 10.7452 357 24V28C357 41.2548 346.255 52 333 52H258C244.745 52 234 41.2548 234 28V24Z" fill="#C4FF00" fill-opacity="0.1"/>
<path d="M262.472 19.8636V31.5H260.011V19.8636H262.472ZM266.551 26.4545V31.5H264.13V22.7727H266.437V24.3125H266.539C266.733 23.8049 267.056 23.4034 267.511 23.108C267.966 22.8087 268.517 22.6591 269.164 22.6591C269.77 22.6591 270.299 22.7917 270.75 23.0568C271.2 23.322 271.551 23.7008 271.801 24.1932C272.051 24.6818 272.176 25.2652 272.176 25.9432V31.5H269.755V26.375C269.759 25.8409 269.623 25.4242 269.346 25.125C269.07 24.822 268.689 24.6705 268.204 24.6705C267.878 24.6705 267.591 24.7405 267.341 24.8807C267.094 25.0208 266.901 25.2254 266.761 25.4943C266.625 25.7595 266.555 26.0795 266.551 26.4545ZM281.587 22.7727L278.536 31.5H275.809L272.758 22.7727H275.315L277.127 29.017H277.218L279.025 22.7727H281.587ZM286.202 31.6705C285.304 31.6705 284.531 31.4886 283.884 31.125C283.24 30.7576 282.744 30.2386 282.395 29.5682C282.047 28.8939 281.872 28.0966 281.872 27.1761C281.872 26.2784 282.047 25.4905 282.395 24.8125C282.744 24.1345 283.234 23.6061 283.867 23.2273C284.503 22.8485 285.249 22.6591 286.105 22.6591C286.681 22.6591 287.217 22.7519 287.713 22.9375C288.213 23.1193 288.649 23.3939 289.02 23.7614C289.395 24.1288 289.687 24.5909 289.895 25.1477C290.103 25.7008 290.208 26.3485 290.208 27.0909V27.7557H282.838V26.2557H287.929C287.929 25.9072 287.853 25.5985 287.702 25.3295C287.55 25.0606 287.34 24.8504 287.071 24.6989C286.806 24.5436 286.497 24.4659 286.145 24.4659C285.778 24.4659 285.452 24.5511 285.168 24.7216C284.888 24.8883 284.668 25.1136 284.509 25.3977C284.35 25.678 284.268 25.9905 284.264 26.3352V27.7614C284.264 28.1932 284.344 28.5663 284.503 28.8807C284.666 29.1951 284.895 29.4375 285.191 29.608C285.486 29.7784 285.836 29.8636 286.242 29.8636C286.511 29.8636 286.757 29.8258 286.98 29.75C287.204 29.6742 287.395 29.5606 287.554 29.4091C287.713 29.2576 287.835 29.072 287.918 28.8523L290.156 29C290.043 29.5379 289.81 30.0076 289.458 30.4091C289.109 30.8068 288.658 31.1174 288.105 31.3409C287.556 31.5606 286.922 31.6705 286.202 31.6705ZM293.888 26.4545V31.5H291.467V22.7727H293.774V24.3125H293.876C294.069 23.8049 294.393 23.4034 294.848 23.108C295.302 22.8087 295.854 22.6591 296.501 22.6591C297.107 22.6591 297.636 22.7917 298.086 23.0568C298.537 23.322 298.888 23.7008 299.138 24.1932C299.388 24.6818 299.513 25.2652 299.513 25.9432V31.5H297.092V26.375C297.096 25.8409 296.96 25.4242 296.683 25.125C296.407 24.822 296.026 24.6705 295.541 24.6705C295.215 24.6705 294.927 24.7405 294.677 24.8807C294.431 25.0208 294.238 25.2254 294.098 25.4943C293.961 25.7595 293.891 26.0795 293.888 26.4545ZM305.742 22.7727V24.5909H300.487V22.7727H305.742ZM301.68 20.6818H304.1V28.8182C304.1 29.0417 304.134 29.2159 304.203 29.3409C304.271 29.4621 304.365 29.5473 304.487 29.5966C304.612 29.6458 304.756 29.6705 304.918 29.6705C305.032 29.6705 305.146 29.661 305.259 29.642C305.373 29.6193 305.46 29.6023 305.521 29.5909L305.901 31.392C305.78 31.4299 305.61 31.4735 305.39 31.5227C305.17 31.5758 304.903 31.608 304.589 31.6193C304.006 31.642 303.494 31.5644 303.055 31.3864C302.619 31.2083 302.28 30.9318 302.038 30.5568C301.795 30.1818 301.676 29.7083 301.68 29.1364V20.6818ZM310.848 31.6705C309.966 31.6705 309.203 31.483 308.559 31.108C307.919 30.7292 307.424 30.2027 307.076 29.5284C306.727 28.8504 306.553 28.0644 306.553 27.1705C306.553 26.2689 306.727 25.4811 307.076 24.8068C307.424 24.1288 307.919 23.6023 308.559 23.2273C309.203 22.8485 309.966 22.6591 310.848 22.6591C311.731 22.6591 312.492 22.8485 313.133 23.2273C313.776 23.6023 314.273 24.1288 314.621 24.8068C314.97 25.4811 315.144 26.2689 315.144 27.1705C315.144 28.0644 314.97 28.8504 314.621 29.5284C314.273 30.2027 313.776 30.7292 313.133 31.108C312.492 31.483 311.731 31.6705 310.848 31.6705ZM310.86 29.7955C311.261 29.7955 311.597 29.6818 311.866 29.4545C312.134 29.2235 312.337 28.9091 312.473 28.5114C312.614 28.1136 312.684 27.661 312.684 27.1534C312.684 26.6458 312.614 26.1932 312.473 25.7955C312.337 25.3977 312.134 25.0833 311.866 24.8523C311.597 24.6212 311.261 24.5057 310.86 24.5057C310.455 24.5057 310.114 24.6212 309.837 24.8523C309.564 25.0833 309.358 25.3977 309.218 25.7955C309.081 26.1932 309.013 26.6458 309.013 27.1534C309.013 27.661 309.081 28.1136 309.218 28.5114C309.358 28.9091 309.564 29.2235 309.837 29.4545C310.114 29.6818 310.455 29.7955 310.86 29.7955ZM316.398 31.5V22.7727H318.744V24.2955H318.835C318.994 23.7538 319.261 23.3447 319.636 23.0682C320.011 22.7879 320.443 22.6477 320.932 22.6477C321.053 22.6477 321.184 22.6553 321.324 22.6705C321.464 22.6856 321.587 22.7064 321.693 22.733V24.8807C321.58 24.8466 321.422 24.8163 321.222 24.7898C321.021 24.7633 320.837 24.75 320.671 24.75C320.314 24.75 319.996 24.8277 319.716 24.983C319.439 25.1345 319.22 25.3466 319.057 25.6193C318.898 25.892 318.818 26.2064 318.818 26.5625V31.5H316.398ZM324.385 34.7727C324.078 34.7727 323.79 34.7481 323.521 34.6989C323.256 34.6534 323.036 34.5947 322.862 34.5227L323.407 32.7159C323.691 32.803 323.947 32.8504 324.174 32.858C324.405 32.8655 324.604 32.8125 324.771 32.6989C324.941 32.5852 325.08 32.392 325.186 32.1193L325.328 31.75L322.197 22.7727H324.743L326.549 29.1818H326.64L328.464 22.7727H331.027L327.635 32.4432C327.472 32.9129 327.25 33.322 326.97 33.6705C326.693 34.0227 326.343 34.2936 325.919 34.483C325.494 34.6761 324.983 34.7727 324.385 34.7727Z" fill="#C4FF00"/>
<defs>
<clipPath id="clip0_87_718">
<rect width="18" height="18" fill="white" transform="translate(158.5 17)"/>
</clipPath>
</defs>
</svg>
