<svg width="358" height="52" viewBox="0 0 358 52" fill="none" xmlns="http://www.w3.org/2000/svg">
<path d="M0 24C0 10.7452 10.7452 0 24 0H334C347.255 0 358 10.7452 358 24V28C358 41.2548 347.255 52 334 52H24C10.7452 52 0 41.2548 0 28V24Z" fill="#C4FF00"/>
<path fill-rule="evenodd" clip-rule="evenodd" d="M151 26C151 20.477 146.523 16 141 16C135.477 16 131 20.477 131 26C131 31.523 135.477 36 141 36C146.523 36 151 31.523 151 26ZM137.47 24.97C137.396 25.0387 137.337 25.1215 137.296 25.2135C137.255 25.3055 137.233 25.4048 137.231 25.5055C137.23 25.6062 137.248 25.7062 137.286 25.7996C137.324 25.893 137.38 25.9778 137.451 26.049C137.522 26.1203 137.607 26.1764 137.7 26.2141C137.794 26.2518 137.894 26.2704 137.995 26.2686C138.095 26.2668 138.195 26.2448 138.287 26.2038C138.379 26.1628 138.461 26.1037 138.53 26.03L141 23.56L143.47 26.03C143.539 26.1037 143.621 26.1628 143.713 26.2038C143.805 26.2448 143.905 26.2668 144.005 26.2686C144.106 26.2704 144.206 26.2518 144.3 26.2141C144.393 26.1764 144.478 26.1203 144.549 26.049C144.62 25.9778 144.676 25.893 144.714 25.7996C144.752 25.7062 144.77 25.6062 144.769 25.5055C144.767 25.4048 144.745 25.3055 144.704 25.2135C144.663 25.1215 144.604 25.0387 144.53 24.97L141.53 21.97C141.389 21.8295 141.199 21.7507 141 21.7507C140.801 21.7507 140.611 21.8295 140.47 21.97L137.47 24.97ZM137.47 30.03C137.33 29.8894 137.251 29.6988 137.251 29.5C137.251 29.3012 137.33 29.1106 137.47 28.97L140.47 25.97C140.611 25.8295 140.801 25.7507 141 25.7507C141.199 25.7507 141.389 25.8295 141.53 25.97L144.53 28.97C144.662 29.1122 144.735 29.3002 144.731 29.4945C144.728 29.6888 144.649 29.8742 144.512 30.0116C144.374 30.149 144.189 30.2277 143.995 30.2312C143.8 30.2346 143.612 30.1625 143.47 30.03L141 27.56L138.53 30.03C138.389 30.1705 138.199 30.2493 138 30.2493C137.801 30.2493 137.611 30.1705 137.47 30.03Z" fill="#242424"/>
<path d="M171.542 19.8636H174.002V27.4205C174.002 28.2689 173.799 29.0114 173.394 29.6477C172.992 30.2841 172.43 30.7803 171.706 31.1364C170.983 31.4886 170.14 31.6648 169.178 31.6648C168.212 31.6648 167.367 31.4886 166.644 31.1364C165.92 30.7803 165.358 30.2841 164.956 29.6477C164.555 29.0114 164.354 28.2689 164.354 27.4205V19.8636H166.814V27.2102C166.814 27.6534 166.911 28.0473 167.104 28.392C167.301 28.7367 167.578 29.0076 167.934 29.2045C168.29 29.4015 168.705 29.5 169.178 29.5C169.655 29.5 170.07 29.4015 170.422 29.2045C170.778 29.0076 171.053 28.7367 171.246 28.392C171.443 28.0473 171.542 27.6534 171.542 27.2102V19.8636ZM175.661 34.7727V22.7727H178.047V24.2386H178.155C178.261 24.0038 178.414 23.7652 178.615 23.5227C178.82 23.2765 179.085 23.072 179.411 22.9091C179.74 22.7424 180.149 22.6591 180.638 22.6591C181.274 22.6591 181.861 22.8258 182.399 23.1591C182.937 23.4886 183.367 23.9867 183.689 24.6534C184.011 25.3163 184.172 26.1477 184.172 27.1477C184.172 28.1212 184.015 28.9432 183.7 29.6136C183.39 30.2803 182.966 30.786 182.428 31.1307C181.894 31.4716 181.295 31.642 180.632 31.642C180.162 31.642 179.763 31.5644 179.433 31.4091C179.108 31.2538 178.841 31.0587 178.632 30.8239C178.424 30.5852 178.265 30.3447 178.155 30.1023H178.081V34.7727H175.661ZM178.03 27.1364C178.03 27.6553 178.102 28.108 178.246 28.4943C178.39 28.8807 178.598 29.1818 178.871 29.3977C179.144 29.6098 179.475 29.7159 179.865 29.7159C180.259 29.7159 180.592 29.608 180.865 29.392C181.138 29.1723 181.344 28.8693 181.484 28.483C181.628 28.0928 181.7 27.6439 181.7 27.1364C181.7 26.6326 181.63 26.1894 181.49 25.8068C181.35 25.4242 181.144 25.125 180.871 24.9091C180.598 24.6932 180.263 24.5852 179.865 24.5852C179.471 24.5852 179.138 24.6894 178.865 24.8977C178.596 25.1061 178.39 25.4015 178.246 25.7841C178.102 26.1667 178.03 26.6174 178.03 27.1364ZM189.397 34.9545C188.613 34.9545 187.941 34.8466 187.38 34.6307C186.824 34.4186 186.38 34.1288 186.051 33.7614C185.721 33.3939 185.507 32.9811 185.409 32.5227L187.647 32.2216C187.716 32.3958 187.824 32.5587 187.971 32.7102C188.119 32.8617 188.314 32.983 188.557 33.0739C188.803 33.1686 189.102 33.2159 189.454 33.2159C189.981 33.2159 190.414 33.0871 190.755 32.8295C191.1 32.5758 191.272 32.1496 191.272 31.5511V29.9545H191.17C191.064 30.197 190.905 30.4261 190.693 30.642C190.481 30.858 190.208 31.0341 189.875 31.1705C189.541 31.3068 189.144 31.375 188.682 31.375C188.026 31.375 187.43 31.2235 186.892 30.9205C186.358 30.6136 185.932 30.1458 185.613 29.517C185.299 28.8845 185.142 28.0852 185.142 27.1193C185.142 26.1307 185.303 25.3049 185.625 24.642C185.947 23.9792 186.375 23.483 186.909 23.1534C187.447 22.8239 188.036 22.6591 188.676 22.6591C189.164 22.6591 189.574 22.7424 189.903 22.9091C190.233 23.072 190.498 23.2765 190.699 23.5227C190.903 23.7652 191.06 24.0038 191.17 24.2386H191.261V22.7727H193.664V31.5852C193.664 32.3277 193.483 32.9489 193.119 33.4489C192.755 33.9489 192.252 34.3239 191.608 34.5739C190.967 34.8277 190.231 34.9545 189.397 34.9545ZM189.449 29.5568C189.839 29.5568 190.168 29.4602 190.437 29.267C190.71 29.0701 190.918 28.7898 191.062 28.4261C191.21 28.0587 191.284 27.6193 191.284 27.108C191.284 26.5966 191.212 26.1534 191.068 25.7784C190.924 25.3996 190.716 25.1061 190.443 24.8977C190.17 24.6894 189.839 24.5852 189.449 24.5852C189.051 24.5852 188.716 24.6932 188.443 24.9091C188.17 25.1212 187.964 25.4167 187.824 25.7955C187.683 26.1742 187.613 26.6117 187.613 27.108C187.613 27.6117 187.683 28.0473 187.824 28.4148C187.967 28.7784 188.174 29.0606 188.443 29.2614C188.716 29.4583 189.051 29.5568 189.449 29.5568ZM195.271 31.5V22.7727H197.617V24.2955H197.708C197.867 23.7538 198.134 23.3447 198.509 23.0682C198.884 22.7879 199.316 22.6477 199.805 22.6477C199.926 22.6477 200.057 22.6553 200.197 22.6705C200.337 22.6856 200.46 22.7064 200.566 22.733V24.8807C200.452 24.8466 200.295 24.8163 200.094 24.7898C199.894 24.7633 199.71 24.75 199.543 24.75C199.187 24.75 198.869 24.8277 198.589 24.983C198.312 25.1345 198.093 25.3466 197.93 25.6193C197.771 25.892 197.691 26.2064 197.691 26.5625V31.5H195.271ZM203.736 31.6648C203.179 31.6648 202.683 31.5682 202.247 31.375C201.812 31.178 201.467 30.8883 201.213 30.5057C200.963 30.1193 200.838 29.6383 200.838 29.0625C200.838 28.5777 200.927 28.1705 201.105 27.8409C201.283 27.5114 201.526 27.2462 201.833 27.0455C202.14 26.8447 202.488 26.6932 202.878 26.5909C203.272 26.4886 203.685 26.4167 204.117 26.375C204.624 26.322 205.033 26.2727 205.344 26.2273C205.655 26.178 205.88 26.1061 206.02 26.0114C206.16 25.9167 206.23 25.7765 206.23 25.5909V25.5568C206.23 25.197 206.117 24.9186 205.89 24.7216C205.666 24.5246 205.348 24.4261 204.935 24.4261C204.499 24.4261 204.153 24.5227 203.895 24.7159C203.638 24.9053 203.467 25.1439 203.384 25.4318L201.145 25.25C201.259 24.7197 201.482 24.2614 201.816 23.875C202.149 23.4848 202.579 23.1856 203.105 22.9773C203.636 22.7652 204.249 22.6591 204.946 22.6591C205.431 22.6591 205.895 22.7159 206.338 22.8295C206.785 22.9432 207.181 23.1193 207.526 23.358C207.874 23.5966 208.149 23.9034 208.35 24.2784C208.551 24.6496 208.651 25.0947 208.651 25.6136V31.5H206.355V30.2898H206.287C206.147 30.5625 205.96 30.803 205.725 31.0114C205.49 31.2159 205.208 31.3769 204.878 31.4943C204.549 31.608 204.168 31.6648 203.736 31.6648ZM204.429 29.9943C204.785 29.9943 205.1 29.9242 205.372 29.7841C205.645 29.6402 205.859 29.447 206.015 29.2045C206.17 28.9621 206.247 28.6875 206.247 28.3807V27.4545C206.172 27.5038 206.068 27.5492 205.935 27.5909C205.806 27.6288 205.66 27.6648 205.497 27.6989C205.335 27.7292 205.172 27.7576 205.009 27.7841C204.846 27.8068 204.698 27.8277 204.566 27.8466C204.282 27.8883 204.033 27.9545 203.821 28.0455C203.609 28.1364 203.444 28.2595 203.327 28.4148C203.21 28.5663 203.151 28.7557 203.151 28.983C203.151 29.3125 203.27 29.5644 203.509 29.7386C203.751 29.9091 204.058 29.9943 204.429 29.9943ZM213.425 31.642C212.762 31.642 212.161 31.4716 211.623 31.1307C211.089 30.786 210.665 30.2803 210.351 29.6136C210.04 28.9432 209.885 28.1212 209.885 27.1477C209.885 26.1477 210.046 25.3163 210.368 24.6534C210.69 23.9867 211.118 23.4886 211.652 23.1591C212.19 22.8258 212.779 22.6591 213.419 22.6591C213.908 22.6591 214.315 22.7424 214.641 22.9091C214.97 23.072 215.235 23.2765 215.436 23.5227C215.641 23.7652 215.796 24.0038 215.902 24.2386H215.976V19.8636H218.391V31.5H216.004V30.1023H215.902C215.788 30.3447 215.627 30.5852 215.419 30.8239C215.214 31.0587 214.947 31.2538 214.618 31.4091C214.292 31.5644 213.894 31.642 213.425 31.642ZM214.192 29.7159C214.582 29.7159 214.911 29.6098 215.18 29.3977C215.453 29.1818 215.661 28.8807 215.805 28.4943C215.953 28.108 216.027 27.6553 216.027 27.1364C216.027 26.6174 215.955 26.1667 215.811 25.7841C215.667 25.4015 215.459 25.1061 215.186 24.8977C214.913 24.6894 214.582 24.5852 214.192 24.5852C213.794 24.5852 213.459 24.6932 213.186 24.9091C212.913 25.125 212.707 25.4242 212.567 25.8068C212.427 26.1894 212.356 26.6326 212.356 27.1364C212.356 27.6439 212.427 28.0928 212.567 28.483C212.711 28.8693 212.917 29.1723 213.186 29.392C213.459 29.608 213.794 29.7159 214.192 29.7159ZM224.038 31.6705C223.14 31.6705 222.367 31.4886 221.72 31.125C221.076 30.7576 220.58 30.2386 220.231 29.5682C219.883 28.8939 219.708 28.0966 219.708 27.1761C219.708 26.2784 219.883 25.4905 220.231 24.8125C220.58 24.1345 221.07 23.6061 221.703 23.2273C222.339 22.8485 223.085 22.6591 223.941 22.6591C224.517 22.6591 225.053 22.7519 225.549 22.9375C226.049 23.1193 226.485 23.3939 226.856 23.7614C227.231 24.1288 227.523 24.5909 227.731 25.1477C227.939 25.7008 228.044 26.3485 228.044 27.0909V27.7557H220.674V26.2557H225.765C225.765 25.9072 225.689 25.5985 225.538 25.3295C225.386 25.0606 225.176 24.8504 224.907 24.6989C224.642 24.5436 224.333 24.4659 223.981 24.4659C223.614 24.4659 223.288 24.5511 223.004 24.7216C222.723 24.8883 222.504 25.1136 222.345 25.3977C222.186 25.678 222.104 25.9905 222.1 26.3352V27.7614C222.1 28.1932 222.18 28.5663 222.339 28.8807C222.502 29.1951 222.731 29.4375 223.027 29.608C223.322 29.7784 223.672 29.8636 224.078 29.8636C224.347 29.8636 224.593 29.8258 224.816 29.75C225.04 29.6742 225.231 29.5606 225.39 29.4091C225.549 29.2576 225.67 29.072 225.754 28.8523L227.992 29C227.879 29.5379 227.646 30.0076 227.294 30.4091C226.945 30.8068 226.494 31.1174 225.941 31.3409C225.392 31.5606 224.758 31.6705 224.038 31.6705Z" fill="#242424"/>
</svg>
