<svg width="48" height="48" viewBox="0 0 48 48" fill="none" xmlns="http://www.w3.org/2000/svg">
<path d="M0 16C0 7.16344 7.16344 0 16 0H32C40.8366 0 48 7.16344 48 16V32C48 40.8366 40.8366 48 32 48H16C7.16344 48 0 40.8366 0 32V16Z" fill="#19191F"/>
<path d="M18.6096 28.1364V20.2727H20.3937V28.1364H18.6096ZM15.5698 25.0966V23.3125H23.4334V25.0966H15.5698ZM29.6674 30.1591C28.8492 30.1591 28.122 30.0189 27.4856 29.7386C26.853 29.4583 26.353 29.0682 25.9856 28.5682C25.6182 28.0682 25.4231 27.4905 25.4004 26.8352H27.5367C27.5557 27.1496 27.6598 27.4242 27.8492 27.6591C28.0386 27.8902 28.2905 28.0701 28.6049 28.1989C28.9193 28.3277 29.2716 28.392 29.6617 28.392C30.0784 28.392 30.4477 28.3201 30.7697 28.1761C31.0917 28.0284 31.3436 27.8239 31.5254 27.5625C31.7072 27.3011 31.7962 27 31.7924 26.6591C31.7962 26.3068 31.7053 25.9962 31.5197 25.7273C31.3341 25.4583 31.0651 25.2481 30.7129 25.0966C30.3644 24.9451 29.9439 24.8693 29.4515 24.8693H28.4231V23.2443H29.4515C29.8568 23.2443 30.211 23.1742 30.514 23.0341C30.8208 22.8939 31.0614 22.697 31.2356 22.4432C31.4098 22.1856 31.4951 21.8883 31.4913 21.5511C31.4951 21.2216 31.4212 20.9356 31.2697 20.6932C31.122 20.447 30.9117 20.2557 30.639 20.1193C30.3701 19.983 30.0538 19.9148 29.6901 19.9148C29.3341 19.9148 29.0045 19.9792 28.7015 20.108C28.3985 20.2367 28.1542 20.4205 27.9686 20.6591C27.7829 20.8939 27.6845 21.1742 27.6731 21.5H25.6447C25.6598 20.8485 25.8473 20.2765 26.2072 19.7841C26.5708 19.2879 27.0557 18.9015 27.6617 18.625C28.2678 18.3447 28.9477 18.2045 29.7015 18.2045C30.478 18.2045 31.1523 18.3504 31.7242 18.642C32.3 18.9299 32.7451 19.3182 33.0595 19.8068C33.3739 20.2955 33.5311 20.8352 33.5311 21.4261C33.5348 22.0814 33.3417 22.6307 32.9515 23.0739C32.5651 23.517 32.0576 23.8068 31.4288 23.9432V24.0341C32.247 24.1477 32.8739 24.4508 33.3095 24.9432C33.7489 25.4318 33.9667 26.0398 33.9629 26.767C33.9629 27.4186 33.7773 28.0019 33.4061 28.517C33.0386 29.0284 32.5311 29.4299 31.8833 29.7216C31.2394 30.0133 30.5007 30.1591 29.6674 30.1591Z" fill="white"/>
</svg>
