<svg width="174" height="174" viewBox="0 0 174 174" fill="none" xmlns="http://www.w3.org/2000/svg">
<rect width="174" height="174" rx="24" fill="#15151A"/>
<g opacity="0.3">
<path d="M79.5 82.0999C78.9431 82.0999 78.4089 81.8787 78.0151 81.4848C77.6213 81.091 77.4 80.5569 77.4 79.9999C77.4 79.4429 77.6213 78.9088 78.0151 78.515C78.4089 78.1212 78.9431 77.8999 79.5 77.8999H100.5C101.057 77.8999 101.591 78.1212 101.985 78.515C102.379 78.9088 102.6 79.4429 102.6 79.9999C102.6 80.5569 102.379 81.091 101.985 81.4848C101.591 81.8787 101.057 82.0999 100.5 82.0999H79.5Z" fill="white"/>
<path d="M87.9 69.4999C87.9 68.9429 88.1213 68.4088 88.5151 68.015C88.9089 67.6212 89.4431 67.3999 90 67.3999C90.557 67.3999 91.0911 67.6212 91.4849 68.015C91.8788 68.4088 92.1 68.9429 92.1 69.4999V90.4999C92.1 91.0569 91.8788 91.591 91.4849 91.9848C91.0911 92.3787 90.557 92.5999 90 92.5999C89.4431 92.5999 88.9089 92.3787 88.5151 91.9848C88.1213 91.591 87.9 91.0569 87.9 90.4999V69.4999Z" fill="white"/>
</g>
<path d="M53.4053 130.254H51.5459C51.4929 129.949 51.3951 129.679 51.2526 129.443C51.1101 129.205 50.9328 129.002 50.7207 128.837C50.5085 128.671 50.2666 128.547 49.9948 128.464C49.7263 128.378 49.4363 128.335 49.1248 128.335C48.5713 128.335 48.0807 128.474 47.6532 128.752C47.2256 129.027 46.8909 129.432 46.6489 129.965C46.407 130.496 46.286 131.143 46.286 131.909C46.286 132.688 46.407 133.344 46.6489 133.878C46.8942 134.408 47.2289 134.809 47.6532 135.081C48.0807 135.349 48.5696 135.484 49.1198 135.484C49.4247 135.484 49.7098 135.444 49.9749 135.364C50.2434 135.281 50.4837 135.161 50.6958 135.001C50.9112 134.842 51.0919 134.647 51.2377 134.415C51.3869 134.183 51.4896 133.918 51.5459 133.619L53.4053 133.629C53.3357 134.113 53.1849 134.567 52.9529 134.991C52.7242 135.416 52.4243 135.79 52.053 136.115C51.6818 136.437 51.2476 136.688 50.7505 136.871C50.2533 137.05 49.7015 137.139 49.095 137.139C48.2001 137.139 47.4013 136.932 46.6986 136.518C45.996 136.103 45.4425 135.505 45.0381 134.723C44.6338 133.941 44.4316 133.003 44.4316 131.909C44.4316 130.812 44.6354 129.874 45.0431 129.095C45.4508 128.313 46.0059 127.715 46.7086 127.3C47.4112 126.886 48.2067 126.679 49.095 126.679C49.6617 126.679 50.1887 126.759 50.6759 126.918C51.1631 127.077 51.5973 127.31 51.9785 127.619C52.3596 127.924 52.6728 128.298 52.9181 128.742C53.1667 129.183 53.3291 129.687 53.4053 130.254ZM56.5346 132.526V137H54.7349V126.818H56.4948V130.661H56.5843C56.7633 130.23 57.04 129.891 57.4146 129.642C57.7924 129.39 58.273 129.264 58.8563 129.264C59.3866 129.264 59.849 129.375 60.2434 129.597C60.6378 129.819 60.9427 130.144 61.1582 130.572C61.3769 130.999 61.4863 131.521 61.4863 132.138V137H59.6866V132.416C59.6866 131.902 59.554 131.503 59.2889 131.218C59.027 130.93 58.6591 130.786 58.1852 130.786C57.867 130.786 57.5819 130.855 57.33 130.994C57.0815 131.13 56.8859 131.327 56.7434 131.586C56.6042 131.844 56.5346 132.158 56.5346 132.526ZM66.3718 137.149C65.626 137.149 64.9797 136.985 64.4329 136.657C63.886 136.329 63.4617 135.87 63.1601 135.28C62.8618 134.69 62.7127 134 62.7127 133.212C62.7127 132.423 62.8618 131.732 63.1601 131.138C63.4617 130.545 63.886 130.085 64.4329 129.756C64.9797 129.428 65.626 129.264 66.3718 129.264C67.1175 129.264 67.7638 129.428 68.3107 129.756C68.8576 130.085 69.2802 130.545 69.5785 131.138C69.8801 131.732 70.0309 132.423 70.0309 133.212C70.0309 134 69.8801 134.69 69.5785 135.28C69.2802 135.87 68.8576 136.329 68.3107 136.657C67.7638 136.985 67.1175 137.149 66.3718 137.149ZM66.3817 135.707C66.7861 135.707 67.1241 135.596 67.3959 135.374C67.6677 135.149 67.8699 134.847 68.0025 134.469C68.1383 134.092 68.2063 133.671 68.2063 133.207C68.2063 132.739 68.1383 132.317 68.0025 131.939C67.8699 131.558 67.6677 131.254 67.3959 131.029C67.1241 130.804 66.7861 130.691 66.3817 130.691C65.9674 130.691 65.6227 130.804 65.3476 131.029C65.0758 131.254 64.872 131.558 64.7361 131.939C64.6035 132.317 64.5373 132.739 64.5373 133.207C64.5373 133.671 64.6035 134.092 64.7361 134.469C64.872 134.847 65.0758 135.149 65.3476 135.374C65.6227 135.596 65.9674 135.707 66.3817 135.707ZM74.6094 137.149C73.8636 137.149 73.2173 136.985 72.6704 136.657C72.1236 136.329 71.6993 135.87 71.3977 135.28C71.0994 134.69 70.9503 134 70.9503 133.212C70.9503 132.423 71.0994 131.732 71.3977 131.138C71.6993 130.545 72.1236 130.085 72.6704 129.756C73.2173 129.428 73.8636 129.264 74.6094 129.264C75.3551 129.264 76.0014 129.428 76.5483 129.756C77.0951 130.085 77.5177 130.545 77.816 131.138C78.1176 131.732 78.2684 132.423 78.2684 133.212C78.2684 134 78.1176 134.69 77.816 135.28C77.5177 135.87 77.0951 136.329 76.5483 136.657C76.0014 136.985 75.3551 137.149 74.6094 137.149ZM74.6193 135.707C75.0237 135.707 75.3617 135.596 75.6335 135.374C75.9053 135.149 76.1075 134.847 76.24 134.469C76.3759 134.092 76.4439 133.671 76.4439 133.207C76.4439 132.739 76.3759 132.317 76.24 131.939C76.1075 131.558 75.9053 131.254 75.6335 131.029C75.3617 130.804 75.0237 130.691 74.6193 130.691C74.205 130.691 73.8603 130.804 73.5852 131.029C73.3134 131.254 73.1096 131.558 72.9737 131.939C72.8411 132.317 72.7748 132.739 72.7748 133.207C72.7748 133.671 72.8411 134.092 72.9737 134.469C73.1096 134.847 73.3134 135.149 73.5852 135.374C73.8603 135.596 74.205 135.707 74.6193 135.707ZM85.5515 131.382L83.9109 131.561C83.8645 131.395 83.7832 131.24 83.6672 131.094C83.5546 130.948 83.4021 130.83 83.2099 130.741C83.0176 130.651 82.7823 130.607 82.5039 130.607C82.1294 130.607 81.8145 130.688 81.5593 130.85C81.3074 131.013 81.1831 131.223 81.1864 131.482C81.1831 131.704 81.2643 131.884 81.43 132.023C81.5991 132.163 81.8775 132.277 82.2653 132.366L83.5678 132.645C84.2904 132.801 84.8273 133.048 85.1786 133.386C85.5332 133.724 85.7122 134.166 85.7155 134.713C85.7122 135.194 85.5714 135.618 85.293 135.986C85.0179 136.35 84.635 136.635 84.1445 136.841C83.654 137.046 83.0905 137.149 82.4542 137.149C81.5195 137.149 80.7672 136.954 80.1971 136.562C79.627 136.168 79.2873 135.62 79.1779 134.917L80.9329 134.748C81.0124 135.093 81.1815 135.353 81.44 135.528C81.6985 135.704 82.0349 135.792 82.4492 135.792C82.8768 135.792 83.2198 135.704 83.4783 135.528C83.7402 135.353 83.8711 135.136 83.8711 134.877C83.8711 134.658 83.7866 134.478 83.6175 134.335C83.4518 134.193 83.1933 134.083 82.842 134.007L81.5394 133.734C80.8069 133.581 80.265 133.324 79.9137 132.963C79.5624 132.598 79.3884 132.138 79.3917 131.581C79.3884 131.11 79.516 130.703 79.7745 130.358C80.0363 130.01 80.3993 129.741 80.8633 129.553C81.3306 129.36 81.8692 129.264 82.479 129.264C83.3739 129.264 84.0782 129.455 84.592 129.836C85.109 130.217 85.4288 130.732 85.5515 131.382ZM90.3002 137.149C89.5346 137.149 88.8734 136.99 88.3166 136.672C87.7631 136.35 87.3372 135.896 87.0389 135.31C86.7406 134.72 86.5914 134.025 86.5914 133.227C86.5914 132.441 86.7406 131.752 87.0389 131.158C87.3405 130.562 87.7614 130.098 88.3017 129.766C88.8419 129.432 89.4766 129.264 90.2058 129.264C90.6764 129.264 91.1206 129.34 91.5382 129.493C91.9591 129.642 92.3303 129.874 92.6518 130.189C92.9766 130.504 93.2318 130.905 93.4174 131.392C93.603 131.876 93.6958 132.453 93.6958 133.122V133.674H87.4366V132.461H91.9707C91.9674 132.116 91.8928 131.81 91.747 131.541C91.6011 131.269 91.3973 131.056 91.1355 130.9C90.8769 130.744 90.5753 130.666 90.2306 130.666C89.8627 130.666 89.5396 130.756 89.2612 130.935C88.9828 131.11 88.7657 131.342 88.6099 131.631C88.4574 131.916 88.3795 132.229 88.3762 132.57V133.629C88.3762 134.073 88.4574 134.455 88.6198 134.773C88.7822 135.088 89.0093 135.33 89.301 135.499C89.5926 135.664 89.934 135.747 90.3251 135.747C90.5869 135.747 90.8239 135.711 91.036 135.638C91.2482 135.562 91.4321 135.451 91.5879 135.305C91.7437 135.159 91.8613 134.978 91.9409 134.763L93.6213 134.952C93.5152 135.396 93.313 135.784 93.0147 136.115C92.7197 136.443 92.3419 136.698 91.8812 136.881C91.4205 137.06 90.8935 137.149 90.3002 137.149ZM100.328 137.154C99.8446 137.154 99.4087 137.068 99.021 136.896C98.6365 136.72 98.3316 136.461 98.1062 136.12C97.8841 135.779 97.7731 135.358 97.7731 134.857C97.7731 134.426 97.8526 134.07 98.0117 133.788C98.1708 133.507 98.3879 133.281 98.663 133.112C98.9381 132.943 99.248 132.816 99.5927 132.729C99.9407 132.64 100.3 132.575 100.672 132.536C101.119 132.489 101.482 132.448 101.76 132.411C102.039 132.371 102.241 132.312 102.367 132.232C102.496 132.149 102.561 132.022 102.561 131.849V131.82C102.561 131.445 102.45 131.155 102.228 130.95C102.006 130.744 101.686 130.641 101.268 130.641C100.827 130.641 100.478 130.737 100.219 130.93C99.9639 131.122 99.7916 131.349 99.7021 131.611L98.0217 131.372C98.1542 130.908 98.373 130.52 98.6779 130.209C98.9828 129.894 99.3557 129.659 99.7965 129.503C100.237 129.344 100.725 129.264 101.258 129.264C101.626 129.264 101.992 129.307 102.357 129.393C102.721 129.48 103.055 129.622 103.356 129.821C103.658 130.017 103.9 130.283 104.082 130.621C104.268 130.96 104.36 131.382 104.36 131.889V137H102.63V135.951H102.571C102.461 136.163 102.307 136.362 102.108 136.548C101.913 136.73 101.666 136.877 101.368 136.99C101.073 137.099 100.726 137.154 100.328 137.154ZM100.796 135.832C101.157 135.832 101.47 135.76 101.735 135.618C102.001 135.472 102.204 135.28 102.347 135.041C102.493 134.803 102.566 134.542 102.566 134.261V133.361C102.509 133.407 102.413 133.45 102.277 133.49C102.145 133.53 101.996 133.565 101.83 133.594C101.664 133.624 101.5 133.651 101.338 133.674C101.175 133.697 101.034 133.717 100.915 133.734C100.647 133.77 100.406 133.83 100.194 133.913C99.9821 133.996 99.8148 134.112 99.6921 134.261C99.5695 134.406 99.5082 134.595 99.5082 134.827C99.5082 135.159 99.6292 135.409 99.8711 135.578C100.113 135.747 100.421 135.832 100.796 135.832ZM112.404 140.023C111.757 140.023 111.202 139.935 110.738 139.759C110.274 139.587 109.901 139.355 109.62 139.063C109.338 138.772 109.142 138.448 109.033 138.094L110.654 137.701C110.727 137.85 110.833 137.998 110.972 138.143C111.111 138.293 111.298 138.415 111.534 138.511C111.772 138.611 112.072 138.661 112.434 138.661C112.944 138.661 113.367 138.536 113.701 138.288C114.036 138.042 114.204 137.638 114.204 137.075V135.628H114.114C114.021 135.813 113.885 136.004 113.706 136.2C113.531 136.395 113.297 136.559 113.005 136.692C112.717 136.824 112.354 136.891 111.917 136.891C111.33 136.891 110.798 136.753 110.321 136.478C109.847 136.2 109.469 135.785 109.187 135.235C108.909 134.682 108.77 133.989 108.77 133.157C108.77 132.318 108.909 131.611 109.187 131.034C109.469 130.454 109.848 130.015 110.326 129.717C110.803 129.415 111.335 129.264 111.922 129.264C112.369 129.264 112.737 129.34 113.025 129.493C113.317 129.642 113.549 129.823 113.721 130.035C113.894 130.244 114.025 130.441 114.114 130.626H114.213V129.364H115.988V137.124C115.988 137.777 115.833 138.317 115.521 138.745C115.209 139.173 114.784 139.492 114.243 139.705C113.703 139.917 113.09 140.023 112.404 140.023ZM112.419 135.479C112.8 135.479 113.125 135.386 113.393 135.2C113.662 135.015 113.865 134.748 114.005 134.4C114.144 134.052 114.213 133.634 114.213 133.147C114.213 132.666 114.144 132.246 114.005 131.884C113.869 131.523 113.667 131.243 113.398 131.044C113.133 130.842 112.806 130.741 112.419 130.741C112.018 130.741 111.683 130.845 111.414 131.054C111.146 131.263 110.944 131.549 110.808 131.914C110.672 132.275 110.604 132.686 110.604 133.147C110.604 133.614 110.672 134.024 110.808 134.375C110.947 134.723 111.151 134.995 111.419 135.19C111.691 135.383 112.024 135.479 112.419 135.479ZM117.553 137V129.364H119.352V137H117.553ZM118.458 128.28C118.173 128.28 117.927 128.185 117.722 127.996C117.516 127.804 117.414 127.574 117.414 127.305C117.414 127.034 117.516 126.803 117.722 126.614C117.927 126.422 118.173 126.326 118.458 126.326C118.746 126.326 118.991 126.422 119.193 126.614C119.399 126.803 119.502 127.034 119.502 127.305C119.502 127.574 119.399 127.804 119.193 127.996C118.991 128.185 118.746 128.28 118.458 128.28ZM124.791 129.364V130.756H120.277V129.364H124.791ZM121.405 137V128.643C121.405 128.129 121.511 127.701 121.724 127.36C121.939 127.019 122.227 126.763 122.589 126.594C122.95 126.425 123.351 126.341 123.792 126.341C124.103 126.341 124.38 126.366 124.622 126.415C124.864 126.465 125.043 126.51 125.159 126.55L124.801 127.942C124.725 127.919 124.629 127.895 124.513 127.872C124.397 127.846 124.267 127.832 124.125 127.832C123.79 127.832 123.553 127.914 123.414 128.076C123.278 128.235 123.21 128.464 123.21 128.762V137H121.405ZM129.734 129.364V130.756H125.344V129.364H129.734ZM126.428 127.534H128.227V134.703C128.227 134.945 128.264 135.131 128.337 135.26C128.413 135.386 128.512 135.472 128.635 135.518C128.758 135.565 128.894 135.588 129.043 135.588C129.155 135.588 129.258 135.58 129.351 135.563C129.447 135.547 129.52 135.532 129.57 135.518L129.873 136.925C129.777 136.959 129.639 136.995 129.46 137.035C129.285 137.075 129.069 137.098 128.814 137.104C128.363 137.118 127.957 137.05 127.596 136.901C127.235 136.748 126.948 136.513 126.736 136.195C126.527 135.876 126.424 135.479 126.428 135.001V127.534ZM44.0042 146.364V147.756H39.49V146.364H44.0042ZM40.6186 154V145.643C40.6186 145.129 40.7246 144.701 40.9367 144.36C41.1522 144.019 41.4405 143.763 41.8018 143.594C42.1631 143.425 42.5641 143.341 43.0049 143.341C43.3165 143.341 43.5932 143.366 43.8352 143.415C44.0771 143.465 44.2561 143.51 44.3721 143.55L44.0142 144.942C43.9379 144.919 43.8418 144.895 43.7258 144.872C43.6098 144.846 43.4805 144.832 43.338 144.832C43.0033 144.832 42.7663 144.914 42.6271 145.076C42.4912 145.235 42.4232 145.464 42.4232 145.762V154H40.6186ZM45.1337 154V146.364H46.8787V147.636H46.9582C47.0974 147.196 47.3361 146.856 47.6741 146.617C48.0155 146.375 48.405 146.254 48.8425 146.254C48.9419 146.254 49.0529 146.259 49.1756 146.269C49.3015 146.276 49.4059 146.287 49.4888 146.304V147.96C49.4125 147.933 49.2916 147.91 49.1258 147.89C48.9634 147.867 48.806 147.855 48.6535 147.855C48.3254 147.855 48.0304 147.926 47.7686 148.069C47.5101 148.208 47.3062 148.402 47.1571 148.651C47.008 148.899 46.9334 149.186 46.9334 149.511V154H45.1337ZM53.421 154.149C52.6752 154.149 52.0289 153.985 51.482 153.657C50.9352 153.329 50.5109 152.87 50.2093 152.28C49.911 151.69 49.7619 151 49.7619 150.212C49.7619 149.423 49.911 148.732 50.2093 148.138C50.5109 147.545 50.9352 147.085 51.482 146.756C52.0289 146.428 52.6752 146.264 53.421 146.264C54.1667 146.264 54.813 146.428 55.3599 146.756C55.9068 147.085 56.3293 147.545 56.6276 148.138C56.9292 148.732 57.08 149.423 57.08 150.212C57.08 151 56.9292 151.69 56.6276 152.28C56.3293 152.87 55.9068 153.329 55.3599 153.657C54.813 153.985 54.1667 154.149 53.421 154.149ZM53.4309 152.707C53.8353 152.707 54.1733 152.596 54.4451 152.374C54.7169 152.149 54.9191 151.847 55.0516 151.469C55.1875 151.092 55.2555 150.671 55.2555 150.207C55.2555 149.739 55.1875 149.317 55.0516 148.939C54.9191 148.558 54.7169 148.254 54.4451 148.029C54.1733 147.804 53.8353 147.691 53.4309 147.691C53.0166 147.691 52.6719 147.804 52.3968 148.029C52.125 148.254 51.9212 148.558 51.7853 148.939C51.6527 149.317 51.5864 149.739 51.5864 150.207C51.5864 150.671 51.6527 151.092 51.7853 151.469C51.9212 151.847 52.125 152.149 52.3968 152.374C52.6719 152.596 53.0166 152.707 53.4309 152.707ZM58.3276 154V146.364H60.0477V147.661H60.1372C60.2963 147.224 60.5598 146.882 60.9277 146.637C61.2956 146.388 61.7348 146.264 62.2452 146.264C62.7622 146.264 63.1981 146.39 63.5527 146.642C63.9107 146.891 64.1626 147.23 64.3084 147.661H64.3879C64.557 147.237 64.842 146.899 65.2431 146.647C65.6474 146.392 66.1263 146.264 66.6798 146.264C67.3825 146.264 67.9559 146.486 68.4 146.93C68.8441 147.375 69.0662 148.022 69.0662 148.874V154H67.2615V149.153C67.2615 148.679 67.1356 148.332 66.8837 148.114C66.6318 147.892 66.3235 147.781 65.959 147.781C65.5248 147.781 65.185 147.916 64.9398 148.188C64.6978 148.457 64.5769 148.806 64.5769 149.237V154H62.8119V149.078C62.8119 148.684 62.6926 148.369 62.454 148.134C62.2187 147.898 61.9104 147.781 61.5293 147.781C61.2707 147.781 61.0354 147.847 60.8233 147.979C60.6112 148.109 60.4422 148.293 60.3162 148.531C60.1903 148.767 60.1273 149.042 60.1273 149.357V154H58.3276ZM73.8047 154V146.364H75.6044V154H73.8047ZM74.7095 145.28C74.4245 145.28 74.1792 145.185 73.9737 144.996C73.7682 144.804 73.6655 144.574 73.6655 144.305C73.6655 144.034 73.7682 143.803 73.9737 143.614C74.1792 143.422 74.4245 143.326 74.7095 143.326C74.9979 143.326 75.2431 143.422 75.4453 143.614C75.6508 143.803 75.7535 144.034 75.7535 144.305C75.7535 144.574 75.6508 144.804 75.4453 144.996C75.2431 145.185 74.9979 145.28 74.7095 145.28ZM78.9748 149.526V154H77.1751V146.364H78.8952V147.661H78.9847C79.1604 147.234 79.4405 146.894 79.8249 146.642C80.2127 146.39 80.6916 146.264 81.2617 146.264C81.7887 146.264 82.2477 146.377 82.6388 146.602C83.0333 146.828 83.3382 147.154 83.5536 147.582C83.7724 148.009 83.8801 148.528 83.8768 149.138V154H82.0771V149.416C82.0771 148.906 81.9445 148.506 81.6793 148.218C81.4175 147.93 81.0546 147.786 80.5906 147.786C80.2757 147.786 79.9956 147.855 79.7504 147.994C79.5084 148.13 79.3178 148.327 79.1786 148.586C79.0427 148.844 78.9748 149.158 78.9748 149.526ZM91.9739 146.364L89.2544 154H87.2658L84.5463 146.364H86.4654L88.2204 152.036H88.2999L90.0598 146.364H91.9739ZM96.0602 154.149C95.2946 154.149 94.6334 153.99 94.0765 153.672C93.523 153.35 93.0971 152.896 92.7988 152.31C92.5005 151.72 92.3514 151.025 92.3514 150.227C92.3514 149.441 92.5005 148.752 92.7988 148.158C93.1004 147.562 93.5214 147.098 94.0616 146.766C94.6019 146.432 95.2366 146.264 95.9657 146.264C96.4364 146.264 96.8805 146.34 97.2981 146.493C97.7191 146.642 98.0903 146.874 98.4118 147.189C98.7366 147.504 98.9918 147.905 99.1774 148.392C99.363 148.876 99.4558 149.453 99.4558 150.122V150.674H93.1966V149.461H97.7307C97.7273 149.116 97.6528 148.81 97.5069 148.541C97.3611 148.269 97.1573 148.056 96.8954 147.9C96.6369 147.744 96.3353 147.666 95.9906 147.666C95.6227 147.666 95.2995 147.756 95.0211 147.935C94.7427 148.11 94.5256 148.342 94.3699 148.631C94.2174 148.916 94.1395 149.229 94.1362 149.57V150.629C94.1362 151.073 94.2174 151.455 94.3798 151.773C94.5422 152.088 94.7692 152.33 95.0609 152.499C95.3526 152.664 95.694 152.747 96.0851 152.747C96.3469 152.747 96.5839 152.711 96.796 152.638C97.0081 152.562 97.1921 152.451 97.3478 152.305C97.5036 152.159 97.6213 151.978 97.7008 151.763L99.3812 151.952C99.2752 152.396 99.073 152.784 98.7747 153.115C98.4797 153.443 98.1019 153.698 97.6412 153.881C97.1805 154.06 96.6535 154.149 96.0602 154.149ZM102.498 149.526V154H100.698V146.364H102.419V147.661H102.508C102.684 147.234 102.964 146.894 103.348 146.642C103.736 146.39 104.215 146.264 104.785 146.264C105.312 146.264 105.771 146.377 106.162 146.602C106.557 146.828 106.861 147.154 107.077 147.582C107.296 148.009 107.403 148.528 107.4 149.138V154H105.6V149.416C105.6 148.906 105.468 148.506 105.203 148.218C104.941 147.93 104.578 147.786 104.114 147.786C103.799 147.786 103.519 147.855 103.274 147.994C103.032 148.13 102.841 148.327 102.702 148.586C102.566 148.844 102.498 149.158 102.498 149.526ZM112.763 146.364V147.756H108.373V146.364H112.763ZM109.457 144.534H111.256V151.703C111.256 151.945 111.293 152.131 111.366 152.26C111.442 152.386 111.541 152.472 111.664 152.518C111.787 152.565 111.923 152.588 112.072 152.588C112.184 152.588 112.287 152.58 112.38 152.563C112.476 152.547 112.549 152.532 112.599 152.518L112.902 153.925C112.806 153.959 112.668 153.995 112.489 154.035C112.314 154.075 112.098 154.098 111.843 154.104C111.392 154.118 110.986 154.05 110.625 153.901C110.264 153.748 109.977 153.513 109.765 153.195C109.556 152.876 109.453 152.479 109.457 152.001V144.534ZM117.237 154.149C116.491 154.149 115.845 153.985 115.298 153.657C114.751 153.329 114.327 152.87 114.025 152.28C113.727 151.69 113.578 151 113.578 150.212C113.578 149.423 113.727 148.732 114.025 148.138C114.327 147.545 114.751 147.085 115.298 146.756C115.845 146.428 116.491 146.264 117.237 146.264C117.983 146.264 118.629 146.428 119.176 146.756C119.723 147.085 120.145 147.545 120.444 148.138C120.745 148.732 120.896 149.423 120.896 150.212C120.896 151 120.745 151.69 120.444 152.28C120.145 152.87 119.723 153.329 119.176 153.657C118.629 153.985 117.983 154.149 117.237 154.149ZM117.247 152.707C117.651 152.707 117.989 152.596 118.261 152.374C118.533 152.149 118.735 151.847 118.868 151.469C119.003 151.092 119.071 150.671 119.071 150.207C119.071 149.739 119.003 149.317 118.868 148.939C118.735 148.558 118.533 148.254 118.261 148.029C117.989 147.804 117.651 147.691 117.247 147.691C116.833 147.691 116.488 147.804 116.213 148.029C115.941 148.254 115.737 148.558 115.601 148.939C115.469 149.317 115.402 149.739 115.402 150.207C115.402 150.671 115.469 151.092 115.601 151.469C115.737 151.847 115.941 152.149 116.213 152.374C116.488 152.596 116.833 152.707 117.247 152.707ZM122.144 154V146.364H123.889V147.636H123.968C124.107 147.196 124.346 146.856 124.684 146.617C125.025 146.375 125.415 146.254 125.852 146.254C125.952 146.254 126.063 146.259 126.185 146.269C126.311 146.276 126.416 146.287 126.499 146.304V147.96C126.422 147.933 126.301 147.91 126.136 147.89C125.973 147.867 125.816 147.855 125.663 147.855C125.335 147.855 125.04 147.926 124.778 148.069C124.52 148.208 124.316 148.402 124.167 148.651C124.018 148.899 123.943 149.186 123.943 149.511V154H122.144ZM128.765 156.864C128.52 156.864 128.293 156.844 128.084 156.804C127.879 156.768 127.715 156.724 127.592 156.675L128.01 155.273C128.271 155.349 128.505 155.385 128.711 155.382C128.916 155.379 129.097 155.314 129.253 155.188C129.412 155.066 129.546 154.86 129.655 154.572L129.809 154.159L127.04 146.364H128.949L130.709 152.131H130.789L132.554 146.364H134.468L131.41 154.925C131.268 155.329 131.079 155.675 130.843 155.964C130.608 156.255 130.32 156.478 129.978 156.63C129.64 156.786 129.236 156.864 128.765 156.864Z" fill="white"/>
</svg>
