<svg width="280" height="195" viewBox="0 0 280 195" fill="none" xmlns="http://www.w3.org/2000/svg">
<path d="M262.421 140C272.129 140 280.114 132.099 278.898 122.467C277.009 107.504 272.71 92.9051 266.132 79.2482C257.004 60.2966 243.722 43.6456 227.275 30.5324C210.827 17.4192 191.636 8.18097 171.127 3.50411C150.618 -1.17275 129.319 -1.16797 108.812 3.51807C88.3054 8.20412 69.1183 17.451 52.6764 30.5715C36.2345 43.6921 22.9606 60.3491 13.841 79.3047C4.72144 98.2604 -0.00941261 119.027 1.40578e-05 140.063C0.00680713 155.221 2.47509 170.238 7.27279 184.536C10.3613 193.741 20.9849 197.39 29.73 193.173V193.173C38.4752 188.956 41.9875 178.464 39.2892 169.138C36.5617 159.711 35.1632 149.919 35.1588 140.047C35.1517 124.294 38.6945 108.743 45.5238 94.5474C52.3532 80.3521 62.2936 67.8783 74.6063 58.0527C86.9191 48.2272 101.288 41.3025 116.644 37.7933C132.001 34.2841 147.951 34.2805 163.31 37.7829C178.668 41.2852 193.04 48.2034 205.357 58.0234C217.674 67.8435 227.62 80.3129 234.456 94.505C238.74 103.399 241.733 112.826 243.371 122.503C244.991 132.075 252.712 140 262.421 140V140Z" fill="#FF6060"/>
</svg>
