<svg width="358" height="88" viewBox="0 0 358 88" fill="none" xmlns="http://www.w3.org/2000/svg">
<rect width="358" height="88" rx="16" fill="#15151A"/>
<path opacity="0.5" d="M24.8608 27.5V18.7727H28.2017C28.8324 18.7727 29.3565 18.8722 29.7741 19.071C30.1946 19.267 30.5085 19.5355 30.7159 19.8764C30.9261 20.2173 31.0312 20.6037 31.0312 21.0355C31.0312 21.3906 30.9631 21.6946 30.8267 21.9474C30.6903 22.1974 30.5071 22.4006 30.277 22.5568C30.0469 22.7131 29.7898 22.8253 29.5057 22.8935V22.9787C29.8153 22.9957 30.1122 23.0909 30.3963 23.2642C30.6832 23.4347 30.9176 23.6761 31.0994 23.9886C31.2813 24.3011 31.3722 24.679 31.3722 25.1222C31.3722 25.5739 31.2628 25.9801 31.044 26.3409C30.8253 26.6989 30.4957 26.9815 30.0554 27.1889C29.6151 27.3963 29.0611 27.5 28.3935 27.5H24.8608ZM26.4418 26.179H28.142C28.7159 26.179 29.1293 26.0696 29.3821 25.8509C29.6378 25.6293 29.7656 25.3452 29.7656 24.9986C29.7656 24.7401 29.7017 24.5071 29.5739 24.2997C29.446 24.0895 29.2642 23.9247 29.0284 23.8054C28.7926 23.6832 28.5114 23.6222 28.1847 23.6222H26.4418V26.179ZM26.4418 22.4844H28.0057C28.2784 22.4844 28.5241 22.4347 28.7429 22.3352C28.9616 22.233 29.1335 22.0895 29.2585 21.9048C29.3864 21.7173 29.4503 21.4957 29.4503 21.2401C29.4503 20.902 29.331 20.6236 29.0923 20.4048C28.8565 20.1861 28.5057 20.0767 28.0398 20.0767H26.4418V22.4844ZM35.3371 27.6278C34.6808 27.6278 34.114 27.4915 33.6368 27.2188C33.1623 26.9432 32.7973 26.554 32.5416 26.0511C32.2859 25.5455 32.1581 24.9503 32.1581 24.2656C32.1581 23.5923 32.2859 23.0014 32.5416 22.4929C32.8001 21.9815 33.1609 21.5838 33.624 21.2997C34.0871 21.0128 34.6311 20.8693 35.2561 20.8693C35.6595 20.8693 36.0402 20.9347 36.3981 21.0653C36.7589 21.1932 37.0771 21.392 37.3527 21.6619C37.6311 21.9318 37.8498 22.2756 38.0089 22.6932C38.168 23.108 38.2476 23.6023 38.2476 24.1761V24.6491H32.8825V23.6094H36.7689C36.766 23.3139 36.7021 23.0511 36.5771 22.821C36.4521 22.5881 36.2774 22.4048 36.053 22.2713C35.8314 22.1378 35.5729 22.071 35.2774 22.071C34.9621 22.071 34.6851 22.1477 34.4464 22.3011C34.2078 22.4517 34.0217 22.6506 33.8882 22.8977C33.7575 23.142 33.6908 23.4105 33.6879 23.7031V24.6108C33.6879 24.9915 33.7575 25.3182 33.8967 25.5909C34.0359 25.8608 34.2305 26.0682 34.4805 26.2131C34.7305 26.3551 35.0231 26.4261 35.3584 26.4261C35.5828 26.4261 35.7859 26.3949 35.9677 26.3324C36.1496 26.267 36.3072 26.1719 36.4408 26.0469C36.5743 25.9219 36.6751 25.767 36.7433 25.5824L38.1837 25.7443C38.0927 26.125 37.9194 26.4574 37.6638 26.7415C37.4109 27.0227 37.0871 27.2415 36.6922 27.3977C36.2973 27.5511 35.8456 27.6278 35.3371 27.6278ZM42.5811 20.9545V22.1477H38.8183V20.9545H42.5811ZM39.7473 19.3864H41.2899V25.5312C41.2899 25.7386 41.3211 25.8977 41.3836 26.0085C41.449 26.1165 41.5342 26.1903 41.6393 26.2301C41.7444 26.2699 41.8609 26.2898 41.9888 26.2898C42.0853 26.2898 42.1734 26.2827 42.253 26.2685C42.3353 26.2543 42.3978 26.2415 42.4405 26.2301L42.7004 27.4361C42.618 27.4645 42.5001 27.4957 42.3467 27.5298C42.1961 27.5639 42.0115 27.5838 41.7927 27.5895C41.4064 27.6009 41.0584 27.5426 40.7487 27.4148C40.439 27.2841 40.1933 27.0824 40.0115 26.8097C39.8325 26.5369 39.7444 26.196 39.7473 25.7869V19.3864Z" fill="white"/>
<rect x="24" y="33.5" width="200" height="39" rx="16" fill="#19191F"/>
<path d="M45.6905 58.6591C44.8724 58.6591 44.1451 58.5189 43.5087 58.2386C42.8761 57.9583 42.3761 57.5682 42.0087 57.0682C41.6413 56.5682 41.4462 55.9905 41.4235 55.3352H43.5599C43.5788 55.6496 43.683 55.9242 43.8724 56.1591C44.0618 56.3902 44.3136 56.5701 44.628 56.6989C44.9424 56.8277 45.2947 56.892 45.6849 56.892C46.1015 56.892 46.4708 56.8201 46.7928 56.6761C47.1148 56.5284 47.3667 56.3239 47.5485 56.0625C47.7303 55.8011 47.8193 55.5 47.8155 55.1591C47.8193 54.8068 47.7284 54.4962 47.5428 54.2273C47.3572 53.9583 47.0883 53.7481 46.736 53.5966C46.3875 53.4451 45.9671 53.3693 45.4746 53.3693H44.4462V51.7443H45.4746C45.8799 51.7443 46.2341 51.6742 46.5371 51.5341C46.8439 51.3939 47.0845 51.197 47.2587 50.9432C47.433 50.6856 47.5182 50.3883 47.5144 50.0511C47.5182 49.7216 47.4443 49.4356 47.2928 49.1932C47.1451 48.947 46.9349 48.7557 46.6621 48.6193C46.3932 48.483 46.0769 48.4148 45.7133 48.4148C45.3572 48.4148 45.0277 48.4792 44.7246 48.608C44.4216 48.7367 44.1773 48.9205 43.9917 49.1591C43.8061 49.3939 43.7076 49.6742 43.6962 50H41.6678C41.683 49.3485 41.8705 48.7765 42.2303 48.2841C42.5939 47.7879 43.0788 47.4015 43.6849 47.125C44.2909 46.8447 44.9708 46.7045 45.7246 46.7045C46.5011 46.7045 47.1754 46.8504 47.7474 47.142C48.3231 47.4299 48.7682 47.8182 49.0826 48.3068C49.397 48.7955 49.5542 49.3352 49.5542 49.9261C49.558 50.5814 49.3648 51.1307 48.9746 51.5739C48.5883 52.017 48.0807 52.3068 47.4519 52.4432V52.5341C48.2701 52.6477 48.897 52.9508 49.3326 53.4432C49.772 53.9318 49.9898 54.5398 49.986 55.267C49.986 55.9186 49.8004 56.5019 49.4292 57.017C49.0618 57.5284 48.5542 57.9299 47.9064 58.2216C47.2625 58.5133 46.5239 58.6591 45.6905 58.6591ZM51.6163 58.5V56.9773L55.6561 53.017C56.0424 52.6269 56.3644 52.2803 56.622 51.9773C56.8795 51.6742 57.0727 51.3807 57.2015 51.0966C57.3303 50.8125 57.3947 50.5095 57.3947 50.1875C57.3947 49.8201 57.3114 49.5057 57.1447 49.2443C56.978 48.9792 56.7489 48.7746 56.4572 48.6307C56.1655 48.4867 55.8341 48.4148 55.4629 48.4148C55.0803 48.4148 54.7451 48.4943 54.4572 48.6534C54.1693 48.8087 53.9458 49.0303 53.7867 49.3182C53.6314 49.6061 53.5538 49.9489 53.5538 50.3466H51.5481C51.5481 49.608 51.7167 48.9659 52.0538 48.4205C52.3909 47.875 52.8549 47.4527 53.4458 47.1534C54.0405 46.8542 54.7223 46.7045 55.4913 46.7045C56.2716 46.7045 56.9572 46.8504 57.5481 47.142C58.139 47.4337 58.5973 47.8333 58.9231 48.3409C59.2526 48.8485 59.4174 49.428 59.4174 50.0795C59.4174 50.5152 59.3341 50.9432 59.1674 51.3636C59.0007 51.7841 58.7072 52.25 58.2867 52.7614C57.8701 53.2727 57.2848 53.892 56.5311 54.6193L54.5254 56.6591V56.7386H59.5936V58.5H51.6163Z" fill="white"/>
<g clip-path="url(#clip0_87_1880)">
<rect x="71" y="48" width="10" height="11" fill="white"/>
<path d="M76 44C71.0298 44 67 48.0298 67 53C67 57.9702 71.0298 62 76 62C80.9702 62 85 57.9702 85 53C85 48.0298 80.9702 44 76 44ZM72.9265 49.0228H79.0735C80.2022 49.0228 80.92 50.2438 80.3522 51.2278L76.558 57.8015C76.5013 57.8993 76.4199 57.9804 76.322 58.0369C76.2241 58.0933 76.113 58.123 76 58.123C75.887 58.123 75.7759 58.0933 75.678 58.0369C75.5801 57.9804 75.4987 57.8993 75.442 57.8015L71.6492 51.2278C71.0807 50.2423 71.797 49.0228 72.9265 49.0228ZM76.5595 50.1447V55.8297L77.386 54.2338L79.378 50.6667C79.4085 50.6135 79.4244 50.5531 79.4241 50.4917C79.4238 50.4303 79.4072 50.3701 79.3762 50.3171C79.3452 50.2642 79.3007 50.2203 79.2473 50.1901C79.1938 50.1598 79.1334 50.1442 79.072 50.1447H76.5595ZM72.925 50.1462C72.8637 50.1456 72.8034 50.1611 72.7501 50.1912C72.6967 50.2214 72.6523 50.2651 72.6212 50.3179C72.5902 50.3707 72.5736 50.4307 72.5732 50.492C72.5728 50.5533 72.5886 50.6135 72.619 50.6667L74.6125 54.2322L75.439 55.8297V50.1462H72.925Z" fill="#0077FF"/>
</g>
<rect x="229" y="33.5" width="50" height="39" rx="16" fill="#19191F"/>
<path d="M249.072 50.9545L250.393 53.3707L251.736 50.9545H253.368L251.395 54.2273L253.402 57.5H251.778L250.393 55.1435L249.021 57.5H247.385L249.379 54.2273L247.436 50.9545H249.072ZM254.304 57.5V56.358L257.334 53.3878C257.624 53.0952 257.865 52.8352 258.058 52.608C258.251 52.3807 258.396 52.1605 258.493 51.9474C258.59 51.7344 258.638 51.5071 258.638 51.2656C258.638 50.9901 258.575 50.7543 258.45 50.5582C258.325 50.3594 258.153 50.206 257.935 50.098C257.716 49.9901 257.467 49.9361 257.189 49.9361C256.902 49.9361 256.651 49.9957 256.435 50.1151C256.219 50.2315 256.051 50.3977 255.932 50.6136C255.815 50.8295 255.757 51.0866 255.757 51.3849H254.253C254.253 50.831 254.379 50.3494 254.632 49.9403C254.885 49.5312 255.233 49.2145 255.676 48.9901C256.122 48.7656 256.634 48.6534 257.21 48.6534C257.795 48.6534 258.31 48.7628 258.753 48.9815C259.196 49.2003 259.54 49.5 259.784 49.8807C260.031 50.2614 260.155 50.696 260.155 51.1847C260.155 51.5114 260.092 51.8324 259.967 52.1477C259.842 52.4631 259.622 52.8125 259.307 53.196C258.994 53.5795 258.555 54.044 257.99 54.5895L256.486 56.1193V56.179H260.287V57.5H254.304Z" fill="white"/>
<rect x="284" y="33.5" width="50" height="39" rx="16" fill="#19191F"/>
<path d="M307.475 48.3636L304.663 58.8125H303.312L306.124 48.3636H307.475ZM308.202 57.5V56.358L311.232 53.3878C311.522 53.0952 311.764 52.8352 311.957 52.608C312.15 52.3807 312.295 52.1605 312.391 51.9474C312.488 51.7344 312.536 51.5071 312.536 51.2656C312.536 50.9901 312.474 50.7543 312.349 50.5582C312.224 50.3594 312.052 50.206 311.833 50.098C311.614 49.9901 311.366 49.9361 311.087 49.9361C310.8 49.9361 310.549 49.9957 310.333 50.1151C310.117 50.2315 309.95 50.3977 309.83 50.6136C309.714 50.8295 309.656 51.0866 309.656 51.3849H308.151C308.151 50.831 308.278 50.3494 308.531 49.9403C308.783 49.5312 309.131 49.2145 309.575 48.9901C310.021 48.7656 310.532 48.6534 311.109 48.6534C311.694 48.6534 312.208 48.7628 312.651 48.9815C313.094 49.2003 313.438 49.5 313.683 49.8807C313.93 50.2614 314.053 50.696 314.053 51.1847C314.053 51.5114 313.991 51.8324 313.866 52.1477C313.741 52.4631 313.521 52.8125 313.205 53.196C312.893 53.5795 312.454 54.044 311.889 54.5895L310.384 56.1193V56.179H314.185V57.5H308.202Z" fill="white"/>
<defs>
<clipPath id="clip0_87_1880">
<rect width="18" height="18" fill="white" transform="translate(67 44)"/>
</clipPath>
</defs>
</svg>
