<svg width="358" height="52" viewBox="0 0 358 52" fill="none" xmlns="http://www.w3.org/2000/svg">
<path d="M0 24C0 10.7452 10.7452 0 24 0H334C347.255 0 358 10.7452 358 24V28C358 41.2548 347.255 52 334 52H24C10.7452 52 0 41.2548 0 28V24Z" fill="#C4FF00"/>
<path d="M142.753 28C143.048 28 143.341 28.0582 143.614 28.1713C143.887 28.2843 144.135 28.4501 144.344 28.659C144.553 28.8679 144.719 29.116 144.832 29.389C144.945 29.6619 145.003 29.9545 145.003 30.25V31.154C145.003 31.6946 144.886 32.2287 144.661 32.72C144.435 33.2112 144.106 33.6478 143.696 34C142.131 35.344 139.89 36 137 36C134.11 36 131.872 35.344 130.31 34C129.9 33.6481 129.572 33.2119 129.346 32.7212C129.121 32.2305 129.004 31.697 129.004 31.157V30.249C129.004 29.6524 129.241 29.0804 129.663 28.6587C130.085 28.2369 130.657 28 131.254 28H142.753ZM137 16C137.181 16 137.356 16.0656 137.493 16.1848C137.63 16.3039 137.718 16.4684 137.743 16.648L137.75 16.75L137.749 17.499H141.249C141.846 17.499 142.418 17.7361 142.84 18.158C143.262 18.58 143.499 19.1523 143.499 19.749V24.254C143.499 24.8507 143.262 25.423 142.84 25.845C142.418 26.2669 141.846 26.504 141.249 26.504H132.749C132.152 26.504 131.58 26.2669 131.158 25.845C130.736 25.423 130.499 24.8507 130.499 24.254V19.75C130.499 19.4544 130.557 19.1618 130.67 18.8887C130.783 18.6157 130.949 18.3676 131.158 18.1587C131.367 17.9497 131.616 17.784 131.889 17.671C132.162 17.558 132.454 17.4999 132.75 17.5L136.25 17.499V16.75C136.25 16.5686 136.316 16.3934 136.435 16.2568C136.554 16.1202 136.719 16.0314 136.899 16.007L137 16ZM134.749 20.5C134.581 20.4933 134.413 20.5206 134.256 20.5803C134.098 20.6401 133.954 20.731 133.833 20.8476C133.712 20.9643 133.615 21.1042 133.549 21.2591C133.483 21.414 133.449 21.5806 133.449 21.749C133.449 21.9174 133.483 22.084 133.549 22.2389C133.615 22.3938 133.712 22.5337 133.833 22.6504C133.954 22.767 134.098 22.8579 134.256 22.9177C134.413 22.9774 134.581 23.0047 134.749 22.998C135.072 22.9851 135.377 22.8479 135.6 22.615C135.824 22.3822 135.949 22.0719 135.949 21.749C135.949 21.4261 135.824 21.1158 135.6 20.883C135.377 20.6502 135.072 20.5129 134.749 20.5ZM139.242 20.5C139.074 20.4933 138.906 20.5206 138.749 20.5803C138.591 20.6401 138.447 20.731 138.326 20.8476C138.205 20.9643 138.108 21.1042 138.042 21.2591C137.976 21.414 137.942 21.5806 137.942 21.749C137.942 21.9174 137.976 22.084 138.042 22.2389C138.108 22.3938 138.205 22.5337 138.326 22.6504C138.447 22.767 138.591 22.8579 138.749 22.9177C138.906 22.9774 139.074 23.0047 139.242 22.998C139.565 22.9851 139.87 22.8479 140.093 22.615C140.317 22.3822 140.442 22.0719 140.442 21.749C140.442 21.4261 140.317 21.1158 140.093 20.883C139.87 20.6502 139.565 20.5129 139.242 20.5Z" fill="#242424"/>
<path d="M166.734 23.9375H164.245C164.2 23.6155 164.107 23.3295 163.967 23.0795C163.827 22.8258 163.647 22.6098 163.427 22.4318C163.208 22.2538 162.954 22.1174 162.666 22.0227C162.382 21.928 162.073 21.8807 161.74 21.8807C161.137 21.8807 160.613 22.0303 160.166 22.3295C159.719 22.625 159.372 23.0568 159.126 23.625C158.88 24.1894 158.757 24.875 158.757 25.6818C158.757 26.5114 158.88 27.2083 159.126 27.7727C159.376 28.3371 159.725 28.7633 160.172 29.0511C160.619 29.339 161.136 29.483 161.723 29.483C162.052 29.483 162.357 29.4394 162.637 29.3523C162.922 29.2652 163.173 29.1383 163.393 28.9716C163.613 28.8011 163.795 28.5947 163.939 28.3523C164.086 28.1098 164.189 27.8333 164.245 27.5227L166.734 27.5341C166.67 28.0682 166.509 28.5833 166.251 29.0795C165.997 29.572 165.654 30.0133 165.223 30.4034C164.795 30.7898 164.283 31.0966 163.689 31.3239C163.098 31.5473 162.429 31.6591 161.683 31.6591C160.645 31.6591 159.717 31.4242 158.899 30.9545C158.084 30.4848 157.44 29.8049 156.967 28.9148C156.497 28.0246 156.262 26.947 156.262 25.6818C156.262 24.4129 156.501 23.3333 156.978 22.4432C157.456 21.553 158.103 20.875 158.922 20.4091C159.74 19.9394 160.66 19.7045 161.683 19.7045C162.357 19.7045 162.982 19.7992 163.558 19.9886C164.137 20.178 164.651 20.4545 165.098 20.8182C165.545 21.178 165.908 21.6193 166.189 22.142C166.473 22.6648 166.654 23.2633 166.734 23.9375ZM170.621 31.6648C170.065 31.6648 169.568 31.5682 169.133 31.375C168.697 31.178 168.352 30.8883 168.099 30.5057C167.849 30.1193 167.724 29.6383 167.724 29.0625C167.724 28.5777 167.813 28.1705 167.991 27.8409C168.169 27.5114 168.411 27.2462 168.718 27.0455C169.025 26.8447 169.373 26.6932 169.763 26.5909C170.157 26.4886 170.57 26.4167 171.002 26.375C171.51 26.322 171.919 26.2727 172.229 26.2273C172.54 26.178 172.765 26.1061 172.906 26.0114C173.046 25.9167 173.116 25.7765 173.116 25.5909V25.5568C173.116 25.197 173.002 24.9186 172.775 24.7216C172.551 24.5246 172.233 24.4261 171.82 24.4261C171.385 24.4261 171.038 24.5227 170.781 24.7159C170.523 24.9053 170.352 25.1439 170.269 25.4318L168.031 25.25C168.144 24.7197 168.368 24.2614 168.701 23.875C169.034 23.4848 169.464 23.1856 169.991 22.9773C170.521 22.7652 171.135 22.6591 171.832 22.6591C172.316 22.6591 172.781 22.7159 173.224 22.8295C173.671 22.9432 174.066 23.1193 174.411 23.358C174.76 23.5966 175.034 23.9034 175.235 24.2784C175.436 24.6496 175.536 25.0947 175.536 25.6136V31.5H173.241V30.2898H173.173C173.032 30.5625 172.845 30.803 172.61 31.0114C172.375 31.2159 172.093 31.3769 171.763 31.4943C171.434 31.608 171.053 31.6648 170.621 31.6648ZM171.315 29.9943C171.671 29.9943 171.985 29.9242 172.258 29.7841C172.531 29.6402 172.745 29.447 172.9 29.2045C173.055 28.9621 173.133 28.6875 173.133 28.3807V27.4545C173.057 27.5038 172.953 27.5492 172.82 27.5909C172.691 27.6288 172.546 27.6648 172.383 27.6989C172.22 27.7292 172.057 27.7576 171.894 27.7841C171.731 27.8068 171.584 27.8277 171.451 27.8466C171.167 27.8883 170.919 27.9545 170.707 28.0455C170.495 28.1364 170.33 28.2595 170.212 28.4148C170.095 28.5663 170.036 28.7557 170.036 28.983C170.036 29.3125 170.156 29.5644 170.394 29.7386C170.637 29.9091 170.943 29.9943 171.315 29.9943ZM179.514 19.8636V31.5H177.094V19.8636H179.514ZM183.554 19.8636V31.5H181.133V19.8636H183.554ZM191.045 31.6648C190.488 31.6648 189.992 31.5682 189.556 31.375C189.12 31.178 188.776 30.8883 188.522 30.5057C188.272 30.1193 188.147 29.6383 188.147 29.0625C188.147 28.5777 188.236 28.1705 188.414 27.8409C188.592 27.5114 188.834 27.2462 189.141 27.0455C189.448 26.8447 189.796 26.6932 190.187 26.5909C190.581 26.4886 190.993 26.4167 191.425 26.375C191.933 26.322 192.342 26.2727 192.653 26.2273C192.963 26.178 193.188 26.1061 193.329 26.0114C193.469 25.9167 193.539 25.7765 193.539 25.5909V25.5568C193.539 25.197 193.425 24.9186 193.198 24.7216C192.974 24.5246 192.656 24.4261 192.243 24.4261C191.808 24.4261 191.461 24.5227 191.204 24.7159C190.946 24.9053 190.776 25.1439 190.692 25.4318L188.454 25.25C188.567 24.7197 188.791 24.2614 189.124 23.875C189.457 23.4848 189.887 23.1856 190.414 22.9773C190.944 22.7652 191.558 22.6591 192.255 22.6591C192.74 22.6591 193.204 22.7159 193.647 22.8295C194.094 22.9432 194.49 23.1193 194.834 23.358C195.183 23.5966 195.457 23.9034 195.658 24.2784C195.859 24.6496 195.959 25.0947 195.959 25.6136V31.5H193.664V30.2898H193.596C193.456 30.5625 193.268 30.803 193.033 31.0114C192.798 31.2159 192.516 31.3769 192.187 31.4943C191.857 31.608 191.476 31.6648 191.045 31.6648ZM191.738 29.9943C192.094 29.9943 192.408 29.9242 192.681 29.7841C192.954 29.6402 193.168 29.447 193.323 29.2045C193.478 28.9621 193.556 28.6875 193.556 28.3807V27.4545C193.48 27.5038 193.376 27.5492 193.243 27.5909C193.115 27.6288 192.969 27.6648 192.806 27.6989C192.643 27.7292 192.48 27.7576 192.317 27.7841C192.154 27.8068 192.007 27.8277 191.874 27.8466C191.59 27.8883 191.342 27.9545 191.13 28.0455C190.918 28.1364 190.753 28.2595 190.635 28.4148C190.518 28.5663 190.459 28.7557 190.459 28.983C190.459 29.3125 190.579 29.5644 190.817 29.7386C191.06 29.9091 191.367 29.9943 191.738 29.9943ZM200.946 31.5V19.8636H205.605C206.461 19.8636 207.175 19.9905 207.747 20.2443C208.319 20.4981 208.749 20.8504 209.037 21.3011C209.325 21.7481 209.468 22.2633 209.468 22.8466C209.468 23.3011 209.378 23.7008 209.196 24.0455C209.014 24.3864 208.764 24.6667 208.446 24.8864C208.131 25.1023 207.771 25.2557 207.366 25.3466V25.4602C207.809 25.4792 208.224 25.6042 208.611 25.8352C209.001 26.0663 209.317 26.3902 209.559 26.8068C209.802 27.2197 209.923 27.7121 209.923 28.2841C209.923 28.9015 209.77 29.4527 209.463 29.9375C209.16 30.4186 208.711 30.7992 208.116 31.0795C207.521 31.3598 206.789 31.5 205.917 31.5H200.946ZM203.406 29.4886H205.412C206.097 29.4886 206.597 29.358 206.912 29.0966C207.226 28.8314 207.383 28.4792 207.383 28.0398C207.383 27.7178 207.306 27.4337 207.15 27.1875C206.995 26.9413 206.773 26.7481 206.486 26.608C206.201 26.4678 205.862 26.3977 205.468 26.3977H203.406V29.4886ZM203.406 24.733H205.23C205.567 24.733 205.866 24.6742 206.128 24.5568C206.393 24.4356 206.601 24.2652 206.753 24.0455C206.908 23.8258 206.986 23.5625 206.986 23.2557C206.986 22.8352 206.836 22.4962 206.537 22.2386C206.241 21.9811 205.821 21.8523 205.275 21.8523H203.406V24.733ZM221.897 25.6818C221.897 26.9508 221.657 28.0303 221.175 28.9205C220.698 29.8106 220.047 30.4905 219.221 30.9602C218.399 31.4261 217.475 31.6591 216.448 31.6591C215.414 31.6591 214.486 31.4242 213.664 30.9545C212.842 30.4848 212.192 29.8049 211.715 28.9148C211.238 28.0246 210.999 26.947 210.999 25.6818C210.999 24.4129 211.238 23.3333 211.715 22.4432C212.192 21.553 212.842 20.875 213.664 20.4091C214.486 19.9394 215.414 19.7045 216.448 19.7045C217.475 19.7045 218.399 19.9394 219.221 20.4091C220.047 20.875 220.698 21.553 221.175 22.4432C221.657 23.3333 221.897 24.4129 221.897 25.6818ZM219.403 25.6818C219.403 24.8598 219.28 24.1667 219.033 23.6023C218.791 23.0379 218.448 22.6098 218.005 22.3182C217.562 22.0265 217.043 21.8807 216.448 21.8807C215.853 21.8807 215.335 22.0265 214.891 22.3182C214.448 22.6098 214.103 23.0379 213.857 23.6023C213.615 24.1667 213.494 24.8598 213.494 25.6818C213.494 26.5038 213.615 27.197 213.857 27.7614C214.103 28.3258 214.448 28.7538 214.891 29.0455C215.335 29.3371 215.853 29.483 216.448 29.483C217.043 29.483 217.562 29.3371 218.005 29.0455C218.448 28.7538 218.791 28.3258 219.033 27.7614C219.28 27.197 219.403 26.5038 219.403 25.6818ZM222.425 21.892V19.8636H231.982V21.892H228.419V31.5H225.988V21.892H222.425Z" fill="#242424"/>
</svg>
