<svg width="143" height="54" viewBox="0 0 143 54" fill="none" xmlns="http://www.w3.org/2000/svg">
<g opacity="0.3">
<path d="M71.5 2.6665C78.864 2.6665 84.8333 8.63584 84.8333 15.9998C84.8333 23.3638 78.864 29.3332 71.5 29.3332C64.136 29.3332 58.1667 23.3638 58.1667 15.9998C58.1667 8.63584 64.136 2.6665 71.5 2.6665ZM71.5 7.99984C71.1464 7.99984 70.8072 8.14031 70.5572 8.39036C70.3071 8.64041 70.1667 8.97955 70.1667 9.33317V15.9998C70.1667 16.3534 70.3073 16.6925 70.5573 16.9425L74.5573 20.9425C74.8088 21.1854 75.1456 21.3198 75.4952 21.3167C75.8448 21.3137 76.1792 21.1735 76.4264 20.9263C76.6736 20.6791 76.8139 20.3446 76.8169 19.995C76.8199 19.6454 76.6855 19.3086 76.4427 19.0572L72.8333 15.4478V9.33317C72.8333 8.97955 72.6929 8.64041 72.4428 8.39036C72.1928 8.14031 71.8536 7.99984 71.5 7.99984Z" fill="white"/>
</g>
<path d="M3.59659 50L0.3125 38.3636H2.57955L4.67614 46.9148H4.78409L7.02273 38.3636H9.08523L11.3295 46.9205H11.4318L13.5284 38.3636H15.7955L12.5114 50H10.4318L8.10227 41.8352H8.01136L5.67614 50H3.59659ZM18.4669 50.1761C17.9139 50.1761 17.4158 50.0777 16.9726 49.8807C16.5332 49.6799 16.1847 49.3845 15.9272 48.9943C15.6734 48.6042 15.5465 48.1231 15.5465 47.5511C15.5465 47.0587 15.6374 46.6515 15.8192 46.3295C16.001 46.0076 16.2491 45.75 16.5635 45.5568C16.8779 45.3636 17.2321 45.2178 17.626 45.1193C18.0238 45.017 18.4347 44.9432 18.859 44.8977C19.3703 44.8447 19.7851 44.7973 20.1033 44.7557C20.4215 44.7102 20.6525 44.642 20.7965 44.5511C20.9442 44.4564 21.0181 44.3106 21.0181 44.1136V44.0795C21.0181 43.6515 20.8912 43.3201 20.6374 43.0852C20.3836 42.8504 20.0181 42.733 19.5408 42.733C19.037 42.733 18.6374 42.8428 18.3419 43.0625C18.0503 43.2822 17.8533 43.5417 17.751 43.8409L15.8306 43.5682C15.9821 43.0379 16.2321 42.5947 16.5806 42.2386C16.9291 41.8788 17.3552 41.6098 17.859 41.4318C18.3628 41.25 18.9196 41.1591 19.5294 41.1591C19.9499 41.1591 20.3684 41.2083 20.7851 41.3068C21.2018 41.4053 21.5825 41.5682 21.9272 41.7955C22.2719 42.0189 22.5484 42.3239 22.7567 42.7102C22.9688 43.0966 23.0749 43.5795 23.0749 44.1591V50H21.0976V48.8011H21.0294C20.9044 49.0436 20.7283 49.2708 20.501 49.483C20.2775 49.6913 19.9953 49.8598 19.6544 49.9886C19.3173 50.1136 18.9215 50.1761 18.4669 50.1761ZM19.001 48.6648C19.4139 48.6648 19.7719 48.5833 20.0749 48.4205C20.3779 48.2538 20.6109 48.0341 20.7738 47.7614C20.9404 47.4886 21.0238 47.1913 21.0238 46.8693V45.8409C20.9594 45.8939 20.8495 45.9432 20.6942 45.9886C20.5427 46.0341 20.3722 46.0739 20.1828 46.108C19.9934 46.142 19.8059 46.1723 19.6203 46.1989C19.4347 46.2254 19.2738 46.2481 19.1374 46.267C18.8306 46.3087 18.5559 46.3769 18.3135 46.4716C18.0711 46.5663 17.8798 46.6989 17.7397 46.8693C17.5995 47.036 17.5294 47.2519 17.5294 47.517C17.5294 47.8958 17.6677 48.1818 17.9442 48.375C18.2207 48.5682 18.573 48.6648 19.001 48.6648ZM24.8231 50V41.2727H26.8799V50H24.8231ZM25.8572 40.0341C25.5314 40.0341 25.2511 39.9261 25.0163 39.7102C24.7814 39.4905 24.664 39.2273 24.664 38.9205C24.664 38.6098 24.7814 38.3466 25.0163 38.1307C25.2511 37.911 25.5314 37.8011 25.8572 37.8011C26.1867 37.8011 26.467 37.911 26.6981 38.1307C26.9329 38.3466 27.0503 38.6098 27.0503 38.9205C27.0503 39.2273 26.9329 39.4905 26.6981 39.7102C26.467 39.9261 26.1867 40.0341 25.8572 40.0341ZM33.0329 41.2727V42.8636H28.0159V41.2727H33.0329ZM29.2545 39.1818H31.3113V47.375C31.3113 47.6515 31.353 47.8636 31.4363 48.0114C31.5234 48.1553 31.6371 48.2538 31.7772 48.3068C31.9174 48.3598 32.0727 48.3864 32.2431 48.3864C32.3719 48.3864 32.4893 48.3769 32.5954 48.358C32.7052 48.339 32.7886 48.322 32.8454 48.3068L33.192 49.9148C33.0821 49.9527 32.9249 49.9943 32.7204 50.0398C32.5196 50.0852 32.2734 50.1117 31.9818 50.1193C31.4666 50.1345 31.0026 50.0568 30.5897 49.8864C30.1768 49.7121 29.8492 49.4432 29.6068 49.0795C29.3681 48.7159 29.2507 48.2614 29.2545 47.7159V39.1818ZM34.4331 50V41.2727H36.4899V50H34.4331ZM35.4672 40.0341C35.1414 40.0341 34.8611 39.9261 34.6263 39.7102C34.3914 39.4905 34.274 39.2273 34.274 38.9205C34.274 38.6098 34.3914 38.3466 34.6263 38.1307C34.8611 37.911 35.1414 37.8011 35.4672 37.8011C35.7967 37.8011 36.077 37.911 36.3081 38.1307C36.5429 38.3466 36.6603 38.6098 36.6603 38.9205C36.6603 39.2273 36.5429 39.4905 36.3081 39.7102C36.077 39.9261 35.7967 40.0341 35.4672 40.0341ZM40.3418 44.8864V50H38.2849V41.2727H40.2509V42.7557H40.3531C40.5539 42.267 40.874 41.8788 41.3134 41.5909C41.7565 41.303 42.3039 41.1591 42.9554 41.1591C43.5577 41.1591 44.0823 41.2879 44.5293 41.5455C44.98 41.803 45.3285 42.1761 45.5747 42.6648C45.8247 43.1534 45.9478 43.7462 45.944 44.4432V50H43.8872V44.7614C43.8872 44.178 43.7357 43.7216 43.4327 43.392C43.1334 43.0625 42.7187 42.8977 42.1884 42.8977C41.8285 42.8977 41.5084 42.9773 41.2281 43.1364C40.9516 43.2917 40.7338 43.517 40.5747 43.8125C40.4194 44.108 40.3418 44.4659 40.3418 44.8864ZM51.5104 53.4545C50.7718 53.4545 50.1373 53.3542 49.607 53.1534C49.0767 52.9564 48.6506 52.6913 48.3286 52.358C48.0066 52.0246 47.7831 51.6553 47.6581 51.25L49.5104 50.8011C49.5937 50.9716 49.7149 51.1402 49.874 51.3068C50.0331 51.4773 50.2471 51.6174 50.5161 51.7273C50.7888 51.8409 51.1316 51.8977 51.5445 51.8977C52.1278 51.8977 52.6108 51.7557 52.9934 51.4716C53.3759 51.1913 53.5672 50.7292 53.5672 50.0852V48.4318H53.4649C53.3589 48.6439 53.2036 48.8617 52.999 49.0852C52.7983 49.3087 52.5312 49.4962 52.1979 49.6477C51.8684 49.7992 51.4536 49.875 50.9536 49.875C50.2831 49.875 49.6752 49.7178 49.1297 49.4034C48.5881 49.0852 48.1562 48.6117 47.8343 47.983C47.5161 47.3504 47.357 46.5587 47.357 45.608C47.357 44.6496 47.5161 43.8409 47.8343 43.1818C48.1562 42.5189 48.5899 42.017 49.1354 41.6761C49.6809 41.3314 50.2888 41.1591 50.9593 41.1591C51.4706 41.1591 51.8911 41.2462 52.2206 41.4205C52.554 41.5909 52.8191 41.7973 53.0161 42.0398C53.2131 42.2784 53.3627 42.5038 53.4649 42.7159H53.5786V41.2727H55.607V50.142C55.607 50.8883 55.429 51.5057 55.0729 51.9943C54.7168 52.483 54.2301 52.8485 53.6127 53.0909C52.9952 53.3333 52.2945 53.4545 51.5104 53.4545ZM51.5274 48.2614C51.9631 48.2614 52.3343 48.1553 52.6411 47.9432C52.9479 47.7311 53.1809 47.4261 53.3399 47.0284C53.499 46.6307 53.5786 46.1534 53.5786 45.5966C53.5786 45.0473 53.499 44.5663 53.3399 44.1534C53.1846 43.7405 52.9536 43.4205 52.6468 43.1932C52.3437 42.9621 51.9706 42.8466 51.5274 42.8466C51.0691 42.8466 50.6865 42.9659 50.3797 43.2045C50.0729 43.4432 49.8418 43.7708 49.6865 44.1875C49.5312 44.6004 49.4536 45.0701 49.4536 45.5966C49.4536 46.1307 49.5312 46.5985 49.6865 47C49.8456 47.3977 50.0786 47.7083 50.3854 47.9318C50.696 48.1515 51.0767 48.2614 51.5274 48.2614ZM65.4641 41.2727V42.8636H60.3051V41.2727H65.4641ZM61.5948 50V40.4489C61.5948 39.8617 61.716 39.3731 61.9585 38.983C62.2047 38.5928 62.5342 38.3011 62.9471 38.108C63.36 37.9148 63.8183 37.8182 64.3221 37.8182C64.6782 37.8182 64.9944 37.8466 65.271 37.9034C65.5475 37.9602 65.752 38.0114 65.8846 38.0568L65.4755 39.6477C65.3884 39.6212 65.2785 39.5947 65.146 39.5682C65.0134 39.5379 64.8657 39.5227 64.7028 39.5227C64.3202 39.5227 64.0494 39.6155 63.8903 39.8011C63.735 39.983 63.6573 40.2443 63.6573 40.5852V50H61.5948ZM70.2336 50.1705C69.3814 50.1705 68.6427 49.983 68.0177 49.608C67.3927 49.233 66.9079 48.7083 66.5632 48.0341C66.2223 47.3598 66.0518 46.572 66.0518 45.6705C66.0518 44.7689 66.2223 43.9792 66.5632 43.3011C66.9079 42.6231 67.3927 42.0966 68.0177 41.7216C68.6427 41.3466 69.3814 41.1591 70.2336 41.1591C71.0859 41.1591 71.8245 41.3466 72.4495 41.7216C73.0745 42.0966 73.5575 42.6231 73.8984 43.3011C74.2431 43.9792 74.4155 44.7689 74.4155 45.6705C74.4155 46.572 74.2431 47.3598 73.8984 48.0341C73.5575 48.7083 73.0745 49.233 72.4495 49.608C71.8245 49.983 71.0859 50.1705 70.2336 50.1705ZM70.245 48.5227C70.7071 48.5227 71.0935 48.3958 71.4041 48.142C71.7147 47.8845 71.9458 47.5398 72.0973 47.108C72.2526 46.6761 72.3302 46.1951 72.3302 45.6648C72.3302 45.1307 72.2526 44.6477 72.0973 44.2159C71.9458 43.7803 71.7147 43.4337 71.4041 43.1761C71.0935 42.9186 70.7071 42.7898 70.245 42.7898C69.7715 42.7898 69.3776 42.9186 69.0632 43.1761C68.7526 43.4337 68.5196 43.7803 68.3643 44.2159C68.2128 44.6477 68.137 45.1307 68.137 45.6648C68.137 46.1951 68.2128 46.6761 68.3643 47.108C68.5196 47.5398 68.7526 47.8845 69.0632 48.142C69.3776 48.3958 69.7715 48.5227 70.245 48.5227ZM75.8412 50V41.2727H77.8355V42.7273H77.9264C78.0855 42.2235 78.3582 41.8352 78.7446 41.5625C79.1348 41.286 79.5798 41.1477 80.0798 41.1477C80.1935 41.1477 80.3204 41.1534 80.4605 41.1648C80.6045 41.1723 80.7238 41.1856 80.8185 41.2045V43.0966C80.7313 43.0663 80.5931 43.0398 80.4037 43.017C80.2181 42.9905 80.0382 42.9773 79.8639 42.9773C79.4889 42.9773 79.1518 43.0587 78.8526 43.2216C78.5571 43.3807 78.3242 43.6023 78.1537 43.8864C77.9832 44.1705 77.898 44.4981 77.898 44.8693V50H75.8412ZM85.5137 53.2727V41.2727H87.5364V42.7159H87.6557C87.7618 42.5038 87.9114 42.2784 88.1046 42.0398C88.2978 41.7973 88.5592 41.5909 88.8887 41.4205C89.2182 41.2462 89.6387 41.1591 90.1501 41.1591C90.8243 41.1591 91.4323 41.3314 91.9739 41.6761C92.5194 42.017 92.9512 42.5227 93.2694 43.1932C93.5913 43.8598 93.7523 44.678 93.7523 45.6477C93.7523 46.6061 93.5951 47.4205 93.2807 48.0909C92.9663 48.7614 92.5383 49.2727 91.9967 49.625C91.455 49.9773 90.8413 50.1534 90.1557 50.1534C89.6557 50.1534 89.241 50.0701 88.9114 49.9034C88.5819 49.7367 88.3167 49.536 88.116 49.3011C87.919 49.0625 87.7656 48.8371 87.6557 48.625H87.5705V53.2727H85.5137ZM87.5307 45.6364C87.5307 46.2008 87.6103 46.6951 87.7694 47.1193C87.9323 47.5436 88.1652 47.875 88.4682 48.1136C88.7751 48.3485 89.1463 48.4659 89.5819 48.4659C90.0364 48.4659 90.4171 48.3447 90.7239 48.1023C91.0307 47.8561 91.2618 47.5208 91.4171 47.0966C91.5762 46.6686 91.6557 46.1818 91.6557 45.6364C91.6557 45.0947 91.5781 44.6136 91.4228 44.1932C91.2675 43.7727 91.0364 43.4432 90.7296 43.2045C90.4228 42.9659 90.0402 42.8466 89.5819 42.8466C89.1425 42.8466 88.7694 42.9621 88.4626 43.1932C88.1557 43.4242 87.9228 43.7481 87.7637 44.1648C87.6084 44.5814 87.5307 45.072 87.5307 45.6364ZM97.2505 38.3636V50H95.1937V38.3636H97.2505ZM101.557 50.1761C101.004 50.1761 100.506 50.0777 100.063 49.8807C99.6232 49.6799 99.2747 49.3845 99.0172 48.9943C98.7634 48.6042 98.6365 48.1231 98.6365 47.5511C98.6365 47.0587 98.7274 46.6515 98.9092 46.3295C99.091 46.0076 99.3391 45.75 99.6535 45.5568C99.9679 45.3636 100.322 45.2178 100.716 45.1193C101.114 45.017 101.525 44.9432 101.949 44.8977C102.46 44.8447 102.875 44.7973 103.193 44.7557C103.511 44.7102 103.743 44.642 103.886 44.5511C104.034 44.4564 104.108 44.3106 104.108 44.1136V44.0795C104.108 43.6515 103.981 43.3201 103.727 43.0852C103.474 42.8504 103.108 42.733 102.631 42.733C102.127 42.733 101.727 42.8428 101.432 43.0625C101.14 43.2822 100.943 43.5417 100.841 43.8409L98.9206 43.5682C99.0721 43.0379 99.3221 42.5947 99.6706 42.2386C100.019 41.8788 100.445 41.6098 100.949 41.4318C101.453 41.25 102.01 41.1591 102.619 41.1591C103.04 41.1591 103.458 41.2083 103.875 41.3068C104.292 41.4053 104.672 41.5682 105.017 41.7955C105.362 42.0189 105.638 42.3239 105.847 42.7102C106.059 43.0966 106.165 43.5795 106.165 44.1591V50H104.188V48.8011H104.119C103.994 49.0436 103.818 49.2708 103.591 49.483C103.368 49.6913 103.085 49.8598 102.744 49.9886C102.407 50.1136 102.011 50.1761 101.557 50.1761ZM102.091 48.6648C102.504 48.6648 102.862 48.5833 103.165 48.4205C103.468 48.2538 103.701 48.0341 103.864 47.7614C104.03 47.4886 104.114 47.1913 104.114 46.8693V45.8409C104.049 45.8939 103.94 45.9432 103.784 45.9886C103.633 46.0341 103.462 46.0739 103.273 46.108C103.083 46.142 102.896 46.1723 102.71 46.1989C102.525 46.2254 102.364 46.2481 102.227 46.267C101.921 46.3087 101.646 46.3769 101.404 46.4716C101.161 46.5663 100.97 46.6989 100.83 46.8693C100.69 47.036 100.619 47.2519 100.619 47.517C100.619 47.8958 100.758 48.1818 101.034 48.375C101.311 48.5682 101.663 48.6648 102.091 48.6648ZM108.879 53.2727C108.599 53.2727 108.339 53.25 108.101 53.2045C107.866 53.1629 107.678 53.1136 107.538 53.0568L108.015 51.4545C108.315 51.5417 108.582 51.5833 108.816 51.5795C109.051 51.5758 109.258 51.5019 109.436 51.358C109.618 51.2178 109.771 50.983 109.896 50.6534L110.072 50.1818L106.907 41.2727H109.089L111.101 47.8636H111.191L113.209 41.2727H115.396L111.902 51.0568C111.739 51.5189 111.523 51.9148 111.254 52.2443C110.985 52.5777 110.655 52.8314 110.265 53.0057C109.879 53.1837 109.417 53.2727 108.879 53.2727ZM120.066 50.1705C119.191 50.1705 118.435 49.9886 117.799 49.625C117.166 49.2576 116.68 48.7386 116.339 48.0682C115.998 47.3939 115.827 46.6004 115.827 45.6875C115.827 44.7898 115.998 44.0019 116.339 43.3239C116.684 42.642 117.165 42.1117 117.782 41.733C118.399 41.3504 119.125 41.1591 119.958 41.1591C120.496 41.1591 121.004 41.2462 121.481 41.4205C121.962 41.5909 122.386 41.8561 122.754 42.2159C123.125 42.5758 123.416 43.0341 123.629 43.5909C123.841 44.1439 123.947 44.803 123.947 45.5682V46.1989H116.793V44.8125H121.975C121.971 44.4186 121.886 44.0682 121.719 43.7614C121.553 43.4508 121.32 43.2064 121.021 43.0284C120.725 42.8504 120.38 42.7614 119.987 42.7614C119.566 42.7614 119.197 42.8636 118.879 43.0682C118.56 43.2689 118.312 43.5341 118.134 43.8636C117.96 44.1894 117.871 44.5473 117.867 44.9375V46.1477C117.867 46.6553 117.96 47.0909 118.146 47.4545C118.331 47.8144 118.591 48.0909 118.924 48.2841C119.257 48.4735 119.648 48.5682 120.094 48.5682C120.394 48.5682 120.665 48.5265 120.907 48.4432C121.149 48.3561 121.36 48.2292 121.538 48.0625C121.716 47.8958 121.85 47.6894 121.941 47.4432L123.862 47.6591C123.74 48.1667 123.509 48.6098 123.168 48.9886C122.831 49.3636 122.399 49.6553 121.873 49.8636C121.346 50.0682 120.744 50.1705 120.066 50.1705ZM125.367 50V41.2727H127.361V42.7273H127.452C127.611 42.2235 127.884 41.8352 128.27 41.5625C128.66 41.286 129.105 41.1477 129.605 41.1477C129.719 41.1477 129.846 41.1534 129.986 41.1648C130.13 41.1723 130.249 41.1856 130.344 41.2045V43.0966C130.257 43.0663 130.119 43.0398 129.929 43.017C129.744 42.9905 129.564 42.9773 129.39 42.9773C129.015 42.9773 128.677 43.0587 128.378 43.2216C128.083 43.3807 127.85 43.6023 127.679 43.8864C127.509 44.1705 127.424 44.4981 127.424 44.8693V50H125.367ZM131.658 50.125C131.313 50.125 131.017 50.0038 130.771 49.7614C130.525 49.5189 130.404 49.2235 130.408 48.875C130.404 48.5341 130.525 48.2424 130.771 48C131.017 47.7576 131.313 47.6364 131.658 47.6364C131.991 47.6364 132.281 47.7576 132.527 48C132.777 48.2424 132.904 48.5341 132.908 48.875C132.904 49.1061 132.843 49.3163 132.726 49.5057C132.612 49.6951 132.461 49.8466 132.271 49.9602C132.086 50.0701 131.881 50.125 131.658 50.125ZM135.978 50.125C135.634 50.125 135.338 50.0038 135.092 49.7614C134.846 49.5189 134.724 49.2235 134.728 48.875C134.724 48.5341 134.846 48.2424 135.092 48C135.338 47.7576 135.634 47.6364 135.978 47.6364C136.312 47.6364 136.601 47.7576 136.848 48C137.098 48.2424 137.224 48.5341 137.228 48.875C137.224 49.1061 137.164 49.3163 137.046 49.5057C136.933 49.6951 136.781 49.8466 136.592 49.9602C136.406 50.0701 136.202 50.125 135.978 50.125ZM140.299 50.125C139.954 50.125 139.659 50.0038 139.413 49.7614C139.166 49.5189 139.045 49.2235 139.049 48.875C139.045 48.5341 139.166 48.2424 139.413 48C139.659 47.7576 139.954 47.6364 140.299 47.6364C140.632 47.6364 140.922 47.7576 141.168 48C141.418 48.2424 141.545 48.5341 141.549 48.875C141.545 49.1061 141.484 49.3163 141.367 49.5057C141.253 49.6951 141.102 49.8466 140.913 49.9602C140.727 50.0701 140.522 50.125 140.299 50.125Z" fill="white"/>
</svg>
