<svg width="358" height="52" viewBox="0 0 358 52" fill="none" xmlns="http://www.w3.org/2000/svg">
<path d="M0 24C0 10.7452 10.7452 0 24 0H334C347.255 0 358 10.7452 358 24V28C358 41.2548 347.255 52 334 52H24C10.7452 52 0 41.2548 0 28V24Z" fill="#C4FF00"/>
<path d="M79.2664 23.2102C79.2209 22.7519 79.0258 22.3958 78.6811 22.142C78.3364 21.8883 77.8686 21.7614 77.2777 21.7614C76.8762 21.7614 76.5372 21.8182 76.2607 21.9318C75.9842 22.0417 75.772 22.1951 75.6243 22.392C75.4804 22.589 75.4084 22.8125 75.4084 23.0625C75.4008 23.2708 75.4444 23.4527 75.5391 23.608C75.6376 23.7633 75.772 23.8977 75.9425 24.0114C76.113 24.1212 76.3099 24.2178 76.5334 24.3011C76.7569 24.3807 76.9955 24.4489 77.2493 24.5057L78.2948 24.7557C78.8023 24.8693 79.2683 25.0208 79.6925 25.2102C80.1167 25.3996 80.4842 25.6326 80.7948 25.9091C81.1054 26.1856 81.3459 26.5114 81.5164 26.8864C81.6906 27.2614 81.7796 27.6913 81.7834 28.1761C81.7796 28.8883 81.5978 29.5057 81.238 30.0284C80.8819 30.5473 80.3667 30.9508 79.6925 31.2386C79.022 31.5227 78.2133 31.6648 77.2664 31.6648C76.327 31.6648 75.5088 31.5208 74.8118 31.233C74.1186 30.9451 73.577 30.5189 73.1868 29.9545C72.8005 29.3864 72.5978 28.6837 72.5789 27.8466H74.9595C74.9861 28.2367 75.0978 28.5625 75.2948 28.8239C75.4955 29.0814 75.7626 29.2765 76.0959 29.4091C76.433 29.5379 76.8137 29.6023 77.238 29.6023C77.6546 29.6023 78.0164 29.5417 78.3232 29.4205C78.6338 29.2992 78.8743 29.1307 79.0448 28.9148C79.2152 28.6989 79.3005 28.4508 79.3005 28.1705C79.3005 27.9091 79.2228 27.6894 79.0675 27.5114C78.916 27.3333 78.6925 27.1818 78.397 27.0568C78.1054 26.9318 77.7474 26.8182 77.3232 26.7159L76.0561 26.3977C75.0751 26.1591 74.3005 25.786 73.7323 25.2784C73.1641 24.7708 72.8819 24.0871 72.8857 23.2273C72.8819 22.5227 73.0694 21.9072 73.4482 21.3807C73.8308 20.8542 74.3554 20.4432 75.022 20.1477C75.6887 19.8523 76.4463 19.7045 77.2948 19.7045C78.1584 19.7045 78.9122 19.8523 79.5561 20.1477C80.2039 20.4432 80.7076 20.8542 81.0675 21.3807C81.4273 21.9072 81.613 22.517 81.6243 23.2102H79.2664ZM87.7148 22.7727V24.5909H82.4591V22.7727H87.7148ZM83.6523 20.6818H86.0728V28.8182C86.0728 29.0417 86.1069 29.2159 86.1751 29.3409C86.2432 29.4621 86.3379 29.5473 86.4591 29.5966C86.5841 29.6458 86.7281 29.6705 86.891 29.6705C87.0046 29.6705 87.1182 29.661 87.2319 29.642C87.3455 29.6193 87.4326 29.6023 87.4932 29.5909L87.8739 31.392C87.7527 31.4299 87.5823 31.4735 87.3626 31.5227C87.1429 31.5758 86.8758 31.608 86.5614 31.6193C85.9781 31.642 85.4667 31.5644 85.0273 31.3864C84.5917 31.2083 84.2527 30.9318 84.0103 30.5568C83.7679 30.1818 83.6485 29.7083 83.6523 29.1364V20.6818ZM91.4602 31.6648C90.9034 31.6648 90.4071 31.5682 89.9715 31.375C89.5359 31.178 89.1912 30.8883 88.9374 30.5057C88.6874 30.1193 88.5624 29.6383 88.5624 29.0625C88.5624 28.5777 88.6515 28.1705 88.8295 27.8409C89.0075 27.5114 89.2499 27.2462 89.5568 27.0455C89.8636 26.8447 90.2121 26.6932 90.6022 26.5909C90.9962 26.4886 91.409 26.4167 91.8409 26.375C92.3484 26.322 92.7575 26.2727 93.0681 26.2273C93.3787 26.178 93.6041 26.1061 93.7443 26.0114C93.8844 25.9167 93.9545 25.7765 93.9545 25.5909V25.5568C93.9545 25.197 93.8409 24.9186 93.6136 24.7216C93.3901 24.5246 93.0719 24.4261 92.659 24.4261C92.2234 24.4261 91.8768 24.5227 91.6193 24.7159C91.3617 24.9053 91.1912 25.1439 91.1079 25.4318L88.8693 25.25C88.9829 24.7197 89.2064 24.2614 89.5397 23.875C89.873 23.4848 90.303 23.1856 90.8295 22.9773C91.3598 22.7652 91.9734 22.6591 92.6704 22.6591C93.1552 22.6591 93.6193 22.7159 94.0624 22.8295C94.5094 22.9432 94.9052 23.1193 95.2499 23.358C95.5984 23.5966 95.873 23.9034 96.0738 24.2784C96.2746 24.6496 96.3749 25.0947 96.3749 25.6136V31.5H94.0795V30.2898H94.0113C93.8712 30.5625 93.6837 30.803 93.4488 31.0114C93.214 31.2159 92.9318 31.3769 92.6022 31.4943C92.2727 31.608 91.892 31.6648 91.4602 31.6648ZM92.1534 29.9943C92.5094 29.9943 92.8238 29.9242 93.0965 29.7841C93.3693 29.6402 93.5833 29.447 93.7386 29.2045C93.8939 28.9621 93.9715 28.6875 93.9715 28.3807V27.4545C93.8958 27.5038 93.7916 27.5492 93.659 27.5909C93.5302 27.6288 93.3844 27.6648 93.2215 27.6989C93.0587 27.7292 92.8958 27.7576 92.7329 27.7841C92.57 27.8068 92.4223 27.8277 92.2897 27.8466C92.0056 27.8883 91.7575 27.9545 91.5454 28.0455C91.3333 28.1364 91.1685 28.2595 91.0511 28.4148C90.9337 28.5663 90.8749 28.7557 90.8749 28.983C90.8749 29.3125 90.9943 29.5644 91.2329 29.7386C91.4753 29.9091 91.7821 29.9943 92.1534 29.9943ZM97.9328 31.5V22.7727H100.279V24.2955H100.37C100.529 23.7538 100.796 23.3447 101.171 23.0682C101.546 22.7879 101.978 22.6477 102.467 22.6477C102.588 22.6477 102.719 22.6553 102.859 22.6705C102.999 22.6856 103.122 22.7064 103.228 22.733V24.8807C103.115 24.8466 102.957 24.8163 102.757 24.7898C102.556 24.7633 102.372 24.75 102.206 24.75C101.849 24.75 101.531 24.8277 101.251 24.983C100.974 25.1345 100.755 25.3466 100.592 25.6193C100.433 25.892 100.353 26.2064 100.353 26.5625V31.5H97.9328ZM109.239 22.7727V24.5909H103.984V22.7727H109.239ZM105.177 20.6818H107.597V28.8182C107.597 29.0417 107.631 29.2159 107.699 29.3409C107.768 29.4621 107.862 29.5473 107.984 29.5966C108.109 29.6458 108.252 29.6705 108.415 29.6705C108.529 29.6705 108.643 29.661 108.756 29.642C108.87 29.6193 108.957 29.6023 109.018 29.5909L109.398 31.392C109.277 31.4299 109.107 31.4735 108.887 31.5227C108.667 31.5758 108.4 31.608 108.086 31.6193C107.502 31.642 106.991 31.5644 106.552 31.3864C106.116 31.2083 105.777 30.9318 105.535 30.5568C105.292 30.1818 105.173 29.7083 105.177 29.1364V20.6818ZM116.368 31.6648C115.811 31.6648 115.315 31.5682 114.879 31.375C114.443 31.178 114.099 30.8883 113.845 30.5057C113.595 30.1193 113.47 29.6383 113.47 29.0625C113.47 28.5777 113.559 28.1705 113.737 27.8409C113.915 27.5114 114.157 27.2462 114.464 27.0455C114.771 26.8447 115.12 26.6932 115.51 26.5909C115.904 26.4886 116.317 26.4167 116.748 26.375C117.256 26.322 117.665 26.2727 117.976 26.2273C118.286 26.178 118.512 26.1061 118.652 26.0114C118.792 25.9167 118.862 25.7765 118.862 25.5909V25.5568C118.862 25.197 118.748 24.9186 118.521 24.7216C118.298 24.5246 117.979 24.4261 117.567 24.4261C117.131 24.4261 116.784 24.5227 116.527 24.7159C116.269 24.9053 116.099 25.1439 116.015 25.4318L113.777 25.25C113.89 24.7197 114.114 24.2614 114.447 23.875C114.781 23.4848 115.21 23.1856 115.737 22.9773C116.267 22.7652 116.881 22.6591 117.578 22.6591C118.063 22.6591 118.527 22.7159 118.97 22.8295C119.417 22.9432 119.813 23.1193 120.157 23.358C120.506 23.5966 120.781 23.9034 120.981 24.2784C121.182 24.6496 121.282 25.0947 121.282 25.6136V31.5H118.987V30.2898H118.919C118.779 30.5625 118.591 30.803 118.356 31.0114C118.121 31.2159 117.839 31.3769 117.51 31.4943C117.18 31.608 116.799 31.6648 116.368 31.6648ZM117.061 29.9943C117.417 29.9943 117.731 29.9242 118.004 29.7841C118.277 29.6402 118.491 29.447 118.646 29.2045C118.801 28.9621 118.879 28.6875 118.879 28.3807V27.4545C118.803 27.5038 118.699 27.5492 118.567 27.5909C118.438 27.6288 118.292 27.6648 118.129 27.6989C117.966 27.7292 117.803 27.7576 117.64 27.7841C117.478 27.8068 117.33 27.8277 117.197 27.8466C116.913 27.8883 116.665 27.9545 116.453 28.0455C116.241 28.1364 116.076 28.2595 115.959 28.4148C115.841 28.5663 115.782 28.7557 115.782 28.983C115.782 29.3125 115.902 29.5644 116.14 29.7386C116.383 29.9091 116.69 29.9943 117.061 29.9943ZM130.167 31.6705C129.273 31.6705 128.504 31.4811 127.86 31.1023C127.22 30.7197 126.727 30.1894 126.382 29.5114C126.042 28.8333 125.871 28.053 125.871 27.1705C125.871 26.2765 126.043 25.4924 126.388 24.8182C126.737 24.1402 127.231 23.6117 127.871 23.233C128.511 22.8504 129.273 22.6591 130.155 22.6591C130.917 22.6591 131.583 22.7973 132.155 23.0739C132.727 23.3504 133.18 23.7386 133.513 24.2386C133.847 24.7386 134.03 25.3258 134.064 26H131.78C131.716 25.5644 131.545 25.214 131.269 24.9489C130.996 24.6799 130.638 24.5455 130.195 24.5455C129.82 24.5455 129.492 24.6477 129.212 24.8523C128.936 25.053 128.72 25.3466 128.564 25.733C128.409 26.1193 128.331 26.5871 128.331 27.1364C128.331 27.6932 128.407 28.1667 128.559 28.5568C128.714 28.947 128.932 29.2443 129.212 29.4489C129.492 29.6534 129.82 29.7557 130.195 29.7557C130.472 29.7557 130.72 29.6989 130.939 29.5852C131.163 29.4716 131.347 29.3068 131.49 29.0909C131.638 28.8712 131.735 28.608 131.78 28.3011H134.064C134.026 28.9678 133.845 29.5549 133.519 30.0625C133.197 30.5663 132.752 30.9602 132.184 31.2443C131.615 31.5284 130.943 31.6705 130.167 31.6705ZM139.237 31.6705C138.355 31.6705 137.591 31.483 136.947 31.108C136.307 30.7292 135.813 30.2027 135.464 29.5284C135.116 28.8504 134.942 28.0644 134.942 27.1705C134.942 26.2689 135.116 25.4811 135.464 24.8068C135.813 24.1288 136.307 23.6023 136.947 23.2273C137.591 22.8485 138.355 22.6591 139.237 22.6591C140.12 22.6591 140.881 22.8485 141.521 23.2273C142.165 23.6023 142.661 24.1288 143.01 24.8068C143.358 25.4811 143.533 26.2689 143.533 27.1705C143.533 28.0644 143.358 28.8504 143.01 29.5284C142.661 30.2027 142.165 30.7292 141.521 31.108C140.881 31.483 140.12 31.6705 139.237 31.6705ZM139.249 29.7955C139.65 29.7955 139.985 29.6818 140.254 29.4545C140.523 29.2235 140.726 28.9091 140.862 28.5114C141.002 28.1136 141.072 27.661 141.072 27.1534C141.072 26.6458 141.002 26.1932 140.862 25.7955C140.726 25.3977 140.523 25.0833 140.254 24.8523C139.985 24.6212 139.65 24.5057 139.249 24.5057C138.843 24.5057 138.502 24.6212 138.226 24.8523C137.953 25.0833 137.747 25.3977 137.607 25.7955C137.47 26.1932 137.402 26.6458 137.402 27.1534C137.402 27.661 137.47 28.1136 137.607 28.5114C137.747 28.9091 137.953 29.2235 138.226 29.4545C138.502 29.6818 138.843 29.7955 139.249 29.7955ZM144.787 31.5V22.7727H147.207V31.5H144.787ZM146.002 21.6477C145.643 21.6477 145.334 21.5284 145.076 21.2898C144.823 21.0473 144.696 20.7576 144.696 20.4205C144.696 20.0871 144.823 19.8011 145.076 19.5625C145.334 19.3201 145.643 19.1989 146.002 19.1989C146.362 19.1989 146.669 19.3201 146.923 19.5625C147.18 19.8011 147.309 20.0871 147.309 20.4205C147.309 20.7576 147.18 21.0473 146.923 21.2898C146.669 21.5284 146.362 21.6477 146.002 21.6477ZM151.246 26.4545V31.5H148.826V22.7727H151.133V24.3125H151.235C151.428 23.8049 151.752 23.4034 152.207 23.108C152.661 22.8087 153.212 22.6591 153.86 22.6591C154.466 22.6591 154.994 22.7917 155.445 23.0568C155.896 23.322 156.246 23.7008 156.496 24.1932C156.746 24.6818 156.871 25.2652 156.871 25.9432V31.5H154.451V26.375C154.455 25.8409 154.318 25.4242 154.042 25.125C153.765 24.822 153.385 24.6705 152.9 24.6705C152.574 24.6705 152.286 24.7405 152.036 24.8807C151.79 25.0208 151.597 25.2254 151.457 25.4943C151.32 25.7595 151.25 26.0795 151.246 26.4545ZM163.152 22.7727V24.5909H157.766V22.7727H163.152ZM158.999 31.5V22.142C158.999 21.5095 159.122 20.9848 159.368 20.5682C159.618 20.1515 159.959 19.839 160.391 19.6307C160.823 19.4223 161.313 19.3182 161.862 19.3182C162.234 19.3182 162.573 19.3466 162.879 19.4034C163.19 19.4602 163.421 19.5114 163.573 19.5568L163.141 21.375C163.046 21.3447 162.929 21.3163 162.789 21.2898C162.652 21.2633 162.512 21.25 162.368 21.25C162.012 21.25 161.764 21.3333 161.624 21.5C161.484 21.6629 161.414 21.892 161.414 22.1875V31.5H158.999ZM166.731 19.8636V31.5H164.311V19.8636H166.731ZM168.35 31.5V22.7727H170.771V31.5H168.35ZM169.566 21.6477C169.206 21.6477 168.898 21.5284 168.64 21.2898C168.386 21.0473 168.259 20.7576 168.259 20.4205C168.259 20.0871 168.386 19.8011 168.64 19.5625C168.898 19.3201 169.206 19.1989 169.566 19.1989C169.926 19.1989 170.233 19.3201 170.487 19.5625C170.744 19.8011 170.873 20.0871 170.873 20.4205C170.873 20.7576 170.744 21.0473 170.487 21.2898C170.233 21.5284 169.926 21.6477 169.566 21.6477ZM172.39 34.7727V22.7727H174.776V24.2386H174.884C174.99 24.0038 175.143 23.7652 175.344 23.5227C175.549 23.2765 175.814 23.072 176.14 22.9091C176.469 22.7424 176.878 22.6591 177.367 22.6591C178.003 22.6591 178.59 22.8258 179.128 23.1591C179.666 23.4886 180.096 23.9867 180.418 24.6534C180.74 25.3163 180.901 26.1477 180.901 27.1477C180.901 28.1212 180.744 28.9432 180.429 29.6136C180.119 30.2803 179.695 30.786 179.157 31.1307C178.623 31.4716 178.024 31.642 177.361 31.642C176.892 31.642 176.492 31.5644 176.162 31.4091C175.837 31.2538 175.57 31.0587 175.361 30.8239C175.153 30.5852 174.994 30.3447 174.884 30.1023H174.81V34.7727H172.39ZM174.759 27.1364C174.759 27.6553 174.831 28.108 174.975 28.4943C175.119 28.8807 175.327 29.1818 175.6 29.3977C175.873 29.6098 176.204 29.7159 176.594 29.7159C176.988 29.7159 177.321 29.608 177.594 29.392C177.867 29.1723 178.073 28.8693 178.214 28.483C178.357 28.0928 178.429 27.6439 178.429 27.1364C178.429 26.6326 178.359 26.1894 178.219 25.8068C178.079 25.4242 177.873 25.125 177.6 24.9091C177.327 24.6932 176.992 24.5852 176.594 24.5852C176.2 24.5852 175.867 24.6894 175.594 24.8977C175.325 25.1061 175.119 25.4015 174.975 25.7841C174.831 26.1667 174.759 26.6174 174.759 27.1364ZM189.521 31.6705C188.638 31.6705 187.875 31.483 187.231 31.108C186.591 30.7292 186.097 30.2027 185.748 29.5284C185.4 28.8504 185.226 28.0644 185.226 27.1705C185.226 26.2689 185.4 25.4811 185.748 24.8068C186.097 24.1288 186.591 23.6023 187.231 23.2273C187.875 22.8485 188.638 22.6591 189.521 22.6591C190.404 22.6591 191.165 22.8485 191.805 23.2273C192.449 23.6023 192.945 24.1288 193.294 24.8068C193.642 25.4811 193.816 26.2689 193.816 27.1705C193.816 28.0644 193.642 28.8504 193.294 29.5284C192.945 30.2027 192.449 30.7292 191.805 31.108C191.165 31.483 190.404 31.6705 189.521 31.6705ZM189.532 29.7955C189.934 29.7955 190.269 29.6818 190.538 29.4545C190.807 29.2235 191.01 28.9091 191.146 28.5114C191.286 28.1136 191.356 27.661 191.356 27.1534C191.356 26.6458 191.286 26.1932 191.146 25.7955C191.01 25.3977 190.807 25.0833 190.538 24.8523C190.269 24.6212 189.934 24.5057 189.532 24.5057C189.127 24.5057 188.786 24.6212 188.51 24.8523C188.237 25.0833 188.03 25.3977 187.89 25.7955C187.754 26.1932 187.686 26.6458 187.686 27.1534C187.686 27.661 187.754 28.1136 187.89 28.5114C188.03 28.9091 188.237 29.2235 188.51 29.4545C188.786 29.6818 189.127 29.7955 189.532 29.7955ZM197.491 26.4545V31.5H195.07V22.7727H197.377V24.3125H197.479C197.673 23.8049 197.996 23.4034 198.451 23.108C198.906 22.8087 199.457 22.6591 200.104 22.6591C200.71 22.6591 201.239 22.7917 201.69 23.0568C202.14 23.322 202.491 23.7008 202.741 24.1932C202.991 24.6818 203.116 25.2652 203.116 25.9432V31.5H200.695V26.375C200.699 25.8409 200.563 25.4242 200.286 25.125C200.01 24.822 199.629 24.6705 199.144 24.6705C198.818 24.6705 198.531 24.7405 198.281 24.8807C198.034 25.0208 197.841 25.2254 197.701 25.4943C197.565 25.7595 197.495 26.0795 197.491 26.4545Z" fill="#242424"/>
<path d="M212.826 31.6591C211.977 31.6591 211.221 31.5133 210.559 31.2216C209.899 30.9261 209.379 30.5208 208.996 30.0057C208.617 29.4867 208.422 28.8883 208.411 28.2102H210.888C210.903 28.4943 210.996 28.7443 211.166 28.9602C211.341 29.1723 211.572 29.3371 211.86 29.4545C212.148 29.572 212.471 29.6307 212.831 29.6307C213.206 29.6307 213.538 29.5644 213.826 29.4318C214.113 29.2992 214.339 29.1155 214.502 28.8807C214.665 28.6458 214.746 28.375 214.746 28.0682C214.746 27.7576 214.659 27.483 214.485 27.2443C214.314 27.0019 214.068 26.8125 213.746 26.6761C213.428 26.5398 213.049 26.4716 212.61 26.4716H211.524V24.6648H212.61C212.981 24.6648 213.309 24.6004 213.593 24.4716C213.88 24.3428 214.104 24.1648 214.263 23.9375C214.422 23.7064 214.502 23.4375 214.502 23.1307C214.502 22.839 214.432 22.5833 214.291 22.3636C214.155 22.1402 213.962 21.9659 213.712 21.8409C213.466 21.7159 213.178 21.6534 212.848 21.6534C212.515 21.6534 212.21 21.714 211.934 21.8352C211.657 21.9527 211.435 22.1212 211.269 22.3409C211.102 22.5606 211.013 22.8182 211.002 23.1136H208.644C208.655 22.4432 208.846 21.8523 209.218 21.3409C209.589 20.8295 210.089 20.4299 210.718 20.142C211.35 19.8504 212.064 19.7045 212.86 19.7045C213.663 19.7045 214.365 19.8504 214.968 20.142C215.57 20.4337 216.038 20.8277 216.371 21.3239C216.708 21.8163 216.875 22.3693 216.871 22.983C216.875 23.6345 216.672 24.178 216.263 24.6136C215.858 25.0492 215.329 25.3258 214.678 25.4432V25.5341C215.534 25.6439 216.185 25.9413 216.632 26.4261C217.083 26.9072 217.307 27.5095 217.303 28.233C217.307 28.8958 217.115 29.4848 216.729 30C216.346 30.5152 215.818 30.9205 215.144 31.2159C214.47 31.5114 213.697 31.6591 212.826 31.6591ZM223.052 31.6591C222.204 31.6591 221.448 31.5133 220.785 31.2216C220.126 30.9261 219.605 30.5208 219.223 30.0057C218.844 29.4867 218.649 28.8883 218.638 28.2102H221.115C221.13 28.4943 221.223 28.7443 221.393 28.9602C221.568 29.1723 221.799 29.3371 222.087 29.4545C222.374 29.572 222.698 29.6307 223.058 29.6307C223.433 29.6307 223.765 29.5644 224.052 29.4318C224.34 29.2992 224.566 29.1155 224.729 28.8807C224.891 28.6458 224.973 28.375 224.973 28.0682C224.973 27.7576 224.886 27.483 224.712 27.2443C224.541 27.0019 224.295 26.8125 223.973 26.6761C223.655 26.5398 223.276 26.4716 222.837 26.4716H221.751V24.6648H222.837C223.208 24.6648 223.535 24.6004 223.819 24.4716C224.107 24.3428 224.331 24.1648 224.49 23.9375C224.649 23.7064 224.729 23.4375 224.729 23.1307C224.729 22.839 224.659 22.5833 224.518 22.3636C224.382 22.1402 224.189 21.9659 223.939 21.8409C223.693 21.7159 223.405 21.6534 223.075 21.6534C222.742 21.6534 222.437 21.714 222.16 21.8352C221.884 21.9527 221.662 22.1212 221.496 22.3409C221.329 22.5606 221.24 22.8182 221.229 23.1136H218.871C218.882 22.4432 219.073 21.8523 219.444 21.3409C219.816 20.8295 220.316 20.4299 220.944 20.142C221.577 19.8504 222.291 19.7045 223.087 19.7045C223.89 19.7045 224.592 19.8504 225.194 20.142C225.797 20.4337 226.265 20.8277 226.598 21.3239C226.935 21.8163 227.102 22.3693 227.098 22.983C227.102 23.6345 226.899 24.178 226.49 24.6136C226.085 25.0492 225.556 25.3258 224.905 25.4432V25.5341C225.761 25.6439 226.412 25.9413 226.859 26.4261C227.31 26.9072 227.534 27.5095 227.53 28.233C227.534 28.8958 227.342 29.4848 226.956 30C226.573 30.5152 226.045 30.9205 225.371 31.2159C224.696 31.5114 223.924 31.6591 223.052 31.6591ZM236.662 31.6591C235.814 31.6591 235.058 31.5133 234.395 31.2216C233.736 30.9261 233.215 30.5208 232.833 30.0057C232.454 29.4867 232.259 28.8883 232.248 28.2102H234.725C234.74 28.4943 234.833 28.7443 235.003 28.9602C235.178 29.1723 235.409 29.3371 235.697 29.4545C235.984 29.572 236.308 29.6307 236.668 29.6307C237.043 29.6307 237.375 29.5644 237.662 29.4318C237.95 29.2992 238.176 29.1155 238.339 28.8807C238.501 28.6458 238.583 28.375 238.583 28.0682C238.583 27.7576 238.496 27.483 238.322 27.2443C238.151 27.0019 237.905 26.8125 237.583 26.6761C237.265 26.5398 236.886 26.4716 236.447 26.4716H235.361V24.6648H236.447C236.818 24.6648 237.145 24.6004 237.429 24.4716C237.717 24.3428 237.941 24.1648 238.1 23.9375C238.259 23.7064 238.339 23.4375 238.339 23.1307C238.339 22.839 238.269 22.5833 238.128 22.3636C237.992 22.1402 237.799 21.9659 237.549 21.8409C237.303 21.7159 237.015 21.6534 236.685 21.6534C236.352 21.6534 236.047 21.714 235.77 21.8352C235.494 21.9527 235.272 22.1212 235.106 22.3409C234.939 22.5606 234.85 22.8182 234.839 23.1136H232.481C232.492 22.4432 232.683 21.8523 233.054 21.3409C233.426 20.8295 233.926 20.4299 234.554 20.142C235.187 19.8504 235.901 19.7045 236.697 19.7045C237.5 19.7045 238.202 19.8504 238.804 20.142C239.407 20.4337 239.875 20.8277 240.208 21.3239C240.545 21.8163 240.712 22.3693 240.708 22.983C240.712 23.6345 240.509 24.178 240.1 24.6136C239.695 25.0492 239.166 25.3258 238.515 25.4432V25.5341C239.371 25.6439 240.022 25.9413 240.469 26.4261C240.92 26.9072 241.144 27.5095 241.14 28.233C241.144 28.8958 240.952 29.4848 240.566 30C240.183 30.5152 239.655 30.9205 238.981 31.2159C238.306 31.5114 237.534 31.6591 236.662 31.6591ZM246.889 31.6591C246.041 31.6591 245.285 31.5133 244.622 31.2216C243.963 30.9261 243.442 30.5208 243.06 30.0057C242.681 29.4867 242.486 28.8883 242.475 28.2102H244.952C244.967 28.4943 245.06 28.7443 245.23 28.9602C245.404 29.1723 245.636 29.3371 245.923 29.4545C246.211 29.572 246.535 29.6307 246.895 29.6307C247.27 29.6307 247.601 29.5644 247.889 29.4318C248.177 29.2992 248.403 29.1155 248.565 28.8807C248.728 28.6458 248.81 28.375 248.81 28.0682C248.81 27.7576 248.723 27.483 248.548 27.2443C248.378 27.0019 248.132 26.8125 247.81 26.6761C247.492 26.5398 247.113 26.4716 246.673 26.4716H245.588V24.6648H246.673C247.045 24.6648 247.372 24.6004 247.656 24.4716C247.944 24.3428 248.168 24.1648 248.327 23.9375C248.486 23.7064 248.565 23.4375 248.565 23.1307C248.565 22.839 248.495 22.5833 248.355 22.3636C248.219 22.1402 248.026 21.9659 247.776 21.8409C247.529 21.7159 247.242 21.6534 246.912 21.6534C246.579 21.6534 246.274 21.714 245.997 21.8352C245.721 21.9527 245.499 22.1212 245.333 22.3409C245.166 22.5606 245.077 22.8182 245.065 23.1136H242.708C242.719 22.4432 242.91 21.8523 243.281 21.3409C243.653 20.8295 244.153 20.4299 244.781 20.142C245.414 19.8504 246.128 19.7045 246.923 19.7045C247.726 19.7045 248.429 19.8504 249.031 20.142C249.634 20.4337 250.101 20.8277 250.435 21.3239C250.772 21.8163 250.939 22.3693 250.935 22.983C250.939 23.6345 250.736 24.178 250.327 24.6136C249.922 25.0492 249.393 25.3258 248.742 25.4432V25.5341C249.598 25.6439 250.249 25.9413 250.696 26.4261C251.147 26.9072 251.37 27.5095 251.367 28.233C251.37 28.8958 251.179 29.4848 250.793 30C250.41 30.5152 249.882 30.9205 249.208 31.2159C248.533 31.5114 247.761 31.6591 246.889 31.6591ZM257.116 31.6591C256.268 31.6591 255.512 31.5133 254.849 31.2216C254.19 30.9261 253.669 30.5208 253.287 30.0057C252.908 29.4867 252.713 28.8883 252.701 28.2102H255.179C255.194 28.4943 255.287 28.7443 255.457 28.9602C255.631 29.1723 255.862 29.3371 256.15 29.4545C256.438 29.572 256.762 29.6307 257.122 29.6307C257.497 29.6307 257.828 29.5644 258.116 29.4318C258.404 29.2992 258.629 29.1155 258.792 28.8807C258.955 28.6458 259.037 28.375 259.037 28.0682C259.037 27.7576 258.95 27.483 258.775 27.2443C258.605 27.0019 258.359 26.8125 258.037 26.6761C257.718 26.5398 257.34 26.4716 256.9 26.4716H255.815V24.6648H256.9C257.271 24.6648 257.599 24.6004 257.883 24.4716C258.171 24.3428 258.395 24.1648 258.554 23.9375C258.713 23.7064 258.792 23.4375 258.792 23.1307C258.792 22.839 258.722 22.5833 258.582 22.3636C258.446 22.1402 258.253 21.9659 258.003 21.8409C257.756 21.7159 257.468 21.6534 257.139 21.6534C256.806 21.6534 256.501 21.714 256.224 21.8352C255.948 21.9527 255.726 22.1212 255.559 22.3409C255.393 22.5606 255.304 22.8182 255.292 23.1136H252.934C252.946 22.4432 253.137 21.8523 253.508 21.3409C253.879 20.8295 254.379 20.4299 255.008 20.142C255.641 19.8504 256.355 19.7045 257.15 19.7045C257.953 19.7045 258.656 19.8504 259.258 20.142C259.861 20.4337 260.328 20.8277 260.662 21.3239C260.999 21.8163 261.165 22.3693 261.162 22.983C261.165 23.6345 260.963 24.178 260.554 24.6136C260.148 25.0492 259.62 25.3258 258.968 25.4432V25.5341C259.825 25.6439 260.476 25.9413 260.923 26.4261C261.374 26.9072 261.597 27.5095 261.593 28.233C261.597 28.8958 261.406 29.4848 261.02 30C260.637 30.5152 260.109 30.9205 259.434 31.2159C258.76 31.5114 257.987 31.6591 257.116 31.6591Z" fill="#242424"/>
<g clip-path="url(#clip0_87_2978)">
<rect x="272.5" y="21" width="10" height="11" fill="white"/>
<path d="M277.5 17C272.53 17 268.5 21.0298 268.5 26C268.5 30.9702 272.53 35 277.5 35C282.47 35 286.5 30.9702 286.5 26C286.5 21.0298 282.47 17 277.5 17ZM274.426 22.0228H280.573C281.702 22.0228 282.42 23.2438 281.852 24.2278L278.058 30.8015C278.001 30.8993 277.92 30.9804 277.822 31.0369C277.724 31.0933 277.613 31.123 277.5 31.123C277.387 31.123 277.276 31.0933 277.178 31.0369C277.08 30.9804 276.999 30.8993 276.942 30.8015L273.149 24.2278C272.581 23.2423 273.297 22.0228 274.426 22.0228ZM278.06 23.1447V28.8297L278.886 27.2338L280.878 23.6667C280.909 23.6135 280.924 23.5531 280.924 23.4917C280.924 23.4303 280.907 23.3701 280.876 23.3171C280.845 23.2642 280.801 23.2203 280.747 23.1901C280.694 23.1598 280.633 23.1442 280.572 23.1447H278.06ZM274.425 23.1462C274.364 23.1456 274.303 23.1611 274.25 23.1912C274.197 23.2214 274.152 23.2651 274.121 23.3179C274.09 23.3707 274.074 23.4307 274.073 23.492C274.073 23.5533 274.089 23.6135 274.119 23.6667L276.112 27.2322L276.939 28.8297V23.1462H274.425Z" fill="#0077FF"/>
</g>
<defs>
<clipPath id="clip0_87_2978">
<rect width="18" height="18" fill="white" transform="translate(268.5 17)"/>
</clipPath>
</defs>
</svg>
