<svg width="128" height="29" viewBox="0 0 128 29" fill="none" xmlns="http://www.w3.org/2000/svg">
<path fill-rule="evenodd" clip-rule="evenodd" d="M22 14.5C22 8.977 17.523 4.5 12 4.5C6.477 4.5 2 8.977 2 14.5C2 20.023 6.477 24.5 12 24.5C17.523 24.5 22 20.023 22 14.5ZM8.47 13.47C8.39631 13.5387 8.33721 13.6215 8.29622 13.7135C8.25523 13.8055 8.23318 13.9048 8.23141 14.0055C8.22963 14.1062 8.24816 14.2062 8.28588 14.2996C8.3236 14.393 8.37974 14.4778 8.45096 14.549C8.52218 14.6203 8.60701 14.6764 8.7004 14.7141C8.79379 14.7518 8.89382 14.7704 8.99452 14.7686C9.09522 14.7668 9.19454 14.7448 9.28654 14.7038C9.37854 14.6628 9.46134 14.6037 9.53 14.53L12 12.06L14.47 14.53C14.5387 14.6037 14.6215 14.6628 14.7135 14.7038C14.8055 14.7448 14.9048 14.7668 15.0055 14.7686C15.1062 14.7704 15.2062 14.7518 15.2996 14.7141C15.393 14.6764 15.4778 14.6203 15.549 14.549C15.6203 14.4778 15.6764 14.393 15.7141 14.2996C15.7518 14.2062 15.7704 14.1062 15.7686 14.0055C15.7668 13.9048 15.7448 13.8055 15.7038 13.7135C15.6628 13.6215 15.6037 13.5387 15.53 13.47L12.53 10.47C12.3894 10.3295 12.1988 10.2507 12 10.2507C11.8012 10.2507 11.6106 10.3295 11.47 10.47L8.47 13.47ZM8.47 18.53C8.32955 18.3894 8.25066 18.1988 8.25066 18C8.25066 17.8012 8.32955 17.6106 8.47 17.47L11.47 14.47C11.6106 14.3295 11.8012 14.2507 12 14.2507C12.1988 14.2507 12.3894 14.3295 12.53 14.47L15.53 17.47C15.6625 17.6122 15.7346 17.8002 15.7312 17.9945C15.7277 18.1888 15.649 18.3742 15.5116 18.5116C15.3742 18.649 15.1888 18.7277 14.9945 18.7312C14.8002 18.7346 14.6122 18.6625 14.47 18.53L12 16.06L9.53 18.53C9.38937 18.6705 9.19875 18.7493 9 18.7493C8.80125 18.7493 8.61063 18.6705 8.47 18.53Z" fill="white"/>
<path d="M42.2983 5.54545H45.9886V16.8807C45.9886 18.1534 45.6847 19.267 45.0767 20.2216C44.4744 21.1761 43.6307 21.9205 42.5455 22.4545C41.4602 22.983 40.196 23.2472 38.7528 23.2472C37.304 23.2472 36.0369 22.983 34.9517 22.4545C33.8665 21.9205 33.0227 21.1761 32.4205 20.2216C31.8182 19.267 31.517 18.1534 31.517 16.8807V5.54545H35.2074V16.5653C35.2074 17.2301 35.3523 17.821 35.642 18.3381C35.9375 18.8551 36.3523 19.2614 36.8864 19.5568C37.4205 19.8523 38.0426 20 38.7528 20C39.4688 20 40.0909 19.8523 40.6193 19.5568C41.1534 19.2614 41.5653 18.8551 41.8551 18.3381C42.1506 17.821 42.2983 17.2301 42.2983 16.5653V5.54545ZM48.4767 27.9091V9.90909H52.0562V12.108H52.2182C52.3772 11.7557 52.6074 11.3977 52.9085 11.0341C53.2153 10.6648 53.613 10.358 54.1017 10.1136C54.596 9.86364 55.2096 9.73864 55.9426 9.73864C56.8971 9.73864 57.7778 9.98864 58.5846 10.4886C59.3914 10.983 60.0363 11.7301 60.5193 12.7301C61.0022 13.7244 61.2437 14.9716 61.2437 16.4716C61.2437 17.9318 61.0079 19.1648 60.5363 20.1705C60.0704 21.1705 59.4341 21.929 58.6272 22.446C57.8261 22.9574 56.9284 23.2131 55.9341 23.2131C55.2295 23.2131 54.6301 23.0966 54.1358 22.8636C53.6471 22.6307 53.2466 22.3381 52.9341 21.9858C52.6216 21.6278 52.3829 21.267 52.2182 20.9034H52.1074V27.9091H48.4767ZM52.0307 16.4545C52.0307 17.233 52.1386 17.9119 52.3545 18.4915C52.5704 19.071 52.8829 19.5227 53.292 19.8466C53.7011 20.1648 54.1983 20.3239 54.7835 20.3239C55.3744 20.3239 55.8744 20.1619 56.2835 19.8381C56.6926 19.5085 57.0022 19.054 57.2125 18.4744C57.4284 17.8892 57.5363 17.2159 57.5363 16.4545C57.5363 15.6989 57.4312 15.0341 57.221 14.4602C57.0108 13.8864 56.7011 13.4375 56.292 13.1136C55.8829 12.7898 55.3801 12.6278 54.7835 12.6278C54.1926 12.6278 53.6926 12.7841 53.2835 13.0966C52.8801 13.4091 52.5704 13.8523 52.3545 14.4261C52.1386 15 52.0307 15.6761 52.0307 16.4545ZM69.0819 28.1818C67.9058 28.1818 66.8972 28.0199 66.0563 27.696C65.2211 27.3778 64.5563 26.9432 64.062 26.392C63.5677 25.8409 63.2467 25.2216 63.0989 24.5341L66.4569 24.0824C66.5592 24.3438 66.7211 24.5881 66.9427 24.8153C67.1643 25.0426 67.4569 25.2244 67.8205 25.3608C68.1899 25.5028 68.6387 25.5739 69.1671 25.5739C69.9569 25.5739 70.6075 25.3807 71.1188 24.9943C71.6359 24.6136 71.8944 23.9744 71.8944 23.0767V20.6818H71.741C71.5819 21.0455 71.3433 21.3892 71.0251 21.7131C70.7069 22.0369 70.2978 22.3011 69.7978 22.5057C69.2978 22.7102 68.7012 22.8125 68.008 22.8125C67.0251 22.8125 66.1302 22.5852 65.3234 22.1307C64.5222 21.6705 63.883 20.9687 63.4058 20.0256C62.9342 19.0767 62.6984 17.8778 62.6984 16.429C62.6984 14.946 62.9399 13.7074 63.4228 12.7131C63.9058 11.7187 64.5478 10.9744 65.3489 10.4801C66.1558 9.9858 67.0393 9.73864 67.9995 9.73864C68.7325 9.73864 69.3461 9.86364 69.8404 10.1136C70.3347 10.358 70.7325 10.6648 71.0336 11.0341C71.3404 11.3977 71.5762 11.7557 71.741 12.108H71.8774V9.90909H75.4825V23.1278C75.4825 24.2415 75.2097 25.1733 74.6643 25.9233C74.1188 26.6733 73.3632 27.2358 72.3972 27.6108C71.437 27.9915 70.3319 28.1818 69.0819 28.1818ZM69.1586 20.0852C69.7438 20.0852 70.2382 19.9403 70.6416 19.6506C71.0507 19.3551 71.3632 18.9347 71.5791 18.3892C71.8007 17.8381 71.9114 17.179 71.9114 16.4119C71.9114 15.6449 71.8035 14.9801 71.5876 14.4176C71.3717 13.8494 71.0592 13.4091 70.6501 13.0966C70.241 12.7841 69.7438 12.6278 69.1586 12.6278C68.562 12.6278 68.0592 12.7898 67.6501 13.1136C67.241 13.4318 66.9313 13.875 66.7211 14.4432C66.5109 15.0114 66.4058 15.6676 66.4058 16.4119C66.4058 17.1676 66.5109 17.821 66.7211 18.3722C66.937 18.9176 67.2467 19.3409 67.6501 19.642C68.0592 19.9375 68.562 20.0852 69.1586 20.0852ZM77.8917 23V9.90909H81.4116V12.1932H81.5479C81.7866 11.3807 82.1871 10.767 82.7496 10.3523C83.3121 9.93182 83.9599 9.72159 84.6928 9.72159C84.8746 9.72159 85.0707 9.73295 85.2809 9.75568C85.4911 9.77841 85.6758 9.80966 85.8349 9.84943V13.071C85.6644 13.0199 85.4286 12.9744 85.1275 12.9347C84.8263 12.8949 84.5508 12.875 84.3008 12.875C83.7667 12.875 83.2894 12.9915 82.869 13.2244C82.4542 13.4517 82.1246 13.7699 81.8803 14.179C81.6417 14.5881 81.5224 15.0597 81.5224 15.5938V23H77.8917ZM90.5899 23.2472C89.7547 23.2472 89.0104 23.1023 88.357 22.8125C87.7036 22.517 87.1865 22.0824 86.8059 21.5085C86.4309 20.929 86.2434 20.2074 86.2434 19.3438C86.2434 18.6165 86.3769 18.0057 86.6439 17.5114C86.911 17.017 87.2746 16.6193 87.7348 16.3182C88.1951 16.017 88.7178 15.7898 89.303 15.6364C89.8939 15.483 90.5132 15.375 91.161 15.3125C91.9223 15.233 92.536 15.1591 93.0019 15.0909C93.4678 15.017 93.8059 14.9091 94.0161 14.767C94.2263 14.625 94.3314 14.4148 94.3314 14.1364V14.0852C94.3314 13.5455 94.161 13.1278 93.8201 12.8324C93.4848 12.5369 93.0076 12.3892 92.3882 12.3892C91.7348 12.3892 91.2149 12.5341 90.8286 12.8239C90.4422 13.108 90.1865 13.4659 90.0615 13.8977L86.7036 13.625C86.874 12.8295 87.2093 12.142 87.7093 11.5625C88.2093 10.9773 88.8541 10.5284 89.6439 10.2159C90.4394 9.89773 91.3598 9.73864 92.4053 9.73864C93.1326 9.73864 93.8286 9.82386 94.4934 9.99432C95.1638 10.1648 95.7576 10.429 96.2746 10.7869C96.7973 11.1449 97.2093 11.6051 97.5104 12.1676C97.8115 12.7244 97.9621 13.392 97.9621 14.1705V23H94.5189V21.1847H94.4166C94.2064 21.5938 93.9252 21.9545 93.5729 22.267C93.2206 22.5739 92.7973 22.8153 92.303 22.9915C91.8087 23.1619 91.2377 23.2472 90.5899 23.2472ZM91.6297 20.7415C92.1638 20.7415 92.6354 20.6364 93.0445 20.4261C93.4536 20.2102 93.7746 19.9205 94.0076 19.5568C94.2405 19.1932 94.357 18.7812 94.357 18.321V16.9318C94.2434 17.0057 94.0871 17.0739 93.8882 17.1364C93.6951 17.1932 93.4763 17.2472 93.232 17.2983C92.9877 17.3437 92.7434 17.3864 92.499 17.4261C92.2547 17.4602 92.0331 17.4915 91.8343 17.5199C91.4081 17.5824 91.036 17.6818 90.7178 17.8182C90.3996 17.9545 90.1524 18.1392 89.9763 18.3722C89.8002 18.5994 89.7121 18.8835 89.7121 19.2244C89.7121 19.7188 89.8911 20.0966 90.249 20.358C90.6127 20.6136 91.0729 20.7415 91.6297 20.7415ZM105.123 23.2131C104.128 23.2131 103.228 22.9574 102.421 22.446C101.62 21.929 100.984 21.1705 100.512 20.1705C100.046 19.1648 99.8131 17.9318 99.8131 16.4716C99.8131 14.9716 100.055 13.7244 100.537 12.7301C101.02 11.7301 101.662 10.983 102.464 10.4886C103.27 9.98864 104.154 9.73864 105.114 9.73864C105.847 9.73864 106.458 9.86364 106.947 10.1136C107.441 10.358 107.839 10.6648 108.14 11.0341C108.447 11.3977 108.68 11.7557 108.839 12.108H108.949V5.54545H112.572V23H108.992V20.9034H108.839C108.668 21.267 108.427 21.6278 108.114 21.9858C107.807 22.3381 107.407 22.6307 106.912 22.8636C106.424 23.0966 105.827 23.2131 105.123 23.2131ZM106.273 20.3239C106.859 20.3239 107.353 20.1648 107.756 19.8466C108.165 19.5227 108.478 19.071 108.694 18.4915C108.915 17.9119 109.026 17.233 109.026 16.4545C109.026 15.6761 108.918 15 108.702 14.4261C108.486 13.8523 108.174 13.4091 107.765 13.0966C107.356 12.7841 106.859 12.6278 106.273 12.6278C105.677 12.6278 105.174 12.7898 104.765 13.1136C104.356 13.4375 104.046 13.8864 103.836 14.4602C103.626 15.0341 103.52 15.6989 103.52 16.4545C103.52 17.2159 103.626 17.8892 103.836 18.4744C104.052 19.054 104.361 19.5085 104.765 19.8381C105.174 20.1619 105.677 20.3239 106.273 20.3239ZM121.043 23.2557C119.696 23.2557 118.537 22.983 117.565 22.4375C116.599 21.8864 115.855 21.108 115.332 20.1023C114.81 19.0909 114.548 17.8949 114.548 16.5142C114.548 15.1676 114.81 13.9858 115.332 12.9688C115.855 11.9517 116.591 11.1591 117.54 10.5909C118.494 10.0227 119.614 9.73864 120.898 9.73864C121.761 9.73864 122.565 9.87784 123.31 10.1562C124.06 10.429 124.713 10.8409 125.27 11.392C125.832 11.9432 126.27 12.6364 126.582 13.4716C126.895 14.3011 127.051 15.2727 127.051 16.3864V17.3835H115.997V15.1335H123.633C123.633 14.6108 123.52 14.1477 123.293 13.7443C123.065 13.3409 122.75 13.0256 122.347 12.7983C121.949 12.5653 121.486 12.4489 120.957 12.4489C120.406 12.4489 119.918 12.5767 119.491 12.8324C119.071 13.0824 118.741 13.4205 118.503 13.8466C118.264 14.267 118.142 14.7358 118.136 15.2528V17.392C118.136 18.0398 118.256 18.5994 118.494 19.071C118.739 19.5426 119.082 19.9062 119.526 20.1619C119.969 20.4176 120.494 20.5455 121.102 20.5455C121.506 20.5455 121.875 20.4886 122.21 20.375C122.545 20.2614 122.832 20.0909 123.071 19.8636C123.31 19.6364 123.491 19.358 123.616 19.0284L126.974 19.25C126.804 20.0568 126.455 20.7614 125.926 21.3636C125.403 21.9602 124.727 22.4261 123.898 22.7614C123.074 23.0909 122.122 23.2557 121.043 23.2557Z" fill="white"/>
</svg>
