<svg width="119" height="29" viewBox="0 0 119 29" fill="none" xmlns="http://www.w3.org/2000/svg">
<path fill-rule="evenodd" clip-rule="evenodd" d="M22 14.5C22 8.977 17.523 4.5 12 4.5C6.477 4.5 2 8.977 2 14.5C2 20.023 6.477 24.5 12 24.5C17.523 24.5 22 20.023 22 14.5ZM8.47 13.47C8.39631 13.5387 8.33721 13.6215 8.29622 13.7135C8.25523 13.8055 8.23318 13.9048 8.23141 14.0055C8.22963 14.1062 8.24816 14.2062 8.28588 14.2996C8.3236 14.393 8.37974 14.4778 8.45096 14.549C8.52218 14.6203 8.60701 14.6764 8.7004 14.7141C8.79379 14.7518 8.89382 14.7704 8.99452 14.7686C9.09522 14.7668 9.19454 14.7448 9.28654 14.7038C9.37854 14.6628 9.46134 14.6037 9.53 14.53L12 12.06L14.47 14.53C14.5387 14.6037 14.6215 14.6628 14.7135 14.7038C14.8055 14.7448 14.9048 14.7668 15.0055 14.7686C15.1062 14.7704 15.2062 14.7518 15.2996 14.7141C15.393 14.6764 15.4778 14.6203 15.549 14.549C15.6203 14.4778 15.6764 14.393 15.7141 14.2996C15.7518 14.2062 15.7704 14.1062 15.7686 14.0055C15.7668 13.9048 15.7448 13.8055 15.7038 13.7135C15.6628 13.6215 15.6037 13.5387 15.53 13.47L12.53 10.47C12.3894 10.3295 12.1988 10.2507 12 10.2507C11.8012 10.2507 11.6106 10.3295 11.47 10.47L8.47 13.47ZM8.47 18.53C8.32955 18.3894 8.25066 18.1988 8.25066 18C8.25066 17.8012 8.32955 17.6106 8.47 17.47L11.47 14.47C11.6106 14.3295 11.8012 14.2507 12 14.2507C12.1988 14.2507 12.3894 14.3295 12.53 14.47L15.53 17.47C15.6625 17.6122 15.7346 17.8002 15.7312 17.9945C15.7277 18.1888 15.649 18.3742 15.5116 18.5116C15.3742 18.649 15.1888 18.7277 14.9945 18.7312C14.8002 18.7346 14.6122 18.6625 14.47 18.53L12 16.06L9.53 18.53C9.38937 18.6705 9.19875 18.7493 9 18.7493C8.80125 18.7493 8.61063 18.6705 8.47 18.53Z" fill="white"/>
<path d="M46.9176 11.6562H43.1847C43.1165 11.1733 42.9773 10.7443 42.767 10.3693C42.5568 9.98864 42.2869 9.66477 41.9574 9.39773C41.6278 9.13068 41.2472 8.92614 40.8153 8.78409C40.3892 8.64205 39.9261 8.57102 39.4261 8.57102C38.5227 8.57102 37.7358 8.79545 37.0653 9.24432C36.3949 9.6875 35.875 10.3352 35.5057 11.1875C35.1364 12.0341 34.9517 13.0625 34.9517 14.2727C34.9517 15.517 35.1364 16.5625 35.5057 17.4091C35.8807 18.2557 36.4034 18.8949 37.0739 19.3267C37.7443 19.7585 38.5199 19.9744 39.4006 19.9744C39.8949 19.9744 40.3523 19.9091 40.7727 19.7784C41.1989 19.6477 41.5767 19.4574 41.9062 19.2074C42.2358 18.9517 42.5085 18.642 42.7244 18.2784C42.946 17.9148 43.0994 17.5 43.1847 17.0341L46.9176 17.0511C46.821 17.8523 46.5795 18.625 46.1932 19.3693C45.8125 20.108 45.2983 20.7699 44.6506 21.3551C44.0085 21.9347 43.2415 22.3949 42.3494 22.7358C41.4631 23.071 40.4602 23.2386 39.3409 23.2386C37.7841 23.2386 36.392 22.8864 35.1648 22.1818C33.9432 21.4773 32.9773 20.4574 32.267 19.1222C31.5625 17.7869 31.2102 16.1705 31.2102 14.2727C31.2102 12.3693 31.5682 10.75 32.2841 9.41477C33 8.07955 33.9716 7.0625 35.1989 6.36364C36.4261 5.65909 37.8068 5.30682 39.3409 5.30682C40.3523 5.30682 41.2898 5.44886 42.1534 5.73295C43.0227 6.01705 43.7926 6.43182 44.4631 6.97727C45.1335 7.51704 45.679 8.17898 46.0994 8.96307C46.5256 9.74716 46.7983 10.6449 46.9176 11.6562ZM54.9305 23.2557C53.6066 23.2557 52.4618 22.9744 51.4959 22.4119C50.5356 21.8437 49.7941 21.054 49.2714 20.0426C48.7487 19.0256 48.4873 17.8466 48.4873 16.5057C48.4873 15.1534 48.7487 13.9716 49.2714 12.9602C49.7941 11.9432 50.5356 11.1534 51.4959 10.5909C52.4618 10.0227 53.6066 9.73864 54.9305 9.73864C56.2544 9.73864 57.3964 10.0227 58.3566 10.5909C59.3226 11.1534 60.0669 11.9432 60.5896 12.9602C61.1123 13.9716 61.3737 15.1534 61.3737 16.5057C61.3737 17.8466 61.1123 19.0256 60.5896 20.0426C60.0669 21.054 59.3226 21.8437 58.3566 22.4119C57.3964 22.9744 56.2544 23.2557 54.9305 23.2557ZM54.9476 20.4432C55.5498 20.4432 56.0527 20.2727 56.4561 19.9318C56.8595 19.5852 57.1635 19.1136 57.368 18.517C57.5782 17.9205 57.6834 17.2415 57.6834 16.4801C57.6834 15.7188 57.5782 15.0398 57.368 14.4432C57.1635 13.8466 56.8595 13.375 56.4561 13.0284C56.0527 12.6818 55.5498 12.5085 54.9476 12.5085C54.3396 12.5085 53.8282 12.6818 53.4135 13.0284C53.0044 13.375 52.6947 13.8466 52.4845 14.4432C52.2799 15.0398 52.1777 15.7188 52.1777 16.4801C52.1777 17.2415 52.2799 17.9205 52.4845 18.517C52.6947 19.1136 53.0044 19.5852 53.4135 19.9318C53.8282 20.2727 54.3396 20.4432 54.9476 20.4432ZM63.2545 23V9.90909H66.8852V23H63.2545ZM65.0784 8.22159C64.5386 8.22159 64.0755 8.04261 63.6891 7.68466C63.3085 7.32102 63.1181 6.88636 63.1181 6.38068C63.1181 5.88068 63.3085 5.4517 63.6891 5.09375C64.0755 4.73011 64.5386 4.54829 65.0784 4.54829C65.6181 4.54829 66.0784 4.73011 66.459 5.09375C66.8454 5.4517 67.0386 5.88068 67.0386 6.38068C67.0386 6.88636 66.8454 7.32102 66.459 7.68466C66.0784 8.04261 65.6181 8.22159 65.0784 8.22159ZM72.9442 15.4318V23H69.3136V9.90909H72.7738V12.2188H72.9272C73.217 11.4574 73.7028 10.8551 74.3846 10.4119C75.0664 9.96307 75.8931 9.73864 76.8647 9.73864C77.7738 9.73864 78.5664 9.9375 79.2425 10.3352C79.9187 10.733 80.4442 11.3011 80.8192 12.0398C81.1942 12.7727 81.3817 13.6477 81.3817 14.6648V23H77.7511V15.3125C77.7567 14.5114 77.5522 13.8864 77.1374 13.4375C76.7226 12.983 76.1516 12.7557 75.4243 12.7557C74.9357 12.7557 74.5039 12.8608 74.1289 13.071C73.7596 13.2812 73.4698 13.5881 73.2596 13.9915C73.055 14.3892 72.9499 14.8693 72.9442 15.4318ZM90.803 9.90909V12.6364H82.7235V9.90909H90.803ZM84.5729 23V8.96307C84.5729 8.0142 84.7576 7.22727 85.1269 6.60227C85.5019 5.97727 86.0132 5.50852 86.661 5.19602C87.3087 4.88352 88.0445 4.72727 88.8684 4.72727C89.4252 4.72727 89.9337 4.76989 90.3939 4.85511C90.8598 4.94034 91.2064 5.01705 91.4337 5.08523L90.786 7.8125C90.6439 7.76705 90.4678 7.72443 90.2576 7.68466C90.053 7.64489 89.8428 7.625 89.6269 7.625C89.0928 7.625 88.7206 7.75 88.5104 8C88.3002 8.24432 88.1951 8.58807 88.1951 9.03125V23H84.5729ZM96.1717 5.54545V23H92.541V5.54545H96.1717ZM98.6001 23V9.90909H102.231V23H98.6001ZM100.424 8.22159C99.8842 8.22159 99.4211 8.04261 99.0348 7.68466C98.6541 7.32102 98.4638 6.88636 98.4638 6.38068C98.4638 5.88068 98.6541 5.4517 99.0348 5.09375C99.4211 4.73011 99.8842 4.54829 100.424 4.54829C100.964 4.54829 101.424 4.73011 101.805 5.09375C102.191 5.4517 102.384 5.88068 102.384 6.38068C102.384 6.88636 102.191 7.32102 101.805 7.68466C101.424 8.04261 100.964 8.22159 100.424 8.22159ZM104.659 27.9091V9.90909H108.239V12.108H108.401C108.56 11.7557 108.79 11.3977 109.091 11.0341C109.398 10.6648 109.796 10.358 110.284 10.1136C110.778 9.86364 111.392 9.73864 112.125 9.73864C113.08 9.73864 113.96 9.98864 114.767 10.4886C115.574 10.983 116.219 11.7301 116.702 12.7301C117.185 13.7244 117.426 14.9716 117.426 16.4716C117.426 17.9318 117.19 19.1648 116.719 20.1705C116.253 21.1705 115.617 21.929 114.81 22.446C114.009 22.9574 113.111 23.2131 112.117 23.2131C111.412 23.2131 110.813 23.0966 110.318 22.8636C109.83 22.6307 109.429 22.3381 109.117 21.9858C108.804 21.6278 108.565 21.267 108.401 20.9034H108.29V27.9091H104.659ZM108.213 16.4545C108.213 17.233 108.321 17.9119 108.537 18.4915C108.753 19.071 109.065 19.5227 109.475 19.8466C109.884 20.1648 110.381 20.3239 110.966 20.3239C111.557 20.3239 112.057 20.1619 112.466 19.8381C112.875 19.5085 113.185 19.054 113.395 18.4744C113.611 17.8892 113.719 17.2159 113.719 16.4545C113.719 15.6989 113.614 15.0341 113.403 14.4602C113.193 13.8864 112.884 13.4375 112.475 13.1136C112.065 12.7898 111.563 12.6278 110.966 12.6278C110.375 12.6278 109.875 12.7841 109.466 13.0966C109.063 13.4091 108.753 13.8523 108.537 14.4261C108.321 15 108.213 15.6761 108.213 16.4545Z" fill="white"/>
</svg>
