<svg width="174" height="174" viewBox="0 0 174 174" fill="none" xmlns="http://www.w3.org/2000/svg">
<rect width="174" height="174" rx="24" fill="#15151A"/>
<g opacity="0.3">
<path d="M79.5 82.0999C78.9431 82.0999 78.4089 81.8787 78.0151 81.4848C77.6213 81.091 77.4 80.5569 77.4 79.9999C77.4 79.4429 77.6213 78.9088 78.0151 78.515C78.4089 78.1212 78.9431 77.8999 79.5 77.8999H100.5C101.057 77.8999 101.591 78.1212 101.985 78.515C102.379 78.9088 102.6 79.4429 102.6 79.9999C102.6 80.5569 102.379 81.091 101.985 81.4848C101.591 81.8787 101.057 82.0999 100.5 82.0999H79.5Z" fill="white"/>
<path d="M87.9 69.4999C87.9 68.9429 88.1213 68.4088 88.5151 68.015C88.9089 67.6212 89.4431 67.3999 90 67.3999C90.557 67.3999 91.0911 67.6212 91.4849 68.015C91.8788 68.4088 92.1 68.9429 92.1 69.4999V90.4999C92.1 91.0569 91.8788 91.591 91.4849 91.9848C91.0911 92.3787 90.557 92.5999 90 92.5999C89.4431 92.5999 88.9089 92.3787 88.5151 91.9848C88.1213 91.591 87.9 91.0569 87.9 90.4999V69.4999Z" fill="white"/>
</g>
<path d="M53.9053 130.254H52.0459C51.9929 129.949 51.8951 129.679 51.7526 129.443C51.6101 129.205 51.4328 129.002 51.2207 128.837C51.0085 128.671 50.7666 128.547 50.4948 128.464C50.2263 128.378 49.9363 128.335 49.6248 128.335C49.0713 128.335 48.5807 128.474 48.1532 128.752C47.7256 129.027 47.3909 129.432 47.1489 129.965C46.907 130.496 46.786 131.143 46.786 131.909C46.786 132.688 46.907 133.344 47.1489 133.878C47.3942 134.408 47.7289 134.809 48.1532 135.081C48.5807 135.349 49.0696 135.484 49.6198 135.484C49.9247 135.484 50.2098 135.444 50.4749 135.364C50.7434 135.281 50.9837 135.161 51.1958 135.001C51.4112 134.842 51.5919 134.647 51.7377 134.415C51.8869 134.183 51.9896 133.918 52.0459 133.619L53.9053 133.629C53.8357 134.113 53.6849 134.567 53.4529 134.991C53.2242 135.416 52.9243 135.79 52.553 136.115C52.1818 136.437 51.7476 136.688 51.2505 136.871C50.7533 137.05 50.2015 137.139 49.595 137.139C48.7001 137.139 47.9013 136.932 47.1986 136.518C46.496 136.103 45.9425 135.505 45.5381 134.723C45.1338 133.941 44.9316 133.003 44.9316 131.909C44.9316 130.812 45.1354 129.874 45.5431 129.095C45.9508 128.313 46.5059 127.715 47.2086 127.3C47.9112 126.886 48.7067 126.679 49.595 126.679C50.1617 126.679 50.6887 126.759 51.1759 126.918C51.6631 127.077 52.0973 127.31 52.4785 127.619C52.8596 127.924 53.1728 128.298 53.4181 128.742C53.6667 129.183 53.8291 129.687 53.9053 130.254ZM57.0346 132.526V137H55.2349V126.818H56.9948V130.661H57.0843C57.2633 130.23 57.54 129.891 57.9146 129.642C58.2924 129.39 58.773 129.264 59.3563 129.264C59.8866 129.264 60.349 129.375 60.7434 129.597C61.1378 129.819 61.4427 130.144 61.6582 130.572C61.8769 130.999 61.9863 131.521 61.9863 132.138V137H60.1866V132.416C60.1866 131.902 60.054 131.503 59.7889 131.218C59.527 130.93 59.1591 130.786 58.6852 130.786C58.367 130.786 58.0819 130.855 57.83 130.994C57.5815 131.13 57.3859 131.327 57.2434 131.586C57.1042 131.844 57.0346 132.158 57.0346 132.526ZM66.8718 137.149C66.126 137.149 65.4797 136.985 64.9329 136.657C64.386 136.329 63.9617 135.87 63.6601 135.28C63.3618 134.69 63.2127 134 63.2127 133.212C63.2127 132.423 63.3618 131.732 63.6601 131.138C63.9617 130.545 64.386 130.085 64.9329 129.756C65.4797 129.428 66.126 129.264 66.8718 129.264C67.6175 129.264 68.2638 129.428 68.8107 129.756C69.3576 130.085 69.7802 130.545 70.0785 131.138C70.3801 131.732 70.5309 132.423 70.5309 133.212C70.5309 134 70.3801 134.69 70.0785 135.28C69.7802 135.87 69.3576 136.329 68.8107 136.657C68.2638 136.985 67.6175 137.149 66.8718 137.149ZM66.8817 135.707C67.2861 135.707 67.6241 135.596 67.8959 135.374C68.1677 135.149 68.3699 134.847 68.5025 134.469C68.6383 134.092 68.7063 133.671 68.7063 133.207C68.7063 132.739 68.6383 132.317 68.5025 131.939C68.3699 131.558 68.1677 131.254 67.8959 131.029C67.6241 130.804 67.2861 130.691 66.8817 130.691C66.4674 130.691 66.1227 130.804 65.8476 131.029C65.5758 131.254 65.372 131.558 65.2361 131.939C65.1035 132.317 65.0373 132.739 65.0373 133.207C65.0373 133.671 65.1035 134.092 65.2361 134.469C65.372 134.847 65.5758 135.149 65.8476 135.374C66.1227 135.596 66.4674 135.707 66.8817 135.707ZM75.1094 137.149C74.3636 137.149 73.7173 136.985 73.1704 136.657C72.6236 136.329 72.1993 135.87 71.8977 135.28C71.5994 134.69 71.4503 134 71.4503 133.212C71.4503 132.423 71.5994 131.732 71.8977 131.138C72.1993 130.545 72.6236 130.085 73.1704 129.756C73.7173 129.428 74.3636 129.264 75.1094 129.264C75.8551 129.264 76.5014 129.428 77.0483 129.756C77.5951 130.085 78.0177 130.545 78.316 131.138C78.6176 131.732 78.7684 132.423 78.7684 133.212C78.7684 134 78.6176 134.69 78.316 135.28C78.0177 135.87 77.5951 136.329 77.0483 136.657C76.5014 136.985 75.8551 137.149 75.1094 137.149ZM75.1193 135.707C75.5237 135.707 75.8617 135.596 76.1335 135.374C76.4053 135.149 76.6075 134.847 76.74 134.469C76.8759 134.092 76.9439 133.671 76.9439 133.207C76.9439 132.739 76.8759 132.317 76.74 131.939C76.6075 131.558 76.4053 131.254 76.1335 131.029C75.8617 130.804 75.5237 130.691 75.1193 130.691C74.705 130.691 74.3603 130.804 74.0852 131.029C73.8134 131.254 73.6096 131.558 73.4737 131.939C73.3411 132.317 73.2748 132.739 73.2748 133.207C73.2748 133.671 73.3411 134.092 73.4737 134.469C73.6096 134.847 73.8134 135.149 74.0852 135.374C74.3603 135.596 74.705 135.707 75.1193 135.707ZM86.0515 131.382L84.4109 131.561C84.3645 131.395 84.2832 131.24 84.1672 131.094C84.0546 130.948 83.9021 130.83 83.7099 130.741C83.5176 130.651 83.2823 130.607 83.0039 130.607C82.6294 130.607 82.3145 130.688 82.0593 130.85C81.8074 131.013 81.6831 131.223 81.6864 131.482C81.6831 131.704 81.7643 131.884 81.93 132.023C82.0991 132.163 82.3775 132.277 82.7653 132.366L84.0678 132.645C84.7904 132.801 85.3273 133.048 85.6786 133.386C86.0332 133.724 86.2122 134.166 86.2155 134.713C86.2122 135.194 86.0714 135.618 85.793 135.986C85.5179 136.35 85.135 136.635 84.6445 136.841C84.154 137.046 83.5905 137.149 82.9542 137.149C82.0195 137.149 81.2672 136.954 80.6971 136.562C80.127 136.168 79.7873 135.62 79.6779 134.917L81.4329 134.748C81.5124 135.093 81.6815 135.353 81.94 135.528C82.1985 135.704 82.5349 135.792 82.9492 135.792C83.3768 135.792 83.7198 135.704 83.9783 135.528C84.2402 135.353 84.3711 135.136 84.3711 134.877C84.3711 134.658 84.2866 134.478 84.1175 134.335C83.9518 134.193 83.6933 134.083 83.342 134.007L82.0394 133.734C81.3069 133.581 80.765 133.324 80.4137 132.963C80.0624 132.598 79.8884 132.138 79.8917 131.581C79.8884 131.11 80.016 130.703 80.2745 130.358C80.5363 130.01 80.8993 129.741 81.3633 129.553C81.8306 129.36 82.3692 129.264 82.979 129.264C83.8739 129.264 84.5782 129.455 85.092 129.836C85.609 130.217 85.9288 130.732 86.0515 131.382ZM90.8002 137.149C90.0346 137.149 89.3734 136.99 88.8166 136.672C88.2631 136.35 87.8372 135.896 87.5389 135.31C87.2406 134.72 87.0914 134.025 87.0914 133.227C87.0914 132.441 87.2406 131.752 87.5389 131.158C87.8405 130.562 88.2614 130.098 88.8017 129.766C89.3419 129.432 89.9766 129.264 90.7058 129.264C91.1764 129.264 91.6206 129.34 92.0382 129.493C92.4591 129.642 92.8303 129.874 93.1518 130.189C93.4766 130.504 93.7318 130.905 93.9174 131.392C94.103 131.876 94.1958 132.453 94.1958 133.122V133.674H87.9366V132.461H92.4707C92.4674 132.116 92.3928 131.81 92.247 131.541C92.1011 131.269 91.8973 131.056 91.6355 130.9C91.3769 130.744 91.0753 130.666 90.7306 130.666C90.3627 130.666 90.0396 130.756 89.7612 130.935C89.4828 131.11 89.2657 131.342 89.1099 131.631C88.9574 131.916 88.8795 132.229 88.8762 132.57V133.629C88.8762 134.073 88.9574 134.455 89.1198 134.773C89.2822 135.088 89.5093 135.33 89.801 135.499C90.0926 135.664 90.434 135.747 90.8251 135.747C91.0869 135.747 91.3239 135.711 91.536 135.638C91.7482 135.562 91.9321 135.451 92.0879 135.305C92.2437 135.159 92.3613 134.978 92.4409 134.763L94.1213 134.952C94.0152 135.396 93.813 135.784 93.5147 136.115C93.2197 136.443 92.8419 136.698 92.3812 136.881C91.9205 137.06 91.3935 137.149 90.8002 137.149ZM100.828 137.154C100.345 137.154 99.9087 137.068 99.521 136.896C99.1365 136.72 98.8316 136.461 98.6062 136.12C98.3841 135.779 98.2731 135.358 98.2731 134.857C98.2731 134.426 98.3526 134.07 98.5117 133.788C98.6708 133.507 98.8879 133.281 99.163 133.112C99.4381 132.943 99.748 132.816 100.093 132.729C100.441 132.64 100.8 132.575 101.172 132.536C101.619 132.489 101.982 132.448 102.26 132.411C102.539 132.371 102.741 132.312 102.867 132.232C102.996 132.149 103.061 132.022 103.061 131.849V131.82C103.061 131.445 102.95 131.155 102.728 130.95C102.506 130.744 102.186 130.641 101.768 130.641C101.327 130.641 100.978 130.737 100.719 130.93C100.464 131.122 100.292 131.349 100.202 131.611L98.5217 131.372C98.6542 130.908 98.873 130.52 99.1779 130.209C99.4828 129.894 99.8557 129.659 100.297 129.503C100.737 129.344 101.225 129.264 101.758 129.264C102.126 129.264 102.492 129.307 102.857 129.393C103.221 129.48 103.555 129.622 103.856 129.821C104.158 130.017 104.4 130.283 104.582 130.621C104.768 130.96 104.86 131.382 104.86 131.889V137H103.13V135.951H103.071C102.961 136.163 102.807 136.362 102.608 136.548C102.413 136.73 102.166 136.877 101.868 136.99C101.573 137.099 101.226 137.154 100.828 137.154ZM101.296 135.832C101.657 135.832 101.97 135.76 102.235 135.618C102.501 135.472 102.704 135.28 102.847 135.041C102.993 134.803 103.066 134.542 103.066 134.261V133.361C103.009 133.407 102.913 133.45 102.777 133.49C102.645 133.53 102.496 133.565 102.33 133.594C102.164 133.624 102 133.651 101.838 133.674C101.675 133.697 101.534 133.717 101.415 133.734C101.147 133.77 100.906 133.83 100.694 133.913C100.482 133.996 100.315 134.112 100.192 134.261C100.069 134.406 100.008 134.595 100.008 134.827C100.008 135.159 100.129 135.409 100.371 135.578C100.613 135.747 100.921 135.832 101.296 135.832ZM112.904 140.023C112.257 140.023 111.702 139.935 111.238 139.759C110.774 139.587 110.401 139.355 110.12 139.063C109.838 138.772 109.642 138.448 109.533 138.094L111.154 137.701C111.227 137.85 111.333 137.998 111.472 138.143C111.611 138.293 111.798 138.415 112.034 138.511C112.272 138.611 112.572 138.661 112.934 138.661C113.444 138.661 113.867 138.536 114.201 138.288C114.536 138.042 114.704 137.638 114.704 137.075V135.628H114.614C114.521 135.813 114.385 136.004 114.206 136.2C114.031 136.395 113.797 136.559 113.505 136.692C113.217 136.824 112.854 136.891 112.417 136.891C111.83 136.891 111.298 136.753 110.821 136.478C110.347 136.2 109.969 135.785 109.687 135.235C109.409 134.682 109.27 133.989 109.27 133.157C109.27 132.318 109.409 131.611 109.687 131.034C109.969 130.454 110.348 130.015 110.826 129.717C111.303 129.415 111.835 129.264 112.422 129.264C112.869 129.264 113.237 129.34 113.525 129.493C113.817 129.642 114.049 129.823 114.221 130.035C114.394 130.244 114.525 130.441 114.614 130.626H114.713V129.364H116.488V137.124C116.488 137.777 116.333 138.317 116.021 138.745C115.709 139.173 115.284 139.492 114.743 139.705C114.203 139.917 113.59 140.023 112.904 140.023ZM112.919 135.479C113.3 135.479 113.625 135.386 113.893 135.2C114.162 135.015 114.365 134.748 114.505 134.4C114.644 134.052 114.713 133.634 114.713 133.147C114.713 132.666 114.644 132.246 114.505 131.884C114.369 131.523 114.167 131.243 113.898 131.044C113.633 130.842 113.306 130.741 112.919 130.741C112.518 130.741 112.183 130.845 111.914 131.054C111.646 131.263 111.444 131.549 111.308 131.914C111.172 132.275 111.104 132.686 111.104 133.147C111.104 133.614 111.172 134.024 111.308 134.375C111.447 134.723 111.651 134.995 111.919 135.19C112.191 135.383 112.524 135.479 112.919 135.479ZM118.053 137V129.364H119.852V137H118.053ZM118.958 128.28C118.673 128.28 118.427 128.185 118.222 127.996C118.016 127.804 117.914 127.574 117.914 127.305C117.914 127.034 118.016 126.803 118.222 126.614C118.427 126.422 118.673 126.326 118.958 126.326C119.246 126.326 119.491 126.422 119.693 126.614C119.899 126.803 120.002 127.034 120.002 127.305C120.002 127.574 119.899 127.804 119.693 127.996C119.491 128.185 119.246 128.28 118.958 128.28ZM125.291 129.364V130.756H120.777V129.364H125.291ZM121.905 137V128.643C121.905 128.129 122.011 127.701 122.224 127.36C122.439 127.019 122.727 126.763 123.089 126.594C123.45 126.425 123.851 126.341 124.292 126.341C124.603 126.341 124.88 126.366 125.122 126.415C125.364 126.465 125.543 126.51 125.659 126.55L125.301 127.942C125.225 127.919 125.129 127.895 125.013 127.872C124.897 127.846 124.767 127.832 124.625 127.832C124.29 127.832 124.053 127.914 123.914 128.076C123.778 128.235 123.71 128.464 123.71 128.762V137H121.905ZM130.234 129.364V130.756H125.844V129.364H130.234ZM126.928 127.534H128.727V134.703C128.727 134.945 128.764 135.131 128.837 135.26C128.913 135.386 129.012 135.472 129.135 135.518C129.258 135.565 129.394 135.588 129.543 135.588C129.655 135.588 129.758 135.58 129.851 135.563C129.947 135.547 130.02 135.532 130.07 135.518L130.373 136.925C130.277 136.959 130.139 136.995 129.96 137.035C129.785 137.075 129.569 137.098 129.314 137.104C128.863 137.118 128.457 137.05 128.096 136.901C127.735 136.748 127.448 136.513 127.236 136.195C127.027 135.876 126.924 135.479 126.928 135.001V127.534ZM54.133 146.364V147.756H49.6188V146.364H54.133ZM50.7474 154V145.643C50.7474 145.129 50.8535 144.701 51.0656 144.36C51.281 144.019 51.5694 143.763 51.9306 143.594C52.2919 143.425 52.6929 143.341 53.1338 143.341C53.4453 143.341 53.7221 143.366 53.964 143.415C54.206 143.465 54.3849 143.51 54.5009 143.55L54.143 144.942C54.0668 144.919 53.9706 144.895 53.8546 144.872C53.7386 144.846 53.6094 144.832 53.4669 144.832C53.1321 144.832 52.8951 144.914 52.7559 145.076C52.62 145.235 52.5521 145.464 52.5521 145.762V154H50.7474ZM58.3063 154.149C57.5606 154.149 56.9143 153.985 56.3674 153.657C55.8206 153.329 55.3963 152.87 55.0947 152.28C54.7964 151.69 54.6473 151 54.6473 150.212C54.6473 149.423 54.7964 148.732 55.0947 148.138C55.3963 147.545 55.8206 147.085 56.3674 146.756C56.9143 146.428 57.5606 146.264 58.3063 146.264C59.0521 146.264 59.6984 146.428 60.2453 146.756C60.7921 147.085 61.2147 147.545 61.513 148.138C61.8146 148.732 61.9654 149.423 61.9654 150.212C61.9654 151 61.8146 151.69 61.513 152.28C61.2147 152.87 60.7921 153.329 60.2453 153.657C59.6984 153.985 59.0521 154.149 58.3063 154.149ZM58.3163 152.707C58.7206 152.707 59.0587 152.596 59.3305 152.374C59.6023 152.149 59.8045 151.847 59.937 151.469C60.0729 151.092 60.1409 150.671 60.1409 150.207C60.1409 149.739 60.0729 149.317 59.937 148.939C59.8045 148.558 59.6023 148.254 59.3305 148.029C59.0587 147.804 58.7206 147.691 58.3163 147.691C57.902 147.691 57.5573 147.804 57.2822 148.029C57.0104 148.254 56.8066 148.558 56.6707 148.939C56.5381 149.317 56.4718 149.739 56.4718 150.207C56.4718 150.671 56.5381 151.092 56.6707 151.469C56.8066 151.847 57.0104 152.149 57.2822 152.374C57.5573 152.596 57.902 152.707 58.3163 152.707ZM63.213 154V146.364H64.958V147.636H65.0375C65.1767 147.196 65.4154 146.856 65.7534 146.617C66.0948 146.375 66.4843 146.254 66.9218 146.254C67.0212 146.254 67.1322 146.259 67.2549 146.269C67.3808 146.276 67.4852 146.287 67.5681 146.304V147.96C67.4918 147.933 67.3709 147.91 67.2051 147.89C67.0427 147.867 66.8853 147.855 66.7328 147.855C66.4047 147.855 66.1097 147.926 65.8479 148.069C65.5894 148.208 65.3855 148.402 65.2364 148.651C65.0872 148.899 65.0127 149.186 65.0127 149.511V154H63.213ZM76.5436 150.788V146.364H78.3433V154H76.5983V152.643H76.5187C76.3464 153.07 76.063 153.42 75.6686 153.692C75.2775 153.964 74.7952 154.099 74.2219 154.099C73.7214 154.099 73.2789 153.988 72.8944 153.766C72.5133 153.541 72.215 153.214 71.9995 152.787C71.7841 152.356 71.6764 151.836 71.6764 151.226V146.364H73.4761V150.947C73.4761 151.431 73.6087 151.816 73.8738 152.101C74.139 152.386 74.487 152.528 74.9179 152.528C75.183 152.528 75.4399 152.464 75.6885 152.335C75.937 152.205 76.1409 152.013 76.3 151.758C76.4624 151.499 76.5436 151.176 76.5436 150.788ZM79.914 156.864V146.364H81.6839V147.626H81.7883C81.8811 147.441 82.012 147.244 82.181 147.035C82.3501 146.823 82.5787 146.642 82.8671 146.493C83.1555 146.34 83.5233 146.264 83.9708 146.264C84.5608 146.264 85.0927 146.415 85.5667 146.717C86.0439 147.015 86.4218 147.457 86.7002 148.044C86.9819 148.627 87.1228 149.343 87.1228 150.192C87.1228 151.03 86.9852 151.743 86.7101 152.33C86.435 152.916 86.0605 153.364 85.5866 153.672C85.1126 153.98 84.5757 154.134 83.9758 154.134C83.5383 154.134 83.1753 154.061 82.887 153.915C82.5986 153.77 82.3666 153.594 82.191 153.388C82.0186 153.18 81.8844 152.982 81.7883 152.797H81.7137V156.864H79.914ZM81.6789 150.182C81.6789 150.676 81.7485 151.108 81.8877 151.479C82.0302 151.851 82.234 152.141 82.4992 152.349C82.7677 152.555 83.0925 152.658 83.4736 152.658C83.8714 152.658 84.2045 152.552 84.4729 152.339C84.7414 152.124 84.9436 151.831 85.0795 151.46C85.2187 151.085 85.2883 150.659 85.2883 150.182C85.2883 149.708 85.2203 149.287 85.0844 148.919C84.9485 148.551 84.7464 148.263 84.4779 148.054C84.2094 147.845 83.8747 147.741 83.4736 147.741C83.0892 147.741 82.7627 147.842 82.4942 148.044C82.2258 148.246 82.0219 148.53 81.8827 148.894C81.7468 149.259 81.6789 149.688 81.6789 150.182ZM91.705 157.023C91.0587 157.023 90.5035 156.935 90.0395 156.759C89.5755 156.587 89.2026 156.355 88.9209 156.063C88.6392 155.772 88.4436 155.448 88.3343 155.094L89.955 154.701C90.0279 154.85 90.134 154.998 90.2732 155.143C90.4124 155.293 90.5996 155.415 90.835 155.511C91.0736 155.611 91.3736 155.661 91.7348 155.661C92.2452 155.661 92.6678 155.536 93.0026 155.288C93.3373 155.042 93.5047 154.638 93.5047 154.075V152.628H93.4152C93.3224 152.813 93.1865 153.004 93.0076 153.2C92.8319 153.395 92.5982 153.559 92.3066 153.692C92.0182 153.824 91.6553 153.891 91.2178 153.891C90.6311 153.891 90.0992 153.753 89.6219 153.478C89.1479 153.2 88.7701 152.785 88.4884 152.235C88.21 151.682 88.0708 150.989 88.0708 150.157C88.0708 149.318 88.21 148.611 88.4884 148.034C88.7701 147.454 89.1496 147.015 89.6269 146.717C90.1041 146.415 90.6361 146.264 91.2228 146.264C91.6702 146.264 92.0381 146.34 92.3264 146.493C92.6181 146.642 92.8501 146.823 93.0225 147.035C93.1948 147.244 93.3257 147.441 93.4152 147.626H93.5147V146.364H95.2895V154.124C95.2895 154.777 95.1337 155.317 94.8222 155.745C94.5106 156.173 94.0847 156.492 93.5445 156.705C93.0042 156.917 92.3911 157.023 91.705 157.023ZM91.7199 152.479C92.1011 152.479 92.4259 152.386 92.6943 152.2C92.9628 152.015 93.1666 151.748 93.3059 151.4C93.4451 151.052 93.5147 150.634 93.5147 150.147C93.5147 149.666 93.4451 149.246 93.3059 148.884C93.17 148.523 92.9678 148.243 92.6993 148.044C92.4342 147.842 92.1077 147.741 91.7199 147.741C91.3189 147.741 90.9841 147.845 90.7157 148.054C90.4472 148.263 90.245 148.549 90.1091 148.914C89.9732 149.275 89.9053 149.686 89.9053 150.147C89.9053 150.614 89.9732 151.024 90.1091 151.375C90.2483 151.723 90.4522 151.995 90.7206 152.19C90.9924 152.383 91.3255 152.479 91.7199 152.479ZM96.854 154V146.364H98.599V147.636H98.6786C98.8178 147.196 99.0564 146.856 99.3945 146.617C99.7358 146.375 100.125 146.254 100.563 146.254C100.662 146.254 100.773 146.259 100.896 146.269C101.022 146.276 101.126 146.287 101.209 146.304V147.96C101.133 147.933 101.012 147.91 100.846 147.89C100.684 147.867 100.526 147.855 100.374 147.855C100.046 147.855 99.7508 147.926 99.4889 148.069C99.2304 148.208 99.0266 148.402 98.8774 148.651C98.7283 148.899 98.6537 149.186 98.6537 149.511V154H96.854ZM104.185 154.154C103.702 154.154 103.266 154.068 102.878 153.896C102.493 153.72 102.189 153.461 101.963 153.12C101.741 152.779 101.63 152.358 101.63 151.857C101.63 151.426 101.71 151.07 101.869 150.788C102.028 150.507 102.245 150.281 102.52 150.112C102.795 149.943 103.105 149.816 103.45 149.729C103.798 149.64 104.157 149.575 104.529 149.536C104.976 149.489 105.339 149.448 105.617 149.411C105.896 149.371 106.098 149.312 106.224 149.232C106.353 149.149 106.418 149.022 106.418 148.849V148.82C106.418 148.445 106.307 148.155 106.085 147.95C105.863 147.744 105.543 147.641 105.125 147.641C104.684 147.641 104.335 147.737 104.076 147.93C103.821 148.122 103.649 148.349 103.559 148.611L101.879 148.372C102.011 147.908 102.23 147.52 102.535 147.209C102.84 146.894 103.213 146.659 103.654 146.503C104.094 146.344 104.582 146.264 105.115 146.264C105.483 146.264 105.849 146.307 106.214 146.393C106.578 146.48 106.912 146.622 107.213 146.821C107.515 147.017 107.757 147.283 107.939 147.621C108.125 147.96 108.217 148.382 108.217 148.889V154H106.487V152.951H106.428C106.318 153.163 106.164 153.362 105.965 153.548C105.77 153.73 105.523 153.877 105.225 153.99C104.93 154.099 104.583 154.154 104.185 154.154ZM104.653 152.832C105.014 152.832 105.327 152.76 105.592 152.618C105.858 152.472 106.061 152.28 106.204 152.041C106.35 151.803 106.423 151.542 106.423 151.261V150.361C106.366 150.407 106.27 150.45 106.134 150.49C106.002 150.53 105.853 150.565 105.687 150.594C105.521 150.624 105.357 150.651 105.195 150.674C105.032 150.697 104.891 150.717 104.772 150.734C104.504 150.77 104.263 150.83 104.051 150.913C103.839 150.996 103.672 151.112 103.549 151.261C103.426 151.406 103.365 151.595 103.365 151.827C103.365 152.159 103.486 152.409 103.728 152.578C103.97 152.747 104.278 152.832 104.653 152.832ZM112.581 154.134C111.981 154.134 111.444 153.98 110.97 153.672C110.496 153.364 110.122 152.916 109.847 152.33C109.571 151.743 109.434 151.03 109.434 150.192C109.434 149.343 109.573 148.627 109.852 148.044C110.133 147.457 110.513 147.015 110.99 146.717C111.467 146.415 111.999 146.264 112.586 146.264C113.033 146.264 113.401 146.34 113.69 146.493C113.978 146.642 114.207 146.823 114.376 147.035C114.545 147.244 114.676 147.441 114.768 147.626H114.843V143.818H116.648V154H114.878V152.797H114.768C114.676 152.982 114.541 153.18 114.366 153.388C114.19 153.594 113.958 153.77 113.67 153.915C113.381 154.061 113.018 154.134 112.581 154.134ZM113.083 152.658C113.464 152.658 113.789 152.555 114.057 152.349C114.326 152.141 114.53 151.851 114.669 151.479C114.808 151.108 114.878 150.676 114.878 150.182C114.878 149.688 114.808 149.259 114.669 148.894C114.533 148.53 114.331 148.246 114.062 148.044C113.797 147.842 113.471 147.741 113.083 147.741C112.682 147.741 112.347 147.845 112.079 148.054C111.81 148.263 111.608 148.551 111.472 148.919C111.336 149.287 111.268 149.708 111.268 150.182C111.268 150.659 111.336 151.085 111.472 151.46C111.611 151.831 111.815 152.124 112.084 152.339C112.356 152.552 112.689 152.658 113.083 152.658ZM121.666 154.149C120.901 154.149 120.239 153.99 119.682 153.672C119.129 153.35 118.703 152.896 118.405 152.31C118.106 151.72 117.957 151.025 117.957 150.227C117.957 149.441 118.106 148.752 118.405 148.158C118.706 147.562 119.127 147.098 119.668 146.766C120.208 146.432 120.843 146.264 121.572 146.264C122.042 146.264 122.486 146.34 122.904 146.493C123.325 146.642 123.696 146.874 124.018 147.189C124.343 147.504 124.598 147.905 124.783 148.392C124.969 148.876 125.062 149.453 125.062 150.122V150.674H118.803V149.461H123.337C123.333 149.116 123.259 148.81 123.113 148.541C122.967 148.269 122.763 148.056 122.501 147.9C122.243 147.744 121.941 147.666 121.597 147.666C121.229 147.666 120.905 147.756 120.627 147.935C120.349 148.11 120.132 148.342 119.976 148.631C119.823 148.916 119.745 149.229 119.742 149.57V150.629C119.742 151.073 119.823 151.455 119.986 151.773C120.148 152.088 120.375 152.33 120.667 152.499C120.959 152.664 121.3 152.747 121.691 152.747C121.953 152.747 122.19 152.711 122.402 152.638C122.614 152.562 122.798 152.451 122.954 152.305C123.11 152.159 123.227 151.978 123.307 151.763L124.987 151.952C124.881 152.396 124.679 152.784 124.381 153.115C124.086 153.443 123.708 153.698 123.247 153.881C122.786 154.06 122.259 154.149 121.666 154.149Z" fill="white"/>
</svg>
