<svg width="95" height="36" viewBox="0 0 95 36" fill="none" xmlns="http://www.w3.org/2000/svg">
<path d="M0 18C0 8.05887 8.05888 0 18 0H77C86.9411 0 95 8.05887 95 18C95 27.9411 86.9411 36 77 36H18C8.05888 36 0 27.9411 0 18Z" fill="#C4FF00" fill-opacity="0.1"/>
<g clip-path="url(#clip0_87_303)">
<rect x="13.9445" y="12.4443" width="11.1111" height="12.2222" fill="white"/>
<path d="M19.5 8C13.9775 8 9.5 12.4775 9.5 18C9.5 23.5225 13.9775 28 19.5 28C25.0225 28 29.5 23.5225 29.5 18C29.5 12.4775 25.0225 8 19.5 8ZM16.085 13.5808H22.915C24.1692 13.5808 24.9667 14.9375 24.3358 16.0308L20.12 23.335C20.057 23.4436 19.9666 23.5338 19.8578 23.5965C19.749 23.6592 19.6256 23.6922 19.5 23.6922C19.3744 23.6922 19.251 23.6592 19.1422 23.5965C19.0334 23.5338 18.943 23.4436 18.88 23.335L14.6658 16.0308C14.0342 14.9358 14.83 13.5808 16.085 13.5808ZM20.1217 14.8275V21.1442L21.04 19.3708L23.2533 15.4075C23.2872 15.3483 23.3049 15.2812 23.3045 15.213C23.3042 15.1448 23.2858 15.0779 23.2513 15.019C23.2168 14.9602 23.1674 14.9115 23.1081 14.8778C23.0487 14.8442 22.9815 14.8268 22.9133 14.8275H20.1217ZM16.0833 14.8292C16.0153 14.8284 15.9482 14.8457 15.8889 14.8792C15.8297 14.9126 15.7803 14.9612 15.7458 15.0198C15.7113 15.0785 15.6929 15.1453 15.6925 15.2133C15.692 15.2814 15.7096 15.3484 15.7433 15.4075L17.9583 19.3692L18.8767 21.1442V14.8292H16.0833Z" fill="#0077FF"/>
</g>
<path d="M40.2325 21.7102V20.0149L44.4832 13.3182H45.9449V15.6648H45.0798L42.4001 19.9055V19.9851H48.4406V21.7102H40.2325ZM45.1196 23.5V21.1932L45.1593 20.4425V13.3182H47.1778V23.5H45.1196ZM53.3584 23.6392C52.616 23.6392 51.9547 23.5116 51.3747 23.2564C50.798 22.9979 50.3423 22.6432 50.0075 22.1925C49.6761 21.7384 49.5054 21.2147 49.4955 20.6214H51.6631C51.6763 20.87 51.7575 21.0888 51.9067 21.2777C52.0591 21.4633 52.2613 21.6075 52.5132 21.7102C52.7651 21.813 53.0485 21.8643 53.3634 21.8643C53.6915 21.8643 53.9815 21.8063 54.2334 21.6903C54.4853 21.5743 54.6825 21.4136 54.825 21.2081C54.9675 21.0026 55.0388 20.7656 55.0388 20.4972C55.0388 20.2254 54.9626 19.9851 54.8101 19.7763C54.6609 19.5642 54.4455 19.3984 54.1638 19.2791C53.8854 19.1598 53.5539 19.1001 53.1695 19.1001H52.2199V17.5192H53.1695C53.4943 17.5192 53.781 17.4628 54.0296 17.3501C54.2814 17.2375 54.477 17.0817 54.6162 16.8828C54.7554 16.6806 54.825 16.4453 54.825 16.1768C54.825 15.9216 54.7637 15.6979 54.6411 15.5057C54.5217 15.3101 54.3527 15.1577 54.134 15.0483C53.9185 14.9389 53.6666 14.8842 53.3783 14.8842C53.0866 14.8842 52.8198 14.9373 52.5778 15.0433C52.3359 15.1461 52.142 15.2936 51.9962 15.4858C51.8503 15.678 51.7725 15.9034 51.7625 16.1619H49.6993C49.7092 15.5753 49.8766 15.0582 50.2014 14.6108C50.5262 14.1634 50.9637 13.8137 51.5139 13.5618C52.0674 13.3066 52.6922 13.179 53.3882 13.179C54.0909 13.179 54.7057 13.3066 55.2327 13.5618C55.7597 13.817 56.169 14.1617 56.4607 14.5959C56.7556 15.0268 56.9015 15.5107 56.8982 16.0476C56.9015 16.6177 56.7242 17.0933 56.3662 17.4744C56.0116 17.8556 55.5492 18.0975 54.9791 18.2003V18.2798C55.7282 18.3759 56.2983 18.6361 56.6894 19.0604C57.0838 19.4813 57.2793 20.0083 57.276 20.6413C57.2793 21.2214 57.1119 21.7367 56.7739 22.1875C56.4391 22.6383 55.9768 22.9929 55.3868 23.2514C54.7968 23.5099 54.1207 23.6392 53.3584 23.6392ZM65.1876 13.179C65.7113 13.179 66.2151 13.2668 66.699 13.4425C67.1862 13.6181 67.6204 13.8982 68.0015 14.2827C68.386 14.6671 68.6893 15.1776 68.9113 15.8139C69.1367 16.447 69.251 17.2242 69.2544 18.1456C69.2544 19.0107 69.1566 19.7829 68.961 20.4624C68.7688 21.1385 68.492 21.7135 68.1308 22.1875C67.7695 22.6615 67.3337 23.0227 66.8232 23.2713C66.3128 23.5166 65.7428 23.6392 65.113 23.6392C64.4336 23.6392 63.8337 23.5083 63.3133 23.2464C62.7929 22.9813 62.3737 22.6217 62.0555 22.1676C61.7406 21.7102 61.55 21.1965 61.4838 20.6264H63.6066C63.6895 20.9976 63.8635 21.286 64.1286 21.4915C64.3938 21.6937 64.7219 21.7947 65.113 21.7947C65.7759 21.7947 66.2797 21.5064 66.6244 20.9297C66.9691 20.3497 67.1431 19.5559 67.1464 18.5483H67.0768C66.9243 18.8466 66.7188 19.1035 66.4603 19.3189C66.2018 19.531 65.9052 19.6951 65.5704 19.8111C65.239 19.9271 64.886 19.9851 64.5115 19.9851C63.9116 19.9851 63.3763 19.8442 62.9056 19.5625C62.435 19.2808 62.0638 18.893 61.792 18.3991C61.5202 17.9053 61.3843 17.3419 61.3843 16.7088C61.381 16.026 61.5384 15.4179 61.8566 14.8842C62.1748 14.3506 62.6189 13.933 63.189 13.6314C63.7624 13.3265 64.4286 13.1757 65.1876 13.179ZM65.2025 14.8693C64.8678 14.8693 64.5695 14.9489 64.3076 15.108C64.0491 15.267 63.8436 15.4808 63.6911 15.7493C63.542 16.0178 63.4691 16.3177 63.4724 16.6491C63.4724 16.9839 63.5453 17.2855 63.6911 17.554C63.8403 17.8191 64.0425 18.0312 64.2977 18.1903C64.5562 18.3461 64.8512 18.424 65.1826 18.424C65.4312 18.424 65.6616 18.3776 65.8737 18.2848C66.0858 18.192 66.2697 18.0644 66.4255 17.902C66.5846 17.7363 66.7089 17.5457 66.7984 17.3303C66.8879 17.1148 66.9326 16.8861 66.9326 16.6442C66.9293 16.3227 66.8531 16.0277 66.7039 15.7592C66.5548 15.4908 66.3493 15.2753 66.0875 15.1129C65.8256 14.9505 65.5306 14.8693 65.2025 14.8693ZM74.2293 23.6392C73.4869 23.6392 72.8257 23.5116 72.2457 23.2564C71.669 22.9979 71.2132 22.6432 70.8785 22.1925C70.547 21.7384 70.3763 21.2147 70.3664 20.6214H72.534C72.5473 20.87 72.6285 21.0888 72.7776 21.2777C72.9301 21.4633 73.1323 21.6075 73.3842 21.7102C73.636 21.813 73.9194 21.8643 74.2343 21.8643C74.5624 21.8643 74.8524 21.8063 75.1043 21.6903C75.3562 21.5743 75.5534 21.4136 75.6959 21.2081C75.8385 21.0026 75.9097 20.7656 75.9097 20.4972C75.9097 20.2254 75.8335 19.9851 75.681 19.7763C75.5319 19.5642 75.3164 19.3984 75.0347 19.2791C74.7563 19.1598 74.4249 19.1001 74.0404 19.1001H73.0908V17.5192H74.0404C74.3652 17.5192 74.6519 17.4628 74.9005 17.3501C75.1524 17.2375 75.3479 17.0817 75.4871 16.8828C75.6263 16.6806 75.6959 16.4453 75.6959 16.1768C75.6959 15.9216 75.6346 15.6979 75.512 15.5057C75.3927 15.3101 75.2236 15.1577 75.0049 15.0483C74.7895 14.9389 74.5376 14.8842 74.2492 14.8842C73.9575 14.8842 73.6907 14.9373 73.4488 15.0433C73.2068 15.1461 73.0129 15.2936 72.8671 15.4858C72.7213 15.678 72.6434 15.9034 72.6334 16.1619H70.5702C70.5802 15.5753 70.7476 15.0582 71.0724 14.6108C71.3972 14.1634 71.8347 13.8137 72.3849 13.5618C72.9384 13.3066 73.5631 13.179 74.2592 13.179C74.9618 13.179 75.5766 13.3066 76.1036 13.5618C76.6306 13.817 77.0399 14.1617 77.3316 14.5959C77.6266 15.0268 77.7724 15.5107 77.7691 16.0476C77.7724 16.6177 77.5951 17.0933 77.2371 17.4744C76.8825 17.8556 76.4201 18.0975 75.8501 18.2003V18.2798C76.5991 18.3759 77.1692 18.6361 77.5603 19.0604C77.9547 19.4813 78.1503 20.0083 78.1469 20.6413C78.1503 21.2214 77.9829 21.7367 77.6448 22.1875C77.3101 22.6383 76.8477 22.9929 76.2577 23.2514C75.6678 23.5099 74.9916 23.6392 74.2293 23.6392ZM83.844 13.3182V23.5H81.6913V15.3615H81.6317L79.3 16.8232V14.9141L81.8206 13.3182H83.844Z" fill="#C4FF00"/>
<defs>
<clipPath id="clip0_87_303">
<rect width="20" height="20" fill="white" transform="translate(9.5 8)"/>
</clipPath>
</defs>
</svg>
