<svg width="136" height="36" viewBox="0 0 136 36" fill="none" xmlns="http://www.w3.org/2000/svg">
<path d="M0 18C0 8.05887 8.05888 0 18 0H118C127.941 0 136 8.05887 136 18C136 27.9411 127.941 36 118 36H18C8.05888 36 0 27.9411 0 18Z" fill="#C4FF00"/>
<path d="M33.0012 16.8281H31.1348C31.1007 16.5866 31.0311 16.3722 30.9259 16.1847C30.8208 15.9943 30.6859 15.8324 30.5211 15.6989C30.3563 15.5653 30.166 15.4631 29.9501 15.392C29.737 15.321 29.5055 15.2855 29.2555 15.2855C28.8038 15.2855 28.4103 15.3977 28.0751 15.6222C27.7399 15.8437 27.4799 16.1676 27.2953 16.5938C27.1106 17.017 27.0183 17.5312 27.0183 18.1364C27.0183 18.7585 27.1106 19.2812 27.2953 19.7045C27.4828 20.1278 27.7441 20.4474 28.0794 20.6634C28.4146 20.8793 28.8024 20.9872 29.2427 20.9872C29.4899 20.9872 29.7186 20.9545 29.9288 20.8892C30.1419 20.8239 30.3308 20.7287 30.4955 20.6037C30.6603 20.4759 30.7967 20.321 30.9046 20.1392C31.0154 19.9574 31.0921 19.75 31.1348 19.517L33.0012 19.5256C32.9529 19.9261 32.8322 20.3125 32.639 20.6847C32.4487 21.054 32.1916 21.3849 31.8677 21.6776C31.5467 21.9673 31.1632 22.1974 30.7171 22.3679C30.274 22.5355 29.7725 22.6193 29.2129 22.6193C28.4345 22.6193 27.7384 22.4432 27.1248 22.0909C26.514 21.7386 26.0311 21.2287 25.6759 20.5611C25.3237 19.8935 25.1475 19.0852 25.1475 18.1364C25.1475 17.1847 25.3265 16.375 25.6845 15.7074C26.0424 15.0398 26.5282 14.5312 27.1419 14.1818C27.7555 13.8295 28.4458 13.6534 29.2129 13.6534C29.7186 13.6534 30.1873 13.7244 30.6191 13.8665C31.0538 14.0085 31.4387 14.2159 31.774 14.4886C32.1092 14.7585 32.3819 15.0895 32.5921 15.4815C32.8052 15.8736 32.9416 16.3224 33.0012 16.8281ZM37.0077 22.6278C36.3457 22.6278 35.7733 22.4872 35.2903 22.206C34.8102 21.9219 34.4395 21.527 34.1781 21.0213C33.9168 20.5128 33.7861 19.9233 33.7861 19.2528C33.7861 18.5767 33.9168 17.9858 34.1781 17.4801C34.4395 16.9716 34.8102 16.5767 35.2903 16.2955C35.7733 16.0114 36.3457 15.8693 37.0077 15.8693C37.6696 15.8693 38.2406 16.0114 38.7207 16.2955C39.2037 16.5767 39.5759 16.9716 39.8372 17.4801C40.0986 17.9858 40.2293 18.5767 40.2293 19.2528C40.2293 19.9233 40.0986 20.5128 39.8372 21.0213C39.5759 21.527 39.2037 21.9219 38.7207 22.206C38.2406 22.4872 37.6696 22.6278 37.0077 22.6278ZM37.0162 21.2216C37.3173 21.2216 37.5688 21.1364 37.7705 20.9659C37.9722 20.7926 38.1242 20.5568 38.2264 20.2585C38.3315 19.9602 38.3841 19.6207 38.3841 19.2401C38.3841 18.8594 38.3315 18.5199 38.2264 18.2216C38.1242 17.9233 37.9722 17.6875 37.7705 17.5142C37.5688 17.3409 37.3173 17.2543 37.0162 17.2543C36.7122 17.2543 36.4565 17.3409 36.2492 17.5142C36.0446 17.6875 35.8898 17.9233 35.7847 18.2216C35.6824 18.5199 35.6313 18.8594 35.6313 19.2401C35.6313 19.6207 35.6824 19.9602 35.7847 20.2585C35.8898 20.5568 36.0446 20.7926 36.2492 20.9659C36.4565 21.1364 36.7122 21.2216 37.0162 21.2216ZM42.985 18.7159V22.5H41.1697V15.9545H42.8998V17.1094H42.9765C43.1214 16.7287 43.3643 16.4276 43.7052 16.206C44.0461 15.9815 44.4594 15.8693 44.9452 15.8693C45.3998 15.8693 45.7961 15.9688 46.1342 16.1676C46.4722 16.3665 46.735 16.6506 46.9225 17.0199C47.11 17.3864 47.2038 17.8239 47.2038 18.3324V22.5H45.3884V18.6562C45.3913 18.2557 45.289 17.9432 45.0816 17.7188C44.8742 17.4915 44.5887 17.3778 44.2251 17.3778C43.9807 17.3778 43.7648 17.4304 43.5773 17.5355C43.3927 17.6406 43.2478 17.794 43.1427 17.9957C43.0404 18.1946 42.9878 18.4347 42.985 18.7159ZM50.2099 18.7159V22.5H48.3945V15.9545H50.1246V17.1094H50.2013C50.3462 16.7287 50.5891 16.4276 50.93 16.206C51.2709 15.9815 51.6843 15.8693 52.1701 15.8693C52.6246 15.8693 53.0209 15.9688 53.359 16.1676C53.6971 16.3665 53.9599 16.6506 54.1474 17.0199C54.3349 17.3864 54.4286 17.8239 54.4286 18.3324V22.5H52.6133V18.6562C52.6161 18.2557 52.5138 17.9432 52.3064 17.7188C52.0991 17.4915 51.8135 17.3778 51.4499 17.3778C51.2056 17.3778 50.9897 17.4304 50.8022 17.5355C50.6175 17.6406 50.4726 17.794 50.3675 17.9957C50.2653 18.1946 50.2127 18.4347 50.2099 18.7159ZM58.6023 22.6278C57.929 22.6278 57.3495 22.4915 56.8637 22.2188C56.3807 21.9432 56.0086 21.554 55.7472 21.0511C55.4858 20.5455 55.3552 19.9474 55.3552 19.2571C55.3552 18.5838 55.4858 17.9929 55.7472 17.4844C56.0086 16.9759 56.3765 16.5795 56.8509 16.2955C57.3282 16.0114 57.8878 15.8693 58.5299 15.8693C58.9617 15.8693 59.3637 15.9389 59.7358 16.0781C60.1108 16.2145 60.4375 16.4205 60.7159 16.696C60.9972 16.9716 61.2159 17.3182 61.3722 17.7358C61.5284 18.1506 61.6066 18.6364 61.6066 19.1932V19.6918H56.0796V18.5668H59.8978C59.8978 18.3054 59.8409 18.0739 59.7273 17.8722C59.6137 17.6705 59.456 17.5128 59.2543 17.3991C59.0554 17.2827 58.8239 17.2244 58.5597 17.2244C58.2841 17.2244 58.0398 17.2884 57.8267 17.4162C57.6165 17.5412 57.4517 17.7102 57.3324 17.9233C57.2131 18.1335 57.152 18.3679 57.1492 18.6264V19.696C57.1492 20.0199 57.2088 20.2997 57.3282 20.5355C57.4503 20.7713 57.6222 20.9531 57.8438 21.081C58.0654 21.2088 58.3282 21.2727 58.6321 21.2727C58.8338 21.2727 59.0185 21.2443 59.1861 21.1875C59.3537 21.1307 59.4972 21.0455 59.6165 20.9318C59.7358 20.8182 59.8267 20.679 59.8892 20.5142L61.5682 20.625C61.483 21.0284 61.3083 21.3807 61.0441 21.6818C60.7827 21.9801 60.4446 22.2131 60.0299 22.3807C59.6179 22.5455 59.1421 22.6278 58.6023 22.6278ZM65.5086 22.6278C64.8382 22.6278 64.2615 22.4858 63.7785 22.2017C63.2984 21.9148 62.9291 21.517 62.6705 21.0085C62.4149 20.5 62.287 19.9148 62.287 19.2528C62.287 18.5824 62.4163 17.9943 62.6748 17.4886C62.9362 16.9801 63.3069 16.5838 63.787 16.2997C64.2671 16.0128 64.8382 15.8693 65.5001 15.8693C66.0711 15.8693 66.5711 15.973 67.0001 16.1804C67.4291 16.3878 67.7686 16.679 68.0186 17.054C68.2686 17.429 68.4063 17.8693 68.4319 18.375H66.7188C66.6705 18.0483 66.5427 17.7855 66.3353 17.5866C66.1308 17.3849 65.8623 17.2841 65.5299 17.2841C65.2487 17.2841 65.0029 17.3608 64.7927 17.5142C64.5853 17.6648 64.4234 17.8849 64.3069 18.1747C64.1904 18.4645 64.1322 18.8153 64.1322 19.2273C64.1322 19.6449 64.189 20 64.3026 20.2926C64.4191 20.5852 64.5825 20.8082 64.7927 20.9616C65.0029 21.1151 65.2487 21.1918 65.5299 21.1918C65.7373 21.1918 65.9234 21.1491 66.0882 21.0639C66.2558 20.9787 66.3936 20.8551 66.5015 20.6932C66.6123 20.5284 66.6848 20.331 66.7188 20.1009H68.4319C68.4035 20.6009 68.2671 21.0412 68.0228 21.4219C67.7813 21.7997 67.4475 22.0952 67.0214 22.3082C66.5953 22.5213 66.091 22.6278 65.5086 22.6278ZM72.8357 15.9545V17.3182H68.894V15.9545H72.8357ZM69.7889 14.3864H71.6042V20.4886C71.6042 20.6562 71.6298 20.7869 71.6809 20.8807C71.732 20.9716 71.8031 21.0355 71.894 21.0724C71.9877 21.1094 72.0957 21.1278 72.2178 21.1278C72.3031 21.1278 72.3883 21.1207 72.4735 21.1065C72.5587 21.0895 72.6241 21.0767 72.6695 21.0682L72.9551 22.419C72.8641 22.4474 72.7363 22.4801 72.5715 22.517C72.4068 22.5568 72.2065 22.581 71.9707 22.5895C71.5332 22.6065 71.1497 22.5483 70.8201 22.4148C70.4934 22.2812 70.2391 22.0739 70.0573 21.7926C69.8755 21.5114 69.786 21.1562 69.7889 20.7273V14.3864ZM78.3142 22.5L75.817 13.7727H77.8327L79.2773 19.8366H79.3497L80.9434 13.7727H82.6693L84.2588 19.8494H84.3355L85.7801 13.7727H87.7957L85.2986 22.5H83.5003L81.8383 16.794H81.7702L80.1125 22.5H78.3142ZM89.6726 22.6236C89.2549 22.6236 88.8828 22.5511 88.5561 22.4062C88.2294 22.2585 87.9708 22.0412 87.7805 21.7543C87.593 21.4645 87.4993 21.1037 87.4993 20.6719C87.4993 20.3082 87.566 20.0028 87.6995 19.7557C87.8331 19.5085 88.0149 19.3097 88.245 19.1591C88.4751 19.0085 88.7365 18.8949 89.0291 18.8182C89.3245 18.7415 89.6342 18.6875 89.9581 18.6562C90.3387 18.6165 90.6456 18.5795 90.8785 18.5455C91.1115 18.5085 91.2805 18.4545 91.3856 18.3835C91.4907 18.3125 91.5433 18.2074 91.5433 18.0682V18.0426C91.5433 17.7727 91.4581 17.5639 91.2876 17.4162C91.12 17.2685 90.8814 17.1946 90.5717 17.1946C90.245 17.1946 89.9851 17.267 89.7919 17.4119C89.5987 17.554 89.4708 17.733 89.4083 17.9489L87.7294 17.8125C87.8146 17.4148 87.9822 17.071 88.2322 16.7812C88.4822 16.4886 88.8047 16.2642 89.1995 16.108C89.5973 15.9489 90.0575 15.8693 90.5802 15.8693C90.9439 15.8693 91.2919 15.9119 91.6243 15.9972C91.9595 16.0824 92.2564 16.2145 92.5149 16.3935C92.7762 16.5724 92.9822 16.8026 93.1328 17.0838C93.2833 17.3622 93.3586 17.696 93.3586 18.0852V22.5H91.637V21.5923H91.5859C91.4808 21.7969 91.3402 21.9773 91.164 22.1335C90.9879 22.2869 90.7762 22.4077 90.5291 22.4957C90.2819 22.581 89.9964 22.6236 89.6726 22.6236ZM90.1924 21.3707C90.4595 21.3707 90.6953 21.3182 90.8998 21.2131C91.1044 21.1051 91.2649 20.9602 91.3814 20.7784C91.4978 20.5966 91.5561 20.3906 91.5561 20.1605V19.4659C91.4993 19.5028 91.4211 19.5369 91.3217 19.5682C91.2251 19.5966 91.1157 19.6236 90.9936 19.6491C90.8714 19.6719 90.7493 19.6932 90.6271 19.7131C90.5049 19.7301 90.3941 19.7457 90.2947 19.7599C90.0816 19.7912 89.8956 19.8409 89.7365 19.9091C89.5774 19.9773 89.4538 20.0696 89.3657 20.1861C89.2777 20.2997 89.2336 20.4418 89.2336 20.6122C89.2336 20.8594 89.3231 21.0483 89.5021 21.179C89.6839 21.3068 89.914 21.3707 90.1924 21.3707ZM96.3424 13.7727V22.5H94.527V13.7727H96.3424ZM99.3719 13.7727V22.5H97.5565V13.7727H99.3719ZM103.569 22.6278C102.896 22.6278 102.316 22.4915 101.83 22.2188C101.347 21.9432 100.975 21.554 100.714 21.0511C100.453 20.5455 100.322 19.9474 100.322 19.2571C100.322 18.5838 100.453 17.9929 100.714 17.4844C100.975 16.9759 101.343 16.5795 101.818 16.2955C102.295 16.0114 102.855 15.8693 103.497 15.8693C103.928 15.8693 104.33 15.9389 104.703 16.0781C105.078 16.2145 105.404 16.4205 105.683 16.696C105.964 16.9716 106.183 17.3182 106.339 17.7358C106.495 18.1506 106.573 18.6364 106.573 19.1932V19.6918H101.046V18.5668H104.864C104.864 18.3054 104.808 18.0739 104.694 17.8722C104.58 17.6705 104.423 17.5128 104.221 17.3991C104.022 17.2827 103.791 17.2244 103.526 17.2244C103.251 17.2244 103.007 17.2884 102.793 17.4162C102.583 17.5412 102.418 17.7102 102.299 17.9233C102.18 18.1335 102.119 18.3679 102.116 18.6264V19.696C102.116 20.0199 102.176 20.2997 102.295 20.5355C102.417 20.7713 102.589 20.9531 102.811 21.081C103.032 21.2088 103.295 21.2727 103.599 21.2727C103.801 21.2727 103.985 21.2443 104.153 21.1875C104.32 21.1307 104.464 21.0455 104.583 20.9318C104.703 20.8182 104.793 20.679 104.856 20.5142L106.535 20.625C106.45 21.0284 106.275 21.3807 106.011 21.6818C105.749 21.9801 105.411 22.2131 104.997 22.3807C104.585 22.5455 104.109 22.6278 103.569 22.6278ZM110.999 15.9545V17.3182H107.058V15.9545H110.999ZM107.953 14.3864H109.768V20.4886C109.768 20.6562 109.794 20.7869 109.845 20.8807C109.896 20.9716 109.967 21.0355 110.058 21.0724C110.151 21.1094 110.259 21.1278 110.382 21.1278C110.467 21.1278 110.552 21.1207 110.637 21.1065C110.722 21.0895 110.788 21.0767 110.833 21.0682L111.119 22.419C111.028 22.4474 110.9 22.4801 110.735 22.517C110.571 22.5568 110.37 22.581 110.134 22.5895C109.697 22.6065 109.313 22.5483 108.984 22.4148C108.657 22.2812 108.403 22.0739 108.221 21.7926C108.039 21.5114 107.95 21.1562 107.953 20.7273V14.3864Z" fill="#242424"/>
</svg>
