<svg width="160" height="24" viewBox="0 0 160 24" fill="none" xmlns="http://www.w3.org/2000/svg">
<path d="M9.00002 4.7998C7.2496 4.7998 5.57086 5.49516 4.33312 6.7329C3.09538 7.97064 2.40002 9.64938 2.40002 11.3998C2.40002 13.1502 3.09538 14.829 4.33312 16.0667C5.57086 17.3044 7.2496 17.9998 9.00002 17.9998H15C16.7505 17.9998 18.4292 17.3044 19.6669 16.0667C20.9047 14.829 21.6 13.1502 21.6 11.3998C21.6 9.64938 20.9047 7.97064 19.6669 6.7329C18.4292 5.49516 16.7505 4.7998 15 4.7998H9.00002ZM7.20002 8.9998C7.20002 8.84067 7.26324 8.68806 7.37576 8.57554C7.48828 8.46302 7.64089 8.3998 7.80002 8.3998C7.95915 8.3998 8.11177 8.46302 8.22429 8.57554C8.33681 8.68806 8.40002 8.84067 8.40002 8.9998V10.7998H10.2C10.3592 10.7998 10.5118 10.863 10.6243 10.9755C10.7368 11.0881 10.8 11.2407 10.8 11.3998C10.8 11.5589 10.7368 11.7115 10.6243 11.8241C10.5118 11.9366 10.3592 11.9998 10.2 11.9998H8.40002V13.7998C8.40002 13.9589 8.33681 14.1115 8.22429 14.2241C8.11177 14.3366 7.95915 14.3998 7.80002 14.3998C7.64089 14.3998 7.48828 14.3366 7.37576 14.2241C7.26324 14.1115 7.20002 13.9589 7.20002 13.7998V11.9998H5.40002C5.24089 11.9998 5.08828 11.9366 4.97576 11.8241C4.86324 11.7115 4.80002 11.5589 4.80002 11.3998C4.80002 11.2407 4.86324 11.0881 4.97576 10.9755C5.08828 10.863 5.24089 10.7998 5.40002 10.7998H7.20002V8.9998ZM18 9.5998C18 9.91806 17.8736 10.2233 17.6486 10.4483C17.4235 10.6734 17.1183 10.7998 16.8 10.7998C16.4818 10.7998 16.1765 10.6734 15.9515 10.4483C15.7265 10.2233 15.6 9.91806 15.6 9.5998C15.6 9.28154 15.7265 8.97632 15.9515 8.75128C16.1765 8.52623 16.4818 8.3998 16.8 8.3998C17.1183 8.3998 17.4235 8.52623 17.6486 8.75128C17.8736 8.97632 18 9.28154 18 9.5998ZM14.4 14.3998C14.0818 14.3998 13.7765 14.2734 13.5515 14.0483C13.3265 13.8233 13.2 13.5181 13.2 13.1998C13.2 12.8815 13.3265 12.5763 13.5515 12.3513C13.7765 12.1262 14.0818 11.9998 14.4 11.9998C14.7183 11.9998 15.0235 12.1262 15.2486 12.3513C15.4736 12.5763 15.6 12.8815 15.6 13.1998C15.6 13.5181 15.4736 13.8233 15.2486 14.0483C15.0235 14.2734 14.7183 14.3998 14.4 14.3998Z" fill="white"/>
<path d="M31.5888 19V5.90909H36.7536C37.7465 5.90909 38.5924 6.09872 39.2912 6.47798C39.9901 6.85298 40.5228 7.375 40.8892 8.04403C41.26 8.70881 41.4453 9.47585 41.4453 10.3452C41.4453 11.2145 41.2578 11.9815 40.8828 12.6463C40.5078 13.3111 39.9645 13.8288 39.2529 14.1996C38.5455 14.5703 37.6889 14.7557 36.6833 14.7557H33.3914V12.5376H36.2358C36.7685 12.5376 37.2074 12.446 37.5526 12.2628C37.902 12.0753 38.162 11.8175 38.3324 11.4893C38.5071 11.157 38.5945 10.7756 38.5945 10.3452C38.5945 9.91051 38.5071 9.53125 38.3324 9.20739C38.162 8.87926 37.902 8.62571 37.5526 8.44673C37.2032 8.26349 36.76 8.17188 36.223 8.17188H34.3566V19H31.5888ZM47.1098 19.1918C46.1169 19.1918 45.2583 18.9808 44.5338 18.5589C43.8137 18.1328 43.2576 17.5405 42.8655 16.782C42.4735 16.0192 42.2775 15.1349 42.2775 14.1293C42.2775 13.1151 42.4735 12.2287 42.8655 11.4702C43.2576 10.7074 43.8137 10.1151 44.5338 9.69318C45.2583 9.26705 46.1169 9.05398 47.1098 9.05398C48.1027 9.05398 48.9593 9.26705 49.6794 9.69318C50.4039 10.1151 50.9621 10.7074 51.3542 11.4702C51.7462 12.2287 51.9422 13.1151 51.9422 14.1293C51.9422 15.1349 51.7462 16.0192 51.3542 16.782C50.9621 17.5405 50.4039 18.1328 49.6794 18.5589C48.9593 18.9808 48.1027 19.1918 47.1098 19.1918ZM47.1226 17.0824C47.5743 17.0824 47.9515 16.9545 48.254 16.6989C48.5566 16.4389 48.7846 16.0852 48.938 15.6378C49.0956 15.1903 49.1745 14.6811 49.1745 14.1101C49.1745 13.5391 49.0956 13.0298 48.938 12.5824C48.7846 12.1349 48.5566 11.7812 48.254 11.5213C47.9515 11.2614 47.5743 11.1314 47.1226 11.1314C46.6667 11.1314 46.2831 11.2614 45.9721 11.5213C45.6652 11.7812 45.433 12.1349 45.2753 12.5824C45.1219 13.0298 45.0452 13.5391 45.0452 14.1101C45.0452 14.6811 45.1219 15.1903 45.2753 15.6378C45.433 16.0852 45.6652 16.4389 45.9721 16.6989C46.2831 16.9545 46.6667 17.0824 47.1226 17.0824ZM53.3528 22.6818V9.18182H56.0375V10.831H56.1589C56.2783 10.5668 56.4508 10.2983 56.6767 10.0256C56.9068 9.74858 57.2051 9.51847 57.5716 9.33523C57.9423 9.14773 58.4025 9.05398 58.9523 9.05398C59.6682 9.05398 60.3287 9.24148 60.9338 9.61648C61.5389 9.98722 62.0226 10.5476 62.3848 11.2976C62.747 12.0433 62.9281 12.9787 62.9281 14.1037C62.9281 15.1989 62.7513 16.1236 62.3976 16.8778C62.0481 17.6278 61.5709 18.1967 60.9658 18.5845C60.3649 18.968 59.6916 19.1598 58.9459 19.1598C58.4175 19.1598 57.9679 19.0724 57.5971 18.8977C57.2307 18.723 56.9302 18.5036 56.6959 18.2393C56.4615 17.9709 56.2825 17.7003 56.1589 17.4276H56.0758V22.6818H53.3528ZM56.0183 14.0909C56.0183 14.6747 56.0993 15.1839 56.2612 15.6186C56.4231 16.0533 56.6575 16.392 56.9643 16.6349C57.2711 16.8736 57.644 16.9929 58.0829 16.9929C58.5261 16.9929 58.9011 16.8714 59.2079 16.6286C59.5148 16.3814 59.747 16.0405 59.9047 15.6058C60.0666 15.1669 60.1476 14.6619 60.1476 14.0909C60.1476 13.5241 60.0687 13.0256 59.9111 12.5952C59.7534 12.1648 59.5211 11.8281 59.2143 11.5852C58.9075 11.3423 58.5304 11.2209 58.0829 11.2209C57.6398 11.2209 57.2648 11.3381 56.9579 11.5724C56.6554 11.8068 56.4231 12.1392 56.2612 12.5696C56.0993 13 56.0183 13.5071 56.0183 14.0909ZM70.6796 14.8196V9.18182H73.4026V19H70.7883V17.2166H70.686C70.4644 17.7919 70.0958 18.2543 69.5802 18.6037C69.0688 18.9531 68.4445 19.1278 67.7073 19.1278C67.0511 19.1278 66.4736 18.9787 65.9751 18.6804C65.4765 18.3821 65.0866 17.9581 64.8053 17.4084C64.5283 16.8587 64.3877 16.2003 64.3834 15.4332V9.18182H67.1065V14.9474C67.1107 15.527 67.2663 15.9851 67.5731 16.3217C67.8799 16.6584 68.2911 16.8267 68.8067 16.8267C69.1349 16.8267 69.4417 16.7521 69.7272 16.603C70.0127 16.4496 70.2428 16.2237 70.4175 15.9254C70.5965 15.6271 70.6839 15.2585 70.6796 14.8196ZM77.9437 5.90909V19H75.2207V5.90909H77.9437ZM82.5647 19.1854C81.9383 19.1854 81.3801 19.0767 80.89 18.8594C80.4 18.6378 80.0122 18.3118 79.7267 17.8814C79.4454 17.4467 79.3048 16.9055 79.3048 16.2578C79.3048 15.7124 79.4049 15.2543 79.6052 14.8835C79.8055 14.5128 80.0782 14.2145 80.4234 13.9886C80.7686 13.7628 81.1606 13.5923 81.5995 13.4773C82.0427 13.3622 82.5072 13.2812 82.993 13.2344C83.564 13.1747 84.0242 13.1193 84.3737 13.0682C84.7231 13.0128 84.9767 12.9318 85.1343 12.8253C85.292 12.7187 85.3708 12.5611 85.3708 12.3523V12.3139C85.3708 11.9091 85.243 11.5959 84.9873 11.3743C84.7359 11.1527 84.3779 11.0419 83.9134 11.0419C83.4234 11.0419 83.0335 11.1506 82.7437 11.3679C82.4539 11.581 82.2622 11.8494 82.1684 12.1733L79.65 11.9688C79.7778 11.3722 80.0292 10.8565 80.4042 10.4219C80.7792 9.98295 81.2629 9.64631 81.8552 9.41193C82.4518 9.1733 83.1421 9.05398 83.9262 9.05398C84.4717 9.05398 84.9937 9.1179 85.4923 9.24574C85.9951 9.37358 86.4404 9.57173 86.8282 9.8402C87.2203 10.1087 87.5292 10.4538 87.7551 10.8757C87.9809 11.2933 88.0938 11.794 88.0938 12.3778V19H85.5115V17.6385H85.4348C85.2771 17.9453 85.0661 18.2159 84.8019 18.4503C84.5377 18.6804 84.2203 18.8615 83.8495 18.9936C83.4788 19.1214 83.0505 19.1854 82.5647 19.1854ZM83.3446 17.3061C83.7451 17.3061 84.0988 17.2273 84.4056 17.0696C84.7125 16.9077 84.9532 16.6903 85.1279 16.4176C85.3027 16.1449 85.39 15.8359 85.39 15.4908V14.4489C85.3048 14.5043 85.1876 14.5554 85.0384 14.6023C84.8936 14.6449 84.7295 14.6854 84.5463 14.7237C84.363 14.7578 84.1798 14.7898 83.9965 14.8196C83.8133 14.8452 83.6471 14.8686 83.498 14.8899C83.1784 14.9368 82.8992 15.0114 82.6606 15.1136C82.422 15.2159 82.2366 15.3544 82.1045 15.5291C81.9724 15.6996 81.9063 15.9126 81.9063 16.1683C81.9063 16.5391 82.0406 16.8224 82.309 17.0185C82.5818 17.2102 82.9269 17.3061 83.3446 17.3061ZM89.8464 19V9.18182H92.4863V10.8949H92.5886C92.7676 10.2855 93.068 9.82528 93.4899 9.5142C93.9118 9.19886 94.3976 9.04119 94.9473 9.04119C95.0836 9.04119 95.2307 9.04972 95.3883 9.06676C95.546 9.08381 95.6845 9.10724 95.8038 9.13707V11.5533C95.676 11.5149 95.4991 11.4808 95.2733 11.451C95.0474 11.4212 94.8407 11.4062 94.6532 11.4062C94.2527 11.4062 93.8947 11.4936 93.5794 11.6683C93.2683 11.8388 93.0211 12.0774 92.8379 12.3842C92.6589 12.6911 92.5694 13.0447 92.5694 13.4453V19H89.8464ZM109.389 10.1406C109.3 9.82955 109.174 9.55469 109.012 9.31605C108.85 9.07315 108.652 8.86861 108.418 8.70241C108.187 8.53196 107.923 8.40199 107.625 8.3125C107.331 8.22301 107.005 8.17827 106.647 8.17827C105.978 8.17827 105.39 8.34446 104.883 8.67685C104.38 9.00923 103.988 9.4929 103.707 10.1278C103.425 10.7585 103.285 11.5298 103.285 12.4418C103.285 13.3537 103.423 14.1293 103.7 14.7685C103.977 15.4077 104.369 15.8956 104.876 16.2322C105.384 16.5646 105.982 16.7308 106.673 16.7308C107.299 16.7308 107.834 16.62 108.277 16.3984C108.724 16.1726 109.065 15.8551 109.3 15.446C109.538 15.0369 109.658 14.5533 109.658 13.995L110.22 14.0781H106.845V11.9943H112.323V13.6435C112.323 14.794 112.08 15.7827 111.594 16.6094C111.109 17.4318 110.44 18.0668 109.587 18.5142C108.735 18.9574 107.759 19.179 106.66 19.179C105.433 19.179 104.354 18.9084 103.425 18.3672C102.496 17.8217 101.772 17.0483 101.252 16.0469C100.737 15.0412 100.479 13.848 100.479 12.4673C100.479 11.4062 100.632 10.4602 100.939 9.62926C101.25 8.79403 101.685 8.08665 102.243 7.5071C102.801 6.92756 103.451 6.48651 104.192 6.18395C104.934 5.88139 105.737 5.73011 106.602 5.73011C107.344 5.73011 108.034 5.83878 108.673 6.05611C109.312 6.26918 109.879 6.57173 110.374 6.96378C110.872 7.35582 111.279 7.82244 111.594 8.36364C111.91 8.90057 112.112 9.4929 112.202 10.1406H109.389ZM116.791 19.1854C116.164 19.1854 115.606 19.0767 115.116 18.8594C114.626 18.6378 114.238 18.3118 113.953 17.8814C113.671 17.4467 113.531 16.9055 113.531 16.2578C113.531 15.7124 113.631 15.2543 113.831 14.8835C114.032 14.5128 114.304 14.2145 114.649 13.9886C114.995 13.7628 115.387 13.5923 115.826 13.4773C116.269 13.3622 116.733 13.2812 117.219 13.2344C117.79 13.1747 118.25 13.1193 118.6 13.0682C118.949 13.0128 119.203 12.9318 119.36 12.8253C119.518 12.7187 119.597 12.5611 119.597 12.3523V12.3139C119.597 11.9091 119.469 11.5959 119.213 11.3743C118.962 11.1527 118.604 11.0419 118.139 11.0419C117.649 11.0419 117.259 11.1506 116.97 11.3679C116.68 11.581 116.488 11.8494 116.394 12.1733L113.876 11.9688C114.004 11.3722 114.255 10.8565 114.63 10.4219C115.005 9.98295 115.489 9.64631 116.081 9.41193C116.678 9.1733 117.368 9.05398 118.152 9.05398C118.698 9.05398 119.22 9.1179 119.718 9.24574C120.221 9.37358 120.666 9.57173 121.054 9.8402C121.446 10.1087 121.755 10.4538 121.981 10.8757C122.207 11.2933 122.32 11.794 122.32 12.3778V19H119.737V17.6385H119.661C119.503 17.9453 119.292 18.2159 119.028 18.4503C118.764 18.6804 118.446 18.8615 118.076 18.9936C117.705 19.1214 117.277 19.1854 116.791 19.1854ZM117.571 17.3061C117.971 17.3061 118.325 17.2273 118.632 17.0696C118.938 16.9077 119.179 16.6903 119.354 16.4176C119.529 16.1449 119.616 15.8359 119.616 15.4908V14.4489C119.531 14.5043 119.414 14.5554 119.264 14.6023C119.12 14.6449 118.956 14.6854 118.772 14.7237C118.589 14.7578 118.406 14.7898 118.223 14.8196C118.039 14.8452 117.873 14.8686 117.724 14.8899C117.404 14.9368 117.125 15.0114 116.887 15.1136C116.648 15.2159 116.463 15.3544 116.331 15.5291C116.198 15.6996 116.132 15.9126 116.132 16.1683C116.132 16.5391 116.267 16.8224 116.535 17.0185C116.808 17.2102 117.153 17.3061 117.571 17.3061ZM124.072 19V9.18182H126.668V10.9141H126.783C126.987 10.3388 127.328 9.88494 127.805 9.55256C128.283 9.22017 128.854 9.05398 129.518 9.05398C130.192 9.05398 130.765 9.2223 131.238 9.55895C131.711 9.89133 132.026 10.343 132.184 10.9141H132.286C132.486 10.3516 132.849 9.90199 133.373 9.56534C133.901 9.22443 134.526 9.05398 135.246 9.05398C136.162 9.05398 136.906 9.34588 137.477 9.92969C138.052 10.5092 138.339 11.3317 138.339 12.397V19H135.623V12.9339C135.623 12.3885 135.478 11.9794 135.188 11.7067C134.898 11.4339 134.536 11.2976 134.102 11.2976C133.607 11.2976 133.222 11.4553 132.945 11.7706C132.668 12.0817 132.529 12.4929 132.529 13.0043V19H129.889V12.8764C129.889 12.3949 129.751 12.0114 129.474 11.7259C129.201 11.4403 128.841 11.2976 128.393 11.2976C128.091 11.2976 127.818 11.3743 127.575 11.5277C127.337 11.6768 127.147 11.8878 127.006 12.1605C126.866 12.429 126.795 12.7443 126.795 13.1065V19H124.072ZM144.605 19.1918C143.595 19.1918 142.726 18.9872 141.997 18.5781C141.272 18.1648 140.714 17.581 140.322 16.8267C139.93 16.0682 139.734 15.1712 139.734 14.1357C139.734 13.1257 139.93 12.2393 140.322 11.4766C140.714 10.7138 141.266 10.1193 141.978 9.69318C142.694 9.26705 143.533 9.05398 144.496 9.05398C145.144 9.05398 145.747 9.15838 146.305 9.36719C146.868 9.57173 147.358 9.88068 147.775 10.294C148.197 10.7074 148.525 11.2273 148.76 11.8537C148.994 12.4759 149.111 13.2045 149.111 14.0398V14.7876H140.821V13.1001H146.548C146.548 12.7081 146.463 12.3608 146.292 12.0582C146.122 11.7557 145.885 11.5192 145.583 11.3487C145.285 11.174 144.937 11.0866 144.541 11.0866C144.128 11.0866 143.761 11.1825 143.441 11.3743C143.126 11.5618 142.879 11.8153 142.7 12.1349C142.521 12.4503 142.429 12.8018 142.425 13.1896V14.794C142.425 15.2798 142.515 15.6996 142.694 16.0533C142.877 16.407 143.135 16.6797 143.467 16.8714C143.799 17.0632 144.194 17.1591 144.65 17.1591C144.952 17.1591 145.229 17.1165 145.481 17.0312C145.732 16.946 145.947 16.8182 146.126 16.6477C146.305 16.4773 146.441 16.2685 146.535 16.0213L149.054 16.1875C148.926 16.7926 148.664 17.321 148.267 17.7727C147.875 18.2202 147.368 18.5696 146.746 18.821C146.128 19.0682 145.414 19.1918 144.605 19.1918ZM158.697 11.9815L156.204 12.1349C156.162 11.9219 156.07 11.7301 155.929 11.5597C155.789 11.3849 155.603 11.2464 155.373 11.1442C155.148 11.0376 154.877 10.9844 154.562 10.9844C154.14 10.9844 153.784 11.0739 153.494 11.2528C153.204 11.4276 153.059 11.6619 153.059 11.956C153.059 12.1903 153.153 12.3885 153.341 12.5504C153.528 12.7124 153.85 12.8423 154.306 12.9403L156.083 13.2983C157.037 13.4943 157.749 13.8097 158.218 14.2443C158.687 14.679 158.921 15.25 158.921 15.9574C158.921 16.6009 158.731 17.1655 158.352 17.6513C157.977 18.1371 157.461 18.5163 156.805 18.7891C156.153 19.0575 155.401 19.1918 154.549 19.1918C153.249 19.1918 152.214 18.9212 151.442 18.38C150.675 17.8345 150.226 17.093 150.094 16.1555L152.772 16.0149C152.853 16.4112 153.049 16.7138 153.36 16.9226C153.671 17.1271 154.069 17.2294 154.555 17.2294C155.032 17.2294 155.416 17.1378 155.706 16.9545C156 16.767 156.149 16.5263 156.153 16.2322C156.149 15.9851 156.045 15.7827 155.84 15.625C155.635 15.4631 155.32 15.3395 154.894 15.2543L153.194 14.9155C152.235 14.7237 151.521 14.3913 151.052 13.9183C150.588 13.4453 150.356 12.8423 150.356 12.1094C150.356 11.4787 150.526 10.9354 150.867 10.4794C151.212 10.0234 151.696 9.67188 152.318 9.42472C152.944 9.17756 153.677 9.05398 154.517 9.05398C155.757 9.05398 156.733 9.31605 157.444 9.8402C158.16 10.3643 158.578 11.0781 158.697 11.9815Z" fill="white"/>
</svg>
