<svg width="175" height="200" viewBox="0 0 175 200" fill="none" xmlns="http://www.w3.org/2000/svg">
<rect width="175" height="200" rx="24" fill="#0B0B0D"/>
<mask id="mask0_87_333" style="mask-type:alpha" maskUnits="userSpaceOnUse" x="0" y="0" width="175" height="200">
<rect width="175" height="200" rx="24" fill="#0B0B0D"/>
</mask>
<g mask="url(#mask0_87_333)">
<path d="M0 24C0 10.7452 10.7452 0 24 0H151C164.255 0 175 10.7452 175 24V176C175 189.255 164.255 200 151 200H24C10.7452 200 0 189.255 0 176V24Z" fill="url(#paint0_linear_87_333)"/>
<path d="M188 154.5C188 212.766 140.766 260 82.5 260C24.234 260 -23 212.766 -23 154.5C-23 96.234 24.234 49 82.5 49C140.766 49 188 96.234 188 154.5ZM-6.16976 154.5C-6.16976 203.471 33.529 243.17 82.5 243.17C131.471 243.17 171.17 203.471 171.17 154.5C171.17 105.529 131.471 65.8302 82.5 65.8302C33.529 65.8302 -6.16976 105.529 -6.16976 154.5Z" fill="white" fill-opacity="0.1"/>
<circle cx="82.5" cy="154.5" r="105.5" fill="url(#paint1_linear_87_333)" fill-opacity="0.3"/>
<g opacity="0.5">
<circle cx="86" cy="134" r="121" fill="url(#paint2_linear_87_333)" fill-opacity="0.05"/>
<circle cx="86" cy="134" r="120.5" stroke="url(#paint3_linear_87_333)" stroke-opacity="0.3"/>
</g>
<path d="M21.589 78.9003C18.6731 75.2812 19.2263 69.9523 23.0661 67.334C42.2059 54.2829 65.1878 47.849 88.4721 49.1692C111.756 50.4894 133.864 59.4798 151.406 74.6107C154.925 77.6463 154.872 83.0036 151.566 86.2698V86.2698C148.26 89.536 142.955 89.4683 139.39 86.4864C124.815 74.2942 106.639 67.0565 87.5194 65.9724C68.3995 64.8883 49.5222 70.0252 33.6621 80.4917C29.7831 83.0516 24.5048 82.5193 21.589 78.9003V78.9003Z" fill="url(#paint4_linear_87_333)"/>
<path d="M49.3428 165.455H52.8513V174.837C52.8513 175.921 52.5932 176.866 52.0771 177.67C51.561 178.471 50.8413 179.091 49.918 179.531C48.9947 179.967 47.9223 180.185 46.7007 180.185C45.4649 180.185 44.3854 179.967 43.4621 179.531C42.5388 179.091 41.8214 178.471 41.3101 177.67C40.7987 176.866 40.543 175.921 40.543 174.837V165.455H44.0587V174.531C44.0587 175.033 44.1676 175.481 44.3854 175.874C44.6079 176.267 44.918 176.574 45.3158 176.797C45.7135 177.019 46.1751 177.131 46.7007 177.131C47.2263 177.131 47.6856 177.019 48.0786 176.797C48.4763 176.574 48.7864 176.267 49.009 175.874C49.2315 175.481 49.3428 175.033 49.3428 174.531V165.455ZM54.6548 180V165.455H60.6633C61.7523 165.455 62.6922 165.668 63.4829 166.094C64.2783 166.515 64.8915 167.105 65.3224 167.862C65.7532 168.615 65.9687 169.491 65.9687 170.49C65.9687 171.494 65.7485 172.372 65.3082 173.125C64.8726 173.873 64.2499 174.453 63.4403 174.865C62.6306 175.277 61.6694 175.483 60.5567 175.483H56.8494V172.713H59.9033C60.4336 172.713 60.8764 172.621 61.2315 172.436C61.5913 172.251 61.8636 171.993 62.0482 171.662C62.2329 171.326 62.3252 170.935 62.3252 170.49C62.3252 170.04 62.2329 169.652 62.0482 169.325C61.8636 168.994 61.5913 168.738 61.2315 168.558C60.8716 168.378 60.4289 168.288 59.9033 168.288H58.1704V180H54.6548ZM76.8471 170.206C76.7666 169.908 76.6482 169.645 76.492 169.418C76.3357 169.186 76.144 168.989 75.9167 168.828C75.6894 168.667 75.429 168.546 75.1354 168.466C74.8419 168.381 74.5199 168.338 74.1695 168.338C73.464 168.338 72.8532 168.509 72.3371 168.849C71.8258 169.19 71.4304 169.687 71.1511 170.341C70.8717 170.99 70.732 171.778 70.732 172.706C70.732 173.639 70.867 174.434 71.1369 175.092C71.4067 175.75 71.7974 176.252 72.3087 176.598C72.8201 176.944 73.4404 177.116 74.1695 177.116C74.8135 177.116 75.358 177.012 75.8031 176.804C76.2529 176.591 76.5938 176.29 76.8258 175.902C77.0578 175.514 77.1738 175.057 77.1738 174.531L77.8272 174.609H74.2903V172.045H80.5616V173.97C80.5616 175.272 80.2846 176.387 79.7306 177.315C79.1814 178.243 78.4238 178.956 77.4579 179.453C76.4967 179.95 75.3911 180.199 74.1411 180.199C72.7538 180.199 71.5346 179.898 70.4835 179.297C69.4323 178.696 68.6132 177.839 68.0261 176.726C67.4389 175.608 67.1454 174.283 67.1454 172.749C67.1454 171.555 67.3229 170.497 67.6781 169.574C68.0332 168.646 68.528 167.86 69.1624 167.216C69.8016 166.572 70.5403 166.084 71.3783 165.753C72.2211 165.421 73.1279 165.256 74.0985 165.256C74.9413 165.256 75.7249 165.376 76.4494 165.618C77.1785 165.859 77.8225 166.2 78.3812 166.641C78.9446 167.081 79.4015 167.604 79.7519 168.21C80.1023 168.816 80.3201 169.482 80.4053 170.206H76.8471ZM82.2337 180V165.455H88.2422C89.3312 165.455 90.2711 165.651 91.0618 166.044C91.8572 166.432 92.4704 166.991 92.9013 167.72C93.3321 168.445 93.5476 169.304 93.5476 170.298C93.5476 171.307 93.3274 172.164 92.8871 172.869C92.4467 173.57 91.8217 174.105 91.0121 174.474C90.2024 174.839 89.2436 175.021 88.1357 175.021H84.3359V172.251H87.4822C88.0125 172.251 88.4553 172.183 88.8104 172.045C89.1702 171.903 89.4425 171.69 89.6271 171.406C89.8118 171.117 89.9041 170.748 89.9041 170.298C89.9041 169.848 89.8118 169.477 89.6271 169.183C89.4425 168.885 89.1702 168.662 88.8104 168.516C88.4505 168.364 88.0078 168.288 87.4822 168.288H85.7493V180H82.2337ZM90.4226 173.352L94.0447 180H90.2095L86.6584 173.352H90.4226ZM98.2222 180H94.4438L99.3514 165.455H104.032L108.939 180H105.161L101.745 169.119H101.631L98.2222 180ZM97.7179 174.276H105.616V176.946H97.7179V174.276ZM115.482 180H110.106V165.455H115.475C116.957 165.455 118.233 165.746 119.303 166.328C120.378 166.906 121.206 167.739 121.789 168.828C122.371 169.912 122.662 171.21 122.662 172.72C122.662 174.235 122.371 175.537 121.789 176.626C121.211 177.715 120.385 178.551 119.31 179.134C118.235 179.711 116.959 180 115.482 180ZM113.621 177.003H115.347C116.161 177.003 116.85 176.866 117.414 176.591C117.982 176.312 118.41 175.859 118.699 175.234C118.993 174.605 119.14 173.767 119.14 172.72C119.14 171.674 118.993 170.84 118.699 170.22C118.406 169.595 117.972 169.145 117.4 168.871C116.831 168.591 116.131 168.452 115.297 168.452H113.621V177.003ZM124.315 180V165.455H134.457V168.31H127.831V171.293H133.938V174.155H127.831V177.145H134.457V180H124.315Z" fill="white"/>
</g>
<path fill-rule="evenodd" clip-rule="evenodd" d="M80.44 25.4399C80.7213 25.159 81.1025 25.0012 81.5 25.0012C81.8975 25.0012 82.2788 25.159 82.56 25.4399L88 30.8799L93.44 25.4399C93.5773 25.2925 93.7429 25.1743 93.9269 25.0923C94.1109 25.0103 94.3096 24.9662 94.511 24.9627C94.7124 24.9591 94.9124 24.9962 95.0992 25.0716C95.286 25.1471 95.4557 25.2593 95.5981 25.4018C95.7405 25.5442 95.8528 25.7139 95.9283 25.9007C96.0037 26.0874 96.0408 26.2875 96.0372 26.4889C96.0337 26.6903 95.9896 26.8889 95.9076 27.0729C95.8256 27.2569 95.7074 27.4225 95.56 27.5599L89.06 34.0599C88.7788 34.3408 88.3975 34.4985 88 34.4985C87.6025 34.4985 87.2213 34.3408 86.94 34.0599L80.44 27.5599C80.1591 27.2786 80.0013 26.8974 80.0013 26.4999C80.0013 26.1024 80.1591 25.7211 80.44 25.4399Z" fill="white"/>
<defs>
<linearGradient id="paint0_linear_87_333" x1="28" y1="5.5" x2="87.5" y2="200" gradientUnits="userSpaceOnUse">
<stop stop-color="#5FC2FF"/>
<stop offset="1" stop-color="#006AFF"/>
</linearGradient>
<linearGradient id="paint1_linear_87_333" x1="83" y1="103.5" x2="83" y2="207.5" gradientUnits="userSpaceOnUse">
<stop stop-color="white" stop-opacity="0.7"/>
<stop offset="1" stop-color="white" stop-opacity="0"/>
</linearGradient>
<linearGradient id="paint2_linear_87_333" x1="86.5735" y1="75.5071" x2="86.5735" y2="194.787" gradientUnits="userSpaceOnUse">
<stop stop-color="white" stop-opacity="0.7"/>
<stop offset="1" stop-color="white" stop-opacity="0"/>
</linearGradient>
<linearGradient id="paint3_linear_87_333" x1="86" y1="13" x2="86.5" y2="45.5" gradientUnits="userSpaceOnUse">
<stop stop-color="white"/>
<stop offset="1" stop-color="#999999" stop-opacity="0"/>
</linearGradient>
<linearGradient id="paint4_linear_87_333" x1="83" y1="40.5" x2="206" y2="182.5" gradientUnits="userSpaceOnUse">
<stop stop-color="white"/>
<stop offset="1" stop-color="#6EF8FF"/>
</linearGradient>
</defs>
</svg>
