<svg width="175" height="200" viewBox="0 0 175 200" fill="none" xmlns="http://www.w3.org/2000/svg">
<rect width="175" height="200" rx="24" fill="#0B0B0D"/>
<mask id="mask0_87_345" style="mask-type:alpha" maskUnits="userSpaceOnUse" x="0" y="0" width="175" height="200">
<rect width="175" height="200" rx="24" fill="#0B0B0D"/>
</mask>
<g mask="url(#mask0_87_345)">
<path d="M0 24C0 10.7452 10.7452 0 24 0H151C164.255 0 175 10.7452 175 24V176C175 189.255 164.255 200 151 200H24C10.7452 200 0 189.255 0 176V24Z" fill="url(#paint0_linear_87_345)"/>
<g style="mix-blend-mode:overlay">
<circle cx="16.2517" cy="6.25175" r="18.2517" fill="white" fill-opacity="0.15"/>
<circle cx="16.2517" cy="6.25175" r="17.6224" stroke="white" stroke-opacity="0.15" stroke-width="1.25874"/>
</g>
<g style="mix-blend-mode:overlay">
<circle cx="64.0839" cy="6.25175" r="18.2517" fill="white" fill-opacity="0.15"/>
<circle cx="64.0839" cy="6.25175" r="17.6224" stroke="white" stroke-opacity="0.15" stroke-width="1.25874"/>
</g>
<g style="mix-blend-mode:overlay">
<circle cx="111.916" cy="6.25175" r="18.2517" fill="white" fill-opacity="0.15"/>
<circle cx="111.916" cy="6.25175" r="17.6224" stroke="white" stroke-opacity="0.15" stroke-width="1.25874"/>
</g>
<g style="mix-blend-mode:overlay">
<circle cx="159.748" cy="6.25175" r="18.2517" fill="white" fill-opacity="0.15"/>
<circle cx="159.748" cy="6.25175" r="17.6224" stroke="white" stroke-opacity="0.15" stroke-width="1.25874"/>
</g>
<g style="mix-blend-mode:overlay">
<circle cx="16.2517" cy="52.825" r="18.2517" fill="white" fill-opacity="0.15"/>
<circle cx="16.2517" cy="52.825" r="17.6224" stroke="white" stroke-opacity="0.15" stroke-width="1.25874"/>
</g>
<g style="mix-blend-mode:overlay">
<circle cx="64.0839" cy="52.825" r="18.2517" fill="white" fill-opacity="0.15"/>
<circle cx="64.0839" cy="52.825" r="17.6224" stroke="white" stroke-opacity="0.15" stroke-width="1.25874"/>
</g>
<g style="mix-blend-mode:overlay">
<circle cx="111.916" cy="52.825" r="18.2517" fill="white" fill-opacity="0.15"/>
<circle cx="111.916" cy="52.825" r="17.6224" stroke="white" stroke-opacity="0.15" stroke-width="1.25874"/>
</g>
<g style="mix-blend-mode:overlay">
<circle cx="159.748" cy="52.825" r="18.2517" fill="white" fill-opacity="0.15"/>
<circle cx="159.748" cy="52.825" r="17.6224" stroke="white" stroke-opacity="0.15" stroke-width="1.25874"/>
</g>
<g style="mix-blend-mode:overlay">
<circle cx="16.2517" cy="99.3987" r="18.2517" fill="white" fill-opacity="0.15"/>
<circle cx="16.2517" cy="99.3987" r="17.6224" stroke="white" stroke-opacity="0.15" stroke-width="1.25874"/>
</g>
<g style="mix-blend-mode:overlay">
<circle cx="64.0839" cy="99.3987" r="18.2517" fill="white" fill-opacity="0.15"/>
<circle cx="64.0839" cy="99.3987" r="17.6224" stroke="white" stroke-opacity="0.15" stroke-width="1.25874"/>
</g>
<g style="mix-blend-mode:overlay">
<circle cx="111.916" cy="99.3987" r="18.2517" fill="white" fill-opacity="0.15"/>
<circle cx="111.916" cy="99.3987" r="17.6224" stroke="white" stroke-opacity="0.15" stroke-width="1.25874"/>
</g>
<g style="mix-blend-mode:overlay">
<circle cx="159.748" cy="99.3987" r="18.2517" fill="white" fill-opacity="0.15"/>
<circle cx="159.748" cy="99.3987" r="17.6224" stroke="white" stroke-opacity="0.15" stroke-width="1.25874"/>
</g>
<g style="mix-blend-mode:overlay">
<circle cx="16.2517" cy="145.972" r="18.2517" fill="white" fill-opacity="0.15"/>
<circle cx="16.2517" cy="145.972" r="17.6224" stroke="white" stroke-opacity="0.15" stroke-width="1.25874"/>
</g>
<g style="mix-blend-mode:overlay">
<circle cx="64.0839" cy="145.972" r="18.2517" fill="white" fill-opacity="0.15"/>
<circle cx="64.0839" cy="145.972" r="17.6224" stroke="white" stroke-opacity="0.15" stroke-width="1.25874"/>
</g>
<g style="mix-blend-mode:overlay">
<circle cx="111.916" cy="145.972" r="18.2517" fill="white" fill-opacity="0.15"/>
<circle cx="111.916" cy="145.972" r="17.6224" stroke="white" stroke-opacity="0.15" stroke-width="1.25874"/>
</g>
<g style="mix-blend-mode:overlay">
<circle cx="159.748" cy="145.972" r="18.2517" fill="white" fill-opacity="0.15"/>
<circle cx="159.748" cy="145.972" r="17.6224" stroke="white" stroke-opacity="0.15" stroke-width="1.25874"/>
</g>
<g style="mix-blend-mode:overlay">
<circle cx="16.2517" cy="192.546" r="18.2517" fill="white" fill-opacity="0.15"/>
<circle cx="16.2517" cy="192.546" r="17.6224" stroke="white" stroke-opacity="0.15" stroke-width="1.25874"/>
</g>
<g style="mix-blend-mode:overlay">
<circle cx="64.0839" cy="192.546" r="18.2517" fill="white" fill-opacity="0.15"/>
<circle cx="64.0839" cy="192.546" r="17.6224" stroke="white" stroke-opacity="0.15" stroke-width="1.25874"/>
</g>
<g style="mix-blend-mode:overlay">
<circle cx="111.916" cy="192.546" r="18.2517" fill="white" fill-opacity="0.15"/>
<circle cx="111.916" cy="192.546" r="17.6224" stroke="white" stroke-opacity="0.15" stroke-width="1.25874"/>
</g>
<g style="mix-blend-mode:overlay">
<circle cx="159.748" cy="192.546" r="18.2517" fill="white" fill-opacity="0.15"/>
<circle cx="159.748" cy="192.546" r="17.6224" stroke="white" stroke-opacity="0.15" stroke-width="1.25874"/>
</g>
</g>
<path d="M56.6219 170.724H53.0708C53.0235 170.36 52.9264 170.031 52.7796 169.737C52.6328 169.444 52.4387 169.193 52.1972 168.984C51.9558 168.776 51.6693 168.617 51.3379 168.509C51.0112 168.395 50.6489 168.338 50.2512 168.338C49.5457 168.338 48.9373 168.511 48.4259 168.857C47.9193 169.202 47.5287 169.702 47.254 170.355C46.9842 171.009 46.8492 171.799 46.8492 172.727C46.8492 173.693 46.9865 174.503 47.2612 175.156C47.5405 175.805 47.9311 176.295 48.433 176.626C48.9397 176.953 49.5386 177.116 50.2299 177.116C50.6182 177.116 50.9709 177.067 51.2881 176.967C51.6101 176.868 51.8918 176.723 52.1333 176.534C52.3795 176.34 52.5808 176.106 52.737 175.831C52.898 175.552 53.0093 175.237 53.0708 174.886L56.6219 174.908C56.5604 175.552 56.3734 176.186 56.0609 176.811C55.7531 177.436 55.3293 178.007 54.7896 178.523C54.2498 179.034 53.5916 179.441 52.8151 179.744C52.0433 180.047 51.1579 180.199 50.1589 180.199C48.8426 180.199 47.6636 179.91 46.6219 179.332C45.585 178.75 44.7659 177.902 44.1646 176.79C43.5632 175.677 43.2626 174.323 43.2626 172.727C43.2626 171.127 43.568 169.77 44.1788 168.658C44.7896 167.545 45.6158 166.7 46.6575 166.122C47.6991 165.545 48.8663 165.256 50.1589 165.256C51.0396 165.256 51.854 165.379 52.6021 165.625C53.3502 165.866 54.0083 166.222 54.5765 166.69C55.1447 167.154 55.6063 167.725 55.9614 168.402C56.3165 169.079 56.5367 169.853 56.6219 170.724ZM71.9624 172.727C71.9624 174.328 71.6546 175.684 71.0391 176.797C70.4235 177.91 69.5902 178.755 68.5391 179.332C67.4927 179.91 66.3184 180.199 65.0163 180.199C63.7095 180.199 62.5329 179.908 61.4865 179.325C60.4401 178.743 59.6091 177.898 58.9936 176.79C58.3828 175.677 58.0774 174.323 58.0774 172.727C58.0774 171.127 58.3828 169.77 58.9936 168.658C59.6091 167.545 60.4401 166.7 61.4865 166.122C62.5329 165.545 63.7095 165.256 65.0163 165.256C66.3184 165.256 67.4927 165.545 68.5391 166.122C69.5902 166.7 70.4235 167.545 71.0391 168.658C71.6546 169.77 71.9624 171.127 71.9624 172.727ZM68.3686 172.727C68.3686 171.78 68.2337 170.98 67.9638 170.327C67.6986 169.673 67.3151 169.179 66.8132 168.842C66.3161 168.506 65.7171 168.338 65.0163 168.338C64.3203 168.338 63.7214 168.506 63.2195 168.842C62.7176 169.179 62.3317 169.673 62.0618 170.327C61.7966 170.98 61.6641 171.78 61.6641 172.727C61.6641 173.674 61.7966 174.474 62.0618 175.128C62.3317 175.781 62.7176 176.276 63.2195 176.612C63.7214 176.948 64.3203 177.116 65.0163 177.116C65.7171 177.116 66.3161 176.948 66.8132 176.612C67.3151 176.276 67.6986 175.781 67.9638 175.128C68.2337 174.474 68.3686 173.674 68.3686 172.727ZM77.1305 165.455V180H73.6149V165.455H77.1305ZM91.3168 165.455V180H88.3339L82.5455 171.605H82.4532V180H78.9376V165.455H81.9631L87.6876 173.835H87.8083V165.455H91.3168ZM93.1274 180V165.455H103.056V168.31H96.643V171.293H102.424V174.155H96.643V180H93.1274ZM104.427 180V165.455H107.942V177.145H113.993V180H104.427ZM118.929 165.455V180H115.413V165.455H118.929ZM120.736 180V165.455H126.745C127.834 165.455 128.773 165.668 129.564 166.094C130.36 166.515 130.973 167.105 131.404 167.862C131.834 168.615 132.05 169.491 132.05 170.49C132.05 171.494 131.83 172.372 131.389 173.125C130.954 173.873 130.331 174.453 129.522 174.865C128.712 175.277 127.751 175.483 126.638 175.483H122.931V172.713H125.985C126.515 172.713 126.958 172.621 127.313 172.436C127.673 172.251 127.945 171.993 128.129 171.662C128.314 171.326 128.406 170.935 128.406 170.49C128.406 170.04 128.314 169.652 128.129 169.325C127.945 168.994 127.673 168.738 127.313 168.558C126.953 168.378 126.51 168.288 125.985 168.288H124.252V180H120.736Z" fill="white"/>
<defs>
<linearGradient id="paint0_linear_87_345" x1="28" y1="5.5" x2="87.5" y2="200" gradientUnits="userSpaceOnUse">
<stop stop-color="#FF5F95"/>
<stop offset="1" stop-color="#FF0062"/>
</linearGradient>
</defs>
</svg>
