<svg width="175" height="200" viewBox="0 0 175 200" fill="none" xmlns="http://www.w3.org/2000/svg">
<rect width="175" height="200" rx="24" fill="url(#paint0_linear_87_377)"/>
<mask id="mask0_87_377" style="mask-type:alpha" maskUnits="userSpaceOnUse" x="0" y="0" width="175" height="200">
<rect width="175" height="200" rx="24" fill="#0B0B0D"/>
</mask>
<g mask="url(#mask0_87_377)">
<rect width="175" height="200" rx="24" fill="url(#paint1_linear_87_377)"/>
<g style="mix-blend-mode:overlay" opacity="0.3">
<path d="M90.8339 52.5616C54.3277 75.3175 14.7794 70.9671 -0.431477 65.9474L-9.95918 106.663L-24 214.865L18.6239 221L182.099 199.806C184.439 120.234 186.512 -34.6694 176.082 -17.714C163.044 3.48021 136.467 24.1167 90.8339 52.5616Z" fill="url(#paint2_linear_87_377)"/>
<path d="M90.8339 52.5616C54.3277 75.3175 14.7794 70.9671 -0.431477 65.9474L-9.95918 106.663L-24 214.865L18.6239 221L182.099 199.806C184.439 120.234 186.512 -34.6694 176.082 -17.714C163.044 3.48021 136.467 24.1167 90.8339 52.5616Z" stroke="url(#paint3_linear_87_377)" stroke-width="2" stroke-linecap="round"/>
</g>
<path d="M-4 113.872C37.9776 115.202 128.146 106.69 153 62" stroke="url(#paint4_linear_87_377)" stroke-width="4" stroke-linecap="round"/>
<path d="M153 62C128.146 106.69 37.9776 115.202 -4 113.872L-12.5 204.5H153V62Z" fill="url(#paint5_linear_87_377)" fill-opacity="0.5"/>
<path d="M66.8032 170.724H63.2521C63.2047 170.36 63.1076 170.031 62.9609 169.737C62.8141 169.444 62.62 169.193 62.3785 168.984C62.137 168.776 61.8505 168.617 61.5191 168.509C61.1924 168.395 60.8302 168.338 60.4325 168.338C59.727 168.338 59.1185 168.511 58.6072 168.857C58.1005 169.202 57.7099 169.702 57.4353 170.355C57.1654 171.009 57.0305 171.799 57.0305 172.727C57.0305 173.693 57.1678 174.503 57.4424 175.156C57.7218 175.805 58.1124 176.295 58.6143 176.626C59.1209 176.953 59.7199 177.116 60.4111 177.116C60.7994 177.116 61.1522 177.067 61.4694 176.967C61.7914 176.868 62.0731 176.723 62.3146 176.534C62.5608 176.34 62.762 176.106 62.9183 175.831C63.0792 175.552 63.1905 175.237 63.2521 174.886L66.8032 174.908C66.7416 175.552 66.5546 176.186 66.2421 176.811C65.9344 177.436 65.5106 178.007 64.9708 178.523C64.431 179.034 63.7729 179.441 62.9964 179.744C62.2246 180.047 61.3392 180.199 60.3401 180.199C59.0238 180.199 57.8449 179.91 56.8032 179.332C55.7663 178.75 54.9471 177.902 54.3458 176.79C53.7445 175.677 53.4438 174.323 53.4438 172.727C53.4438 171.127 53.7492 169.77 54.36 168.658C54.9708 167.545 55.797 166.7 56.8387 166.122C57.8804 165.545 59.0475 165.256 60.3401 165.256C61.2208 165.256 62.0352 165.379 62.7833 165.625C63.5314 165.866 64.1896 166.222 64.7577 166.69C65.3259 167.154 65.7876 167.725 66.1427 168.402C66.4978 169.079 66.718 169.853 66.8032 170.724ZM68.4149 180V165.455H74.4234C75.5125 165.455 76.4523 165.651 77.243 166.044C78.0385 166.432 78.6517 166.991 79.0825 167.72C79.5134 168.445 79.7288 169.304 79.7288 170.298C79.7288 171.307 79.5087 172.164 79.0683 172.869C78.628 173.57 78.003 174.105 77.1933 174.474C76.3837 174.839 75.4249 175.021 74.3169 175.021H70.5172V172.251H73.6635C74.1938 172.251 74.6365 172.183 74.9916 172.045C75.3515 171.903 75.6237 171.69 75.8084 171.406C75.993 171.117 76.0854 170.748 76.0854 170.298C76.0854 169.848 75.993 169.477 75.8084 169.183C75.6237 168.885 75.3515 168.662 74.9916 168.516C74.6318 168.364 74.1891 168.288 73.6635 168.288H71.9305V180H68.4149ZM76.6038 173.352L80.226 180H76.3908L72.8396 173.352H76.6038ZM84.4034 180H80.625L85.5327 165.455H90.2131L95.1207 180H91.3423L87.9261 169.119H87.8125L84.4034 180ZM83.8991 174.276H91.7969V176.946H83.8991V174.276ZM103.7 169.815C103.652 169.295 103.442 168.89 103.068 168.601C102.698 168.307 102.17 168.161 101.484 168.161C101.029 168.161 100.651 168.22 100.348 168.338C100.044 168.456 99.8172 168.62 99.6657 168.828C99.5142 169.032 99.4361 169.266 99.4313 169.531C99.4218 169.749 99.4645 169.941 99.5592 170.107C99.6586 170.272 99.8006 170.419 99.9853 170.547C100.175 170.67 100.402 170.779 100.667 170.874C100.932 170.968 101.231 171.051 101.562 171.122L102.812 171.406C103.532 171.562 104.166 171.771 104.715 172.031C105.269 172.292 105.733 172.602 106.107 172.962C106.486 173.321 106.773 173.736 106.967 174.205C107.161 174.673 107.26 175.199 107.265 175.781C107.26 176.7 107.028 177.488 106.569 178.146C106.11 178.804 105.449 179.309 104.588 179.659C103.731 180.009 102.696 180.185 101.484 180.185C100.267 180.185 99.2064 180.002 98.3021 179.638C97.3977 179.273 96.6946 178.719 96.1927 177.976C95.6908 177.232 95.4327 176.293 95.4185 175.156H98.785C98.8134 175.625 98.9389 176.016 99.1614 176.328C99.384 176.641 99.6894 176.877 100.078 177.038C100.471 177.199 100.925 177.28 101.441 177.28C101.915 177.28 102.317 177.216 102.649 177.088C102.985 176.96 103.243 176.783 103.423 176.555C103.603 176.328 103.695 176.068 103.7 175.774C103.695 175.5 103.61 175.265 103.444 175.071C103.278 174.872 103.023 174.702 102.677 174.56C102.336 174.413 101.901 174.278 101.37 174.155L99.8504 173.8C98.5909 173.511 97.5989 173.045 96.8745 172.401C96.1501 171.752 95.7902 170.876 95.795 169.773C95.7902 168.873 96.0317 168.085 96.5194 167.408C97.0071 166.731 97.6818 166.203 98.5435 165.824C99.4053 165.445 100.388 165.256 101.491 165.256C102.618 165.256 103.596 165.447 104.424 165.831C105.258 166.21 105.904 166.742 106.363 167.429C106.822 168.116 107.057 168.911 107.066 169.815H103.7ZM108.641 180V165.455H112.156V171.293H117.888V165.455H121.396V180H117.888V174.155H112.156V180H108.641Z" fill="white"/>
<circle opacity="0.2" cx="150" cy="65" r="13" stroke="white" stroke-width="2"/>
</g>
<circle cx="150" cy="65" r="10" fill="white"/>
<defs>
<linearGradient id="paint0_linear_87_377" x1="87.5" y1="0" x2="87.5" y2="200" gradientUnits="userSpaceOnUse">
<stop stop-color="#0B0B0D"/>
<stop offset="1" stop-color="#616173"/>
</linearGradient>
<linearGradient id="paint1_linear_87_377" x1="28" y1="5.5" x2="87.5" y2="200" gradientUnits="userSpaceOnUse">
<stop stop-color="#A55FFF"/>
<stop offset="1" stop-color="#5100FF"/>
</linearGradient>
<linearGradient id="paint2_linear_87_377" x1="80" y1="-19" x2="85.9564" y2="128.369" gradientUnits="userSpaceOnUse">
<stop stop-color="white"/>
<stop offset="1" stop-color="white" stop-opacity="0"/>
</linearGradient>
<linearGradient id="paint3_linear_87_377" x1="80" y1="-19" x2="80" y2="221" gradientUnits="userSpaceOnUse">
<stop stop-color="white"/>
<stop offset="0.397405" stop-color="white" stop-opacity="0"/>
</linearGradient>
<linearGradient id="paint4_linear_87_377" x1="-4" y1="88" x2="153" y2="88" gradientUnits="userSpaceOnUse">
<stop stop-color="#BB6EFF"/>
<stop offset="1" stop-color="white"/>
</linearGradient>
<linearGradient id="paint5_linear_87_377" x1="71.75" y1="62" x2="71.75" y2="204.5" gradientUnits="userSpaceOnUse">
<stop stop-color="white" stop-opacity="0.5"/>
<stop offset="1" stop-color="white" stop-opacity="0"/>
</linearGradient>
</defs>
</svg>
