<svg width="360" height="146" viewBox="0 0 360 146" fill="none" xmlns="http://www.w3.org/2000/svg">
<mask id="mask0_87_464" style="mask-type:alpha" maskUnits="userSpaceOnUse" x="0" y="0" width="360" height="146">
<rect width="360" height="146" rx="24" fill="url(#paint0_linear_87_464)"/>
</mask>
<g mask="url(#mask0_87_464)">
<g style="mix-blend-mode:overlay" opacity="0.5">
<path d="M134 -58H222L259 174.5L100.5 178.5L134 -58Z" fill="url(#paint1_linear_87_464)"/>
</g>
<rect x="-38" y="19" width="82" height="82" rx="24" fill="white" fill-opacity="0.1"/>
<rect x="-37.5" y="19.5" width="81" height="81" rx="23.5" stroke="white" stroke-opacity="0.1"/>
<rect x="50" y="19" width="82" height="82" rx="24" fill="white" fill-opacity="0.3"/>
<rect x="50.5" y="19.5" width="81" height="81" rx="23.5" stroke="white" stroke-opacity="0.1"/>
<rect x="138" y="19" width="82" height="82" rx="24" fill="url(#paint2_linear_87_464)"/>
<rect x="226" y="19" width="82" height="82" rx="24" fill="white" fill-opacity="0.3"/>
<rect x="226.5" y="19.5" width="81" height="81" rx="23.5" stroke="white" stroke-opacity="0.1"/>
<rect x="314" y="19" width="82" height="82" rx="24" fill="white" fill-opacity="0.1"/>
<rect x="314.5" y="19.5" width="81" height="81" rx="23.5" stroke="white" stroke-opacity="0.1"/>
</g>
<defs>
<linearGradient id="paint0_linear_87_464" x1="119.5" y1="-47.9063" x2="244.083" y2="159.832" gradientUnits="userSpaceOnUse">
<stop stop-color="#009DFF"/>
<stop offset="1" stop-color="#9837FF"/>
</linearGradient>
<linearGradient id="paint1_linear_87_464" x1="178" y1="2" x2="178" y2="178" gradientUnits="userSpaceOnUse">
<stop stop-color="white"/>
<stop offset="1" stop-color="#999999" stop-opacity="0"/>
</linearGradient>
<linearGradient id="paint2_linear_87_464" x1="179" y1="19" x2="179" y2="150.5" gradientUnits="userSpaceOnUse">
<stop stop-color="white"/>
<stop offset="0.980769" stop-color="#FED240"/>
</linearGradient>
</defs>
</svg>
