<svg width="216" height="134" viewBox="0 0 216 134" fill="none" xmlns="http://www.w3.org/2000/svg">
<rect y="25.176" width="204" height="108.9" rx="15.3962" transform="rotate(-7.08905 0 25.176)" fill="url(#paint0_linear_87_5665)"/>
<mask id="mask0_87_5665" style="mask-type:alpha" maskUnits="userSpaceOnUse" x="1" y="1" width="214" height="131">
<rect y="25.176" width="204" height="108.9" rx="15.3962" transform="rotate(-7.08905 0 25.176)" fill="url(#paint1_linear_87_5665)"/>
</mask>
<g mask="url(#mask0_87_5665)">
<circle opacity="0.2" cx="118.787" cy="151.947" r="93.0189" transform="rotate(-7.08905 118.787 151.947)" fill="url(#paint2_linear_87_5665)"/>
</g>
<path d="M27.3463 40.9612L22.5061 51.3225C22.4468 51.4481 22.3566 51.5566 22.2439 51.6378C22.1313 51.7191 21.9998 51.7704 21.862 51.7871C21.7241 51.8038 21.5842 51.7852 21.4554 51.7332C21.3266 51.6812 21.2132 51.5973 21.1256 51.4895L14.0126 42.6147C13.8131 42.3663 13.6871 42.067 13.649 41.7507C13.598 41.2827 13.7349 40.8137 14.0297 40.4467C14.3245 40.0797 14.753 39.8448 15.221 39.7937L25.4994 38.5155C26.4816 38.3925 27.3756 39.0672 27.4946 40.0241C27.5341 40.3418 27.4839 40.6667 27.3463 40.9612ZM15.4269 42.1154L20.6735 48.3572L19.7443 40.8849L15.8019 41.3751C15.3466 41.4318 15.1802 41.7587 15.4271 42.117M22.3022 48.1562L25.8615 40.8177C26.0178 40.4101 25.7718 40.1337 25.3156 40.1904L21.3741 40.6806L22.3022 48.1562Z" fill="#242424"/>
<path d="M117.885 29.3347C117.803 29.1438 117.701 28.9787 117.579 28.8396C117.457 28.6978 117.315 28.5833 117.152 28.4961C116.992 28.4058 116.814 28.3439 116.617 28.3106C116.422 28.2769 116.211 28.2742 115.984 28.3026C115.558 28.3555 115.196 28.5079 114.9 28.7596C114.606 29.011 114.395 29.35 114.266 29.7764C114.137 30.2002 114.108 30.7024 114.181 31.2829C114.253 31.8634 114.402 32.3462 114.629 32.7312C114.856 33.1162 115.144 33.3958 115.494 33.5699C115.843 33.7414 116.237 33.7998 116.677 33.7451C117.076 33.6955 117.407 33.5827 117.672 33.4065C117.939 33.2273 118.131 32.9982 118.248 32.7192C118.367 32.4399 118.405 32.1226 118.361 31.7672L118.725 31.7755L116.577 32.0427L116.412 30.7162L119.899 30.2825L120.03 31.3323C120.121 32.0648 120.044 32.7134 119.801 33.2782C119.556 33.8402 119.181 34.2974 118.674 34.6497C118.166 34.9993 117.562 35.2176 116.863 35.3047C116.081 35.4018 115.374 35.3149 114.739 35.0439C114.105 34.7702 113.582 34.3352 113.172 33.7389C112.764 33.1395 112.506 32.4003 112.396 31.5213C112.312 30.8459 112.335 30.2315 112.465 29.6782C112.596 29.1218 112.817 28.6371 113.127 28.224C113.436 27.8108 113.815 27.4786 114.263 27.2273C114.711 26.976 115.211 26.8161 115.761 26.7476C116.233 26.6889 116.681 26.7034 117.105 26.7912C117.529 26.8762 117.914 27.0239 118.26 27.2344C118.608 27.4445 118.904 27.7093 119.148 28.0289C119.391 28.3457 119.567 28.7068 119.675 29.112L117.885 29.3347ZM128.688 29.487C128.801 30.3958 128.725 31.1903 128.46 31.8707C128.197 32.5507 127.791 33.0957 127.242 33.5056C126.694 33.9125 126.053 34.1617 125.318 34.2531C124.578 34.3452 123.892 34.2597 123.261 33.9965C122.631 33.7333 122.105 33.3042 121.684 32.7092C121.263 32.1142 120.996 31.3637 120.883 30.4576C120.77 29.5488 120.845 28.7544 121.108 28.0744C121.37 27.3944 121.775 26.8509 122.322 26.444C122.869 26.0344 123.513 25.7836 124.253 25.6915C124.989 25.6001 125.671 25.6859 126.302 25.9491C126.935 26.2092 127.462 26.6368 127.883 27.2318C128.307 27.8265 128.575 28.5782 128.688 29.487ZM126.902 29.7091C126.829 29.1205 126.679 28.635 126.452 28.2527C126.228 27.8701 125.944 27.5941 125.601 27.4247C125.258 27.2552 124.873 27.197 124.447 27.25C124.021 27.303 123.663 27.4536 123.371 27.702C123.08 27.9503 122.871 28.2876 122.745 28.7137C122.622 29.1395 122.597 29.6468 122.67 30.2354C122.743 30.8241 122.892 31.3098 123.115 31.6924C123.342 32.0747 123.627 32.3505 123.97 32.5199C124.314 32.6893 124.698 32.7476 125.124 32.6946C125.55 32.6416 125.909 32.491 126.2 32.2426C126.492 31.9942 126.699 31.6572 126.822 31.2314C126.949 30.8052 126.975 30.2978 126.902 29.7091ZM130.282 33.52L129.246 25.1863L131.008 24.9672L131.864 31.8482L135.436 31.4039L135.617 32.8566L130.282 33.52ZM139.509 32.3726L136.555 32.74L135.518 24.4062L138.497 24.0358C139.335 23.9316 140.078 24.0087 140.724 24.2671C141.37 24.5228 141.895 24.9411 142.297 25.5218C142.703 26.1022 142.959 26.8251 143.067 27.6905C143.175 28.5586 143.104 29.325 142.853 29.9898C142.605 30.6542 142.197 31.1912 141.628 31.6008C141.062 32.0101 140.355 32.2673 139.509 32.3726ZM138.129 31.0112L139.248 30.872C139.769 30.8072 140.195 30.6605 140.528 30.4319C140.863 30.2001 141.095 29.8778 141.226 29.4649C141.359 29.049 141.386 28.5304 141.309 27.9091C141.233 27.2933 141.079 26.8014 140.849 26.4334C140.621 26.065 140.318 25.8106 139.94 25.6704C139.562 25.5301 139.112 25.4923 138.591 25.5571L137.468 25.6968L138.129 31.0112ZM146.049 23.0966L148.222 22.8264L151.213 28.1402L151.311 28.1281L152.91 22.2434L155.083 21.9732L156.119 30.3069L154.41 30.5195L153.735 25.0952L153.666 25.1038L152.179 30.7556L151.015 30.9003L148.186 25.7646L148.117 25.7732L148.794 31.2178L147.085 31.4304L146.049 23.0966ZM157.341 30.1549L156.305 21.8212L161.921 21.1228L162.101 22.5755L158.248 23.0547L158.495 25.0405L162.059 24.5972L162.24 26.0499L158.675 26.4932L158.923 28.4831L162.793 28.0018L162.973 29.4545L157.341 30.1549ZM163.092 20.9771L165.265 20.7069L168.257 26.0207L168.354 26.0085L169.953 20.1239L172.126 19.8536L173.162 28.1874L171.453 28.3999L170.779 22.9757L170.709 22.9843L169.222 28.636L168.058 28.7808L165.23 23.6451L165.161 23.6537L165.838 29.0983L164.129 29.3108L163.092 20.9771ZM174.385 28.0353L173.348 19.7016L176.685 19.2866C177.298 19.2104 177.821 19.2377 178.253 19.3685C178.685 19.4993 179.025 19.7133 179.271 20.0105C179.517 20.305 179.666 20.6611 179.718 21.0789C179.758 21.4044 179.729 21.6987 179.629 21.9617C179.529 22.2221 179.375 22.4451 179.167 22.6308C178.961 22.8134 178.717 22.9553 178.435 23.0565L178.445 23.1379C178.764 23.112 179.072 23.1646 179.37 23.2957C179.67 23.4264 179.925 23.6302 180.136 23.907C180.346 24.1811 180.477 24.523 180.528 24.9326C180.583 25.3748 180.522 25.7832 180.345 26.1577C180.171 26.5293 179.884 26.8419 179.483 27.0956C179.082 27.3493 178.569 27.515 177.945 27.5925L174.385 28.0353ZM175.968 26.3757L177.404 26.1971C177.895 26.136 178.241 25.9979 178.443 25.7827C178.645 25.5648 178.726 25.2985 178.687 24.9838C178.658 24.7532 178.577 24.5567 178.444 24.3942C178.311 24.2317 178.135 24.1131 177.917 24.0384C177.701 23.9633 177.452 23.9433 177.169 23.9784L175.692 24.1621L175.968 26.3757ZM175.544 22.9698L176.85 22.8074C177.092 22.7773 177.301 22.7086 177.477 22.6012C177.657 22.4908 177.791 22.3502 177.88 22.1794C177.971 22.0082 178.003 21.8127 177.976 21.593C177.939 21.2919 177.801 21.0624 177.564 20.9046C177.329 20.7464 177.017 20.6916 176.626 20.7402L175.287 20.9067L175.544 22.9698ZM181.731 27.1217L180.695 18.788L186.311 18.0896L186.491 19.5423L182.638 20.0215L182.885 22.0073L186.449 21.564L186.63 23.0167L183.065 23.46L183.313 25.4499L187.183 24.9686L187.363 26.4213L181.731 27.1217ZM188.519 26.2776L187.482 17.9439L190.77 17.535C191.399 17.4567 191.951 17.5025 192.424 17.6723C192.899 17.8391 193.279 18.1128 193.563 18.4934C193.849 18.871 194.027 19.3351 194.095 19.8858C194.164 20.4393 194.104 20.9302 193.915 21.3587C193.726 21.7844 193.417 22.1313 192.991 22.3992C192.567 22.6668 192.035 22.8404 191.394 22.9201L189.193 23.1938L189.017 21.7777L190.933 21.5394C191.27 21.4976 191.543 21.4167 191.754 21.2968C191.965 21.1769 192.114 21.018 192.199 20.82C192.288 20.6217 192.315 20.3855 192.281 20.1115C192.246 19.8348 192.162 19.6085 192.027 19.4324C191.895 19.256 191.71 19.133 191.473 19.0633C191.238 18.9906 190.951 18.9753 190.612 19.0175L189.423 19.1653L190.281 26.0585L188.519 26.2776ZM192.548 21.9254L195.09 25.4603L193.145 25.7022L190.647 22.1618L192.548 21.9254Z" fill="#242424"/>
<defs>
<linearGradient id="paint0_linear_87_5665" x1="71.5437" y1="14.5163" x2="171.927" y2="136.792" gradientUnits="userSpaceOnUse">
<stop stop-color="#FFD268"/>
<stop offset="0.389423" stop-color="#FFE098"/>
<stop offset="0.725962" stop-color="#FFC334"/>
</linearGradient>
<linearGradient id="paint1_linear_87_5665" x1="71.5437" y1="14.5163" x2="171.927" y2="136.792" gradientUnits="userSpaceOnUse">
<stop stop-color="#FFD268"/>
<stop offset="0.389423" stop-color="#FFE098"/>
<stop offset="0.725962" stop-color="#FFC334"/>
</linearGradient>
<linearGradient id="paint2_linear_87_5665" x1="118.787" y1="58.9277" x2="118.787" y2="244.965" gradientUnits="userSpaceOnUse">
<stop stop-color="white"/>
<stop offset="1" stop-color="#999999" stop-opacity="0"/>
</linearGradient>
</defs>
</svg>
