<svg width="273" height="191" viewBox="0 0 273 191" fill="none" xmlns="http://www.w3.org/2000/svg">
<rect x="33.6373" width="246.816" height="131.756" rx="18.6276" transform="rotate(14.7913 33.6373 0)" fill="url(#paint0_linear_87_5673)"/>
<mask id="mask0_87_5673" style="mask-type:alpha" maskUnits="userSpaceOnUse" x="4" y="4" width="265" height="183">
<rect x="33.6373" width="246.816" height="131.756" rx="18.6276" transform="rotate(14.7913 33.6373 0)" fill="url(#paint1_linear_87_5673)"/>
</mask>
<g mask="url(#mask0_87_5673)">
<circle opacity="0.2" cx="109.835" cy="195.922" r="112.542" transform="rotate(14.7913 109.835 195.922)" fill="url(#paint2_linear_87_5673)"/>
</g>
<g clip-path="url(#clip0_87_5673)">
<path d="M57.2225 30.0523L47.1165 39.5029C46.9932 39.6171 46.843 39.6982 46.6799 39.7387C46.5168 39.7791 46.3461 39.7775 46.1838 39.734C46.0214 39.6906 45.8727 39.6067 45.7516 39.4902C45.6305 39.3737 45.5409 39.2284 45.4912 39.0679L41.5069 25.8968C41.3948 25.528 41.3883 25.1351 41.4881 24.7628C41.6419 24.2144 42.0071 23.7495 42.5036 23.4704C43 23.1913 43.587 23.1208 44.1354 23.2745L56.2516 26.4737C57.4098 26.7786 58.1093 27.9391 57.8114 29.0671C57.7125 29.4416 57.5097 29.7838 57.2225 30.0523ZM43.3198 25.9739L46.396 35.3473L48.7218 26.539L44.0746 25.3119C43.5378 25.1701 43.2037 25.4621 43.3193 25.9757M48.3151 35.856L55.6201 29.2218C55.9794 28.8346 55.8278 28.4133 55.29 28.2714L50.6438 27.0445L48.3151 35.856Z" fill="#242424"/>
</g>
<path d="M132.164 57.2117L128.681 56.2922L131.275 46.4684L134.786 47.3955C135.774 47.6564 136.573 48.0777 137.182 48.6593C137.792 49.2378 138.193 49.9438 138.383 50.7774C138.577 51.6119 138.539 52.5392 138.269 53.5593C137.999 54.5827 137.574 55.411 136.992 56.0443C136.414 56.6785 135.714 57.0973 134.89 57.3006C134.07 57.5048 133.161 57.4752 132.164 57.2117ZM131.228 55.061L132.547 55.4093C133.161 55.5714 133.706 55.5991 134.183 55.4922C134.663 55.383 135.069 55.1261 135.402 54.7213C135.739 54.3142 136.004 53.7445 136.197 53.0122C136.389 52.2863 136.438 51.6648 136.346 51.1477C136.256 50.6315 136.031 50.2093 135.669 49.8813C135.308 49.5532 134.82 49.3081 134.206 49.146L132.882 48.7964L131.228 55.061ZM142.909 49.5404L140.315 59.3642L138.238 58.8158L140.832 48.992L142.909 49.5404ZM143.447 60.1912L141.222 59.6035L147.207 50.6752L149.883 51.3819L150.676 62.0999L148.45 61.5122L147.991 53.2836L147.914 53.2633L143.447 60.1912ZM144.328 56.293L149.585 57.6812L149.157 59.3025L143.9 57.9144L144.328 56.293ZM154.182 52.517L156.744 53.1934L157.706 60.5081L157.821 60.5385L162.27 54.6525L164.831 55.3288L162.237 65.1526L160.222 64.6207L161.911 58.2266L161.829 58.205L157.611 63.8799L156.239 63.5176L155.379 56.4762L155.298 56.4547L153.603 62.8728L151.588 62.3408L154.182 52.517ZM174.003 63.005C173.72 64.0763 173.276 64.934 172.672 65.5783C172.07 66.2234 171.369 66.6522 170.567 66.8646C169.769 67.0747 168.937 67.0654 168.07 66.8365C167.197 66.606 166.466 66.2009 165.877 65.6211C165.288 65.0413 164.891 64.3225 164.686 63.4646C164.482 62.6067 164.521 61.6437 164.803 60.5757C165.085 59.5044 165.528 58.6462 166.129 58.0011C166.73 57.356 167.43 56.9284 168.228 56.7183C169.026 56.505 169.862 56.5136 170.735 56.7441C171.602 56.9729 172.33 57.3772 172.919 57.957C173.512 58.5344 173.911 59.2521 174.116 60.11C174.323 60.9687 174.286 61.9337 174.003 63.005ZM171.897 62.4489C172.08 61.755 172.131 61.1424 172.049 60.611C171.97 60.0805 171.776 59.6427 171.467 59.2977C171.158 58.9526 170.752 58.7138 170.25 58.5813C169.748 58.4487 169.277 58.4561 168.838 58.6036C168.399 58.751 168.013 59.0355 167.679 59.4571C167.348 59.8796 167.092 60.4378 166.908 61.1317C166.725 61.8256 166.673 62.4379 166.752 62.9684C166.834 63.4997 167.029 63.9379 167.339 64.283C167.648 64.628 168.053 64.8668 168.555 64.9994C169.057 65.1319 169.528 65.1245 169.967 64.9771C170.406 64.8296 170.791 64.5447 171.122 64.1222C171.455 63.7006 171.714 63.1429 171.897 62.4489ZM184.785 60.5977L182.191 70.4215L180.397 69.9478L177.756 62.6362L177.684 62.6172L176.051 68.8002L173.974 68.2518L176.568 58.428L178.391 58.9093L181 66.2072L181.086 66.23L182.718 60.0518L184.785 60.5977ZM187.119 71.7228L183.637 70.8033L186.231 60.9795L189.742 61.9066C190.73 62.1675 191.529 62.5888 192.138 63.1704C192.748 63.7489 193.149 64.4549 193.339 65.2885C193.533 66.123 193.495 67.0503 193.225 68.0704C192.955 69.0937 192.529 69.9221 191.948 70.5554C191.37 71.1896 190.67 71.6083 189.846 71.8117C189.026 72.0159 188.117 71.9863 187.119 71.7228ZM186.184 69.5721L187.503 69.9204C188.117 70.0825 188.662 70.1102 189.138 70.0033C189.619 69.8941 190.025 69.6372 190.358 69.2324C190.695 68.8253 190.96 68.2556 191.153 67.5233C191.345 66.7973 191.394 66.1759 191.302 65.6588C191.212 65.1426 190.987 64.7204 190.625 64.3924C190.264 64.0643 189.776 63.8192 189.162 63.6571L187.838 63.3075L186.184 69.5721ZM198.644 64.2572L201.206 64.9336L202.168 72.2483L202.283 72.2787L206.732 66.3927L209.293 67.069L206.699 76.8928L204.685 76.3609L206.373 69.9668L206.291 69.9452L202.073 75.6201L200.702 75.2578L199.841 68.2164L199.76 68.1949L198.065 74.613L196.05 74.081L198.644 64.2572ZM208.14 77.2734L210.734 67.4496L217.354 69.1974L216.902 70.9099L212.359 69.7104L211.741 72.0513L215.943 73.1608L215.491 74.8732L211.289 73.7637L210.669 76.1093L215.231 77.3139L214.779 79.0263L208.14 77.2734ZM218.735 69.5621L221.296 70.2385L222.259 77.5532L222.374 77.5836L226.822 71.6976L229.384 72.374L226.79 82.1978L224.775 81.6658L226.464 75.2717L226.382 75.2502L222.164 80.925L220.792 80.5628L219.932 73.5213L219.85 73.4998L218.156 79.9179L216.141 79.3859L218.735 69.5621ZM228.231 82.5783L230.825 72.7545L234.758 73.7931C235.481 73.9839 236.055 74.2502 236.482 74.592C236.908 74.9337 237.193 75.327 237.335 75.7717C237.478 76.2132 237.485 76.6802 237.355 77.1727C237.254 77.5564 237.088 77.8735 236.858 78.124C236.628 78.3713 236.355 78.5522 236.037 78.6667C235.723 78.7789 235.385 78.8282 235.023 78.8146L234.998 78.9106C235.368 79.0253 235.69 79.2233 235.965 79.5045C236.242 79.7866 236.437 80.1305 236.549 80.5363C236.662 80.9389 236.654 81.3816 236.527 81.8645C236.389 82.3858 236.137 82.8169 235.77 83.1578C235.407 83.4964 234.943 83.7177 234.378 83.8218C233.814 83.9258 233.164 83.8808 232.428 83.6866L228.231 82.5783ZM230.756 81.4287L232.45 81.8758C233.028 82.0286 233.48 82.0297 233.803 81.8792C234.128 81.7254 234.339 81.463 234.437 81.0921C234.509 80.8203 234.507 80.5631 234.43 80.3206C234.354 80.0782 234.21 79.8657 233.998 79.6832C233.79 79.5015 233.519 79.3668 233.187 79.279L231.445 78.8192L230.756 81.4287ZM231.816 77.4138L233.356 77.8203C233.641 77.8955 233.907 77.9126 234.153 77.8718C234.404 77.8285 234.618 77.7311 234.795 77.5794C234.975 77.4285 235.099 77.2236 235.168 76.9645C235.261 76.6096 235.211 76.29 235.016 76.0059C234.823 75.7225 234.497 75.5201 234.037 75.3985L232.459 74.9818L231.816 77.4138ZM236.891 84.865L239.485 75.0412L246.105 76.7891L245.653 78.5016L241.11 77.3021L240.492 79.6429L244.694 80.7525L244.242 82.4649L240.04 81.3554L239.42 83.701L243.982 84.9055L243.53 86.618L236.891 84.865ZM244.892 86.9776L247.486 77.1538L251.362 78.1772C252.104 78.3731 252.702 78.673 253.156 79.0769C253.614 79.4785 253.917 79.957 254.065 80.5125C254.216 81.0656 254.207 81.6668 254.035 82.3159C253.863 82.9683 253.574 83.4924 253.168 83.8881C252.764 84.2807 252.261 84.5312 251.662 84.6396C251.065 84.7489 250.389 84.7039 249.634 84.5046L247.039 83.8194L247.48 82.1501L249.739 82.7467C250.136 82.8514 250.48 82.884 250.771 82.8445C251.062 82.805 251.3 82.6934 251.485 82.5098C251.674 82.3269 251.81 82.074 251.896 81.751C251.982 81.4248 251.989 81.1325 251.917 80.8741C251.848 80.6164 251.696 80.395 251.461 80.2098C251.23 80.0222 250.915 79.8757 250.515 79.7701L249.114 79.4003L246.969 87.526L244.892 86.9776ZM251.378 83.9079L252.639 89.0231L250.346 88.4177L249.137 83.3164L251.378 83.9079Z" fill="#242424"/>
<defs>
<linearGradient id="paint0_linear_87_5673" x1="120.197" y1="-12.897" x2="241.649" y2="135.041" gradientUnits="userSpaceOnUse">
<stop stop-color="#D4F1FF"/>
<stop offset="0.389423" stop-color="#96DFFF"/>
<stop offset="0.855769" stop-color="#ABE4FF"/>
</linearGradient>
<linearGradient id="paint1_linear_87_5673" x1="120.197" y1="-12.897" x2="241.649" y2="135.041" gradientUnits="userSpaceOnUse">
<stop stop-color="#D4F1FF"/>
<stop offset="0.389423" stop-color="#96DFFF"/>
<stop offset="0.855769" stop-color="#ABE4FF"/>
</linearGradient>
<linearGradient id="paint2_linear_87_5673" x1="109.835" y1="83.3804" x2="109.835" y2="308.464" gradientUnits="userSpaceOnUse">
<stop stop-color="white"/>
<stop offset="1" stop-color="#999999" stop-opacity="0"/>
</linearGradient>
<clipPath id="clip0_87_5673">
<rect width="22.5083" height="22.5083" fill="white" transform="translate(40.2163 18.5586) rotate(14.7913)"/>
</clipPath>
</defs>
</svg>
