<svg width="318" height="170" viewBox="0 0 318 170" fill="none" xmlns="http://www.w3.org/2000/svg">
<rect width="318" height="169.756" rx="24" fill="url(#paint0_linear_87_5681)"/>
<mask id="mask0_87_5681" style="mask-type:alpha" maskUnits="userSpaceOnUse" x="0" y="0" width="318" height="170">
<rect width="318" height="169.756" rx="24" fill="url(#paint1_linear_87_5681)"/>
</mask>
<g mask="url(#mask0_87_5681)">
<circle opacity="0.2" cx="159.365" cy="219" r="145" fill="url(#paint2_linear_87_5681)"/>
</g>
<path d="M39.2655 29.6789L29.7849 44.7758C29.6689 44.9586 29.5085 45.1091 29.3186 45.2131C29.1287 45.3171 28.9156 45.3713 28.699 45.3706C28.4825 45.3698 28.2697 45.3142 28.0805 45.209C27.8913 45.1037 27.7319 44.9522 27.6172 44.7686L18.3215 29.6716C18.0606 29.249 17.9233 28.7618 17.9251 28.2651C17.9363 27.5315 18.2384 26.8322 18.765 26.3212C19.2916 25.8103 19.9996 25.5294 20.7333 25.5403H36.879C38.4221 25.5391 39.6751 26.7547 39.6751 28.2579C39.6751 28.7569 39.535 29.2499 39.2655 29.6789ZM20.6052 29.1714L27.5205 39.8361V28.0984H21.3278C20.6125 28.0984 20.2923 28.5721 20.6052 29.1738M30.0785 39.8386L36.9963 29.1714C37.3165 28.5708 36.989 28.096 36.2725 28.096H30.081L30.0785 39.8386Z" fill="#242424"/>
<path d="M120.708 38.8232V25.7323H125.95C126.913 25.7323 127.716 25.8751 128.359 26.1606C129.003 26.4461 129.486 26.8424 129.81 27.3495C130.134 27.8524 130.296 28.4319 130.296 29.0882C130.296 29.5995 130.194 30.0491 129.989 30.4369C129.785 30.8204 129.504 31.1357 129.146 31.3829C128.792 31.6258 128.387 31.7984 127.931 31.9007V32.0285C128.43 32.0498 128.896 32.1904 129.331 32.4504C129.77 32.7103 130.126 33.0747 130.398 33.5434C130.671 34.0079 130.808 34.5619 130.808 35.2053C130.808 35.8999 130.635 36.52 130.29 37.0654C129.949 37.6066 129.444 38.0349 128.775 38.3502C128.106 38.6656 127.281 38.8232 126.301 38.8232H120.708ZM123.476 36.5605H125.732C126.504 36.5605 127.066 36.4134 127.42 36.1194C127.773 35.8211 127.95 35.4248 127.95 34.9305C127.95 34.5683 127.863 34.2487 127.688 33.9717C127.513 33.6947 127.264 33.4774 126.94 33.3197C126.621 33.162 126.239 33.0832 125.796 33.0832H123.476V36.5605ZM123.476 31.2103H125.528C125.907 31.2103 126.244 31.1443 126.538 31.0122C126.836 30.8758 127.07 30.684 127.241 30.4369C127.415 30.1897 127.503 29.8936 127.503 29.5484C127.503 29.0754 127.335 28.694 126.998 28.4042C126.665 28.1144 126.192 27.9695 125.579 27.9695H123.476V31.2103ZM132.248 38.8232V25.7323H137.413C138.402 25.7323 139.246 25.9092 139.945 26.2629C140.648 26.6123 141.182 27.1088 141.549 27.7522C141.92 28.3914 142.105 29.1436 142.105 30.0086C142.105 30.8779 141.918 31.6258 141.543 32.2522C141.168 32.8744 140.624 33.3517 139.913 33.684C139.205 34.0164 138.349 34.1826 137.343 34.1826H133.885V31.9582H136.895C137.424 31.9582 137.863 31.8857 138.212 31.7409C138.562 31.596 138.822 31.3786 138.992 31.0889C139.167 30.7991 139.254 30.439 139.254 30.0086C139.254 29.574 139.167 29.2075 138.992 28.9092C138.822 28.6109 138.56 28.385 138.206 28.2316C137.856 28.074 137.415 27.9951 136.883 27.9951H135.016V38.8232H132.248ZM139.318 32.8659L142.572 38.8232H139.516L136.333 32.8659H139.318ZM146.469 25.7323V38.8232H143.701V25.7323H146.469ZM148.386 38.8232V25.7323H151.154V36.5413H156.766V38.8232H148.386ZM158.239 38.8232V25.7323H161.007V36.5413H166.619V38.8232H158.239ZM170.859 25.7323V38.8232H168.092V25.7323H170.859ZM175.033 38.8232H172.067L176.586 25.7323H180.153L184.666 38.8232H181.7L178.421 28.7238H178.319L175.033 38.8232ZM174.848 33.6776H181.853V35.8382H174.848V33.6776ZM196.831 25.7323V38.8232H194.44L188.745 30.5839H188.649V38.8232H185.881V25.7323H188.31L193.961 33.9653H194.076V25.7323H196.831ZM210.308 30.3154H207.508C207.457 29.9532 207.353 29.6315 207.195 29.3502C207.038 29.0647 206.835 28.8218 206.588 28.6215C206.341 28.4213 206.055 28.2678 205.732 28.1613C205.412 28.0548 205.065 28.0015 204.69 28.0015C204.012 28.0015 203.422 28.1698 202.919 28.5065C202.416 28.8389 202.026 29.3247 201.749 29.9639C201.472 30.5988 201.334 31.3701 201.334 32.2778C201.334 33.211 201.472 33.9951 201.749 34.6301C202.031 35.265 202.423 35.7444 202.925 36.0683C203.428 36.3921 204.01 36.5541 204.67 36.5541C205.041 36.5541 205.384 36.5051 205.7 36.407C206.019 36.309 206.303 36.1663 206.55 35.9788C206.797 35.787 207.001 35.5548 207.163 35.282C207.33 35.0093 207.445 34.6982 207.508 34.3488L210.308 34.3616C210.236 34.9624 210.055 35.542 209.765 36.1002C209.479 36.6542 209.094 37.1507 208.608 37.5896C208.126 38.0242 207.551 38.3694 206.882 38.6251C206.217 38.8765 205.465 39.0022 204.626 39.0022C203.458 39.0022 202.414 38.738 201.494 38.2096C200.577 37.6812 199.853 36.9163 199.32 35.9149C198.792 34.9134 198.528 33.7011 198.528 32.2778C198.528 30.8502 198.796 29.6357 199.333 28.6343C199.87 27.6329 200.599 26.8701 201.519 26.346C202.44 25.8176 203.475 25.5534 204.626 25.5534C205.384 25.5534 206.087 25.6599 206.735 25.873C207.387 26.086 207.964 26.3971 208.467 26.8062C208.97 27.211 209.379 27.7075 209.695 28.2955C210.014 28.8836 210.219 29.5569 210.308 30.3154ZM211.933 38.8232V25.7323H220.754V28.0143H214.701V31.1336H220.3V33.4156H214.701V36.5413H220.78V38.8232H211.933ZM226.4 25.7323H229.814L233.419 34.5278H233.572L237.177 25.7323H240.591V38.8232H237.906V30.3026H237.797L234.41 38.7593H232.582L229.194 30.2707H229.085V38.8232H226.4V25.7323ZM242.511 38.8232V25.7323H251.332V28.0143H245.279V31.1336H250.878V33.4156H245.279V36.5413H251.358V38.8232H242.511ZM253.173 25.7323H256.586L260.191 34.5278H260.345L263.95 25.7323H267.363V38.8232H264.678V30.3026H264.57L261.182 38.7593H259.354L255.966 30.2707H255.857V38.8232H253.173V25.7323ZM269.283 38.8232V25.7323H274.525C275.488 25.7323 276.291 25.8751 276.935 26.1606C277.578 26.4461 278.062 26.8424 278.386 27.3495C278.709 27.8524 278.871 28.4319 278.871 29.0882C278.871 29.5995 278.769 30.0491 278.565 30.4369C278.36 30.8204 278.079 31.1357 277.721 31.3829C277.367 31.6258 276.962 31.7984 276.506 31.9007V32.0285C277.005 32.0498 277.472 32.1904 277.906 32.4504C278.345 32.7103 278.701 33.0747 278.974 33.5434C279.246 34.0079 279.383 34.5619 279.383 35.2053C279.383 35.8999 279.21 36.52 278.865 37.0654C278.524 37.6066 278.019 38.0349 277.35 38.3502C276.681 38.6656 275.856 38.8232 274.876 38.8232H269.283ZM272.051 36.5605H274.307C275.079 36.5605 275.641 36.4134 275.995 36.1194C276.349 35.8211 276.526 35.4248 276.526 34.9305C276.526 34.5683 276.438 34.2487 276.263 33.9717C276.089 33.6947 275.839 33.4774 275.516 33.3197C275.196 33.162 274.815 33.0832 274.371 33.0832H272.051V36.5605ZM272.051 31.2103H274.103C274.482 31.2103 274.819 31.1443 275.113 31.0122C275.411 30.8758 275.646 30.684 275.816 30.4369C275.991 30.1897 276.078 29.8936 276.078 29.5484C276.078 29.0754 275.91 28.694 275.573 28.4042C275.241 28.1144 274.768 27.9695 274.154 27.9695H272.051V31.2103ZM280.824 38.8232V25.7323H289.645V28.0143H283.591V31.1336H289.191V33.4156H283.591V36.5413H289.67V38.8232H280.824ZM291.485 38.8232V25.7323H296.65C297.639 25.7323 298.482 25.9092 299.181 26.2629C299.884 26.6123 300.419 27.1088 300.786 27.7522C301.156 28.3914 301.342 29.1436 301.342 30.0086C301.342 30.8779 301.154 31.6258 300.779 32.2522C300.404 32.8744 299.861 33.3517 299.149 33.684C298.442 34.0164 297.585 34.1826 296.58 34.1826H293.122V31.9582H296.132C296.661 31.9582 297.1 31.8857 297.449 31.7409C297.798 31.596 298.058 31.3786 298.229 31.0889C298.404 30.7991 298.491 30.439 298.491 30.0086C298.491 29.574 298.404 29.2075 298.229 28.9092C298.058 28.6109 297.796 28.385 297.443 28.2316C297.093 28.074 296.652 27.9951 296.119 27.9951H294.253V38.8232H291.485ZM298.555 32.8659L301.808 38.8232H298.753L295.57 32.8659H298.555Z" fill="#242424"/>
<defs>
<linearGradient id="paint0_linear_87_5681" x1="111.524" y1="-16.6166" x2="268.004" y2="173.989" gradientUnits="userSpaceOnUse">
<stop stop-color="#F7D4FF"/>
<stop offset="0.389423" stop-color="#96B5FF"/>
<stop offset="0.855769" stop-color="#6EECFF"/>
</linearGradient>
<linearGradient id="paint1_linear_87_5681" x1="111.524" y1="-16.6166" x2="268.004" y2="173.989" gradientUnits="userSpaceOnUse">
<stop stop-color="#D4F1FF"/>
<stop offset="0.389423" stop-color="#96DFFF"/>
<stop offset="0.855769" stop-color="#ABE4FF"/>
</linearGradient>
<linearGradient id="paint2_linear_87_5681" x1="159.365" y1="74" x2="159.365" y2="364" gradientUnits="userSpaceOnUse">
<stop stop-color="white"/>
<stop offset="1" stop-color="#999999" stop-opacity="0"/>
</linearGradient>
</defs>
</svg>
