<svg width="390" height="840" viewBox="0 0 390 840" fill="none" xmlns="http://www.w3.org/2000/svg">
<g clip-path="url(#clip0_87_5655)">
<rect width="390" height="840" fill="#0F0F12"/>
<g opacity="0.2" filter="url(#filter0_f_87_5655)">
<circle cx="195" cy="781" r="332" fill="#C4FF00"/>
</g>
<rect width="139" height="5" rx="2.5" transform="matrix(-1 0 0 1 264 831)" fill="white"/>
<path d="M21.7004 678L16.6208 660.545H21.2828L23.9163 671.983H24.0612L27.0697 660.545H30.8708L33.8793 672.009H34.0242L36.6663 660.545H41.3197L36.2487 678H32.1833L29.0384 667.415H28.9021L25.7572 678H21.7004ZM44.8198 678.222C43.9846 678.222 43.2431 678.082 42.5954 677.804C41.9533 677.52 41.4448 677.094 41.0698 676.526C40.7005 675.952 40.5158 675.233 40.5158 674.369C40.5158 673.642 40.6437 673.028 40.8993 672.528C41.155 672.028 41.5073 671.622 41.9562 671.31C42.405 670.997 42.9221 670.761 43.5073 670.602C44.0925 670.437 44.7175 670.327 45.3823 670.27C46.1266 670.202 46.7261 670.131 47.1806 670.057C47.6351 669.977 47.9647 669.866 48.1692 669.724C48.3795 669.577 48.4846 669.369 48.4846 669.102V669.06C48.4846 668.622 48.334 668.284 48.0329 668.045C47.7317 667.807 47.3255 667.688 46.8141 667.688C46.263 667.688 45.8198 667.807 45.4846 668.045C45.1493 668.284 44.9363 668.614 44.8454 669.034L41.0016 668.898C41.1153 668.102 41.4079 667.392 41.8795 666.767C42.3567 666.136 43.0101 665.642 43.8397 665.284C44.6749 664.92 45.6778 664.739 46.8482 664.739C47.6834 664.739 48.4533 664.838 49.1579 665.037C49.8624 665.23 50.4761 665.514 50.9988 665.889C51.5215 666.259 51.9249 666.713 52.209 667.253C52.4988 667.793 52.6437 668.409 52.6437 669.102V678H48.7232V676.176H48.6209C48.388 676.619 48.0897 676.994 47.7261 677.301C47.3681 677.608 46.9448 677.838 46.4562 677.991C45.9732 678.145 45.4278 678.222 44.8198 678.222ZM46.1067 675.494C46.5556 675.494 46.959 675.403 47.317 675.222C47.6806 675.04 47.9704 674.79 48.1863 674.472C48.4022 674.148 48.5101 673.773 48.5101 673.347V672.102C48.3908 672.165 48.2459 672.222 48.0755 672.273C47.9107 672.324 47.7289 672.372 47.53 672.418C47.3312 672.463 47.1266 672.503 46.9164 672.537C46.7062 672.571 46.5045 672.602 46.3113 672.631C45.9192 672.693 45.584 672.79 45.3056 672.92C45.0329 673.051 44.8226 673.222 44.6749 673.432C44.5329 673.636 44.4618 673.881 44.4618 674.165C44.4618 674.597 44.6153 674.926 44.9221 675.153C45.2346 675.381 45.6295 675.494 46.1067 675.494ZM58.8796 660.545V678H54.712V660.545H58.8796ZM65.2199 660.545V678H61.0523V660.545H65.2199ZM73.5119 678.247C72.1426 678.247 70.9608 677.977 69.9665 677.438C68.9778 676.892 68.2165 676.116 67.6824 675.111C67.154 674.099 66.8897 672.898 66.8897 671.506C66.8897 670.153 67.1568 668.972 67.6909 667.96C68.225 666.943 68.9778 666.153 69.9494 665.591C70.921 665.023 72.0659 664.739 73.3841 664.739C74.3159 664.739 75.1682 664.884 75.9409 665.173C76.7136 665.463 77.3812 665.892 77.9437 666.46C78.5062 667.028 78.9437 667.73 79.2562 668.565C79.5687 669.395 79.725 670.347 79.725 671.42V672.46H68.3471V670.04H75.8471C75.8415 669.597 75.7363 669.202 75.5318 668.855C75.3272 668.509 75.046 668.239 74.688 668.045C74.3358 667.847 73.9295 667.747 73.4693 667.747C73.0034 667.747 72.5858 667.852 72.2165 668.062C71.8471 668.267 71.5545 668.548 71.3386 668.906C71.1227 669.259 71.0091 669.659 70.9977 670.108V672.571C70.9977 673.105 71.1028 673.574 71.313 673.977C71.5233 674.375 71.8216 674.685 72.2079 674.906C72.5943 675.128 73.0545 675.239 73.5886 675.239C73.9579 675.239 74.2932 675.187 74.5943 675.085C74.8954 674.983 75.154 674.832 75.3699 674.634C75.5858 674.435 75.7477 674.19 75.8557 673.901L79.6824 674.011C79.5233 674.869 79.1738 675.616 78.6341 676.253C78.1 676.884 77.3983 677.375 76.529 677.727C75.6596 678.074 74.654 678.247 73.5119 678.247ZM88.7627 664.909V667.977H80.5042V664.909H88.7627ZM82.2343 661.773H86.4019V673.884C86.4019 674.139 86.4417 674.347 86.5212 674.506C86.6065 674.659 86.7286 674.77 86.8877 674.838C87.0468 674.901 87.2372 674.932 87.4587 674.932C87.6178 674.932 87.7855 674.918 87.9616 674.889C88.1434 674.855 88.2798 674.827 88.3707 674.804L89.0014 677.812C88.8025 677.869 88.5212 677.94 88.1576 678.026C87.7997 678.111 87.3707 678.165 86.8707 678.188C85.8934 678.233 85.0553 678.119 84.3565 677.847C83.6633 677.568 83.132 677.136 82.7627 676.551C82.3991 675.966 82.223 675.23 82.2343 674.344V661.773ZM101.196 678.247C99.8155 678.247 98.6309 677.963 97.6422 677.395C96.6593 676.827 95.9036 676.037 95.3752 675.026C94.8468 674.009 94.5826 672.832 94.5826 671.497C94.5826 670.156 94.8468 668.98 95.3752 667.969C95.9093 666.952 96.6678 666.159 97.6507 665.591C98.6394 665.023 99.8184 664.739 101.188 664.739C102.398 664.739 103.452 664.957 104.35 665.395C105.253 665.832 105.958 666.452 106.463 667.253C106.975 668.048 107.244 668.983 107.273 670.057H103.378C103.298 669.386 103.071 668.861 102.696 668.48C102.327 668.099 101.844 667.909 101.247 667.909C100.764 667.909 100.341 668.045 99.9774 668.318C99.6138 668.585 99.3297 668.983 99.1252 669.511C98.9263 670.034 98.8269 670.682 98.8269 671.455C98.8269 672.227 98.9263 672.881 99.1252 673.415C99.3297 673.943 99.6138 674.344 99.9774 674.616C100.341 674.884 100.764 675.017 101.247 675.017C101.634 675.017 101.975 674.935 102.27 674.77C102.571 674.605 102.818 674.364 103.012 674.045C103.205 673.722 103.327 673.33 103.378 672.869H107.273C107.233 673.949 106.963 674.892 106.463 675.699C105.969 676.506 105.273 677.134 104.375 677.582C103.483 678.026 102.423 678.247 101.196 678.247ZM112.616 678.222C111.781 678.222 111.039 678.082 110.392 677.804C109.75 677.52 109.241 677.094 108.866 676.526C108.497 675.952 108.312 675.233 108.312 674.369C108.312 673.642 108.44 673.028 108.696 672.528C108.951 672.028 109.304 671.622 109.752 671.31C110.201 670.997 110.718 670.761 111.304 670.602C111.889 670.437 112.514 670.327 113.179 670.27C113.923 670.202 114.522 670.131 114.977 670.057C115.431 669.977 115.761 669.866 115.965 669.724C116.176 669.577 116.281 669.369 116.281 669.102V669.06C116.281 668.622 116.13 668.284 115.829 668.045C115.528 667.807 115.122 667.688 114.61 667.688C114.059 667.688 113.616 667.807 113.281 668.045C112.946 668.284 112.733 668.614 112.642 669.034L108.798 668.898C108.912 668.102 109.204 667.392 109.676 666.767C110.153 666.136 110.806 665.642 111.636 665.284C112.471 664.92 113.474 664.739 114.644 664.739C115.48 664.739 116.25 664.838 116.954 665.037C117.659 665.23 118.272 665.514 118.795 665.889C119.318 666.259 119.721 666.713 120.005 667.253C120.295 667.793 120.44 668.409 120.44 669.102V678H116.519V676.176H116.417C116.184 676.619 115.886 676.994 115.522 677.301C115.164 677.608 114.741 677.838 114.252 677.991C113.769 678.145 113.224 678.222 112.616 678.222ZM113.903 675.494C114.352 675.494 114.755 675.403 115.113 675.222C115.477 675.04 115.767 674.79 115.983 674.472C116.198 674.148 116.306 673.773 116.306 673.347V672.102C116.187 672.165 116.042 672.222 115.872 672.273C115.707 672.324 115.525 672.372 115.326 672.418C115.127 672.463 114.923 672.503 114.713 672.537C114.502 672.571 114.301 672.602 114.108 672.631C113.715 672.693 113.38 672.79 113.102 672.92C112.829 673.051 112.619 673.222 112.471 673.432C112.329 673.636 112.258 673.881 112.258 674.165C112.258 674.597 112.412 674.926 112.718 675.153C113.031 675.381 113.426 675.494 113.903 675.494ZM122.508 678V664.909H126.557V667.295H126.693C126.932 666.432 127.321 665.79 127.86 665.369C128.4 664.943 129.028 664.73 129.744 664.73C129.937 664.73 130.136 664.744 130.341 664.773C130.545 664.795 130.735 664.832 130.912 664.884V668.506C130.713 668.437 130.451 668.384 130.128 668.344C129.809 668.304 129.525 668.284 129.275 668.284C128.781 668.284 128.335 668.395 127.937 668.616C127.545 668.832 127.235 669.136 127.008 669.528C126.787 669.915 126.676 670.369 126.676 670.892V678H122.508ZM136.231 678.188C135.265 678.188 134.388 677.938 133.598 677.438C132.808 676.938 132.177 676.188 131.706 675.188C131.234 674.188 130.998 672.946 130.998 671.463C130.998 669.923 131.243 668.656 131.731 667.662C132.22 666.668 132.859 665.932 133.649 665.455C134.444 664.977 135.3 664.739 136.214 664.739C136.902 664.739 137.49 664.858 137.978 665.097C138.467 665.33 138.871 665.631 139.189 666C139.507 666.369 139.748 666.753 139.913 667.151H139.998V660.545H144.166V678H140.041V675.878H139.913C139.737 676.281 139.487 676.659 139.163 677.011C138.839 677.364 138.433 677.648 137.944 677.864C137.461 678.08 136.89 678.188 136.231 678.188ZM137.68 674.94C138.186 674.94 138.618 674.798 138.976 674.514C139.334 674.224 139.609 673.818 139.802 673.295C139.996 672.773 140.092 672.159 140.092 671.455C140.092 670.739 139.996 670.122 139.802 669.605C139.615 669.088 139.339 668.69 138.976 668.412C138.618 668.134 138.186 667.994 137.68 667.994C137.163 667.994 136.726 668.136 136.368 668.42C136.01 668.705 135.737 669.105 135.55 669.622C135.368 670.139 135.277 670.75 135.277 671.455C135.277 672.159 135.371 672.773 135.558 673.295C135.746 673.818 136.015 674.224 136.368 674.514C136.726 674.798 137.163 674.94 137.68 674.94ZM157.751 668.906L153.924 669.009C153.884 668.736 153.776 668.494 153.6 668.284C153.424 668.068 153.194 667.901 152.91 667.781C152.631 667.656 152.307 667.594 151.938 667.594C151.455 667.594 151.043 667.69 150.702 667.884C150.367 668.077 150.202 668.338 150.208 668.668C150.202 668.923 150.305 669.145 150.515 669.332C150.731 669.52 151.114 669.67 151.665 669.784L154.188 670.261C155.495 670.511 156.467 670.926 157.103 671.506C157.745 672.085 158.069 672.852 158.074 673.807C158.069 674.705 157.802 675.486 157.273 676.151C156.751 676.815 156.035 677.332 155.126 677.702C154.217 678.065 153.177 678.247 152.006 678.247C150.137 678.247 148.663 677.864 147.583 677.097C146.509 676.324 145.896 675.29 145.742 673.994L149.859 673.892C149.949 674.369 150.185 674.733 150.566 674.983C150.947 675.233 151.432 675.358 152.023 675.358C152.557 675.358 152.992 675.259 153.327 675.06C153.663 674.861 153.833 674.597 153.839 674.267C153.833 673.972 153.702 673.736 153.447 673.56C153.191 673.378 152.79 673.236 152.245 673.134L149.961 672.699C148.648 672.46 147.671 672.02 147.029 671.378C146.387 670.73 146.069 669.906 146.074 668.906C146.069 668.031 146.302 667.284 146.773 666.665C147.245 666.04 147.915 665.562 148.785 665.233C149.654 664.903 150.68 664.739 151.861 664.739C153.634 664.739 155.032 665.111 156.055 665.855C157.077 666.594 157.643 667.611 157.751 668.906Z" fill="white"/>
<path opacity="0.5" d="M20.0957 701H17.1383V692.273H20.1553C21.0218 692.273 21.7661 692.447 22.3883 692.797C23.0133 693.143 23.4934 693.642 23.8286 694.293C24.1639 694.943 24.3315 695.722 24.3315 696.628C24.3315 697.537 24.1624 698.318 23.8244 698.972C23.4891 699.625 23.0048 700.126 22.3712 700.476C21.7406 700.825 20.982 701 20.0957 701ZM18.7193 699.632H20.019C20.6269 699.632 21.134 699.521 21.5403 699.3C21.9465 699.075 22.2519 698.741 22.4565 698.298C22.661 697.852 22.7633 697.295 22.7633 696.628C22.7633 695.96 22.661 695.406 22.4565 694.966C22.2519 694.523 21.9494 694.192 21.5488 693.973C21.1511 693.751 20.6568 693.641 20.0658 693.641H18.7193V699.632ZM28.3805 701.128C27.7413 701.128 27.1874 700.987 26.7186 700.706C26.2499 700.425 25.8862 700.031 25.6277 699.526C25.372 699.02 25.2442 698.429 25.2442 697.753C25.2442 697.077 25.372 696.484 25.6277 695.976C25.8862 695.467 26.2499 695.072 26.7186 694.791C27.1874 694.51 27.7413 694.369 28.3805 694.369C29.0197 694.369 29.5737 694.51 30.0425 694.791C30.5112 695.072 30.8734 695.467 31.1291 695.976C31.3876 696.484 31.5169 697.077 31.5169 697.753C31.5169 698.429 31.3876 699.02 31.1291 699.526C30.8734 700.031 30.5112 700.425 30.0425 700.706C29.5737 700.987 29.0197 701.128 28.3805 701.128ZM28.3891 699.892C28.7357 699.892 29.0254 699.797 29.2584 699.607C29.4913 699.413 29.6646 699.155 29.7783 698.831C29.8947 698.507 29.953 698.146 29.953 697.749C29.953 697.348 29.8947 696.986 29.7783 696.662C29.6646 696.335 29.4913 696.075 29.2584 695.882C29.0254 695.689 28.7357 695.592 28.3891 695.592C28.0339 695.592 27.7385 695.689 27.5027 695.882C27.2697 696.075 27.095 696.335 26.9785 696.662C26.8649 696.986 26.8081 697.348 26.8081 697.749C26.8081 698.146 26.8649 698.507 26.9785 698.831C27.095 699.155 27.2697 699.413 27.5027 699.607C27.7385 699.797 28.0339 699.892 28.3891 699.892ZM37.7517 701.115C37.2375 701.115 36.7773 700.983 36.3711 700.719C35.9648 700.455 35.6438 700.071 35.408 699.568C35.1722 699.065 35.0543 698.455 35.0543 697.736C35.0543 697.009 35.1736 696.395 35.4123 695.895C35.6537 695.392 35.979 695.013 36.3881 694.757C36.7972 694.499 37.2532 694.369 37.756 694.369C38.1395 694.369 38.4549 694.435 38.702 694.565C38.9492 694.693 39.1452 694.848 39.2901 695.03C39.435 695.209 39.5472 695.378 39.6267 695.537H39.6907V692.273H41.2375V701H39.7205V699.969H39.6267C39.5472 700.128 39.4321 700.297 39.2816 700.476C39.131 700.652 38.9321 700.803 38.685 700.928C38.4378 701.053 38.1267 701.115 37.7517 701.115ZM38.1821 699.849C38.5088 699.849 38.7873 699.761 39.0174 699.585C39.2475 699.406 39.4222 699.158 39.5415 698.839C39.6608 698.521 39.7205 698.151 39.7205 697.727C39.7205 697.304 39.6608 696.936 39.5415 696.624C39.425 696.311 39.2517 696.068 39.0216 695.895C38.7944 695.722 38.5145 695.635 38.1821 695.635C37.8384 695.635 37.5515 695.724 37.3213 695.903C37.0912 696.082 36.9179 696.33 36.8015 696.645C36.685 696.96 36.6267 697.321 36.6267 697.727C36.6267 698.136 36.685 698.501 36.8015 698.822C36.9208 699.141 37.0955 699.392 37.3256 699.577C37.5586 699.759 37.8441 699.849 38.1821 699.849ZM45.5391 701.128C44.8828 701.128 44.3161 700.991 43.8388 700.719C43.3644 700.443 42.9993 700.054 42.7436 699.551C42.488 699.045 42.3601 698.45 42.3601 697.766C42.3601 697.092 42.488 696.501 42.7436 695.993C43.0022 695.482 43.363 695.084 43.826 694.8C44.2891 694.513 44.8331 694.369 45.4581 694.369C45.8615 694.369 46.2422 694.435 46.6002 694.565C46.961 694.693 47.2791 694.892 47.5547 695.162C47.8331 695.432 48.0519 695.776 48.211 696.193C48.3701 696.608 48.4496 697.102 48.4496 697.676V698.149H43.0845V697.109H46.9709C46.9681 696.814 46.9041 696.551 46.7791 696.321C46.6541 696.088 46.4794 695.905 46.255 695.771C46.0334 695.638 45.7749 695.571 45.4794 695.571C45.1641 695.571 44.8871 695.648 44.6485 695.801C44.4098 695.952 44.2237 696.151 44.0902 696.398C43.9595 696.642 43.8928 696.911 43.8899 697.203V698.111C43.8899 698.491 43.9595 698.818 44.0987 699.091C44.238 699.361 44.4326 699.568 44.6826 699.713C44.9326 699.855 45.2252 699.926 45.5604 699.926C45.7848 699.926 45.988 699.895 46.1698 699.832C46.3516 699.767 46.5093 699.672 46.6428 699.547C46.7763 699.422 46.8772 699.267 46.9453 699.082L48.3857 699.244C48.2948 699.625 48.1215 699.957 47.8658 700.241C47.613 700.523 47.2891 700.741 46.8942 700.898C46.4993 701.051 46.0476 701.128 45.5391 701.128ZM49.5146 703.455V694.455H51.0317V695.537H51.1212C51.2007 695.378 51.3129 695.209 51.4578 695.03C51.6027 694.848 51.7987 694.693 52.0459 694.565C52.293 694.435 52.6084 694.369 52.9919 694.369C53.4976 694.369 53.9536 694.499 54.3598 694.757C54.7689 695.013 55.0928 695.392 55.3314 695.895C55.5729 696.395 55.6936 697.009 55.6936 697.736C55.6936 698.455 55.5757 699.065 55.3399 699.568C55.1041 700.071 54.7831 700.455 54.3769 700.719C53.9706 700.983 53.5104 701.115 52.9962 701.115C52.6212 701.115 52.3101 701.053 52.0629 700.928C51.8158 700.803 51.6169 700.652 51.4663 700.476C51.3186 700.297 51.2036 700.128 51.1212 699.969H51.0573V703.455H49.5146ZM51.0274 697.727C51.0274 698.151 51.0871 698.521 51.2064 698.839C51.3286 699.158 51.5033 699.406 51.7305 699.585C51.9607 699.761 52.2391 699.849 52.5658 699.849C52.9067 699.849 53.1922 699.759 53.4223 699.577C53.6524 699.392 53.8257 699.141 53.9422 698.822C54.0615 698.501 54.1212 698.136 54.1212 697.727C54.1212 697.321 54.0629 696.96 53.9465 696.645C53.83 696.33 53.6567 696.082 53.4266 695.903C53.1965 695.724 52.9095 695.635 52.5658 695.635C52.2362 695.635 51.9564 695.722 51.7263 695.895C51.4962 696.068 51.3215 696.311 51.2021 696.624C51.0857 696.936 51.0274 697.304 51.0274 697.727ZM59.6298 701.128C58.9906 701.128 58.4366 700.987 57.9678 700.706C57.4991 700.425 57.1354 700.031 56.8769 699.526C56.6212 699.02 56.4934 698.429 56.4934 697.753C56.4934 697.077 56.6212 696.484 56.8769 695.976C57.1354 695.467 57.4991 695.072 57.9678 694.791C58.4366 694.51 58.9906 694.369 59.6298 694.369C60.269 694.369 60.8229 694.51 61.2917 694.791C61.7604 695.072 62.1227 695.467 62.3783 695.976C62.6369 696.484 62.7661 697.077 62.7661 697.753C62.7661 698.429 62.6369 699.02 62.3783 699.526C62.1227 700.031 61.7604 700.425 61.2917 700.706C60.8229 700.987 60.269 701.128 59.6298 701.128ZM59.6383 699.892C59.9849 699.892 60.2746 699.797 60.5076 699.607C60.7406 699.413 60.9138 699.155 61.0275 698.831C61.144 698.507 61.2022 698.146 61.2022 697.749C61.2022 697.348 61.144 696.986 61.0275 696.662C60.9138 696.335 60.7406 696.075 60.5076 695.882C60.2746 695.689 59.9849 695.592 59.6383 695.592C59.2832 695.592 58.9877 695.689 58.7519 695.882C58.519 696.075 58.3442 696.335 58.2278 696.662C58.1141 696.986 58.0573 697.348 58.0573 697.749C58.0573 698.146 58.1141 698.507 58.2278 698.831C58.3442 699.155 58.519 699.413 58.7519 699.607C58.9877 699.797 59.2832 699.892 59.6383 699.892ZM69.0087 696.185L67.6025 696.338C67.5627 696.196 67.4931 696.062 67.3937 695.938C67.2971 695.812 67.1664 695.712 67.0016 695.635C66.8368 695.558 66.6351 695.52 66.3965 695.52C66.0755 695.52 65.8056 695.589 65.5868 695.729C65.3709 695.868 65.2644 696.048 65.2672 696.27C65.2644 696.46 65.334 696.615 65.476 696.734C65.6209 696.854 65.8596 696.952 66.192 697.028L67.3084 697.267C67.9278 697.401 68.388 697.612 68.6891 697.902C68.9931 698.192 69.1465 698.571 69.1493 699.04C69.1465 699.452 69.0258 699.815 68.7871 700.131C68.5513 700.443 68.2232 700.687 67.8028 700.864C67.3823 701.04 66.8993 701.128 66.3539 701.128C65.5528 701.128 64.9079 700.96 64.4192 700.625C63.9306 700.287 63.6394 699.817 63.5456 699.214L65.0499 699.07C65.1181 699.365 65.263 699.588 65.4846 699.739C65.7062 699.889 65.9945 699.964 66.3496 699.964C66.7161 699.964 67.0101 699.889 67.2317 699.739C67.4562 699.588 67.5684 699.402 67.5684 699.18C67.5684 698.993 67.4959 698.838 67.351 698.716C67.209 698.594 66.9874 698.5 66.6863 698.435L65.5698 698.2C64.942 698.07 64.4775 697.849 64.1763 697.54C63.8752 697.227 63.726 696.832 63.7289 696.355C63.726 695.952 63.8354 695.602 64.057 695.307C64.2814 695.009 64.5925 694.778 64.9903 694.616C65.3908 694.452 65.8525 694.369 66.3752 694.369C67.1422 694.369 67.7459 694.533 68.1863 694.859C68.6295 695.186 68.9036 695.628 69.0087 696.185ZM70.1814 701V694.455H71.724V701H70.1814ZM70.9569 693.526C70.7126 693.526 70.5024 693.445 70.3262 693.283C70.1501 693.118 70.062 692.92 70.062 692.69C70.062 692.457 70.1501 692.26 70.3262 692.098C70.5024 691.933 70.7126 691.851 70.9569 691.851C71.2041 691.851 71.4143 691.933 71.5876 692.098C71.7637 692.26 71.8518 692.457 71.8518 692.69C71.8518 692.92 71.7637 693.118 71.5876 693.283C71.4143 693.445 71.2041 693.526 70.9569 693.526ZM76.3387 694.455V695.648H72.5759V694.455H76.3387ZM73.5049 692.886H75.0475V699.031C75.0475 699.239 75.0788 699.398 75.1413 699.509C75.2066 699.616 75.2919 699.69 75.397 699.73C75.5021 699.77 75.6186 699.79 75.7464 699.79C75.843 699.79 75.9311 699.783 76.0106 699.768C76.093 699.754 76.1555 699.741 76.1981 699.73L76.4581 700.936C76.3757 700.964 76.2578 700.996 76.1044 701.03C75.9538 701.064 75.7691 701.084 75.5504 701.089C75.164 701.101 74.816 701.043 74.5063 700.915C74.1967 700.784 73.9509 700.582 73.7691 700.31C73.5902 700.037 73.5021 699.696 73.5049 699.287V692.886ZM82.4684 696.185L81.0622 696.338C81.0224 696.196 80.9528 696.062 80.8533 695.938C80.7568 695.812 80.6261 695.712 80.4613 695.635C80.2965 695.558 80.0948 695.52 79.8562 695.52C79.5352 695.52 79.2653 695.589 79.0465 695.729C78.8306 695.868 78.7241 696.048 78.7269 696.27C78.7241 696.46 78.7937 696.615 78.9357 696.734C79.0806 696.854 79.3193 696.952 79.6516 697.028L80.7681 697.267C81.3874 697.401 81.8477 697.612 82.1488 697.902C82.4528 698.192 82.6062 698.571 82.609 699.04C82.6062 699.452 82.4854 699.815 82.2468 700.131C82.011 700.443 81.6829 700.687 81.2624 700.864C80.842 701.04 80.359 701.128 79.8136 701.128C79.0124 701.128 78.3676 700.96 77.8789 700.625C77.3903 700.287 77.0991 699.817 77.0053 699.214L78.5096 699.07C78.5778 699.365 78.7227 699.588 78.9443 699.739C79.1658 699.889 79.4542 699.964 79.8093 699.964C80.1758 699.964 80.4698 699.889 80.6914 699.739C80.9158 699.588 81.0281 699.402 81.0281 699.18C81.0281 698.993 80.9556 698.838 80.8107 698.716C80.6687 698.594 80.4471 698.5 80.146 698.435L79.0295 698.2C78.4016 698.07 77.9372 697.849 77.636 697.54C77.3349 697.227 77.1857 696.832 77.1886 696.355C77.1857 695.952 77.2951 695.602 77.5167 695.307C77.7411 695.009 78.0522 694.778 78.4499 694.616C78.8505 694.452 79.3122 694.369 79.8349 694.369C80.6019 694.369 81.2056 694.533 81.646 694.859C82.0891 695.186 82.3633 695.628 82.4684 696.185ZM88.2611 701.132C87.8464 701.132 87.4728 701.058 87.1404 700.911C86.8109 700.76 86.5495 700.538 86.3563 700.246C86.166 699.953 86.0708 699.592 86.0708 699.163C86.0708 698.794 86.139 698.489 86.2753 698.247C86.4117 698.006 86.5978 697.812 86.8336 697.668C87.0694 697.523 87.335 697.413 87.6305 697.339C87.9287 697.263 88.237 697.207 88.5552 697.173C88.9387 697.134 89.2498 697.098 89.4884 697.067C89.727 697.033 89.9003 696.982 90.0083 696.913C90.1191 696.842 90.1745 696.733 90.1745 696.585V696.56C90.1745 696.239 90.0793 695.99 89.889 695.814C89.6986 695.638 89.4245 695.55 89.0665 695.55C88.6887 695.55 88.389 695.632 88.1674 695.797C87.9486 695.962 87.8009 696.156 87.7242 696.381L86.2839 696.176C86.3975 695.778 86.585 695.446 86.8464 695.179C87.1077 694.909 87.4273 694.707 87.8052 694.574C88.183 694.438 88.6006 694.369 89.058 694.369C89.3734 694.369 89.6873 694.406 89.9998 694.48C90.3123 694.554 90.5978 694.676 90.8563 694.847C91.1148 695.014 91.3222 695.243 91.4785 695.533C91.6376 695.822 91.7171 696.185 91.7171 696.619V701H90.2341V700.101H90.183C90.0893 700.283 89.9572 700.453 89.7867 700.612C89.6191 700.768 89.4074 700.895 89.1518 700.991C88.8989 701.085 88.602 701.132 88.2611 701.132ZM88.6617 699.999C88.9714 699.999 89.2398 699.937 89.4671 699.815C89.6944 699.69 89.8691 699.526 89.9912 699.321C90.1162 699.116 90.1787 698.893 90.1787 698.652V697.881C90.1305 697.92 90.0481 697.957 89.9316 697.991C89.818 698.026 89.6901 698.055 89.5481 698.081C89.406 698.107 89.2654 698.129 89.1262 698.149C88.987 698.169 88.8662 698.186 88.764 698.2C88.5339 698.232 88.3279 698.283 88.1461 698.354C87.9643 698.425 87.8208 698.524 87.7157 698.652C87.6106 698.777 87.558 698.939 87.558 699.138C87.558 699.422 87.6617 699.636 87.8691 699.781C88.0765 699.926 88.3407 699.999 88.6617 699.999ZM94.5708 697.165V701H93.0282V694.455H94.5027V695.567H94.5794C94.7299 695.2 94.97 694.909 95.2995 694.693C95.6319 694.477 96.0424 694.369 96.5311 694.369C96.9828 694.369 97.3762 694.466 97.7115 694.659C98.0495 694.852 98.3109 695.132 98.4956 695.499C98.6831 695.865 98.7754 696.31 98.7726 696.832V701H97.2299V697.071C97.2299 696.634 97.1163 696.291 96.889 696.044C96.6646 695.797 96.3535 695.673 95.9558 695.673C95.6859 695.673 95.4458 695.733 95.2356 695.852C95.0282 695.969 94.8649 696.138 94.7456 696.359C94.6291 696.581 94.5708 696.849 94.5708 697.165ZM102.53 701.115C102.016 701.115 101.555 700.983 101.149 700.719C100.743 700.455 100.422 700.071 100.186 699.568C99.9502 699.065 99.8323 698.455 99.8323 697.736C99.8323 697.009 99.9516 696.395 100.19 695.895C100.432 695.392 100.757 695.013 101.166 694.757C101.575 694.499 102.031 694.369 102.534 694.369C102.917 694.369 103.233 694.435 103.48 694.565C103.727 694.693 103.923 694.848 104.068 695.03C104.213 695.209 104.325 695.378 104.405 695.537H104.469V692.273H106.016V701H104.498V699.969H104.405C104.325 700.128 104.21 700.297 104.06 700.476C103.909 700.652 103.71 700.803 103.463 700.928C103.216 701.053 102.905 701.115 102.53 701.115ZM102.96 699.849C103.287 699.849 103.565 699.761 103.795 699.585C104.025 699.406 104.2 699.158 104.319 698.839C104.439 698.521 104.498 698.151 104.498 697.727C104.498 697.304 104.439 696.936 104.319 696.624C104.203 696.311 104.03 696.068 103.8 695.895C103.572 695.722 103.292 695.635 102.96 695.635C102.616 695.635 102.329 695.724 102.099 695.903C101.869 696.082 101.696 696.33 101.579 696.645C101.463 696.96 101.405 697.321 101.405 697.727C101.405 698.136 101.463 698.501 101.579 698.822C101.699 699.141 101.873 699.392 102.104 699.577C102.337 699.759 102.622 699.849 102.96 699.849ZM114.328 698.247V694.455H115.87V701H114.375V699.837H114.306C114.159 700.203 113.916 700.503 113.578 700.736C113.243 700.969 112.829 701.085 112.338 701.085C111.909 701.085 111.529 700.99 111.2 700.8C110.873 700.607 110.618 700.327 110.433 699.96C110.248 699.591 110.156 699.145 110.156 698.622V694.455H111.699V698.384C111.699 698.798 111.812 699.128 112.039 699.372C112.267 699.616 112.565 699.739 112.934 699.739C113.162 699.739 113.382 699.683 113.595 699.572C113.808 699.462 113.983 699.297 114.119 699.078C114.258 698.857 114.328 698.58 114.328 698.247ZM117.217 703.455V694.455H118.734V695.537H118.823C118.903 695.378 119.015 695.209 119.16 695.03C119.305 694.848 119.501 694.693 119.748 694.565C119.995 694.435 120.31 694.369 120.694 694.369C121.2 694.369 121.656 694.499 122.062 694.757C122.471 695.013 122.795 695.392 123.033 695.895C123.275 696.395 123.396 697.009 123.396 697.736C123.396 698.455 123.278 699.065 123.042 699.568C122.806 700.071 122.485 700.455 122.079 700.719C121.673 700.983 121.212 701.115 120.698 701.115C120.323 701.115 120.012 701.053 119.765 700.928C119.518 700.803 119.319 700.652 119.168 700.476C119.021 700.297 118.906 700.128 118.823 699.969H118.759V703.455H117.217ZM118.729 697.727C118.729 698.151 118.789 698.521 118.908 698.839C119.031 699.158 119.205 699.406 119.433 699.585C119.663 699.761 119.941 699.849 120.268 699.849C120.609 699.849 120.894 699.759 121.124 699.577C121.354 699.392 121.528 699.141 121.644 698.822C121.764 698.501 121.823 698.136 121.823 697.727C121.823 697.321 121.765 696.96 121.648 696.645C121.532 696.33 121.359 696.082 121.129 695.903C120.898 695.724 120.612 695.635 120.268 695.635C119.938 695.635 119.658 695.722 119.428 695.895C119.198 696.068 119.023 696.311 118.904 696.624C118.788 696.936 118.729 697.304 118.729 697.727ZM127.323 703.591C126.769 703.591 126.293 703.516 125.896 703.365C125.498 703.217 125.178 703.018 124.937 702.768C124.695 702.518 124.528 702.241 124.434 701.938L125.823 701.601C125.886 701.729 125.977 701.855 126.096 701.98C126.215 702.108 126.376 702.213 126.578 702.295C126.782 702.381 127.039 702.423 127.349 702.423C127.786 702.423 128.149 702.317 128.435 702.104C128.722 701.893 128.866 701.547 128.866 701.064V699.824H128.789C128.71 699.983 128.593 700.146 128.44 700.314C128.289 700.482 128.089 700.622 127.839 700.736C127.592 700.849 127.281 700.906 126.906 700.906C126.403 700.906 125.947 700.788 125.538 700.553C125.132 700.314 124.808 699.959 124.566 699.487C124.328 699.013 124.208 698.419 124.208 697.706C124.208 696.987 124.328 696.381 124.566 695.886C124.808 695.389 125.133 695.013 125.542 694.757C125.951 694.499 126.407 694.369 126.91 694.369C127.293 694.369 127.609 694.435 127.856 694.565C128.106 694.693 128.305 694.848 128.453 695.03C128.6 695.209 128.712 695.378 128.789 695.537H128.874V694.455H130.396V701.107C130.396 701.666 130.262 702.129 129.995 702.496C129.728 702.862 129.363 703.136 128.9 703.318C128.437 703.5 127.911 703.591 127.323 703.591ZM127.336 699.696C127.663 699.696 127.941 699.616 128.171 699.457C128.401 699.298 128.576 699.07 128.695 698.771C128.815 698.473 128.874 698.115 128.874 697.697C128.874 697.286 128.815 696.925 128.695 696.615C128.579 696.305 128.406 696.065 128.176 695.895C127.948 695.722 127.668 695.635 127.336 695.635C126.992 695.635 126.705 695.724 126.475 695.903C126.245 696.082 126.072 696.328 125.955 696.641C125.839 696.95 125.781 697.303 125.781 697.697C125.781 698.098 125.839 698.449 125.955 698.75C126.075 699.048 126.249 699.281 126.48 699.449C126.712 699.614 126.998 699.696 127.336 699.696ZM131.737 701V694.455H133.232V695.545H133.301C133.42 695.168 133.624 694.876 133.914 694.672C134.207 694.464 134.541 694.361 134.916 694.361C135.001 694.361 135.096 694.365 135.201 694.374C135.309 694.379 135.399 694.389 135.47 694.403V695.822C135.404 695.8 135.301 695.78 135.159 695.763C135.019 695.743 134.884 695.733 134.754 695.733C134.472 695.733 134.22 695.794 133.995 695.916C133.774 696.036 133.599 696.202 133.471 696.415C133.343 696.628 133.279 696.874 133.279 697.152V701H131.737ZM138.021 701.132C137.606 701.132 137.232 701.058 136.9 700.911C136.571 700.76 136.309 700.538 136.116 700.246C135.926 699.953 135.83 699.592 135.83 699.163C135.83 698.794 135.899 698.489 136.035 698.247C136.171 698.006 136.357 697.812 136.593 697.668C136.829 697.523 137.095 697.413 137.39 697.339C137.688 697.263 137.997 697.207 138.315 697.173C138.698 697.134 139.009 697.098 139.248 697.067C139.487 697.033 139.66 696.982 139.768 696.913C139.879 696.842 139.934 696.733 139.934 696.585V696.56C139.934 696.239 139.839 695.99 139.649 695.814C139.458 695.638 139.184 695.55 138.826 695.55C138.448 695.55 138.149 695.632 137.927 695.797C137.708 695.962 137.561 696.156 137.484 696.381L136.044 696.176C136.157 695.778 136.345 695.446 136.606 695.179C136.867 694.909 137.187 694.707 137.565 694.574C137.943 694.438 138.36 694.369 138.818 694.369C139.133 694.369 139.447 694.406 139.759 694.48C140.072 694.554 140.357 694.676 140.616 694.847C140.875 695.014 141.082 695.243 141.238 695.533C141.397 695.822 141.477 696.185 141.477 696.619V701H139.994V700.101H139.943C139.849 700.283 139.717 700.453 139.546 700.612C139.379 700.768 139.167 700.895 138.911 700.991C138.659 701.085 138.362 701.132 138.021 701.132ZM138.421 699.999C138.731 699.999 139 699.937 139.227 699.815C139.454 699.69 139.629 699.526 139.751 699.321C139.876 699.116 139.938 698.893 139.938 698.652V697.881C139.89 697.92 139.808 697.957 139.691 697.991C139.578 698.026 139.45 698.055 139.308 698.081C139.166 698.107 139.025 698.129 138.886 698.149C138.747 698.169 138.626 698.186 138.524 698.2C138.294 698.232 138.088 698.283 137.906 698.354C137.724 698.425 137.58 698.524 137.475 698.652C137.37 698.777 137.318 698.939 137.318 699.138C137.318 699.422 137.421 699.636 137.629 699.781C137.836 699.926 138.1 699.999 138.421 699.999ZM145.217 701.115C144.703 701.115 144.242 700.983 143.836 700.719C143.43 700.455 143.109 700.071 142.873 699.568C142.637 699.065 142.519 698.455 142.519 697.736C142.519 697.009 142.639 696.395 142.877 695.895C143.119 695.392 143.444 695.013 143.853 694.757C144.262 694.499 144.718 694.369 145.221 694.369C145.605 694.369 145.92 694.435 146.167 694.565C146.414 694.693 146.61 694.848 146.755 695.03C146.9 695.209 147.012 695.378 147.092 695.537H147.156V692.273H148.703V701H147.186V699.969H147.092C147.012 700.128 146.897 700.297 146.747 700.476C146.596 700.652 146.397 700.803 146.15 700.928C145.903 701.053 145.592 701.115 145.217 701.115ZM145.647 699.849C145.974 699.849 146.252 699.761 146.483 699.585C146.713 699.406 146.887 699.158 147.007 698.839C147.126 698.521 147.186 698.151 147.186 697.727C147.186 697.304 147.126 696.936 147.007 696.624C146.89 696.311 146.717 696.068 146.487 695.895C146.26 695.722 145.98 695.635 145.647 695.635C145.304 695.635 145.017 695.724 144.787 695.903C144.556 696.082 144.383 696.33 144.267 696.645C144.15 696.96 144.092 697.321 144.092 697.727C144.092 698.136 144.15 698.501 144.267 698.822C144.386 699.141 144.561 699.392 144.791 699.577C145.024 699.759 145.309 699.849 145.647 699.849ZM153.004 701.128C152.348 701.128 151.781 700.991 151.304 700.719C150.83 700.443 150.464 700.054 150.209 699.551C149.953 699.045 149.825 698.45 149.825 697.766C149.825 697.092 149.953 696.501 150.209 695.993C150.467 695.482 150.828 695.084 151.291 694.8C151.754 694.513 152.298 694.369 152.923 694.369C153.327 694.369 153.707 694.435 154.065 694.565C154.426 694.693 154.744 694.892 155.02 695.162C155.298 695.432 155.517 695.776 155.676 696.193C155.835 696.608 155.915 697.102 155.915 697.676V698.149H150.55V697.109H154.436C154.433 696.814 154.369 696.551 154.244 696.321C154.119 696.088 153.945 695.905 153.72 695.771C153.499 695.638 153.24 695.571 152.945 695.571C152.629 695.571 152.352 695.648 152.114 695.801C151.875 695.952 151.689 696.151 151.555 696.398C151.425 696.642 151.358 696.911 151.355 697.203V698.111C151.355 698.491 151.425 698.818 151.564 699.091C151.703 699.361 151.898 699.568 152.148 699.713C152.398 699.855 152.69 699.926 153.026 699.926C153.25 699.926 153.453 699.895 153.635 699.832C153.817 699.767 153.974 699.672 154.108 699.547C154.241 699.422 154.342 699.267 154.41 699.082L155.851 699.244C155.76 699.625 155.587 699.957 155.331 700.241C155.078 700.523 154.754 700.741 154.359 700.898C153.964 701.051 153.513 701.128 153.004 701.128ZM160.675 703.455C160.465 703.455 160.27 703.438 160.091 703.403C159.915 703.372 159.775 703.335 159.669 703.293L160.027 702.091C160.252 702.156 160.452 702.188 160.628 702.185C160.804 702.182 160.959 702.126 161.093 702.018C161.229 701.913 161.344 701.737 161.438 701.49L161.57 701.136L159.196 694.455H160.833L162.341 699.398H162.41L163.922 694.455H165.563L162.942 701.793C162.82 702.139 162.658 702.436 162.456 702.683C162.255 702.933 162.008 703.124 161.715 703.254C161.425 703.388 161.079 703.455 160.675 703.455ZM169.023 701.128C168.384 701.128 167.83 700.987 167.361 700.706C166.892 700.425 166.529 700.031 166.27 699.526C166.014 699.02 165.887 698.429 165.887 697.753C165.887 697.077 166.014 696.484 166.27 695.976C166.529 695.467 166.892 695.072 167.361 694.791C167.83 694.51 168.384 694.369 169.023 694.369C169.662 694.369 170.216 694.51 170.685 694.791C171.154 695.072 171.516 695.467 171.771 695.976C172.03 696.484 172.159 697.077 172.159 697.753C172.159 698.429 172.03 699.02 171.771 699.526C171.516 700.031 171.154 700.425 170.685 700.706C170.216 700.987 169.662 701.128 169.023 701.128ZM169.031 699.892C169.378 699.892 169.668 699.797 169.901 699.607C170.134 699.413 170.307 699.155 170.421 698.831C170.537 698.507 170.595 698.146 170.595 697.749C170.595 697.348 170.537 696.986 170.421 696.662C170.307 696.335 170.134 696.075 169.901 695.882C169.668 695.689 169.378 695.592 169.031 695.592C168.676 695.592 168.381 695.689 168.145 695.882C167.912 696.075 167.737 696.335 167.621 696.662C167.507 696.986 167.45 697.348 167.45 697.749C167.45 698.146 167.507 698.507 167.621 698.831C167.737 699.155 167.912 699.413 168.145 699.607C168.381 699.797 168.676 699.892 169.031 699.892ZM177.4 698.247V694.455H178.943V701H177.447V699.837H177.379C177.231 700.203 176.988 700.503 176.65 700.736C176.315 700.969 175.902 701.085 175.41 701.085C174.981 701.085 174.602 700.99 174.273 700.8C173.946 700.607 173.69 700.327 173.506 699.96C173.321 699.591 173.229 699.145 173.229 698.622V694.455H174.771V698.384C174.771 698.798 174.885 699.128 175.112 699.372C175.339 699.616 175.638 699.739 176.007 699.739C176.234 699.739 176.454 699.683 176.667 699.572C176.881 699.462 177.055 699.297 177.192 699.078C177.331 698.857 177.4 698.58 177.4 698.247ZM185.881 701.128C185.228 701.128 184.667 700.984 184.198 700.697C183.732 700.411 183.372 700.014 183.12 699.509C182.87 699 182.745 698.415 182.745 697.753C182.745 697.088 182.872 696.501 183.128 695.993C183.384 695.482 183.745 695.084 184.211 694.8C184.679 694.513 185.233 694.369 185.872 694.369C186.404 694.369 186.874 694.467 187.283 694.663C187.695 694.857 188.023 695.131 188.267 695.486C188.512 695.838 188.651 696.25 188.685 696.722H187.211C187.151 696.406 187.009 696.143 186.784 695.933C186.563 695.72 186.266 695.614 185.894 695.614C185.578 695.614 185.301 695.699 185.063 695.869C184.824 696.037 184.638 696.278 184.505 696.594C184.374 696.909 184.309 697.287 184.309 697.727C184.309 698.173 184.374 698.557 184.505 698.878C184.635 699.196 184.819 699.442 185.054 699.615C185.293 699.786 185.573 699.871 185.894 699.871C186.121 699.871 186.324 699.828 186.503 699.743C186.685 699.655 186.837 699.528 186.959 699.364C187.081 699.199 187.165 698.999 187.211 698.763H188.685C188.648 699.226 188.512 699.636 188.276 699.994C188.04 700.349 187.719 700.628 187.313 700.83C186.907 701.028 186.429 701.128 185.881 701.128ZM191.595 701.132C191.18 701.132 190.807 701.058 190.474 700.911C190.145 700.76 189.884 700.538 189.69 700.246C189.5 699.953 189.405 699.592 189.405 699.163C189.405 698.794 189.473 698.489 189.609 698.247C189.746 698.006 189.932 697.812 190.168 697.668C190.403 697.523 190.669 697.413 190.965 697.339C191.263 697.263 191.571 697.207 191.889 697.173C192.273 697.134 192.584 697.098 192.822 697.067C193.061 697.033 193.234 696.982 193.342 696.913C193.453 696.842 193.509 696.733 193.509 696.585V696.56C193.509 696.239 193.413 695.99 193.223 695.814C193.033 695.638 192.759 695.55 192.401 695.55C192.023 695.55 191.723 695.632 191.501 695.797C191.283 695.962 191.135 696.156 191.058 696.381L189.618 696.176C189.732 695.778 189.919 695.446 190.18 695.179C190.442 694.909 190.761 694.707 191.139 694.574C191.517 694.438 191.935 694.369 192.392 694.369C192.707 694.369 193.021 694.406 193.334 694.48C193.646 694.554 193.932 694.676 194.19 694.847C194.449 695.014 194.656 695.243 194.813 695.533C194.972 695.822 195.051 696.185 195.051 696.619V701H193.568V700.101H193.517C193.423 700.283 193.291 700.453 193.121 700.612C192.953 700.768 192.741 700.895 192.486 700.991C192.233 701.085 191.936 701.132 191.595 701.132ZM191.996 699.999C192.305 699.999 192.574 699.937 192.801 699.815C193.028 699.69 193.203 699.526 193.325 699.321C193.45 699.116 193.513 698.893 193.513 698.652V697.881C193.465 697.92 193.382 697.957 193.266 697.991C193.152 698.026 193.024 698.055 192.882 698.081C192.74 698.107 192.599 698.129 192.46 698.149C192.321 698.169 192.2 698.186 192.098 698.2C191.868 698.232 191.662 698.283 191.48 698.354C191.298 698.425 191.155 698.524 191.05 698.652C190.945 698.777 190.892 698.939 190.892 699.138C190.892 699.422 190.996 699.636 191.203 699.781C191.411 699.926 191.675 699.999 191.996 699.999ZM196.362 701V694.455H197.858V695.545H197.926C198.046 695.168 198.25 694.876 198.54 694.672C198.832 694.464 199.166 694.361 199.541 694.361C199.627 694.361 199.722 694.365 199.827 694.374C199.935 694.379 200.024 694.389 200.095 694.403V695.822C200.03 695.8 199.926 695.78 199.784 695.763C199.645 695.743 199.51 695.733 199.379 695.733C199.098 695.733 198.845 695.794 198.621 695.916C198.399 696.036 198.225 696.202 198.097 696.415C197.969 696.628 197.905 696.874 197.905 697.152V701H196.362ZM203.04 701.115C202.525 701.115 202.065 700.983 201.659 700.719C201.253 700.455 200.932 700.071 200.696 699.568C200.46 699.065 200.342 698.455 200.342 697.736C200.342 697.009 200.461 696.395 200.7 695.895C200.942 695.392 201.267 695.013 201.676 694.757C202.085 694.499 202.541 694.369 203.044 694.369C203.427 694.369 203.743 694.435 203.99 694.565C204.237 694.693 204.433 694.848 204.578 695.03C204.723 695.209 204.835 695.378 204.915 695.537H204.978V692.273H206.525V701H205.008V699.969H204.915C204.835 700.128 204.72 700.297 204.569 700.476C204.419 700.652 204.22 700.803 203.973 700.928C203.726 701.053 203.415 701.115 203.04 701.115ZM203.47 699.849C203.797 699.849 204.075 699.761 204.305 699.585C204.535 699.406 204.71 699.158 204.829 698.839C204.949 698.521 205.008 698.151 205.008 697.727C205.008 697.304 204.949 696.936 204.829 696.624C204.713 696.311 204.54 696.068 204.309 695.895C204.082 695.722 203.802 695.635 203.47 695.635C203.126 695.635 202.839 695.724 202.609 695.903C202.379 696.082 202.206 696.33 202.089 696.645C201.973 696.96 201.915 697.321 201.915 697.727C201.915 698.136 201.973 698.501 202.089 698.822C202.209 699.141 202.383 699.392 202.613 699.577C202.846 699.759 203.132 699.849 203.47 699.849ZM213.102 696.185L211.696 696.338C211.656 696.196 211.587 696.062 211.487 695.938C211.391 695.812 211.26 695.712 211.095 695.635C210.931 695.558 210.729 695.52 210.49 695.52C210.169 695.52 209.899 695.589 209.681 695.729C209.465 695.868 209.358 696.048 209.361 696.27C209.358 696.46 209.428 696.615 209.57 696.734C209.715 696.854 209.953 696.952 210.286 697.028L211.402 697.267C212.022 697.401 212.482 697.612 212.783 697.902C213.087 698.192 213.24 698.571 213.243 699.04C213.24 699.452 213.12 699.815 212.881 700.131C212.645 700.443 212.317 700.687 211.897 700.864C211.476 701.04 210.993 701.128 210.448 701.128C209.647 701.128 209.002 700.96 208.513 700.625C208.024 700.287 207.733 699.817 207.639 699.214L209.144 699.07C209.212 699.365 209.357 699.588 209.578 699.739C209.8 699.889 210.088 699.964 210.443 699.964C210.81 699.964 211.104 699.889 211.325 699.739C211.55 699.588 211.662 699.402 211.662 699.18C211.662 698.993 211.59 698.838 211.445 698.716C211.303 698.594 211.081 698.5 210.78 698.435L209.664 698.2C209.036 698.07 208.571 697.849 208.27 697.54C207.969 697.227 207.82 696.832 207.823 696.355C207.82 695.952 207.929 695.602 208.151 695.307C208.375 695.009 208.686 694.778 209.084 694.616C209.485 694.452 209.946 694.369 210.469 694.369C211.236 694.369 211.84 694.533 212.28 694.859C212.723 695.186 212.997 695.628 213.102 696.185Z" fill="white"/>
<path d="M16 771C16 757.745 26.7452 747 40 747H350C363.255 747 374 757.745 374 771V775C374 788.255 363.255 799 350 799H40C26.7452 799 16 788.255 16 775V771Z" fill="#C4FF00"/>
<path d="M187.935 766.864V778.5H185.81L180.748 771.176H180.663V778.5H178.202V766.864H180.361L185.384 774.182H185.486V766.864H187.935ZM193.58 778.67C192.682 778.67 191.909 778.489 191.262 778.125C190.618 777.758 190.121 777.239 189.773 776.568C189.424 775.894 189.25 775.097 189.25 774.176C189.25 773.278 189.424 772.491 189.773 771.812C190.121 771.134 190.612 770.606 191.245 770.227C191.881 769.848 192.627 769.659 193.483 769.659C194.059 769.659 194.595 769.752 195.091 769.938C195.591 770.119 196.027 770.394 196.398 770.761C196.773 771.129 197.065 771.591 197.273 772.148C197.481 772.701 197.585 773.348 197.585 774.091V774.756H190.216V773.256H195.307C195.307 772.907 195.231 772.598 195.08 772.33C194.928 772.061 194.718 771.85 194.449 771.699C194.184 771.544 193.875 771.466 193.523 771.466C193.156 771.466 192.83 771.551 192.546 771.722C192.265 771.888 192.046 772.114 191.887 772.398C191.727 772.678 191.646 772.991 191.642 773.335V774.761C191.642 775.193 191.722 775.566 191.881 775.881C192.044 776.195 192.273 776.438 192.568 776.608C192.864 776.778 193.214 776.864 193.62 776.864C193.888 776.864 194.135 776.826 194.358 776.75C194.582 776.674 194.773 776.561 194.932 776.409C195.091 776.258 195.212 776.072 195.296 775.852L197.534 776C197.421 776.538 197.188 777.008 196.835 777.409C196.487 777.807 196.036 778.117 195.483 778.341C194.934 778.561 194.299 778.67 193.58 778.67ZM200.711 769.773L202.314 772.824L203.956 769.773H206.439L203.91 774.136L206.507 778.5H204.035L202.314 775.483L200.621 778.5H198.121L200.711 774.136L198.211 769.773H200.711ZM212.198 769.773V771.591H206.943V769.773H212.198ZM208.136 767.682H210.556V775.818C210.556 776.042 210.59 776.216 210.658 776.341C210.727 776.462 210.821 776.547 210.943 776.597C211.068 776.646 211.212 776.67 211.374 776.67C211.488 776.67 211.602 776.661 211.715 776.642C211.829 776.619 211.916 776.602 211.977 776.591L212.357 778.392C212.236 778.43 212.066 778.473 211.846 778.523C211.626 778.576 211.359 778.608 211.045 778.619C210.462 778.642 209.95 778.564 209.511 778.386C209.075 778.208 208.736 777.932 208.494 777.557C208.251 777.182 208.132 776.708 208.136 776.136V767.682Z" fill="#242424"/>
<rect x="65" y="295.176" width="204" height="108.9" rx="15.3962" transform="rotate(-7.08905 65 295.176)" fill="url(#paint0_linear_87_5655)"/>
<mask id="mask0_87_5655" style="mask-type:alpha" maskUnits="userSpaceOnUse" x="66" y="271" width="214" height="131">
<rect x="65" y="295.176" width="204" height="108.9" rx="15.3962" transform="rotate(-7.08905 65 295.176)" fill="url(#paint1_linear_87_5655)"/>
</mask>
<g mask="url(#mask0_87_5655)">
<circle opacity="0.2" cx="183.787" cy="421.946" r="93.0189" transform="rotate(-7.08905 183.787 421.946)" fill="url(#paint2_linear_87_5655)"/>
</g>
<path d="M92.3463 310.961L87.5061 321.322C87.4468 321.448 87.3566 321.556 87.2439 321.638C87.1313 321.719 86.9998 321.77 86.862 321.787C86.7241 321.804 86.5842 321.785 86.4554 321.733C86.3266 321.681 86.2132 321.597 86.1256 321.489L79.0126 312.614C78.8131 312.366 78.6871 312.067 78.649 311.75C78.598 311.282 78.7349 310.813 79.0297 310.446C79.3245 310.079 79.753 309.845 80.221 309.793L90.4994 308.515C91.4816 308.392 92.3756 309.067 92.4946 310.024C92.5341 310.342 92.4839 310.667 92.3463 310.961ZM80.4269 312.115L85.6735 318.357L84.7443 310.885L80.8019 311.375C80.3466 311.432 80.1802 311.758 80.4271 312.117M87.3022 318.156L90.8615 310.818C91.0178 310.41 90.7718 310.133 90.3156 310.19L86.3741 310.68L87.3022 318.156Z" fill="#242424"/>
<path d="M182.885 299.334C182.803 299.144 182.701 298.978 182.579 298.839C182.457 298.698 182.315 298.583 182.152 298.496C181.992 298.406 181.814 298.344 181.617 298.31C181.422 298.277 181.211 298.274 180.984 298.302C180.558 298.355 180.196 298.508 179.9 298.759C179.606 299.011 179.395 299.35 179.266 299.776C179.137 300.2 179.108 300.702 179.181 301.283C179.253 301.863 179.402 302.346 179.629 302.731C179.856 303.116 180.144 303.396 180.494 303.57C180.843 303.741 181.237 303.8 181.677 303.745C182.076 303.695 182.407 303.582 182.672 303.406C182.939 303.227 183.131 302.998 183.248 302.719C183.367 302.44 183.405 302.122 183.361 301.767L183.725 301.775L181.577 302.043L181.412 300.716L184.899 300.282L185.03 301.332C185.121 302.065 185.044 302.713 184.801 303.278C184.556 303.84 184.181 304.297 183.674 304.649C183.166 304.999 182.562 305.217 181.863 305.304C181.081 305.402 180.374 305.315 179.739 305.044C179.105 304.77 178.582 304.335 178.172 303.739C177.764 303.139 177.506 302.4 177.396 301.521C177.312 300.846 177.335 300.231 177.465 299.678C177.596 299.122 177.817 298.637 178.127 298.224C178.436 297.811 178.815 297.478 179.263 297.227C179.711 296.976 180.211 296.816 180.761 296.747C181.233 296.689 181.681 296.703 182.105 296.791C182.529 296.876 182.914 297.024 183.26 297.234C183.608 297.444 183.904 297.709 184.148 298.029C184.391 298.345 184.567 298.707 184.675 299.112L182.885 299.334ZM193.688 299.487C193.801 300.396 193.725 301.19 193.46 301.87C193.197 302.55 192.791 303.095 192.242 303.505C191.694 303.912 191.053 304.161 190.318 304.253C189.578 304.345 188.892 304.259 188.261 303.996C187.631 303.733 187.105 303.304 186.684 302.709C186.263 302.114 185.996 301.363 185.883 300.457C185.77 299.549 185.845 298.754 186.108 298.074C186.37 297.394 186.775 296.851 187.322 296.444C187.869 296.034 188.513 295.783 189.253 295.691C189.989 295.6 190.671 295.686 191.302 295.949C191.935 296.209 192.462 296.637 192.883 297.232C193.307 297.826 193.575 298.578 193.688 299.487ZM191.902 299.709C191.829 299.12 191.679 298.635 191.452 298.252C191.228 297.87 190.944 297.594 190.601 297.424C190.258 297.255 189.873 297.197 189.447 297.25C189.021 297.303 188.663 297.453 188.371 297.702C188.08 297.95 187.871 298.287 187.745 298.713C187.622 299.139 187.597 299.647 187.67 300.235C187.743 300.824 187.892 301.31 188.115 301.692C188.342 302.074 188.627 302.35 188.97 302.52C189.314 302.689 189.698 302.747 190.124 302.694C190.55 302.641 190.909 302.491 191.2 302.242C191.492 301.994 191.699 301.657 191.822 301.231C191.949 300.805 191.975 300.298 191.902 299.709ZM195.282 303.52L194.246 295.186L196.008 294.967L196.864 301.848L200.436 301.404L200.617 302.856L195.282 303.52ZM204.509 302.372L201.555 302.74L200.518 294.406L203.497 294.036C204.335 293.931 205.078 294.008 205.724 294.267C206.37 294.523 206.895 294.941 207.297 295.522C207.703 296.102 207.959 296.825 208.067 297.69C208.175 298.558 208.104 299.325 207.853 299.99C207.605 300.654 207.197 301.191 206.628 301.601C206.062 302.01 205.355 302.267 204.509 302.372ZM203.129 301.011L204.248 300.872C204.769 300.807 205.195 300.66 205.528 300.432C205.863 300.2 206.095 299.878 206.226 299.465C206.359 299.049 206.386 298.53 206.309 297.909C206.233 297.293 206.079 296.801 205.849 296.433C205.621 296.065 205.318 295.81 204.94 295.67C204.562 295.53 204.112 295.492 203.591 295.557L202.468 295.697L203.129 301.011ZM211.049 293.096L213.222 292.826L216.213 298.14L216.311 298.128L217.91 292.243L220.083 291.973L221.119 300.307L219.41 300.519L218.735 295.095L218.666 295.104L217.179 300.755L216.015 300.9L213.186 295.764L213.117 295.773L213.794 301.218L212.085 301.43L211.049 293.096ZM222.341 300.155L221.305 291.821L226.921 291.123L227.101 292.575L223.248 293.055L223.495 295.04L227.059 294.597L227.24 296.05L223.675 296.493L223.923 298.483L227.793 298.002L227.973 299.454L222.341 300.155ZM228.092 290.977L230.265 290.707L233.257 296.02L233.354 296.008L234.953 290.124L237.126 289.853L238.162 298.187L236.453 298.4L235.779 292.975L235.709 292.984L234.222 298.636L233.058 298.781L230.23 293.645L230.161 293.653L230.838 299.098L229.129 299.311L228.092 290.977ZM239.385 298.035L238.348 289.701L241.685 289.286C242.298 289.21 242.821 289.237 243.253 289.368C243.685 289.499 244.025 289.713 244.271 290.01C244.517 290.305 244.666 290.661 244.718 291.079C244.758 291.404 244.729 291.698 244.629 291.962C244.529 292.222 244.375 292.445 244.167 292.631C243.961 292.813 243.717 292.955 243.435 293.056L243.445 293.138C243.764 293.112 244.072 293.164 244.37 293.295C244.67 293.426 244.925 293.63 245.136 293.907C245.346 294.181 245.477 294.523 245.528 294.932C245.583 295.375 245.522 295.783 245.345 296.158C245.171 296.529 244.884 296.842 244.483 297.095C244.082 297.349 243.569 297.515 242.945 297.592L239.385 298.035ZM240.968 296.375L242.404 296.197C242.895 296.136 243.241 295.998 243.443 295.782C243.645 295.565 243.726 295.298 243.687 294.984C243.658 294.753 243.577 294.556 243.444 294.394C243.311 294.231 243.135 294.113 242.917 294.038C242.701 293.963 242.452 293.943 242.169 293.978L240.692 294.162L240.968 296.375ZM240.544 292.97L241.85 292.807C242.092 292.777 242.301 292.708 242.477 292.601C242.657 292.491 242.791 292.35 242.88 292.179C242.971 292.008 243.003 291.812 242.976 291.593C242.939 291.292 242.801 291.062 242.564 290.904C242.329 290.746 242.017 290.691 241.626 290.74L240.287 290.906L240.544 292.97ZM246.731 297.121L245.695 288.788L251.311 288.089L251.491 289.542L247.638 290.021L247.885 292.007L251.449 291.564L251.63 293.016L248.065 293.46L248.313 295.45L252.183 294.968L252.363 296.421L246.731 297.121ZM253.519 296.277L252.482 287.944L255.77 287.535C256.399 287.456 256.951 287.502 257.424 287.672C257.899 287.839 258.279 288.113 258.563 288.493C258.849 288.871 259.027 289.335 259.095 289.886C259.164 290.439 259.104 290.93 258.915 291.358C258.726 291.784 258.417 292.131 257.991 292.399C257.567 292.667 257.035 292.84 256.394 292.92L254.193 293.194L254.017 291.778L255.933 291.539C256.27 291.497 256.543 291.416 256.754 291.297C256.965 291.177 257.114 291.018 257.199 290.82C257.288 290.621 257.315 290.385 257.281 290.111C257.246 289.835 257.162 289.608 257.027 289.432C256.895 289.256 256.71 289.133 256.473 289.063C256.238 288.99 255.951 288.975 255.612 289.017L254.423 289.165L255.281 296.058L253.519 296.277ZM257.548 291.925L260.09 295.46L258.145 295.702L255.647 292.162L257.548 291.925Z" fill="#242424"/>
<rect x="144.637" y="305" width="246.816" height="131.756" rx="18.6276" transform="rotate(14.7913 144.637 305)" fill="url(#paint3_linear_87_5655)"/>
<mask id="mask1_87_5655" style="mask-type:alpha" maskUnits="userSpaceOnUse" x="115" y="309" width="265" height="183">
<rect x="144.637" y="305" width="246.816" height="131.756" rx="18.6276" transform="rotate(14.7913 144.637 305)" fill="url(#paint4_linear_87_5655)"/>
</mask>
<g mask="url(#mask1_87_5655)">
<circle opacity="0.2" cx="220.835" cy="500.922" r="112.542" transform="rotate(14.7913 220.835 500.922)" fill="url(#paint5_linear_87_5655)"/>
</g>
<g clip-path="url(#clip1_87_5655)">
<path d="M168.222 335.052L158.117 344.503C157.993 344.617 157.843 344.698 157.68 344.739C157.517 344.779 157.346 344.777 157.184 344.734C157.021 344.691 156.873 344.607 156.752 344.49C156.631 344.374 156.541 344.228 156.491 344.068L152.507 330.897C152.395 330.528 152.388 330.135 152.488 329.763C152.642 329.214 153.007 328.75 153.504 328.47C154 328.191 154.587 328.121 155.135 328.274L167.252 331.474C168.41 331.779 169.109 332.939 168.811 334.067C168.713 334.442 168.51 334.784 168.222 335.052ZM154.32 330.974L157.396 340.347L159.722 331.539L155.075 330.312C154.538 330.17 154.204 330.462 154.319 330.976M159.315 340.856L166.62 334.222C166.979 333.835 166.828 333.413 166.29 333.271L161.644 332.045L159.315 340.856Z" fill="#242424"/>
</g>
<path d="M243.164 362.212L239.681 361.292L242.275 351.468L245.786 352.396C246.774 352.656 247.573 353.078 248.182 353.659C248.793 354.238 249.193 354.944 249.383 355.777C249.577 356.612 249.539 357.539 249.269 358.559C248.999 359.583 248.574 360.411 247.992 361.044C247.414 361.678 246.714 362.097 245.89 362.301C245.07 362.505 244.161 362.475 243.164 362.212ZM242.228 360.061L243.547 360.409C244.161 360.571 244.706 360.599 245.183 360.492C245.663 360.383 246.07 360.126 246.402 359.721C246.739 359.314 247.004 358.744 247.197 358.012C247.389 357.286 247.438 356.665 247.346 356.148C247.256 355.631 247.031 355.209 246.669 354.881C246.308 354.553 245.82 354.308 245.206 354.146L243.882 353.796L242.228 360.061ZM253.909 354.54L251.315 364.364L249.238 363.816L251.832 353.992L253.909 354.54ZM254.447 365.191L252.222 364.603L258.207 355.675L260.884 356.382L261.676 367.1L259.45 366.512L258.991 358.284L258.914 358.263L254.447 365.191ZM255.328 361.293L260.585 362.681L260.157 364.303L254.9 362.914L255.328 361.293ZM265.182 357.517L267.744 358.193L268.706 365.508L268.821 365.538L273.27 359.652L275.831 360.329L273.237 370.153L271.223 369.621L272.911 363.227L272.829 363.205L268.611 368.88L267.239 368.518L266.379 361.476L266.298 361.455L264.603 367.873L262.588 367.341L265.182 357.517ZM285.003 368.005C284.72 369.076 284.276 369.934 283.672 370.578C283.07 371.223 282.369 371.652 281.567 371.865C280.769 372.075 279.937 372.065 279.07 371.837C278.197 371.606 277.466 371.201 276.877 370.621C276.288 370.041 275.891 369.323 275.686 368.465C275.482 367.607 275.521 366.644 275.803 365.576C276.085 364.504 276.528 363.646 277.129 363.001C277.73 362.356 278.43 361.928 279.228 361.718C280.026 361.505 280.862 361.514 281.735 361.744C282.602 361.973 283.33 362.377 283.919 362.957C284.512 363.534 284.911 364.252 285.116 365.11C285.323 365.969 285.286 366.934 285.003 368.005ZM282.897 367.449C283.08 366.755 283.131 366.142 283.049 365.611C282.97 365.08 282.776 364.643 282.467 364.298C282.158 363.953 281.752 363.714 281.25 363.581C280.748 363.449 280.277 363.456 279.838 363.604C279.399 363.751 279.013 364.036 278.679 364.457C278.348 364.88 278.092 365.438 277.908 366.132C277.725 366.826 277.673 367.438 277.752 367.968C277.834 368.5 278.029 368.938 278.339 369.283C278.648 369.628 279.053 369.867 279.555 369.999C280.057 370.132 280.528 370.125 280.967 369.977C281.406 369.83 281.791 369.545 282.122 369.122C282.455 368.701 282.714 368.143 282.897 367.449ZM295.785 365.598L293.191 375.421L291.397 374.948L288.756 367.636L288.684 367.617L287.051 373.8L284.974 373.252L287.568 363.428L289.391 363.909L292 371.207L292.086 371.23L293.718 365.052L295.785 365.598ZM298.119 376.723L294.637 375.803L297.231 365.979L300.742 366.907C301.73 367.168 302.529 367.589 303.138 368.17C303.748 368.749 304.149 369.455 304.339 370.289C304.533 371.123 304.495 372.05 304.225 373.07C303.955 374.094 303.529 374.922 302.948 375.555C302.37 376.19 301.67 376.608 300.846 376.812C300.026 377.016 299.117 376.986 298.119 376.723ZM297.184 374.572L298.503 374.92C299.117 375.083 299.662 375.11 300.139 375.003C300.619 374.894 301.025 374.637 301.358 374.232C301.695 373.825 301.96 373.256 302.153 372.523C302.345 371.797 302.394 371.176 302.302 370.659C302.212 370.143 301.987 369.72 301.625 369.392C301.264 369.064 300.776 368.819 300.162 368.657L298.838 368.307L297.184 374.572ZM309.644 369.257L312.206 369.934L313.168 377.248L313.284 377.279L317.732 371.393L320.293 372.069L317.699 381.893L315.685 381.361L317.373 374.967L317.291 374.945L313.073 380.62L311.702 380.258L310.841 373.216L310.76 373.195L309.065 379.613L307.05 379.081L309.644 369.257ZM319.14 382.273L321.734 372.45L328.354 374.197L327.902 375.91L323.359 374.71L322.741 377.051L326.943 378.161L326.491 379.873L322.289 378.764L321.67 381.109L326.231 382.314L325.779 384.026L319.14 382.273ZM329.735 374.562L332.296 375.238L333.259 382.553L333.374 382.584L337.822 376.698L340.384 377.374L337.79 387.198L335.775 386.666L337.464 380.272L337.382 380.25L333.164 385.925L331.792 385.563L330.932 378.521L330.85 378.5L329.156 384.918L327.141 384.386L329.735 374.562ZM339.231 387.578L341.825 377.754L345.758 378.793C346.481 378.984 347.056 379.25 347.482 379.592C347.908 379.934 348.193 380.327 348.335 380.772C348.479 381.213 348.485 381.68 348.355 382.173C348.254 382.556 348.088 382.874 347.858 383.124C347.628 383.371 347.355 383.552 347.037 383.667C346.723 383.779 346.385 383.828 346.023 383.815L345.998 383.911C346.368 384.025 346.69 384.223 346.965 384.505C347.242 384.787 347.437 385.13 347.549 385.536C347.662 385.939 347.654 386.382 347.527 386.865C347.389 387.386 347.137 387.817 346.77 388.158C346.407 388.496 345.943 388.718 345.378 388.822C344.814 388.926 344.164 388.881 343.428 388.687L339.231 387.578ZM341.756 386.429L343.45 386.876C344.028 387.029 344.48 387.03 344.803 386.879C345.128 386.725 345.339 386.463 345.437 386.092C345.509 385.82 345.507 385.563 345.43 385.321C345.354 385.078 345.21 384.866 344.998 384.683C344.79 384.502 344.519 384.367 344.187 384.279L342.445 383.819L341.756 386.429ZM342.816 382.414L344.356 382.82C344.641 382.895 344.907 382.913 345.153 382.872C345.404 382.829 345.618 382.731 345.795 382.579C345.975 382.429 346.099 382.224 346.168 381.965C346.261 381.61 346.211 381.29 346.016 381.006C345.824 380.723 345.497 380.52 345.037 380.398L343.459 379.982L342.816 382.414ZM347.891 389.865L350.485 380.041L357.105 381.789L356.653 383.502L352.11 382.302L351.492 384.643L355.694 385.752L355.242 387.465L351.04 386.355L350.42 388.701L354.982 389.906L354.53 391.618L347.891 389.865ZM355.892 391.978L358.486 382.154L362.362 383.177C363.104 383.373 363.702 383.673 364.156 384.077C364.614 384.478 364.917 384.957 365.065 385.512C365.217 386.066 365.207 386.667 365.035 387.316C364.863 387.968 364.574 388.492 364.168 388.888C363.764 389.281 363.261 389.531 362.662 389.64C362.065 389.749 361.389 389.704 360.634 389.505L358.039 388.819L358.48 387.15L360.739 387.747C361.136 387.851 361.48 387.884 361.771 387.844C362.062 387.805 362.3 387.693 362.485 387.51C362.674 387.327 362.811 387.074 362.896 386.751C362.982 386.425 362.989 386.133 362.917 385.874C362.848 385.616 362.696 385.395 362.461 385.21C362.23 385.022 361.915 384.876 361.515 384.77L360.115 384.4L357.969 392.526L355.892 391.978ZM362.378 388.908L363.639 394.023L361.346 393.418L360.138 388.316L362.378 388.908Z" fill="#242424"/>
<rect x="48" y="393" width="318" height="169.756" rx="24" fill="url(#paint6_linear_87_5655)"/>
<mask id="mask2_87_5655" style="mask-type:alpha" maskUnits="userSpaceOnUse" x="48" y="393" width="318" height="170">
<rect x="48" y="393" width="318" height="169.756" rx="24" fill="url(#paint7_linear_87_5655)"/>
</mask>
<g mask="url(#mask2_87_5655)">
<circle opacity="0.2" cx="207.365" cy="612" r="145" fill="url(#paint8_linear_87_5655)"/>
</g>
<path d="M87.2655 422.679L77.7849 437.776C77.6689 437.959 77.5085 438.109 77.3186 438.213C77.1287 438.317 76.9156 438.371 76.699 438.371C76.4825 438.37 76.2697 438.314 76.0805 438.209C75.8913 438.104 75.7319 437.952 75.6172 437.769L66.3215 422.672C66.0606 422.249 65.9233 421.762 65.9251 421.265C65.9363 420.531 66.2384 419.832 66.765 419.321C67.2916 418.81 67.9996 418.529 68.7333 418.54H84.879C86.4221 418.539 87.6751 419.755 87.6751 421.258C87.6751 421.757 87.535 422.25 87.2655 422.679ZM68.6052 422.171L75.5205 432.836V421.098H69.3278C68.6125 421.098 68.2923 421.572 68.6052 422.174M78.0785 432.839L84.9963 422.171C85.3165 421.571 84.989 421.096 84.2725 421.096H78.081L78.0785 432.839Z" fill="#242424"/>
<path d="M168.708 431.823V418.732H173.95C174.913 418.732 175.716 418.875 176.359 419.161C177.003 419.446 177.486 419.842 177.81 420.35C178.134 420.852 178.296 421.432 178.296 422.088C178.296 422.6 178.194 423.049 177.989 423.437C177.785 423.82 177.504 424.136 177.146 424.383C176.792 424.626 176.387 424.798 175.931 424.901V425.028C176.43 425.05 176.896 425.19 177.331 425.45C177.77 425.71 178.126 426.075 178.398 426.543C178.671 427.008 178.808 427.562 178.808 428.205C178.808 428.9 178.635 429.52 178.29 430.065C177.949 430.607 177.444 431.035 176.775 431.35C176.106 431.666 175.281 431.823 174.301 431.823H168.708ZM171.476 429.56H173.732C174.504 429.56 175.066 429.413 175.42 429.119C175.773 428.821 175.95 428.425 175.95 427.93C175.95 427.568 175.863 427.249 175.688 426.972C175.513 426.695 175.264 426.477 174.94 426.32C174.621 426.162 174.239 426.083 173.796 426.083H171.476V429.56ZM171.476 424.21H173.528C173.907 424.21 174.244 424.144 174.538 424.012C174.836 423.876 175.07 423.684 175.241 423.437C175.415 423.19 175.503 422.894 175.503 422.548C175.503 422.075 175.335 421.694 174.998 421.404C174.665 421.114 174.192 420.97 173.579 420.97H171.476V424.21ZM180.248 431.823V418.732H185.413C186.402 418.732 187.246 418.909 187.945 419.263C188.648 419.612 189.182 420.109 189.549 420.752C189.92 421.391 190.105 422.144 190.105 423.009C190.105 423.878 189.918 424.626 189.543 425.252C189.168 425.874 188.624 426.352 187.913 426.684C187.205 427.016 186.349 427.183 185.343 427.183H181.885V424.958H184.895C185.424 424.958 185.863 424.886 186.212 424.741C186.562 424.596 186.822 424.379 186.992 424.089C187.167 423.799 187.254 423.439 187.254 423.009C187.254 422.574 187.167 422.207 186.992 421.909C186.822 421.611 186.56 421.385 186.206 421.232C185.856 421.074 185.415 420.995 184.883 420.995H183.016V431.823H180.248ZM187.318 425.866L190.572 431.823H187.516L184.333 425.866H187.318ZM194.469 418.732V431.823H191.701V418.732H194.469ZM196.386 431.823V418.732H199.154V429.541H204.766V431.823H196.386ZM206.239 431.823V418.732H209.007V429.541H214.619V431.823H206.239ZM218.859 418.732V431.823H216.092V418.732H218.859ZM223.033 431.823H220.067L224.586 418.732H228.153L232.666 431.823H229.7L226.421 421.724H226.319L223.033 431.823ZM222.848 426.678H229.853V428.838H222.848V426.678ZM244.831 418.732V431.823H242.44L236.745 423.584H236.649V431.823H233.881V418.732H236.31L241.961 426.965H242.076V418.732H244.831ZM258.308 423.315H255.508C255.457 422.953 255.353 422.631 255.195 422.35C255.038 422.065 254.835 421.822 254.588 421.622C254.341 421.421 254.055 421.268 253.732 421.161C253.412 421.055 253.065 421.002 252.69 421.002C252.012 421.002 251.422 421.17 250.919 421.506C250.416 421.839 250.026 422.325 249.749 422.964C249.472 423.599 249.334 424.37 249.334 425.278C249.334 426.211 249.472 426.995 249.749 427.63C250.031 428.265 250.423 428.744 250.925 429.068C251.428 429.392 252.01 429.554 252.67 429.554C253.041 429.554 253.384 429.505 253.7 429.407C254.019 429.309 254.303 429.166 254.55 428.979C254.797 428.787 255.001 428.555 255.163 428.282C255.33 428.009 255.445 427.698 255.508 427.349L258.308 427.362C258.236 427.962 258.055 428.542 257.765 429.1C257.479 429.654 257.094 430.151 256.608 430.59C256.126 431.024 255.551 431.369 254.882 431.625C254.217 431.877 253.465 432.002 252.626 432.002C251.458 432.002 250.414 431.738 249.494 431.21C248.577 430.681 247.853 429.916 247.32 428.915C246.792 427.913 246.528 426.701 246.528 425.278C246.528 423.85 246.796 422.636 247.333 421.634C247.87 420.633 248.599 419.87 249.519 419.346C250.44 418.818 251.475 418.553 252.626 418.553C253.384 418.553 254.087 418.66 254.735 418.873C255.387 419.086 255.964 419.397 256.467 419.806C256.97 420.211 257.379 420.707 257.695 421.296C258.014 421.884 258.219 422.557 258.308 423.315ZM259.933 431.823V418.732H268.754V421.014H262.701V424.134H268.3V426.416H262.701V429.541H268.78V431.823H259.933ZM274.4 418.732H277.814L281.419 427.528H281.572L285.177 418.732H288.591V431.823H285.906V423.303H285.797L282.41 431.759H280.582L277.194 423.271H277.085V431.823H274.4V418.732ZM290.511 431.823V418.732H299.332V421.014H293.279V424.134H298.878V426.416H293.279V429.541H299.358V431.823H290.511ZM301.173 418.732H304.586L308.191 427.528H308.345L311.95 418.732H315.363V431.823H312.678V423.303H312.57L309.182 431.759H307.354L303.966 423.271H303.857V431.823H301.173V418.732ZM317.283 431.823V418.732H322.525C323.488 418.732 324.291 418.875 324.935 419.161C325.578 419.446 326.062 419.842 326.386 420.35C326.709 420.852 326.871 421.432 326.871 422.088C326.871 422.6 326.769 423.049 326.565 423.437C326.36 423.82 326.079 424.136 325.721 424.383C325.367 424.626 324.962 424.798 324.506 424.901V425.028C325.005 425.05 325.472 425.19 325.906 425.45C326.345 425.71 326.701 426.075 326.974 426.543C327.246 427.008 327.383 427.562 327.383 428.205C327.383 428.9 327.21 429.52 326.865 430.065C326.524 430.607 326.019 431.035 325.35 431.35C324.681 431.666 323.856 431.823 322.876 431.823H317.283ZM320.051 429.56H322.307C323.079 429.56 323.641 429.413 323.995 429.119C324.349 428.821 324.526 428.425 324.526 427.93C324.526 427.568 324.438 427.249 324.263 426.972C324.089 426.695 323.839 426.477 323.516 426.32C323.196 426.162 322.815 426.083 322.371 426.083H320.051V429.56ZM320.051 424.21H322.103C322.482 424.21 322.819 424.144 323.113 424.012C323.411 423.876 323.646 423.684 323.816 423.437C323.991 423.19 324.078 422.894 324.078 422.548C324.078 422.075 323.91 421.694 323.573 421.404C323.241 421.114 322.768 420.97 322.154 420.97H320.051V424.21ZM328.824 431.823V418.732H337.645V421.014H331.591V424.134H337.191V426.416H331.591V429.541H337.67V431.823H328.824ZM339.485 431.823V418.732H344.65C345.639 418.732 346.482 418.909 347.181 419.263C347.884 419.612 348.419 420.109 348.786 420.752C349.156 421.391 349.342 422.144 349.342 423.009C349.342 423.878 349.154 424.626 348.779 425.252C348.404 425.874 347.861 426.352 347.149 426.684C346.442 427.016 345.585 427.183 344.58 427.183H341.122V424.958H344.132C344.661 424.958 345.1 424.886 345.449 424.741C345.798 424.596 346.058 424.379 346.229 424.089C346.404 423.799 346.491 423.439 346.491 423.009C346.491 422.574 346.404 422.207 346.229 421.909C346.058 421.611 345.796 421.385 345.443 421.232C345.093 421.074 344.652 420.995 344.119 420.995H342.253V431.823H339.485ZM346.555 425.866L349.808 431.823H346.753L343.57 425.866H346.555Z" fill="#242424"/>
</g>
<defs>
<filter id="filter0_f_87_5655" x="-537" y="49" width="1464" height="1464" filterUnits="userSpaceOnUse" color-interpolation-filters="sRGB">
<feFlood flood-opacity="0" result="BackgroundImageFix"/>
<feBlend mode="normal" in="SourceGraphic" in2="BackgroundImageFix" result="shape"/>
<feGaussianBlur stdDeviation="200" result="effect1_foregroundBlur_87_5655"/>
</filter>
<linearGradient id="paint0_linear_87_5655" x1="136.544" y1="284.516" x2="236.927" y2="406.791" gradientUnits="userSpaceOnUse">
<stop stop-color="#FFD268"/>
<stop offset="0.389423" stop-color="#FFE098"/>
<stop offset="0.725962" stop-color="#FFC334"/>
</linearGradient>
<linearGradient id="paint1_linear_87_5655" x1="136.544" y1="284.516" x2="236.927" y2="406.791" gradientUnits="userSpaceOnUse">
<stop stop-color="#FFD268"/>
<stop offset="0.389423" stop-color="#FFE098"/>
<stop offset="0.725962" stop-color="#FFC334"/>
</linearGradient>
<linearGradient id="paint2_linear_87_5655" x1="183.787" y1="328.927" x2="183.787" y2="514.965" gradientUnits="userSpaceOnUse">
<stop stop-color="white"/>
<stop offset="1" stop-color="#999999" stop-opacity="0"/>
</linearGradient>
<linearGradient id="paint3_linear_87_5655" x1="231.197" y1="292.103" x2="352.649" y2="440.041" gradientUnits="userSpaceOnUse">
<stop stop-color="#D4F1FF"/>
<stop offset="0.389423" stop-color="#96DFFF"/>
<stop offset="0.855769" stop-color="#ABE4FF"/>
</linearGradient>
<linearGradient id="paint4_linear_87_5655" x1="231.197" y1="292.103" x2="352.649" y2="440.041" gradientUnits="userSpaceOnUse">
<stop stop-color="#D4F1FF"/>
<stop offset="0.389423" stop-color="#96DFFF"/>
<stop offset="0.855769" stop-color="#ABE4FF"/>
</linearGradient>
<linearGradient id="paint5_linear_87_5655" x1="220.835" y1="388.38" x2="220.835" y2="613.464" gradientUnits="userSpaceOnUse">
<stop stop-color="white"/>
<stop offset="1" stop-color="#999999" stop-opacity="0"/>
</linearGradient>
<linearGradient id="paint6_linear_87_5655" x1="159.524" y1="376.383" x2="316.004" y2="566.989" gradientUnits="userSpaceOnUse">
<stop stop-color="#F7D4FF"/>
<stop offset="0.389423" stop-color="#96B5FF"/>
<stop offset="0.855769" stop-color="#6EECFF"/>
</linearGradient>
<linearGradient id="paint7_linear_87_5655" x1="159.524" y1="376.383" x2="316.004" y2="566.989" gradientUnits="userSpaceOnUse">
<stop stop-color="#D4F1FF"/>
<stop offset="0.389423" stop-color="#96DFFF"/>
<stop offset="0.855769" stop-color="#ABE4FF"/>
</linearGradient>
<linearGradient id="paint8_linear_87_5655" x1="207.365" y1="467" x2="207.365" y2="757" gradientUnits="userSpaceOnUse">
<stop stop-color="white"/>
<stop offset="1" stop-color="#999999" stop-opacity="0"/>
</linearGradient>
<clipPath id="clip0_87_5655">
<rect width="390" height="840" fill="white"/>
</clipPath>
<clipPath id="clip1_87_5655">
<rect width="22.5083" height="22.5083" fill="white" transform="translate(151.216 323.559) rotate(14.7913)"/>
</clipPath>
</defs>
</svg>
