<svg width="318" height="170" viewBox="0 0 318 170" fill="none" xmlns="http://www.w3.org/2000/svg">
<rect width="318" height="169.756" rx="24" fill="url(#paint0_linear_3321_5389)"/>
<mask id="mask0_3321_5389" style="mask-type:alpha" maskUnits="userSpaceOnUse" x="0" y="0" width="318" height="170">
<rect width="318" height="169.756" rx="24" fill="url(#paint1_linear_3321_5389)"/>
</mask>
<g mask="url(#mask0_3321_5389)">
<circle opacity="0.1" cx="159.365" cy="219" r="145" fill="url(#paint2_linear_3321_5389)"/>
</g>
<path d="M39.2655 29.6784L29.7849 44.7753C29.669 44.9582 29.5085 45.1086 29.3186 45.2126C29.1287 45.3166 28.9156 45.3708 28.6991 45.3701C28.4825 45.3694 28.2697 45.3138 28.0805 45.2085C27.8914 45.1032 27.7319 44.9517 27.6172 44.7681L18.3215 29.6712C18.0606 29.2485 17.9233 28.7613 17.9251 28.2647C17.9363 27.531 18.2384 26.8317 18.765 26.3208C19.2916 25.8098 19.9996 25.5289 20.7333 25.5399H36.8791C38.4221 25.5387 39.6751 26.7542 39.6751 28.2574C39.6751 28.7564 39.535 29.2494 39.2655 29.6784ZM20.6052 29.1709L27.5205 39.8357V28.0979H21.3278C20.6125 28.0979 20.2923 28.5716 20.6052 29.1733M30.0786 39.8381L36.9963 29.1709C37.3165 28.5704 36.989 28.0955 36.2725 28.0955H30.081L30.0786 39.8381Z" fill="#242424"/>
<path d="M169.935 29.4972C169.884 28.9816 169.665 28.5811 169.277 28.2955C168.889 28.01 168.363 27.8673 167.698 27.8673C167.247 27.8673 166.865 27.9312 166.554 28.059C166.243 28.1826 166.004 28.3552 165.838 28.5768C165.676 28.7984 165.595 29.0498 165.595 29.3311C165.587 29.5654 165.636 29.77 165.742 29.9447C165.853 30.1194 166.004 30.2707 166.196 30.3985C166.388 30.5221 166.609 30.6308 166.861 30.7245C167.112 30.814 167.381 30.8907 167.666 30.9546L168.842 31.2359C169.413 31.3637 169.938 31.5342 170.415 31.7472C170.892 31.9603 171.305 32.2224 171.655 32.5335C172.004 32.8445 172.275 33.211 172.467 33.6329C172.663 34.0548 172.763 34.5384 172.767 35.0839C172.763 35.885 172.558 36.5796 172.153 37.1677C171.753 37.7515 171.173 38.2053 170.415 38.5292C169.661 38.8488 168.751 39.0086 167.685 39.0086C166.629 39.0086 165.708 38.8467 164.924 38.5228C164.144 38.199 163.535 37.7195 163.096 37.0846C162.661 36.4454 162.433 35.6549 162.412 34.7132H165.09C165.12 35.1521 165.246 35.5186 165.467 35.8126C165.693 36.1024 165.994 36.3218 166.369 36.471C166.748 36.6159 167.176 36.6883 167.653 36.6883C168.122 36.6883 168.529 36.6201 168.874 36.4838C169.224 36.3474 169.494 36.1578 169.686 35.9149C169.878 35.672 169.974 35.3928 169.974 35.0775C169.974 34.7835 169.886 34.5363 169.712 34.336C169.541 34.1357 169.29 33.9653 168.957 33.8247C168.629 33.684 168.227 33.5562 167.749 33.4411L166.324 33.0832C165.22 32.8147 164.349 32.395 163.71 31.824C163.07 31.2529 162.753 30.4838 162.757 29.5164C162.753 28.7238 162.964 28.0313 163.39 27.439C163.82 26.8467 164.411 26.3843 165.161 26.0519C165.911 25.7195 166.763 25.5534 167.717 25.5534C168.689 25.5534 169.537 25.7195 170.261 26.0519C170.99 26.3843 171.557 26.8467 171.962 27.439C172.367 28.0313 172.575 28.7174 172.588 29.4972H169.935ZM177.037 25.7323V38.8232H174.269V25.7323H177.037ZM178.954 38.8232V25.7323H181.721V36.5413H187.334V38.8232H178.954ZM189.765 25.7323L192.929 35.6784H193.051L196.221 25.7323H199.29L194.777 38.8232H191.21L186.691 25.7323H189.765ZM200.505 38.8232V25.7323H209.326V28.0143H203.273V31.1336H208.872V33.4156H203.273V36.5413H209.352V38.8232H200.505ZM211.167 38.8232V25.7323H216.331C217.32 25.7323 218.164 25.9092 218.863 26.2629C219.566 26.6123 220.101 27.1088 220.467 27.7522C220.838 28.3914 221.023 29.1436 221.023 30.0086C221.023 30.8779 220.836 31.6258 220.461 32.2522C220.086 32.8744 219.542 33.3517 218.831 33.684C218.123 34.0164 217.267 34.1826 216.261 34.1826H212.803V31.9582H215.814C216.342 31.9582 216.781 31.8857 217.13 31.7409C217.48 31.596 217.74 31.3786 217.91 31.0889C218.085 30.7991 218.172 30.439 218.172 30.0086C218.172 29.574 218.085 29.2075 217.91 28.9092C217.74 28.6109 217.478 28.385 217.124 28.2316C216.775 28.074 216.334 27.9951 215.801 27.9951H213.934V38.8232H211.167ZM218.236 32.8659L221.49 38.8232H218.434L215.251 32.8659H218.236ZM226.425 25.7323H229.839L233.444 34.5278H233.597L237.202 25.7323H240.616V38.8232H237.931V30.3026H237.822L234.434 38.7593H232.606L229.219 30.2707H229.11V38.8232H226.425V25.7323ZM242.536 38.8232V25.7323H251.357V28.0143H245.304V31.1336H250.903V33.4156H245.304V36.5413H251.383V38.8232H242.536ZM253.197 25.7323H256.611L260.216 34.5278H260.369L263.974 25.7323H267.388V38.8232H264.703V30.3026H264.594L261.207 38.7593H259.379L255.991 30.2707H255.882V38.8232H253.197V25.7323ZM269.308 38.8232V25.7323H274.55C275.513 25.7323 276.316 25.8751 276.959 26.1606C277.603 26.4461 278.087 26.8424 278.41 27.3495C278.734 27.8524 278.896 28.4319 278.896 29.0882C278.896 29.5995 278.794 30.0491 278.589 30.4369C278.385 30.8204 278.104 31.1357 277.746 31.3829C277.392 31.6258 276.987 31.7984 276.531 31.9007V32.0285C277.03 32.0498 277.496 32.1904 277.931 32.4504C278.37 32.7103 278.726 33.0747 278.998 33.5434C279.271 34.0079 279.408 34.5619 279.408 35.2053C279.408 35.8999 279.235 36.52 278.89 37.0654C278.549 37.6066 278.044 38.0349 277.375 38.3502C276.706 38.6656 275.881 38.8232 274.901 38.8232H269.308ZM272.076 36.5605H274.332C275.104 36.5605 275.666 36.4134 276.02 36.1194C276.373 35.8211 276.55 35.4248 276.55 34.9305C276.55 34.5683 276.463 34.2487 276.288 33.9717C276.114 33.6947 275.864 33.4774 275.54 33.3197C275.221 33.162 274.839 33.0832 274.396 33.0832H272.076V36.5605ZM272.076 31.2103H274.128C274.507 31.2103 274.844 31.1443 275.138 31.0122C275.436 30.8758 275.67 30.684 275.841 30.4369C276.015 30.1897 276.103 29.8936 276.103 29.5484C276.103 29.0754 275.935 28.694 275.598 28.4042C275.265 28.1144 274.792 27.9695 274.179 27.9695H272.076V31.2103ZM280.849 38.8232V25.7323H289.67V28.0143H283.616V31.1336H289.216V33.4156H283.616V36.5413H289.695V38.8232H280.849ZM291.51 38.8232V25.7323H296.675C297.663 25.7323 298.507 25.9092 299.206 26.2629C299.909 26.6123 300.444 27.1088 300.81 27.7522C301.181 28.3914 301.367 29.1436 301.367 30.0086C301.367 30.8779 301.179 31.6258 300.804 32.2522C300.429 32.8744 299.886 33.3517 299.174 33.684C298.467 34.0164 297.61 34.1826 296.604 34.1826H293.146V31.9582H296.157C296.685 31.9582 297.124 31.8857 297.474 31.7409C297.823 31.596 298.083 31.3786 298.254 31.0889C298.428 30.7991 298.516 30.439 298.516 30.0086C298.516 29.574 298.428 29.2075 298.254 28.9092C298.083 28.6109 297.821 28.385 297.467 28.2316C297.118 28.074 296.677 27.9951 296.144 27.9951H294.278V38.8232H291.51ZM298.58 32.8659L301.833 38.8232H298.778L295.594 32.8659H298.58Z" fill="#242424"/>
<defs>
<linearGradient id="paint0_linear_3321_5389" x1="111.524" y1="-16.6166" x2="268.004" y2="173.989" gradientUnits="userSpaceOnUse">
<stop stop-color="#DEDEDE"/>
<stop offset="0.389423" stop-color="#AFAFAF"/>
<stop offset="0.855769" stop-color="#CACACA"/>
</linearGradient>
<linearGradient id="paint1_linear_3321_5389" x1="111.524" y1="-16.6166" x2="268.004" y2="173.989" gradientUnits="userSpaceOnUse">
<stop stop-color="#DEDEDE"/>
<stop offset="0.389423" stop-color="#9D9D9D"/>
<stop offset="0.855769" stop-color="#CACACA"/>
</linearGradient>
<linearGradient id="paint2_linear_3321_5389" x1="159.365" y1="74" x2="159.365" y2="364" gradientUnits="userSpaceOnUse">
<stop stop-color="white"/>
<stop offset="1" stop-color="#999999" stop-opacity="0"/>
</linearGradient>
</defs>
</svg>
