<svg width="318" height="170" viewBox="0 0 318 170" fill="none" xmlns="http://www.w3.org/2000/svg">
<rect width="318" height="169.756" rx="24" fill="url(#paint0_linear_3321_5421)"/>
<mask id="mask0_3321_5421" style="mask-type:alpha" maskUnits="userSpaceOnUse" x="0" y="0" width="318" height="170">
<rect width="318" height="169.756" rx="24" fill="url(#paint1_linear_3321_5421)"/>
</mask>
<g mask="url(#mask0_3321_5421)">
<circle opacity="0.2" cx="159.365" cy="219" r="145" fill="url(#paint2_linear_3321_5421)"/>
</g>
<path d="M39.2655 29.6784L29.7849 44.7753C29.669 44.9582 29.5085 45.1086 29.3186 45.2126C29.1287 45.3166 28.9156 45.3708 28.6991 45.3701C28.4825 45.3694 28.2697 45.3138 28.0805 45.2085C27.8914 45.1032 27.7319 44.9517 27.6172 44.7681L18.3215 29.6712C18.0606 29.2485 17.9233 28.7613 17.9251 28.2647C17.9363 27.531 18.2384 26.8317 18.765 26.3208C19.2916 25.8098 19.9996 25.5289 20.7333 25.5399H36.8791C38.4221 25.5387 39.6751 26.7542 39.6751 28.2574C39.6751 28.7564 39.535 29.2494 39.2655 29.6784ZM20.6052 29.1709L27.5205 39.8357V28.0979H21.3278C20.6125 28.0979 20.2923 28.5716 20.6052 29.1733M30.0786 39.8381L36.9963 29.1709C37.3165 28.5704 36.989 28.0955 36.2725 28.0955H30.081L30.0786 39.8381Z" fill="#242424"/>
<path d="M185.667 38.8232V25.7323H194.335V28.0143H188.435V31.1336H193.759V33.4156H188.435V38.8232H185.667ZM198.604 25.7323V38.8232H195.836V25.7323H198.604ZM200.521 38.8232V25.7323H205.686C206.675 25.7323 207.519 25.9092 208.217 26.2629C208.92 26.6123 209.455 27.1088 209.822 27.7522C210.193 28.3914 210.378 29.1436 210.378 30.0086C210.378 30.8779 210.19 31.6258 209.815 32.2522C209.44 32.8744 208.897 33.3517 208.185 33.684C207.478 34.0164 206.621 34.1826 205.616 34.1826H202.158V31.9582H205.168C205.697 31.9582 206.136 31.8857 206.485 31.7409C206.835 31.596 207.094 31.3786 207.265 31.0889C207.44 30.7991 207.527 30.439 207.527 30.0086C207.527 29.574 207.44 29.2075 207.265 28.9092C207.094 28.6109 206.832 28.385 206.479 28.2316C206.129 28.074 205.688 27.9951 205.156 27.9951H203.289V38.8232H200.521ZM207.591 32.8659L210.844 38.8232H207.789L204.606 32.8659H207.591ZM211.974 38.8232V25.7323H220.795V28.0143H214.742V31.1336H220.341V33.4156H214.742V36.5413H220.82V38.8232H211.974ZM226.441 25.7323H229.855L233.46 34.5278H233.613L237.218 25.7323H240.632V38.8232H237.947V30.3026H237.838L234.451 38.7593H232.622L229.235 30.2707H229.126V38.8232H226.441V25.7323ZM242.552 38.8232V25.7323H251.373V28.0143H245.32V31.1336H250.919V33.4156H245.32V36.5413H251.399V38.8232H242.552ZM253.214 25.7323H256.627L260.232 34.5278H260.385L263.991 25.7323H267.404V38.8232H264.719V30.3026H264.611L261.223 38.7593H259.395L256.007 30.2707H255.898V38.8232H253.214V25.7323ZM269.324 38.8232V25.7323H274.566C275.529 25.7323 276.332 25.8751 276.976 26.1606C277.619 26.4461 278.103 26.8424 278.427 27.3495C278.75 27.8524 278.912 28.4319 278.912 29.0882C278.912 29.5995 278.81 30.0491 278.605 30.4369C278.401 30.8204 278.12 31.1357 277.762 31.3829C277.408 31.6258 277.003 31.7984 276.547 31.9007V32.0285C277.046 32.0498 277.512 32.1904 277.947 32.4504C278.386 32.7103 278.742 33.0747 279.015 33.5434C279.287 34.0079 279.424 34.5619 279.424 35.2053C279.424 35.8999 279.251 36.52 278.906 37.0654C278.565 37.6066 278.06 38.0349 277.391 38.3502C276.722 38.6656 275.897 38.8232 274.917 38.8232H269.324ZM272.092 36.5605H274.348C275.12 36.5605 275.682 36.4134 276.036 36.1194C276.39 35.8211 276.566 35.4248 276.566 34.9305C276.566 34.5683 276.479 34.2487 276.304 33.9717C276.13 33.6947 275.88 33.4774 275.556 33.3197C275.237 33.162 274.855 33.0832 274.412 33.0832H272.092V36.5605ZM272.092 31.2103H274.144C274.523 31.2103 274.86 31.1443 275.154 31.0122C275.452 30.8758 275.686 30.684 275.857 30.4369C276.032 30.1897 276.119 29.8936 276.119 29.5484C276.119 29.0754 275.951 28.694 275.614 28.4042C275.282 28.1144 274.809 27.9695 274.195 27.9695H272.092V31.2103ZM280.865 38.8232V25.7323H289.686V28.0143H283.632V31.1336H289.232V33.4156H283.632V36.5413H289.711V38.8232H280.865ZM291.526 38.8232V25.7323H296.691C297.68 25.7323 298.523 25.9092 299.222 26.2629C299.925 26.6123 300.46 27.1088 300.827 27.7522C301.197 28.3914 301.383 29.1436 301.383 30.0086C301.383 30.8779 301.195 31.6258 300.82 32.2522C300.445 32.8744 299.902 33.3517 299.19 33.684C298.483 34.0164 297.626 34.1826 296.621 34.1826H293.162V31.9582H296.173C296.702 31.9582 297.14 31.8857 297.49 31.7409C297.839 31.596 298.099 31.3786 298.27 31.0889C298.444 30.7991 298.532 30.439 298.532 30.0086C298.532 29.574 298.444 29.2075 298.27 28.9092C298.099 28.6109 297.837 28.385 297.483 28.2316C297.134 28.074 296.693 27.9951 296.16 27.9951H294.294V38.8232H291.526ZM298.596 32.8659L301.849 38.8232H298.794L295.611 32.8659H298.596Z" fill="#242424"/>
<defs>
<linearGradient id="paint0_linear_3321_5421" x1="111.524" y1="-16.6166" x2="268.004" y2="173.989" gradientUnits="userSpaceOnUse">
<stop stop-color="#FFE7D4"/>
<stop offset="0.389423" stop-color="#FFA496"/>
<stop offset="0.855769" stop-color="#FFBB6E"/>
</linearGradient>
<linearGradient id="paint1_linear_3321_5421" x1="111.524" y1="-16.6166" x2="268.004" y2="173.989" gradientUnits="userSpaceOnUse">
<stop stop-color="#D4F1FF"/>
<stop offset="0.389423" stop-color="#96DFFF"/>
<stop offset="0.855769" stop-color="#ABE4FF"/>
</linearGradient>
<linearGradient id="paint2_linear_3321_5421" x1="159.365" y1="74" x2="159.365" y2="364" gradientUnits="userSpaceOnUse">
<stop stop-color="white"/>
<stop offset="1" stop-color="#999999" stop-opacity="0"/>
</linearGradient>
</defs>
</svg>
