<svg width="318" height="170" viewBox="0 0 318 170" fill="none" xmlns="http://www.w3.org/2000/svg">
<rect width="318" height="169.756" rx="24" fill="url(#paint0_linear_3321_5405)"/>
<mask id="mask0_3321_5405" style="mask-type:alpha" maskUnits="userSpaceOnUse" x="0" y="0" width="318" height="170">
<rect width="318" height="169.756" rx="24" fill="url(#paint1_linear_3321_5405)"/>
</mask>
<g mask="url(#mask0_3321_5405)">
<circle opacity="0.2" cx="159.365" cy="219" r="145" fill="url(#paint2_linear_3321_5405)"/>
</g>
<path d="M39.2655 29.6784L29.7849 44.7753C29.669 44.9582 29.5085 45.1086 29.3186 45.2126C29.1287 45.3166 28.9156 45.3708 28.6991 45.3701C28.4825 45.3694 28.2697 45.3138 28.0805 45.2085C27.8914 45.1032 27.7319 44.9517 27.6172 44.7681L18.3215 29.6712C18.0606 29.2485 17.9233 28.7613 17.9251 28.2647C17.9363 27.531 18.2384 26.8317 18.765 26.3208C19.2916 25.8098 19.9996 25.5289 20.7333 25.5399H36.8791C38.4221 25.5387 39.6751 26.7542 39.6751 28.2574C39.6751 28.7564 39.535 29.2494 39.2655 29.6784ZM20.6052 29.1709L27.5205 39.8357V28.0979H21.3278C20.6125 28.0979 20.2923 28.5716 20.6052 29.1733M30.0786 39.8381L36.9963 29.1709C37.3165 28.5704 36.989 28.0955 36.2725 28.0955H30.081L30.0786 39.8381Z" fill="#242424"/>
<path d="M141.308 38.8232H136.667V25.7323H141.346C142.663 25.7323 143.796 25.9944 144.747 26.5186C145.697 27.0384 146.428 27.7863 146.939 28.7622C147.455 29.738 147.713 30.9056 147.713 32.265C147.713 33.6286 147.455 34.8005 146.939 35.7806C146.428 36.7607 145.693 37.5129 144.734 38.037C143.779 38.5612 142.637 38.8232 141.308 38.8232ZM139.435 36.4518H141.193C142.011 36.4518 142.699 36.3069 143.257 36.0171C143.82 35.7231 144.242 35.2693 144.523 34.6556C144.808 34.0377 144.951 33.2409 144.951 32.265C144.951 31.2977 144.808 30.5072 144.523 29.8936C144.242 29.2799 143.822 28.8282 143.264 28.5384C142.705 28.2487 142.017 28.1038 141.199 28.1038H139.435V36.4518ZM152.171 25.7323V38.8232H149.403V25.7323H152.171ZM156.344 38.8232H153.378L157.897 25.7323H161.464L165.977 38.8232H163.011L159.732 28.7238H159.63L156.344 38.8232ZM156.159 33.6776H163.164V35.8382H156.159V33.6776ZM167.193 25.7323H170.606L174.211 34.5278H174.364L177.97 25.7323H181.383V38.8232H178.698V30.3026H178.59L175.202 38.7593H173.374L169.986 30.2707H169.877V38.8232H167.193V25.7323ZM195.333 32.2778C195.333 33.7053 195.062 34.9198 194.521 35.9213C193.984 36.9227 193.251 37.6876 192.322 38.216C191.398 38.7401 190.358 39.0022 189.203 39.0022C188.04 39.0022 186.996 38.738 186.071 38.2096C185.146 37.6812 184.415 36.9163 183.879 35.9149C183.342 34.9134 183.073 33.7011 183.073 32.2778C183.073 30.8502 183.342 29.6357 183.879 28.6343C184.415 27.6329 185.146 26.8701 186.071 26.346C186.996 25.8176 188.04 25.5534 189.203 25.5534C190.358 25.5534 191.398 25.8176 192.322 26.346C193.251 26.8701 193.984 27.6329 194.521 28.6343C195.062 29.6357 195.333 30.8502 195.333 32.2778ZM192.527 32.2778C192.527 31.3531 192.388 30.5732 192.111 29.9383C191.839 29.3034 191.453 28.8218 190.955 28.4937C190.456 28.1656 189.872 28.0015 189.203 28.0015C188.534 28.0015 187.95 28.1656 187.452 28.4937C186.953 28.8218 186.565 29.3034 186.288 29.9383C186.016 30.5732 185.879 31.3531 185.879 32.2778C185.879 33.2025 186.016 33.9823 186.288 34.6173C186.565 35.2522 186.953 35.7338 187.452 36.0619C187.95 36.39 188.534 36.5541 189.203 36.5541C189.872 36.5541 190.456 36.39 190.955 36.0619C191.453 35.7338 191.839 35.2522 192.111 34.6173C192.388 33.9823 192.527 33.2025 192.527 32.2778ZM207.973 25.7323V38.8232H205.582L199.887 30.5839H199.791V38.8232H197.023V25.7323H199.452L205.103 33.9653H205.218V25.7323H207.973ZM214.54 38.8232H209.9V25.7323H214.579C215.895 25.7323 217.029 25.9944 217.979 26.5186C218.929 27.0384 219.66 27.7863 220.172 28.7622C220.687 29.738 220.945 30.9056 220.945 32.265C220.945 33.6286 220.687 34.8005 220.172 35.7806C219.66 36.7607 218.925 37.5129 217.966 38.037C217.012 38.5612 215.87 38.8232 214.54 38.8232ZM212.667 36.4518H214.425C215.243 36.4518 215.932 36.3069 216.49 36.0171C217.052 35.7231 217.474 35.2693 217.755 34.6556C218.041 34.0377 218.184 33.2409 218.184 32.265C218.184 31.2977 218.041 30.5072 217.755 29.8936C217.474 29.2799 217.054 28.8282 216.496 28.5384C215.938 28.2487 215.25 28.1038 214.432 28.1038H212.667V36.4518ZM226.441 25.7323H229.855L233.46 34.5278H233.613L237.218 25.7323H240.632V38.8232H237.947V30.3026H237.838L234.451 38.7593H232.622L229.235 30.2707H229.126V38.8232H226.441V25.7323ZM242.552 38.8232V25.7323H251.373V28.0143H245.32V31.1336H250.919V33.4156H245.32V36.5413H251.399V38.8232H242.552ZM253.214 25.7323H256.627L260.232 34.5278H260.385L263.991 25.7323H267.404V38.8232H264.719V30.3026H264.611L261.223 38.7593H259.395L256.007 30.2707H255.898V38.8232H253.214V25.7323ZM269.324 38.8232V25.7323H274.566C275.529 25.7323 276.332 25.8751 276.976 26.1606C277.619 26.4461 278.103 26.8424 278.427 27.3495C278.75 27.8524 278.912 28.4319 278.912 29.0882C278.912 29.5995 278.81 30.0491 278.606 30.4369C278.401 30.8204 278.12 31.1357 277.762 31.3829C277.408 31.6258 277.003 31.7984 276.547 31.9007V32.0285C277.046 32.0498 277.512 32.1904 277.947 32.4504C278.386 32.7103 278.742 33.0747 279.015 33.5434C279.287 34.0079 279.424 34.5619 279.424 35.2053C279.424 35.8999 279.251 36.52 278.906 37.0654C278.565 37.6066 278.06 38.0349 277.391 38.3502C276.722 38.6656 275.897 38.8232 274.917 38.8232H269.324ZM272.092 36.5605H274.348C275.12 36.5605 275.682 36.4134 276.036 36.1194C276.39 35.8211 276.566 35.4248 276.566 34.9305C276.566 34.5683 276.479 34.2487 276.304 33.9717C276.13 33.6947 275.88 33.4774 275.557 33.3197C275.237 33.162 274.856 33.0832 274.412 33.0832H272.092V36.5605ZM272.092 31.2103H274.144C274.523 31.2103 274.86 31.1443 275.154 31.0122C275.452 30.8758 275.686 30.684 275.857 30.4369C276.032 30.1897 276.119 29.8936 276.119 29.5484C276.119 29.0754 275.951 28.694 275.614 28.4042C275.282 28.1144 274.809 27.9695 274.195 27.9695H272.092V31.2103ZM280.865 38.8232V25.7323H289.686V28.0143H283.632V31.1336H289.232V33.4156H283.632V36.5413H289.711V38.8232H280.865ZM291.526 38.8232V25.7323H296.691C297.68 25.7323 298.523 25.9092 299.222 26.2629C299.925 26.6123 300.46 27.1088 300.827 27.7522C301.197 28.3914 301.383 29.1436 301.383 30.0086C301.383 30.8779 301.195 31.6258 300.82 32.2522C300.445 32.8744 299.902 33.3517 299.19 33.684C298.483 34.0164 297.626 34.1826 296.621 34.1826H293.163V31.9582H296.173C296.702 31.9582 297.14 31.8857 297.49 31.7409C297.839 31.596 298.099 31.3786 298.27 31.0889C298.444 30.7991 298.532 30.439 298.532 30.0086C298.532 29.574 298.444 29.2075 298.27 28.9092C298.099 28.6109 297.837 28.385 297.484 28.2316C297.134 28.074 296.693 27.9951 296.16 27.9951H294.294V38.8232H291.526ZM298.596 32.8659L301.849 38.8232H298.794L295.611 32.8659H298.596Z" fill="#242424"/>
<defs>
<linearGradient id="paint0_linear_3321_5405" x1="111.524" y1="-16.6166" x2="268.004" y2="173.989" gradientUnits="userSpaceOnUse">
<stop stop-color="#D4F1FF"/>
<stop offset="0.389423" stop-color="#96DFFF"/>
<stop offset="0.855769" stop-color="#ABE4FF"/>
</linearGradient>
<linearGradient id="paint1_linear_3321_5405" x1="111.524" y1="-16.6166" x2="268.004" y2="173.989" gradientUnits="userSpaceOnUse">
<stop stop-color="#D4F1FF"/>
<stop offset="0.389423" stop-color="#96DFFF"/>
<stop offset="0.855769" stop-color="#ABE4FF"/>
</linearGradient>
<linearGradient id="paint2_linear_3321_5405" x1="159.365" y1="74" x2="159.365" y2="364" gradientUnits="userSpaceOnUse">
<stop stop-color="white"/>
<stop offset="1" stop-color="#999999" stop-opacity="0"/>
</linearGradient>
</defs>
</svg>
