<svg width="318" height="170" viewBox="0 0 318 170" fill="none" xmlns="http://www.w3.org/2000/svg">
<rect width="318" height="169.756" rx="24" fill="url(#paint0_linear_3321_5381)"/>
<mask id="mask0_3321_5381" style="mask-type:alpha" maskUnits="userSpaceOnUse" x="0" y="0" width="318" height="170">
<rect width="318" height="169.756" rx="24" fill="url(#paint1_linear_3321_5381)"/>
</mask>
<g mask="url(#mask0_3321_5381)">
<circle opacity="0.2" cx="159.365" cy="218.955" r="145" fill="url(#paint2_linear_3321_5381)"/>
</g>
<path d="M39.2655 29.6784L29.7849 44.7753C29.669 44.9582 29.5085 45.1086 29.3186 45.2126C29.1287 45.3166 28.9156 45.3708 28.6991 45.3701C28.4825 45.3694 28.2697 45.3138 28.0805 45.2085C27.8914 45.1032 27.7319 44.9517 27.6172 44.7681L18.3215 29.6712C18.0606 29.2485 17.9233 28.7613 17.9251 28.2647C17.9363 27.531 18.2384 26.8317 18.765 26.3208C19.2916 25.8098 19.9996 25.5289 20.7333 25.5399H36.8791C38.4221 25.5387 39.6751 26.7542 39.6751 28.2574C39.6751 28.7564 39.535 29.2494 39.2655 29.6784ZM20.6052 29.1709L27.5205 39.8357V28.0979H21.3278C20.6125 28.0979 20.2923 28.5716 20.6052 29.1733M30.0786 39.8381L36.9963 29.1709C37.3165 28.5704 36.989 28.0955 36.2725 28.0955H30.081L30.0786 39.8381Z" fill="#242424"/>
<path d="M181.586 29.9639C181.496 29.6528 181.371 29.3779 181.209 29.1393C181.047 28.8964 180.849 28.6919 180.614 28.5257C180.384 28.3552 180.12 28.2252 179.822 28.1357C179.528 28.0463 179.202 28.0015 178.844 28.0015C178.175 28.0015 177.587 28.1677 177.08 28.5001C176.577 28.8325 176.185 29.3161 175.903 29.9511C175.622 30.5818 175.482 31.3531 175.482 32.265C175.482 33.1769 175.62 33.9525 175.897 34.5917C176.174 35.2309 176.566 35.7188 177.073 36.0555C177.58 36.3879 178.179 36.5541 178.869 36.5541C179.496 36.5541 180.031 36.4433 180.474 36.2217C180.921 35.9958 181.262 35.6784 181.496 35.2693C181.735 34.8602 181.854 34.3765 181.854 33.8183L182.417 33.9014H179.042V31.8176H184.52V33.4667C184.52 34.6173 184.277 35.6059 183.791 36.4326C183.305 37.2551 182.636 37.89 181.784 38.3374C180.932 38.7806 179.956 39.0022 178.857 39.0022C177.629 39.0022 176.551 38.7316 175.622 38.1904C174.693 37.645 173.969 36.8715 173.449 35.8701C172.933 34.8644 172.675 33.6713 172.675 32.2906C172.675 31.2295 172.829 30.2835 173.136 29.4525C173.447 28.6173 173.881 27.9099 174.44 27.3303C174.998 26.7508 175.648 26.3097 176.389 26.0072C177.131 25.7046 177.934 25.5534 178.799 25.5534C179.54 25.5534 180.231 25.662 180.87 25.8793C181.509 26.0924 182.076 26.395 182.57 26.787C183.069 27.1791 183.476 27.6457 183.791 28.1869C184.107 28.7238 184.309 29.3161 184.398 29.9639H181.586ZM198.269 32.2778C198.269 33.7053 197.998 34.9198 197.457 35.9213C196.92 36.9227 196.187 37.6876 195.258 38.216C194.333 38.7401 193.294 39.0022 192.139 39.0022C190.975 39.0022 189.931 38.738 189.007 38.2096C188.082 37.6812 187.351 36.9163 186.814 35.9149C186.277 34.9134 186.009 33.7011 186.009 32.2778C186.009 30.8502 186.277 29.6357 186.814 28.6343C187.351 27.6329 188.082 26.8701 189.007 26.346C189.931 25.8176 190.975 25.5534 192.139 25.5534C193.294 25.5534 194.333 25.8176 195.258 26.346C196.187 26.8701 196.92 27.6329 197.457 28.6343C197.998 29.6357 198.269 30.8502 198.269 32.2778ZM195.463 32.2778C195.463 31.3531 195.324 30.5732 195.047 29.9383C194.774 29.3034 194.389 28.8218 193.89 28.4937C193.392 28.1656 192.808 28.0015 192.139 28.0015C191.47 28.0015 190.886 28.1656 190.387 28.4937C189.889 28.8218 189.501 29.3034 189.224 29.9383C188.951 30.5732 188.815 31.3531 188.815 32.2778C188.815 33.2025 188.951 33.9823 189.224 34.6173C189.501 35.2522 189.889 35.7338 190.387 36.0619C190.886 36.39 191.47 36.5541 192.139 36.5541C192.808 36.5541 193.392 36.39 193.89 36.0619C194.389 35.7338 194.774 35.2522 195.047 34.6173C195.324 33.9823 195.463 33.2025 195.463 32.2778ZM199.959 38.8232V25.7323H202.727V36.5413H208.339V38.8232H199.959ZM214.452 38.8232H209.812V25.7323H214.491C215.808 25.7323 216.941 25.9944 217.891 26.5186C218.842 27.0384 219.573 27.7863 220.084 28.7622C220.599 29.738 220.857 30.9056 220.857 32.265C220.857 33.6286 220.599 34.8005 220.084 35.7806C219.573 36.7607 218.837 37.5129 217.879 38.037C216.924 38.5612 215.782 38.8232 214.452 38.8232ZM212.58 36.4518H214.337C215.156 36.4518 215.844 36.3069 216.402 36.0171C216.965 35.7231 217.386 35.2693 217.668 34.6556C217.953 34.0377 218.096 33.2409 218.096 32.265C218.096 31.2977 217.953 30.5072 217.668 29.8936C217.386 29.2799 216.967 28.8282 216.408 28.5384C215.85 28.2487 215.162 28.1038 214.344 28.1038H212.58V36.4518ZM226.354 25.7323H229.767L233.372 34.5278H233.525L237.131 25.7323H240.544V38.8232H237.859V30.3026H237.751L234.363 38.7593H232.535L229.147 30.2707H229.038V38.8232H226.354V25.7323ZM242.464 38.8232V25.7323H251.285V28.0143H245.232V31.1336H250.831V33.4156H245.232V36.5413H251.311V38.8232H242.464ZM253.126 25.7323H256.539L260.144 34.5278H260.298L263.903 25.7323H267.316V38.8232H264.631V30.3026H264.523L261.135 38.7593H259.307L255.919 30.2707H255.81V38.8232H253.126V25.7323ZM269.236 38.8232V25.7323H274.478C275.441 25.7323 276.244 25.8751 276.888 26.1606C277.531 26.4461 278.015 26.8424 278.339 27.3495C278.663 27.8524 278.825 28.4319 278.825 29.0882C278.825 29.5995 278.722 30.0491 278.518 30.4369C278.313 30.8204 278.032 31.1357 277.674 31.3829C277.32 31.6258 276.915 31.7984 276.459 31.9007V32.0285C276.958 32.0498 277.425 32.1904 277.859 32.4504C278.298 32.7103 278.654 33.0747 278.927 33.5434C279.2 34.0079 279.336 34.5619 279.336 35.2053C279.336 35.8999 279.163 36.52 278.818 37.0654C278.477 37.6066 277.972 38.0349 277.303 38.3502C276.634 38.6656 275.81 38.8232 274.83 38.8232H269.236ZM272.004 36.5605H274.261C275.032 36.5605 275.594 36.4134 275.948 36.1194C276.302 35.8211 276.479 35.4248 276.479 34.9305C276.479 34.5683 276.391 34.2487 276.217 33.9717C276.042 33.6947 275.793 33.4774 275.469 33.3197C275.149 33.162 274.768 33.0832 274.325 33.0832H272.004V36.5605ZM272.004 31.2103H274.056C274.435 31.2103 274.772 31.1443 275.066 31.0122C275.364 30.8758 275.599 30.684 275.769 30.4369C275.944 30.1897 276.031 29.8936 276.031 29.5484C276.031 29.0754 275.863 28.694 275.526 28.4042C275.194 28.1144 274.721 27.9695 274.107 27.9695H272.004V31.2103ZM280.777 38.8232V25.7323H289.598V28.0143H283.545V31.1336H289.144V33.4156H283.545V36.5413H289.623V38.8232H280.777ZM291.438 38.8232V25.7323H296.603C297.592 25.7323 298.436 25.9092 299.134 26.2629C299.837 26.6123 300.372 27.1088 300.739 27.7522C301.11 28.3914 301.295 29.1436 301.295 30.0086C301.295 30.8779 301.107 31.6258 300.732 32.2522C300.357 32.8744 299.814 33.3517 299.102 33.684C298.395 34.0164 297.538 34.1826 296.533 34.1826H293.075V31.9582H296.085C296.614 31.9582 297.053 31.8857 297.402 31.7409C297.752 31.596 298.011 31.3786 298.182 31.0889C298.357 30.7991 298.444 30.439 298.444 30.0086C298.444 29.574 298.357 29.2075 298.182 28.9092C298.011 28.6109 297.749 28.385 297.396 28.2316C297.046 28.074 296.605 27.9951 296.073 27.9951H294.206V38.8232H291.438ZM298.508 32.8659L301.761 38.8232H298.706L295.523 32.8659H298.508Z" fill="#242424"/>
<defs>
<linearGradient id="paint0_linear_3321_5381" x1="111.524" y1="-16.6166" x2="268.004" y2="173.989" gradientUnits="userSpaceOnUse">
<stop stop-color="#FFD268"/>
<stop offset="0.389423" stop-color="#FFE098"/>
<stop offset="0.725962" stop-color="#FFC334"/>
</linearGradient>
<linearGradient id="paint1_linear_3321_5381" x1="111.524" y1="-16.6166" x2="268.004" y2="173.989" gradientUnits="userSpaceOnUse">
<stop stop-color="#FFD268"/>
<stop offset="0.389423" stop-color="#FFE098"/>
<stop offset="0.725962" stop-color="#FFC334"/>
</linearGradient>
<linearGradient id="paint2_linear_3321_5381" x1="159.365" y1="73.9546" x2="159.365" y2="363.955" gradientUnits="userSpaceOnUse">
<stop stop-color="white"/>
<stop offset="1" stop-color="#999999" stop-opacity="0"/>
</linearGradient>
</defs>
</svg>
