<svg width="318" height="170" viewBox="0 0 318 170" fill="none" xmlns="http://www.w3.org/2000/svg">
<path d="M0 24C0 10.7451 10.7452 0 24 0L294 0C307.255 0 318 10.7452 318 24V145.756C318 159.011 307.255 169.756 294 169.756H24C10.7452 169.756 0 159.011 0 145.756L0 24Z" fill="#15151A"/>
<mask id="mask0_3321_5397" style="mask-type:alpha" maskUnits="userSpaceOnUse" x="0" y="0" width="318" height="170">
<path d="M0 24C0 10.7451 10.7452 0 24 0L294 0C307.255 0 318 10.7452 318 24V145.756C318 159.011 307.255 169.756 294 169.756H24C10.7452 169.756 0 159.011 0 145.756L0 24Z" fill="#15151A"/>
</mask>
<g mask="url(#mask0_3321_5397)">
<circle opacity="0.03" cx="159.365" cy="219" r="145" fill="url(#paint0_linear_3321_5397)"/>
</g>
<path d="M39.2655 29.6784L29.7849 44.7753C29.669 44.9582 29.5085 45.1086 29.3186 45.2126C29.1287 45.3166 28.9156 45.3708 28.6991 45.3701C28.4825 45.3694 28.2697 45.3138 28.0805 45.2085C27.8914 45.1032 27.7319 44.9517 27.6172 44.7681L18.3215 29.6712C18.0606 29.2485 17.9233 28.7613 17.9251 28.2647C17.9363 27.531 18.2384 26.8317 18.765 26.3208C19.2916 25.8098 19.9996 25.5289 20.7333 25.5399H36.8791C38.4221 25.5387 39.6751 26.7542 39.6751 28.2574C39.6751 28.7564 39.535 29.2494 39.2655 29.6784ZM20.6052 29.1709L27.5205 39.8357V28.0979H21.3278C20.6125 28.0979 20.2923 28.5716 20.6052 29.1733M30.0786 39.8381L36.9963 29.1709C37.3165 28.5704 36.989 28.0955 36.2725 28.0955H30.081L30.0786 39.8381Z" fill="white"/>
<path d="M182.762 25.7323V38.8232H180.371L174.676 30.5839H174.58V38.8232H171.812V25.7323H174.241L179.892 33.9653H180.007V25.7323H182.762ZM184.689 38.8232V25.7323H193.51V28.0143H187.457V31.1336H193.056V33.4156H187.457V36.5413H193.535V38.8232H184.689ZM198.297 38.8232L194.551 25.7323H197.575L199.742 34.8282H199.85L202.241 25.7323H204.83L207.214 34.8474H207.329L209.496 25.7323H212.519L208.774 38.8232H206.076L203.583 30.2643H203.481L200.994 38.8232H198.297ZM217.447 25.7323H220.86L224.465 34.5278H224.619L228.224 25.7323H231.637V38.8232H228.952V30.3026H228.844L225.456 38.7593H223.628L220.24 30.2707H220.131V38.8232H217.447V25.7323ZM233.557 38.8232V25.7323H242.378V28.0143H236.325V31.1336H241.925V33.4156H236.325V36.5413H242.404V38.8232H233.557ZM244.219 25.7323H247.632L251.237 34.5278H251.391L254.996 25.7323H258.409V38.8232H255.725V30.3026H255.616L252.228 38.7593H250.4L247.012 30.2707H246.903V38.8232H244.219V25.7323ZM260.33 38.8232V25.7323H265.571C266.534 25.7323 267.337 25.8751 267.981 26.1606C268.624 26.4461 269.108 26.8424 269.432 27.3495C269.756 27.8524 269.918 28.4319 269.918 29.0882C269.918 29.5995 269.815 30.0491 269.611 30.4369C269.406 30.8204 269.125 31.1357 268.767 31.3829C268.413 31.6258 268.009 31.7984 267.553 31.9007V32.0285C268.051 32.0498 268.518 32.1904 268.952 32.4504C269.391 32.7103 269.747 33.0747 270.02 33.5434C270.293 34.0079 270.429 34.5619 270.429 35.2053C270.429 35.8999 270.256 36.52 269.911 37.0654C269.57 37.6066 269.065 38.0349 268.396 38.3502C267.727 38.6656 266.903 38.8232 265.923 38.8232H260.33ZM263.097 36.5605H265.354C266.125 36.5605 266.688 36.4134 267.041 36.1194C267.395 35.8211 267.572 35.4248 267.572 34.9305C267.572 34.5683 267.484 34.2487 267.31 33.9717C267.135 33.6947 266.886 33.4774 266.562 33.3197C266.242 33.162 265.861 33.0832 265.418 33.0832H263.097V36.5605ZM263.097 31.2103H265.149C265.528 31.2103 265.865 31.1443 266.159 31.0122C266.457 30.8758 266.692 30.684 266.862 30.4369C267.037 30.1897 267.124 29.8936 267.124 29.5484C267.124 29.0754 266.956 28.694 266.619 28.4042C266.287 28.1144 265.814 27.9695 265.2 27.9695H263.097V31.2103ZM271.87 38.8232V25.7323H280.691V28.0143H274.638V31.1336H280.237V33.4156H274.638V36.5413H280.717V38.8232H271.87ZM282.531 38.8232V25.7323H287.696C288.685 25.7323 289.529 25.9092 290.227 26.2629C290.931 26.6123 291.465 27.1088 291.832 27.7522C292.203 28.3914 292.388 29.1436 292.388 30.0086C292.388 30.8779 292.2 31.6258 291.825 32.2522C291.45 32.8744 290.907 33.3517 290.195 33.684C289.488 34.0164 288.632 34.1826 287.626 34.1826H284.168V31.9582H287.178C287.707 31.9582 288.146 31.8857 288.495 31.7409C288.845 31.596 289.105 31.3786 289.275 31.0889C289.45 30.7991 289.537 30.439 289.537 30.0086C289.537 29.574 289.45 29.2075 289.275 28.9092C289.105 28.6109 288.843 28.385 288.489 28.2316C288.139 28.074 287.698 27.9951 287.166 27.9951H285.299V38.8232H282.531ZM289.601 32.8659L292.855 38.8232H289.799L286.616 32.8659H289.601Z" fill="white"/>
<defs>
<linearGradient id="paint0_linear_3321_5397" x1="159.365" y1="74" x2="159.365" y2="364" gradientUnits="userSpaceOnUse">
<stop stop-color="white"/>
<stop offset="1" stop-color="#999999" stop-opacity="0"/>
</linearGradient>
</defs>
</svg>
