<svg width="360" height="146" viewBox="0 0 360 146" fill="none" xmlns="http://www.w3.org/2000/svg">
<rect width="360" height="146" rx="24" fill="url(#paint0_linear_87_464)"/>
<mask id="mask0_87_464" style="mask-type:alpha" maskUnits="userSpaceOnUse" x="0" y="0" width="360" height="146">
<rect width="360" height="146" rx="24" fill="url(#paint1_linear_87_464)"/>
</mask>
<g mask="url(#mask0_87_464)">
<g style="mix-blend-mode:overlay" opacity="0.5">
<path d="M134 -58H222L259 174.5L100.5 178.5L134 -58Z" fill="url(#paint2_linear_87_464)"/>
</g>
<rect x="-38" y="19" width="82" height="82" rx="24" fill="white" fill-opacity="0.1"/>
<rect x="-37.5" y="19.5" width="81" height="81" rx="23.5" stroke="white" stroke-opacity="0.1"/>
<rect x="50" y="19" width="82" height="82" rx="24" fill="white" fill-opacity="0.3"/>
<rect x="50.5" y="19.5" width="81" height="81" rx="23.5" stroke="white" stroke-opacity="0.1"/>
<rect x="138" y="19" width="82" height="82" rx="24" fill="url(#paint3_linear_87_464)"/>
<rect x="226" y="19" width="82" height="82" rx="24" fill="white" fill-opacity="0.3"/>
<rect x="226.5" y="19.5" width="81" height="81" rx="23.5" stroke="white" stroke-opacity="0.1"/>
<rect x="314" y="19" width="82" height="82" rx="24" fill="white" fill-opacity="0.1"/>
<rect x="314.5" y="19.5" width="81" height="81" rx="23.5" stroke="white" stroke-opacity="0.1"/>
<path d="M159.317 118.724H155.766C155.718 118.36 155.621 118.031 155.475 117.737C155.328 117.444 155.134 117.193 154.892 116.984C154.651 116.776 154.364 116.617 154.033 116.509C153.706 116.395 153.344 116.338 152.946 116.338C152.241 116.338 151.632 116.511 151.121 116.857C150.614 117.202 150.224 117.702 149.949 118.355C149.679 119.009 149.544 119.799 149.544 120.727C149.544 121.693 149.681 122.503 149.956 123.156C150.235 123.805 150.626 124.295 151.128 124.626C151.635 124.953 152.234 125.116 152.925 125.116C153.313 125.116 153.666 125.067 153.983 124.967C154.305 124.868 154.587 124.723 154.828 124.534C155.074 124.34 155.276 124.106 155.432 123.831C155.593 123.552 155.704 123.237 155.766 122.886L159.317 122.908C159.255 123.552 159.068 124.186 158.756 124.811C158.448 125.436 158.024 126.007 157.484 126.523C156.945 127.034 156.287 127.441 155.51 127.744C154.738 128.047 153.853 128.199 152.854 128.199C151.538 128.199 150.359 127.91 149.317 127.332C148.28 126.75 147.461 125.902 146.859 124.79C146.258 123.677 145.957 122.323 145.957 120.727C145.957 119.127 146.263 117.77 146.874 116.658C147.484 115.545 148.311 114.7 149.352 114.122C150.394 113.545 151.561 113.256 152.854 113.256C153.734 113.256 154.549 113.379 155.297 113.625C156.045 113.866 156.703 114.222 157.271 114.69C157.84 115.154 158.301 115.725 158.656 116.402C159.011 117.079 159.232 117.853 159.317 118.724ZM163.704 128H159.925L164.833 113.455H169.513L174.421 128H170.643L167.227 117.119H167.113L163.704 128ZM163.2 122.276H171.097V124.946H163.2V122.276ZM183 117.815C182.953 117.295 182.742 116.89 182.368 116.601C181.999 116.307 181.471 116.161 180.784 116.161C180.33 116.161 179.951 116.22 179.648 116.338C179.345 116.456 179.118 116.62 178.966 116.828C178.815 117.032 178.736 117.266 178.732 117.531C178.722 117.749 178.765 117.941 178.86 118.107C178.959 118.272 179.101 118.419 179.286 118.547C179.475 118.67 179.702 118.779 179.968 118.874C180.233 118.968 180.531 119.051 180.862 119.122L182.112 119.406C182.832 119.562 183.467 119.771 184.016 120.031C184.57 120.292 185.034 120.602 185.408 120.962C185.787 121.321 186.073 121.736 186.267 122.205C186.461 122.673 186.561 123.199 186.566 123.781C186.561 124.7 186.329 125.488 185.869 126.146C185.41 126.804 184.75 127.309 183.888 127.659C183.031 128.009 181.996 128.185 180.784 128.185C179.567 128.185 178.507 128.002 177.602 127.638C176.698 127.273 175.995 126.719 175.493 125.976C174.991 125.232 174.733 124.293 174.719 123.156H178.085C178.114 123.625 178.239 124.016 178.462 124.328C178.684 124.641 178.99 124.877 179.378 125.038C179.771 125.199 180.226 125.28 180.742 125.28C181.215 125.28 181.618 125.216 181.949 125.088C182.285 124.96 182.543 124.783 182.723 124.555C182.903 124.328 182.995 124.068 183 123.774C182.995 123.5 182.91 123.265 182.744 123.071C182.579 122.872 182.323 122.702 181.977 122.56C181.637 122.413 181.201 122.278 180.671 122.155L179.151 121.8C177.891 121.511 176.899 121.045 176.175 120.401C175.45 119.752 175.091 118.876 175.095 117.773C175.091 116.873 175.332 116.085 175.82 115.408C176.307 114.731 176.982 114.203 177.844 113.824C178.706 113.445 179.688 113.256 180.791 113.256C181.918 113.256 182.896 113.447 183.725 113.831C184.558 114.21 185.204 114.742 185.664 115.429C186.123 116.116 186.357 116.911 186.367 117.815H183ZM187.941 128V113.455H198.083V116.31H191.457V119.293H197.565V122.155H191.457V125.145H198.083V128H187.941ZM207.747 117.815C207.7 117.295 207.489 116.89 207.115 116.601C206.746 116.307 206.218 116.161 205.531 116.161C205.077 116.161 204.698 116.22 204.395 116.338C204.092 116.456 203.864 116.62 203.713 116.828C203.561 117.032 203.483 117.266 203.479 117.531C203.469 117.749 203.512 117.941 203.606 118.107C203.706 118.272 203.848 118.419 204.033 118.547C204.222 118.67 204.449 118.779 204.714 118.874C204.98 118.968 205.278 119.051 205.609 119.122L206.859 119.406C207.579 119.562 208.213 119.771 208.763 120.031C209.317 120.292 209.781 120.602 210.155 120.962C210.534 121.321 210.82 121.736 211.014 122.205C211.208 122.673 211.308 123.199 211.312 123.781C211.308 124.7 211.076 125.488 210.616 126.146C210.157 126.804 209.497 127.309 208.635 127.659C207.778 128.009 206.743 128.185 205.531 128.185C204.314 128.185 203.254 128.002 202.349 127.638C201.445 127.273 200.742 126.719 200.24 125.976C199.738 125.232 199.48 124.293 199.466 123.156H202.832C202.861 123.625 202.986 124.016 203.209 124.328C203.431 124.641 203.737 124.877 204.125 125.038C204.518 125.199 204.972 125.28 205.489 125.28C205.962 125.28 206.364 125.216 206.696 125.088C207.032 124.96 207.29 124.783 207.47 124.555C207.65 124.328 207.742 124.068 207.747 123.774C207.742 123.5 207.657 123.265 207.491 123.071C207.326 122.872 207.07 122.702 206.724 122.56C206.383 122.413 205.948 122.278 205.418 122.155L203.898 121.8C202.638 121.511 201.646 121.045 200.922 120.401C200.197 119.752 199.837 118.876 199.842 117.773C199.837 116.873 200.079 116.085 200.567 115.408C201.054 114.731 201.729 114.203 202.591 113.824C203.453 113.445 204.435 113.256 205.538 113.256C206.665 113.256 207.643 113.447 208.471 113.831C209.305 114.21 209.951 114.742 210.41 115.429C210.87 116.116 211.104 116.911 211.114 117.815H207.747Z" fill="white"/>
</g>
<defs>
<linearGradient id="paint0_linear_87_464" x1="57.6" y1="4.015" x2="74.2595" y2="157.479" gradientUnits="userSpaceOnUse">
<stop stop-color="#FF7C3A"/>
<stop offset="1" stop-color="#FFB700"/>
</linearGradient>
<linearGradient id="paint1_linear_87_464" x1="119.5" y1="-47.9063" x2="244.083" y2="159.832" gradientUnits="userSpaceOnUse">
<stop stop-color="#009DFF"/>
<stop offset="1" stop-color="#9837FF"/>
</linearGradient>
<linearGradient id="paint2_linear_87_464" x1="178" y1="2" x2="178" y2="178" gradientUnits="userSpaceOnUse">
<stop stop-color="white"/>
<stop offset="1" stop-color="#999999" stop-opacity="0"/>
</linearGradient>
<linearGradient id="paint3_linear_87_464" x1="179" y1="19" x2="179" y2="150.5" gradientUnits="userSpaceOnUse">
<stop stop-color="white"/>
<stop offset="0.980769" stop-color="#FED240"/>
</linearGradient>
</defs>
</svg>
