<svg width="24" height="24" viewBox="0 0 24 24" fill="none" xmlns="http://www.w3.org/2000/svg">
<path d="M8.99999 4.7998C7.24957 4.7998 5.57083 5.49516 4.33309 6.7329C3.09535 7.97064 2.39999 9.64938 2.39999 11.3998C2.39999 13.1502 3.09535 14.829 4.33309 16.0667C5.57083 17.3044 7.24957 17.9998 8.99999 17.9998H15C16.7504 17.9998 18.4292 17.3044 19.6669 16.0667C20.9046 14.829 21.6 13.1502 21.6 11.3998C21.6 9.64938 20.9046 7.97064 19.6669 6.7329C18.4292 5.49516 16.7504 4.7998 15 4.7998H8.99999ZM7.19999 8.9998C7.19999 8.84067 7.26321 8.68806 7.37573 8.57554C7.48825 8.46302 7.64086 8.3998 7.79999 8.3998C7.95912 8.3998 8.11174 8.46302 8.22426 8.57554C8.33678 8.68806 8.39999 8.84067 8.39999 8.9998V10.7998H10.2C10.3591 10.7998 10.5117 10.863 10.6243 10.9755C10.7368 11.0881 10.8 11.2407 10.8 11.3998C10.8 11.5589 10.7368 11.7115 10.6243 11.8241C10.5117 11.9366 10.3591 11.9998 10.2 11.9998H8.39999V13.7998C8.39999 13.9589 8.33678 14.1115 8.22426 14.2241C8.11174 14.3366 7.95912 14.3998 7.79999 14.3998C7.64086 14.3998 7.48825 14.3366 7.37573 14.2241C7.26321 14.1115 7.19999 13.9589 7.19999 13.7998V11.9998H5.39999C5.24086 11.9998 5.08825 11.9366 4.97573 11.8241C4.86321 11.7115 4.79999 11.5589 4.79999 11.3998C4.79999 11.2407 4.86321 11.0881 4.97573 10.9755C5.08825 10.863 5.24086 10.7998 5.39999 10.7998H7.19999V8.9998ZM18 9.5998C18 9.91806 17.8736 10.2233 17.6485 10.4483C17.4235 10.6734 17.1183 10.7998 16.8 10.7998C16.4817 10.7998 16.1765 10.6734 15.9515 10.4483C15.7264 10.2233 15.6 9.91806 15.6 9.5998C15.6 9.28154 15.7264 8.97632 15.9515 8.75128C16.1765 8.52623 16.4817 8.3998 16.8 8.3998C17.1183 8.3998 17.4235 8.52623 17.6485 8.75128C17.8736 8.97632 18 9.28154 18 9.5998ZM14.4 14.3998C14.0817 14.3998 13.7765 14.2734 13.5515 14.0483C13.3264 13.8233 13.2 13.5181 13.2 13.1998C13.2 12.8815 13.3264 12.5763 13.5515 12.3513C13.7765 12.1262 14.0817 11.9998 14.4 11.9998C14.7183 11.9998 15.0235 12.1262 15.2485 12.3513C15.4736 12.5763 15.6 12.8815 15.6 13.1998C15.6 13.5181 15.4736 13.8233 15.2485 14.0483C15.0235 14.2734 14.7183 14.3998 14.4 14.3998Z" fill="white"/>
</svg>
