<svg width="358" height="52" viewBox="0 0 358 52" fill="none" xmlns="http://www.w3.org/2000/svg">
<path d="M0 24C0 10.7452 10.7452 0 24 0H334C347.255 0 358 10.7452 358 24V28C358 41.2548 347.255 52 334 52H24C10.7452 52 0 41.2548 0 28V24Z" fill="#C4FF00"/>
<path d="M171.935 19.8636V31.5H169.81L164.748 24.1761H164.663V31.5H162.202V19.8636H164.361L169.384 27.1818H169.486V19.8636H171.935ZM177.58 31.6705C176.682 31.6705 175.909 31.4886 175.262 31.125C174.618 30.7576 174.121 30.2386 173.773 29.5682C173.424 28.8939 173.25 28.0966 173.25 27.1761C173.25 26.2784 173.424 25.4905 173.773 24.8125C174.121 24.1345 174.612 23.6061 175.245 23.2273C175.881 22.8485 176.627 22.6591 177.483 22.6591C178.059 22.6591 178.595 22.7519 179.091 22.9375C179.591 23.1193 180.027 23.3939 180.398 23.7614C180.773 24.1288 181.065 24.5909 181.273 25.1477C181.481 25.7008 181.585 26.3485 181.585 27.0909V27.7557H174.216V26.2557H179.307C179.307 25.9072 179.231 25.5985 179.08 25.3295C178.928 25.0606 178.718 24.8504 178.449 24.6989C178.184 24.5436 177.875 24.4659 177.523 24.4659C177.156 24.4659 176.83 24.5511 176.546 24.7216C176.265 24.8883 176.046 25.1136 175.887 25.3977C175.727 25.678 175.646 25.9905 175.642 26.3352V27.7614C175.642 28.1932 175.722 28.5663 175.881 28.8807C176.044 29.1951 176.273 29.4375 176.568 29.608C176.864 29.7784 177.214 29.8636 177.62 29.8636C177.888 29.8636 178.135 29.8258 178.358 29.75C178.582 29.6742 178.773 29.5606 178.932 29.4091C179.091 29.2576 179.212 29.072 179.296 28.8523L181.534 29C181.421 29.5379 181.188 30.0076 180.835 30.4091C180.487 30.8068 180.036 31.1174 179.483 31.3409C178.934 31.5606 178.299 31.6705 177.58 31.6705ZM184.711 22.7727L186.314 25.8239L187.956 22.7727H190.439L187.91 27.1364L190.507 31.5H188.035L186.314 28.483L184.621 31.5H182.121L184.711 27.1364L182.211 22.7727H184.711ZM196.198 22.7727V24.5909H190.943V22.7727H196.198ZM192.136 20.6818H194.556V28.8182C194.556 29.0417 194.59 29.2159 194.658 29.3409C194.727 29.4621 194.821 29.5473 194.943 29.5966C195.068 29.6458 195.212 29.6705 195.374 29.6705C195.488 29.6705 195.602 29.661 195.715 29.642C195.829 29.6193 195.916 29.6023 195.977 29.5909L196.357 31.392C196.236 31.4299 196.066 31.4735 195.846 31.5227C195.626 31.5758 195.359 31.608 195.045 31.6193C194.462 31.642 193.95 31.5644 193.511 31.3864C193.075 31.2083 192.736 30.9318 192.494 30.5568C192.251 30.1818 192.132 29.7083 192.136 29.1364V20.6818Z" fill="#242424"/>
</svg>
