<svg width="190" height="213" viewBox="0 0 190 213" fill="none" xmlns="http://www.w3.org/2000/svg">
<rect y="13.2512" width="175" height="200" rx="24" transform="rotate(-4.34266 0 13.2512)" fill="#0B0B0D"/>
<mask id="mask0_87_5757" style="mask-type:alpha" maskUnits="userSpaceOnUse" x="1" y="1" width="187" height="210">
<rect y="13.2512" width="175" height="200" rx="24" transform="rotate(-4.34266 0 13.2512)" fill="#0B0B0D"/>
</mask>
<g mask="url(#mask0_87_5757)">
<path d="M1.81731 37.1823C0.813636 23.9655 10.7143 12.4376 23.9311 11.4339L150.566 1.81731C163.783 0.813636 175.311 10.7143 176.315 23.9311L187.824 175.495C188.828 188.711 178.927 200.239 165.711 201.243L39.0753 210.86C25.8585 211.863 14.3306 201.963 13.3269 188.746L1.81731 37.1823Z" fill="url(#paint0_linear_87_5757)"/>
<g style="mix-blend-mode:overlay" opacity="0.3">
<circle cx="153.469" cy="13.6312" r="77" transform="rotate(-4.34266 153.469 13.6312)" fill="url(#paint1_linear_87_5757)" fill-opacity="0.2"/>
</g>
<g style="mix-blend-mode:overlay" opacity="0.3">
<circle cx="77" cy="77" r="77" transform="matrix(-0.997129 0.0757211 0.0757211 0.997129 68.5492 31.1115)" fill="url(#paint2_linear_87_5757)" fill-opacity="0.2"/>
</g>
<g style="mix-blend-mode:overlay">
<circle cx="153.038" cy="219.254" r="77" transform="rotate(-4.34266 153.038 219.254)" fill="url(#paint3_linear_87_5757)" fill-opacity="0.2"/>
</g>
</g>
<path d="M65.7252 188.778L64.6238 174.274L70.6151 173.819C71.701 173.737 72.6543 173.878 73.475 174.243C74.3001 174.603 74.9561 175.145 75.4431 175.867C75.9297 176.585 76.2109 177.443 76.2865 178.439C76.3625 179.44 76.2095 180.332 75.8274 181.116C75.4497 181.895 74.8728 182.521 74.0967 182.993C73.3205 183.465 72.3777 183.743 71.2682 183.827L67.5715 184.108L67.3617 181.346L70.4069 181.115C70.9357 181.075 71.3702 180.949 71.7103 180.738C72.0551 180.527 72.307 180.249 72.4661 179.904C72.6247 179.555 72.6872 179.158 72.6535 178.715C72.6195 178.266 72.498 177.886 72.2891 177.574C72.0799 177.258 71.7891 177.023 71.4166 176.871C71.0442 176.719 70.5959 176.663 70.0719 176.703L68.3439 176.834L69.2307 188.512L65.7252 188.778ZM78.3358 187.82L77.2344 173.317L80.7399 173.051L81.6251 184.707L87.6589 184.249L87.875 187.096L78.3358 187.82ZM91.6951 172.219L92.7965 186.722L89.2909 186.989L88.1895 172.485L91.6951 172.219ZM105.841 171.144L106.942 185.648L103.968 185.874L97.5602 177.942L97.4682 177.949L98.1038 186.319L94.5983 186.586L93.4969 172.082L96.5138 171.853L102.856 179.776L102.977 179.767L102.342 171.41L105.841 171.144ZM108.747 185.511L107.646 171.007L111.152 170.741L111.617 176.874L111.808 176.86L116.137 170.363L120.266 170.049L115.616 176.912L121.459 184.546L117.267 184.864L113.222 179.437L111.954 181.314L112.253 185.245L108.747 185.511ZM134.633 176.252C134.754 177.847 134.55 179.223 134.02 180.38C133.491 181.536 132.724 182.441 131.72 183.097C130.72 183.752 129.571 184.129 128.273 184.228C126.969 184.327 125.774 184.125 124.687 183.624C123.599 183.123 122.707 182.343 122.009 181.285C121.316 180.221 120.909 178.894 120.788 177.303C120.667 175.707 120.868 174.332 121.393 173.176C121.923 172.02 122.687 171.114 123.687 170.459C124.687 169.804 125.838 169.426 127.141 169.327C128.439 169.229 129.632 169.428 130.719 169.925C131.811 170.421 132.706 171.201 133.404 172.264C134.102 173.327 134.512 174.656 134.633 176.252ZM131.049 176.524C130.978 175.58 130.783 174.792 130.464 174.161C130.15 173.529 129.73 173.065 129.204 172.768C128.683 172.47 128.073 172.348 127.374 172.401C126.68 172.454 126.096 172.667 125.621 173.04C125.146 173.413 124.799 173.936 124.579 174.608C124.364 175.279 124.292 176.087 124.364 177.031C124.436 177.976 124.629 178.764 124.943 179.395C125.261 180.026 125.683 180.49 126.209 180.787C126.735 181.085 127.345 181.207 128.039 181.154C128.738 181.101 129.322 180.888 129.793 180.515C130.268 180.142 130.613 179.62 130.828 178.948C131.047 178.276 131.121 177.468 131.049 176.524Z" fill="white"/>
<g opacity="0.3">
<circle cx="89.2656" cy="24.2421" r="3.71875" transform="rotate(-4.34266 89.2656 24.2421)" fill="white"/>
<circle cx="74.6052" cy="44.0029" r="3.71875" transform="rotate(-4.34266 74.6052 44.0029)" fill="white"/>
<circle cx="90.6736" cy="42.7822" r="3.71875" transform="rotate(-4.34266 90.6736 42.7822)" fill="white"/>
<circle cx="106.742" cy="41.5625" r="3.71875" transform="rotate(-4.34266 106.742 41.5625)" fill="white"/>
<circle cx="59.9449" cy="63.7636" r="3.71875" transform="rotate(-4.34266 59.9449 63.7636)" fill="white"/>
<circle cx="76.0132" cy="62.5439" r="3.71875" transform="rotate(-4.34266 76.0132 62.5439)" fill="white"/>
<circle cx="92.0815" cy="61.3232" r="3.71875" transform="rotate(-4.34266 92.0815 61.3232)" fill="white"/>
<circle cx="108.15" cy="60.1035" r="3.71875" transform="rotate(-4.34266 108.15 60.1035)" fill="white"/>
<circle cx="124.218" cy="58.8828" r="3.71875" transform="rotate(-4.34266 124.218 58.8828)" fill="white"/>
<circle cx="52.7006" cy="82.9609" r="3.71875" transform="rotate(-4.34266 52.7006 82.9609)" fill="white"/>
<circle cx="68.769" cy="81.7412" r="3.71875" transform="rotate(-4.34266 68.769 81.7412)" fill="white"/>
<circle cx="84.8373" cy="80.5205" r="3.71875" transform="rotate(-4.34266 84.8373 80.5205)" fill="white"/>
<circle cx="100.906" cy="79.3007" r="3.71875" transform="rotate(-4.34266 100.906 79.3007)" fill="white"/>
<circle cx="116.974" cy="78.08" r="3.71875" transform="rotate(-4.34266 116.974 78.08)" fill="white"/>
<circle cx="133.042" cy="76.8603" r="3.71875" transform="rotate(-4.34266 133.042 76.8603)" fill="white"/>
<circle cx="46.6924" cy="102.064" r="3.71875" transform="rotate(-4.34266 46.6924 102.064)" fill="white"/>
<circle cx="62.7607" cy="100.845" r="3.71875" transform="rotate(-4.34266 62.7607 100.845)" fill="white"/>
<circle cx="78.8291" cy="99.624" r="3.71875" transform="rotate(-4.34266 78.8291 99.624)" fill="white"/>
<circle cx="94.8974" cy="98.4042" r="3.71875" transform="rotate(-4.34266 94.8974 98.4042)" fill="white"/>
<circle cx="110.966" cy="97.1835" r="3.71875" transform="rotate(-4.34266 110.966 97.1835)" fill="white"/>
<circle cx="127.034" cy="95.9638" r="3.71875" transform="rotate(-4.34266 127.034 95.9638)" fill="white"/>
<circle cx="143.102" cy="94.7431" r="3.71875" transform="rotate(-4.34266 143.102 94.7431)" fill="white"/>
<circle cx="39.4482" cy="121.262" r="3.71875" transform="rotate(-4.34266 39.4482 121.262)" fill="white"/>
<circle cx="55.5165" cy="120.042" r="3.71875" transform="rotate(-4.34266 55.5165 120.042)" fill="white"/>
<circle cx="71.5848" cy="118.821" r="3.71875" transform="rotate(-4.34266 71.5848 118.821)" fill="white"/>
<circle cx="87.6531" cy="117.602" r="3.71875" transform="rotate(-4.34266 87.6531 117.602)" fill="white"/>
<circle cx="103.721" cy="116.381" r="3.71875" transform="rotate(-4.34266 103.721 116.381)" fill="white"/>
<circle cx="119.79" cy="115.161" r="3.71875" transform="rotate(-4.34266 119.79 115.161)" fill="white"/>
<circle cx="135.858" cy="113.94" r="3.71875" transform="rotate(-4.34266 135.858 113.94)" fill="white"/>
<circle cx="151.926" cy="112.721" r="3.71875" transform="rotate(-4.34266 151.926 112.721)" fill="white"/>
<circle cx="33.44" cy="140.365" r="3.71875" transform="rotate(-4.34266 33.44 140.365)" fill="white"/>
<circle cx="49.5083" cy="139.145" r="3.71875" transform="rotate(-4.34266 49.5083 139.145)" fill="white"/>
<circle cx="65.5766" cy="137.925" r="3.71875" transform="rotate(-4.34266 65.5766 137.925)" fill="white"/>
<circle cx="81.6449" cy="136.705" r="3.71875" transform="rotate(-4.34266 81.6449 136.705)" fill="white"/>
<circle cx="97.7132" cy="135.484" r="3.71875" transform="rotate(-4.34266 97.7132 135.484)" fill="white"/>
<circle cx="113.782" cy="134.265" r="3.71875" transform="rotate(-4.34266 113.782 134.265)" fill="white"/>
<circle cx="129.85" cy="133.044" r="3.71875" transform="rotate(-4.34266 129.85 133.044)" fill="white"/>
<circle cx="145.918" cy="131.824" r="3.71875" transform="rotate(-4.34266 145.918 131.824)" fill="white"/>
<circle cx="161.987" cy="130.603" r="3.71875" transform="rotate(-4.34266 161.987 130.603)" fill="white"/>
</g>
<circle cx="101.814" cy="53.1564" r="6.5" transform="rotate(-4.34266 101.814 53.1564)" fill="white"/>
<circle cx="69.0219" cy="96.7648" r="6.5" transform="rotate(-4.34266 69.0219 96.7648)" fill="white"/>
<circle cx="114.094" cy="122.425" r="6.5" transform="rotate(-4.34266 114.094 122.425)" fill="white"/>
<mask id="mask1_87_5757" style="mask-type:alpha" maskUnits="userSpaceOnUse" x="27" y="131" width="147" height="39">
<rect x="27.8678" y="142.512" width="144" height="27" transform="rotate(-4.34266 27.8678 142.512)" fill="url(#paint4_linear_87_5757)"/>
</mask>
<g mask="url(#mask1_87_5757)">
<path d="M30.0135 144.355L52.9475 142.613L54.8405 167.541V167.541C42.1744 168.503 31.1268 159.015 30.1649 146.349L30.0135 144.355Z" fill="url(#paint5_linear_87_5757)" fill-opacity="0.3"/>
<rect x="52.9474" y="142.614" width="23" height="25" transform="rotate(-4.34266 52.9474 142.614)" fill="url(#paint6_linear_87_5757)" fill-opacity="0.3"/>
<rect x="75.8814" y="140.871" width="23" height="25" transform="rotate(-4.34266 75.8814 140.871)" fill="url(#paint7_linear_87_5757)" fill-opacity="0.3"/>
<rect x="98.8154" y="139.13" width="23" height="25" transform="rotate(-4.34266 98.8154 139.13)" fill="url(#paint8_linear_87_5757)" fill-opacity="0.3"/>
<rect x="121.749" y="137.388" width="23" height="25" transform="rotate(-4.34266 121.749 137.388)" fill="url(#paint9_linear_87_5757)" fill-opacity="0.3"/>
<path d="M144.683 135.647L167.617 133.905L167.769 135.899C168.731 148.565 159.242 159.613 146.576 160.575V160.575L144.683 135.647Z" fill="url(#paint10_linear_87_5757)" fill-opacity="0.3"/>
</g>
<defs>
<linearGradient id="paint0_linear_87_5757" x1="28.3361" y1="16.6152" x2="102.393" y2="206.051" gradientUnits="userSpaceOnUse">
<stop stop-color="#FF5F5F"/>
<stop offset="1" stop-color="#FF6F00"/>
</linearGradient>
<linearGradient id="paint1_linear_87_5757" x1="98.4694" y1="110.131" x2="220.469" y2="34.1312" gradientUnits="userSpaceOnUse">
<stop stop-color="white"/>
<stop offset="1" stop-color="white" stop-opacity="0"/>
</linearGradient>
<linearGradient id="paint2_linear_87_5757" x1="22" y1="173.5" x2="144" y2="97.5" gradientUnits="userSpaceOnUse">
<stop stop-color="white"/>
<stop offset="1" stop-color="white" stop-opacity="0"/>
</linearGradient>
<linearGradient id="paint3_linear_87_5757" x1="98.0382" y1="315.754" x2="220.038" y2="239.754" gradientUnits="userSpaceOnUse">
<stop stop-color="white"/>
<stop offset="1" stop-color="white" stop-opacity="0"/>
</linearGradient>
<linearGradient id="paint4_linear_87_5757" x1="27.8678" y1="156.012" x2="171.868" y2="156.012" gradientUnits="userSpaceOnUse">
<stop stop-color="#D9D9D9"/>
<stop offset="1" stop-color="#737373"/>
</linearGradient>
<linearGradient id="paint5_linear_87_5757" x1="41.4805" y1="143.484" x2="43.6258" y2="184.94" gradientUnits="userSpaceOnUse">
<stop stop-color="white" stop-opacity="0"/>
<stop offset="1" stop-color="white"/>
</linearGradient>
<linearGradient id="paint6_linear_87_5757" x1="64.4474" y1="142.614" x2="63.4474" y2="184.114" gradientUnits="userSpaceOnUse">
<stop stop-color="white" stop-opacity="0"/>
<stop offset="1" stop-color="white"/>
</linearGradient>
<linearGradient id="paint7_linear_87_5757" x1="87.3814" y1="140.871" x2="86.3814" y2="182.371" gradientUnits="userSpaceOnUse">
<stop stop-color="white" stop-opacity="0"/>
<stop offset="1" stop-color="white"/>
</linearGradient>
<linearGradient id="paint8_linear_87_5757" x1="110.315" y1="139.13" x2="109.315" y2="180.63" gradientUnits="userSpaceOnUse">
<stop stop-color="white" stop-opacity="0"/>
<stop offset="1" stop-color="white"/>
</linearGradient>
<linearGradient id="paint9_linear_87_5757" x1="133.249" y1="137.388" x2="132.249" y2="178.888" gradientUnits="userSpaceOnUse">
<stop stop-color="white" stop-opacity="0"/>
<stop offset="1" stop-color="white"/>
</linearGradient>
<linearGradient id="paint10_linear_87_5757" x1="156.15" y1="134.776" x2="158.296" y2="176.232" gradientUnits="userSpaceOnUse">
<stop stop-color="white" stop-opacity="0"/>
<stop offset="1" stop-color="white"/>
</linearGradient>
</defs>
</svg>
