<svg width="255" height="275" viewBox="0 0 255 275" fill="none" xmlns="http://www.w3.org/2000/svg">
<rect x="59.505" width="201.893" height="230.735" rx="27.6882" transform="rotate(14.9451 59.505 0)" fill="#0B0B0D"/>
<mask id="mask0_87_5826" style="mask-type:alpha" maskUnits="userSpaceOnUse" x="6" y="6" width="243" height="263">
<rect x="59.505" width="201.893" height="230.735" rx="27.6882" transform="rotate(14.9451 59.505 0)" fill="#0B0B0D"/>
</mask>
<g mask="url(#mask0_87_5826)">
<path d="M52.3644 26.7516C56.3081 11.9771 71.4821 3.19696 86.2566 7.14061L227.817 44.9263C242.592 48.87 251.372 64.044 247.428 78.8185L202.204 248.245C198.261 263.02 183.087 271.8 168.312 267.856L26.7516 230.071C11.9771 226.127 3.19696 210.953 7.14061 196.178L52.3644 26.7516Z" fill="url(#paint0_linear_87_5826)"/>
<path d="M223.092 228.148C205.756 293.094 139.053 331.69 74.1071 314.355C9.16089 297.019 -29.4352 230.316 -12.0995 165.37C5.23608 100.424 71.9387 61.8277 136.885 79.1633C201.831 96.4989 240.427 163.202 223.092 228.148ZM6.66029 170.377C-7.90981 224.963 24.5291 281.025 79.1146 295.595C133.7 310.165 189.762 277.726 204.332 223.14C218.902 168.555 186.463 112.493 131.878 97.9232C77.2921 83.3531 21.2304 115.792 6.66029 170.377Z" fill="white" fill-opacity="0.1"/>
<circle cx="105.496" cy="196.759" r="121.713" transform="rotate(14.9451 105.496 196.759)" fill="url(#paint1_linear_87_5826)" fill-opacity="0.3"/>
<g opacity="0.5">
<circle cx="115.497" cy="174.95" r="139.595" transform="rotate(14.9451 115.497 174.95)" fill="url(#paint2_linear_87_5826)" fill-opacity="0.05"/>
<circle cx="115.497" cy="174.95" r="139.018" transform="rotate(14.9451 115.497 174.95)" stroke="url(#paint3_linear_87_5826)" stroke-opacity="0.3" stroke-width="1.15368"/>
</g>
<path d="M60.0944 94.3691C57.921 89.4676 60.1231 83.6923 65.1822 81.9163C90.3993 73.0634 117.93 72.7295 143.491 81.1288C169.053 89.528 191.02 106.127 206.071 128.212C209.09 132.642 207.438 138.598 202.781 141.255V141.255C198.124 143.912 192.231 142.258 189.145 137.874C176.526 119.947 158.42 106.472 137.43 99.575C116.441 92.678 93.8707 92.7873 73.0782 99.7351C67.9929 101.434 62.2678 99.2706 60.0944 94.3691V94.3691Z" fill="url(#paint4_linear_87_5826)"/>
<path d="M64.8195 199.066L68.7303 200.109L65.9388 210.567C65.6162 211.776 65.0476 212.752 64.2328 213.496C63.4195 214.234 62.4327 214.711 61.2725 214.927C60.1138 215.138 58.8536 215.062 57.4919 214.698C56.1145 214.331 54.976 213.767 54.0764 213.007C53.1783 212.241 52.5632 211.336 52.2313 210.292C51.9008 209.243 51.8969 208.114 52.2195 206.905L55.0109 196.447L58.9296 197.493L56.229 207.611C56.0797 208.17 56.068 208.701 56.1938 209.204C56.3249 209.708 56.5791 210.144 56.9562 210.51C57.3333 210.877 57.8148 211.138 58.4006 211.294C58.9864 211.451 59.5314 211.463 60.0357 211.332C60.5452 211.202 60.9825 210.952 61.3475 210.58C61.7125 210.208 61.9696 209.742 62.1189 209.183L64.8195 199.066ZM66.4129 216.859L70.7405 200.646L77.4379 202.434C78.6518 202.758 79.636 203.275 80.3906 203.985C81.1519 204.691 81.66 205.531 81.9148 206.504C82.1711 207.471 82.1506 208.511 81.8534 209.625C81.5547 210.744 81.048 211.657 80.3332 212.366C79.6251 213.07 78.7585 213.531 77.7334 213.749C76.7084 213.968 75.5757 213.911 74.3355 213.58L70.203 212.477L71.0271 209.39L74.4312 210.298C75.0223 210.456 75.5433 210.485 75.9941 210.385C76.4501 210.286 76.8303 210.079 77.1348 209.765C77.4406 209.445 77.6598 209.037 77.7922 208.541C77.926 208.04 77.9386 207.579 77.83 207.16C77.7228 206.736 77.4954 206.37 77.1478 206.062C76.8002 205.755 76.3335 205.523 75.7477 205.366L73.8161 204.851L70.3316 217.905L66.4129 216.859ZM94.0635 212.545C94.0626 212.189 94.0088 211.86 93.9023 211.561C93.7971 211.255 93.6418 210.979 93.4364 210.732C93.231 210.485 92.9766 210.273 92.6734 210.096C92.3715 209.914 92.0253 209.771 91.6347 209.666C90.8484 209.456 90.1168 209.465 89.4401 209.691C88.7687 209.919 88.1801 210.355 87.6743 211.001C87.1699 211.641 86.7797 212.478 86.5036 213.512C86.226 214.552 86.1398 215.479 86.2448 216.293C86.3498 217.107 86.6359 217.782 87.1031 218.32C87.5702 218.857 88.2102 219.234 89.0229 219.451C89.7407 219.643 90.3786 219.689 90.9367 219.589C91.5015 219.485 91.9709 219.251 92.3451 218.888C92.7192 218.524 92.9844 218.049 93.1408 217.463L93.8459 217.745L89.9034 216.693L90.6663 213.835L97.6566 215.701L97.0839 217.846C96.6965 219.297 96.056 220.458 95.1624 221.327C94.2741 222.198 93.2177 222.767 91.9931 223.034C90.7738 223.302 89.4675 223.25 88.0742 222.878C86.5278 222.466 85.2583 221.768 84.2655 220.785C83.2728 219.802 82.6147 218.603 82.2913 217.188C81.9694 215.768 82.0366 214.203 82.493 212.493C82.848 211.163 83.3608 210.036 84.0313 209.112C84.7033 208.184 85.4886 207.455 86.3874 206.926C87.2915 206.398 88.2599 206.074 89.2927 205.954C90.3307 205.836 91.3907 205.921 92.4727 206.209C93.4121 206.46 94.2496 206.828 94.9853 207.313C95.7262 207.799 96.3425 208.37 96.8343 209.027C97.3313 209.686 97.6849 210.405 97.8952 211.185C98.1054 211.964 98.1503 212.771 98.0297 213.604L94.0635 212.545ZM97.1537 225.065L101.481 208.851L108.179 210.639C109.393 210.963 110.382 211.462 111.146 212.135C111.917 212.805 112.435 213.61 112.698 214.551C112.963 215.486 112.947 216.508 112.651 217.617C112.351 218.741 111.851 219.631 111.15 220.286C110.451 220.936 109.595 221.346 108.583 221.517C107.572 221.683 106.449 221.601 105.214 221.271L100.978 220.141L101.802 217.053L105.309 217.989C105.901 218.147 106.414 218.202 106.851 218.155C107.294 218.103 107.661 217.947 107.952 217.685C108.243 217.418 108.456 217.034 108.59 216.533C108.724 216.031 108.732 215.59 108.613 215.207C108.496 214.82 108.259 214.491 107.901 214.22C107.545 213.944 107.074 213.728 106.489 213.572L104.557 213.056L101.072 226.111L97.1537 225.065ZM108.259 220.091L110.319 228.579L106.044 227.438L104.064 218.971L108.259 220.091ZM114.975 229.822L110.764 228.697L120.562 213.944L125.779 215.337L126.921 233.01L122.71 231.886L122.139 218.741L122.013 218.708L114.975 229.822ZM116.116 223.291L124.92 225.641L124.125 228.617L115.322 226.267L116.116 223.291ZM134.214 234.957L128.221 233.357L132.549 217.144L138.534 218.742C140.186 219.182 141.521 219.887 142.541 220.854C143.567 221.818 144.243 222.993 144.568 224.38C144.894 225.762 144.833 227.295 144.383 228.979C143.933 230.667 143.221 232.032 142.248 233.073C141.28 234.115 140.11 234.801 138.739 235.13C137.369 235.454 135.861 235.396 134.214 234.957ZM133.032 231.062L134.955 231.576C135.863 231.818 136.672 231.87 137.382 231.732C138.098 231.589 138.71 231.213 139.218 230.602C139.733 229.987 140.146 229.097 140.457 227.931C140.768 226.764 140.853 225.792 140.71 225.013C140.569 224.229 140.22 223.599 139.663 223.122C139.112 222.642 138.373 222.277 137.444 222.029L135.576 221.531L133.032 231.062ZM144.06 237.585L148.387 221.372L159.692 224.389L158.843 227.572L151.456 225.6L150.569 228.925L157.377 230.742L156.526 233.933L149.717 232.115L148.828 235.448L156.214 237.42L155.364 240.602L144.06 237.585Z" fill="white"/>
</g>
<path fill-rule="evenodd" clip-rule="evenodd" d="M141.598 52.2891C141.996 52.0597 142.467 51.9973 142.91 52.1155C143.354 52.2338 143.732 52.5231 143.961 52.9199L148.407 60.6021L156.089 56.1569C156.286 56.0335 156.506 55.951 156.735 55.9144C156.965 55.8778 157.199 55.8877 157.425 55.9437C157.65 55.9997 157.862 56.1005 158.048 56.2401C158.234 56.3798 158.389 56.5554 158.506 56.7566C158.622 56.9577 158.697 57.1803 158.725 57.4109C158.754 57.6415 158.736 57.8756 158.672 58.099C158.608 58.3224 158.5 58.5307 158.353 58.7114C158.207 58.8921 158.026 59.0415 157.821 59.1508L148.642 64.4621C148.245 64.6915 147.773 64.7539 147.33 64.6357C146.887 64.5174 146.509 64.2281 146.279 63.8313L140.968 54.6522C140.738 54.2551 140.676 53.7832 140.794 53.3401C140.912 52.8971 141.202 52.519 141.598 52.2891Z" fill="white"/>
<defs>
<linearGradient id="paint0_linear_87_5826" x1="89.0789" y1="14.4613" x2="97.5319" y2="248.963" gradientUnits="userSpaceOnUse">
<stop stop-color="#5FC2FF"/>
<stop offset="1" stop-color="#006AFF"/>
</linearGradient>
<linearGradient id="paint1_linear_87_5826" x1="106.073" y1="137.921" x2="106.073" y2="257.904" gradientUnits="userSpaceOnUse">
<stop stop-color="white" stop-opacity="0.7"/>
<stop offset="1" stop-color="white" stop-opacity="0"/>
</linearGradient>
<linearGradient id="paint2_linear_87_5826" x1="116.158" y1="107.469" x2="116.158" y2="245.079" gradientUnits="userSpaceOnUse">
<stop stop-color="white" stop-opacity="0.7"/>
<stop offset="1" stop-color="white" stop-opacity="0"/>
</linearGradient>
<linearGradient id="paint3_linear_87_5826" x1="115.497" y1="35.3557" x2="116.073" y2="72.8501" gradientUnits="userSpaceOnUse">
<stop stop-color="white"/>
<stop offset="1" stop-color="#999999" stop-opacity="0"/>
</linearGradient>
<linearGradient id="paint4_linear_87_5826" x1="139.971" y1="69.8376" x2="234.825" y2="264.713" gradientUnits="userSpaceOnUse">
<stop stop-color="white"/>
<stop offset="1" stop-color="#6EF8FF"/>
</linearGradient>
</defs>
</svg>
