<svg width="182" height="199" viewBox="0 0 182 199" fill="none" xmlns="http://www.w3.org/2000/svg">
<rect y="29.6005" width="151" height="172.571" rx="20.7086" transform="rotate(-11.3049 0 29.6005)" fill="url(#paint0_linear_87_5838)"/>
<mask id="mask0_87_5838" style="mask-type:alpha" maskUnits="userSpaceOnUse" x="3" y="3" width="176" height="193">
<rect y="29.6005" width="151" height="172.571" rx="20.7086" transform="rotate(-11.3049 0 29.6005)" fill="#0B0B0D"/>
</mask>
<g mask="url(#mask0_87_5838)">
<rect y="29.6005" width="151" height="172.571" rx="20.7086" transform="rotate(-11.3049 0 29.6005)" fill="url(#paint1_linear_87_5838)"/>
<g style="mix-blend-mode:overlay" opacity="0.3">
<path d="M85.7466 58.7096C58.7072 84.1386 24.5089 87.1471 10.7897 85.4727L9.61492 121.534L16.0367 215.461L53.1392 213.442L187.873 167.858C176.394 100.136 151.947 -31.2815 145.989 -15.171C138.543 4.9671 119.546 26.9234 85.7466 58.7096Z" fill="url(#paint2_linear_87_5838)"/>
<path d="M85.7466 58.7096C58.7072 84.1386 24.5089 87.1471 10.7897 85.4727L9.61492 121.534L16.0367 215.461L53.1392 213.442L187.873 167.858C176.394 100.136 151.947 -31.2815 145.989 -15.171C138.543 4.9671 119.546 26.9234 85.7466 58.7096Z" stroke="url(#paint3_linear_87_5838)" stroke-width="1.72571" stroke-linecap="round"/>
</g>
<path d="M15.8766 126.626C51.6195 120.651 126.473 98.1972 139.943 56.1804" stroke="url(#paint4_linear_87_5838)" stroke-width="3.45143" stroke-linecap="round"/>
<path d="M139.943 56.1801C126.473 98.197 51.6195 120.651 15.8766 126.626L24.0138 204.745L164.046 176.752L139.943 56.1801Z" fill="url(#paint5_linear_87_5838)" fill-opacity="0.5"/>
<path d="M85.3904 163.373L82.3857 163.974C82.284 163.673 82.1462 163.411 81.9724 163.188C81.7985 162.964 81.5918 162.785 81.3522 162.649C81.1127 162.514 80.8435 162.428 80.5446 162.392C80.249 162.351 79.9329 162.364 79.5964 162.431C78.9994 162.551 78.5139 162.8 78.1397 163.179C77.7695 163.557 77.5234 164.046 77.4016 164.645C77.2838 165.244 77.3033 165.935 77.4603 166.721C77.6237 167.538 77.8768 168.2 78.2197 168.706C78.5658 169.208 78.9792 169.556 79.4599 169.752C79.9438 169.943 80.4783 169.98 81.0632 169.863C81.3917 169.797 81.6817 169.695 81.9333 169.557C82.1889 169.419 82.4029 169.249 82.5752 169.048C82.7507 168.842 82.8813 168.61 82.967 168.351C83.056 168.087 83.0969 167.802 83.0897 167.495L86.098 166.913C86.1548 167.468 86.1039 168.036 85.9452 168.618C85.7905 169.199 85.5284 169.753 85.159 170.281C84.7888 170.805 84.3008 171.261 83.6951 171.649C83.0933 172.036 82.3698 172.314 81.5244 172.483C80.4107 172.705 79.3643 172.66 78.3852 172.348C77.4094 172.03 76.5729 171.452 75.8759 170.612C75.1789 169.772 74.6955 168.677 74.4256 167.327C74.1549 165.973 74.1838 164.774 74.5124 163.729C74.841 162.684 75.3972 161.829 76.1808 161.164C76.9645 160.499 77.9032 160.058 78.9969 159.839C79.742 159.69 80.4519 159.656 81.1266 159.738C81.8004 159.816 82.4173 160.005 82.9774 160.306C83.5366 160.602 84.0237 161.007 84.4387 161.52C84.8537 162.033 85.1709 162.65 85.3904 163.373ZM88.323 170.949L85.8627 158.641L90.9466 157.625C91.8681 157.441 92.6965 157.448 93.432 157.647C94.1708 157.841 94.7841 158.21 95.272 158.754C95.7591 159.294 96.0867 159.985 96.2549 160.826C96.4255 161.679 96.3842 162.442 96.1309 163.113C95.8769 163.781 95.4385 164.339 94.8159 164.789C94.1925 165.234 93.4121 165.55 92.4747 165.738L89.2597 166.38L88.7911 164.037L91.4533 163.505C91.902 163.415 92.265 163.282 92.5422 163.106C92.8226 162.925 93.017 162.698 93.1252 162.427C93.2325 162.151 93.2482 161.823 93.1721 161.442C93.096 161.062 92.955 160.763 92.7491 160.546C92.5424 160.325 92.2744 160.182 91.9451 160.119C91.615 160.052 91.2276 160.063 90.7829 160.151L89.3167 160.445L91.2976 170.354L88.323 170.949ZM94.1274 163.939L98.3166 168.951L95.0715 169.6L90.9424 164.575L94.1274 163.939ZM101.851 168.244L98.6542 168.883L100.346 155.746L104.306 154.954L110.919 166.431L107.722 167.071L102.991 158.442L102.895 158.461L101.851 168.244ZM100.456 163.486L107.139 162.15L107.59 164.41L100.908 165.746L100.456 163.486ZM116.455 156.363C116.327 155.93 116.081 155.623 115.715 155.442C115.353 155.256 114.882 155.221 114.301 155.338C113.916 155.414 113.606 155.529 113.369 155.68C113.133 155.831 112.968 156.008 112.875 156.21C112.781 156.408 112.755 156.619 112.796 156.845C112.825 157.03 112.893 157.185 113.001 157.31C113.113 157.433 113.258 157.533 113.436 157.61C113.617 157.682 113.828 157.736 114.068 157.771C114.309 157.807 114.575 157.826 114.868 157.83L115.973 157.859C116.609 157.87 117.181 157.939 117.69 158.066C118.202 158.193 118.647 158.377 119.025 158.618C119.406 158.858 119.719 159.16 119.962 159.524C120.206 159.888 120.379 160.316 120.481 160.808C120.633 161.586 120.57 162.292 120.292 162.927C120.015 163.561 119.541 164.099 118.872 164.542C118.206 164.983 117.36 165.306 116.334 165.511C115.305 165.717 114.377 165.742 113.55 165.587C112.723 165.431 112.034 165.082 111.484 164.537C110.933 163.993 110.556 163.242 110.352 162.283L113.2 161.713C113.304 162.105 113.476 162.414 113.717 162.641C113.958 162.868 114.257 163.017 114.612 163.087C114.972 163.157 115.37 163.148 115.807 163.061C116.208 162.981 116.537 162.859 116.796 162.694C117.059 162.529 117.247 162.335 117.361 162.113C117.475 161.89 117.509 161.654 117.463 161.405C117.413 161.173 117.301 160.989 117.128 160.853C116.954 160.713 116.709 160.612 116.393 160.55C116.079 160.484 115.688 160.443 115.218 160.429L113.872 160.385C112.758 160.354 111.84 160.127 111.118 159.705C110.395 159.278 109.942 158.598 109.76 157.664C109.604 156.904 109.675 156.196 109.973 155.54C110.271 154.885 110.752 154.324 111.417 153.858C112.083 153.392 112.882 153.065 113.815 152.879C114.769 152.688 115.628 152.685 116.394 152.869C117.164 153.049 117.801 153.39 118.305 153.893C118.81 154.397 119.143 155.03 119.304 155.794L116.455 156.363ZM122.359 164.145L119.898 151.837L122.873 151.243L123.86 156.182L128.71 155.213L127.723 150.273L130.691 149.68L133.151 161.987L130.183 162.58L129.194 157.635L124.345 158.604L125.333 163.55L122.359 164.145Z" fill="white"/>
<circle opacity="0.2" cx="137.912" cy="59.2265" r="11.2171" transform="rotate(-11.3049 137.912 59.2265)" stroke="white" stroke-width="1.72571"/>
</g>
<circle cx="137.912" cy="59.2266" r="8.62857" transform="rotate(-11.3049 137.912 59.2266)" fill="white"/>
<defs>
<linearGradient id="paint0_linear_87_5838" x1="75.5" y1="29.6005" x2="75.5" y2="202.172" gradientUnits="userSpaceOnUse">
<stop stop-color="#0B0B0D"/>
<stop offset="1" stop-color="#616173"/>
</linearGradient>
<linearGradient id="paint1_linear_87_5838" x1="24.16" y1="34.3462" x2="75.5" y2="202.172" gradientUnits="userSpaceOnUse">
<stop stop-color="#A55FFF"/>
<stop offset="1" stop-color="#5100FF"/>
</linearGradient>
<linearGradient id="paint2_linear_87_5838" x1="64.4755" y1="-0.00726189" x2="94.4421" y2="123.676" gradientUnits="userSpaceOnUse">
<stop stop-color="white"/>
<stop offset="1" stop-color="white" stop-opacity="0"/>
</linearGradient>
<linearGradient id="paint3_linear_87_5838" x1="64.4755" y1="-0.00726189" x2="105.07" y2="203.061" gradientUnits="userSpaceOnUse">
<stop stop-color="white"/>
<stop offset="0.397405" stop-color="white" stop-opacity="0"/>
</linearGradient>
<linearGradient id="paint4_linear_87_5838" x1="11.5004" y1="104.735" x2="144.341" y2="78.1794" gradientUnits="userSpaceOnUse">
<stop stop-color="#BB6EFF"/>
<stop offset="1" stop-color="white"/>
</linearGradient>
<linearGradient id="paint5_linear_87_5838" x1="71.1959" y1="69.9232" x2="95.2991" y2="190.495" gradientUnits="userSpaceOnUse">
<stop stop-color="white" stop-opacity="0.5"/>
<stop offset="1" stop-color="white" stop-opacity="0"/>
</linearGradient>
</defs>
</svg>
