<svg width="358" height="220" viewBox="0 0 358 220" fill="none" xmlns="http://www.w3.org/2000/svg">
<g opacity="0.8">
<rect x="117.236" y="-2.04883" width="139.406" height="214" rx="29.3486" transform="rotate(4.15653 117.236 -2.04883)" fill="url(#paint0_linear_87_5625)"/>
<mask id="mask0_87_5625" style="mask-type:alpha" maskUnits="userSpaceOnUse" x="103" y="-1" width="152" height="222">
<path d="M115.818 17.4654C116.601 6.688 125.973 -1.4139 136.75 -0.630675L236.761 6.63736C247.538 7.42059 255.64 16.7923 254.857 27.5698L242.182 201.978C241.399 212.756 232.027 220.858 221.25 220.074L121.239 212.806C110.462 212.023 102.36 202.651 103.143 191.874L115.818 17.4654Z" fill="url(#paint1_linear_87_5625)"/>
</mask>
<g mask="url(#mask0_87_5625)">
<path opacity="0.2" fill-rule="evenodd" clip-rule="evenodd" d="M162.054 173.258L107.84 194.073C102.203 196.236 95.7838 193.529 93.5025 188.026C92.3882 185.338 92.4336 182.337 93.6279 179.704L106.237 151.913C110.788 141.88 119.699 134.37 130.568 131.406L188.527 115.602C191.229 114.865 192.784 112.131 192 109.496C191.364 107.362 189.353 105.884 187.075 105.876L125.614 105.665C113.12 105.622 101.226 100.229 93.0987 90.9233L76.8619 72.331C72.9062 67.8014 73.4438 61.0471 78.0628 57.2449C80.3093 55.3955 83.2353 54.5102 86.1819 54.7885L144.592 60.3026C148.719 60.6922 152.698 58.7988 154.891 55.4025L186.081 7.09145C189.3 2.10518 196.092 0.640826 201.251 3.82071C203.729 5.34754 205.491 7.76292 206.15 10.5355L219.448 66.4812C220.382 70.4142 223.503 73.526 227.523 74.5346L284.744 88.8888C290.646 90.3694 294.243 96.2111 292.778 101.937C292.075 104.691 290.268 107.049 287.761 108.489L237.266 137.497C233.71 139.538 231.657 143.361 231.951 147.386L236.136 204.54C236.568 210.443 232.001 215.522 225.936 215.884C223.021 216.058 220.143 215.097 217.936 213.213L173.401 175.205C170.275 172.537 165.891 171.785 162.054 173.258Z" fill="url(#paint2_linear_87_5625)"/>
<path fill-rule="evenodd" clip-rule="evenodd" d="M171.99 130.345L151.366 138.264C149.221 139.087 146.779 138.057 145.911 135.964C145.487 134.941 145.504 133.799 145.959 132.798L150.755 122.225C152.487 118.408 155.877 115.551 160.012 114.423L182.062 108.411C183.09 108.13 183.681 107.09 183.383 106.088C183.141 105.276 182.376 104.714 181.509 104.711L158.127 104.63C153.374 104.614 148.849 102.562 145.757 99.0221L139.58 91.9489C138.075 90.2256 138.28 87.656 140.037 86.2095C140.892 85.5059 142.005 85.1691 143.126 85.275L165.348 87.3728C166.917 87.521 168.431 86.8007 169.266 85.5086L181.131 67.1292C182.356 65.2323 184.94 64.6752 186.903 65.8849C187.845 66.4658 188.516 67.3847 188.766 68.4395L193.825 89.7234C194.181 91.2196 195.368 92.4035 196.898 92.7872L218.666 98.2481C220.912 98.8114 222.28 101.034 221.723 103.212C221.455 104.26 220.768 105.157 219.814 105.705L200.604 116.74C199.251 117.517 198.47 118.971 198.582 120.502L200.174 142.246C200.339 144.492 198.601 146.424 196.294 146.562C195.185 146.628 194.09 146.262 193.25 145.546L176.308 131.086C175.118 130.071 173.45 129.785 171.99 130.345Z" fill="url(#paint3_linear_87_5625)"/>
<path opacity="0.5" fill-rule="evenodd" clip-rule="evenodd" d="M225.457 70.951L219.108 75.5618C218.448 76.0412 217.516 75.9121 217.026 75.2735C216.786 74.9615 216.687 74.5682 216.751 74.1829L217.426 70.1149C217.67 68.6464 218.57 67.3549 219.885 66.5884L226.898 62.5006C227.225 62.31 227.333 61.8989 227.138 61.5823C226.981 61.326 226.667 61.2033 226.369 61.2819L218.339 63.4015C216.707 63.8324 214.966 63.5441 213.58 62.6134L210.812 60.7539C210.137 60.3009 209.971 59.4005 210.441 58.7429C210.67 58.423 211.021 58.2052 211.415 58.1386L219.232 56.8177C219.784 56.7243 220.237 56.3382 220.405 55.8183L222.788 48.4229C223.034 47.6596 223.869 47.2312 224.654 47.466C225.031 47.5787 225.345 47.8324 225.528 48.1713L229.218 55.0089C229.477 55.4896 229.993 55.7868 230.553 55.778L238.524 55.6525C239.346 55.6395 240.019 56.2763 240.028 57.0748C240.032 57.4589 239.879 57.8297 239.602 58.1054L234.025 63.6556C233.632 64.0464 233.497 64.617 233.676 65.1321L236.22 72.4458C236.482 73.2013 236.063 74.0237 235.285 74.2828C234.91 74.4075 234.501 74.3825 234.147 74.2137L227.006 70.8087C226.505 70.5697 225.906 70.6247 225.457 70.951Z" fill="url(#paint4_linear_87_5625)"/>
<path opacity="0.5" fill-rule="evenodd" clip-rule="evenodd" d="M110.703 164.423L101.869 164.824C100.95 164.866 100.153 164.166 100.088 163.261C100.056 162.819 100.207 162.388 100.506 162.065L103.664 158.655C104.804 157.424 106.453 156.767 108.166 156.862L117.301 157.364C117.726 157.388 118.082 157.067 118.096 156.649C118.107 156.31 117.887 156 117.558 155.889L108.687 152.904C106.884 152.297 105.425 150.946 104.698 149.211L103.245 145.744C102.891 144.899 103.294 143.949 104.144 143.621C104.558 143.462 105.023 143.475 105.435 143.657L113.61 147.262C114.188 147.516 114.854 147.434 115.334 147.049L122.164 141.567C122.868 141.001 123.92 141.116 124.513 141.824C124.797 142.164 124.936 142.597 124.898 143.03L124.13 151.753C124.076 152.366 124.377 152.966 124.91 153.305L132.488 158.13C133.27 158.628 133.508 159.645 133.022 160.402C132.787 160.766 132.413 161.02 131.982 161.107L123.291 162.871C122.679 162.995 122.198 163.449 122.047 164.045L119.904 172.504C119.683 173.378 118.779 173.893 117.885 173.653C117.455 173.538 117.086 173.261 116.858 172.883L112.249 165.25C111.926 164.714 111.329 164.394 110.703 164.423Z" fill="url(#paint5_linear_87_5625)"/>
<path d="M158.199 187.596C158.184 187.033 157.977 186.581 157.579 186.241C157.182 185.901 156.622 185.705 155.902 185.652C155.412 185.617 154.993 185.656 154.646 185.77C154.299 185.88 154.027 186.048 153.829 186.275C153.636 186.502 153.528 186.769 153.506 187.074C153.479 187.327 153.516 187.553 153.617 187.75C153.724 187.949 153.876 188.124 154.074 188.278C154.272 188.427 154.503 188.562 154.769 188.684C155.034 188.801 155.319 188.905 155.624 188.997L156.877 189.394C157.486 189.578 158.04 189.804 158.541 190.073C159.042 190.341 159.469 190.658 159.823 191.023C160.178 191.388 160.442 191.806 160.617 192.279C160.796 192.751 160.867 193.284 160.828 193.875C160.761 194.744 160.484 195.48 159.999 196.086C159.519 196.688 158.855 197.134 158.007 197.425C157.164 197.712 156.165 197.814 155.01 197.73C153.864 197.647 152.879 197.399 152.054 196.986C151.235 196.573 150.612 196.005 150.186 195.282C149.765 194.555 149.58 193.68 149.631 192.658L152.535 192.869C152.533 193.347 152.64 193.754 152.857 194.09C153.079 194.422 153.387 194.684 153.782 194.875C154.182 195.062 154.641 195.174 155.158 195.212C155.666 195.249 156.113 195.207 156.498 195.086C156.887 194.966 157.196 194.782 157.423 194.534C157.65 194.285 157.776 193.99 157.8 193.648C157.824 193.33 157.748 193.055 157.575 192.824C157.406 192.593 157.147 192.389 156.797 192.21C156.453 192.032 156.026 191.861 155.518 191.699L154.001 191.199C152.825 190.821 151.914 190.297 151.266 189.628C150.618 188.958 150.334 188.099 150.415 187.051C150.473 186.191 150.756 185.457 151.265 184.849C151.778 184.24 152.454 183.786 153.293 183.484C154.133 183.183 155.07 183.07 156.105 183.145C157.158 183.222 158.064 183.469 158.823 183.886C159.587 184.304 160.165 184.85 160.557 185.524C160.95 186.198 161.122 186.958 161.074 187.805L158.199 187.596ZM168.541 187.811L168.38 190.028L161.97 189.563L162.131 187.345L168.541 187.811ZM163.772 184.901L166.724 185.115L166.003 195.039C165.983 195.311 166.009 195.527 166.081 195.685C166.154 195.839 166.262 195.951 166.405 196.022C166.553 196.093 166.727 196.136 166.925 196.151C167.064 196.161 167.203 196.159 167.343 196.146C167.484 196.129 167.592 196.115 167.667 196.107L167.971 198.337C167.82 198.373 167.609 198.411 167.336 198.452C167.064 198.497 166.735 198.512 166.351 198.498C165.637 198.474 165.02 198.334 164.5 198.078C163.985 197.822 163.596 197.455 163.333 196.976C163.071 196.497 162.967 195.909 163.023 195.212L163.772 184.901ZM172.321 198.988C171.642 198.939 171.045 198.777 170.531 198.503C170.017 198.224 169.623 197.84 169.347 197.351C169.076 196.857 168.967 196.26 169.018 195.557C169.061 194.966 169.205 194.477 169.452 194.091C169.698 193.705 170.017 193.403 170.409 193.185C170.801 192.968 171.24 192.814 171.725 192.724C172.214 192.634 172.724 192.583 173.254 192.57C173.878 192.55 174.381 192.527 174.764 192.499C175.147 192.466 175.429 192.398 175.608 192.295C175.787 192.192 175.885 192.027 175.902 191.801L175.905 191.76C175.937 191.321 175.823 190.971 175.563 190.711C175.308 190.451 174.929 190.302 174.425 190.266C173.894 190.227 173.462 190.314 173.131 190.527C172.8 190.735 172.571 191.011 172.444 191.355L169.73 190.935C169.915 190.298 170.229 189.759 170.669 189.317C171.111 188.871 171.661 188.544 172.322 188.336C172.988 188.125 173.745 188.05 174.595 188.112C175.187 188.155 175.748 188.265 176.278 188.443C176.813 188.621 177.28 188.871 177.68 189.193C178.084 189.514 178.391 189.913 178.603 190.388C178.815 190.859 178.898 191.41 178.852 192.043L178.33 199.223L175.53 199.019L175.638 197.543L175.555 197.537C175.359 197.857 175.109 198.134 174.805 198.367C174.5 198.596 174.142 198.767 173.729 198.881C173.317 198.991 172.848 199.026 172.321 198.988ZM173.315 197.012C173.749 197.044 174.139 196.986 174.484 196.839C174.829 196.688 175.107 196.471 175.318 196.189C175.529 195.907 175.648 195.579 175.675 195.205L175.757 194.076C175.661 194.129 175.53 194.175 175.364 194.214C175.204 194.249 175.023 194.28 174.821 194.307C174.62 194.33 174.418 194.35 174.217 194.368C174.017 194.381 173.835 194.393 173.671 194.405C173.321 194.43 173.013 194.489 172.746 194.581C172.479 194.673 172.267 194.809 172.11 194.988C171.954 195.162 171.865 195.388 171.845 195.665C171.816 196.067 171.939 196.385 172.215 196.619C172.495 196.848 172.862 196.979 173.315 197.012ZM180.23 199.361L181.004 188.717L183.866 188.925L183.731 190.782L183.842 190.79C184.084 190.143 184.446 189.668 184.927 189.364C185.41 189.055 185.949 188.923 186.545 188.966C186.692 188.977 186.851 188.998 187.021 189.028C187.19 189.059 187.339 189.096 187.466 189.137L187.275 191.757C187.14 191.705 186.951 191.654 186.708 191.604C186.466 191.554 186.243 191.522 186.04 191.507C185.605 191.475 185.21 191.542 184.855 191.706C184.504 191.867 184.217 192.106 183.994 192.424C183.776 192.743 183.651 193.119 183.62 193.553L183.182 199.575L180.23 199.361ZM197.234 192.947L194.519 192.917C194.49 192.683 194.406 192.468 194.266 192.272C194.128 192.071 193.938 191.907 193.696 191.778C193.46 191.644 193.171 191.565 192.829 191.54C192.371 191.507 191.979 191.576 191.65 191.747C191.323 191.914 191.147 192.157 191.124 192.475C191.105 192.73 191.191 192.952 191.382 193.142C191.572 193.332 191.911 193.499 192.398 193.641L194.296 194.169C195.315 194.457 196.062 194.855 196.536 195.363C197.01 195.871 197.219 196.508 197.163 197.275C197.112 197.973 196.862 198.57 196.413 199.067C195.968 199.564 195.379 199.935 194.646 200.178C193.918 200.418 193.092 200.504 192.168 200.437C190.759 200.335 189.658 199.96 188.864 199.312C188.076 198.661 187.647 197.821 187.578 196.795L190.492 196.853C190.549 197.289 190.737 197.633 191.058 197.884C191.379 198.13 191.803 198.272 192.33 198.31C192.847 198.348 193.27 198.279 193.599 198.103C193.932 197.923 194.113 197.674 194.141 197.355C194.156 197.087 194.059 196.859 193.849 196.672C193.64 196.481 193.308 196.322 192.853 196.196L191.036 195.694C190.012 195.411 189.264 194.994 188.793 194.445C188.327 193.895 188.123 193.223 188.18 192.429C188.23 191.745 188.458 191.169 188.863 190.702C189.273 190.235 189.825 189.892 190.519 189.673C191.218 189.454 192.022 189.378 192.932 189.444C194.277 189.542 195.314 189.903 196.044 190.527C196.779 191.152 197.176 191.959 197.234 192.947Z" fill="white"/>
</g>
</g>
<defs>
<linearGradient id="paint0_linear_87_5625" x1="186.939" y1="-2.04883" x2="210.785" y2="242.523" gradientUnits="userSpaceOnUse">
<stop stop-color="#FF7300"/>
<stop offset="1" stop-color="#FFD500"/>
</linearGradient>
<linearGradient id="paint1_linear_87_5625" x1="186.755" y1="3.00334" x2="192.812" y2="248.66" gradientUnits="userSpaceOnUse">
<stop stop-color="#FF7300"/>
<stop offset="1" stop-color="#FFD500"/>
</linearGradient>
<linearGradient id="paint2_linear_87_5625" x1="188.399" y1="65.4755" x2="95.8821" y2="592.487" gradientUnits="userSpaceOnUse">
<stop stop-color="white"/>
<stop offset="1" stop-color="#FF7700"/>
</linearGradient>
<linearGradient id="paint3_linear_87_5625" x1="182.013" y1="89.3408" x2="146.816" y2="289.836" gradientUnits="userSpaceOnUse">
<stop stop-color="white"/>
<stop offset="1" stop-color="#FF7700"/>
</linearGradient>
<linearGradient id="paint4_linear_87_5625" x1="225.13" y1="55.9624" x2="231.466" y2="127.982" gradientUnits="userSpaceOnUse">
<stop stop-color="white"/>
<stop offset="1" stop-color="#FF7700"/>
</linearGradient>
<linearGradient id="paint5_linear_87_5625" x1="119.692" y1="150.115" x2="80.9876" y2="221.82" gradientUnits="userSpaceOnUse">
<stop stop-color="white"/>
<stop offset="1" stop-color="#FF7700"/>
</linearGradient>
</defs>
</svg>
