<svg width="155" height="224" viewBox="0 0 155 224" fill="none" xmlns="http://www.w3.org/2000/svg">
<g opacity="0.8">
<rect x="15.5111" width="139.406" height="214" rx="29.3486" transform="rotate(4.15653 15.5111 0)" fill="url(#paint0_linear_87_5626)"/>
<mask id="mask0_87_5626" style="mask-type:alpha" maskUnits="userSpaceOnUse" x="1" y="1" width="153" height="222">
<path d="M14.0929 19.5143C14.8761 8.73683 24.2479 0.634929 35.0253 1.41815L135.036 8.68619C145.813 9.46942 153.915 18.8412 153.132 29.6186L140.457 204.027C139.674 214.805 130.302 222.907 119.525 222.123L19.5142 214.855C8.73682 214.072 0.634929 204.7 1.41815 193.923L14.0929 19.5143Z" fill="url(#paint1_linear_87_5626)"/>
</mask>
<g mask="url(#mask0_87_5626)">
<path opacity="0.2" fill-rule="evenodd" clip-rule="evenodd" d="M60.3288 175.307L6.11526 196.122C0.478158 198.285 -5.94115 195.578 -8.22243 190.075C-9.33669 187.386 -9.29133 184.386 -8.097 181.753L4.51169 153.961C9.06322 143.929 17.974 136.419 28.8427 133.455L86.8024 117.65C89.5045 116.914 91.0591 114.18 90.2748 111.545C89.6395 109.411 87.6284 107.933 85.3498 107.925L23.8887 107.713C11.3951 107.67 -0.499112 102.278 -8.62618 92.9722L-24.863 74.3799C-28.8187 69.8503 -28.2811 63.0959 -23.6621 59.2938C-21.4156 57.4443 -18.4896 56.5591 -15.543 56.8373L42.8676 62.3515C46.9942 62.741 50.9735 60.8476 53.1663 57.4513L84.3559 9.14028C87.5749 4.15401 94.3671 2.68965 99.5266 5.86954C102.004 7.39637 103.766 9.81175 104.425 12.5844L117.723 68.53C118.658 72.463 121.778 75.5748 125.798 76.5834L183.019 90.9377C188.921 92.4183 192.518 98.2599 191.053 103.986C190.35 106.74 188.543 109.097 186.036 110.538L135.541 139.545C131.985 141.587 129.932 145.41 130.226 149.434L134.411 206.589C134.844 212.492 130.276 217.57 124.212 217.933C121.296 218.107 118.418 217.146 116.212 215.262L71.6765 177.254C68.5498 174.586 64.1659 173.834 60.3288 175.307Z" fill="url(#paint2_linear_87_5626)"/>
<path fill-rule="evenodd" clip-rule="evenodd" d="M70.2655 132.394L49.6406 140.313C47.496 141.136 45.0539 140.106 44.186 138.012C43.7621 136.99 43.7794 135.848 44.2337 134.846L49.0306 124.274C50.7621 120.457 54.1521 117.6 58.287 116.472L80.3371 110.459C81.3651 110.179 81.9565 109.139 81.6581 108.137C81.4164 107.325 80.6513 106.762 79.7844 106.759L56.4023 106.679C51.6493 106.663 47.1243 104.611 44.0324 101.071L37.8553 93.9977C36.3504 92.2745 36.5549 89.7049 38.3122 88.2584C39.1668 87.5548 40.28 87.218 41.401 87.3238L63.6226 89.4216C65.1925 89.5698 66.7064 88.8495 67.5406 87.5574L79.4063 69.1781C80.631 67.2811 83.215 66.724 85.1778 67.9337C86.1203 68.5146 86.7906 69.4335 87.0414 70.4883L92.1004 91.7722C92.456 93.2684 93.6431 94.4523 95.1726 94.836L116.941 100.297C119.187 100.86 120.555 103.083 119.998 105.261C119.73 106.309 119.043 107.206 118.089 107.754L98.8791 118.789C97.5262 119.566 96.7453 121.02 96.857 122.551L98.4493 144.295C98.6138 146.541 96.8762 148.473 94.5689 148.611C93.4597 148.677 92.365 148.311 91.5254 147.595L74.5826 133.135C73.3931 132.12 71.7253 131.834 70.2655 132.394Z" fill="url(#paint3_linear_87_5626)"/>
<path opacity="0.5" fill-rule="evenodd" clip-rule="evenodd" d="M123.732 72.9998L117.383 77.6106C116.723 78.09 115.791 77.9609 115.301 77.3223C115.061 77.0103 114.962 76.6171 115.026 76.2317L115.701 72.1638C115.945 70.6952 116.845 69.4038 118.16 68.6372L125.173 64.5494C125.5 64.3588 125.608 63.9477 125.413 63.6312C125.256 63.3748 124.942 63.2521 124.644 63.3307L116.614 65.4503C114.982 65.8812 113.241 65.5929 111.856 64.6622L109.087 62.8027C108.412 62.3497 108.246 61.4493 108.716 60.7917C108.945 60.4718 109.296 60.254 109.69 60.1874L117.507 58.8665C118.059 58.7732 118.512 58.387 118.68 57.8671L121.063 50.4717C121.309 49.7084 122.144 49.28 122.929 49.5148C123.306 49.6276 123.62 49.8813 123.803 50.2201L127.493 57.0578C127.753 57.5385 128.269 57.8356 128.829 57.8268L136.799 57.7013C137.621 57.6884 138.294 58.3252 138.303 59.1237C138.308 59.5078 138.154 59.8786 137.877 60.1542L132.3 65.7045C131.907 66.0952 131.773 66.6658 131.952 67.1809L134.495 74.4947C134.757 75.2501 134.339 76.0725 133.56 76.3317C133.185 76.4563 132.776 76.4313 132.422 76.2625L125.281 72.8575C124.78 72.6185 124.182 72.6735 123.732 72.9998Z" fill="url(#paint4_linear_87_5626)"/>
<path opacity="0.5" fill-rule="evenodd" clip-rule="evenodd" d="M8.97845 166.472L0.144023 166.873C-0.77455 166.915 -1.57198 166.215 -1.63706 165.31C-1.66883 164.868 -1.51801 164.437 -1.21886 164.114L1.93913 160.704C3.07913 159.473 4.72774 158.816 6.44074 158.911L15.5756 159.413C16.0015 159.437 16.3575 159.116 16.3709 158.698C16.3817 158.359 16.1622 158.049 15.8333 157.938L6.96241 154.953C5.15917 154.346 3.69972 152.995 2.97274 151.259L1.52035 147.792C1.16651 146.948 1.56891 145.998 2.41913 145.67C2.83265 145.511 3.29802 145.524 3.71042 145.706L11.8856 149.31C12.4631 149.565 13.1292 149.483 13.6093 149.097L20.4386 143.616C21.1435 143.05 22.1954 143.165 22.788 143.873C23.0726 144.212 23.2111 144.646 23.173 145.078L22.405 153.802C22.351 154.415 22.6523 155.015 23.1847 155.354L30.7629 160.179C31.5446 160.676 31.7835 161.693 31.2967 162.45C31.0625 162.815 30.6882 163.068 30.2566 163.156L21.5657 164.92C20.9537 165.044 20.4733 165.498 20.3223 166.093L18.1794 174.553C17.9581 175.427 17.054 175.941 16.1602 175.702C15.7305 175.587 15.3609 175.31 15.1326 174.932L10.5245 167.299C10.201 166.763 9.60371 166.443 8.97845 166.472Z" fill="url(#paint5_linear_87_5626)"/>
<path d="M56.4736 189.644C56.4588 189.081 56.2524 188.63 55.8545 188.29C55.4566 187.95 54.8973 187.754 54.1766 187.701C53.6869 187.666 53.2684 187.705 52.9211 187.819C52.5741 187.928 52.3018 188.097 52.1041 188.324C51.9111 188.551 51.8035 188.817 51.7814 189.122C51.7537 189.376 51.7907 189.601 51.8924 189.799C51.9988 189.997 52.1509 190.173 52.3487 190.327C52.5468 190.476 52.7785 190.611 53.0437 190.733C53.3092 190.85 53.5942 190.954 53.8987 191.046L55.1516 191.443C55.7606 191.627 56.3154 191.853 56.8161 192.122C57.3167 192.39 57.7442 192.707 58.0985 193.072C58.4528 193.436 58.7173 193.855 58.892 194.327C59.0712 194.8 59.1417 195.333 59.1033 195.924C59.0356 196.792 58.7591 197.529 58.2739 198.135C57.7937 198.736 57.1296 199.183 56.2817 199.474C55.4389 199.761 54.4399 199.863 53.285 199.779C52.1392 199.695 51.1541 199.447 50.3296 199.035C49.5097 198.622 48.8868 198.054 48.461 197.331C48.0401 196.604 47.8552 195.729 47.9063 194.706L50.8099 194.917C50.8077 195.396 50.9151 195.803 51.1321 196.139C51.3542 196.471 51.6626 196.733 52.0574 196.924C52.4571 197.111 52.9157 197.223 53.4331 197.261C53.9413 197.298 54.3879 197.256 54.7728 197.135C55.1624 197.015 55.4707 196.831 55.6977 196.582C55.9248 196.334 56.0507 196.039 56.0755 195.697C56.0987 195.378 56.0235 195.104 55.8498 194.873C55.6808 194.642 55.4217 194.438 55.0724 194.259C54.7278 194.081 54.3013 193.91 53.7929 193.748L52.2758 193.248C51.1004 192.87 50.1887 192.346 49.5407 191.676C48.8927 191.007 48.6091 190.148 48.69 189.1C48.7478 188.24 49.031 187.506 49.5397 186.897C50.053 186.289 50.7292 185.834 51.5685 185.533C52.4078 185.232 53.3449 185.119 54.3797 185.194C55.433 185.271 56.3393 185.518 57.0985 185.935C57.8623 186.353 58.4403 186.899 58.8325 187.573C59.2247 188.247 59.397 189.007 59.3495 189.853L56.4736 189.644ZM66.8165 189.86L66.6553 192.077L60.2453 191.611L60.4064 189.394L66.8165 189.86ZM62.047 186.949L64.9991 187.164L64.2779 197.087C64.2581 197.36 64.2843 197.576 64.3563 197.734C64.4288 197.888 64.5367 198 64.6802 198.071C64.8283 198.142 65.0016 198.185 65.2003 198.199C65.3389 198.21 65.4783 198.208 65.6186 198.195C65.7592 198.177 65.867 198.164 65.9419 198.156L66.2465 200.386C66.0954 200.422 65.8836 200.46 65.6113 200.5C65.3386 200.546 65.0101 200.561 64.6256 200.547C63.9121 200.523 63.2954 200.383 62.7752 200.127C62.2597 199.871 61.8708 199.504 61.6083 199.025C61.3459 198.546 61.2423 197.958 61.2977 197.261L62.047 186.949ZM70.5963 201.037C69.9172 200.987 69.3205 200.826 68.8064 200.551C68.2926 200.273 67.8978 199.889 67.6222 199.4C67.3516 198.906 67.2417 198.308 67.2928 197.606C67.3357 197.015 67.4804 196.526 67.7267 196.14C67.9731 195.754 68.2923 195.452 68.6843 195.234C69.0763 195.017 69.5147 194.863 69.9996 194.772C70.4892 194.683 70.9991 194.631 71.5295 194.619C72.1532 194.599 72.6565 194.575 73.0394 194.548C73.4226 194.515 73.7038 194.447 73.8832 194.344C74.0625 194.241 74.1604 194.076 74.1768 193.85L74.1799 193.808C74.2117 193.369 74.0978 193.02 73.8381 192.759C73.583 192.499 73.2036 192.351 72.7001 192.315C72.1688 192.276 71.7375 192.363 71.4063 192.576C71.0753 192.784 70.8463 193.06 70.7191 193.404L68.0049 192.983C68.1905 192.347 68.5037 191.808 68.9445 191.366C69.3856 190.92 69.9365 190.593 70.5971 190.385C71.2627 190.174 72.0205 190.099 72.8706 190.16C73.4619 190.203 74.0228 190.314 74.5533 190.492C75.0883 190.67 75.5555 190.92 75.9547 191.241C76.3586 191.563 76.6664 191.962 76.878 192.437C77.0899 192.908 77.1729 193.459 77.1269 194.092L76.6052 201.271L73.8055 201.068L73.9128 199.592L73.8296 199.586C73.6345 199.906 73.3845 200.183 73.0796 200.416C72.7751 200.645 72.4166 200.816 72.0043 200.93C71.5923 201.04 71.123 201.075 70.5963 201.037ZM71.5898 199.061C72.0241 199.092 72.4137 199.035 72.7588 198.888C73.1042 198.737 73.3823 198.52 73.5932 198.238C73.8041 197.956 73.9232 197.628 73.9504 197.254L74.0324 196.124C73.9357 196.178 73.8046 196.224 73.6392 196.263C73.4788 196.298 73.2977 196.329 73.0961 196.356C72.8947 196.378 72.6935 196.399 72.4925 196.417C72.2919 196.43 72.1099 196.442 71.9465 196.454C71.5963 196.479 71.2878 196.538 71.021 196.63C70.7543 196.722 70.5424 196.858 70.3854 197.037C70.2288 197.211 70.1404 197.437 70.1202 197.714C70.091 198.116 70.2142 198.434 70.4898 198.667C70.7704 198.897 71.1371 199.028 71.5898 199.061ZM78.5052 201.41L79.2787 190.765L82.1407 190.973L82.0057 192.831L82.1166 192.839C82.3587 192.192 82.7206 191.717 83.2025 191.413C83.6847 191.104 84.2238 190.971 84.8198 191.015C84.9676 191.026 85.1263 191.046 85.2959 191.077C85.4655 191.108 85.6138 191.144 85.7408 191.186L85.5504 193.806C85.4149 193.754 85.2258 193.703 84.9833 193.653C84.7408 193.603 84.5179 193.57 84.3146 193.556C83.8804 193.524 83.4854 193.591 83.1298 193.755C82.7791 193.915 82.4924 194.155 82.2695 194.473C82.0513 194.791 81.9265 195.168 81.8949 195.602L81.4573 201.624L78.5052 201.41ZM95.5089 194.996L92.7942 194.966C92.7648 194.732 92.6806 194.517 92.5416 194.321C92.4029 194.12 92.2128 193.955 91.9714 193.826C91.735 193.693 91.4458 193.614 91.1039 193.589C90.6466 193.556 90.2538 193.625 89.9255 193.796C89.5976 193.963 89.4221 194.205 89.3989 194.524C89.3804 194.778 89.4664 195.001 89.657 195.191C89.8475 195.381 90.186 195.547 90.6726 195.69L92.5709 196.218C93.5903 196.505 94.337 196.903 94.8109 197.412C95.2849 197.92 95.494 198.557 95.4382 199.324C95.3875 200.022 95.1375 200.619 94.688 201.116C94.2432 201.613 93.6543 201.983 92.9214 202.227C92.1934 202.467 91.3674 202.553 90.4434 202.486C89.0344 202.384 87.9331 202.009 87.1395 201.361C86.3509 200.709 85.922 199.87 85.8526 198.843L88.7673 198.902C88.8238 199.338 89.0125 199.681 89.3333 199.932C89.6544 200.179 90.0783 200.321 90.605 200.359C91.1224 200.397 91.5454 200.328 91.874 200.152C92.2075 199.972 92.3882 199.722 92.416 199.404C92.4308 199.136 92.3336 198.908 92.1243 198.721C91.9153 198.529 91.5831 198.371 91.1279 198.245L89.3112 197.743C88.2869 197.46 87.5392 197.043 87.0683 196.494C86.602 195.944 86.3978 195.272 86.4555 194.478C86.5052 193.794 86.7328 193.218 87.1383 192.751C87.5484 192.284 88.1005 191.941 88.7945 191.722C89.4931 191.503 90.2974 191.427 91.2075 191.493C92.5519 191.591 93.5892 191.952 94.3194 192.576C95.0542 193.201 95.4508 194.007 95.5089 194.996Z" fill="white"/>
</g>
</g>
<defs>
<linearGradient id="paint0_linear_87_5626" x1="85.2139" y1="0" x2="109.06" y2="244.571" gradientUnits="userSpaceOnUse">
<stop stop-color="#FF7300"/>
<stop offset="1" stop-color="#FFD500"/>
</linearGradient>
<linearGradient id="paint1_linear_87_5626" x1="85.0306" y1="5.05217" x2="91.0867" y2="250.709" gradientUnits="userSpaceOnUse">
<stop stop-color="#FF7300"/>
<stop offset="1" stop-color="#FFD500"/>
</linearGradient>
<linearGradient id="paint2_linear_87_5626" x1="86.674" y1="67.5243" x2="-5.8428" y2="594.535" gradientUnits="userSpaceOnUse">
<stop stop-color="white"/>
<stop offset="1" stop-color="#FF7700"/>
</linearGradient>
<linearGradient id="paint3_linear_87_5626" x1="80.2882" y1="91.3896" x2="45.0913" y2="291.885" gradientUnits="userSpaceOnUse">
<stop stop-color="white"/>
<stop offset="1" stop-color="#FF7700"/>
</linearGradient>
<linearGradient id="paint4_linear_87_5626" x1="123.405" y1="58.0112" x2="129.742" y2="130.031" gradientUnits="userSpaceOnUse">
<stop stop-color="white"/>
<stop offset="1" stop-color="#FF7700"/>
</linearGradient>
<linearGradient id="paint5_linear_87_5626" x1="17.9668" y1="152.164" x2="-20.7373" y2="223.868" gradientUnits="userSpaceOnUse">
<stop stop-color="white"/>
<stop offset="1" stop-color="#FF7700"/>
</linearGradient>
</defs>
</svg>
