<svg width="165" height="230" viewBox="0 0 165 230" fill="none" xmlns="http://www.w3.org/2000/svg">
<rect y="16.4897" width="140" height="214.912" rx="29.4737" transform="rotate(-6.76422 0 16.4897)" fill="url(#paint0_linear_87_5646)"/>
<mask id="mask0_87_5646" style="mask-type:alpha" maskUnits="userSpaceOnUse" x="2" y="2" width="161" height="226">
<rect y="16.4897" width="140" height="214.912" rx="19.6491" transform="rotate(-6.76422 0 16.4897)" fill="url(#paint1_linear_87_5646)"/>
</mask>
<g mask="url(#mask0_87_5646)">
<path opacity="0.12" d="M65.41 12.9985C13.0539 22.012 -22.0873 71.7688 -13.0739 124.125C-4.06044 176.481 45.6964 211.622 98.0525 202.609C150.409 193.595 185.55 143.839 176.536 91.4824C167.523 39.1263 117.766 3.98511 65.41 12.9985ZM42.1427 71.4814L106.895 60.334C118.785 58.287 128.56 69.8473 124.364 81.2423L96.3166 157.37C95.8968 158.503 95.1866 159.506 94.2573 160.278C93.3281 161.05 92.2122 161.564 91.0217 161.769C89.8311 161.974 88.6076 161.862 87.4737 161.445C86.3397 161.029 85.3352 160.321 84.5607 159.394L32.687 97.0249C24.9112 87.6747 30.2446 73.5297 42.1427 71.4814ZM82.4471 76.7121L92.7567 136.597L98.5686 118.286L113.084 77.0995C113.308 76.483 113.366 75.818 113.251 75.1719C113.137 74.5258 112.854 73.9214 112.431 73.4197C112.007 72.9181 111.459 72.5371 110.842 72.3152C110.224 72.0932 109.559 72.0382 108.913 72.1557L82.4471 76.7121ZM44.1643 83.319C43.5178 83.4231 42.9103 83.696 42.403 84.1101C41.8958 84.5243 41.5069 85.065 41.2756 85.6776C41.0443 86.2902 40.9789 86.953 41.0859 87.5991C41.1928 88.2451 41.4684 88.8514 41.8848 89.3568L69.3501 123.3L80.9534 138.629L70.6465 78.7599L44.1643 83.319Z" fill="url(#paint2_linear_87_5646)"/>
<path d="M74.579 69.5356C51.8545 73.4477 36.6019 95.0441 40.5141 117.769C44.4262 140.493 66.0226 155.746 88.7472 151.834C111.472 147.921 126.724 126.325 122.812 103.601C118.9 80.876 97.3036 65.6234 74.579 69.5356ZM64.4801 94.9194L92.5849 90.081C97.7457 89.1925 101.988 94.2101 100.167 99.1559L87.9937 132.198C87.8115 132.69 87.5032 133.125 87.0999 133.46C86.6966 133.795 86.2123 134.019 85.6955 134.108C85.1787 134.196 84.6477 134.148 84.1555 133.967C83.6634 133.786 83.2274 133.479 82.8912 133.077L60.376 106.006C57.001 101.948 59.3159 95.8084 64.4801 94.9194ZM81.9738 97.1897L86.4486 123.182L88.9712 115.235L95.2712 97.3578C95.3687 97.0902 95.3938 96.8016 95.3441 96.5212C95.2943 96.2407 95.1714 95.9784 94.9878 95.7607C94.8041 95.543 94.5662 95.3776 94.2982 95.2812C94.0302 95.1849 93.7415 95.161 93.4612 95.212L81.9738 97.1897ZM65.3576 100.057C65.077 100.102 64.8133 100.221 64.5931 100.401C64.373 100.58 64.2042 100.815 64.1038 101.081C64.0034 101.347 63.975 101.635 64.0214 101.915C64.0679 102.195 64.1875 102.459 64.3682 102.678L76.2892 117.411L81.3255 124.064L76.8519 98.0785L65.3576 100.057Z" fill="url(#paint3_linear_87_5646)"/>
<path opacity="0.5" d="M121.856 35.4323C112.976 33.7507 104.414 39.5862 102.732 48.4655C101.051 57.3447 106.886 65.9072 115.765 67.5889C124.645 69.2706 133.207 63.435 134.889 54.5558C136.571 45.6765 130.735 37.114 121.856 35.4323ZM114.666 43.3654L125.647 45.4453C127.663 45.8272 128.533 48.2513 127.185 49.8171L118.183 60.2772C118.048 60.4327 117.876 60.5502 117.682 60.6178C117.488 60.6855 117.279 60.701 117.077 60.6627C116.875 60.6245 116.687 60.5339 116.531 60.3999C116.375 60.266 116.257 60.0935 116.189 59.8996L111.638 46.8725C110.956 44.9195 112.648 42.9833 114.666 43.3654ZM120.776 46.5991L118.853 56.7552L120.869 54.1836L125.635 48.4853C125.707 48.4004 125.756 48.2979 125.776 48.1881C125.796 48.0783 125.787 47.9652 125.75 47.86C125.712 47.7549 125.648 47.6616 125.562 47.5894C125.477 47.5173 125.375 47.4689 125.265 47.4492L120.776 46.5991ZM114.283 45.372C114.173 45.3501 114.06 45.3574 113.955 45.3932C113.849 45.429 113.755 45.492 113.682 45.5758C113.609 45.6597 113.559 45.7614 113.537 45.8707C113.516 45.98 113.524 46.093 113.56 46.1984L115.915 53.2426L116.851 56.3761L118.774 46.2227L114.283 45.372Z" fill="url(#paint4_linear_87_5646)"/>
<path opacity="0.5" d="M7.9568 162.336C3.79661 170.135 6.74696 179.831 14.5461 183.992C22.3452 188.152 32.0415 185.201 36.2016 177.402C40.3618 169.603 37.4115 159.907 29.6124 155.747C21.8133 151.587 12.117 154.537 7.9568 162.336ZM13.2657 171.363L18.4109 161.717C19.3556 159.946 21.8723 159.842 22.9412 161.556L30.0806 173.013C30.1866 173.183 30.2458 173.379 30.2524 173.58C30.2589 173.781 30.2126 173.98 30.118 174.157C30.0234 174.335 29.8838 174.484 29.7133 174.59C29.5428 174.697 29.3473 174.757 29.1465 174.764L15.6566 175.213C13.6344 175.28 12.3203 173.135 13.2657 171.363ZM18.0672 166.601L26.9879 171.36L25.1753 168.727L21.2454 162.616C21.1873 162.523 21.1059 162.448 21.0093 162.397C20.9127 162.346 20.8044 162.321 20.6953 162.326C20.5862 162.33 20.4802 162.363 20.388 162.422C20.2958 162.48 20.2207 162.562 20.1702 162.659L18.0672 166.601ZM15.0274 172.306C14.9751 172.401 14.9489 172.509 14.9516 172.618C14.9542 172.727 14.9855 172.833 15.0424 172.926C15.0993 173.019 15.1797 173.095 15.2755 173.147C15.3713 173.199 15.4791 173.225 15.588 173.222L22.8514 173.078L26.05 173.118L17.1317 168.361L15.0274 172.306Z" fill="url(#paint5_linear_87_5646)"/>
<path d="M71.5411 194.574L71.2477 192.1L82.9025 190.718L83.1959 193.192L78.8513 193.707L80.2411 205.424L77.2754 205.776L75.8857 194.059L71.5411 194.574ZM97.6658 196.162C97.8494 197.71 97.7122 199.061 97.2543 200.216C96.801 201.371 96.1048 202.294 95.1657 202.986C94.2307 203.673 93.1373 204.091 91.8854 204.24C90.6243 204.389 89.4586 204.237 88.3883 203.783C87.3179 203.329 86.4273 202.594 85.7165 201.578C85.0057 200.561 84.5588 199.281 84.3758 197.738C84.1923 196.191 84.3272 194.84 84.7804 193.685C85.2337 192.531 85.9279 191.61 86.8629 190.923C87.7974 190.231 88.8952 189.81 90.1562 189.661C91.4081 189.512 92.5692 189.665 93.6396 190.119C94.714 190.568 95.6066 191.3 96.3174 192.317C97.0328 193.333 97.4823 194.615 97.6658 196.162ZM94.624 196.523C94.5051 195.52 94.2547 194.693 93.8728 194.04C93.4955 193.387 93.0155 192.915 92.4329 192.623C91.8502 192.331 91.1963 192.229 90.471 192.315C89.7458 192.401 89.134 192.654 88.6357 193.073C88.1374 193.493 87.779 194.065 87.5604 194.789C87.3464 195.512 87.2988 196.375 87.4177 197.378C87.5366 198.38 87.7847 199.208 88.162 199.861C88.5439 200.514 89.0261 200.986 89.6088 201.277C90.1915 201.569 90.8454 201.672 91.5707 201.586C92.2959 201.5 92.9077 201.247 93.406 200.827C93.9042 200.407 94.2604 199.836 94.4744 199.112C94.693 198.388 94.7429 197.525 94.624 196.523ZM110.526 187.442L112.209 201.632L109.618 201.94L102.385 193.74L102.281 193.753L103.34 202.684L100.34 203.04L98.6565 188.849L101.29 188.537L108.473 196.735L108.598 196.72L107.54 187.796L110.526 187.442Z" fill="white"/>
</g>
<defs>
<linearGradient id="paint0_linear_87_5646" x1="70" y1="16.4897" x2="93.9474" y2="262.104" gradientUnits="userSpaceOnUse">
<stop stop-color="#006FFF"/>
<stop offset="1" stop-color="#00BBFF"/>
</linearGradient>
<linearGradient id="paint1_linear_87_5646" x1="70" y1="16.4897" x2="93.9474" y2="262.104" gradientUnits="userSpaceOnUse">
<stop stop-color="#006FFF"/>
<stop offset="1" stop-color="#00BBFF"/>
</linearGradient>
<linearGradient id="paint2_linear_87_5646" x1="65.41" y1="12.9985" x2="160.101" y2="564.358" gradientUnits="userSpaceOnUse">
<stop stop-color="white"/>
<stop offset="1" stop-color="#0099FF"/>
</linearGradient>
<linearGradient id="paint3_linear_87_5646" x1="74.5791" y1="69.5356" x2="115.679" y2="308.847" gradientUnits="userSpaceOnUse">
<stop stop-color="white"/>
<stop offset="1" stop-color="#0099FF"/>
</linearGradient>
<linearGradient id="paint4_linear_87_5646" x1="121.856" y1="35.4323" x2="104.11" y2="128.925" gradientUnits="userSpaceOnUse">
<stop stop-color="white"/>
<stop offset="1" stop-color="#0099FF"/>
</linearGradient>
<linearGradient id="paint5_linear_87_5646" x1="7.9568" y1="162.336" x2="90.0654" y2="206.177" gradientUnits="userSpaceOnUse">
<stop stop-color="white"/>
<stop offset="1" stop-color="#0099FF"/>
</linearGradient>
</defs>
</svg>
