<svg width="228" height="52" viewBox="0 0 228 52" fill="none" xmlns="http://www.w3.org/2000/svg">
<path d="M0 24C0 10.7452 10.7452 0 24 0H204C217.255 0 228 10.7452 228 24V28C228 41.2548 217.255 52 204 52H24C10.7452 52 0 41.2548 0 28V24Z" fill="#C4FF00"/>
<path fill-rule="evenodd" clip-rule="evenodd" d="M60.0833 22.67C60.0361 22.6672 59.9858 22.6661 59.9325 22.6666H57.8283C56.105 22.6666 54.6308 24.0233 54.6308 25.7916C54.6308 27.56 56.1058 28.9166 57.8283 28.9166H59.9325C59.9858 28.9172 60.0364 28.9161 60.0842 28.9133C60.4383 28.892 60.7727 28.7426 61.0249 28.493C61.2771 28.2434 61.43 27.9106 61.455 27.5566C61.4583 27.5066 61.4583 27.4525 61.4583 27.4025V24.1808C61.4583 24.1308 61.4583 24.0766 61.455 24.0266C61.43 23.6727 61.2771 23.3399 61.0249 23.0903C60.7727 22.8407 60.4375 22.6913 60.0833 22.67ZM57.6442 26.625C58.0875 26.625 58.4467 26.2516 58.4467 25.7916C58.4467 25.3316 58.0875 24.9583 57.6442 24.9583C57.2 24.9583 56.8408 25.3316 56.8408 25.7916C56.8408 26.2516 57.2 26.625 57.6442 26.625Z" fill="#242424"/>
<path fill-rule="evenodd" clip-rule="evenodd" d="M59.9317 30.1667C59.9605 30.1655 59.9891 30.1712 60.0154 30.1832C60.0416 30.1952 60.0646 30.2132 60.0825 30.2358C60.1005 30.2583 60.1128 30.2848 60.1186 30.3131C60.1244 30.3413 60.1234 30.3705 60.1158 30.3983C59.9492 30.9917 59.6833 31.4983 59.2575 31.9233C58.6333 32.5483 57.8425 32.8242 56.8658 32.9558C55.9158 33.0833 54.7033 33.0833 53.1717 33.0833H51.4117C49.88 33.0833 48.6667 33.0833 47.7175 32.9558C46.7408 32.8242 45.95 32.5475 45.3258 31.9242C44.7025 31.3 44.4258 30.5092 44.2942 29.5325C44.1667 28.5825 44.1667 27.37 44.1667 25.8383V25.745C44.1667 24.2133 44.1667 23 44.2942 22.05C44.4258 21.0733 44.7025 20.2825 45.3258 19.6583C45.95 19.035 46.7408 18.7583 47.7175 18.6267C48.6675 18.5 49.88 18.5 51.4117 18.5H53.1717C54.7033 18.5 55.9167 18.5 56.8658 18.6275C57.8425 18.7592 58.6333 19.0358 59.2575 19.6592C59.6833 20.0858 59.9492 20.5917 60.1158 21.185C60.1234 21.2128 60.1244 21.242 60.1186 21.2703C60.1128 21.2985 60.1005 21.325 60.0825 21.3476C60.0646 21.3701 60.0416 21.3882 60.0154 21.4002C59.9891 21.4122 59.9605 21.4178 59.9317 21.4167H57.8283C55.4642 21.4167 53.3808 23.2833 53.3808 25.7917C53.3808 28.3 55.4642 30.1667 57.8283 30.1667H59.9317ZM47.2917 21.8333C47.1259 21.8333 46.9669 21.8992 46.8497 22.0164C46.7325 22.1336 46.6667 22.2926 46.6667 22.4583C46.6667 22.6241 46.7325 22.7831 46.8497 22.9003C46.9669 23.0175 47.1259 23.0833 47.2917 23.0833H50.625C50.7908 23.0833 50.9497 23.0175 51.0669 22.9003C51.1841 22.7831 51.25 22.6241 51.25 22.4583C51.25 22.2926 51.1841 22.1336 51.0669 22.0164C50.9497 21.8992 50.7908 21.8333 50.625 21.8333H47.2917Z" fill="#242424"/>
<path d="M69.1638 21.892V19.8636H78.7206V21.892H75.1581V31.5H72.7263V21.892H69.1638ZM82.6066 31.6705C81.724 31.6705 80.9608 31.483 80.3168 31.108C79.6767 30.7292 79.1824 30.2027 78.8339 29.5284C78.4854 28.8504 78.3111 28.0644 78.3111 27.1705C78.3111 26.2689 78.4854 25.4811 78.8339 24.8068C79.1824 24.1288 79.6767 23.6023 80.3168 23.2273C80.9608 22.8485 81.724 22.6591 82.6066 22.6591C83.4892 22.6591 84.2505 22.8485 84.8907 23.2273C85.5346 23.6023 86.0308 24.1288 86.3793 24.8068C86.7278 25.4811 86.902 26.2689 86.902 27.1705C86.902 28.0644 86.7278 28.8504 86.3793 29.5284C86.0308 30.2027 85.5346 30.7292 84.8907 31.108C84.2505 31.483 83.4892 31.6705 82.6066 31.6705ZM82.618 29.7955C83.0195 29.7955 83.3547 29.6818 83.6236 29.4545C83.8926 29.2235 84.0952 28.9091 84.2316 28.5114C84.3717 28.1136 84.4418 27.661 84.4418 27.1534C84.4418 26.6458 84.3717 26.1932 84.2316 25.7955C84.0952 25.3977 83.8926 25.0833 83.6236 24.8523C83.3547 24.6212 83.0195 24.5057 82.618 24.5057C82.2127 24.5057 81.8717 24.6212 81.5952 24.8523C81.3225 25.0833 81.1161 25.3977 80.9759 25.7955C80.8395 26.1932 80.7714 26.6458 80.7714 27.1534C80.7714 27.661 80.8395 28.1136 80.9759 28.5114C81.1161 28.9091 81.3225 29.2235 81.5952 29.4545C81.8717 29.6818 82.2127 29.7955 82.618 29.7955ZM88.1559 34.7727V22.7727H90.5423V24.2386H90.6502C90.7563 24.0038 90.9097 23.7652 91.1105 23.5227C91.315 23.2765 91.5802 23.072 91.9059 22.9091C92.2355 22.7424 92.6445 22.6591 93.1332 22.6591C93.7695 22.6591 94.3567 22.8258 94.8945 23.1591C95.4324 23.4886 95.8624 23.9867 96.1843 24.6534C96.5063 25.3163 96.6673 26.1477 96.6673 27.1477C96.6673 28.1212 96.5101 28.9432 96.1957 29.6136C95.8851 30.2803 95.4608 30.786 94.923 31.1307C94.3889 31.4716 93.7904 31.642 93.1275 31.642C92.6578 31.642 92.2582 31.5644 91.9286 31.4091C91.6029 31.2538 91.3358 31.0587 91.1275 30.8239C90.9192 30.5852 90.7601 30.3447 90.6502 30.1023H90.5764V34.7727H88.1559ZM90.5252 27.1364C90.5252 27.6553 90.5972 28.108 90.7411 28.4943C90.8851 28.8807 91.0934 29.1818 91.3661 29.3977C91.6389 29.6098 91.9703 29.7159 92.3605 29.7159C92.7544 29.7159 93.0877 29.608 93.3605 29.392C93.6332 29.1723 93.8396 28.8693 93.9798 28.483C94.1237 28.0928 94.1957 27.6439 94.1957 27.1364C94.1957 26.6326 94.1256 26.1894 93.9855 25.8068C93.8453 25.4242 93.6389 25.125 93.3661 24.9091C93.0934 24.6932 92.7582 24.5852 92.3605 24.5852C91.9665 24.5852 91.6332 24.6894 91.3605 24.8977C91.0915 25.1061 90.8851 25.4015 90.7411 25.7841C90.5972 26.1667 90.5252 26.6174 90.5252 27.1364ZM108.577 19.8636H111.037V27.4205C111.037 28.2689 110.835 29.0114 110.429 29.6477C110.028 30.2841 109.465 30.7803 108.742 31.1364C108.018 31.4886 107.175 31.6648 106.213 31.6648C105.247 31.6648 104.403 31.4886 103.679 31.1364C102.956 30.7803 102.393 30.2841 101.992 29.6477C101.59 29.0114 101.389 28.2689 101.389 27.4205V19.8636H103.85V27.2102C103.85 27.6534 103.946 28.0473 104.139 28.392C104.336 28.7367 104.613 29.0076 104.969 29.2045C105.325 29.4015 105.74 29.5 106.213 29.5C106.691 29.5 107.105 29.4015 107.458 29.2045C107.814 29.0076 108.088 28.7367 108.282 28.392C108.479 28.0473 108.577 27.6534 108.577 27.2102V19.8636ZM112.696 34.7727V22.7727H115.082V24.2386H115.19C115.296 24.0038 115.45 23.7652 115.65 23.5227C115.855 23.2765 116.12 23.072 116.446 22.9091C116.775 22.7424 117.185 22.6591 117.673 22.6591C118.31 22.6591 118.897 22.8258 119.435 23.1591C119.972 23.4886 120.402 23.9867 120.724 24.6534C121.046 25.3163 121.207 26.1477 121.207 27.1477C121.207 28.1212 121.05 28.9432 120.736 29.6136C120.425 30.2803 120.001 30.786 119.463 31.1307C118.929 31.4716 118.33 31.642 117.668 31.642C117.198 31.642 116.798 31.5644 116.469 31.4091C116.143 31.2538 115.876 31.0587 115.668 30.8239C115.459 30.5852 115.3 30.3447 115.19 30.1023H115.116V34.7727H112.696ZM115.065 27.1364C115.065 27.6553 115.137 28.108 115.281 28.4943C115.425 28.8807 115.633 29.1818 115.906 29.3977C116.179 29.6098 116.51 29.7159 116.9 29.7159C117.294 29.7159 117.628 29.608 117.9 29.392C118.173 29.1723 118.38 28.8693 118.52 28.483C118.664 28.0928 118.736 27.6439 118.736 27.1364C118.736 26.6326 118.666 26.1894 118.525 25.8068C118.385 25.4242 118.179 25.125 117.906 24.9091C117.633 24.6932 117.298 24.5852 116.9 24.5852C116.507 24.5852 116.173 24.6894 115.9 24.8977C115.632 25.1061 115.425 25.4015 115.281 25.7841C115.137 26.1667 115.065 26.6174 115.065 27.1364ZM125.929 31.5V19.8636H130.589C131.445 19.8636 132.159 19.9905 132.731 20.2443C133.303 20.4981 133.733 20.8504 134.02 21.3011C134.308 21.7481 134.452 22.2633 134.452 22.8466C134.452 23.3011 134.361 23.7008 134.179 24.0455C133.998 24.3864 133.748 24.6667 133.429 24.8864C133.115 25.1023 132.755 25.2557 132.35 25.3466V25.4602C132.793 25.4792 133.208 25.6042 133.594 25.8352C133.984 26.0663 134.301 26.3902 134.543 26.8068C134.786 27.2197 134.907 27.7121 134.907 28.2841C134.907 28.9015 134.753 29.4527 134.447 29.9375C134.144 30.4186 133.695 30.7992 133.1 31.0795C132.505 31.3598 131.772 31.5 130.901 31.5H125.929ZM128.39 29.4886H130.395C131.081 29.4886 131.581 29.358 131.895 29.0966C132.21 28.8314 132.367 28.4792 132.367 28.0398C132.367 27.7178 132.289 27.4337 132.134 27.1875C131.979 26.9413 131.757 26.7481 131.469 26.608C131.185 26.4678 130.846 26.3977 130.452 26.3977H128.39V29.4886ZM128.39 24.733H130.214C130.551 24.733 130.85 24.6742 131.111 24.5568C131.376 24.4356 131.585 24.2652 131.736 24.0455C131.892 23.8258 131.969 23.5625 131.969 23.2557C131.969 22.8352 131.82 22.4962 131.52 22.2386C131.225 21.9811 130.804 21.8523 130.259 21.8523H128.39V24.733ZM138.631 31.6648C138.074 31.6648 137.578 31.5682 137.142 31.375C136.707 31.178 136.362 30.8883 136.108 30.5057C135.858 30.1193 135.733 29.6383 135.733 29.0625C135.733 28.5777 135.822 28.1705 136 27.8409C136.178 27.5114 136.421 27.2462 136.727 27.0455C137.034 26.8447 137.383 26.6932 137.773 26.5909C138.167 26.4886 138.58 26.4167 139.011 26.375C139.519 26.322 139.928 26.2727 140.239 26.2273C140.549 26.178 140.775 26.1061 140.915 26.0114C141.055 25.9167 141.125 25.7765 141.125 25.5909V25.5568C141.125 25.197 141.011 24.9186 140.784 24.7216C140.561 24.5246 140.243 24.4261 139.83 24.4261C139.394 24.4261 139.047 24.5227 138.79 24.7159C138.532 24.9053 138.362 25.1439 138.279 25.4318L136.04 25.25C136.154 24.7197 136.377 24.2614 136.71 23.875C137.044 23.4848 137.474 23.1856 138 22.9773C138.53 22.7652 139.144 22.6591 139.841 22.6591C140.326 22.6591 140.79 22.7159 141.233 22.8295C141.68 22.9432 142.076 23.1193 142.421 23.358C142.769 23.5966 143.044 23.9034 143.244 24.2784C143.445 24.6496 143.546 25.0947 143.546 25.6136V31.5H141.25V30.2898H141.182C141.042 30.5625 140.854 30.803 140.619 31.0114C140.385 31.2159 140.102 31.3769 139.773 31.4943C139.443 31.608 139.063 31.6648 138.631 31.6648ZM139.324 29.9943C139.68 29.9943 139.994 29.9242 140.267 29.7841C140.54 29.6402 140.754 29.447 140.909 29.2045C141.065 28.9621 141.142 28.6875 141.142 28.3807V27.4545C141.066 27.5038 140.962 27.5492 140.83 27.5909C140.701 27.6288 140.555 27.6648 140.392 27.6989C140.229 27.7292 140.066 27.7576 139.904 27.7841C139.741 27.8068 139.593 27.8277 139.46 27.8466C139.176 27.8883 138.928 27.9545 138.716 28.0455C138.504 28.1364 138.339 28.2595 138.222 28.4148C138.104 28.5663 138.046 28.7557 138.046 28.983C138.046 29.3125 138.165 29.5644 138.404 29.7386C138.646 29.9091 138.953 29.9943 139.324 29.9943ZM147.524 19.8636V31.5H145.103V19.8636H147.524ZM151.631 31.6648C151.075 31.6648 150.578 31.5682 150.143 31.375C149.707 31.178 149.362 30.8883 149.109 30.5057C148.859 30.1193 148.734 29.6383 148.734 29.0625C148.734 28.5777 148.823 28.1705 149.001 27.8409C149.179 27.5114 149.421 27.2462 149.728 27.0455C150.035 26.8447 150.383 26.6932 150.773 26.5909C151.167 26.4886 151.58 26.4167 152.012 26.375C152.52 26.322 152.929 26.2727 153.239 26.2273C153.55 26.178 153.775 26.1061 153.916 26.0114C154.056 25.9167 154.126 25.7765 154.126 25.5909V25.5568C154.126 25.197 154.012 24.9186 153.785 24.7216C153.561 24.5246 153.243 24.4261 152.83 24.4261C152.395 24.4261 152.048 24.5227 151.791 24.7159C151.533 24.9053 151.362 25.1439 151.279 25.4318L149.041 25.25C149.154 24.7197 149.378 24.2614 149.711 23.875C150.044 23.4848 150.474 23.1856 151.001 22.9773C151.531 22.7652 152.145 22.6591 152.842 22.6591C153.327 22.6591 153.791 22.7159 154.234 22.8295C154.681 22.9432 155.077 23.1193 155.421 23.358C155.77 23.5966 156.044 23.9034 156.245 24.2784C156.446 24.6496 156.546 25.0947 156.546 25.6136V31.5H154.251V30.2898H154.183C154.042 30.5625 153.855 30.803 153.62 31.0114C153.385 31.2159 153.103 31.3769 152.773 31.4943C152.444 31.608 152.063 31.6648 151.631 31.6648ZM152.325 29.9943C152.681 29.9943 152.995 29.9242 153.268 29.7841C153.541 29.6402 153.755 29.447 153.91 29.2045C154.065 28.9621 154.143 28.6875 154.143 28.3807V27.4545C154.067 27.5038 153.963 27.5492 153.83 27.5909C153.702 27.6288 153.556 27.6648 153.393 27.6989C153.23 27.7292 153.067 27.7576 152.904 27.7841C152.741 27.8068 152.594 27.8277 152.461 27.8466C152.177 27.8883 151.929 27.9545 151.717 28.0455C151.505 28.1364 151.34 28.2595 151.222 28.4148C151.105 28.5663 151.046 28.7557 151.046 28.983C151.046 29.3125 151.166 29.5644 151.404 29.7386C151.647 29.9091 151.953 29.9943 152.325 29.9943ZM160.524 26.4545V31.5H158.104V22.7727H160.411V24.3125H160.513C160.706 23.8049 161.03 23.4034 161.485 23.108C161.939 22.8087 162.49 22.6591 163.138 22.6591C163.744 22.6591 164.273 22.7917 164.723 23.0568C165.174 23.322 165.524 23.7008 165.774 24.1932C166.024 24.6818 166.149 25.2652 166.149 25.9432V31.5H163.729V26.375C163.733 25.8409 163.596 25.4242 163.32 25.125C163.043 24.822 162.663 24.6705 162.178 24.6705C161.852 24.6705 161.564 24.7405 161.314 24.8807C161.068 25.0208 160.875 25.2254 160.735 25.4943C160.598 25.7595 160.528 26.0795 160.524 26.4545ZM171.68 31.6705C170.786 31.6705 170.017 31.4811 169.374 31.1023C168.733 30.7197 168.241 30.1894 167.896 29.5114C167.555 28.8333 167.385 28.053 167.385 27.1705C167.385 26.2765 167.557 25.4924 167.902 24.8182C168.25 24.1402 168.745 23.6117 169.385 23.233C170.025 22.8504 170.786 22.6591 171.669 22.6591C172.43 22.6591 173.097 22.7973 173.669 23.0739C174.241 23.3504 174.694 23.7386 175.027 24.2386C175.36 24.7386 175.544 25.3258 175.578 26H173.294C173.23 25.5644 173.059 25.214 172.783 24.9489C172.51 24.6799 172.152 24.5455 171.709 24.5455C171.334 24.5455 171.006 24.6477 170.726 24.8523C170.449 25.053 170.233 25.3466 170.078 25.733C169.923 26.1193 169.845 26.5871 169.845 27.1364C169.845 27.6932 169.921 28.1667 170.072 28.5568C170.228 28.947 170.445 29.2443 170.726 29.4489C171.006 29.6534 171.334 29.7557 171.709 29.7557C171.985 29.7557 172.233 29.6989 172.453 29.5852C172.677 29.4716 172.86 29.3068 173.004 29.0909C173.152 28.8712 173.249 28.608 173.294 28.3011H175.578C175.54 28.9678 175.358 29.5549 175.033 30.0625C174.711 30.5663 174.266 30.9602 173.697 31.2443C173.129 31.5284 172.457 31.6705 171.68 31.6705ZM180.785 31.6705C179.887 31.6705 179.115 31.4886 178.467 31.125C177.823 30.7576 177.327 30.2386 176.978 29.5682C176.63 28.8939 176.456 28.0966 176.456 27.1761C176.456 26.2784 176.63 25.4905 176.978 24.8125C177.327 24.1345 177.817 23.6061 178.45 23.2273C179.086 22.8485 179.832 22.6591 180.688 22.6591C181.264 22.6591 181.8 22.7519 182.296 22.9375C182.796 23.1193 183.232 23.3939 183.603 23.7614C183.978 24.1288 184.27 24.5909 184.478 25.1477C184.687 25.7008 184.791 26.3485 184.791 27.0909V27.7557H177.421V26.2557H182.512C182.512 25.9072 182.437 25.5985 182.285 25.3295C182.134 25.0606 181.923 24.8504 181.654 24.6989C181.389 24.5436 181.081 24.4659 180.728 24.4659C180.361 24.4659 180.035 24.5511 179.751 24.7216C179.471 24.8883 179.251 25.1136 179.092 25.3977C178.933 25.678 178.851 25.9905 178.848 26.3352V27.7614C178.848 28.1932 178.927 28.5663 179.086 28.8807C179.249 29.1951 179.478 29.4375 179.774 29.608C180.069 29.7784 180.42 29.8636 180.825 29.8636C181.094 29.8636 181.34 29.8258 181.563 29.75C181.787 29.6742 181.978 29.5606 182.137 29.4091C182.296 29.2576 182.418 29.072 182.501 28.8523L184.74 29C184.626 29.5379 184.393 30.0076 184.041 30.4091C183.692 30.8068 183.241 31.1174 182.688 31.3409C182.139 31.5606 181.505 31.6705 180.785 31.6705Z" fill="#242424"/>
</svg>
