<svg width="358" height="52" viewBox="0 0 358 52" fill="none" xmlns="http://www.w3.org/2000/svg">
<path d="M0 24C0 10.7452 10.7452 0 24 0H334C347.255 0 358 10.7452 358 24V28C358 41.2548 347.255 52 334 52H24C10.7452 52 0 41.2548 0 28V24Z" fill="#C4FF00" fill-opacity="0.1"/>
<path d="M169.324 23.2102C169.278 22.7519 169.083 22.3958 168.739 22.142C168.394 21.8883 167.926 21.7614 167.335 21.7614C166.934 21.7614 166.595 21.8182 166.318 21.9318C166.042 22.0417 165.83 22.1951 165.682 22.392C165.538 22.589 165.466 22.8125 165.466 23.0625C165.458 23.2708 165.502 23.4527 165.597 23.608C165.695 23.7633 165.83 23.8977 166 24.0114C166.17 24.1212 166.367 24.2178 166.591 24.3011C166.814 24.3807 167.053 24.4489 167.307 24.5057L168.352 24.7557C168.86 24.8693 169.326 25.0208 169.75 25.2102C170.174 25.3996 170.542 25.6326 170.852 25.9091C171.163 26.1856 171.403 26.5114 171.574 26.8864C171.748 27.2614 171.837 27.6913 171.841 28.1761C171.837 28.8883 171.655 29.5057 171.295 30.0284C170.939 30.5473 170.424 30.9508 169.75 31.2386C169.08 31.5227 168.271 31.6648 167.324 31.6648C166.384 31.6648 165.566 31.5208 164.869 31.233C164.176 30.9451 163.634 30.5189 163.244 29.9545C162.858 29.3864 162.655 28.6837 162.636 27.8466H165.017C165.044 28.2367 165.155 28.5625 165.352 28.8239C165.553 29.0814 165.82 29.2765 166.153 29.4091C166.491 29.5379 166.871 29.6023 167.295 29.6023C167.712 29.6023 168.074 29.5417 168.381 29.4205C168.691 29.2992 168.932 29.1307 169.102 28.9148C169.273 28.6989 169.358 28.4508 169.358 28.1705C169.358 27.9091 169.28 27.6894 169.125 27.5114C168.973 27.3333 168.75 27.1818 168.455 27.0568C168.163 26.9318 167.805 26.8182 167.381 26.7159L166.114 26.3977C165.133 26.1591 164.358 25.786 163.79 25.2784C163.222 24.7708 162.939 24.0871 162.943 23.2273C162.939 22.5227 163.127 21.9072 163.506 21.3807C163.888 20.8542 164.413 20.4432 165.08 20.1477C165.746 19.8523 166.504 19.7045 167.352 19.7045C168.216 19.7045 168.97 19.8523 169.614 20.1477C170.261 20.4432 170.765 20.8542 171.125 21.3807C171.485 21.9072 171.67 22.517 171.682 23.2102H169.324ZM175.323 28.9886L175.329 26.0852H175.681L178.477 22.7727H181.255L177.5 27.1591H176.926L175.323 28.9886ZM173.13 31.5V19.8636H175.551V31.5H173.13ZM178.585 31.5L176.017 27.6989L177.63 25.9886L181.42 31.5H178.585ZM182.123 31.5V22.7727H184.543V31.5H182.123ZM183.339 21.6477C182.979 21.6477 182.67 21.5284 182.413 21.2898C182.159 21.0473 182.032 20.7576 182.032 20.4205C182.032 20.0871 182.159 19.8011 182.413 19.5625C182.67 19.3201 182.979 19.1989 183.339 19.1989C183.699 19.1989 184.005 19.3201 184.259 19.5625C184.517 19.8011 184.646 20.0871 184.646 20.4205C184.646 20.7576 184.517 21.0473 184.259 21.2898C184.005 21.5284 183.699 21.6477 183.339 21.6477ZM186.162 34.7727V22.7727H188.549V24.2386H188.656C188.763 24.0038 188.916 23.7652 189.117 23.5227C189.321 23.2765 189.586 23.072 189.912 22.9091C190.242 22.7424 190.651 22.6591 191.139 22.6591C191.776 22.6591 192.363 22.8258 192.901 23.1591C193.439 23.4886 193.869 23.9867 194.191 24.6534C194.513 25.3163 194.674 26.1477 194.674 27.1477C194.674 28.1212 194.516 28.9432 194.202 29.6136C193.891 30.2803 193.467 30.786 192.929 31.1307C192.395 31.4716 191.797 31.642 191.134 31.642C190.664 31.642 190.264 31.5644 189.935 31.4091C189.609 31.2538 189.342 31.0587 189.134 30.8239C188.925 30.5852 188.766 30.3447 188.656 30.1023H188.583V34.7727H186.162ZM188.531 27.1364C188.531 27.6553 188.603 28.108 188.747 28.4943C188.891 28.8807 189.1 29.1818 189.372 29.3977C189.645 29.6098 189.977 29.7159 190.367 29.7159C190.761 29.7159 191.094 29.608 191.367 29.392C191.639 29.1723 191.846 28.8693 191.986 28.483C192.13 28.0928 192.202 27.6439 192.202 27.1364C192.202 26.6326 192.132 26.1894 191.992 25.8068C191.852 25.4242 191.645 25.125 191.372 24.9091C191.1 24.6932 190.764 24.5852 190.367 24.5852C189.973 24.5852 189.639 24.6894 189.367 24.8977C189.098 25.1061 188.891 25.4015 188.747 25.7841C188.603 26.1667 188.531 26.6174 188.531 27.1364Z" fill="#C4FF00"/>
</svg>
