<svg width="374" height="35" viewBox="0 0 374 35" fill="none" xmlns="http://www.w3.org/2000/svg">
<path d="M0 17.5C0 7.83502 7.83502 0 17.5 0H54.5C64.165 0 72 7.83502 72 17.5C72 27.165 64.165 35 54.5 35H17.5C7.83502 35 0 27.165 0 17.5Z" fill="#C4FF00"/>
<path d="M12.2628 22H10.2855L13.2983 13.2727H15.6761L18.6847 22H16.7074L14.5213 15.267H14.4531L12.2628 22ZM12.1392 18.5696H16.8097V20.0099H12.1392V18.5696ZM21.2763 13.2727V22H19.461V13.2727H21.2763ZM24.3059 13.2727V22H22.4905V13.2727H24.3059ZM31.0148 22.1278C30.3443 22.1278 29.7676 21.9858 29.2847 21.7017C28.8046 21.4148 28.4352 21.017 28.1767 20.5085C27.921 20 27.7932 19.4148 27.7932 18.7528C27.7932 18.0824 27.9225 17.4943 28.181 16.9886C28.4423 16.4801 28.8131 16.0838 29.2932 15.7997C29.7733 15.5128 30.3443 15.3693 31.0063 15.3693C31.5773 15.3693 32.0773 15.473 32.5063 15.6804C32.9352 15.8878 33.2747 16.179 33.5247 16.554C33.7747 16.929 33.9125 17.3693 33.9381 17.875H32.225C32.1767 17.5483 32.0489 17.2855 31.8415 17.0866C31.6369 16.8849 31.3685 16.7841 31.0361 16.7841C30.7548 16.7841 30.5091 16.8608 30.2989 17.0142C30.0915 17.1648 29.9296 17.3849 29.8131 17.6747C29.6966 17.9645 29.6384 18.3153 29.6384 18.7273C29.6384 19.1449 29.6952 19.5 29.8088 19.7926C29.9253 20.0852 30.0887 20.3082 30.2989 20.4616C30.5091 20.6151 30.7548 20.6918 31.0361 20.6918C31.2435 20.6918 31.4296 20.6491 31.5943 20.5639C31.7619 20.4787 31.8997 20.3551 32.0077 20.1932C32.1185 20.0284 32.1909 19.831 32.225 19.6009H33.9381C33.9097 20.1009 33.7733 20.5412 33.529 20.9219C33.2875 21.2997 32.9537 21.5952 32.5276 21.8082C32.1014 22.0213 31.5972 22.1278 31.0148 22.1278ZM36.7268 22.1236C36.3092 22.1236 35.9371 22.0511 35.6104 21.9062C35.2837 21.7585 35.0251 21.5412 34.8348 21.2543C34.6473 20.9645 34.5536 20.6037 34.5536 20.1719C34.5536 19.8082 34.6203 19.5028 34.7538 19.2557C34.8874 19.0085 35.0692 18.8097 35.2993 18.6591C35.5294 18.5085 35.7908 18.3949 36.0834 18.3182C36.3788 18.2415 36.6885 18.1875 37.0124 18.1562C37.393 18.1165 37.6999 18.0795 37.9328 18.0455C38.1658 18.0085 38.3348 17.9545 38.4399 17.8835C38.545 17.8125 38.5976 17.7074 38.5976 17.5682V17.5426C38.5976 17.2727 38.5124 17.0639 38.3419 16.9162C38.1743 16.7685 37.9357 16.6946 37.626 16.6946C37.2993 16.6946 37.0393 16.767 36.8462 16.9119C36.653 17.054 36.5251 17.233 36.4626 17.4489L34.7837 17.3125C34.8689 16.9148 35.0365 16.571 35.2865 16.2812C35.5365 15.9886 35.8589 15.7642 36.2538 15.608C36.6516 15.4489 37.1118 15.3693 37.6345 15.3693C37.9982 15.3693 38.3462 15.4119 38.6786 15.4972C39.0138 15.5824 39.3107 15.7145 39.5692 15.8935C39.8305 16.0724 40.0365 16.3026 40.1871 16.5838C40.3376 16.8622 40.4129 17.196 40.4129 17.5852V22H38.6913V21.0923H38.6402C38.5351 21.2969 38.3945 21.4773 38.2183 21.6335C38.0422 21.7869 37.8305 21.9077 37.5834 21.9957C37.3362 22.081 37.0507 22.1236 36.7268 22.1236ZM37.2467 20.8707C37.5138 20.8707 37.7496 20.8182 37.9541 20.7131C38.1587 20.6051 38.3192 20.4602 38.4357 20.2784C38.5521 20.0966 38.6104 19.8906 38.6104 19.6605V18.9659C38.5536 19.0028 38.4754 19.0369 38.376 19.0682C38.2794 19.0966 38.17 19.1236 38.0479 19.1491C37.9257 19.1719 37.8036 19.1932 37.6814 19.2131C37.5592 19.2301 37.4484 19.2457 37.349 19.2599C37.1359 19.2912 36.9499 19.3409 36.7908 19.4091C36.6317 19.4773 36.5081 19.5696 36.42 19.6861C36.332 19.7997 36.2879 19.9418 36.2879 20.1122C36.2879 20.3594 36.3774 20.5483 36.5564 20.679C36.7382 20.8068 36.9683 20.8707 37.2467 20.8707ZM47.0273 17.321L45.3654 17.4233C45.337 17.2812 45.2759 17.1534 45.1822 17.0398C45.0884 16.9233 44.9648 16.831 44.8114 16.7628C44.6609 16.6918 44.4805 16.6562 44.2702 16.6562C43.989 16.6562 43.7518 16.7159 43.5586 16.8352C43.3654 16.9517 43.2688 17.108 43.2688 17.304C43.2688 17.4602 43.3313 17.5923 43.4563 17.7003C43.5813 17.8082 43.7958 17.8949 44.0998 17.9602L45.2844 18.1989C45.9208 18.3295 46.3952 18.5398 46.7077 18.8295C47.0202 19.1193 47.1765 19.5 47.1765 19.9716C47.1765 20.4006 47.0501 20.777 46.7972 21.1009C46.5472 21.4247 46.2035 21.6776 45.766 21.8594C45.3313 22.0384 44.8299 22.1278 44.2617 22.1278C43.3952 22.1278 42.7049 21.9474 42.1907 21.5866C41.6793 21.223 41.3796 20.7287 41.2915 20.1037L43.077 20.0099C43.131 20.2741 43.2617 20.4759 43.4691 20.6151C43.6765 20.7514 43.9421 20.8196 44.266 20.8196C44.5841 20.8196 44.8398 20.7585 45.033 20.6364C45.229 20.5114 45.3285 20.3509 45.3313 20.1548C45.3285 19.9901 45.2589 19.8551 45.1225 19.75C44.9861 19.642 44.7759 19.5597 44.4918 19.5028L43.3583 19.277C42.7191 19.1491 42.2432 18.9276 41.9307 18.6122C41.6211 18.2969 41.4662 17.8949 41.4662 17.4062C41.4662 16.9858 41.5799 16.6236 41.8072 16.3196C42.0373 16.0156 42.3597 15.7812 42.7745 15.6165C43.1921 15.4517 43.6807 15.3693 44.2404 15.3693C45.0671 15.3693 45.7177 15.544 46.1921 15.8935C46.6694 16.2429 46.9478 16.7187 47.0273 17.321ZM51.0625 22.1278C50.3892 22.1278 49.8097 21.9915 49.3239 21.7188C48.841 21.4432 48.4688 21.054 48.2074 20.5511C47.9461 20.0455 47.8154 19.4474 47.8154 18.7571C47.8154 18.0838 47.9461 17.4929 48.2074 16.9844C48.4688 16.4759 48.8367 16.0795 49.3111 15.7955C49.7884 15.5114 50.3481 15.3693 50.9901 15.3693C51.4219 15.3693 51.8239 15.4389 52.1961 15.5781C52.5711 15.7145 52.8978 15.9205 53.1762 16.196C53.4574 16.4716 53.6762 16.8182 53.8324 17.2358C53.9887 17.6506 54.0668 18.1364 54.0668 18.6932V19.1918H48.5398V18.0668H52.358C52.358 17.8054 52.3012 17.5739 52.1875 17.3722C52.0739 17.1705 51.9162 17.0128 51.7145 16.8991C51.5157 16.7827 51.2841 16.7244 51.0199 16.7244C50.7444 16.7244 50.5 16.7884 50.287 16.9162C50.0767 17.0412 49.912 17.2102 49.7927 17.4233C49.6733 17.6335 49.6123 17.8679 49.6094 18.1264V19.196C49.6094 19.5199 49.6691 19.7997 49.7884 20.0355C49.9106 20.2713 50.0824 20.4531 50.304 20.581C50.5256 20.7088 50.7884 20.7727 51.0924 20.7727C51.2941 20.7727 51.4787 20.7443 51.6463 20.6875C51.814 20.6307 51.9574 20.5455 52.0767 20.4318C52.1961 20.3182 52.287 20.179 52.3495 20.0142L54.0285 20.125C53.9432 20.5284 53.7685 20.8807 53.5043 21.1818C53.2429 21.4801 52.9049 21.7131 52.4901 21.8807C52.0782 22.0455 51.6023 22.1278 51.0625 22.1278ZM60.4575 17.321L58.7956 17.4233C58.7671 17.2812 58.7061 17.1534 58.6123 17.0398C58.5186 16.9233 58.395 16.831 58.2416 16.7628C58.091 16.6918 57.9106 16.6562 57.7004 16.6562C57.4191 16.6562 57.1819 16.7159 56.9887 16.8352C56.7956 16.9517 56.699 17.108 56.699 17.304C56.699 17.4602 56.7615 17.5923 56.8865 17.7003C57.0115 17.8082 57.226 17.8949 57.5299 17.9602L58.7146 18.1989C59.351 18.3295 59.8254 18.5398 60.1379 18.8295C60.4504 19.1193 60.6066 19.5 60.6066 19.9716C60.6066 20.4006 60.4802 20.777 60.2274 21.1009C59.9774 21.4247 59.6336 21.6776 59.1961 21.8594C58.7615 22.0384 58.26 22.1278 57.6919 22.1278C56.8254 22.1278 56.135 21.9474 55.6208 21.5866C55.1095 21.223 54.8098 20.7287 54.7217 20.1037L56.5072 20.0099C56.5612 20.2741 56.6919 20.4759 56.8992 20.6151C57.1066 20.7514 57.3723 20.8196 57.6961 20.8196C58.0143 20.8196 58.27 20.7585 58.4632 20.6364C58.6592 20.5114 58.7586 20.3509 58.7615 20.1548C58.7586 19.9901 58.689 19.8551 58.5527 19.75C58.4163 19.642 58.2061 19.5597 57.922 19.5028L56.7885 19.277C56.1492 19.1491 55.6734 18.9276 55.3609 18.6122C55.0512 18.2969 54.8964 17.8949 54.8964 17.4062C54.8964 16.9858 55.01 16.6236 55.2373 16.3196C55.4674 16.0156 55.7899 15.7812 56.2046 15.6165C56.6223 15.4517 57.1109 15.3693 57.6706 15.3693C58.4973 15.3693 59.1478 15.544 59.6223 15.8935C60.0995 16.2429 60.3779 16.7187 60.4575 17.321Z" fill="#244224"/>
<rect x="74" width="81" height="35" rx="17.5" fill="#15151A"/>
<path d="M84.8608 22V13.2727H90.4517V14.598H86.4418V16.9673H90.0682V18.2926H86.4418V22H84.8608ZM91.4901 22V15.4545H92.9859V16.5455H93.054C93.1734 16.1676 93.3779 15.8764 93.6677 15.6719C93.9603 15.4645 94.2941 15.3608 94.6691 15.3608C94.7543 15.3608 94.8495 15.3651 94.9546 15.3736C95.0626 15.3793 95.152 15.3892 95.2231 15.4034V16.8224C95.1577 16.7997 95.054 16.7798 94.912 16.7628C94.7728 16.7429 94.6378 16.733 94.5072 16.733C94.2259 16.733 93.9731 16.794 93.7486 16.9162C93.527 17.0355 93.3523 17.2017 93.2245 17.4148C93.0966 17.6278 93.0327 17.8736 93.0327 18.152V22H91.4901ZM98.6361 22.1278C97.9799 22.1278 97.4131 21.9915 96.9358 21.7188C96.4614 21.4432 96.0963 21.054 95.8407 20.5511C95.585 20.0455 95.4571 19.4503 95.4571 18.7656C95.4571 18.0923 95.585 17.5014 95.8407 16.9929C96.0992 16.4815 96.46 16.0838 96.9231 15.7997C97.3861 15.5128 97.9302 15.3693 98.5552 15.3693C98.9586 15.3693 99.3392 15.4347 99.6972 15.5653C100.058 15.6932 100.376 15.892 100.652 16.1619C100.93 16.4318 101.149 16.7756 101.308 17.1932C101.467 17.608 101.547 18.1023 101.547 18.6761V19.1491H96.1816V18.1094H100.068C100.065 17.8139 100.001 17.5511 99.8762 17.321C99.7512 17.0881 99.5765 16.9048 99.352 16.7713C99.1304 16.6378 98.8719 16.571 98.5765 16.571C98.2611 16.571 97.9841 16.6477 97.7455 16.8011C97.5069 16.9517 97.3208 17.1506 97.1873 17.3977C97.0566 17.642 96.9898 17.9105 96.987 18.2031V19.1108C96.987 19.4915 97.0566 19.8182 97.1958 20.0909C97.335 20.3608 97.5296 20.5682 97.7796 20.7131C98.0296 20.8551 98.3222 20.9261 98.6574 20.9261C98.8819 20.9261 99.085 20.8949 99.2668 20.8324C99.4486 20.767 99.6063 20.6719 99.7398 20.5469C99.8733 20.4219 99.9742 20.267 100.042 20.0824L101.483 20.2443C101.392 20.625 101.219 20.9574 100.963 21.2415C100.71 21.5227 100.386 21.7415 99.9912 21.8977C99.5963 22.0511 99.1446 22.1278 98.6361 22.1278ZM105.509 22.1278C104.853 22.1278 104.286 21.9915 103.809 21.7188C103.335 21.4432 102.97 21.054 102.714 20.5511C102.458 20.0455 102.33 19.4503 102.33 18.7656C102.33 18.0923 102.458 17.5014 102.714 16.9929C102.972 16.4815 103.333 16.0838 103.796 15.7997C104.259 15.5128 104.803 15.3693 105.428 15.3693C105.832 15.3693 106.213 15.4347 106.57 15.5653C106.931 15.6932 107.249 15.892 107.525 16.1619C107.803 16.4318 108.022 16.7756 108.181 17.1932C108.34 17.608 108.42 18.1023 108.42 18.6761V19.1491H103.055V18.1094H106.941C106.938 17.8139 106.874 17.5511 106.749 17.321C106.624 17.0881 106.45 16.9048 106.225 16.7713C106.004 16.6378 105.745 16.571 105.45 16.571C105.134 16.571 104.857 16.6477 104.619 16.8011C104.38 16.9517 104.194 17.1506 104.061 17.3977C103.93 17.642 103.863 17.9105 103.86 18.2031V19.1108C103.86 19.4915 103.93 19.8182 104.069 20.0909C104.208 20.3608 104.403 20.5682 104.653 20.7131C104.903 20.8551 105.195 20.9261 105.531 20.9261C105.755 20.9261 105.958 20.8949 106.14 20.8324C106.322 20.767 106.48 20.6719 106.613 20.5469C106.747 20.4219 106.847 20.267 106.916 20.0824L108.356 20.2443C108.265 20.625 108.092 20.9574 107.836 21.2415C107.583 21.5227 107.259 21.7415 106.865 21.8977C106.47 22.0511 106.018 22.1278 105.509 22.1278ZM115.077 22.1278C114.423 22.1278 113.862 21.9844 113.393 21.6974C112.927 21.4105 112.568 21.0142 112.315 20.5085C112.065 20 111.94 19.4148 111.94 18.7528C111.94 18.0881 112.068 17.5014 112.324 16.9929C112.579 16.4815 112.94 16.0838 113.406 15.7997C113.875 15.5128 114.429 15.3693 115.068 15.3693C115.599 15.3693 116.07 15.4673 116.479 15.6634C116.891 15.8565 117.219 16.1307 117.463 16.4858C117.707 16.8381 117.847 17.25 117.881 17.7216H116.406C116.347 17.4062 116.204 17.1435 115.98 16.9332C115.758 16.7202 115.462 16.6136 115.089 16.6136C114.774 16.6136 114.497 16.6989 114.258 16.8693C114.02 17.0369 113.834 17.2784 113.7 17.5938C113.57 17.9091 113.504 18.2869 113.504 18.7273C113.504 19.1733 113.57 19.5568 113.7 19.8778C113.831 20.196 114.014 20.4418 114.25 20.6151C114.489 20.7855 114.768 20.8707 115.089 20.8707C115.317 20.8707 115.52 20.8281 115.699 20.7429C115.881 20.6548 116.033 20.5284 116.155 20.3636C116.277 20.1989 116.361 19.9986 116.406 19.7628H117.881C117.844 20.2259 117.707 20.6364 117.472 20.9943C117.236 21.3494 116.915 21.6278 116.508 21.8295C116.102 22.0284 115.625 22.1278 115.077 22.1278ZM120.791 22.1321C120.376 22.1321 120.002 22.0582 119.67 21.9105C119.341 21.7599 119.079 21.5384 118.886 21.2457C118.696 20.9531 118.6 20.5923 118.6 20.1634C118.6 19.794 118.669 19.4886 118.805 19.2472C118.941 19.0057 119.127 18.8125 119.363 18.6676C119.599 18.5227 119.865 18.4134 120.16 18.3395C120.458 18.2628 120.767 18.2074 121.085 18.1733C121.468 18.1335 121.779 18.098 122.018 18.0668C122.257 18.0327 122.43 17.9815 122.538 17.9134C122.649 17.8423 122.704 17.733 122.704 17.5852V17.5597C122.704 17.2386 122.609 16.9901 122.419 16.8139C122.228 16.6378 121.954 16.5497 121.596 16.5497C121.218 16.5497 120.919 16.6321 120.697 16.7969C120.478 16.9616 120.331 17.1562 120.254 17.3807L118.814 17.1761C118.927 16.7784 119.115 16.446 119.376 16.179C119.637 15.9091 119.957 15.7074 120.335 15.5739C120.713 15.4375 121.13 15.3693 121.588 15.3693C121.903 15.3693 122.217 15.4062 122.529 15.4801C122.842 15.554 123.127 15.6761 123.386 15.8466C123.645 16.0142 123.852 16.2429 124.008 16.5327C124.167 16.8224 124.247 17.1847 124.247 17.6193V22H122.764V21.1009H122.713C122.619 21.2827 122.487 21.4531 122.316 21.6122C122.149 21.7685 121.937 21.8949 121.681 21.9915C121.429 22.0852 121.132 22.1321 120.791 22.1321ZM121.191 20.9986C121.501 20.9986 121.77 20.9375 121.997 20.8153C122.224 20.6903 122.399 20.5256 122.521 20.321C122.646 20.1165 122.708 19.8935 122.708 19.652V18.8807C122.66 18.9205 122.578 18.9574 122.461 18.9915C122.348 19.0256 122.22 19.0554 122.078 19.081C121.936 19.1065 121.795 19.1293 121.656 19.1491C121.517 19.169 121.396 19.1861 121.294 19.2003C121.064 19.2315 120.858 19.2827 120.676 19.3537C120.494 19.4247 120.35 19.5241 120.245 19.652C120.14 19.777 120.088 19.9389 120.088 20.1378C120.088 20.4219 120.191 20.6364 120.399 20.7812C120.606 20.9261 120.87 20.9986 121.191 20.9986ZM130.731 17.1847L129.325 17.3381C129.285 17.196 129.216 17.0625 129.116 16.9375C129.02 16.8125 128.889 16.7116 128.724 16.6349C128.559 16.5582 128.358 16.5199 128.119 16.5199C127.798 16.5199 127.528 16.5895 127.309 16.7287C127.093 16.8679 126.987 17.0483 126.99 17.2699C126.987 17.4602 127.057 17.6151 127.199 17.7344C127.343 17.8537 127.582 17.9517 127.914 18.0284L129.031 18.267C129.65 18.4006 130.11 18.6122 130.412 18.902C130.716 19.1918 130.869 19.571 130.872 20.0398C130.869 20.4517 130.748 20.8153 130.51 21.1307C130.274 21.4432 129.946 21.6875 129.525 21.8636C129.105 22.0398 128.622 22.1278 128.076 22.1278C127.275 22.1278 126.63 21.9602 126.142 21.625C125.653 21.2869 125.362 20.8168 125.268 20.2145L126.772 20.0696C126.841 20.3651 126.985 20.5881 127.207 20.7386C127.429 20.8892 127.717 20.9645 128.072 20.9645C128.439 20.9645 128.733 20.8892 128.954 20.7386C129.179 20.5881 129.291 20.402 129.291 20.1804C129.291 19.9929 129.218 19.8381 129.074 19.7159C128.932 19.5937 128.71 19.5 128.409 19.4347L127.292 19.2003C126.664 19.0696 126.2 18.8494 125.899 18.5398C125.598 18.2273 125.449 17.8324 125.451 17.3551C125.449 16.9517 125.558 16.6023 125.78 16.3068C126.004 16.0085 126.315 15.7784 126.713 15.6165C127.113 15.4517 127.575 15.3693 128.098 15.3693C128.865 15.3693 129.468 15.5327 129.909 15.8594C130.352 16.1861 130.626 16.6278 130.731 17.1847ZM134.802 22.1278C134.145 22.1278 133.579 21.9915 133.101 21.7188C132.627 21.4432 132.262 21.054 132.006 20.5511C131.75 20.0455 131.623 19.4503 131.623 18.7656C131.623 18.0923 131.75 17.5014 132.006 16.9929C132.265 16.4815 132.625 16.0838 133.089 15.7997C133.552 15.5128 134.096 15.3693 134.721 15.3693C135.124 15.3693 135.505 15.4347 135.863 15.5653C136.223 15.6932 136.542 15.892 136.817 16.1619C137.096 16.4318 137.314 16.7756 137.473 17.1932C137.633 17.608 137.712 18.1023 137.712 18.6761V19.1491H132.347V18.1094H136.233C136.231 17.8139 136.167 17.5511 136.042 17.321C135.917 17.0881 135.742 16.9048 135.518 16.7713C135.296 16.6378 135.037 16.571 134.742 16.571C134.427 16.571 134.15 16.6477 133.911 16.8011C133.672 16.9517 133.486 17.1506 133.353 17.3977C133.222 17.642 133.155 17.9105 133.152 18.2031V19.1108C133.152 19.4915 133.222 19.8182 133.361 20.0909C133.5 20.3608 133.695 20.5682 133.945 20.7131C134.195 20.8551 134.488 20.9261 134.823 20.9261C135.047 20.9261 135.25 20.8949 135.432 20.8324C135.614 20.767 135.772 20.6719 135.905 20.5469C136.039 20.4219 136.14 20.267 136.208 20.0824L137.648 20.2443C137.557 20.625 137.384 20.9574 137.128 21.2415C136.875 21.5227 136.552 21.7415 136.157 21.8977C135.762 22.0511 135.31 22.1278 134.802 22.1278ZM143.95 17.1847L142.544 17.3381C142.504 17.196 142.435 17.0625 142.335 16.9375C142.239 16.8125 142.108 16.7116 141.943 16.6349C141.779 16.5582 141.577 16.5199 141.338 16.5199C141.017 16.5199 140.747 16.5895 140.529 16.7287C140.313 16.8679 140.206 17.0483 140.209 17.2699C140.206 17.4602 140.276 17.6151 140.418 17.7344C140.563 17.8537 140.801 17.9517 141.134 18.0284L142.25 18.267C142.869 18.4006 143.33 18.6122 143.631 18.902C143.935 19.1918 144.088 19.571 144.091 20.0398C144.088 20.4517 143.967 20.8153 143.729 21.1307C143.493 21.4432 143.165 21.6875 142.744 21.8636C142.324 22.0398 141.841 22.1278 141.296 22.1278C140.494 22.1278 139.85 21.9602 139.361 21.625C138.872 21.2869 138.581 20.8168 138.487 20.2145L139.992 20.0696C140.06 20.3651 140.205 20.5881 140.426 20.7386C140.648 20.8892 140.936 20.9645 141.291 20.9645C141.658 20.9645 141.952 20.8892 142.173 20.7386C142.398 20.5881 142.51 20.402 142.51 20.1804C142.51 19.9929 142.438 19.8381 142.293 19.7159C142.151 19.5937 141.929 19.5 141.628 19.4347L140.512 19.2003C139.884 19.0696 139.419 18.8494 139.118 18.5398C138.817 18.2273 138.668 17.8324 138.671 17.3551C138.668 16.9517 138.777 16.6023 138.999 16.3068C139.223 16.0085 139.534 15.7784 139.932 15.6165C140.333 15.4517 140.794 15.3693 141.317 15.3693C142.084 15.3693 142.688 15.5327 143.128 15.8594C143.571 16.1861 143.845 16.6278 143.95 17.1847Z" fill="white"/>
<rect x="157" width="85" height="35" rx="17.5" fill="#15151A"/>
<path d="M168.982 22H167.294L170.366 13.2727H172.318L175.395 22H173.707L171.376 15.0625H171.308L168.982 22ZM169.037 18.5781H173.639V19.848H169.037V18.5781ZM177.779 13.2727V22H176.236V13.2727H177.779ZM180.668 13.2727V22H179.125V13.2727H180.668ZM186.4 13.2727V22H184.819V13.2727H186.4ZM189.346 18.1648V22H187.804V15.4545H189.278V16.5668H189.355C189.505 16.2003 189.745 15.9091 190.075 15.6932C190.407 15.4773 190.818 15.3693 191.306 15.3693C191.758 15.3693 192.152 15.4659 192.487 15.6591C192.825 15.8523 193.086 16.1321 193.271 16.4986C193.458 16.8651 193.551 17.3097 193.548 17.8324V22H192.005V18.071C192.005 17.6335 191.892 17.2912 191.664 17.044C191.44 16.7969 191.129 16.6733 190.731 16.6733C190.461 16.6733 190.221 16.733 190.011 16.8523C189.804 16.9687 189.64 17.1378 189.521 17.3594C189.404 17.581 189.346 17.8494 189.346 18.1648ZM205.151 16.2173H203.557C203.512 15.956 203.428 15.7244 203.306 15.5227C203.184 15.3182 203.032 15.1449 202.85 15.0028C202.668 14.8608 202.461 14.7543 202.228 14.6832C201.998 14.6094 201.749 14.5724 201.482 14.5724C201.007 14.5724 200.587 14.6918 200.221 14.9304C199.854 15.1662 199.567 15.5128 199.36 15.9702C199.152 16.4247 199.049 16.9801 199.049 17.6364C199.049 18.304 199.152 18.8665 199.36 19.3239C199.57 19.7784 199.857 20.1222 200.221 20.3551C200.587 20.5852 201.006 20.7003 201.478 20.7003C201.739 20.7003 201.983 20.6662 202.211 20.598C202.441 20.527 202.647 20.4233 202.829 20.2869C203.013 20.1506 203.168 19.983 203.293 19.7841C203.421 19.5852 203.509 19.358 203.557 19.1023L205.151 19.1108C205.091 19.5256 204.962 19.9148 204.763 20.2784C204.567 20.642 204.31 20.9631 203.992 21.2415C203.674 21.517 203.302 21.733 202.875 21.8892C202.449 22.0426 201.976 22.1193 201.456 22.1193C200.689 22.1193 200.005 21.9418 199.402 21.5866C198.8 21.2315 198.326 20.7188 197.979 20.0483C197.632 19.3778 197.459 18.5739 197.459 17.6364C197.459 16.696 197.634 15.892 197.983 15.2244C198.333 14.554 198.809 14.0412 199.411 13.6861C200.013 13.331 200.695 13.1534 201.456 13.1534C201.942 13.1534 202.394 13.2216 202.811 13.358C203.229 13.4943 203.601 13.6946 203.928 13.9588C204.255 14.2202 204.523 14.5412 204.733 14.9219C204.946 15.2997 205.086 15.7315 205.151 16.2173ZM208.174 22.1321C207.759 22.1321 207.386 22.0582 207.053 21.9105C206.724 21.7599 206.462 21.5384 206.269 21.2457C206.079 20.9531 205.984 20.5923 205.984 20.1634C205.984 19.794 206.052 19.4886 206.188 19.2472C206.325 19.0057 206.511 18.8125 206.747 18.6676C206.982 18.5227 207.248 18.4134 207.543 18.3395C207.842 18.2628 208.15 18.2074 208.468 18.1733C208.852 18.1335 209.163 18.098 209.401 18.0668C209.64 18.0327 209.813 17.9815 209.921 17.9134C210.032 17.8423 210.087 17.733 210.087 17.5852V17.5597C210.087 17.2386 209.992 16.9901 209.802 16.8139C209.612 16.6378 209.337 16.5497 208.98 16.5497C208.602 16.5497 208.302 16.6321 208.08 16.7969C207.862 16.9616 207.714 17.1562 207.637 17.3807L206.197 17.1761C206.31 16.7784 206.498 16.446 206.759 16.179C207.021 15.9091 207.34 15.7074 207.718 15.5739C208.096 15.4375 208.514 15.3693 208.971 15.3693C209.286 15.3693 209.6 15.4062 209.913 15.4801C210.225 15.554 210.511 15.6761 210.769 15.8466C211.028 16.0142 211.235 16.2429 211.391 16.5327C211.551 16.8224 211.63 17.1847 211.63 17.6193V22H210.147V21.1009H210.096C210.002 21.2827 209.87 21.4531 209.7 21.6122C209.532 21.7685 209.32 21.8949 209.065 21.9915C208.812 22.0852 208.515 22.1321 208.174 22.1321ZM208.575 20.9986C208.884 20.9986 209.153 20.9375 209.38 20.8153C209.607 20.6903 209.782 20.5256 209.904 20.321C210.029 20.1165 210.092 19.8935 210.092 19.652V18.8807C210.043 18.9205 209.961 18.9574 209.845 18.9915C209.731 19.0256 209.603 19.0554 209.461 19.081C209.319 19.1065 209.178 19.1293 209.039 19.1491C208.9 19.169 208.779 19.1861 208.677 19.2003C208.447 19.2315 208.241 19.2827 208.059 19.3537C207.877 19.4247 207.734 19.5241 207.629 19.652C207.524 19.777 207.471 19.9389 207.471 20.1378C207.471 20.4219 207.575 20.6364 207.782 20.7812C207.989 20.9261 208.254 20.9986 208.575 20.9986ZM218.115 17.1847L216.708 17.3381C216.668 17.196 216.599 17.0625 216.499 16.9375C216.403 16.8125 216.272 16.7116 216.107 16.6349C215.943 16.5582 215.741 16.5199 215.502 16.5199C215.181 16.5199 214.911 16.5895 214.693 16.7287C214.477 16.8679 214.37 17.0483 214.373 17.2699C214.37 17.4602 214.44 17.6151 214.582 17.7344C214.727 17.8537 214.965 17.9517 215.298 18.0284L216.414 18.267C217.034 18.4006 217.494 18.6122 217.795 18.902C218.099 19.1918 218.252 19.571 218.255 20.0398C218.252 20.4517 218.132 20.8153 217.893 21.1307C217.657 21.4432 217.329 21.6875 216.909 21.8636C216.488 22.0398 216.005 22.1278 215.46 22.1278C214.659 22.1278 214.014 21.9602 213.525 21.625C213.036 21.2869 212.745 20.8168 212.651 20.2145L214.156 20.0696C214.224 20.3651 214.369 20.5881 214.59 20.7386C214.812 20.8892 215.1 20.9645 215.455 20.9645C215.822 20.9645 216.116 20.8892 216.338 20.7386C216.562 20.5881 216.674 20.402 216.674 20.1804C216.674 19.9929 216.602 19.8381 216.457 19.7159C216.315 19.5937 216.093 19.5 215.792 19.4347L214.676 19.2003C214.048 19.0696 213.583 18.8494 213.282 18.5398C212.981 18.2273 212.832 17.8324 212.835 17.3551C212.832 16.9517 212.941 16.6023 213.163 16.3068C213.387 16.0085 213.698 15.7784 214.096 15.6165C214.497 15.4517 214.958 15.3693 215.481 15.3693C216.248 15.3693 216.852 15.5327 217.292 15.8594C217.735 16.1861 218.009 16.6278 218.115 17.1847ZM222.185 22.1278C221.529 22.1278 220.962 21.9915 220.485 21.7188C220.01 21.4432 219.645 21.054 219.389 20.5511C219.134 20.0455 219.006 19.4503 219.006 18.7656C219.006 18.0923 219.134 17.5014 219.389 16.9929C219.648 16.4815 220.009 16.0838 220.472 15.7997C220.935 15.5128 221.479 15.3693 222.104 15.3693C222.507 15.3693 222.888 15.4347 223.246 15.5653C223.607 15.6932 223.925 15.892 224.2 16.1619C224.479 16.4318 224.698 16.7756 224.857 17.1932C225.016 17.608 225.095 18.1023 225.095 18.6761V19.1491H219.73V18.1094H223.617C223.614 17.8139 223.55 17.5511 223.425 17.321C223.3 17.0881 223.125 16.9048 222.901 16.7713C222.679 16.6378 222.421 16.571 222.125 16.571C221.81 16.571 221.533 16.6477 221.294 16.8011C221.056 16.9517 220.87 17.1506 220.736 17.3977C220.605 17.642 220.539 17.9105 220.536 18.2031V19.1108C220.536 19.4915 220.605 19.8182 220.745 20.0909C220.884 20.3608 221.078 20.5682 221.328 20.7131C221.578 20.8551 221.871 20.9261 222.206 20.9261C222.431 20.9261 222.634 20.8949 222.816 20.8324C222.997 20.767 223.155 20.6719 223.289 20.5469C223.422 20.4219 223.523 20.267 223.591 20.0824L225.031 20.2443C224.941 20.625 224.767 20.9574 224.512 21.2415C224.259 21.5227 223.935 21.7415 223.54 21.8977C223.145 22.0511 222.693 22.1278 222.185 22.1278ZM231.334 17.1847L229.927 17.3381C229.888 17.196 229.818 17.0625 229.719 16.9375C229.622 16.8125 229.491 16.7116 229.327 16.6349C229.162 16.5582 228.96 16.5199 228.722 16.5199C228.4 16.5199 228.131 16.5895 227.912 16.7287C227.696 16.8679 227.589 17.0483 227.592 17.2699C227.589 17.4602 227.659 17.6151 227.801 17.7344C227.946 17.8537 228.185 17.9517 228.517 18.0284L229.633 18.267C230.253 18.4006 230.713 18.6122 231.014 18.902C231.318 19.1918 231.472 19.571 231.474 20.0398C231.472 20.4517 231.351 20.8153 231.112 21.1307C230.876 21.4432 230.548 21.6875 230.128 21.8636C229.707 22.0398 229.224 22.1278 228.679 22.1278C227.878 22.1278 227.233 21.9602 226.744 21.625C226.256 21.2869 225.964 20.8168 225.871 20.2145L227.375 20.0696C227.443 20.3651 227.588 20.5881 227.81 20.7386C228.031 20.8892 228.32 20.9645 228.675 20.9645C229.041 20.9645 229.335 20.8892 229.557 20.7386C229.781 20.5881 229.893 20.402 229.893 20.1804C229.893 19.9929 229.821 19.8381 229.676 19.7159C229.534 19.5937 229.312 19.5 229.011 19.4347L227.895 19.2003C227.267 19.0696 226.802 18.8494 226.501 18.5398C226.2 18.2273 226.051 17.8324 226.054 17.3551C226.051 16.9517 226.16 16.6023 226.382 16.3068C226.606 16.0085 226.918 15.7784 227.315 15.6165C227.716 15.4517 228.177 15.3693 228.7 15.3693C229.467 15.3693 230.071 15.5327 230.511 15.8594C230.954 16.1861 231.229 16.6278 231.334 17.1847Z" fill="white"/>
<rect x="244" width="98" height="35" rx="17.5" fill="#15151A"/>
<path d="M254.861 22V13.2727H256.442V20.6747H260.286V22H254.861ZM261.349 22V15.4545H262.892V22H261.349ZM262.125 14.5256C261.881 14.5256 261.671 14.4446 261.494 14.2827C261.318 14.1179 261.23 13.9205 261.23 13.6903C261.23 13.4574 261.318 13.2599 261.494 13.098C261.671 12.9332 261.881 12.8509 262.125 12.8509C262.372 12.8509 262.582 12.9332 262.756 13.098C262.932 13.2599 263.02 13.4574 263.02 13.6903C263.02 13.9205 262.932 14.1179 262.756 14.2827C262.582 14.4446 262.372 14.5256 262.125 14.5256ZM264.238 22V15.4545H265.713V16.5668H265.79C265.926 16.1918 266.152 15.8991 266.467 15.6889C266.782 15.4759 267.159 15.3693 267.596 15.3693C268.04 15.3693 268.413 15.4773 268.717 15.6932C269.024 15.9062 269.24 16.1974 269.365 16.5668H269.433C269.578 16.2031 269.822 15.9134 270.166 15.6974C270.513 15.4787 270.923 15.3693 271.397 15.3693C272 15.3693 272.491 15.5597 272.872 15.9403C273.253 16.321 273.443 16.8764 273.443 17.6065V22H271.896V17.8452C271.896 17.4389 271.788 17.142 271.572 16.9545C271.356 16.7642 271.092 16.669 270.78 16.669C270.407 16.669 270.116 16.7855 269.906 17.0185C269.699 17.2486 269.595 17.5483 269.595 17.9176V22H268.082V17.7812C268.082 17.4432 267.98 17.1733 267.775 16.9716C267.574 16.7699 267.309 16.669 266.983 16.669C266.761 16.669 266.559 16.7259 266.378 16.8395C266.196 16.9503 266.051 17.108 265.943 17.3125C265.835 17.5142 265.781 17.75 265.781 18.0199V22H264.238ZM274.768 22V15.4545H276.311V22H274.768ZM275.543 14.5256C275.299 14.5256 275.089 14.4446 274.913 14.2827C274.737 14.1179 274.649 13.9205 274.649 13.6903C274.649 13.4574 274.737 13.2599 274.913 13.098C275.089 12.9332 275.299 12.8509 275.543 12.8509C275.791 12.8509 276.001 12.9332 276.174 13.098C276.35 13.2599 276.438 13.4574 276.438 13.6903C276.438 13.9205 276.35 14.1179 276.174 14.2827C276.001 14.4446 275.791 14.5256 275.543 14.5256ZM280.925 15.4545V16.6477H277.163V15.4545H280.925ZM278.091 13.8864H279.634V20.0312C279.634 20.2386 279.665 20.3977 279.728 20.5085C279.793 20.6165 279.878 20.6903 279.984 20.7301C280.089 20.7699 280.205 20.7898 280.333 20.7898C280.43 20.7898 280.518 20.7827 280.597 20.7685C280.68 20.7543 280.742 20.7415 280.785 20.7301L281.045 21.9361C280.962 21.9645 280.844 21.9957 280.691 22.0298C280.54 22.0639 280.356 22.0838 280.137 22.0895C279.751 22.1009 279.403 22.0426 279.093 21.9148C278.783 21.7841 278.538 21.5824 278.356 21.3097C278.177 21.0369 278.089 20.696 278.091 20.2869V13.8864ZM284.803 22.1278C284.147 22.1278 283.58 21.9915 283.103 21.7188C282.628 21.4432 282.263 21.054 282.007 20.5511C281.752 20.0455 281.624 19.4503 281.624 18.7656C281.624 18.0923 281.752 17.5014 282.007 16.9929C282.266 16.4815 282.627 16.0838 283.09 15.7997C283.553 15.5128 284.097 15.3693 284.722 15.3693C285.125 15.3693 285.506 15.4347 285.864 15.5653C286.225 15.6932 286.543 15.892 286.818 16.1619C287.097 16.4318 287.316 16.7756 287.475 17.1932C287.634 17.608 287.713 18.1023 287.713 18.6761V19.1491H282.348V18.1094H286.235C286.232 17.8139 286.168 17.5511 286.043 17.321C285.918 17.0881 285.743 16.9048 285.519 16.7713C285.297 16.6378 285.039 16.571 284.743 16.571C284.428 16.571 284.151 16.6477 283.912 16.8011C283.674 16.9517 283.487 17.1506 283.354 17.3977C283.223 17.642 283.157 17.9105 283.154 18.2031V19.1108C283.154 19.4915 283.223 19.8182 283.362 20.0909C283.502 20.3608 283.696 20.5682 283.946 20.7131C284.196 20.8551 284.489 20.9261 284.824 20.9261C285.049 20.9261 285.252 20.8949 285.434 20.8324C285.615 20.767 285.773 20.6719 285.907 20.5469C286.04 20.4219 286.141 20.267 286.209 20.0824L287.649 20.2443C287.559 20.625 287.385 20.9574 287.13 21.2415C286.877 21.5227 286.553 21.7415 286.158 21.8977C285.763 22.0511 285.311 22.1278 284.803 22.1278ZM291.207 22.1151C290.693 22.1151 290.233 21.983 289.827 21.7188C289.42 21.4545 289.099 21.071 288.864 20.5682C288.628 20.0653 288.51 19.4545 288.51 18.7358C288.51 18.0085 288.629 17.3949 288.868 16.8949C289.109 16.392 289.435 16.0128 289.844 15.7571C290.253 15.4986 290.709 15.3693 291.212 15.3693C291.595 15.3693 291.91 15.4347 292.158 15.5653C292.405 15.6932 292.601 15.848 292.746 16.0298C292.891 16.2088 293.003 16.3778 293.082 16.5369H293.146V13.2727H294.693V22H293.176V20.9688H293.082C293.003 21.1278 292.888 21.2969 292.737 21.4759C292.587 21.652 292.388 21.8026 292.141 21.9276C291.893 22.0526 291.582 22.1151 291.207 22.1151ZM291.638 20.8494C291.964 20.8494 292.243 20.7614 292.473 20.5852C292.703 20.4062 292.878 20.1577 292.997 19.8395C293.116 19.5213 293.176 19.1506 293.176 18.7273C293.176 18.304 293.116 17.9361 292.997 17.6236C292.881 17.3111 292.707 17.0682 292.477 16.8949C292.25 16.7216 291.97 16.6349 291.638 16.6349C291.294 16.6349 291.007 16.7244 290.777 16.9034C290.547 17.0824 290.374 17.3295 290.257 17.6449C290.141 17.9602 290.082 18.321 290.082 18.7273C290.082 19.1364 290.141 19.5014 290.257 19.8224C290.376 20.1406 290.551 20.392 290.781 20.5767C291.014 20.7585 291.3 20.8494 291.638 20.8494ZM301.689 22.1278C301.035 22.1278 300.474 21.9844 300.005 21.6974C299.54 21.4105 299.18 21.0142 298.927 20.5085C298.677 20 298.552 19.4148 298.552 18.7528C298.552 18.0881 298.68 17.5014 298.936 16.9929C299.192 16.4815 299.552 16.0838 300.018 15.7997C300.487 15.5128 301.041 15.3693 301.68 15.3693C302.211 15.3693 302.682 15.4673 303.091 15.6634C303.503 15.8565 303.831 16.1307 304.075 16.4858C304.319 16.8381 304.459 17.25 304.493 17.7216H303.018C302.959 17.4062 302.817 17.1435 302.592 16.9332C302.37 16.7202 302.074 16.6136 301.701 16.6136C301.386 16.6136 301.109 16.6989 300.87 16.8693C300.632 17.0369 300.446 17.2784 300.312 17.5938C300.182 17.9091 300.116 18.2869 300.116 18.7273C300.116 19.1733 300.182 19.5568 300.312 19.8778C300.443 20.196 300.626 20.4418 300.862 20.6151C301.101 20.7855 301.38 20.8707 301.701 20.8707C301.929 20.8707 302.132 20.8281 302.311 20.7429C302.493 20.6548 302.645 20.5284 302.767 20.3636C302.889 20.1989 302.973 19.9986 303.018 19.7628H304.493C304.456 20.2259 304.319 20.6364 304.084 20.9943C303.848 21.3494 303.527 21.6278 303.12 21.8295C302.714 22.0284 302.237 22.1278 301.689 22.1278ZM307.403 22.1321C306.988 22.1321 306.615 22.0582 306.282 21.9105C305.953 21.7599 305.691 21.5384 305.498 21.2457C305.308 20.9531 305.213 20.5923 305.213 20.1634C305.213 19.794 305.281 19.4886 305.417 19.2472C305.553 19.0057 305.74 18.8125 305.975 18.6676C306.211 18.5227 306.477 18.4134 306.772 18.3395C307.07 18.2628 307.379 18.2074 307.697 18.1733C308.08 18.1335 308.391 18.098 308.63 18.0668C308.869 18.0327 309.042 17.9815 309.15 17.9134C309.261 17.8423 309.316 17.733 309.316 17.5852V17.5597C309.316 17.2386 309.221 16.9901 309.031 16.8139C308.84 16.6378 308.566 16.5497 308.208 16.5497C307.83 16.5497 307.531 16.6321 307.309 16.7969C307.09 16.9616 306.943 17.1562 306.866 17.3807L305.426 17.1761C305.539 16.7784 305.727 16.446 305.988 16.179C306.249 15.9091 306.569 15.7074 306.947 15.5739C307.325 15.4375 307.742 15.3693 308.2 15.3693C308.515 15.3693 308.829 15.4062 309.141 15.4801C309.454 15.554 309.74 15.6761 309.998 15.8466C310.257 16.0142 310.464 16.2429 310.62 16.5327C310.779 16.8224 310.859 17.1847 310.859 17.6193V22H309.376V21.1009H309.325C309.231 21.2827 309.099 21.4531 308.928 21.6122C308.761 21.7685 308.549 21.8949 308.293 21.9915C308.041 22.0852 307.744 22.1321 307.403 22.1321ZM307.803 20.9986C308.113 20.9986 308.382 20.9375 308.609 20.8153C308.836 20.6903 309.011 20.5256 309.133 20.321C309.258 20.1165 309.32 19.8935 309.32 19.652V18.8807C309.272 18.9205 309.19 18.9574 309.073 18.9915C308.96 19.0256 308.832 19.0554 308.69 19.081C308.548 19.1065 308.407 19.1293 308.268 19.1491C308.129 19.169 308.008 19.1861 307.906 19.2003C307.676 19.2315 307.47 19.2827 307.288 19.3537C307.106 19.4247 306.963 19.5241 306.857 19.652C306.752 19.777 306.7 19.9389 306.7 20.1378C306.7 20.4219 306.803 20.6364 307.011 20.7812C307.218 20.9261 307.482 20.9986 307.803 20.9986ZM317.343 17.1847L315.937 17.3381C315.897 17.196 315.828 17.0625 315.728 16.9375C315.632 16.8125 315.501 16.7116 315.336 16.6349C315.171 16.5582 314.97 16.5199 314.731 16.5199C314.41 16.5199 314.14 16.5895 313.921 16.7287C313.705 16.8679 313.599 17.0483 313.602 17.2699C313.599 17.4602 313.669 17.6151 313.811 17.7344C313.955 17.8537 314.194 17.9517 314.526 18.0284L315.643 18.267C316.262 18.4006 316.723 18.6122 317.024 18.902C317.328 19.1918 317.481 19.571 317.484 20.0398C317.481 20.4517 317.36 20.8153 317.122 21.1307C316.886 21.4432 316.558 21.6875 316.137 21.8636C315.717 22.0398 315.234 22.1278 314.688 22.1278C313.887 22.1278 313.242 21.9602 312.754 21.625C312.265 21.2869 311.974 20.8168 311.88 20.2145L313.384 20.0696C313.453 20.3651 313.598 20.5881 313.819 20.7386C314.041 20.8892 314.329 20.9645 314.684 20.9645C315.051 20.9645 315.345 20.8892 315.566 20.7386C315.791 20.5881 315.903 20.402 315.903 20.1804C315.903 19.9929 315.83 19.8381 315.686 19.7159C315.544 19.5937 315.322 19.5 315.021 19.4347L313.904 19.2003C313.276 19.0696 312.812 18.8494 312.511 18.5398C312.21 18.2273 312.061 17.8324 312.063 17.3551C312.061 16.9517 312.17 16.6023 312.392 16.3068C312.616 16.0085 312.927 15.7784 313.325 15.6165C313.725 15.4517 314.187 15.3693 314.71 15.3693C315.477 15.3693 316.08 15.5327 316.521 15.8594C316.964 16.1861 317.238 16.6278 317.343 17.1847ZM321.414 22.1278C320.757 22.1278 320.191 21.9915 319.713 21.7188C319.239 21.4432 318.874 21.054 318.618 20.5511C318.362 20.0455 318.235 19.4503 318.235 18.7656C318.235 18.0923 318.362 17.5014 318.618 16.9929C318.877 16.4815 319.237 16.0838 319.701 15.7997C320.164 15.5128 320.708 15.3693 321.333 15.3693C321.736 15.3693 322.117 15.4347 322.475 15.5653C322.835 15.6932 323.154 15.892 323.429 16.1619C323.708 16.4318 323.926 16.7756 324.085 17.1932C324.245 17.608 324.324 18.1023 324.324 18.6761V19.1491H318.959V18.1094H322.845C322.843 17.8139 322.779 17.5511 322.654 17.321C322.529 17.0881 322.354 16.9048 322.13 16.7713C321.908 16.6378 321.649 16.571 321.354 16.571C321.039 16.571 320.762 16.6477 320.523 16.8011C320.284 16.9517 320.098 17.1506 319.965 17.3977C319.834 17.642 319.767 17.9105 319.764 18.2031V19.1108C319.764 19.4915 319.834 19.8182 319.973 20.0909C320.112 20.3608 320.307 20.5682 320.557 20.7131C320.807 20.8551 321.1 20.9261 321.435 20.9261C321.659 20.9261 321.862 20.8949 322.044 20.8324C322.226 20.767 322.384 20.6719 322.517 20.5469C322.651 20.4219 322.752 20.267 322.82 20.0824L324.26 20.2443C324.169 20.625 323.996 20.9574 323.74 21.2415C323.487 21.5227 323.164 21.7415 322.769 21.8977C322.374 22.0511 321.922 22.1278 321.414 22.1278ZM330.562 17.1847L329.156 17.3381C329.116 17.196 329.047 17.0625 328.947 16.9375C328.851 16.8125 328.72 16.7116 328.555 16.6349C328.391 16.5582 328.189 16.5199 327.95 16.5199C327.629 16.5199 327.359 16.5895 327.141 16.7287C326.925 16.8679 326.818 17.0483 326.821 17.2699C326.818 17.4602 326.888 17.6151 327.03 17.7344C327.175 17.8537 327.413 17.9517 327.746 18.0284L328.862 18.267C329.482 18.4006 329.942 18.6122 330.243 18.902C330.547 19.1918 330.7 19.571 330.703 20.0398C330.7 20.4517 330.58 20.8153 330.341 21.1307C330.105 21.4432 329.777 21.6875 329.357 21.8636C328.936 22.0398 328.453 22.1278 327.908 22.1278C327.107 22.1278 326.462 21.9602 325.973 21.625C325.484 21.2869 325.193 20.8168 325.099 20.2145L326.604 20.0696C326.672 20.3651 326.817 20.5881 327.038 20.7386C327.26 20.8892 327.548 20.9645 327.903 20.9645C328.27 20.9645 328.564 20.8892 328.785 20.7386C329.01 20.5881 329.122 20.402 329.122 20.1804C329.122 19.9929 329.05 19.8381 328.905 19.7159C328.763 19.5937 328.541 19.5 328.24 19.4347L327.124 19.2003C326.496 19.0696 326.031 18.8494 325.73 18.5398C325.429 18.2273 325.28 17.8324 325.283 17.3551C325.28 16.9517 325.389 16.6023 325.611 16.3068C325.835 16.0085 326.146 15.7784 326.544 15.6165C326.945 15.4517 327.406 15.3693 327.929 15.3693C328.696 15.3693 329.3 15.5327 329.74 15.8594C330.183 16.1861 330.457 16.6278 330.562 17.1847Z" fill="white"/>
<rect x="344" width="64" height="35" rx="17.5" fill="#15151A"/>
<path d="M357.818 22H354.861V13.2727H357.878C358.744 13.2727 359.489 13.4474 360.111 13.7969C360.736 14.1435 361.216 14.642 361.551 15.2926C361.886 15.9432 362.054 16.7216 362.054 17.6278C362.054 18.5369 361.885 19.3182 361.547 19.9716C361.212 20.625 360.727 21.1264 360.094 21.4759C359.463 21.8253 358.705 22 357.818 22ZM356.442 20.6321H357.741C358.349 20.6321 358.857 20.5213 359.263 20.2997C359.669 20.0753 359.974 19.7415 360.179 19.2983C360.384 18.8523 360.486 18.2955 360.486 17.6278C360.486 16.9602 360.384 16.4062 360.179 15.9659C359.974 15.5227 359.672 15.1918 359.271 14.973C358.874 14.7514 358.379 14.6406 357.788 14.6406H356.442V20.6321ZM366.146 22.1278C365.489 22.1278 364.923 21.9915 364.445 21.7188C363.971 21.4432 363.606 21.054 363.35 20.5511C363.095 20.0455 362.967 19.4503 362.967 18.7656C362.967 18.0923 363.095 17.5014 363.35 16.9929C363.609 16.4815 363.97 16.0838 364.433 15.7997C364.896 15.5128 365.44 15.3693 366.065 15.3693C366.468 15.3693 366.849 15.4347 367.207 15.5653C367.568 15.6932 367.886 15.892 368.161 16.1619C368.44 16.4318 368.658 16.7756 368.818 17.1932C368.977 17.608 369.056 18.1023 369.056 18.6761V19.1491H363.691V18.1094H367.577C367.575 17.8139 367.511 17.5511 367.386 17.321C367.261 17.0881 367.086 16.9048 366.862 16.7713C366.64 16.6378 366.381 16.571 366.086 16.571C365.771 16.571 365.494 16.6477 365.255 16.8011C365.016 16.9517 364.83 17.1506 364.697 17.3977C364.566 17.642 364.499 17.9105 364.497 18.2031V19.1108C364.497 19.4915 364.566 19.8182 364.705 20.0909C364.845 20.3608 365.039 20.5682 365.289 20.7131C365.539 20.8551 365.832 20.9261 366.167 20.9261C366.391 20.9261 366.595 20.8949 366.776 20.8324C366.958 20.767 367.116 20.6719 367.249 20.5469C367.383 20.4219 367.484 20.267 367.552 20.0824L368.992 20.2443C368.901 20.625 368.728 20.9574 368.472 21.2415C368.22 21.5227 367.896 21.7415 367.501 21.8977C367.106 22.0511 366.654 22.1278 366.146 22.1278ZM370.121 24.4545V15.4545H371.638V16.5369H371.728C371.807 16.3778 371.92 16.2088 372.064 16.0298C372.209 15.848 372.405 15.6932 372.652 15.5653C372.9 15.4347 373.215 15.3693 373.598 15.3693C374.104 15.3693 374.56 15.4986 374.966 15.7571C375.375 16.0128 375.699 16.392 375.938 16.8949C376.179 17.3949 376.3 18.0085 376.3 18.7358C376.3 19.4545 376.182 20.0653 375.946 20.5682C375.711 21.071 375.39 21.4545 374.983 21.7188C374.577 21.983 374.117 22.1151 373.603 22.1151C373.228 22.1151 372.917 22.0526 372.67 21.9276C372.422 21.8026 372.223 21.652 372.073 21.4759C371.925 21.2969 371.81 21.1278 371.728 20.9688H371.664V24.4545H370.121ZM371.634 18.7273C371.634 19.1506 371.694 19.5213 371.813 19.8395C371.935 20.1577 372.11 20.4062 372.337 20.5852C372.567 20.7614 372.846 20.8494 373.172 20.8494C373.513 20.8494 373.799 20.7585 374.029 20.5767C374.259 20.392 374.432 20.1406 374.549 19.8224C374.668 19.5014 374.728 19.1364 374.728 18.7273C374.728 18.321 374.67 17.9602 374.553 17.6449C374.437 17.3295 374.263 17.0824 374.033 16.9034C373.803 16.7244 373.516 16.6349 373.172 16.6349C372.843 16.6349 372.563 16.7216 372.333 16.8949C372.103 17.0682 371.928 17.3111 371.809 17.6236C371.692 17.9361 371.634 18.304 371.634 18.7273ZM380.236 22.1278C379.597 22.1278 379.043 21.9872 378.574 21.706C378.106 21.4247 377.742 21.0312 377.483 20.5256C377.228 20.0199 377.1 19.429 377.1 18.7528C377.1 18.0767 377.228 17.4844 377.483 16.9759C377.742 16.4673 378.106 16.0724 378.574 15.7912C379.043 15.5099 379.597 15.3693 380.236 15.3693C380.876 15.3693 381.43 15.5099 381.898 15.7912C382.367 16.0724 382.729 16.4673 382.985 16.9759C383.243 17.4844 383.373 18.0767 383.373 18.7528C383.373 19.429 383.243 20.0199 382.985 20.5256C382.729 21.0312 382.367 21.4247 381.898 21.706C381.43 21.9872 380.876 22.1278 380.236 22.1278ZM380.245 20.892C380.591 20.892 380.881 20.7969 381.114 20.6065C381.347 20.4134 381.52 20.1548 381.634 19.831C381.751 19.5071 381.809 19.1463 381.809 18.7486C381.809 18.348 381.751 17.9858 381.634 17.6619C381.52 17.3352 381.347 17.0753 381.114 16.8821C380.881 16.6889 380.591 16.5923 380.245 16.5923C379.89 16.5923 379.594 16.6889 379.358 16.8821C379.126 17.0753 378.951 17.3352 378.834 17.6619C378.721 17.9858 378.664 18.348 378.664 18.7486C378.664 19.1463 378.721 19.5071 378.834 19.831C378.951 20.1548 379.126 20.4134 379.358 20.6065C379.594 20.7969 379.89 20.892 380.245 20.892ZM389.615 17.1847L388.209 17.3381C388.169 17.196 388.1 17.0625 388 16.9375C387.904 16.8125 387.773 16.7116 387.608 16.6349C387.443 16.5582 387.242 16.5199 387.003 16.5199C386.682 16.5199 386.412 16.5895 386.193 16.7287C385.978 16.8679 385.871 17.0483 385.874 17.2699C385.871 17.4602 385.941 17.6151 386.083 17.7344C386.228 17.8537 386.466 17.9517 386.799 18.0284L387.915 18.267C388.534 18.4006 388.995 18.6122 389.296 18.902C389.6 19.1918 389.753 19.571 389.756 20.0398C389.753 20.4517 389.632 20.8153 389.394 21.1307C389.158 21.4432 388.83 21.6875 388.409 21.8636C387.989 22.0398 387.506 22.1278 386.96 22.1278C386.159 22.1278 385.514 21.9602 385.026 21.625C384.537 21.2869 384.246 20.8168 384.152 20.2145L385.656 20.0696C385.725 20.3651 385.87 20.5881 386.091 20.7386C386.313 20.8892 386.601 20.9645 386.956 20.9645C387.323 20.9645 387.617 20.8892 387.838 20.7386C388.063 20.5881 388.175 20.402 388.175 20.1804C388.175 19.9929 388.103 19.8381 387.958 19.7159C387.816 19.5937 387.594 19.5 387.293 19.4347L386.176 19.2003C385.549 19.0696 385.084 18.8494 384.783 18.5398C384.482 18.2273 384.333 17.8324 384.335 17.3551C384.333 16.9517 384.442 16.6023 384.664 16.3068C384.888 16.0085 385.199 15.7784 385.597 15.6165C385.997 15.4517 386.459 15.3693 386.982 15.3693C387.749 15.3693 388.353 15.5327 388.793 15.8594C389.236 16.1861 389.51 16.6278 389.615 17.1847ZM390.788 22V15.4545H392.331V22H390.788ZM391.563 14.5256C391.319 14.5256 391.109 14.4446 390.933 14.2827C390.757 14.1179 390.669 13.9205 390.669 13.6903C390.669 13.4574 390.757 13.2599 390.933 13.098C391.109 12.9332 391.319 12.8509 391.563 12.8509C391.811 12.8509 392.021 12.9332 392.194 13.098C392.37 13.2599 392.458 13.4574 392.458 13.6903C392.458 13.9205 392.37 14.1179 392.194 14.2827C392.021 14.4446 391.811 14.5256 391.563 14.5256ZM396.945 15.4545V16.6477H393.183V15.4545H396.945ZM394.111 13.8864H395.654V20.0312C395.654 20.2386 395.685 20.3977 395.748 20.5085C395.813 20.6165 395.898 20.6903 396.004 20.7301C396.109 20.7699 396.225 20.7898 396.353 20.7898C396.45 20.7898 396.538 20.7827 396.617 20.7685C396.7 20.7543 396.762 20.7415 396.805 20.7301L397.065 21.9361C396.982 21.9645 396.864 21.9957 396.711 22.0298C396.56 22.0639 396.376 22.0838 396.157 22.0895C395.771 22.1009 395.423 22.0426 395.113 21.9148C394.803 21.7841 394.558 21.5824 394.376 21.3097C394.197 21.0369 394.109 20.696 394.111 20.2869V13.8864Z" fill="white"/>
</svg>
