<svg width="104" height="22" viewBox="0 0 104 22" fill="none" xmlns="http://www.w3.org/2000/svg">
<g opacity="0.3">
<path d="M9 3.5C13.1422 3.5 16.5 6.85775 16.5 11C16.5 15.1422 13.1422 18.5 9 18.5C4.85775 18.5 1.5 15.1422 1.5 11C1.5 6.85775 4.85775 3.5 9 3.5ZM9 6.5C8.80109 6.5 8.61032 6.57902 8.46967 6.71967C8.32902 6.86032 8.25 7.05109 8.25 7.25V11C8.25004 11.1989 8.32909 11.3896 8.46975 11.5302L10.7198 13.7802C10.8612 13.9169 11.0507 13.9925 11.2473 13.9908C11.4439 13.989 11.6321 13.9102 11.7711 13.7711C11.9102 13.6321 11.989 13.4439 11.9908 13.2473C11.9925 13.0507 11.9169 12.8612 11.7802 12.7198L9.75 10.6895V7.25C9.75 7.05109 9.67098 6.86032 9.53033 6.71967C9.38968 6.57902 9.19891 6.5 9 6.5Z" fill="white"/>
</g>
<path opacity="0.3" d="M34.0021 18.2493C32.9496 18.2493 32.0462 17.983 31.2919 17.4503C30.5419 16.9134 29.9645 16.1399 29.5597 15.13C29.1591 14.1158 28.9588 12.8949 28.9588 11.4673C28.9631 10.0398 29.1655 8.82528 29.5661 7.82386C29.9709 6.81818 30.5483 6.05114 31.2983 5.52273C32.0526 4.99432 32.9538 4.73011 34.0021 4.73011C35.0504 4.73011 35.9517 4.99432 36.706 5.52273C37.4602 6.05114 38.0376 6.81818 38.4382 7.82386C38.843 8.82955 39.0455 10.044 39.0455 11.4673C39.0455 12.8991 38.843 14.1222 38.4382 15.1364C38.0376 16.1463 37.4602 16.9176 36.706 17.4503C35.956 17.983 35.0547 18.2493 34.0021 18.2493ZM34.0021 16.2486C34.8203 16.2486 35.4659 15.8459 35.9389 15.0405C36.4162 14.2308 36.6548 13.0398 36.6548 11.4673C36.6548 10.4276 36.5462 9.55398 36.3288 8.84659C36.1115 8.1392 35.8047 7.60653 35.4084 7.24858C35.0121 6.88636 34.5433 6.70526 34.0021 6.70526C33.1882 6.70526 32.5447 7.11008 32.0717 7.91974C31.5987 8.72514 31.3601 9.90767 31.3558 11.4673C31.3516 12.5114 31.456 13.3892 31.669 14.1009C31.8864 14.8125 32.1932 15.3494 32.5895 15.7116C32.9858 16.0696 33.4567 16.2486 34.0021 16.2486ZM45.5074 18.179C44.5869 18.179 43.7687 18.0213 43.0528 17.706C42.3412 17.3906 41.7787 16.9517 41.3653 16.3892C40.952 15.8267 40.7325 15.1768 40.7069 14.4396H43.1103C43.1317 14.7933 43.2488 15.1023 43.4619 15.3665C43.675 15.6264 43.9584 15.8288 44.3121 15.9737C44.6657 16.1186 45.0621 16.1911 45.501 16.1911C45.9697 16.1911 46.3852 16.1101 46.7474 15.9482C47.1096 15.782 47.393 15.5518 47.5976 15.2578C47.8021 14.9638 47.9023 14.625 47.898 14.2415C47.9023 13.8452 47.8 13.4957 47.5912 13.1932C47.3824 12.8906 47.0798 12.6541 46.6835 12.4837C46.2915 12.3132 45.8184 12.228 45.2645 12.228H44.1075V10.3999H45.2645C45.7204 10.3999 46.1189 10.321 46.4598 10.1634C46.805 10.0057 47.0755 9.78409 47.2716 9.49858C47.4676 9.20881 47.5635 8.87429 47.5592 8.49503C47.5635 8.12429 47.4804 7.80256 47.3099 7.52983C47.1437 7.25284 46.9072 7.03764 46.6004 6.88423C46.2978 6.73082 45.942 6.65412 45.5329 6.65412C45.1324 6.65412 44.7616 6.72656 44.4207 6.87145C44.0798 7.01633 43.805 7.22301 43.5961 7.49148C43.3873 7.75568 43.2765 8.07102 43.2638 8.4375H40.9818C40.9988 7.70455 41.2098 7.06108 41.6146 6.5071C42.0237 5.94886 42.5692 5.5142 43.251 5.20312C43.9328 4.88778 44.6977 4.73011 45.5457 4.73011C46.4193 4.73011 47.1778 4.89418 47.8213 5.2223C48.469 5.54616 48.9697 5.98295 49.3234 6.53267C49.6771 7.08239 49.854 7.68963 49.854 8.3544C49.8582 9.09162 49.6409 9.70952 49.202 10.2081C48.7673 10.7067 48.1963 11.0327 47.4889 11.1861V11.2884C48.4094 11.4162 49.1146 11.7571 49.6047 12.3111C50.099 12.8608 50.344 13.5447 50.3398 14.3629C50.3398 15.0959 50.1309 15.7521 49.7133 16.3317C49.3 16.907 48.729 17.3587 48.0003 17.6868C47.2758 18.0149 46.4449 18.179 45.5074 18.179ZM53.6248 16.4276C53.237 16.4276 52.9046 16.2912 52.6277 16.0185C52.3507 15.7415 52.2143 15.4091 52.2186 15.0213C52.2143 14.6378 52.3507 14.3097 52.6277 14.0369C52.9046 13.7642 53.237 13.6278 53.6248 13.6278C53.9998 13.6278 54.3258 13.7642 54.6028 14.0369C54.884 14.3097 55.0268 14.6378 55.0311 15.0213C55.0268 15.2812 54.9586 15.5178 54.8265 15.7308C54.6987 15.9439 54.5282 16.1143 54.3152 16.2422C54.1064 16.3658 53.8762 16.4276 53.6248 16.4276ZM53.6248 9.93963C53.237 9.93963 52.9046 9.80327 52.6277 9.53054C52.3507 9.25355 52.2143 8.92116 52.2186 8.53338C52.2143 8.14986 52.3507 7.82173 52.6277 7.54901C52.9046 7.27202 53.237 7.13352 53.6248 7.13352C53.9998 7.13352 54.3258 7.27202 54.6028 7.54901C54.884 7.82173 55.0268 8.14986 55.0311 8.53338C55.0268 8.78906 54.9586 9.02344 54.8265 9.23651C54.6987 9.44957 54.5282 9.62003 54.3152 9.74787C54.1064 9.87571 53.8762 9.93963 53.6248 9.93963ZM61.8733 18.2493C60.8207 18.2493 59.9173 17.983 59.1631 17.4503C58.4131 16.9134 57.8357 16.1399 57.4308 15.13C57.0303 14.1158 56.83 12.8949 56.83 11.4673C56.8342 10.0398 57.0367 8.82528 57.4372 7.82386C57.8421 6.81818 58.4195 6.05114 59.1695 5.52273C59.9237 4.99432 60.825 4.73011 61.8733 4.73011C62.9216 4.73011 63.8229 4.99432 64.5771 5.52273C65.3314 6.05114 65.9088 6.81818 66.3094 7.82386C66.7142 8.82955 66.9166 10.044 66.9166 11.4673C66.9166 12.8991 66.7142 14.1222 66.3094 15.1364C65.9088 16.1463 65.3314 16.9176 64.5771 17.4503C63.8271 17.983 62.9259 18.2493 61.8733 18.2493ZM61.8733 16.2486C62.6915 16.2486 63.3371 15.8459 63.8101 15.0405C64.2874 14.2308 64.526 13.0398 64.526 11.4673C64.526 10.4276 64.4173 9.55398 64.2 8.84659C63.9827 8.1392 63.6759 7.60653 63.2796 7.24858C62.8832 6.88636 62.4145 6.70526 61.8733 6.70526C61.0594 6.70526 60.4159 7.11008 59.9429 7.91974C59.4699 8.72514 59.2313 9.90767 59.227 11.4673C59.2227 12.5114 59.3271 13.3892 59.5402 14.1009C59.7575 14.8125 60.0644 15.3494 60.4607 15.7116C60.857 16.0696 61.3278 16.2486 61.8733 16.2486ZM73.2315 18.179C72.3792 18.179 71.6165 18.0192 70.9432 17.6996C70.2699 17.3757 69.7351 16.9325 69.3388 16.37C68.9467 15.8075 68.7379 15.1641 68.7123 14.4396H71.0135C71.0561 14.9766 71.2883 15.4155 71.7102 15.7564C72.1321 16.093 72.6392 16.2614 73.2315 16.2614C73.696 16.2614 74.1094 16.1548 74.4716 15.9418C74.8338 15.7287 75.1193 15.4325 75.3281 15.0533C75.5369 14.674 75.6392 14.2415 75.6349 13.7557C75.6392 13.2614 75.5348 12.8224 75.3217 12.4389C75.1087 12.0554 74.8167 11.755 74.446 11.5376C74.0753 11.3161 73.6491 11.2053 73.1676 11.2053C72.7756 11.201 72.3899 11.2734 72.0106 11.4226C71.6314 11.5717 71.331 11.7678 71.1094 12.0107L68.968 11.6591L69.652 4.90909H77.2457V6.89062H71.6143L71.2372 10.3615H71.3139C71.5568 10.076 71.8998 9.83949 72.343 9.65199C72.7862 9.46023 73.272 9.36435 73.8004 9.36435C74.593 9.36435 75.3004 9.55185 75.9226 9.92685C76.5447 10.2976 77.0348 10.8089 77.3927 11.4609C77.7507 12.1129 77.9297 12.8587 77.9297 13.6982C77.9297 14.5632 77.7294 15.3345 77.3288 16.0121C76.9325 16.6854 76.3807 17.2159 75.6733 17.6037C74.9702 17.9872 74.1562 18.179 73.2315 18.179ZM81.162 16.4276C80.7742 16.4276 80.4418 16.2912 80.1648 16.0185C79.8879 15.7415 79.7515 15.4091 79.7558 15.0213C79.7515 14.6378 79.8879 14.3097 80.1648 14.0369C80.4418 13.7642 80.7742 13.6278 81.162 13.6278C81.537 13.6278 81.863 13.7642 82.14 14.0369C82.4212 14.3097 82.564 14.6378 82.5683 15.0213C82.564 15.2812 82.4958 15.5178 82.3637 15.7308C82.2359 15.9439 82.0654 16.1143 81.8523 16.2422C81.6435 16.3658 81.4134 16.4276 81.162 16.4276ZM81.162 9.93963C80.7742 9.93963 80.4418 9.80327 80.1648 9.53054C79.8879 9.25355 79.7515 8.92116 79.7558 8.53338C79.7515 8.14986 79.8879 7.82173 80.1648 7.54901C80.4418 7.27202 80.7742 7.13352 81.162 7.13352C81.537 7.13352 81.863 7.27202 82.14 7.54901C82.4212 7.82173 82.564 8.14986 82.5683 8.53338C82.564 8.78906 82.4958 9.02344 82.3637 9.23651C82.2359 9.44957 82.0654 9.62003 81.8523 9.74787C81.6435 9.87571 81.4134 9.93963 81.162 9.93963ZM89.8963 4.90909V18H87.5248V7.21662H87.4481L84.3863 9.17259V6.99929L87.6399 4.90909H89.8963ZM97.4049 4.73011C98.0313 4.73437 98.6407 4.84517 99.233 5.0625C99.8296 5.27557 100.367 5.625 100.844 6.1108C101.321 6.59233 101.7 7.23793 101.982 8.04759C102.263 8.85724 102.403 9.85866 102.403 11.0518C102.408 12.1768 102.288 13.1825 102.046 14.0689C101.807 14.951 101.464 15.6967 101.016 16.3061C100.569 16.9155 100.03 17.38 99.3992 17.6996C98.7685 18.0192 98.059 18.179 97.2707 18.179C96.444 18.179 95.711 18.017 95.0718 17.6932C94.4369 17.3693 93.9234 16.9261 93.5313 16.3636C93.1393 15.8011 92.8985 15.1577 92.809 14.4332H95.1421C95.2614 14.9531 95.5043 15.3665 95.8708 15.6733C96.2415 15.9759 96.7082 16.1271 97.2707 16.1271C98.1783 16.1271 98.8772 15.733 99.3673 14.9446C99.8573 14.1562 100.102 13.0611 100.102 11.6591H100.013C99.804 12.0341 99.5334 12.358 99.2011 12.6307C98.8687 12.8991 98.4915 13.1058 98.0697 13.2507C97.6521 13.3956 97.2089 13.468 96.7401 13.468C95.9731 13.468 95.2827 13.2848 94.6691 12.9183C94.0597 12.5518 93.5761 12.049 93.2181 11.4098C92.8644 10.7706 92.6854 10.0398 92.6812 9.21733C92.6812 8.36506 92.8772 7.60014 93.2692 6.92259C93.6655 6.24077 94.2174 5.70384 94.9248 5.31179C95.6322 4.91548 96.4589 4.72159 97.4049 4.73011ZM97.4113 6.64773C96.9511 6.64773 96.5356 6.76065 96.1648 6.98651C95.7984 7.2081 95.5086 7.51065 95.2955 7.89418C95.0867 8.27344 94.9823 8.69744 94.9823 9.16619C94.9866 9.63068 95.091 10.0526 95.2955 10.4318C95.5043 10.8111 95.7877 11.1115 96.1457 11.3331C96.5079 11.5547 96.9212 11.6655 97.3857 11.6655C97.7309 11.6655 98.0526 11.5994 98.3509 11.4673C98.6492 11.3352 98.9092 11.152 99.1307 10.9176C99.3566 10.679 99.5313 10.4084 99.6549 10.1058C99.7827 9.80327 99.8445 9.48366 99.8403 9.14702C99.8403 8.69957 99.7337 8.28622 99.5207 7.90696C99.3119 7.5277 99.0242 7.22301 98.6577 6.9929C98.2955 6.76278 97.88 6.64773 97.4113 6.64773Z" fill="white"/>
</svg>
