<svg width="123" height="52" viewBox="0 0 123 52" fill="none" xmlns="http://www.w3.org/2000/svg">
<path d="M0 24C0 10.7452 10.7452 0 24 0H99C112.255 0 123 10.7452 123 24V28C123 41.2548 112.255 52 99 52H24C10.7452 52 0 41.2548 0 28V24Z" fill="#C4FF00" fill-opacity="0.1"/>
<path d="M28.4716 19.8636V31.5H26.0114V19.8636H28.4716ZM32.5507 26.4545V31.5H30.1303V22.7727H32.4371V24.3125H32.5394C32.7326 23.8049 33.0564 23.4034 33.511 23.108C33.9655 22.8087 34.5166 22.6591 35.1644 22.6591C35.7704 22.6591 36.2988 22.7917 36.7496 23.0568C37.2004 23.322 37.5507 23.7008 37.8007 24.1932C38.0507 24.6818 38.1757 25.2652 38.1757 25.9432V31.5H35.7553V26.375C35.7591 25.8409 35.6227 25.4242 35.3462 25.125C35.0697 24.822 34.689 24.6705 34.2041 24.6705C33.8784 24.6705 33.5905 24.7405 33.3405 24.8807C33.0943 25.0208 32.9011 25.2254 32.761 25.4943C32.6246 25.7595 32.5545 26.0795 32.5507 26.4545ZM47.5873 22.7727L44.5361 31.5H41.8089L38.7577 22.7727H41.3145L43.127 29.017H43.218L45.0248 22.7727H47.5873ZM52.2019 31.6705C51.3042 31.6705 50.5315 31.4886 49.8838 31.125C49.2398 30.7576 48.7436 30.2386 48.3951 29.5682C48.0466 28.8939 47.8724 28.0966 47.8724 27.1761C47.8724 26.2784 48.0466 25.4905 48.3951 24.8125C48.7436 24.1345 49.2341 23.6061 49.8667 23.2273C50.5031 22.8485 51.2493 22.6591 52.1053 22.6591C52.6811 22.6591 53.2171 22.7519 53.7133 22.9375C54.2133 23.1193 54.6489 23.3939 55.0201 23.7614C55.3951 24.1288 55.6868 24.5909 55.8951 25.1477C56.1034 25.7008 56.2076 26.3485 56.2076 27.0909V27.7557H48.8383V26.2557H53.9292C53.9292 25.9072 53.8534 25.5985 53.7019 25.3295C53.5504 25.0606 53.3402 24.8504 53.0713 24.6989C52.8061 24.5436 52.4974 24.4659 52.1451 24.4659C51.7777 24.4659 51.4519 24.5511 51.1678 24.7216C50.8875 24.8883 50.6678 25.1136 50.5088 25.3977C50.3497 25.678 50.2682 25.9905 50.2644 26.3352V27.7614C50.2644 28.1932 50.344 28.5663 50.5031 28.8807C50.6659 29.1951 50.8951 29.4375 51.1906 29.608C51.486 29.7784 51.8364 29.8636 52.2417 29.8636C52.5106 29.8636 52.7569 29.8258 52.9803 29.75C53.2038 29.6742 53.3951 29.5606 53.5542 29.4091C53.7133 29.2576 53.8345 29.072 53.9178 28.8523L56.1565 29C56.0428 29.5379 55.8099 30.0076 55.4576 30.4091C55.1091 30.8068 54.6584 31.1174 54.1053 31.3409C53.5561 31.5606 52.9216 31.6705 52.2019 31.6705ZM59.8876 26.4545V31.5H57.4672V22.7727H59.774V24.3125H59.8762C60.0694 23.8049 60.3933 23.4034 60.8478 23.108C61.3024 22.8087 61.8535 22.6591 62.5012 22.6591C63.1073 22.6591 63.6357 22.7917 64.0865 23.0568C64.5372 23.322 64.8876 23.7008 65.1376 24.1932C65.3876 24.6818 65.5126 25.2652 65.5126 25.9432V31.5H63.0922V26.375C63.0959 25.8409 62.9596 25.4242 62.6831 25.125C62.4066 24.822 62.0259 24.6705 61.541 24.6705C61.2153 24.6705 60.9274 24.7405 60.6774 24.8807C60.4312 25.0208 60.238 25.2254 60.0978 25.4943C59.9615 25.7595 59.8914 26.0795 59.8876 26.4545ZM71.7423 22.7727V24.5909H66.4866V22.7727H71.7423ZM67.6798 20.6818H70.1003V28.8182C70.1003 29.0417 70.1344 29.2159 70.2026 29.3409C70.2707 29.4621 70.3654 29.5473 70.4866 29.5966C70.6116 29.6458 70.7556 29.6705 70.9185 29.6705C71.0321 29.6705 71.1457 29.661 71.2594 29.642C71.373 29.6193 71.4601 29.6023 71.5207 29.5909L71.9014 31.392C71.7802 31.4299 71.6098 31.4735 71.3901 31.5227C71.1704 31.5758 70.9033 31.608 70.5889 31.6193C70.0056 31.642 69.4942 31.5644 69.0548 31.3864C68.6192 31.2083 68.2802 30.9318 68.0378 30.5568C67.7954 30.1818 67.676 29.7083 67.6798 29.1364V20.6818ZM76.8485 31.6705C75.9659 31.6705 75.2026 31.483 74.5587 31.108C73.9185 30.7292 73.4242 30.2027 73.0757 29.5284C72.7273 28.8504 72.553 28.0644 72.553 27.1705C72.553 26.2689 72.7273 25.4811 73.0757 24.8068C73.4242 24.1288 73.9185 23.6023 74.5587 23.2273C75.2026 22.8485 75.9659 22.6591 76.8485 22.6591C77.731 22.6591 78.4924 22.8485 79.1326 23.2273C79.7765 23.6023 80.2727 24.1288 80.6212 24.8068C80.9697 25.4811 81.1439 26.2689 81.1439 27.1705C81.1439 28.0644 80.9697 28.8504 80.6212 29.5284C80.2727 30.2027 79.7765 30.7292 79.1326 31.108C78.4924 31.483 77.731 31.6705 76.8485 31.6705ZM76.8598 29.7955C77.2613 29.7955 77.5966 29.6818 77.8655 29.4545C78.1345 29.2235 78.3371 28.9091 78.4735 28.5114C78.6136 28.1136 78.6837 27.661 78.6837 27.1534C78.6837 26.6458 78.6136 26.1932 78.4735 25.7955C78.3371 25.3977 78.1345 25.0833 77.8655 24.8523C77.5966 24.6212 77.2613 24.5057 76.8598 24.5057C76.4545 24.5057 76.1136 24.6212 75.8371 24.8523C75.5644 25.0833 75.3579 25.3977 75.2178 25.7955C75.0814 26.1932 75.0132 26.6458 75.0132 27.1534C75.0132 27.661 75.0814 28.1136 75.2178 28.5114C75.3579 28.9091 75.5644 29.2235 75.8371 29.4545C76.1136 29.6818 76.4545 29.7955 76.8598 29.7955ZM82.3978 31.5V22.7727H84.7444V24.2955H84.8353C84.9944 23.7538 85.2614 23.3447 85.6364 23.0682C86.0114 22.7879 86.4432 22.6477 86.9319 22.6477C87.0531 22.6477 87.1838 22.6553 87.3239 22.6705C87.4641 22.6856 87.5872 22.7064 87.6932 22.733V24.8807C87.5796 24.8466 87.4224 24.8163 87.2216 24.7898C87.0209 24.7633 86.8372 24.75 86.6705 24.75C86.3144 24.75 85.9963 24.8277 85.716 24.983C85.4394 25.1345 85.2198 25.3466 85.0569 25.6193C84.8978 25.892 84.8182 26.2064 84.8182 26.5625V31.5H82.3978ZM90.3846 34.7727C90.0778 34.7727 89.7899 34.7481 89.521 34.6989C89.2558 34.6534 89.0361 34.5947 88.8619 34.5227L89.4073 32.7159C89.6914 32.803 89.9471 32.8504 90.1744 32.858C90.4054 32.8655 90.6043 32.8125 90.771 32.6989C90.9414 32.5852 91.0797 32.392 91.1857 32.1193L91.3278 31.75L88.1971 22.7727H90.7426L92.5494 29.1818H92.6403L94.4641 22.7727H97.0266L93.6346 32.4432C93.4717 32.9129 93.2501 33.322 92.9698 33.6705C92.6933 34.0227 92.3429 34.2936 91.9187 34.483C91.4944 34.6761 90.9831 34.7727 90.3846 34.7727Z" fill="#C4FF00"/>
</svg>
