<svg width="123" height="52" viewBox="0 0 123 52" fill="none" xmlns="http://www.w3.org/2000/svg">
<path d="M0 24C0 10.7452 10.7452 0 24 0H99C112.255 0 123 10.7452 123 24V28C123 41.2548 112.255 52 99 52H24C10.7452 52 0 41.2548 0 28V24Z" fill="#C4FF00" fill-opacity="0.1"/>
<path d="M44.1364 31.5H40.0114V19.8636H44.1705C45.3409 19.8636 46.3485 20.0966 47.1932 20.5625C48.0379 21.0246 48.6875 21.6894 49.142 22.5568C49.6004 23.4242 49.8295 24.4621 49.8295 25.6705C49.8295 26.8826 49.6004 27.9242 49.142 28.7955C48.6875 29.6667 48.0341 30.3352 47.1818 30.8011C46.3333 31.267 45.3182 31.5 44.1364 31.5ZM42.4716 29.392H44.0341C44.7614 29.392 45.3731 29.2633 45.8693 29.0057C46.3693 28.7443 46.7443 28.3409 46.9943 27.7955C47.2481 27.2462 47.375 26.5379 47.375 25.6705C47.375 24.8106 47.2481 24.108 46.9943 23.5625C46.7443 23.017 46.3712 22.6155 45.875 22.358C45.3788 22.1004 44.767 21.9716 44.0398 21.9716H42.4716V29.392ZM55.2638 31.6705C54.3661 31.6705 53.5934 31.4886 52.9456 31.125C52.3017 30.7576 51.8055 30.2386 51.457 29.5682C51.1085 28.8939 50.9343 28.0966 50.9343 27.1761C50.9343 26.2784 51.1085 25.4905 51.457 24.8125C51.8055 24.1345 52.296 23.6061 52.9286 23.2273C53.5649 22.8485 54.3112 22.6591 55.1672 22.6591C55.743 22.6591 56.279 22.7519 56.7752 22.9375C57.2752 23.1193 57.7108 23.3939 58.082 23.7614C58.457 24.1288 58.7487 24.5909 58.957 25.1477C59.1653 25.7008 59.2695 26.3485 59.2695 27.0909V27.7557H51.9002V26.2557H56.9911C56.9911 25.9072 56.9153 25.5985 56.7638 25.3295C56.6123 25.0606 56.4021 24.8504 56.1331 24.6989C55.868 24.5436 55.5593 24.4659 55.207 24.4659C54.8396 24.4659 54.5138 24.5511 54.2297 24.7216C53.9494 24.8883 53.7297 25.1136 53.5706 25.3977C53.4115 25.678 53.3301 25.9905 53.3263 26.3352V27.7614C53.3263 28.1932 53.4059 28.5663 53.5649 28.8807C53.7278 29.1951 53.957 29.4375 54.2524 29.608C54.5479 29.7784 54.8983 29.8636 55.3036 29.8636C55.5725 29.8636 55.8187 29.8258 56.0422 29.75C56.2657 29.6742 56.457 29.5606 56.6161 29.4091C56.7752 29.2576 56.8964 29.072 56.9797 28.8523L59.2184 29C59.1047 29.5379 58.8718 30.0076 58.5195 30.4091C58.171 30.8068 57.7202 31.1174 57.1672 31.3409C56.618 31.5606 55.9835 31.6705 55.2638 31.6705ZM60.529 31.5V22.7727H62.8359V24.3125H62.9381C63.1199 23.8011 63.423 23.3977 63.8472 23.1023C64.2715 22.8068 64.779 22.6591 65.3699 22.6591C65.9684 22.6591 66.4779 22.8087 66.8984 23.108C67.3188 23.4034 67.5991 23.8049 67.7393 24.3125H67.8302C68.0082 23.8125 68.3302 23.4129 68.7961 23.1136C69.2658 22.8106 69.8207 22.6591 70.4609 22.6591C71.2752 22.6591 71.9362 22.9186 72.4438 23.4375C72.9552 23.9527 73.2109 24.6837 73.2109 25.6307V31.5H70.7961V26.108C70.7961 25.6231 70.6673 25.2595 70.4097 25.017C70.1521 24.7746 69.8302 24.6534 69.4438 24.6534C69.0044 24.6534 68.6616 24.7936 68.4154 25.0739C68.1692 25.3504 68.0461 25.7159 68.0461 26.1705V31.5H65.6995V26.0568C65.6995 25.6288 65.5764 25.2879 65.3302 25.0341C65.0877 24.7803 64.7677 24.6534 64.3699 24.6534C64.101 24.6534 63.8586 24.7216 63.6427 24.858C63.4305 24.9905 63.262 25.178 63.137 25.4205C63.012 25.6591 62.9495 25.9394 62.9495 26.2614V31.5H60.529ZM78.746 31.6705C77.8634 31.6705 77.1001 31.483 76.4562 31.108C75.816 30.7292 75.3217 30.2027 74.9732 29.5284C74.6248 28.8504 74.4505 28.0644 74.4505 27.1705C74.4505 26.2689 74.6248 25.4811 74.9732 24.8068C75.3217 24.1288 75.816 23.6023 76.4562 23.2273C77.1001 22.8485 77.8634 22.6591 78.746 22.6591C79.6285 22.6591 80.3899 22.8485 81.0301 23.2273C81.674 23.6023 82.1702 24.1288 82.5187 24.8068C82.8672 25.4811 83.0414 26.2689 83.0414 27.1705C83.0414 28.0644 82.8672 28.8504 82.5187 29.5284C82.1702 30.2027 81.674 30.7292 81.0301 31.108C80.3899 31.483 79.6285 31.6705 78.746 31.6705ZM78.7573 29.7955C79.1588 29.7955 79.4941 29.6818 79.763 29.4545C80.032 29.2235 80.2346 28.9091 80.371 28.5114C80.5111 28.1136 80.5812 27.661 80.5812 27.1534C80.5812 26.6458 80.5111 26.1932 80.371 25.7955C80.2346 25.3977 80.032 25.0833 79.763 24.8523C79.4941 24.6212 79.1588 24.5057 78.7573 24.5057C78.352 24.5057 78.0111 24.6212 77.7346 24.8523C77.4619 25.0833 77.2554 25.3977 77.1153 25.7955C76.9789 26.1932 76.9107 26.6458 76.9107 27.1534C76.9107 27.661 76.9789 28.1136 77.1153 28.5114C77.2554 28.9091 77.4619 29.2235 77.7346 29.4545C78.0111 29.6818 78.352 29.7955 78.7573 29.7955Z" fill="#C4FF00"/>
</svg>
