<svg width="228" height="52" viewBox="0 0 228 52" fill="none" xmlns="http://www.w3.org/2000/svg">
<path d="M0 24C0 10.7452 10.7452 0 24 0H204C217.255 0 228 10.7452 228 24V28C228 41.2548 217.255 52 204 52H24C10.7452 52 0 41.2548 0 28V24Z" fill="#C4FF00"/>
<path d="M56.8352 25.6818C56.8352 26.9508 56.5946 28.0303 56.1136 28.9205C55.6363 29.8106 54.9848 30.4905 54.159 30.9602C53.3371 31.4261 52.4128 31.6591 51.3863 31.6591C50.3522 31.6591 49.4242 31.4242 48.6022 30.9545C47.7802 30.4848 47.1306 29.8049 46.6534 28.9148C46.1761 28.0246 45.9374 26.947 45.9374 25.6818C45.9374 24.4129 46.1761 23.3333 46.6534 22.4432C47.1306 21.553 47.7802 20.875 48.6022 20.4091C49.4242 19.9394 50.3522 19.7045 51.3863 19.7045C52.4128 19.7045 53.3371 19.9394 54.159 20.4091C54.9848 20.875 55.6363 21.553 56.1136 22.4432C56.5946 23.3333 56.8352 24.4129 56.8352 25.6818ZM54.3409 25.6818C54.3409 24.8598 54.2177 24.1667 53.9715 23.6023C53.7291 23.0379 53.3863 22.6098 52.9431 22.3182C52.4999 22.0265 51.981 21.8807 51.3863 21.8807C50.7916 21.8807 50.2727 22.0265 49.8295 22.3182C49.3863 22.6098 49.0416 23.0379 48.7954 23.6023C48.553 24.1667 48.4318 24.8598 48.4318 25.6818C48.4318 26.5038 48.553 27.197 48.7954 27.7614C49.0416 28.3258 49.3863 28.7538 49.8295 29.0455C50.2727 29.3371 50.7916 29.483 51.3863 29.483C51.981 29.483 52.4999 29.3371 52.9431 29.0455C53.3863 28.7538 53.7291 28.3258 53.9715 27.7614C54.2177 27.197 54.3409 26.5038 54.3409 25.6818ZM58.2922 34.7727V22.7727H60.6785V24.2386H60.7865C60.8925 24.0038 61.0459 23.7652 61.2467 23.5227C61.4513 23.2765 61.7164 23.072 62.0422 22.9091C62.3717 22.7424 62.7808 22.6591 63.2694 22.6591C63.9058 22.6591 64.4929 22.8258 65.0308 23.1591C65.5687 23.4886 65.9986 23.9867 66.3206 24.6534C66.6425 25.3163 66.8035 26.1477 66.8035 27.1477C66.8035 28.1212 66.6463 28.9432 66.3319 29.6136C66.0213 30.2803 65.5971 30.786 65.0592 31.1307C64.5251 31.4716 63.9266 31.642 63.2638 31.642C62.7941 31.642 62.3944 31.5644 62.0649 31.4091C61.7391 31.2538 61.4721 31.0587 61.2638 30.8239C61.0554 30.5852 60.8963 30.3447 60.7865 30.1023H60.7126V34.7727H58.2922ZM60.6615 27.1364C60.6615 27.6553 60.7334 28.108 60.8774 28.4943C61.0213 28.8807 61.2297 29.1818 61.5024 29.3977C61.7751 29.6098 62.1066 29.7159 62.4967 29.7159C62.8906 29.7159 63.224 29.608 63.4967 29.392C63.7694 29.1723 63.9759 28.8693 64.116 28.483C64.26 28.0928 64.3319 27.6439 64.3319 27.1364C64.3319 26.6326 64.2619 26.1894 64.1217 25.8068C63.9816 25.4242 63.7751 25.125 63.5024 24.9091C63.2297 24.6932 62.8944 24.5852 62.4967 24.5852C62.1028 24.5852 61.7694 24.6894 61.4967 24.8977C61.2278 25.1061 61.0213 25.4015 60.8774 25.7841C60.7334 26.1667 60.6615 26.6174 60.6615 27.1364ZM72.0744 31.6705C71.1767 31.6705 70.404 31.4886 69.7563 31.125C69.1123 30.7576 68.6161 30.2386 68.2676 29.5682C67.9191 28.8939 67.7449 28.0966 67.7449 27.1761C67.7449 26.2784 67.9191 25.4905 68.2676 24.8125C68.6161 24.1345 69.1066 23.6061 69.7392 23.2273C70.3756 22.8485 71.1218 22.6591 71.9778 22.6591C72.5536 22.6591 73.0896 22.7519 73.5858 22.9375C74.0858 23.1193 74.5214 23.3939 74.8926 23.7614C75.2676 24.1288 75.5593 24.5909 75.7676 25.1477C75.9759 25.7008 76.0801 26.3485 76.0801 27.0909V27.7557H68.7108V26.2557H73.8017C73.8017 25.9072 73.7259 25.5985 73.5744 25.3295C73.4229 25.0606 73.2127 24.8504 72.9438 24.6989C72.6786 24.5436 72.3699 24.4659 72.0176 24.4659C71.6502 24.4659 71.3244 24.5511 71.0403 24.7216C70.76 24.8883 70.5403 25.1136 70.3813 25.3977C70.2222 25.678 70.1407 25.9905 70.1369 26.3352V27.7614C70.1369 28.1932 70.2165 28.5663 70.3756 28.8807C70.5384 29.1951 70.7676 29.4375 71.0631 29.608C71.3585 29.7784 71.7089 29.8636 72.1142 29.8636C72.3831 29.8636 72.6294 29.8258 72.8528 29.75C73.0763 29.6742 73.2676 29.5606 73.4267 29.4091C73.5858 29.2576 73.707 29.072 73.7903 28.8523L76.029 29C75.9153 29.5379 75.6824 30.0076 75.3301 30.4091C74.9816 30.8068 74.5309 31.1174 73.9778 31.3409C73.4286 31.5606 72.7941 31.6705 72.0744 31.6705ZM79.7601 26.4545V31.5H77.3397V22.7727H79.6465V24.3125H79.7488C79.9419 23.8049 80.2658 23.4034 80.7203 23.108C81.1749 22.8087 81.726 22.6591 82.3738 22.6591C82.9798 22.6591 83.5082 22.7917 83.959 23.0568C84.4097 23.322 84.7601 23.7008 85.0101 24.1932C85.2601 24.6818 85.3851 25.2652 85.3851 25.9432V31.5H82.9647V26.375C82.9684 25.8409 82.8321 25.4242 82.5556 25.125C82.2791 24.822 81.8984 24.6705 81.4135 24.6705C81.0878 24.6705 80.7999 24.7405 80.5499 24.8807C80.3037 25.0208 80.1105 25.2254 79.9703 25.4943C79.834 25.7595 79.7639 26.0795 79.7601 26.4545ZM95.0491 22.7727V24.5909H89.6627V22.7727H95.0491ZM90.8957 31.5V22.142C90.8957 21.5095 91.0188 20.9848 91.265 20.5682C91.515 20.1515 91.8559 19.839 92.2877 19.6307C92.7195 19.4223 93.2101 19.3182 93.7593 19.3182C94.1305 19.3182 94.4695 19.3466 94.7764 19.4034C95.087 19.4602 95.318 19.5114 95.4695 19.5568L95.0377 21.375C94.943 21.3447 94.8256 21.3163 94.6855 21.2898C94.5491 21.2633 94.4089 21.25 94.265 21.25C93.9089 21.25 93.6608 21.3333 93.5207 21.5C93.3805 21.6629 93.3105 21.892 93.3105 22.1875V31.5H90.8957ZM99.8385 31.6705C98.9559 31.6705 98.1926 31.483 97.5487 31.108C96.9085 30.7292 96.4142 30.2027 96.0657 29.5284C95.7173 28.8504 95.543 28.0644 95.543 27.1705C95.543 26.2689 95.7173 25.4811 96.0657 24.8068C96.4142 24.1288 96.9085 23.6023 97.5487 23.2273C98.1926 22.8485 98.9559 22.6591 99.8385 22.6591C100.721 22.6591 101.482 22.8485 102.123 23.2273C102.766 23.6023 103.263 24.1288 103.611 24.8068C103.96 25.4811 104.134 26.2689 104.134 27.1705C104.134 28.0644 103.96 28.8504 103.611 29.5284C103.263 30.2027 102.766 30.7292 102.123 31.108C101.482 31.483 100.721 31.6705 99.8385 31.6705ZM99.8498 29.7955C100.251 29.7955 100.587 29.6818 100.856 29.4545C101.124 29.2235 101.327 28.9091 101.463 28.5114C101.604 28.1136 101.674 27.661 101.674 27.1534C101.674 26.6458 101.604 26.1932 101.463 25.7955C101.327 25.3977 101.124 25.0833 100.856 24.8523C100.587 24.6212 100.251 24.5057 99.8498 24.5057C99.4445 24.5057 99.1036 24.6212 98.8271 24.8523C98.5544 25.0833 98.3479 25.3977 98.2078 25.7955C98.0714 26.1932 98.0032 26.6458 98.0032 27.1534C98.0032 27.661 98.0714 28.1136 98.2078 28.5114C98.3479 28.9091 98.5544 29.2235 98.8271 29.4545C99.1036 29.6818 99.4445 29.7955 99.8498 29.7955ZM105.388 31.5V22.7727H107.734V24.2955H107.825C107.984 23.7538 108.251 23.3447 108.626 23.0682C109.001 22.7879 109.433 22.6477 109.922 22.6477C110.043 22.6477 110.174 22.6553 110.314 22.6705C110.454 22.6856 110.577 22.7064 110.683 22.733V24.8807C110.57 24.8466 110.412 24.8163 110.212 24.7898C110.011 24.7633 109.827 24.75 109.661 24.75C109.304 24.75 108.986 24.8277 108.706 24.983C108.429 25.1345 108.21 25.3466 108.047 25.6193C107.888 25.892 107.808 26.2064 107.808 26.5625V31.5H105.388ZM119.276 31.6591C118.428 31.6591 117.672 31.5133 117.009 31.2216C116.35 30.9261 115.829 30.5208 115.447 30.0057C115.068 29.4867 114.873 28.8883 114.861 28.2102H117.339C117.354 28.4943 117.447 28.7443 117.617 28.9602C117.791 29.1723 118.022 29.3371 118.31 29.4545C118.598 29.572 118.922 29.6307 119.282 29.6307C119.657 29.6307 119.988 29.5644 120.276 29.4318C120.564 29.2992 120.789 29.1155 120.952 28.8807C121.115 28.6458 121.197 28.375 121.197 28.0682C121.197 27.7576 121.11 27.483 120.935 27.2443C120.765 27.0019 120.519 26.8125 120.197 26.6761C119.878 26.5398 119.5 26.4716 119.06 26.4716H117.975V24.6648H119.06C119.431 24.6648 119.759 24.6004 120.043 24.4716C120.331 24.3428 120.555 24.1648 120.714 23.9375C120.873 23.7064 120.952 23.4375 120.952 23.1307C120.952 22.839 120.882 22.5833 120.742 22.3636C120.606 22.1402 120.413 21.9659 120.163 21.8409C119.916 21.7159 119.628 21.6534 119.299 21.6534C118.966 21.6534 118.661 21.714 118.384 21.8352C118.108 21.9527 117.886 22.1212 117.719 22.3409C117.553 22.5606 117.464 22.8182 117.452 23.1136H115.094C115.106 22.4432 115.297 21.8523 115.668 21.3409C116.039 20.8295 116.539 20.4299 117.168 20.142C117.801 19.8504 118.515 19.7045 119.31 19.7045C120.113 19.7045 120.816 19.8504 121.418 20.142C122.021 20.4337 122.488 20.8277 122.822 21.3239C123.159 21.8163 123.325 22.3693 123.322 22.983C123.325 23.6345 123.123 24.178 122.714 24.6136C122.308 25.0492 121.78 25.3258 121.128 25.4432V25.5341C121.985 25.6439 122.636 25.9413 123.083 26.4261C123.534 26.9072 123.757 27.5095 123.753 28.233C123.757 28.8958 123.566 29.4848 123.18 30C122.797 30.5152 122.269 30.9205 121.594 31.2159C120.92 31.5114 120.147 31.6591 119.276 31.6591ZM129.503 31.6591C128.655 31.6591 127.899 31.5133 127.236 31.2216C126.577 30.9261 126.056 30.5208 125.674 30.0057C125.295 29.4867 125.1 28.8883 125.088 28.2102H127.566C127.581 28.4943 127.674 28.7443 127.844 28.9602C128.018 29.1723 128.249 29.3371 128.537 29.4545C128.825 29.572 129.149 29.6307 129.509 29.6307C129.884 29.6307 130.215 29.5644 130.503 29.4318C130.791 29.2992 131.016 29.1155 131.179 28.8807C131.342 28.6458 131.424 28.375 131.424 28.0682C131.424 27.7576 131.336 27.483 131.162 27.2443C130.992 27.0019 130.746 26.8125 130.424 26.6761C130.105 26.5398 129.727 26.4716 129.287 26.4716H128.202V24.6648H129.287C129.658 24.6648 129.986 24.6004 130.27 24.4716C130.558 24.3428 130.781 24.1648 130.941 23.9375C131.1 23.7064 131.179 23.4375 131.179 23.1307C131.179 22.839 131.109 22.5833 130.969 22.3636C130.833 22.1402 130.639 21.9659 130.389 21.8409C130.143 21.7159 129.855 21.6534 129.526 21.6534C129.192 21.6534 128.888 21.714 128.611 21.8352C128.335 21.9527 128.113 22.1212 127.946 22.3409C127.78 22.5606 127.691 22.8182 127.679 23.1136H125.321C125.333 22.4432 125.524 21.8523 125.895 21.3409C126.266 20.8295 126.766 20.4299 127.395 20.142C128.028 19.8504 128.742 19.7045 129.537 19.7045C130.34 19.7045 131.043 19.8504 131.645 20.142C132.247 20.4337 132.715 20.8277 133.049 21.3239C133.386 21.8163 133.552 22.3693 133.549 22.983C133.552 23.6345 133.35 24.178 132.941 24.6136C132.535 25.0492 132.007 25.3258 131.355 25.4432V25.5341C132.211 25.6439 132.863 25.9413 133.31 26.4261C133.761 26.9072 133.984 27.5095 133.98 28.233C133.984 28.8958 133.793 29.4848 133.406 30C133.024 30.5152 132.496 30.9205 131.821 31.2159C131.147 31.5114 130.374 31.6591 129.503 31.6591ZM136.538 31.6477C136.163 31.6477 135.841 31.5152 135.572 31.25C135.307 30.9811 135.175 30.6591 135.175 30.2841C135.175 29.9129 135.307 29.5947 135.572 29.3295C135.841 29.0644 136.163 28.9318 136.538 28.9318C136.902 28.9318 137.22 29.0644 137.493 29.3295C137.765 29.5947 137.902 29.9129 137.902 30.2841C137.902 30.5341 137.837 30.7633 137.709 30.9716C137.584 31.1761 137.419 31.3409 137.214 31.4659C137.01 31.5871 136.784 31.6477 136.538 31.6477ZM143.538 19.7045C144.136 19.7045 144.712 19.8049 145.265 20.0057C145.822 20.2064 146.318 20.5265 146.754 20.9659C147.193 21.4053 147.54 21.9886 147.793 22.7159C148.051 23.4394 148.182 24.3277 148.186 25.3807C148.186 26.3693 148.074 27.2519 147.85 28.0284C147.631 28.8011 147.314 29.4583 146.901 30C146.489 30.5417 145.99 30.9545 145.407 31.2386C144.824 31.5189 144.172 31.6591 143.453 31.6591C142.676 31.6591 141.99 31.5095 141.396 31.2102C140.801 30.9072 140.322 30.4962 139.958 29.9773C139.598 29.4545 139.381 28.8674 139.305 28.2159H141.731C141.826 28.6402 142.025 28.9697 142.328 29.2045C142.631 29.4356 143.006 29.5511 143.453 29.5511C144.21 29.5511 144.786 29.2216 145.18 28.5625C145.574 27.8996 145.773 26.9924 145.776 25.8409H145.697C145.523 26.1818 145.288 26.4754 144.992 26.7216C144.697 26.964 144.358 27.1515 143.975 27.2841C143.597 27.4167 143.193 27.483 142.765 27.483C142.079 27.483 141.468 27.322 140.93 27C140.392 26.678 139.968 26.2348 139.657 25.6705C139.347 25.1061 139.191 24.4621 139.191 23.7386C139.187 22.9583 139.367 22.2633 139.731 21.6534C140.095 21.0436 140.602 20.5663 141.254 20.2216C141.909 19.8731 142.67 19.7008 143.538 19.7045ZM143.555 21.6364C143.172 21.6364 142.831 21.7273 142.532 21.9091C142.237 22.0909 142.002 22.3352 141.828 22.642C141.657 22.9489 141.574 23.2917 141.578 23.6705C141.578 24.053 141.661 24.3977 141.828 24.7045C141.998 25.0076 142.229 25.25 142.521 25.4318C142.816 25.6098 143.153 25.6989 143.532 25.6989C143.816 25.6989 144.079 25.6458 144.322 25.5398C144.564 25.4337 144.775 25.2879 144.953 25.1023C145.134 24.9129 145.276 24.6951 145.379 24.4489C145.481 24.2027 145.532 23.9413 145.532 23.6648C145.528 23.2973 145.441 22.9602 145.271 22.6534C145.1 22.3466 144.865 22.1004 144.566 21.9148C144.267 21.7292 143.93 21.6364 143.555 21.6364ZM153.78 19.7045C154.379 19.7045 154.955 19.8049 155.508 20.0057C156.064 20.2064 156.561 20.5265 156.996 20.9659C157.436 21.4053 157.782 21.9886 158.036 22.7159C158.294 23.4394 158.424 24.3277 158.428 25.3807C158.428 26.3693 158.316 27.2519 158.093 28.0284C157.873 28.8011 157.557 29.4583 157.144 30C156.731 30.5417 156.233 30.9545 155.65 31.2386C155.066 31.5189 154.415 31.6591 153.695 31.6591C152.919 31.6591 152.233 31.5095 151.638 31.2102C151.044 30.9072 150.564 30.4962 150.201 29.9773C149.841 29.4545 149.623 28.8674 149.547 28.2159H151.973C152.068 28.6402 152.267 28.9697 152.57 29.2045C152.873 29.4356 153.248 29.5511 153.695 29.5511C154.453 29.5511 155.028 29.2216 155.422 28.5625C155.816 27.8996 156.015 26.9924 156.019 25.8409H155.939C155.765 26.1818 155.53 26.4754 155.235 26.7216C154.939 26.964 154.6 27.1515 154.218 27.2841C153.839 27.4167 153.436 27.483 153.008 27.483C152.322 27.483 151.71 27.322 151.172 27C150.634 26.678 150.21 26.2348 149.9 25.6705C149.589 25.1061 149.434 24.4621 149.434 23.7386C149.43 22.9583 149.61 22.2633 149.973 21.6534C150.337 21.0436 150.845 20.5663 151.496 20.2216C152.151 19.8731 152.913 19.7008 153.78 19.7045ZM153.797 21.6364C153.415 21.6364 153.074 21.7273 152.775 21.9091C152.479 22.0909 152.244 22.3352 152.07 22.642C151.9 22.9489 151.816 23.2917 151.82 23.6705C151.82 24.053 151.903 24.3977 152.07 24.7045C152.241 25.0076 152.472 25.25 152.763 25.4318C153.059 25.6098 153.396 25.6989 153.775 25.6989C154.059 25.6989 154.322 25.6458 154.564 25.5398C154.807 25.4337 155.017 25.2879 155.195 25.1023C155.377 24.9129 155.519 24.6951 155.621 24.4489C155.723 24.2027 155.775 23.9413 155.775 23.6648C155.771 23.2973 155.684 22.9602 155.513 22.6534C155.343 22.3466 155.108 22.1004 154.809 21.9148C154.509 21.7292 154.172 21.6364 153.797 21.6364Z" fill="#242424"/>
<g clip-path="url(#clip0_87_5954)">
<rect x="169" y="21" width="10" height="11" fill="white"/>
<path d="M174 17C169.03 17 165 21.0298 165 26C165 30.9702 169.03 35 174 35C178.97 35 183 30.9702 183 26C183 21.0298 178.97 17 174 17ZM170.926 22.0228H177.073C178.202 22.0228 178.92 23.2438 178.352 24.2278L174.558 30.8015C174.501 30.8993 174.42 30.9804 174.322 31.0369C174.224 31.0933 174.113 31.123 174 31.123C173.887 31.123 173.776 31.0933 173.678 31.0369C173.58 30.9804 173.499 30.8993 173.442 30.8015L169.649 24.2278C169.081 23.2423 169.797 22.0228 170.926 22.0228ZM174.56 23.1447V28.8297L175.386 27.2338L177.378 23.6667C177.409 23.6135 177.424 23.5531 177.424 23.4917C177.424 23.4303 177.407 23.3701 177.376 23.3171C177.345 23.2642 177.301 23.2203 177.247 23.1901C177.194 23.1598 177.133 23.1442 177.072 23.1447H174.56ZM170.925 23.1462C170.864 23.1456 170.803 23.1611 170.75 23.1912C170.697 23.2214 170.652 23.2651 170.621 23.3179C170.59 23.3707 170.574 23.4307 170.573 23.492C170.573 23.5533 170.589 23.6135 170.619 23.6667L172.612 27.2322L173.439 28.8297V23.1462H170.925Z" fill="#0077FF"/>
</g>
<defs>
<clipPath id="clip0_87_5954">
<rect width="18" height="18" fill="white" transform="translate(165 17)"/>
</clipPath>
</defs>
</svg>
