<svg width="358" height="37" viewBox="0 0 358 37" fill="none" xmlns="http://www.w3.org/2000/svg">
<rect width="71" height="37" rx="12" fill="white" fill-opacity="0.05"/>
<path d="M37.0337 13.8182V24H35.4925V15.3594H35.4329L32.9968 16.9503V15.4787L35.5373 13.8182H37.0337Z" fill="white"/>
<rect x="71" width="71" height="37" rx="12" fill="#15151A"/>
<path d="M103.186 24V22.8864L106.632 19.3168C107 18.929 107.303 18.5893 107.542 18.2976C107.783 18.0026 107.964 17.7225 108.083 17.4574C108.203 17.1922 108.262 16.9105 108.262 16.6122C108.262 16.2741 108.183 15.9825 108.024 15.7372C107.865 15.4886 107.648 15.2981 107.373 15.1655C107.097 15.0296 106.788 14.9616 106.443 14.9616C106.078 14.9616 105.76 15.0362 105.488 15.1854C105.217 15.3345 105.008 15.545 104.862 15.8168C104.716 16.0885 104.643 16.4067 104.643 16.7713H103.176C103.176 16.1515 103.319 15.6096 103.604 15.1456C103.889 14.6816 104.28 14.322 104.777 14.0668C105.275 13.8082 105.84 13.679 106.473 13.679C107.112 13.679 107.676 13.8066 108.163 14.0618C108.654 14.3137 109.036 14.6584 109.311 15.0959C109.587 15.5301 109.724 16.0206 109.724 16.5675C109.724 16.9453 109.653 17.3149 109.51 17.6761C109.371 18.0374 109.127 18.4401 108.779 18.8842C108.431 19.325 107.948 19.8603 107.328 20.4901L105.304 22.608V22.6825H109.888V24H103.186Z" fill="white"/>
<rect x="142" width="71" height="37" rx="12" fill="#15151A"/>
<path d="M177.512 24.1392C176.83 24.1392 176.22 24.0215 175.683 23.7862C175.149 23.5509 174.727 23.2244 174.415 22.8068C174.107 22.3859 173.941 21.8987 173.918 21.3452H175.479C175.499 21.6468 175.6 21.9086 175.782 22.1307C175.968 22.3494 176.21 22.5185 176.508 22.6378C176.806 22.7571 177.138 22.8168 177.502 22.8168C177.904 22.8168 178.258 22.7472 178.566 22.608C178.878 22.4687 179.122 22.2749 179.297 22.0263C179.473 21.7744 179.561 21.4844 179.561 21.1562C179.561 20.8149 179.473 20.5149 179.297 20.2564C179.125 19.9946 178.871 19.7891 178.537 19.6399C178.205 19.4908 177.804 19.4162 177.333 19.4162H176.473V18.1634H177.333C177.711 18.1634 178.043 18.0954 178.328 17.9595C178.616 17.8236 178.842 17.6347 179.004 17.3928C179.166 17.1475 179.248 16.8608 179.248 16.5327C179.248 16.2178 179.176 15.9444 179.034 15.7124C178.895 15.477 178.696 15.2931 178.437 15.1605C178.182 15.0279 177.88 14.9616 177.532 14.9616C177.201 14.9616 176.891 15.023 176.603 15.1456C176.318 15.2649 176.086 15.4373 175.907 15.6626C175.728 15.8847 175.632 16.1515 175.618 16.4631H174.132C174.148 15.9129 174.311 15.429 174.619 15.0114C174.931 14.5937 175.342 14.2673 175.852 14.032C176.362 13.7966 176.929 13.679 177.552 13.679C178.205 13.679 178.769 13.8066 179.243 14.0618C179.72 14.3137 180.088 14.6501 180.346 15.071C180.608 15.492 180.737 15.9527 180.734 16.4531C180.737 17.0232 180.578 17.5071 180.257 17.9048C179.939 18.3026 179.514 18.5694 178.984 18.7053V18.7848C179.66 18.8875 180.184 19.156 180.555 19.5902C180.93 20.0244 181.115 20.563 181.112 21.206C181.115 21.7661 180.959 22.2682 180.645 22.7124C180.333 23.1565 179.907 23.5062 179.367 23.7614C178.827 24.0133 178.208 24.1392 177.512 24.1392Z" fill="white"/>
<rect x="213" width="71" height="37" rx="12" fill="#15151A"/>
<path d="M244.686 22.0114V20.7685L249.085 13.8182H250.065V15.6477H249.443L246.296 20.6293V20.7088H252.327V22.0114H244.686ZM249.513 24V21.6335L249.523 21.0668V13.8182H250.98V24H249.513Z" fill="white"/>
<rect x="284" width="71" height="37" rx="12" fill="#15151A"/>
<path d="M319.499 24.1392C318.876 24.1392 318.316 24.0199 317.819 23.7812C317.325 23.5393 316.931 23.2079 316.636 22.7869C316.341 22.366 316.183 21.8854 316.163 21.3452H317.655C317.691 21.7827 317.885 22.1423 318.237 22.424C318.588 22.7057 319.009 22.8466 319.499 22.8466C319.89 22.8466 320.237 22.7571 320.538 22.5781C320.843 22.3958 321.082 22.1456 321.254 21.8274C321.43 21.5092 321.518 21.1463 321.518 20.7386C321.518 20.3243 321.428 19.9548 321.249 19.63C321.07 19.3052 320.823 19.05 320.509 18.8643C320.197 18.6787 319.839 18.5843 319.435 18.581C319.127 18.581 318.817 18.634 318.505 18.7401C318.194 18.8461 317.942 18.9853 317.749 19.1577L316.342 18.9489L316.914 13.8182H322.512V15.1357H318.192L317.869 17.9844H317.928C318.127 17.7921 318.391 17.6314 318.719 17.5021C319.05 17.3729 319.405 17.3082 319.783 17.3082C320.403 17.3082 320.954 17.4557 321.438 17.7507C321.926 18.0457 322.308 18.4484 322.587 18.9588C322.868 19.4659 323.008 20.0492 323.004 20.7088C323.008 21.3684 322.859 21.9567 322.557 22.4737C322.259 22.9908 321.844 23.3984 321.314 23.6967C320.787 23.9917 320.182 24.1392 319.499 24.1392Z" fill="white"/>
</svg>
