<svg width="50" height="50" viewBox="0 0 50 50" fill="none" xmlns="http://www.w3.org/2000/svg">
<path fill-rule="evenodd" clip-rule="evenodd" d="M13.1875 19.4376C13.627 18.9987 14.2227 18.7522 14.8438 18.7522C15.4649 18.7522 16.0606 18.9987 16.5 19.4376L25 27.9376L33.5 19.4376C33.7146 19.2073 33.9733 19.0226 34.2608 18.8945C34.5483 18.7664 34.8587 18.6976 35.1734 18.692C35.4881 18.6865 35.8007 18.7443 36.0925 18.8622C36.3843 18.9801 36.6494 19.1556 36.872 19.3781C37.0946 19.6007 37.27 19.8658 37.3879 20.1576C37.5058 20.4495 37.5637 20.762 37.5581 21.0767C37.5526 21.3914 37.4837 21.7018 37.3556 21.9893C37.2275 22.2768 37.0428 22.5355 36.8125 22.7501L26.6563 32.9064C26.2168 33.3453 25.6211 33.5918 25 33.5918C24.3789 33.5918 23.7832 33.3453 23.3438 32.9064L13.1875 22.7501C12.7486 22.3107 12.5021 21.715 12.5021 21.0939C12.5021 20.4728 12.7486 19.8771 13.1875 19.4376Z" fill="white"/>
</svg>
